<?xml version="1.0" encoding="utf-8" standalone="no"?>
<!DOCTYPE svg PUBLIC "-//W3C//DTD SVG 1.1//EN"
  "http://www.w3.org/Graphics/SVG/1.1/DTD/svg11.dtd">
<svg xmlns:xlink="http://www.w3.org/1999/xlink" width="1910.860931pt" height="675.245938pt" viewBox="0 0 1910.860931 675.245938" xmlns="http://www.w3.org/2000/svg" version="1.1">
 <metadata>
  <rdf:RDF xmlns:dc="http://purl.org/dc/elements/1.1/" xmlns:cc="http://creativecommons.org/ns#" xmlns:rdf="http://www.w3.org/1999/02/22-rdf-syntax-ns#">
   <cc:Work>
    <dc:type rdf:resource="http://purl.org/dc/dcmitype/StillImage"/>
    <dc:date>2023-10-15T03:31:33.094399</dc:date>
    <dc:format>image/svg+xml</dc:format>
    <dc:creator>
     <cc:Agent>
      <dc:title>Matplotlib v3.8.0, https://matplotlib.org/</dc:title>
     </cc:Agent>
    </dc:creator>
   </cc:Work>
  </rdf:RDF>
 </metadata>
 <defs>
  <style type="text/css">*{stroke-linejoin: round; stroke-linecap: butt}</style>
 </defs>
 <g id="figure_1">
  <g id="patch_1">
   <path d="M 0 675.245938 
L 1910.860931 675.245938 
L 1910.860931 0 
L 0 0 
z
" style="fill: #ffffff"/>
  </g>
  <g id="axes_1">
   <g id="patch_2">
    <path d="M 103.847813 575.066875 
L 574.461584 575.066875 
L 574.461584 53.446875 
L 103.847813 53.446875 
z
" style="fill: #ffffff"/>
   </g>
   <g id="matplotlib.axis_1">
    <g id="xtick_1">
     <g id="line2d_1">
      <path d="M 107.807874 575.066875 
L 107.807874 53.446875 
" clip-path="url(#p7978011bf1)" style="fill: none; stroke: #000000; stroke-width: 0.7; stroke-linecap: square"/>
     </g>
     <g id="line2d_2">
      <defs>
       <path id="ma2dc3f36f7" d="M 0 0 
L 0 -10 
" style="stroke: #000000; stroke-width: 2"/>
      </defs>
      <g>
       <use xlink:href="#ma2dc3f36f7" x="107.807874" y="575.066875" style="stroke: #000000; stroke-width: 2"/>
      </g>
     </g>
     <g id="text_1">
      <!-- 20 -->
      <g transform="translate(87.807874 606.341875) scale(0.4 -0.4)">
       <defs>
        <path id="TimesNewRomanPSMT-32" d="M 2934 816 
L 2638 0 
L 138 0 
L 138 116 
Q 1241 1122 1691 1759 
Q 2141 2397 2141 2925 
Q 2141 3328 1894 3587 
Q 1647 3847 1303 3847 
Q 991 3847 742 3664 
Q 494 3481 375 3128 
L 259 3128 
Q 338 3706 661 4015 
Q 984 4325 1469 4325 
Q 1984 4325 2329 3994 
Q 2675 3663 2675 3213 
Q 2675 2891 2525 2569 
Q 2294 2063 1775 1497 
Q 997 647 803 472 
L 1909 472 
Q 2247 472 2383 497 
Q 2519 522 2628 598 
Q 2738 675 2819 816 
L 2934 816 
z
" transform="scale(0.015625)"/>
        <path id="TimesNewRomanPSMT-30" d="M 231 2094 
Q 231 2819 450 3342 
Q 669 3866 1031 4122 
Q 1313 4325 1613 4325 
Q 2100 4325 2488 3828 
Q 2972 3213 2972 2159 
Q 2972 1422 2759 906 
Q 2547 391 2217 158 
Q 1888 -75 1581 -75 
Q 975 -75 572 641 
Q 231 1244 231 2094 
z
M 844 2016 
Q 844 1141 1059 588 
Q 1238 122 1591 122 
Q 1759 122 1940 273 
Q 2122 425 2216 781 
Q 2359 1319 2359 2297 
Q 2359 3022 2209 3506 
Q 2097 3866 1919 4016 
Q 1791 4119 1609 4119 
Q 1397 4119 1231 3928 
Q 1006 3669 925 3112 
Q 844 2556 844 2016 
z
" transform="scale(0.015625)"/>
       </defs>
       <use xlink:href="#TimesNewRomanPSMT-32"/>
       <use xlink:href="#TimesNewRomanPSMT-30" x="50"/>
      </g>
     </g>
    </g>
    <g id="xtick_2">
     <g id="line2d_3">
      <path d="M 169.569832 575.066875 
L 169.569832 53.446875 
" clip-path="url(#p7978011bf1)" style="fill: none; stroke: #000000; stroke-width: 0.7; stroke-linecap: square"/>
     </g>
     <g id="line2d_4">
      <g>
       <use xlink:href="#ma2dc3f36f7" x="169.569832" y="575.066875" style="stroke: #000000; stroke-width: 2"/>
      </g>
     </g>
     <g id="text_2">
      <!-- 25 -->
      <g transform="translate(149.569832 606.341875) scale(0.4 -0.4)">
       <defs>
        <path id="TimesNewRomanPSMT-35" d="M 2778 4238 
L 2534 3706 
L 1259 3706 
L 981 3138 
Q 1809 3016 2294 2522 
Q 2709 2097 2709 1522 
Q 2709 1188 2573 903 
Q 2438 619 2231 419 
Q 2025 219 1772 97 
Q 1413 -75 1034 -75 
Q 653 -75 479 54 
Q 306 184 306 341 
Q 306 428 378 495 
Q 450 563 559 563 
Q 641 563 702 538 
Q 763 513 909 409 
Q 1144 247 1384 247 
Q 1750 247 2026 523 
Q 2303 800 2303 1197 
Q 2303 1581 2056 1914 
Q 1809 2247 1375 2428 
Q 1034 2569 447 2591 
L 1259 4238 
L 2778 4238 
z
" transform="scale(0.015625)"/>
       </defs>
       <use xlink:href="#TimesNewRomanPSMT-32"/>
       <use xlink:href="#TimesNewRomanPSMT-35" x="50"/>
      </g>
     </g>
    </g>
    <g id="xtick_3">
     <g id="line2d_5">
      <path d="M 231.33179 575.066875 
L 231.33179 53.446875 
" clip-path="url(#p7978011bf1)" style="fill: none; stroke: #000000; stroke-width: 0.7; stroke-linecap: square"/>
     </g>
     <g id="line2d_6">
      <g>
       <use xlink:href="#ma2dc3f36f7" x="231.33179" y="575.066875" style="stroke: #000000; stroke-width: 2"/>
      </g>
     </g>
     <g id="text_3">
      <!-- 30 -->
      <g transform="translate(211.33179 606.341875) scale(0.4 -0.4)">
       <defs>
        <path id="TimesNewRomanPSMT-33" d="M 325 3431 
Q 506 3859 782 4092 
Q 1059 4325 1472 4325 
Q 1981 4325 2253 3994 
Q 2459 3747 2459 3466 
Q 2459 3003 1878 2509 
Q 2269 2356 2469 2072 
Q 2669 1788 2669 1403 
Q 2669 853 2319 450 
Q 1863 -75 997 -75 
Q 569 -75 414 31 
Q 259 138 259 259 
Q 259 350 332 419 
Q 406 488 509 488 
Q 588 488 669 463 
Q 722 447 909 348 
Q 1097 250 1169 231 
Q 1284 197 1416 197 
Q 1734 197 1970 444 
Q 2206 691 2206 1028 
Q 2206 1275 2097 1509 
Q 2016 1684 1919 1775 
Q 1784 1900 1550 2001 
Q 1316 2103 1072 2103 
L 972 2103 
L 972 2197 
Q 1219 2228 1467 2375 
Q 1716 2522 1828 2728 
Q 1941 2934 1941 3181 
Q 1941 3503 1739 3701 
Q 1538 3900 1238 3900 
Q 753 3900 428 3381 
L 325 3431 
z
" transform="scale(0.015625)"/>
       </defs>
       <use xlink:href="#TimesNewRomanPSMT-33"/>
       <use xlink:href="#TimesNewRomanPSMT-30" x="50"/>
      </g>
     </g>
    </g>
    <g id="xtick_4">
     <g id="line2d_7">
      <path d="M 293.093748 575.066875 
L 293.093748 53.446875 
" clip-path="url(#p7978011bf1)" style="fill: none; stroke: #000000; stroke-width: 0.7; stroke-linecap: square"/>
     </g>
     <g id="line2d_8">
      <g>
       <use xlink:href="#ma2dc3f36f7" x="293.093748" y="575.066875" style="stroke: #000000; stroke-width: 2"/>
      </g>
     </g>
     <g id="text_4">
      <!-- 35 -->
      <g transform="translate(273.093748 606.341875) scale(0.4 -0.4)">
       <use xlink:href="#TimesNewRomanPSMT-33"/>
       <use xlink:href="#TimesNewRomanPSMT-35" x="50"/>
      </g>
     </g>
    </g>
    <g id="xtick_5">
     <g id="line2d_9">
      <path d="M 354.855706 575.066875 
L 354.855706 53.446875 
" clip-path="url(#p7978011bf1)" style="fill: none; stroke: #000000; stroke-width: 0.7; stroke-linecap: square"/>
     </g>
     <g id="line2d_10">
      <g>
       <use xlink:href="#ma2dc3f36f7" x="354.855706" y="575.066875" style="stroke: #000000; stroke-width: 2"/>
      </g>
     </g>
     <g id="text_5">
      <!-- 40 -->
      <g transform="translate(334.855706 606.341875) scale(0.4 -0.4)">
       <defs>
        <path id="TimesNewRomanPSMT-34" d="M 2978 1563 
L 2978 1119 
L 2409 1119 
L 2409 0 
L 1894 0 
L 1894 1119 
L 100 1119 
L 100 1519 
L 2066 4325 
L 2409 4325 
L 2409 1563 
L 2978 1563 
z
M 1894 1563 
L 1894 3666 
L 406 1563 
L 1894 1563 
z
" transform="scale(0.015625)"/>
       </defs>
       <use xlink:href="#TimesNewRomanPSMT-34"/>
       <use xlink:href="#TimesNewRomanPSMT-30" x="50"/>
      </g>
     </g>
    </g>
    <g id="xtick_6">
     <g id="line2d_11">
      <path d="M 416.617664 575.066875 
L 416.617664 53.446875 
" clip-path="url(#p7978011bf1)" style="fill: none; stroke: #000000; stroke-width: 0.7; stroke-linecap: square"/>
     </g>
     <g id="line2d_12">
      <g>
       <use xlink:href="#ma2dc3f36f7" x="416.617664" y="575.066875" style="stroke: #000000; stroke-width: 2"/>
      </g>
     </g>
     <g id="text_6">
      <!-- 45 -->
      <g transform="translate(396.617664 606.341875) scale(0.4 -0.4)">
       <use xlink:href="#TimesNewRomanPSMT-34"/>
       <use xlink:href="#TimesNewRomanPSMT-35" x="50"/>
      </g>
     </g>
    </g>
    <g id="xtick_7">
     <g id="line2d_13">
      <path d="M 478.379622 575.066875 
L 478.379622 53.446875 
" clip-path="url(#p7978011bf1)" style="fill: none; stroke: #000000; stroke-width: 0.7; stroke-linecap: square"/>
     </g>
     <g id="line2d_14">
      <g>
       <use xlink:href="#ma2dc3f36f7" x="478.379622" y="575.066875" style="stroke: #000000; stroke-width: 2"/>
      </g>
     </g>
     <g id="text_7">
      <!-- 50 -->
      <g transform="translate(458.379622 606.341875) scale(0.4 -0.4)">
       <use xlink:href="#TimesNewRomanPSMT-35"/>
       <use xlink:href="#TimesNewRomanPSMT-30" x="50"/>
      </g>
     </g>
    </g>
    <g id="xtick_8">
     <g id="line2d_15">
      <path d="M 540.141581 575.066875 
L 540.141581 53.446875 
" clip-path="url(#p7978011bf1)" style="fill: none; stroke: #000000; stroke-width: 0.7; stroke-linecap: square"/>
     </g>
     <g id="line2d_16">
      <g>
       <use xlink:href="#ma2dc3f36f7" x="540.141581" y="575.066875" style="stroke: #000000; stroke-width: 2"/>
      </g>
     </g>
     <g id="text_8">
      <!-- 55 -->
      <g transform="translate(520.141581 606.341875) scale(0.4 -0.4)">
       <use xlink:href="#TimesNewRomanPSMT-35"/>
       <use xlink:href="#TimesNewRomanPSMT-35" x="50"/>
      </g>
     </g>
    </g>
    <g id="text_9">
     <!-- True data -->
     <g transform="translate(260.020792 659.061875) scale(0.42 -0.42)">
      <defs>
       <path id="TimesNewRomanPSMT-54" d="M 3703 4238 
L 3750 3244 
L 3631 3244 
Q 3597 3506 3538 3619 
Q 3441 3800 3280 3886 
Q 3119 3972 2856 3972 
L 2259 3972 
L 2259 734 
Q 2259 344 2344 247 
Q 2463 116 2709 116 
L 2856 116 
L 2856 0 
L 1059 0 
L 1059 116 
L 1209 116 
Q 1478 116 1591 278 
Q 1659 378 1659 734 
L 1659 3972 
L 1150 3972 
Q 853 3972 728 3928 
Q 566 3869 450 3700 
Q 334 3531 313 3244 
L 194 3244 
L 244 4238 
L 3703 4238 
z
" transform="scale(0.015625)"/>
       <path id="TimesNewRomanPSMT-72" d="M 1038 2947 
L 1038 2303 
Q 1397 2947 1775 2947 
Q 1947 2947 2059 2842 
Q 2172 2738 2172 2600 
Q 2172 2478 2090 2393 
Q 2009 2309 1897 2309 
Q 1788 2309 1652 2417 
Q 1516 2525 1450 2525 
Q 1394 2525 1328 2463 
Q 1188 2334 1038 2041 
L 1038 669 
Q 1038 431 1097 309 
Q 1138 225 1241 169 
Q 1344 113 1538 113 
L 1538 0 
L 72 0 
L 72 113 
Q 291 113 397 181 
Q 475 231 506 341 
Q 522 394 522 644 
L 522 1753 
Q 522 2253 501 2348 
Q 481 2444 426 2487 
Q 372 2531 291 2531 
Q 194 2531 72 2484 
L 41 2597 
L 906 2947 
L 1038 2947 
z
" transform="scale(0.015625)"/>
       <path id="TimesNewRomanPSMT-75" d="M 2709 2863 
L 2709 1128 
Q 2709 631 2732 520 
Q 2756 409 2807 365 
Q 2859 322 2928 322 
Q 3025 322 3147 375 
L 3191 266 
L 2334 -88 
L 2194 -88 
L 2194 519 
Q 1825 119 1631 15 
Q 1438 -88 1222 -88 
Q 981 -88 804 51 
Q 628 191 559 409 
Q 491 628 491 1028 
L 491 2306 
Q 491 2509 447 2587 
Q 403 2666 317 2708 
Q 231 2750 6 2747 
L 6 2863 
L 1009 2863 
L 1009 947 
Q 1009 547 1148 422 
Q 1288 297 1484 297 
Q 1619 297 1789 381 
Q 1959 466 2194 703 
L 2194 2325 
Q 2194 2569 2105 2655 
Q 2016 2741 1734 2747 
L 1734 2863 
L 2709 2863 
z
" transform="scale(0.015625)"/>
       <path id="TimesNewRomanPSMT-65" d="M 681 1784 
Q 678 1147 991 784 
Q 1303 422 1725 422 
Q 2006 422 2214 576 
Q 2422 731 2563 1106 
L 2659 1044 
Q 2594 616 2278 264 
Q 1963 -88 1488 -88 
Q 972 -88 605 314 
Q 238 716 238 1394 
Q 238 2128 614 2539 
Q 991 2950 1559 2950 
Q 2041 2950 2350 2633 
Q 2659 2316 2659 1784 
L 681 1784 
z
M 681 1966 
L 2006 1966 
Q 1991 2241 1941 2353 
Q 1863 2528 1708 2628 
Q 1553 2728 1384 2728 
Q 1125 2728 920 2526 
Q 716 2325 681 1966 
z
" transform="scale(0.015625)"/>
       <path id="TimesNewRomanPSMT-20" transform="scale(0.015625)"/>
       <path id="TimesNewRomanPSMT-64" d="M 2222 322 
Q 2013 103 1813 7 
Q 1613 -88 1381 -88 
Q 913 -88 563 304 
Q 213 697 213 1313 
Q 213 1928 600 2439 
Q 988 2950 1597 2950 
Q 1975 2950 2222 2709 
L 2222 3238 
Q 2222 3728 2198 3840 
Q 2175 3953 2125 3993 
Q 2075 4034 2000 4034 
Q 1919 4034 1784 3984 
L 1744 4094 
L 2597 4444 
L 2738 4444 
L 2738 1134 
Q 2738 631 2761 520 
Q 2784 409 2836 365 
Q 2888 322 2956 322 
Q 3041 322 3181 375 
L 3216 266 
L 2366 -88 
L 2222 -88 
L 2222 322 
z
M 2222 541 
L 2222 2016 
Q 2203 2228 2109 2403 
Q 2016 2578 1861 2667 
Q 1706 2756 1559 2756 
Q 1284 2756 1069 2509 
Q 784 2184 784 1559 
Q 784 928 1059 592 
Q 1334 256 1672 256 
Q 1956 256 2222 541 
z
" transform="scale(0.015625)"/>
       <path id="TimesNewRomanPSMT-61" d="M 1822 413 
Q 1381 72 1269 19 
Q 1100 -59 909 -59 
Q 613 -59 420 144 
Q 228 347 228 678 
Q 228 888 322 1041 
Q 450 1253 767 1440 
Q 1084 1628 1822 1897 
L 1822 2009 
Q 1822 2438 1686 2597 
Q 1550 2756 1291 2756 
Q 1094 2756 978 2650 
Q 859 2544 859 2406 
L 866 2225 
Q 866 2081 792 2003 
Q 719 1925 600 1925 
Q 484 1925 411 2006 
Q 338 2088 338 2228 
Q 338 2497 613 2722 
Q 888 2947 1384 2947 
Q 1766 2947 2009 2819 
Q 2194 2722 2281 2516 
Q 2338 2381 2338 1966 
L 2338 994 
Q 2338 584 2353 492 
Q 2369 400 2405 369 
Q 2441 338 2488 338 
Q 2538 338 2575 359 
Q 2641 400 2828 588 
L 2828 413 
Q 2478 -56 2159 -56 
Q 2006 -56 1915 50 
Q 1825 156 1822 413 
z
M 1822 616 
L 1822 1706 
Q 1350 1519 1213 1441 
Q 966 1303 859 1153 
Q 753 1003 753 825 
Q 753 600 887 451 
Q 1022 303 1197 303 
Q 1434 303 1822 616 
z
" transform="scale(0.015625)"/>
       <path id="TimesNewRomanPSMT-74" d="M 1031 3803 
L 1031 2863 
L 1700 2863 
L 1700 2644 
L 1031 2644 
L 1031 788 
Q 1031 509 1111 412 
Q 1191 316 1316 316 
Q 1419 316 1516 380 
Q 1613 444 1666 569 
L 1788 569 
Q 1678 263 1478 108 
Q 1278 -47 1066 -47 
Q 922 -47 784 33 
Q 647 113 581 261 
Q 516 409 516 719 
L 516 2644 
L 63 2644 
L 63 2747 
Q 234 2816 414 2980 
Q 594 3144 734 3369 
Q 806 3488 934 3803 
L 1031 3803 
z
" transform="scale(0.015625)"/>
      </defs>
      <use xlink:href="#TimesNewRomanPSMT-54"/>
      <use xlink:href="#TimesNewRomanPSMT-72" x="57.583984"/>
      <use xlink:href="#TimesNewRomanPSMT-75" x="90.884766"/>
      <use xlink:href="#TimesNewRomanPSMT-65" x="140.884766"/>
      <use xlink:href="#TimesNewRomanPSMT-20" x="185.269531"/>
      <use xlink:href="#TimesNewRomanPSMT-64" x="210.269531"/>
      <use xlink:href="#TimesNewRomanPSMT-61" x="260.269531"/>
      <use xlink:href="#TimesNewRomanPSMT-74" x="304.654297"/>
      <use xlink:href="#TimesNewRomanPSMT-61" x="332.4375"/>
     </g>
    </g>
   </g>
   <g id="matplotlib.axis_2">
    <g id="ytick_1">
     <g id="line2d_17">
      <path d="M 103.847813 570.648448 
L 574.461584 570.648448 
" clip-path="url(#p7978011bf1)" style="fill: none; stroke: #000000; stroke-width: 0.7; stroke-linecap: square"/>
     </g>
     <g id="line2d_18">
      <defs>
       <path id="me834ccdb93" d="M 0 0 
L 10 0 
" style="stroke: #000000; stroke-width: 2"/>
      </defs>
      <g>
       <use xlink:href="#me834ccdb93" x="103.847813" y="570.648448" style="stroke: #000000; stroke-width: 2"/>
      </g>
     </g>
     <g id="text_10">
      <!-- 20 -->
      <g transform="translate(60.347813 584.535948) scale(0.4 -0.4)">
       <use xlink:href="#TimesNewRomanPSMT-32"/>
       <use xlink:href="#TimesNewRomanPSMT-30" x="50"/>
      </g>
     </g>
    </g>
    <g id="ytick_2">
     <g id="line2d_19">
      <path d="M 103.847813 502.295919 
L 574.461584 502.295919 
" clip-path="url(#p7978011bf1)" style="fill: none; stroke: #000000; stroke-width: 0.7; stroke-linecap: square"/>
     </g>
     <g id="line2d_20">
      <g>
       <use xlink:href="#me834ccdb93" x="103.847813" y="502.295919" style="stroke: #000000; stroke-width: 2"/>
      </g>
     </g>
     <g id="text_11">
      <!-- 25 -->
      <g transform="translate(60.347813 516.183419) scale(0.4 -0.4)">
       <use xlink:href="#TimesNewRomanPSMT-32"/>
       <use xlink:href="#TimesNewRomanPSMT-35" x="50"/>
      </g>
     </g>
    </g>
    <g id="ytick_3">
     <g id="line2d_21">
      <path d="M 103.847813 433.943391 
L 574.461584 433.943391 
" clip-path="url(#p7978011bf1)" style="fill: none; stroke: #000000; stroke-width: 0.7; stroke-linecap: square"/>
     </g>
     <g id="line2d_22">
      <g>
       <use xlink:href="#me834ccdb93" x="103.847813" y="433.943391" style="stroke: #000000; stroke-width: 2"/>
      </g>
     </g>
     <g id="text_12">
      <!-- 30 -->
      <g transform="translate(60.347813 447.830891) scale(0.4 -0.4)">
       <use xlink:href="#TimesNewRomanPSMT-33"/>
       <use xlink:href="#TimesNewRomanPSMT-30" x="50"/>
      </g>
     </g>
    </g>
    <g id="ytick_4">
     <g id="line2d_23">
      <path d="M 103.847813 365.590862 
L 574.461584 365.590862 
" clip-path="url(#p7978011bf1)" style="fill: none; stroke: #000000; stroke-width: 0.7; stroke-linecap: square"/>
     </g>
     <g id="line2d_24">
      <g>
       <use xlink:href="#me834ccdb93" x="103.847813" y="365.590862" style="stroke: #000000; stroke-width: 2"/>
      </g>
     </g>
     <g id="text_13">
      <!-- 35 -->
      <g transform="translate(60.347813 379.478362) scale(0.4 -0.4)">
       <use xlink:href="#TimesNewRomanPSMT-33"/>
       <use xlink:href="#TimesNewRomanPSMT-35" x="50"/>
      </g>
     </g>
    </g>
    <g id="ytick_5">
     <g id="line2d_25">
      <path d="M 103.847813 297.238334 
L 574.461584 297.238334 
" clip-path="url(#p7978011bf1)" style="fill: none; stroke: #000000; stroke-width: 0.7; stroke-linecap: square"/>
     </g>
     <g id="line2d_26">
      <g>
       <use xlink:href="#me834ccdb93" x="103.847813" y="297.238334" style="stroke: #000000; stroke-width: 2"/>
      </g>
     </g>
     <g id="text_14">
      <!-- 40 -->
      <g transform="translate(60.347813 311.125834) scale(0.4 -0.4)">
       <use xlink:href="#TimesNewRomanPSMT-34"/>
       <use xlink:href="#TimesNewRomanPSMT-30" x="50"/>
      </g>
     </g>
    </g>
    <g id="ytick_6">
     <g id="line2d_27">
      <path d="M 103.847813 228.885805 
L 574.461584 228.885805 
" clip-path="url(#p7978011bf1)" style="fill: none; stroke: #000000; stroke-width: 0.7; stroke-linecap: square"/>
     </g>
     <g id="line2d_28">
      <g>
       <use xlink:href="#me834ccdb93" x="103.847813" y="228.885805" style="stroke: #000000; stroke-width: 2"/>
      </g>
     </g>
     <g id="text_15">
      <!-- 45 -->
      <g transform="translate(60.347813 242.773305) scale(0.4 -0.4)">
       <use xlink:href="#TimesNewRomanPSMT-34"/>
       <use xlink:href="#TimesNewRomanPSMT-35" x="50"/>
      </g>
     </g>
    </g>
    <g id="ytick_7">
     <g id="line2d_29">
      <path d="M 103.847813 160.533277 
L 574.461584 160.533277 
" clip-path="url(#p7978011bf1)" style="fill: none; stroke: #000000; stroke-width: 0.7; stroke-linecap: square"/>
     </g>
     <g id="line2d_30">
      <g>
       <use xlink:href="#me834ccdb93" x="103.847813" y="160.533277" style="stroke: #000000; stroke-width: 2"/>
      </g>
     </g>
     <g id="text_16">
      <!-- 50 -->
      <g transform="translate(60.347813 174.420777) scale(0.4 -0.4)">
       <use xlink:href="#TimesNewRomanPSMT-35"/>
       <use xlink:href="#TimesNewRomanPSMT-30" x="50"/>
      </g>
     </g>
    </g>
    <g id="ytick_8">
     <g id="line2d_31">
      <path d="M 103.847813 92.180748 
L 574.461584 92.180748 
" clip-path="url(#p7978011bf1)" style="fill: none; stroke: #000000; stroke-width: 0.7; stroke-linecap: square"/>
     </g>
     <g id="line2d_32">
      <g>
       <use xlink:href="#me834ccdb93" x="103.847813" y="92.180748" style="stroke: #000000; stroke-width: 2"/>
      </g>
     </g>
     <g id="text_17">
      <!-- 55 -->
      <g transform="translate(60.347813 106.068248) scale(0.4 -0.4)">
       <use xlink:href="#TimesNewRomanPSMT-35"/>
       <use xlink:href="#TimesNewRomanPSMT-35" x="50"/>
      </g>
     </g>
    </g>
    <g id="text_18">
     <!-- Predicted data -->
     <g transform="translate(36.36375 433.789531) rotate(-90) scale(0.42 -0.42)">
      <defs>
       <path id="TimesNewRomanPSMT-50" d="M 1313 1984 
L 1313 750 
Q 1313 350 1400 253 
Q 1519 116 1759 116 
L 1922 116 
L 1922 0 
L 106 0 
L 106 116 
L 266 116 
Q 534 116 650 291 
Q 713 388 713 750 
L 713 3488 
Q 713 3888 628 3984 
Q 506 4122 266 4122 
L 106 4122 
L 106 4238 
L 1659 4238 
Q 2228 4238 2556 4120 
Q 2884 4003 3109 3725 
Q 3334 3447 3334 3066 
Q 3334 2547 2992 2222 
Q 2650 1897 2025 1897 
Q 1872 1897 1694 1919 
Q 1516 1941 1313 1984 
z
M 1313 2163 
Q 1478 2131 1606 2115 
Q 1734 2100 1825 2100 
Q 2150 2100 2386 2351 
Q 2622 2603 2622 3003 
Q 2622 3278 2509 3514 
Q 2397 3750 2190 3867 
Q 1984 3984 1722 3984 
Q 1563 3984 1313 3925 
L 1313 2163 
z
" transform="scale(0.015625)"/>
       <path id="TimesNewRomanPSMT-69" d="M 928 4444 
Q 1059 4444 1151 4351 
Q 1244 4259 1244 4128 
Q 1244 3997 1151 3903 
Q 1059 3809 928 3809 
Q 797 3809 703 3903 
Q 609 3997 609 4128 
Q 609 4259 701 4351 
Q 794 4444 928 4444 
z
M 1188 2947 
L 1188 647 
Q 1188 378 1227 289 
Q 1266 200 1342 156 
Q 1419 113 1622 113 
L 1622 0 
L 231 0 
L 231 113 
Q 441 113 512 153 
Q 584 194 626 287 
Q 669 381 669 647 
L 669 1750 
Q 669 2216 641 2353 
Q 619 2453 572 2492 
Q 525 2531 444 2531 
Q 356 2531 231 2484 
L 188 2597 
L 1050 2947 
L 1188 2947 
z
" transform="scale(0.015625)"/>
       <path id="TimesNewRomanPSMT-63" d="M 2631 1088 
Q 2516 522 2178 217 
Q 1841 -88 1431 -88 
Q 944 -88 581 321 
Q 219 731 219 1428 
Q 219 2103 620 2525 
Q 1022 2947 1584 2947 
Q 2006 2947 2278 2723 
Q 2550 2500 2550 2259 
Q 2550 2141 2473 2067 
Q 2397 1994 2259 1994 
Q 2075 1994 1981 2113 
Q 1928 2178 1911 2362 
Q 1894 2547 1784 2644 
Q 1675 2738 1481 2738 
Q 1169 2738 978 2506 
Q 725 2200 725 1697 
Q 725 1184 976 792 
Q 1228 400 1656 400 
Q 1963 400 2206 609 
Q 2378 753 2541 1131 
L 2631 1088 
z
" transform="scale(0.015625)"/>
      </defs>
      <use xlink:href="#TimesNewRomanPSMT-50"/>
      <use xlink:href="#TimesNewRomanPSMT-72" x="55.615234"/>
      <use xlink:href="#TimesNewRomanPSMT-65" x="88.916016"/>
      <use xlink:href="#TimesNewRomanPSMT-64" x="133.300781"/>
      <use xlink:href="#TimesNewRomanPSMT-69" x="183.300781"/>
      <use xlink:href="#TimesNewRomanPSMT-63" x="211.083984"/>
      <use xlink:href="#TimesNewRomanPSMT-74" x="255.46875"/>
      <use xlink:href="#TimesNewRomanPSMT-65" x="283.251953"/>
      <use xlink:href="#TimesNewRomanPSMT-64" x="327.636719"/>
      <use xlink:href="#TimesNewRomanPSMT-20" x="377.636719"/>
      <use xlink:href="#TimesNewRomanPSMT-64" x="402.636719"/>
      <use xlink:href="#TimesNewRomanPSMT-61" x="452.636719"/>
      <use xlink:href="#TimesNewRomanPSMT-74" x="497.021484"/>
      <use xlink:href="#TimesNewRomanPSMT-61" x="524.804688"/>
     </g>
    </g>
   </g>
   <g id="line2d_33">
    <path d="M 422.136604 222.777944 
L 524.280715 109.734115 
L 352.849532 299.458585 
L 248.756893 414.658868 
L 385.052716 263.819025 
L 311.374535 345.359346 
L 306.836436 350.381703 
L 404.874662 241.881894 
L 297.473973 360.743226 
L 446.780233 195.504612 
L 448.453905 193.652344 
L 337.842546 316.066955 
L 411.019942 235.080855 
L 302.042202 355.687526 
L 535.702922 97.093052 
L 471.088574 168.602347 
L 184.361508 485.925835 
L 308.240596 348.827706 
L 395.281842 252.498356 
L 281.61187 378.297962 
L 283.12645 376.621763 
L 272.614093 388.255886 
L 367.699729 283.023735 
L 453.628599 187.925462 
L 381.384966 267.878157 
L 283.736369 375.94676 
L 316.67644 339.49168 
L 208.898354 458.770681 
L 125.239348 551.356875 
L 432.949001 210.811764 
L 409.202975 237.09171 
L 353.642957 298.580494 
L 553.070049 77.872692 
L 298.020065 360.138861 
L 301.688462 356.079013 
" clip-path="url(#p7978011bf1)" style="fill: none; stroke: #0000ff; stroke-width: 3; stroke-linecap: square"/>
   </g>
   <g id="line2d_34">
    <defs>
     <path id="m1bfa761b06" d="M 0 5 
C 1.326016 5 2.597899 4.473168 3.535534 3.535534 
C 4.473168 2.597899 5 1.326016 5 0 
C 5 -1.326016 4.473168 -2.597899 3.535534 -3.535534 
C 2.597899 -4.473168 1.326016 -5 0 -5 
C -1.326016 -5 -2.597899 -4.473168 -3.535534 -3.535534 
C -4.473168 -2.597899 -5 -1.326016 -5 0 
C -5 1.326016 -4.473168 2.597899 -3.535534 3.535534 
C -2.597899 4.473168 -1.326016 5 0 5 
z
" style="stroke: #ff0000"/>
    </defs>
    <g clip-path="url(#p7978011bf1)">
     <use xlink:href="#m1bfa761b06" x="422.136604" y="183.69579" style="fill: #ff0000; stroke: #ff0000"/>
     <use xlink:href="#m1bfa761b06" x="524.280715" y="150.110745" style="fill: #ff0000; stroke: #ff0000"/>
     <use xlink:href="#m1bfa761b06" x="352.849532" y="377.635371" style="fill: #ff0000; stroke: #ff0000"/>
     <use xlink:href="#m1bfa761b06" x="248.756893" y="355.426783" style="fill: #ff0000; stroke: #ff0000"/>
     <use xlink:href="#m1bfa761b06" x="385.052716" y="288.435661" style="fill: #ff0000; stroke: #ff0000"/>
     <use xlink:href="#m1bfa761b06" x="311.374535" y="384.417166" style="fill: #ff0000; stroke: #ff0000"/>
     <use xlink:href="#m1bfa761b06" x="306.836436" y="362.474615" style="fill: #ff0000; stroke: #ff0000"/>
     <use xlink:href="#m1bfa761b06" x="404.874662" y="187.298802" style="fill: #ff0000; stroke: #ff0000"/>
     <use xlink:href="#m1bfa761b06" x="297.473973" y="381.77178" style="fill: #ff0000; stroke: #ff0000"/>
     <use xlink:href="#m1bfa761b06" x="446.780233" y="313.63558" style="fill: #ff0000; stroke: #ff0000"/>
     <use xlink:href="#m1bfa761b06" x="448.453905" y="245.166968" style="fill: #ff0000; stroke: #ff0000"/>
     <use xlink:href="#m1bfa761b06" x="337.842546" y="258.901572" style="fill: #ff0000; stroke: #ff0000"/>
     <use xlink:href="#m1bfa761b06" x="411.019942" y="262.683695" style="fill: #ff0000; stroke: #ff0000"/>
     <use xlink:href="#m1bfa761b06" x="302.042202" y="306.404609" style="fill: #ff0000; stroke: #ff0000"/>
     <use xlink:href="#m1bfa761b06" x="535.702922" y="77.156875" style="fill: #ff0000; stroke: #ff0000"/>
     <use xlink:href="#m1bfa761b06" x="471.088574" y="242.336881" style="fill: #ff0000; stroke: #ff0000"/>
     <use xlink:href="#m1bfa761b06" x="184.361508" y="444.627471" style="fill: #ff0000; stroke: #ff0000"/>
     <use xlink:href="#m1bfa761b06" x="308.240596" y="351.794275" style="fill: #ff0000; stroke: #ff0000"/>
     <use xlink:href="#m1bfa761b06" x="395.281842" y="208.563143" style="fill: #ff0000; stroke: #ff0000"/>
     <use xlink:href="#m1bfa761b06" x="281.61187" y="431.647924" style="fill: #ff0000; stroke: #ff0000"/>
     <use xlink:href="#m1bfa761b06" x="283.12645" y="329.019158" style="fill: #ff0000; stroke: #ff0000"/>
     <use xlink:href="#m1bfa761b06" x="272.614093" y="355.029658" style="fill: #ff0000; stroke: #ff0000"/>
     <use xlink:href="#m1bfa761b06" x="367.699729" y="361.721311" style="fill: #ff0000; stroke: #ff0000"/>
     <use xlink:href="#m1bfa761b06" x="453.628599" y="200.256813" style="fill: #ff0000; stroke: #ff0000"/>
     <use xlink:href="#m1bfa761b06" x="381.384966" y="253.764226" style="fill: #ff0000; stroke: #ff0000"/>
     <use xlink:href="#m1bfa761b06" x="283.736369" y="360.253471" style="fill: #ff0000; stroke: #ff0000"/>
     <use xlink:href="#m1bfa761b06" x="316.67644" y="316.780112" style="fill: #ff0000; stroke: #ff0000"/>
     <use xlink:href="#m1bfa761b06" x="208.898354" y="398.147559" style="fill: #ff0000; stroke: #ff0000"/>
     <use xlink:href="#m1bfa761b06" x="125.239348" y="444.869015" style="fill: #ff0000; stroke: #ff0000"/>
     <use xlink:href="#m1bfa761b06" x="432.949001" y="191.416647" style="fill: #ff0000; stroke: #ff0000"/>
     <use xlink:href="#m1bfa761b06" x="409.202975" y="235.197559" style="fill: #ff0000; stroke: #ff0000"/>
     <use xlink:href="#m1bfa761b06" x="353.642957" y="286.309556" style="fill: #ff0000; stroke: #ff0000"/>
     <use xlink:href="#m1bfa761b06" x="553.070049" y="139.541589" style="fill: #ff0000; stroke: #ff0000"/>
     <use xlink:href="#m1bfa761b06" x="298.020065" y="390.903519" style="fill: #ff0000; stroke: #ff0000"/>
     <use xlink:href="#m1bfa761b06" x="301.688462" y="328.501891" style="fill: #ff0000; stroke: #ff0000"/>
    </g>
   </g>
   <g id="patch_3">
    <path d="M 103.847813 575.066875 
L 103.847813 53.446875 
" style="fill: none; stroke: #000000; stroke-width: 0.8; stroke-linejoin: miter; stroke-linecap: square"/>
   </g>
   <g id="patch_4">
    <path d="M 574.461584 575.066875 
L 574.461584 53.446875 
" style="fill: none; stroke: #000000; stroke-width: 0.8; stroke-linejoin: miter; stroke-linecap: square"/>
   </g>
   <g id="patch_5">
    <path d="M 103.847812 575.066875 
L 574.461584 575.066875 
" style="fill: none; stroke: #000000; stroke-width: 0.8; stroke-linejoin: miter; stroke-linecap: square"/>
   </g>
   <g id="patch_6">
    <path d="M 103.847812 53.446875 
L 574.461584 53.446875 
" style="fill: none; stroke: #000000; stroke-width: 0.8; stroke-linejoin: miter; stroke-linecap: square"/>
   </g>
   <g id="text_19">
    <g id="patch_7">
     <path d="M 151.687278 228.312128 
L 595.207278 228.312128 
Q 607.807278 228.312128 607.807278 215.712128 
L 607.807278 151.452128 
Q 607.807278 138.852128 595.207278 138.852128 
L 151.687278 138.852128 
Q 139.087278 138.852128 139.087278 151.452128 
L 139.087278 215.712128 
Q 139.087278 228.312128 151.687278 228.312128 
z
" style="fill: #ffffff; stroke: #000000; stroke-linejoin: miter"/>
    </g>
    <!-- $\frac {RMSE}{concentration\ range}$=0.1044 -->
    <g transform="translate(151.687278 192.192128) scale(0.42 -0.42)">
     <defs>
      <path id="DejaVuSans-Oblique-52" d="M 1613 4147 
L 1294 2491 
L 2106 2491 
Q 2584 2491 2879 2755 
Q 3175 3019 3175 3444 
Q 3175 3784 2976 3965 
Q 2778 4147 2406 4147 
L 1613 4147 
z
M 2772 2241 
Q 2972 2194 3105 2009 
Q 3238 1825 3413 1275 
L 3809 0 
L 3144 0 
L 2778 1197 
Q 2638 1659 2453 1815 
Q 2269 1972 1888 1972 
L 1191 1972 
L 806 0 
L 172 0 
L 1081 4666 
L 2503 4666 
Q 3150 4666 3495 4373 
Q 3841 4081 3841 3531 
Q 3841 3044 3547 2687 
Q 3253 2331 2772 2241 
z
" transform="scale(0.015625)"/>
      <path id="DejaVuSans-Oblique-4d" d="M 1081 4666 
L 2028 4666 
L 2572 1522 
L 4378 4666 
L 5350 4666 
L 4441 0 
L 3828 0 
L 4622 4091 
L 2791 897 
L 2175 897 
L 1581 4103 
L 788 0 
L 172 0 
L 1081 4666 
z
" transform="scale(0.015625)"/>
      <path id="DejaVuSans-Oblique-53" d="M 3859 4513 
L 3738 3897 
Q 3422 4066 3111 4152 
Q 2800 4238 2509 4238 
Q 1944 4238 1609 3991 
Q 1275 3744 1275 3334 
Q 1275 3109 1398 2989 
Q 1522 2869 2034 2731 
L 2413 2638 
Q 3053 2472 3303 2217 
Q 3553 1963 3553 1503 
Q 3553 797 2998 353 
Q 2444 -91 1538 -91 
Q 1166 -91 791 -17 
Q 416 56 38 206 
L 166 856 
Q 513 641 861 531 
Q 1209 422 1556 422 
Q 2147 422 2503 684 
Q 2859 947 2859 1369 
Q 2859 1650 2717 1795 
Q 2575 1941 2106 2059 
L 1728 2156 
Q 1081 2325 845 2545 
Q 609 2766 609 3163 
Q 609 3859 1145 4304 
Q 1681 4750 2541 4750 
Q 2875 4750 3203 4690 
Q 3531 4631 3859 4513 
z
" transform="scale(0.015625)"/>
      <path id="DejaVuSans-Oblique-45" d="M 1081 4666 
L 4031 4666 
L 3928 4134 
L 1606 4134 
L 1338 2753 
L 3566 2753 
L 3463 2222 
L 1234 2222 
L 909 531 
L 3284 531 
L 3181 0 
L 172 0 
L 1081 4666 
z
" transform="scale(0.015625)"/>
      <path id="DejaVuSans-Oblique-63" d="M 3431 3366 
L 3316 2797 
Q 3109 2947 2876 3022 
Q 2644 3097 2394 3097 
Q 2119 3097 1870 3000 
Q 1622 2903 1453 2725 
Q 1184 2453 1037 2087 
Q 891 1722 891 1331 
Q 891 859 1127 628 
Q 1363 397 1844 397 
Q 2081 397 2348 469 
Q 2616 541 2906 684 
L 2797 116 
Q 2547 13 2283 -39 
Q 2019 -91 1741 -91 
Q 1044 -91 669 257 
Q 294 606 294 1253 
Q 294 1797 489 2255 
Q 684 2713 1069 3078 
Q 1331 3328 1684 3456 
Q 2038 3584 2456 3584 
Q 2700 3584 2940 3529 
Q 3181 3475 3431 3366 
z
" transform="scale(0.015625)"/>
      <path id="DejaVuSans-Oblique-6f" d="M 1625 -91 
Q 1009 -91 651 289 
Q 294 669 294 1325 
Q 294 1706 417 2101 
Q 541 2497 738 2766 
Q 1047 3184 1428 3384 
Q 1809 3584 2291 3584 
Q 2888 3584 3255 3212 
Q 3622 2841 3622 2241 
Q 3622 1825 3500 1412 
Q 3378 1000 3181 728 
Q 2875 309 2494 109 
Q 2113 -91 1625 -91 
z
M 891 1344 
Q 891 869 1089 633 
Q 1288 397 1691 397 
Q 2269 397 2648 901 
Q 3028 1406 3028 2181 
Q 3028 2634 2825 2865 
Q 2622 3097 2228 3097 
Q 1903 3097 1650 2945 
Q 1397 2794 1197 2484 
Q 1050 2253 970 1956 
Q 891 1659 891 1344 
z
" transform="scale(0.015625)"/>
      <path id="DejaVuSans-Oblique-6e" d="M 3566 2113 
L 3156 0 
L 2578 0 
L 2988 2091 
Q 3016 2238 3031 2350 
Q 3047 2463 3047 2528 
Q 3047 2791 2881 2937 
Q 2716 3084 2419 3084 
Q 1956 3084 1622 2776 
Q 1288 2469 1184 1941 
L 800 0 
L 225 0 
L 903 3500 
L 1478 3500 
L 1363 2950 
Q 1603 3253 1940 3418 
Q 2278 3584 2650 3584 
Q 3113 3584 3367 3334 
Q 3622 3084 3622 2631 
Q 3622 2519 3608 2391 
Q 3594 2263 3566 2113 
z
" transform="scale(0.015625)"/>
      <path id="DejaVuSans-Oblique-65" d="M 3078 2063 
Q 3088 2113 3092 2166 
Q 3097 2219 3097 2272 
Q 3097 2653 2873 2875 
Q 2650 3097 2266 3097 
Q 1838 3097 1509 2826 
Q 1181 2556 1013 2059 
L 3078 2063 
z
M 3578 1613 
L 903 1613 
Q 884 1494 878 1425 
Q 872 1356 872 1306 
Q 872 872 1139 634 
Q 1406 397 1894 397 
Q 2269 397 2603 481 
Q 2938 566 3225 728 
L 3116 159 
Q 2806 34 2476 -28 
Q 2147 -91 1806 -91 
Q 1078 -91 686 257 
Q 294 606 294 1247 
Q 294 1794 489 2264 
Q 684 2734 1063 3103 
Q 1306 3334 1642 3459 
Q 1978 3584 2356 3584 
Q 2950 3584 3301 3228 
Q 3653 2872 3653 2272 
Q 3653 2128 3634 1964 
Q 3616 1800 3578 1613 
z
" transform="scale(0.015625)"/>
      <path id="DejaVuSans-Oblique-74" d="M 2706 3500 
L 2619 3053 
L 1472 3053 
L 1100 1153 
Q 1081 1047 1072 975 
Q 1063 903 1063 863 
Q 1063 663 1183 572 
Q 1303 481 1569 481 
L 2150 481 
L 2053 0 
L 1503 0 
Q 991 0 739 200 
Q 488 400 488 806 
Q 488 878 497 964 
Q 506 1050 525 1153 
L 897 3053 
L 409 3053 
L 500 3500 
L 978 3500 
L 1172 4494 
L 1747 4494 
L 1556 3500 
L 2706 3500 
z
" transform="scale(0.015625)"/>
      <path id="DejaVuSans-Oblique-72" d="M 2853 2969 
Q 2766 3016 2653 3041 
Q 2541 3066 2413 3066 
Q 1953 3066 1609 2717 
Q 1266 2369 1153 1784 
L 800 0 
L 225 0 
L 909 3500 
L 1484 3500 
L 1375 2956 
Q 1603 3259 1920 3421 
Q 2238 3584 2597 3584 
Q 2691 3584 2781 3573 
Q 2872 3563 2963 3538 
L 2853 2969 
z
" transform="scale(0.015625)"/>
      <path id="DejaVuSans-Oblique-61" d="M 3438 1997 
L 3047 0 
L 2472 0 
L 2578 531 
Q 2325 219 2001 64 
Q 1678 -91 1281 -91 
Q 834 -91 548 182 
Q 263 456 263 884 
Q 263 1497 752 1853 
Q 1241 2209 2100 2209 
L 2900 2209 
L 2931 2363 
Q 2938 2388 2941 2417 
Q 2944 2447 2944 2509 
Q 2944 2788 2717 2942 
Q 2491 3097 2081 3097 
Q 1800 3097 1504 3025 
Q 1209 2953 897 2809 
L 997 3341 
Q 1322 3463 1633 3523 
Q 1944 3584 2234 3584 
Q 2853 3584 3176 3315 
Q 3500 3047 3500 2534 
Q 3500 2431 3484 2292 
Q 3469 2153 3438 1997 
z
M 2816 1759 
L 2241 1759 
Q 1534 1759 1195 1570 
Q 856 1381 856 984 
Q 856 709 1029 553 
Q 1203 397 1509 397 
Q 1978 397 2328 733 
Q 2678 1069 2791 1631 
L 2816 1759 
z
" transform="scale(0.015625)"/>
      <path id="DejaVuSans-Oblique-69" d="M 1172 4863 
L 1747 4863 
L 1606 4134 
L 1031 4134 
L 1172 4863 
z
M 909 3500 
L 1484 3500 
L 800 0 
L 225 0 
L 909 3500 
z
" transform="scale(0.015625)"/>
      <path id="DejaVuSans-Oblique-67" d="M 3816 3500 
L 3219 434 
Q 3047 -456 2561 -893 
Q 2075 -1331 1253 -1331 
Q 950 -1331 690 -1286 
Q 431 -1241 206 -1147 
L 313 -588 
Q 525 -725 762 -790 
Q 1000 -856 1269 -856 
Q 1816 -856 2167 -557 
Q 2519 -259 2631 300 
L 2681 563 
Q 2441 288 2122 144 
Q 1803 0 1434 0 
Q 903 0 598 351 
Q 294 703 294 1319 
Q 294 1803 478 2267 
Q 663 2731 997 3091 
Q 1219 3328 1514 3456 
Q 1809 3584 2131 3584 
Q 2484 3584 2746 3420 
Q 3009 3256 3138 2956 
L 3238 3500 
L 3816 3500 
z
M 2950 2216 
Q 2950 2641 2750 2872 
Q 2550 3103 2181 3103 
Q 1953 3103 1747 3012 
Q 1541 2922 1394 2759 
Q 1156 2491 1023 2127 
Q 891 1763 891 1375 
Q 891 944 1092 712 
Q 1294 481 1672 481 
Q 2219 481 2584 976 
Q 2950 1472 2950 2216 
z
" transform="scale(0.015625)"/>
      <path id="TimesNewRomanPS-BoldMT-3d" d="M 125 2825 
L 3544 2825 
L 3544 2419 
L 125 2419 
L 125 2825 
z
M 125 1803 
L 3544 1803 
L 3544 1397 
L 125 1397 
L 125 1803 
z
" transform="scale(0.015625)"/>
      <path id="TimesNewRomanPS-BoldMT-30" d="M 2966 2119 
Q 2966 1484 2788 934 
Q 2681 597 2501 381 
Q 2322 166 2094 39 
Q 1866 -88 1597 -88 
Q 1291 -88 1044 68 
Q 797 225 606 516 
Q 469 728 366 1081 
Q 231 1559 231 2069 
Q 231 2759 425 3338 
Q 584 3816 909 4070 
Q 1234 4325 1597 4325 
Q 1966 4325 2286 4073 
Q 2606 3822 2756 3397 
Q 2966 2813 2966 2119 
z
M 2003 2125 
Q 2003 3238 1991 3422 
Q 1959 3856 1841 4009 
Q 1763 4109 1588 4109 
Q 1453 4109 1375 4034 
Q 1259 3925 1218 3648 
Q 1178 3372 1178 1719 
Q 1178 819 1241 513 
Q 1288 291 1375 216 
Q 1463 141 1606 141 
Q 1763 141 1841 241 
Q 1972 416 1991 781 
L 2003 2125 
z
" transform="scale(0.015625)"/>
      <path id="TimesNewRomanPS-BoldMT-2e" d="M 800 963 
Q 1019 963 1170 809 
Q 1322 656 1322 441 
Q 1322 225 1169 73 
Q 1016 -78 800 -78 
Q 584 -78 432 73 
Q 281 225 281 441 
Q 281 656 432 809 
Q 584 963 800 963 
z
" transform="scale(0.015625)"/>
      <path id="TimesNewRomanPS-BoldMT-31" d="M 2084 4325 
L 2084 859 
Q 2084 469 2118 361 
Q 2153 253 2262 184 
Q 2372 116 2613 116 
L 2709 116 
L 2709 0 
L 478 0 
L 478 116 
L 591 116 
Q 863 116 978 178 
Q 1094 241 1134 350 
Q 1175 459 1175 859 
L 1175 3056 
Q 1175 3350 1147 3423 
Q 1119 3497 1042 3548 
Q 966 3600 866 3600 
Q 706 3600 478 3500 
L 422 3613 
L 1981 4325 
L 2084 4325 
z
" transform="scale(0.015625)"/>
      <path id="TimesNewRomanPS-BoldMT-34" d="M 159 1597 
L 2172 4325 
L 2553 4325 
L 2553 1597 
L 2941 1597 
L 2941 950 
L 2553 950 
L 2553 0 
L 1694 0 
L 1694 950 
L 159 950 
L 159 1597 
z
M 463 1597 
L 1694 1597 
L 1694 3269 
L 463 1597 
z
" transform="scale(0.015625)"/>
     </defs>
     <use xlink:href="#DejaVuSans-Oblique-52" transform="translate(257 45.046875) scale(0.7)"/>
     <use xlink:href="#DejaVuSans-Oblique-4d" transform="translate(305.637695 45.046875) scale(0.7)"/>
     <use xlink:href="#DejaVuSans-Oblique-53" transform="translate(366.033203 45.046875) scale(0.7)"/>
     <use xlink:href="#DejaVuSans-Oblique-45" transform="translate(410.466797 45.046875) scale(0.7)"/>
     <use xlink:href="#DejaVuSans-Oblique-63" transform="translate(0 -40.3875) scale(0.7)"/>
     <use xlink:href="#DejaVuSans-Oblique-6f" transform="translate(38.486328 -40.3875) scale(0.7)"/>
     <use xlink:href="#DejaVuSans-Oblique-6e" transform="translate(81.313477 -40.3875) scale(0.7)"/>
     <use xlink:href="#DejaVuSans-Oblique-63" transform="translate(125.678711 -40.3875) scale(0.7)"/>
     <use xlink:href="#DejaVuSans-Oblique-65" transform="translate(164.165039 -40.3875) scale(0.7)"/>
     <use xlink:href="#DejaVuSans-Oblique-6e" transform="translate(207.231445 -40.3875) scale(0.7)"/>
     <use xlink:href="#DejaVuSans-Oblique-74" transform="translate(251.59668 -40.3875) scale(0.7)"/>
     <use xlink:href="#DejaVuSans-Oblique-72" transform="translate(279.042969 -40.3875) scale(0.7)"/>
     <use xlink:href="#DejaVuSans-Oblique-61" transform="translate(307.822266 -40.3875) scale(0.7)"/>
     <use xlink:href="#DejaVuSans-Oblique-74" transform="translate(350.717773 -40.3875) scale(0.7)"/>
     <use xlink:href="#DejaVuSans-Oblique-69" transform="translate(378.164062 -40.3875) scale(0.7)"/>
     <use xlink:href="#DejaVuSans-Oblique-6f" transform="translate(397.612305 -40.3875) scale(0.7)"/>
     <use xlink:href="#DejaVuSans-Oblique-6e" transform="translate(440.439453 -40.3875) scale(0.7)"/>
     <use xlink:href="#DejaVuSans-Oblique-72" transform="translate(507.533952 -40.3875) scale(0.7)"/>
     <use xlink:href="#DejaVuSans-Oblique-61" transform="translate(536.313249 -40.3875) scale(0.7)"/>
     <use xlink:href="#DejaVuSans-Oblique-6e" transform="translate(579.208757 -40.3875) scale(0.7)"/>
     <use xlink:href="#DejaVuSans-Oblique-67" transform="translate(623.573991 -40.3875) scale(0.7)"/>
     <use xlink:href="#DejaVuSans-Oblique-65" transform="translate(668.007585 -40.3875) scale(0.7)"/>
     <use xlink:href="#TimesNewRomanPS-BoldMT-3d" transform="translate(723.573991 0.254688)"/>
     <use xlink:href="#TimesNewRomanPS-BoldMT-30" transform="translate(780.556413 0.254688)"/>
     <use xlink:href="#TimesNewRomanPS-BoldMT-2e" transform="translate(830.556413 0.254688)"/>
     <use xlink:href="#TimesNewRomanPS-BoldMT-31" transform="translate(855.556413 0.254688)"/>
     <use xlink:href="#TimesNewRomanPS-BoldMT-30" transform="translate(905.556413 0.254688)"/>
     <use xlink:href="#TimesNewRomanPS-BoldMT-34" transform="translate(955.556413 0.254688)"/>
     <use xlink:href="#TimesNewRomanPS-BoldMT-34" transform="translate(1005.556413 0.254688)"/>
     <path d="M 0 19.051563 
L 0 25.301563 
L 711.073991 25.301563 
L 711.073991 19.051563 
L 0 19.051563 
z
"/>
    </g>
   </g>
   <g id="text_20">
    <!-- humic -->
    <g transform="translate(282.915245 38.446875) scale(0.45 -0.45)">
     <defs>
      <path id="TimesNewRomanPSMT-68" d="M 1041 4444 
L 1041 2350 
Q 1388 2731 1591 2839 
Q 1794 2947 1997 2947 
Q 2241 2947 2416 2812 
Q 2591 2678 2675 2391 
Q 2734 2191 2734 1659 
L 2734 647 
Q 2734 375 2778 275 
Q 2809 200 2884 156 
Q 2959 113 3159 113 
L 3159 0 
L 1753 0 
L 1753 113 
L 1819 113 
Q 2019 113 2097 173 
Q 2175 234 2206 353 
Q 2216 403 2216 647 
L 2216 1659 
Q 2216 2128 2167 2275 
Q 2119 2422 2012 2495 
Q 1906 2569 1756 2569 
Q 1603 2569 1437 2487 
Q 1272 2406 1041 2159 
L 1041 647 
Q 1041 353 1073 281 
Q 1106 209 1195 161 
Q 1284 113 1503 113 
L 1503 0 
L 84 0 
L 84 113 
Q 275 113 384 172 
Q 447 203 484 290 
Q 522 378 522 647 
L 522 3238 
Q 522 3728 498 3840 
Q 475 3953 426 3993 
Q 378 4034 297 4034 
Q 231 4034 84 3984 
L 41 4094 
L 897 4444 
L 1041 4444 
z
" transform="scale(0.015625)"/>
      <path id="TimesNewRomanPSMT-6d" d="M 1050 2338 
Q 1363 2650 1419 2697 
Q 1559 2816 1721 2881 
Q 1884 2947 2044 2947 
Q 2313 2947 2506 2790 
Q 2700 2634 2766 2338 
Q 3088 2713 3309 2830 
Q 3531 2947 3766 2947 
Q 3994 2947 4170 2830 
Q 4347 2713 4450 2447 
Q 4519 2266 4519 1878 
L 4519 647 
Q 4519 378 4559 278 
Q 4591 209 4675 161 
Q 4759 113 4950 113 
L 4950 0 
L 3538 0 
L 3538 113 
L 3597 113 
Q 3781 113 3884 184 
Q 3956 234 3988 344 
Q 4000 397 4000 647 
L 4000 1878 
Q 4000 2228 3916 2372 
Q 3794 2572 3525 2572 
Q 3359 2572 3192 2489 
Q 3025 2406 2788 2181 
L 2781 2147 
L 2788 2013 
L 2788 647 
Q 2788 353 2820 281 
Q 2853 209 2943 161 
Q 3034 113 3253 113 
L 3253 0 
L 1806 0 
L 1806 113 
Q 2044 113 2133 169 
Q 2222 225 2256 338 
Q 2272 391 2272 647 
L 2272 1878 
Q 2272 2228 2169 2381 
Q 2031 2581 1784 2581 
Q 1616 2581 1450 2491 
Q 1191 2353 1050 2181 
L 1050 647 
Q 1050 366 1089 281 
Q 1128 197 1204 155 
Q 1281 113 1516 113 
L 1516 0 
L 100 0 
L 100 113 
Q 297 113 375 155 
Q 453 197 493 289 
Q 534 381 534 647 
L 534 1741 
Q 534 2213 506 2350 
Q 484 2453 437 2492 
Q 391 2531 309 2531 
Q 222 2531 100 2484 
L 53 2597 
L 916 2947 
L 1050 2947 
L 1050 2338 
z
" transform="scale(0.015625)"/>
     </defs>
     <use xlink:href="#TimesNewRomanPSMT-68"/>
     <use xlink:href="#TimesNewRomanPSMT-75" x="50"/>
     <use xlink:href="#TimesNewRomanPSMT-6d" x="100"/>
     <use xlink:href="#TimesNewRomanPSMT-69" x="177.783203"/>
     <use xlink:href="#TimesNewRomanPSMT-63" x="205.566406"/>
    </g>
   </g>
  </g>
  <g id="axes_2">
   <g id="patch_8">
    <path d="M 767.14994 575.066875 
L 1237.763712 575.066875 
L 1237.763712 53.446875 
L 767.14994 53.446875 
z
" style="fill: #ffffff"/>
   </g>
   <g id="matplotlib.axis_3">
    <g id="xtick_9">
     <g id="line2d_35">
      <path d="M 768.096025 575.066875 
L 768.096025 53.446875 
" clip-path="url(#p72793b5b8f)" style="fill: none; stroke: #000000; stroke-width: 0.7; stroke-linecap: square"/>
     </g>
     <g id="line2d_36">
      <g>
       <use xlink:href="#ma2dc3f36f7" x="768.096025" y="575.066875" style="stroke: #000000; stroke-width: 2"/>
      </g>
     </g>
     <g id="text_21">
      <!-- 5 -->
      <g transform="translate(758.096025 606.341875) scale(0.4 -0.4)">
       <use xlink:href="#TimesNewRomanPSMT-35"/>
      </g>
     </g>
    </g>
    <g id="xtick_10">
     <g id="line2d_37">
      <path d="M 826.509061 575.066875 
L 826.509061 53.446875 
" clip-path="url(#p72793b5b8f)" style="fill: none; stroke: #000000; stroke-width: 0.7; stroke-linecap: square"/>
     </g>
     <g id="line2d_38">
      <g>
       <use xlink:href="#ma2dc3f36f7" x="826.509061" y="575.066875" style="stroke: #000000; stroke-width: 2"/>
      </g>
     </g>
     <g id="text_22">
      <!-- 10 -->
      <g transform="translate(806.509061 606.341875) scale(0.4 -0.4)">
       <defs>
        <path id="TimesNewRomanPSMT-31" d="M 750 3822 
L 1781 4325 
L 1884 4325 
L 1884 747 
Q 1884 391 1914 303 
Q 1944 216 2037 169 
Q 2131 122 2419 116 
L 2419 0 
L 825 0 
L 825 116 
Q 1125 122 1212 167 
Q 1300 213 1334 289 
Q 1369 366 1369 747 
L 1369 3034 
Q 1369 3497 1338 3628 
Q 1316 3728 1258 3775 
Q 1200 3822 1119 3822 
Q 1003 3822 797 3725 
L 750 3822 
z
" transform="scale(0.015625)"/>
       </defs>
       <use xlink:href="#TimesNewRomanPSMT-31"/>
       <use xlink:href="#TimesNewRomanPSMT-30" x="50"/>
      </g>
     </g>
    </g>
    <g id="xtick_11">
     <g id="line2d_39">
      <path d="M 884.922098 575.066875 
L 884.922098 53.446875 
" clip-path="url(#p72793b5b8f)" style="fill: none; stroke: #000000; stroke-width: 0.7; stroke-linecap: square"/>
     </g>
     <g id="line2d_40">
      <g>
       <use xlink:href="#ma2dc3f36f7" x="884.922098" y="575.066875" style="stroke: #000000; stroke-width: 2"/>
      </g>
     </g>
     <g id="text_23">
      <!-- 15 -->
      <g transform="translate(864.922098 606.341875) scale(0.4 -0.4)">
       <use xlink:href="#TimesNewRomanPSMT-31"/>
       <use xlink:href="#TimesNewRomanPSMT-35" x="50"/>
      </g>
     </g>
    </g>
    <g id="xtick_12">
     <g id="line2d_41">
      <path d="M 943.335134 575.066875 
L 943.335134 53.446875 
" clip-path="url(#p72793b5b8f)" style="fill: none; stroke: #000000; stroke-width: 0.7; stroke-linecap: square"/>
     </g>
     <g id="line2d_42">
      <g>
       <use xlink:href="#ma2dc3f36f7" x="943.335134" y="575.066875" style="stroke: #000000; stroke-width: 2"/>
      </g>
     </g>
     <g id="text_24">
      <!-- 20 -->
      <g transform="translate(923.335134 606.341875) scale(0.4 -0.4)">
       <use xlink:href="#TimesNewRomanPSMT-32"/>
       <use xlink:href="#TimesNewRomanPSMT-30" x="50"/>
      </g>
     </g>
    </g>
    <g id="xtick_13">
     <g id="line2d_43">
      <path d="M 1001.748171 575.066875 
L 1001.748171 53.446875 
" clip-path="url(#p72793b5b8f)" style="fill: none; stroke: #000000; stroke-width: 0.7; stroke-linecap: square"/>
     </g>
     <g id="line2d_44">
      <g>
       <use xlink:href="#ma2dc3f36f7" x="1001.748171" y="575.066875" style="stroke: #000000; stroke-width: 2"/>
      </g>
     </g>
     <g id="text_25">
      <!-- 25 -->
      <g transform="translate(981.748171 606.341875) scale(0.4 -0.4)">
       <use xlink:href="#TimesNewRomanPSMT-32"/>
       <use xlink:href="#TimesNewRomanPSMT-35" x="50"/>
      </g>
     </g>
    </g>
    <g id="xtick_14">
     <g id="line2d_45">
      <path d="M 1060.161207 575.066875 
L 1060.161207 53.446875 
" clip-path="url(#p72793b5b8f)" style="fill: none; stroke: #000000; stroke-width: 0.7; stroke-linecap: square"/>
     </g>
     <g id="line2d_46">
      <g>
       <use xlink:href="#ma2dc3f36f7" x="1060.161207" y="575.066875" style="stroke: #000000; stroke-width: 2"/>
      </g>
     </g>
     <g id="text_26">
      <!-- 30 -->
      <g transform="translate(1040.161207 606.341875) scale(0.4 -0.4)">
       <use xlink:href="#TimesNewRomanPSMT-33"/>
       <use xlink:href="#TimesNewRomanPSMT-30" x="50"/>
      </g>
     </g>
    </g>
    <g id="xtick_15">
     <g id="line2d_47">
      <path d="M 1118.574244 575.066875 
L 1118.574244 53.446875 
" clip-path="url(#p72793b5b8f)" style="fill: none; stroke: #000000; stroke-width: 0.7; stroke-linecap: square"/>
     </g>
     <g id="line2d_48">
      <g>
       <use xlink:href="#ma2dc3f36f7" x="1118.574244" y="575.066875" style="stroke: #000000; stroke-width: 2"/>
      </g>
     </g>
     <g id="text_27">
      <!-- 35 -->
      <g transform="translate(1098.574244 606.341875) scale(0.4 -0.4)">
       <use xlink:href="#TimesNewRomanPSMT-33"/>
       <use xlink:href="#TimesNewRomanPSMT-35" x="50"/>
      </g>
     </g>
    </g>
    <g id="xtick_16">
     <g id="line2d_49">
      <path d="M 1176.98728 575.066875 
L 1176.98728 53.446875 
" clip-path="url(#p72793b5b8f)" style="fill: none; stroke: #000000; stroke-width: 0.7; stroke-linecap: square"/>
     </g>
     <g id="line2d_50">
      <g>
       <use xlink:href="#ma2dc3f36f7" x="1176.98728" y="575.066875" style="stroke: #000000; stroke-width: 2"/>
      </g>
     </g>
     <g id="text_28">
      <!-- 40 -->
      <g transform="translate(1156.98728 606.341875) scale(0.4 -0.4)">
       <use xlink:href="#TimesNewRomanPSMT-34"/>
       <use xlink:href="#TimesNewRomanPSMT-30" x="50"/>
      </g>
     </g>
    </g>
    <g id="xtick_17">
     <g id="line2d_51">
      <path d="M 1235.400317 575.066875 
L 1235.400317 53.446875 
" clip-path="url(#p72793b5b8f)" style="fill: none; stroke: #000000; stroke-width: 0.7; stroke-linecap: square"/>
     </g>
     <g id="line2d_52">
      <g>
       <use xlink:href="#ma2dc3f36f7" x="1235.400317" y="575.066875" style="stroke: #000000; stroke-width: 2"/>
      </g>
     </g>
     <g id="text_29">
      <!-- 45 -->
      <g transform="translate(1215.400317 606.341875) scale(0.4 -0.4)">
       <use xlink:href="#TimesNewRomanPSMT-34"/>
       <use xlink:href="#TimesNewRomanPSMT-35" x="50"/>
      </g>
     </g>
    </g>
    <g id="text_30">
     <!-- True data -->
     <g transform="translate(923.32292 659.061875) scale(0.42 -0.42)">
      <use xlink:href="#TimesNewRomanPSMT-54"/>
      <use xlink:href="#TimesNewRomanPSMT-72" x="57.583984"/>
      <use xlink:href="#TimesNewRomanPSMT-75" x="90.884766"/>
      <use xlink:href="#TimesNewRomanPSMT-65" x="140.884766"/>
      <use xlink:href="#TimesNewRomanPSMT-20" x="185.269531"/>
      <use xlink:href="#TimesNewRomanPSMT-64" x="210.269531"/>
      <use xlink:href="#TimesNewRomanPSMT-61" x="260.269531"/>
      <use xlink:href="#TimesNewRomanPSMT-74" x="304.654297"/>
      <use xlink:href="#TimesNewRomanPSMT-61" x="332.4375"/>
     </g>
    </g>
   </g>
   <g id="matplotlib.axis_4">
    <g id="ytick_9">
     <g id="line2d_53">
      <path d="M 767.14994 573.65449 
L 1237.763712 573.65449 
" clip-path="url(#p72793b5b8f)" style="fill: none; stroke: #000000; stroke-width: 0.7; stroke-linecap: square"/>
     </g>
     <g id="line2d_54">
      <g>
       <use xlink:href="#me834ccdb93" x="767.14994" y="573.65449" style="stroke: #000000; stroke-width: 2"/>
      </g>
     </g>
     <g id="text_31">
      <!-- 5 -->
      <g transform="translate(743.64994 587.54199) scale(0.4 -0.4)">
       <use xlink:href="#TimesNewRomanPSMT-35"/>
      </g>
     </g>
    </g>
    <g id="ytick_10">
     <g id="line2d_55">
      <path d="M 767.14994 509.949786 
L 1237.763712 509.949786 
" clip-path="url(#p72793b5b8f)" style="fill: none; stroke: #000000; stroke-width: 0.7; stroke-linecap: square"/>
     </g>
     <g id="line2d_56">
      <g>
       <use xlink:href="#me834ccdb93" x="767.14994" y="509.949786" style="stroke: #000000; stroke-width: 2"/>
      </g>
     </g>
     <g id="text_32">
      <!-- 10 -->
      <g transform="translate(723.64994 523.837286) scale(0.4 -0.4)">
       <use xlink:href="#TimesNewRomanPSMT-31"/>
       <use xlink:href="#TimesNewRomanPSMT-30" x="50"/>
      </g>
     </g>
    </g>
    <g id="ytick_11">
     <g id="line2d_57">
      <path d="M 767.14994 446.245082 
L 1237.763712 446.245082 
" clip-path="url(#p72793b5b8f)" style="fill: none; stroke: #000000; stroke-width: 0.7; stroke-linecap: square"/>
     </g>
     <g id="line2d_58">
      <g>
       <use xlink:href="#me834ccdb93" x="767.14994" y="446.245082" style="stroke: #000000; stroke-width: 2"/>
      </g>
     </g>
     <g id="text_33">
      <!-- 15 -->
      <g transform="translate(723.64994 460.132582) scale(0.4 -0.4)">
       <use xlink:href="#TimesNewRomanPSMT-31"/>
       <use xlink:href="#TimesNewRomanPSMT-35" x="50"/>
      </g>
     </g>
    </g>
    <g id="ytick_12">
     <g id="line2d_59">
      <path d="M 767.14994 382.540378 
L 1237.763712 382.540378 
" clip-path="url(#p72793b5b8f)" style="fill: none; stroke: #000000; stroke-width: 0.7; stroke-linecap: square"/>
     </g>
     <g id="line2d_60">
      <g>
       <use xlink:href="#me834ccdb93" x="767.14994" y="382.540378" style="stroke: #000000; stroke-width: 2"/>
      </g>
     </g>
     <g id="text_34">
      <!-- 20 -->
      <g transform="translate(723.64994 396.427878) scale(0.4 -0.4)">
       <use xlink:href="#TimesNewRomanPSMT-32"/>
       <use xlink:href="#TimesNewRomanPSMT-30" x="50"/>
      </g>
     </g>
    </g>
    <g id="ytick_13">
     <g id="line2d_61">
      <path d="M 767.14994 318.835675 
L 1237.763712 318.835675 
" clip-path="url(#p72793b5b8f)" style="fill: none; stroke: #000000; stroke-width: 0.7; stroke-linecap: square"/>
     </g>
     <g id="line2d_62">
      <g>
       <use xlink:href="#me834ccdb93" x="767.14994" y="318.835675" style="stroke: #000000; stroke-width: 2"/>
      </g>
     </g>
     <g id="text_35">
      <!-- 25 -->
      <g transform="translate(723.64994 332.723175) scale(0.4 -0.4)">
       <use xlink:href="#TimesNewRomanPSMT-32"/>
       <use xlink:href="#TimesNewRomanPSMT-35" x="50"/>
      </g>
     </g>
    </g>
    <g id="ytick_14">
     <g id="line2d_63">
      <path d="M 767.14994 255.130971 
L 1237.763712 255.130971 
" clip-path="url(#p72793b5b8f)" style="fill: none; stroke: #000000; stroke-width: 0.7; stroke-linecap: square"/>
     </g>
     <g id="line2d_64">
      <g>
       <use xlink:href="#me834ccdb93" x="767.14994" y="255.130971" style="stroke: #000000; stroke-width: 2"/>
      </g>
     </g>
     <g id="text_36">
      <!-- 30 -->
      <g transform="translate(723.64994 269.018471) scale(0.4 -0.4)">
       <use xlink:href="#TimesNewRomanPSMT-33"/>
       <use xlink:href="#TimesNewRomanPSMT-30" x="50"/>
      </g>
     </g>
    </g>
    <g id="ytick_15">
     <g id="line2d_65">
      <path d="M 767.14994 191.426267 
L 1237.763712 191.426267 
" clip-path="url(#p72793b5b8f)" style="fill: none; stroke: #000000; stroke-width: 0.7; stroke-linecap: square"/>
     </g>
     <g id="line2d_66">
      <g>
       <use xlink:href="#me834ccdb93" x="767.14994" y="191.426267" style="stroke: #000000; stroke-width: 2"/>
      </g>
     </g>
     <g id="text_37">
      <!-- 35 -->
      <g transform="translate(723.64994 205.313767) scale(0.4 -0.4)">
       <use xlink:href="#TimesNewRomanPSMT-33"/>
       <use xlink:href="#TimesNewRomanPSMT-35" x="50"/>
      </g>
     </g>
    </g>
    <g id="ytick_16">
     <g id="line2d_67">
      <path d="M 767.14994 127.721563 
L 1237.763712 127.721563 
" clip-path="url(#p72793b5b8f)" style="fill: none; stroke: #000000; stroke-width: 0.7; stroke-linecap: square"/>
     </g>
     <g id="line2d_68">
      <g>
       <use xlink:href="#me834ccdb93" x="767.14994" y="127.721563" style="stroke: #000000; stroke-width: 2"/>
      </g>
     </g>
     <g id="text_38">
      <!-- 40 -->
      <g transform="translate(723.64994 141.609063) scale(0.4 -0.4)">
       <use xlink:href="#TimesNewRomanPSMT-34"/>
       <use xlink:href="#TimesNewRomanPSMT-30" x="50"/>
      </g>
     </g>
    </g>
    <g id="ytick_17">
     <g id="line2d_69">
      <path d="M 767.14994 64.016859 
L 1237.763712 64.016859 
" clip-path="url(#p72793b5b8f)" style="fill: none; stroke: #000000; stroke-width: 0.7; stroke-linecap: square"/>
     </g>
     <g id="line2d_70">
      <g>
       <use xlink:href="#me834ccdb93" x="767.14994" y="64.016859" style="stroke: #000000; stroke-width: 2"/>
      </g>
     </g>
     <g id="text_39">
      <!-- 45 -->
      <g transform="translate(723.64994 77.904359) scale(0.4 -0.4)">
       <use xlink:href="#TimesNewRomanPSMT-34"/>
       <use xlink:href="#TimesNewRomanPSMT-35" x="50"/>
      </g>
     </g>
    </g>
    <g id="text_40">
     <!-- Predicted data -->
     <g transform="translate(699.665878 433.789531) rotate(-90) scale(0.42 -0.42)">
      <use xlink:href="#TimesNewRomanPSMT-50"/>
      <use xlink:href="#TimesNewRomanPSMT-72" x="55.615234"/>
      <use xlink:href="#TimesNewRomanPSMT-65" x="88.916016"/>
      <use xlink:href="#TimesNewRomanPSMT-64" x="133.300781"/>
      <use xlink:href="#TimesNewRomanPSMT-69" x="183.300781"/>
      <use xlink:href="#TimesNewRomanPSMT-63" x="211.083984"/>
      <use xlink:href="#TimesNewRomanPSMT-74" x="255.46875"/>
      <use xlink:href="#TimesNewRomanPSMT-65" x="283.251953"/>
      <use xlink:href="#TimesNewRomanPSMT-64" x="327.636719"/>
      <use xlink:href="#TimesNewRomanPSMT-20" x="377.636719"/>
      <use xlink:href="#TimesNewRomanPSMT-64" x="402.636719"/>
      <use xlink:href="#TimesNewRomanPSMT-61" x="452.636719"/>
      <use xlink:href="#TimesNewRomanPSMT-74" x="497.021484"/>
      <use xlink:href="#TimesNewRomanPSMT-61" x="524.804688"/>
     </g>
    </g>
   </g>
   <g id="line2d_71">
    <path d="M 1144.117649 163.568871 
L 887.171403 443.792011 
L 1120.247866 189.60103 
L 1189.582085 113.985788 
L 989.80875 331.856693 
L 916.604378 411.692688 
L 952.770338 372.250434 
L 1172.205172 132.936884 
L 846.642023 487.992969 
L 1065.547341 249.256904 
L 1100.522563 211.113259 
L 1005.365898 314.890216 
L 807.672352 530.492923 
L 1207.507224 94.436801 
L 1010.827728 308.933595 
L 865.799285 467.10024 
L 962.579106 361.553085 
L 1124.044937 185.459981 
L 925.286605 402.223933 
L 1170.261088 135.057084 
L 880.080892 451.524855 
L 1077.96399 235.715425 
L 1157.838836 148.604675 
L 1055.415355 260.306752 
L 903.725526 425.738241 
L 824.050912 512.63062 
L 788.541476 551.356875 
L 1089.878998 222.72103 
L 940.487542 385.645935 
L 1216.372177 84.768768 
L 816.824475 520.511703 
L 973.224678 349.943125 
L 1023.183106 295.458937 
L 1045.542019 271.074518 
L 838.181886 497.219514 
" clip-path="url(#p72793b5b8f)" style="fill: none; stroke: #0000ff; stroke-width: 3; stroke-linecap: square"/>
   </g>
   <g id="line2d_72">
    <g clip-path="url(#p72793b5b8f)">
     <use xlink:href="#m1bfa761b06" x="1144.117649" y="255.012178" style="fill: #ff0000; stroke: #ff0000"/>
     <use xlink:href="#m1bfa761b06" x="887.171403" y="429.65923" style="fill: #ff0000; stroke: #ff0000"/>
     <use xlink:href="#m1bfa761b06" x="1120.247866" y="237.033184" style="fill: #ff0000; stroke: #ff0000"/>
     <use xlink:href="#m1bfa761b06" x="1189.582085" y="77.156875" style="fill: #ff0000; stroke: #ff0000"/>
     <use xlink:href="#m1bfa761b06" x="989.80875" y="323.101512" style="fill: #ff0000; stroke: #ff0000"/>
     <use xlink:href="#m1bfa761b06" x="916.604378" y="429.350975" style="fill: #ff0000; stroke: #ff0000"/>
     <use xlink:href="#m1bfa761b06" x="952.770338" y="354.666194" style="fill: #ff0000; stroke: #ff0000"/>
     <use xlink:href="#m1bfa761b06" x="1172.205172" y="170.813214" style="fill: #ff0000; stroke: #ff0000"/>
     <use xlink:href="#m1bfa761b06" x="846.642023" y="445.247609" style="fill: #ff0000; stroke: #ff0000"/>
     <use xlink:href="#m1bfa761b06" x="1065.547341" y="360.416442" style="fill: #ff0000; stroke: #ff0000"/>
     <use xlink:href="#m1bfa761b06" x="1100.522563" y="155.034671" style="fill: #ff0000; stroke: #ff0000"/>
     <use xlink:href="#m1bfa761b06" x="1005.365898" y="262.166922" style="fill: #ff0000; stroke: #ff0000"/>
     <use xlink:href="#m1bfa761b06" x="807.672352" y="471.485997" style="fill: #ff0000; stroke: #ff0000"/>
     <use xlink:href="#m1bfa761b06" x="1207.507224" y="83.814286" style="fill: #ff0000; stroke: #ff0000"/>
     <use xlink:href="#m1bfa761b06" x="1010.827728" y="381.26611" style="fill: #ff0000; stroke: #ff0000"/>
     <use xlink:href="#m1bfa761b06" x="865.799285" y="405.584634" style="fill: #ff0000; stroke: #ff0000"/>
     <use xlink:href="#m1bfa761b06" x="962.579106" y="342.00339" style="fill: #ff0000; stroke: #ff0000"/>
     <use xlink:href="#m1bfa761b06" x="1124.044937" y="140.188351" style="fill: #ff0000; stroke: #ff0000"/>
     <use xlink:href="#m1bfa761b06" x="925.286605" y="339.833084" style="fill: #ff0000; stroke: #ff0000"/>
     <use xlink:href="#m1bfa761b06" x="1170.261088" y="235.661588" style="fill: #ff0000; stroke: #ff0000"/>
     <use xlink:href="#m1bfa761b06" x="880.080892" y="412.895583" style="fill: #ff0000; stroke: #ff0000"/>
     <use xlink:href="#m1bfa761b06" x="1077.96399" y="224.832313" style="fill: #ff0000; stroke: #ff0000"/>
     <use xlink:href="#m1bfa761b06" x="1157.838836" y="169.442404" style="fill: #ff0000; stroke: #ff0000"/>
     <use xlink:href="#m1bfa761b06" x="1055.415355" y="186.212355" style="fill: #ff0000; stroke: #ff0000"/>
     <use xlink:href="#m1bfa761b06" x="903.725526" y="387.537321" style="fill: #ff0000; stroke: #ff0000"/>
     <use xlink:href="#m1bfa761b06" x="824.050912" y="470.057607" style="fill: #ff0000; stroke: #ff0000"/>
     <use xlink:href="#m1bfa761b06" x="788.541476" y="474.422665" style="fill: #ff0000; stroke: #ff0000"/>
     <use xlink:href="#m1bfa761b06" x="1089.878998" y="225.219813" style="fill: #ff0000; stroke: #ff0000"/>
     <use xlink:href="#m1bfa761b06" x="940.487542" y="391.13334" style="fill: #ff0000; stroke: #ff0000"/>
     <use xlink:href="#m1bfa761b06" x="1216.372177" y="143.11268" style="fill: #ff0000; stroke: #ff0000"/>
     <use xlink:href="#m1bfa761b06" x="816.824475" y="476.140642" style="fill: #ff0000; stroke: #ff0000"/>
     <use xlink:href="#m1bfa761b06" x="973.224678" y="410.829643" style="fill: #ff0000; stroke: #ff0000"/>
     <use xlink:href="#m1bfa761b06" x="1023.183106" y="328.186615" style="fill: #ff0000; stroke: #ff0000"/>
     <use xlink:href="#m1bfa761b06" x="1045.542019" y="423.340406" style="fill: #ff0000; stroke: #ff0000"/>
     <use xlink:href="#m1bfa761b06" x="838.181886" y="498.556532" style="fill: #ff0000; stroke: #ff0000"/>
    </g>
   </g>
   <g id="patch_9">
    <path d="M 767.14994 575.066875 
L 767.14994 53.446875 
" style="fill: none; stroke: #000000; stroke-width: 0.8; stroke-linejoin: miter; stroke-linecap: square"/>
   </g>
   <g id="patch_10">
    <path d="M 1237.763712 575.066875 
L 1237.763712 53.446875 
" style="fill: none; stroke: #000000; stroke-width: 0.8; stroke-linejoin: miter; stroke-linecap: square"/>
   </g>
   <g id="patch_11">
    <path d="M 767.14994 575.066875 
L 1237.763712 575.066875 
" style="fill: none; stroke: #000000; stroke-width: 0.8; stroke-linejoin: miter; stroke-linecap: square"/>
   </g>
   <g id="patch_12">
    <path d="M 767.14994 53.446875 
L 1237.763712 53.446875 
" style="fill: none; stroke: #000000; stroke-width: 0.8; stroke-linejoin: miter; stroke-linecap: square"/>
   </g>
   <g id="text_41">
    <g id="patch_13">
     <path d="M 796.427324 197.307223 
L 1239.947324 197.307223 
Q 1252.547324 197.307223 1252.547324 184.707223 
L 1252.547324 120.447223 
Q 1252.547324 107.847223 1239.947324 107.847223 
L 796.427324 107.847223 
Q 783.827324 107.847223 783.827324 120.447223 
L 783.827324 184.707223 
Q 783.827324 197.307223 796.427324 197.307223 
z
" style="fill: #ffffff; stroke: #000000; stroke-linejoin: miter"/>
    </g>
    <!-- $\frac {RMSE}{concentration\ range}$=0.1221 -->
    <g transform="translate(796.427324 161.187223) scale(0.42 -0.42)">
     <defs>
      <path id="TimesNewRomanPS-BoldMT-32" d="M 2650 0 
L 156 0 
L 156 69 
Q 1303 1434 1548 1906 
Q 1794 2378 1794 2828 
Q 1794 3156 1591 3373 
Q 1388 3591 1094 3591 
Q 613 3591 347 3109 
L 231 3150 
Q 400 3750 744 4037 
Q 1088 4325 1538 4325 
Q 1859 4325 2125 4175 
Q 2391 4025 2541 3764 
Q 2691 3503 2691 3275 
Q 2691 2859 2459 2431 
Q 2144 1853 1081 819 
L 1997 819 
Q 2334 819 2436 847 
Q 2538 875 2603 942 
Q 2669 1009 2775 1225 
L 2888 1225 
L 2650 0 
z
" transform="scale(0.015625)"/>
     </defs>
     <use xlink:href="#DejaVuSans-Oblique-52" transform="translate(257 45.046875) scale(0.7)"/>
     <use xlink:href="#DejaVuSans-Oblique-4d" transform="translate(305.637695 45.046875) scale(0.7)"/>
     <use xlink:href="#DejaVuSans-Oblique-53" transform="translate(366.033203 45.046875) scale(0.7)"/>
     <use xlink:href="#DejaVuSans-Oblique-45" transform="translate(410.466797 45.046875) scale(0.7)"/>
     <use xlink:href="#DejaVuSans-Oblique-63" transform="translate(0 -40.3875) scale(0.7)"/>
     <use xlink:href="#DejaVuSans-Oblique-6f" transform="translate(38.486328 -40.3875) scale(0.7)"/>
     <use xlink:href="#DejaVuSans-Oblique-6e" transform="translate(81.313477 -40.3875) scale(0.7)"/>
     <use xlink:href="#DejaVuSans-Oblique-63" transform="translate(125.678711 -40.3875) scale(0.7)"/>
     <use xlink:href="#DejaVuSans-Oblique-65" transform="translate(164.165039 -40.3875) scale(0.7)"/>
     <use xlink:href="#DejaVuSans-Oblique-6e" transform="translate(207.231445 -40.3875) scale(0.7)"/>
     <use xlink:href="#DejaVuSans-Oblique-74" transform="translate(251.59668 -40.3875) scale(0.7)"/>
     <use xlink:href="#DejaVuSans-Oblique-72" transform="translate(279.042969 -40.3875) scale(0.7)"/>
     <use xlink:href="#DejaVuSans-Oblique-61" transform="translate(307.822266 -40.3875) scale(0.7)"/>
     <use xlink:href="#DejaVuSans-Oblique-74" transform="translate(350.717773 -40.3875) scale(0.7)"/>
     <use xlink:href="#DejaVuSans-Oblique-69" transform="translate(378.164062 -40.3875) scale(0.7)"/>
     <use xlink:href="#DejaVuSans-Oblique-6f" transform="translate(397.612305 -40.3875) scale(0.7)"/>
     <use xlink:href="#DejaVuSans-Oblique-6e" transform="translate(440.439453 -40.3875) scale(0.7)"/>
     <use xlink:href="#DejaVuSans-Oblique-72" transform="translate(507.533952 -40.3875) scale(0.7)"/>
     <use xlink:href="#DejaVuSans-Oblique-61" transform="translate(536.313249 -40.3875) scale(0.7)"/>
     <use xlink:href="#DejaVuSans-Oblique-6e" transform="translate(579.208757 -40.3875) scale(0.7)"/>
     <use xlink:href="#DejaVuSans-Oblique-67" transform="translate(623.573991 -40.3875) scale(0.7)"/>
     <use xlink:href="#DejaVuSans-Oblique-65" transform="translate(668.007585 -40.3875) scale(0.7)"/>
     <use xlink:href="#TimesNewRomanPS-BoldMT-3d" transform="translate(723.573991 0.254688)"/>
     <use xlink:href="#TimesNewRomanPS-BoldMT-30" transform="translate(780.556413 0.254688)"/>
     <use xlink:href="#TimesNewRomanPS-BoldMT-2e" transform="translate(830.556413 0.254688)"/>
     <use xlink:href="#TimesNewRomanPS-BoldMT-31" transform="translate(855.556413 0.254688)"/>
     <use xlink:href="#TimesNewRomanPS-BoldMT-32" transform="translate(905.556413 0.254688)"/>
     <use xlink:href="#TimesNewRomanPS-BoldMT-32" transform="translate(955.556413 0.254688)"/>
     <use xlink:href="#TimesNewRomanPS-BoldMT-31" transform="translate(1005.556413 0.254688)"/>
     <path d="M 0 19.051563 
L 0 25.301563 
L 711.073991 25.301563 
L 711.073991 19.051563 
L 0 19.051563 
z
"/>
    </g>
   </g>
   <g id="text_42">
    <!-- tyrosine -->
    <g transform="translate(929.968155 38.446875) scale(0.45 -0.45)">
     <defs>
      <path id="TimesNewRomanPSMT-79" d="M 38 2863 
L 1372 2863 
L 1372 2747 
L 1306 2747 
Q 1166 2747 1095 2686 
Q 1025 2625 1025 2534 
Q 1025 2413 1128 2197 
L 1825 753 
L 2466 2334 
Q 2519 2463 2519 2588 
Q 2519 2644 2497 2672 
Q 2472 2706 2419 2726 
Q 2366 2747 2231 2747 
L 2231 2863 
L 3163 2863 
L 3163 2747 
Q 3047 2734 2984 2696 
Q 2922 2659 2847 2556 
Q 2819 2513 2741 2316 
L 1575 -541 
Q 1406 -956 1132 -1168 
Q 859 -1381 606 -1381 
Q 422 -1381 303 -1275 
Q 184 -1169 184 -1031 
Q 184 -900 270 -820 
Q 356 -741 506 -741 
Q 609 -741 788 -809 
Q 913 -856 944 -856 
Q 1038 -856 1148 -759 
Q 1259 -663 1372 -384 
L 1575 113 
L 547 2272 
Q 500 2369 397 2513 
Q 319 2622 269 2659 
Q 197 2709 38 2747 
L 38 2863 
z
" transform="scale(0.015625)"/>
      <path id="TimesNewRomanPSMT-6f" d="M 1600 2947 
Q 2250 2947 2644 2453 
Q 2978 2031 2978 1484 
Q 2978 1100 2793 706 
Q 2609 313 2286 112 
Q 1963 -88 1566 -88 
Q 919 -88 538 428 
Q 216 863 216 1403 
Q 216 1797 411 2186 
Q 606 2575 925 2761 
Q 1244 2947 1600 2947 
z
M 1503 2744 
Q 1338 2744 1170 2645 
Q 1003 2547 900 2300 
Q 797 2053 797 1666 
Q 797 1041 1045 587 
Q 1294 134 1700 134 
Q 2003 134 2200 384 
Q 2397 634 2397 1244 
Q 2397 2006 2069 2444 
Q 1847 2744 1503 2744 
z
" transform="scale(0.015625)"/>
      <path id="TimesNewRomanPSMT-73" d="M 2050 2947 
L 2050 1972 
L 1947 1972 
Q 1828 2431 1642 2597 
Q 1456 2763 1169 2763 
Q 950 2763 815 2647 
Q 681 2531 681 2391 
Q 681 2216 781 2091 
Q 878 1963 1175 1819 
L 1631 1597 
Q 2266 1288 2266 781 
Q 2266 391 1970 151 
Q 1675 -88 1309 -88 
Q 1047 -88 709 6 
Q 606 38 541 38 
Q 469 38 428 -44 
L 325 -44 
L 325 978 
L 428 978 
Q 516 541 762 319 
Q 1009 97 1316 97 
Q 1531 97 1667 223 
Q 1803 350 1803 528 
Q 1803 744 1651 891 
Q 1500 1038 1047 1263 
Q 594 1488 453 1669 
Q 313 1847 313 2119 
Q 313 2472 555 2709 
Q 797 2947 1181 2947 
Q 1350 2947 1591 2875 
Q 1750 2828 1803 2828 
Q 1853 2828 1881 2850 
Q 1909 2872 1947 2947 
L 2050 2947 
z
" transform="scale(0.015625)"/>
      <path id="TimesNewRomanPSMT-6e" d="M 1034 2341 
Q 1538 2947 1994 2947 
Q 2228 2947 2397 2830 
Q 2566 2713 2666 2444 
Q 2734 2256 2734 1869 
L 2734 647 
Q 2734 375 2778 278 
Q 2813 200 2889 156 
Q 2966 113 3172 113 
L 3172 0 
L 1756 0 
L 1756 113 
L 1816 113 
Q 2016 113 2095 173 
Q 2175 234 2206 353 
Q 2219 400 2219 647 
L 2219 1819 
Q 2219 2209 2117 2386 
Q 2016 2563 1775 2563 
Q 1403 2563 1034 2156 
L 1034 647 
Q 1034 356 1069 288 
Q 1113 197 1189 155 
Q 1266 113 1500 113 
L 1500 0 
L 84 0 
L 84 113 
L 147 113 
Q 366 113 442 223 
Q 519 334 519 647 
L 519 1709 
Q 519 2225 495 2337 
Q 472 2450 423 2490 
Q 375 2531 294 2531 
Q 206 2531 84 2484 
L 38 2597 
L 900 2947 
L 1034 2947 
L 1034 2341 
z
" transform="scale(0.015625)"/>
     </defs>
     <use xlink:href="#TimesNewRomanPSMT-74"/>
     <use xlink:href="#TimesNewRomanPSMT-79" x="27.783203"/>
     <use xlink:href="#TimesNewRomanPSMT-72" x="77.783203"/>
     <use xlink:href="#TimesNewRomanPSMT-6f" x="111.083984"/>
     <use xlink:href="#TimesNewRomanPSMT-73" x="161.083984"/>
     <use xlink:href="#TimesNewRomanPSMT-69" x="200"/>
     <use xlink:href="#TimesNewRomanPSMT-6e" x="227.783203"/>
     <use xlink:href="#TimesNewRomanPSMT-65" x="277.783203"/>
    </g>
   </g>
  </g>
  <g id="axes_3">
   <g id="patch_14">
    <path d="M 1430.452068 575.066875 
L 1901.06584 575.066875 
L 1901.06584 53.446875 
L 1430.452068 53.446875 
z
" style="fill: #ffffff"/>
   </g>
   <g id="matplotlib.axis_5">
    <g id="xtick_18">
     <g id="line2d_73">
      <path d="M 1487.286235 575.066875 
L 1487.286235 53.446875 
" clip-path="url(#p4a50075247)" style="fill: none; stroke: #000000; stroke-width: 0.7; stroke-linecap: square"/>
     </g>
     <g id="line2d_74">
      <g>
       <use xlink:href="#ma2dc3f36f7" x="1487.286235" y="575.066875" style="stroke: #000000; stroke-width: 2"/>
      </g>
     </g>
     <g id="text_43">
      <!-- 10 -->
      <g transform="translate(1467.286235 606.341875) scale(0.4 -0.4)">
       <use xlink:href="#TimesNewRomanPSMT-31"/>
       <use xlink:href="#TimesNewRomanPSMT-30" x="50"/>
      </g>
     </g>
    </g>
    <g id="xtick_19">
     <g id="line2d_75">
      <path d="M 1546.494191 575.066875 
L 1546.494191 53.446875 
" clip-path="url(#p4a50075247)" style="fill: none; stroke: #000000; stroke-width: 0.7; stroke-linecap: square"/>
     </g>
     <g id="line2d_76">
      <g>
       <use xlink:href="#ma2dc3f36f7" x="1546.494191" y="575.066875" style="stroke: #000000; stroke-width: 2"/>
      </g>
     </g>
     <g id="text_44">
      <!-- 15 -->
      <g transform="translate(1526.494191 606.341875) scale(0.4 -0.4)">
       <use xlink:href="#TimesNewRomanPSMT-31"/>
       <use xlink:href="#TimesNewRomanPSMT-35" x="50"/>
      </g>
     </g>
    </g>
    <g id="xtick_20">
     <g id="line2d_77">
      <path d="M 1605.702147 575.066875 
L 1605.702147 53.446875 
" clip-path="url(#p4a50075247)" style="fill: none; stroke: #000000; stroke-width: 0.7; stroke-linecap: square"/>
     </g>
     <g id="line2d_78">
      <g>
       <use xlink:href="#ma2dc3f36f7" x="1605.702147" y="575.066875" style="stroke: #000000; stroke-width: 2"/>
      </g>
     </g>
     <g id="text_45">
      <!-- 20 -->
      <g transform="translate(1585.702147 606.341875) scale(0.4 -0.4)">
       <use xlink:href="#TimesNewRomanPSMT-32"/>
       <use xlink:href="#TimesNewRomanPSMT-30" x="50"/>
      </g>
     </g>
    </g>
    <g id="xtick_21">
     <g id="line2d_79">
      <path d="M 1664.910103 575.066875 
L 1664.910103 53.446875 
" clip-path="url(#p4a50075247)" style="fill: none; stroke: #000000; stroke-width: 0.7; stroke-linecap: square"/>
     </g>
     <g id="line2d_80">
      <g>
       <use xlink:href="#ma2dc3f36f7" x="1664.910103" y="575.066875" style="stroke: #000000; stroke-width: 2"/>
      </g>
     </g>
     <g id="text_46">
      <!-- 25 -->
      <g transform="translate(1644.910103 606.341875) scale(0.4 -0.4)">
       <use xlink:href="#TimesNewRomanPSMT-32"/>
       <use xlink:href="#TimesNewRomanPSMT-35" x="50"/>
      </g>
     </g>
    </g>
    <g id="xtick_22">
     <g id="line2d_81">
      <path d="M 1724.11806 575.066875 
L 1724.11806 53.446875 
" clip-path="url(#p4a50075247)" style="fill: none; stroke: #000000; stroke-width: 0.7; stroke-linecap: square"/>
     </g>
     <g id="line2d_82">
      <g>
       <use xlink:href="#ma2dc3f36f7" x="1724.11806" y="575.066875" style="stroke: #000000; stroke-width: 2"/>
      </g>
     </g>
     <g id="text_47">
      <!-- 30 -->
      <g transform="translate(1704.11806 606.341875) scale(0.4 -0.4)">
       <use xlink:href="#TimesNewRomanPSMT-33"/>
       <use xlink:href="#TimesNewRomanPSMT-30" x="50"/>
      </g>
     </g>
    </g>
    <g id="xtick_23">
     <g id="line2d_83">
      <path d="M 1783.326016 575.066875 
L 1783.326016 53.446875 
" clip-path="url(#p4a50075247)" style="fill: none; stroke: #000000; stroke-width: 0.7; stroke-linecap: square"/>
     </g>
     <g id="line2d_84">
      <g>
       <use xlink:href="#ma2dc3f36f7" x="1783.326016" y="575.066875" style="stroke: #000000; stroke-width: 2"/>
      </g>
     </g>
     <g id="text_48">
      <!-- 35 -->
      <g transform="translate(1763.326016 606.341875) scale(0.4 -0.4)">
       <use xlink:href="#TimesNewRomanPSMT-33"/>
       <use xlink:href="#TimesNewRomanPSMT-35" x="50"/>
      </g>
     </g>
    </g>
    <g id="xtick_24">
     <g id="line2d_85">
      <path d="M 1842.533972 575.066875 
L 1842.533972 53.446875 
" clip-path="url(#p4a50075247)" style="fill: none; stroke: #000000; stroke-width: 0.7; stroke-linecap: square"/>
     </g>
     <g id="line2d_86">
      <g>
       <use xlink:href="#ma2dc3f36f7" x="1842.533972" y="575.066875" style="stroke: #000000; stroke-width: 2"/>
      </g>
     </g>
     <g id="text_49">
      <!-- 40 -->
      <g transform="translate(1822.533972 606.341875) scale(0.4 -0.4)">
       <use xlink:href="#TimesNewRomanPSMT-34"/>
       <use xlink:href="#TimesNewRomanPSMT-30" x="50"/>
      </g>
     </g>
    </g>
    <g id="text_50">
     <!-- True data -->
     <g transform="translate(1586.625048 659.061875) scale(0.42 -0.42)">
      <use xlink:href="#TimesNewRomanPSMT-54"/>
      <use xlink:href="#TimesNewRomanPSMT-72" x="57.583984"/>
      <use xlink:href="#TimesNewRomanPSMT-75" x="90.884766"/>
      <use xlink:href="#TimesNewRomanPSMT-65" x="140.884766"/>
      <use xlink:href="#TimesNewRomanPSMT-20" x="185.269531"/>
      <use xlink:href="#TimesNewRomanPSMT-64" x="210.269531"/>
      <use xlink:href="#TimesNewRomanPSMT-61" x="260.269531"/>
      <use xlink:href="#TimesNewRomanPSMT-74" x="304.654297"/>
      <use xlink:href="#TimesNewRomanPSMT-61" x="332.4375"/>
     </g>
    </g>
   </g>
   <g id="matplotlib.axis_6">
    <g id="ytick_18">
     <g id="line2d_87">
      <path d="M 1430.452068 514.233438 
L 1901.06584 514.233438 
" clip-path="url(#p4a50075247)" style="fill: none; stroke: #000000; stroke-width: 0.7; stroke-linecap: square"/>
     </g>
     <g id="line2d_88">
      <g>
       <use xlink:href="#me834ccdb93" x="1430.452068" y="514.233438" style="stroke: #000000; stroke-width: 2"/>
      </g>
     </g>
     <g id="text_51">
      <!-- 10 -->
      <g transform="translate(1386.952068 528.120938) scale(0.4 -0.4)">
       <use xlink:href="#TimesNewRomanPSMT-31"/>
       <use xlink:href="#TimesNewRomanPSMT-30" x="50"/>
      </g>
     </g>
    </g>
    <g id="ytick_19">
     <g id="line2d_89">
      <path d="M 1430.452068 452.217648 
L 1901.06584 452.217648 
" clip-path="url(#p4a50075247)" style="fill: none; stroke: #000000; stroke-width: 0.7; stroke-linecap: square"/>
     </g>
     <g id="line2d_90">
      <g>
       <use xlink:href="#me834ccdb93" x="1430.452068" y="452.217648" style="stroke: #000000; stroke-width: 2"/>
      </g>
     </g>
     <g id="text_52">
      <!-- 15 -->
      <g transform="translate(1386.952068 466.105148) scale(0.4 -0.4)">
       <use xlink:href="#TimesNewRomanPSMT-31"/>
       <use xlink:href="#TimesNewRomanPSMT-35" x="50"/>
      </g>
     </g>
    </g>
    <g id="ytick_20">
     <g id="line2d_91">
      <path d="M 1430.452068 390.201858 
L 1901.06584 390.201858 
" clip-path="url(#p4a50075247)" style="fill: none; stroke: #000000; stroke-width: 0.7; stroke-linecap: square"/>
     </g>
     <g id="line2d_92">
      <g>
       <use xlink:href="#me834ccdb93" x="1430.452068" y="390.201858" style="stroke: #000000; stroke-width: 2"/>
      </g>
     </g>
     <g id="text_53">
      <!-- 20 -->
      <g transform="translate(1386.952068 404.089358) scale(0.4 -0.4)">
       <use xlink:href="#TimesNewRomanPSMT-32"/>
       <use xlink:href="#TimesNewRomanPSMT-30" x="50"/>
      </g>
     </g>
    </g>
    <g id="ytick_21">
     <g id="line2d_93">
      <path d="M 1430.452068 328.186068 
L 1901.06584 328.186068 
" clip-path="url(#p4a50075247)" style="fill: none; stroke: #000000; stroke-width: 0.7; stroke-linecap: square"/>
     </g>
     <g id="line2d_94">
      <g>
       <use xlink:href="#me834ccdb93" x="1430.452068" y="328.186068" style="stroke: #000000; stroke-width: 2"/>
      </g>
     </g>
     <g id="text_54">
      <!-- 25 -->
      <g transform="translate(1386.952068 342.073568) scale(0.4 -0.4)">
       <use xlink:href="#TimesNewRomanPSMT-32"/>
       <use xlink:href="#TimesNewRomanPSMT-35" x="50"/>
      </g>
     </g>
    </g>
    <g id="ytick_22">
     <g id="line2d_95">
      <path d="M 1430.452068 266.170278 
L 1901.06584 266.170278 
" clip-path="url(#p4a50075247)" style="fill: none; stroke: #000000; stroke-width: 0.7; stroke-linecap: square"/>
     </g>
     <g id="line2d_96">
      <g>
       <use xlink:href="#me834ccdb93" x="1430.452068" y="266.170278" style="stroke: #000000; stroke-width: 2"/>
      </g>
     </g>
     <g id="text_55">
      <!-- 30 -->
      <g transform="translate(1386.952068 280.057778) scale(0.4 -0.4)">
       <use xlink:href="#TimesNewRomanPSMT-33"/>
       <use xlink:href="#TimesNewRomanPSMT-30" x="50"/>
      </g>
     </g>
    </g>
    <g id="ytick_23">
     <g id="line2d_97">
      <path d="M 1430.452068 204.154488 
L 1901.06584 204.154488 
" clip-path="url(#p4a50075247)" style="fill: none; stroke: #000000; stroke-width: 0.7; stroke-linecap: square"/>
     </g>
     <g id="line2d_98">
      <g>
       <use xlink:href="#me834ccdb93" x="1430.452068" y="204.154488" style="stroke: #000000; stroke-width: 2"/>
      </g>
     </g>
     <g id="text_56">
      <!-- 35 -->
      <g transform="translate(1386.952068 218.041988) scale(0.4 -0.4)">
       <use xlink:href="#TimesNewRomanPSMT-33"/>
       <use xlink:href="#TimesNewRomanPSMT-35" x="50"/>
      </g>
     </g>
    </g>
    <g id="ytick_24">
     <g id="line2d_99">
      <path d="M 1430.452068 142.138698 
L 1901.06584 142.138698 
" clip-path="url(#p4a50075247)" style="fill: none; stroke: #000000; stroke-width: 0.7; stroke-linecap: square"/>
     </g>
     <g id="line2d_100">
      <g>
       <use xlink:href="#me834ccdb93" x="1430.452068" y="142.138698" style="stroke: #000000; stroke-width: 2"/>
      </g>
     </g>
     <g id="text_57">
      <!-- 40 -->
      <g transform="translate(1386.952068 156.026198) scale(0.4 -0.4)">
       <use xlink:href="#TimesNewRomanPSMT-34"/>
       <use xlink:href="#TimesNewRomanPSMT-30" x="50"/>
      </g>
     </g>
    </g>
    <g id="ytick_25">
     <g id="line2d_101">
      <path d="M 1430.452068 80.122908 
L 1901.06584 80.122908 
" clip-path="url(#p4a50075247)" style="fill: none; stroke: #000000; stroke-width: 0.7; stroke-linecap: square"/>
     </g>
     <g id="line2d_102">
      <g>
       <use xlink:href="#me834ccdb93" x="1430.452068" y="80.122908" style="stroke: #000000; stroke-width: 2"/>
      </g>
     </g>
     <g id="text_58">
      <!-- 45 -->
      <g transform="translate(1386.952068 94.010408) scale(0.4 -0.4)">
       <use xlink:href="#TimesNewRomanPSMT-34"/>
       <use xlink:href="#TimesNewRomanPSMT-35" x="50"/>
      </g>
     </g>
    </g>
    <g id="text_59">
     <!-- Predicted data -->
     <g transform="translate(1362.968006 433.789531) rotate(-90) scale(0.42 -0.42)">
      <use xlink:href="#TimesNewRomanPSMT-50"/>
      <use xlink:href="#TimesNewRomanPSMT-72" x="55.615234"/>
      <use xlink:href="#TimesNewRomanPSMT-65" x="88.916016"/>
      <use xlink:href="#TimesNewRomanPSMT-64" x="133.300781"/>
      <use xlink:href="#TimesNewRomanPSMT-69" x="183.300781"/>
      <use xlink:href="#TimesNewRomanPSMT-63" x="211.083984"/>
      <use xlink:href="#TimesNewRomanPSMT-74" x="255.46875"/>
      <use xlink:href="#TimesNewRomanPSMT-65" x="283.251953"/>
      <use xlink:href="#TimesNewRomanPSMT-64" x="327.636719"/>
      <use xlink:href="#TimesNewRomanPSMT-20" x="377.636719"/>
      <use xlink:href="#TimesNewRomanPSMT-64" x="402.636719"/>
      <use xlink:href="#TimesNewRomanPSMT-61" x="452.636719"/>
      <use xlink:href="#TimesNewRomanPSMT-74" x="497.021484"/>
      <use xlink:href="#TimesNewRomanPSMT-61" x="524.804688"/>
     </g>
    </g>
   </g>
   <g id="line2d_103">
    <path d="M 1565.317447 432.501732 
L 1713.323639 277.476605 
L 1498.379397 502.614203 
L 1654.652869 338.929733 
L 1703.059937 288.227045 
L 1822.008691 163.637354 
L 1451.843603 551.356875 
L 1743.493849 245.875625 
L 1628.825021 365.982422 
L 1843.898238 140.709733 
L 1488.269695 513.203339 
L 1787.301204 199.990782 
L 1868.004209 115.460578 
L 1860.382327 123.443915 
L 1804.525402 181.949757 
L 1469.196752 533.180784 
L 1879.674305 103.237049 
L 1593.756909 402.713579 
L 1525.954949 473.730928 
L 1604.042444 391.94027 
L 1772.618956 215.369311 
L 1783.85001 203.605644 
L 1823.76452 161.798258 
L 1755.736259 233.05264 
L 1456.879646 546.082007 
L 1640.671566 353.574076 
L 1675.964018 316.607941 
L 1512.670888 487.644963 
L 1577.488113 419.753893 
L 1540.089014 458.926579 
L 1547.358555 451.312294 
L 1693.085953 298.674027 
L 1610.842397 384.817841 
L 1664.235056 328.893128 
L 1732.806859 257.069428 
" clip-path="url(#p4a50075247)" style="fill: none; stroke: #0000ff; stroke-width: 3; stroke-linecap: square"/>
   </g>
   <g id="line2d_104">
    <g clip-path="url(#p4a50075247)">
     <use xlink:href="#m1bfa761b06" x="1565.317447" y="400.761594" style="fill: #ff0000; stroke: #ff0000"/>
     <use xlink:href="#m1bfa761b06" x="1713.323639" y="320.616486" style="fill: #ff0000; stroke: #ff0000"/>
     <use xlink:href="#m1bfa761b06" x="1498.379397" y="509.967175" style="fill: #ff0000; stroke: #ff0000"/>
     <use xlink:href="#m1bfa761b06" x="1654.652869" y="335.45193" style="fill: #ff0000; stroke: #ff0000"/>
     <use xlink:href="#m1bfa761b06" x="1703.059937" y="295.899802" style="fill: #ff0000; stroke: #ff0000"/>
     <use xlink:href="#m1bfa761b06" x="1822.008691" y="254.584622" style="fill: #ff0000; stroke: #ff0000"/>
     <use xlink:href="#m1bfa761b06" x="1451.843603" y="546.419868" style="fill: #ff0000; stroke: #ff0000"/>
     <use xlink:href="#m1bfa761b06" x="1743.493849" y="224.274401" style="fill: #ff0000; stroke: #ff0000"/>
     <use xlink:href="#m1bfa761b06" x="1628.825021" y="311.147449" style="fill: #ff0000; stroke: #ff0000"/>
     <use xlink:href="#m1bfa761b06" x="1843.898238" y="196.43495" style="fill: #ff0000; stroke: #ff0000"/>
     <use xlink:href="#m1bfa761b06" x="1488.269695" y="529.877272" style="fill: #ff0000; stroke: #ff0000"/>
     <use xlink:href="#m1bfa761b06" x="1787.301204" y="213.95614" style="fill: #ff0000; stroke: #ff0000"/>
     <use xlink:href="#m1bfa761b06" x="1868.004209" y="98.332944" style="fill: #ff0000; stroke: #ff0000"/>
     <use xlink:href="#m1bfa761b06" x="1860.382327" y="122.72361" style="fill: #ff0000; stroke: #ff0000"/>
     <use xlink:href="#m1bfa761b06" x="1804.525402" y="169.439343" style="fill: #ff0000; stroke: #ff0000"/>
     <use xlink:href="#m1bfa761b06" x="1469.196752" y="504.964999" style="fill: #ff0000; stroke: #ff0000"/>
     <use xlink:href="#m1bfa761b06" x="1879.674305" y="77.156875" style="fill: #ff0000; stroke: #ff0000"/>
     <use xlink:href="#m1bfa761b06" x="1593.756909" y="390.105162" style="fill: #ff0000; stroke: #ff0000"/>
     <use xlink:href="#m1bfa761b06" x="1525.954949" y="459.149637" style="fill: #ff0000; stroke: #ff0000"/>
     <use xlink:href="#m1bfa761b06" x="1604.042444" y="412.595244" style="fill: #ff0000; stroke: #ff0000"/>
     <use xlink:href="#m1bfa761b06" x="1772.618956" y="223.014789" style="fill: #ff0000; stroke: #ff0000"/>
     <use xlink:href="#m1bfa761b06" x="1783.85001" y="237.244802" style="fill: #ff0000; stroke: #ff0000"/>
     <use xlink:href="#m1bfa761b06" x="1823.76452" y="142.898857" style="fill: #ff0000; stroke: #ff0000"/>
     <use xlink:href="#m1bfa761b06" x="1755.736259" y="272.43231" style="fill: #ff0000; stroke: #ff0000"/>
     <use xlink:href="#m1bfa761b06" x="1456.879646" y="528.224017" style="fill: #ff0000; stroke: #ff0000"/>
     <use xlink:href="#m1bfa761b06" x="1640.671566" y="336.28839" style="fill: #ff0000; stroke: #ff0000"/>
     <use xlink:href="#m1bfa761b06" x="1675.964018" y="246.583329" style="fill: #ff0000; stroke: #ff0000"/>
     <use xlink:href="#m1bfa761b06" x="1512.670888" y="485.716795" style="fill: #ff0000; stroke: #ff0000"/>
     <use xlink:href="#m1bfa761b06" x="1577.488113" y="405.652032" style="fill: #ff0000; stroke: #ff0000"/>
     <use xlink:href="#m1bfa761b06" x="1540.089014" y="476.730058" style="fill: #ff0000; stroke: #ff0000"/>
     <use xlink:href="#m1bfa761b06" x="1547.358555" y="419.656444" style="fill: #ff0000; stroke: #ff0000"/>
     <use xlink:href="#m1bfa761b06" x="1693.085953" y="298.345252" style="fill: #ff0000; stroke: #ff0000"/>
     <use xlink:href="#m1bfa761b06" x="1610.842397" y="388.857944" style="fill: #ff0000; stroke: #ff0000"/>
     <use xlink:href="#m1bfa761b06" x="1664.235056" y="366.736014" style="fill: #ff0000; stroke: #ff0000"/>
     <use xlink:href="#m1bfa761b06" x="1732.806859" y="261.103802" style="fill: #ff0000; stroke: #ff0000"/>
    </g>
   </g>
   <g id="patch_15">
    <path d="M 1430.452068 575.066875 
L 1430.452068 53.446875 
" style="fill: none; stroke: #000000; stroke-width: 0.8; stroke-linejoin: miter; stroke-linecap: square"/>
   </g>
   <g id="patch_16">
    <path d="M 1901.06584 575.066875 
L 1901.06584 53.446875 
" style="fill: none; stroke: #000000; stroke-width: 0.8; stroke-linejoin: miter; stroke-linecap: square"/>
   </g>
   <g id="patch_17">
    <path d="M 1430.452068 575.066875 
L 1901.06584 575.066875 
" style="fill: none; stroke: #000000; stroke-width: 0.8; stroke-linejoin: miter; stroke-linecap: square"/>
   </g>
   <g id="patch_18">
    <path d="M 1430.452068 53.446875 
L 1901.06584 53.446875 
" style="fill: none; stroke: #000000; stroke-width: 0.8; stroke-linejoin: miter; stroke-linecap: square"/>
   </g>
   <g id="text_60">
    <g id="patch_19">
     <path d="M 1460.140931 197.443096 
L 1903.660931 197.443096 
Q 1916.260931 197.443096 1916.260931 184.843096 
L 1916.260931 120.583096 
Q 1916.260931 107.983096 1903.660931 107.983096 
L 1460.140931 107.983096 
Q 1447.540931 107.983096 1447.540931 120.583096 
L 1447.540931 184.843096 
Q 1447.540931 197.443096 1460.140931 197.443096 
z
" style="fill: #ffffff; stroke: #000000; stroke-linejoin: miter"/>
    </g>
    <!-- $\frac {RMSE}{concentration\ range}$=0.0682 -->
    <g transform="translate(1460.140931 161.323096) scale(0.42 -0.42)">
     <defs>
      <path id="TimesNewRomanPS-BoldMT-36" d="M 3006 4325 
L 3006 4238 
Q 2441 4094 2098 3867 
Q 1756 3641 1557 3317 
Q 1359 2994 1250 2516 
Q 1388 2609 1478 2638 
Q 1681 2700 1888 2700 
Q 2363 2700 2680 2354 
Q 2997 2009 2997 1413 
Q 2997 994 2825 644 
Q 2653 294 2337 103 
Q 2022 -88 1663 -88 
Q 1272 -88 940 126 
Q 609 341 423 753 
Q 238 1166 238 1650 
Q 238 2363 580 2977 
Q 922 3591 1551 3955 
Q 2181 4319 3006 4325 
z
M 1209 2263 
Q 1184 1831 1184 1631 
Q 1184 1200 1267 797 
Q 1350 394 1494 231 
Q 1597 116 1738 116 
Q 1881 116 1993 283 
Q 2106 450 2106 963 
Q 2106 1825 1897 2153 
Q 1763 2366 1534 2366 
Q 1409 2366 1209 2263 
z
" transform="scale(0.015625)"/>
      <path id="TimesNewRomanPS-BoldMT-38" d="M 2181 2394 
Q 2628 2066 2801 1783 
Q 2975 1500 2975 1134 
Q 2975 622 2589 267 
Q 2203 -88 1541 -88 
Q 913 -88 569 221 
Q 225 531 225 978 
Q 225 1319 423 1575 
Q 622 1831 1084 2044 
Q 581 2428 439 2672 
Q 297 2916 297 3238 
Q 297 3663 658 3986 
Q 1019 4309 1647 4309 
Q 2253 4309 2579 4023 
Q 2906 3738 2906 3338 
Q 2906 3038 2729 2808 
Q 2553 2578 2181 2394 
z
M 1944 2553 
Q 2059 2709 2115 2903 
Q 2172 3097 2172 3328 
Q 2172 3734 1997 3950 
Q 1866 4116 1634 4116 
Q 1425 4116 1278 3964 
Q 1131 3813 1131 3588 
Q 1131 3359 1295 3114 
Q 1459 2869 1944 2553 
z
M 1319 1894 
Q 1222 1806 1181 1734 
Q 1119 1625 1069 1415 
Q 1019 1206 1019 978 
Q 1019 684 1094 486 
Q 1169 288 1308 200 
Q 1447 113 1594 113 
Q 1822 113 1978 280 
Q 2134 447 2134 738 
Q 2134 1344 1319 1894 
z
" transform="scale(0.015625)"/>
     </defs>
     <use xlink:href="#DejaVuSans-Oblique-52" transform="translate(257 45.046875) scale(0.7)"/>
     <use xlink:href="#DejaVuSans-Oblique-4d" transform="translate(305.637695 45.046875) scale(0.7)"/>
     <use xlink:href="#DejaVuSans-Oblique-53" transform="translate(366.033203 45.046875) scale(0.7)"/>
     <use xlink:href="#DejaVuSans-Oblique-45" transform="translate(410.466797 45.046875) scale(0.7)"/>
     <use xlink:href="#DejaVuSans-Oblique-63" transform="translate(0 -40.3875) scale(0.7)"/>
     <use xlink:href="#DejaVuSans-Oblique-6f" transform="translate(38.486328 -40.3875) scale(0.7)"/>
     <use xlink:href="#DejaVuSans-Oblique-6e" transform="translate(81.313477 -40.3875) scale(0.7)"/>
     <use xlink:href="#DejaVuSans-Oblique-63" transform="translate(125.678711 -40.3875) scale(0.7)"/>
     <use xlink:href="#DejaVuSans-Oblique-65" transform="translate(164.165039 -40.3875) scale(0.7)"/>
     <use xlink:href="#DejaVuSans-Oblique-6e" transform="translate(207.231445 -40.3875) scale(0.7)"/>
     <use xlink:href="#DejaVuSans-Oblique-74" transform="translate(251.59668 -40.3875) scale(0.7)"/>
     <use xlink:href="#DejaVuSans-Oblique-72" transform="translate(279.042969 -40.3875) scale(0.7)"/>
     <use xlink:href="#DejaVuSans-Oblique-61" transform="translate(307.822266 -40.3875) scale(0.7)"/>
     <use xlink:href="#DejaVuSans-Oblique-74" transform="translate(350.717773 -40.3875) scale(0.7)"/>
     <use xlink:href="#DejaVuSans-Oblique-69" transform="translate(378.164062 -40.3875) scale(0.7)"/>
     <use xlink:href="#DejaVuSans-Oblique-6f" transform="translate(397.612305 -40.3875) scale(0.7)"/>
     <use xlink:href="#DejaVuSans-Oblique-6e" transform="translate(440.439453 -40.3875) scale(0.7)"/>
     <use xlink:href="#DejaVuSans-Oblique-72" transform="translate(507.533952 -40.3875) scale(0.7)"/>
     <use xlink:href="#DejaVuSans-Oblique-61" transform="translate(536.313249 -40.3875) scale(0.7)"/>
     <use xlink:href="#DejaVuSans-Oblique-6e" transform="translate(579.208757 -40.3875) scale(0.7)"/>
     <use xlink:href="#DejaVuSans-Oblique-67" transform="translate(623.573991 -40.3875) scale(0.7)"/>
     <use xlink:href="#DejaVuSans-Oblique-65" transform="translate(668.007585 -40.3875) scale(0.7)"/>
     <use xlink:href="#TimesNewRomanPS-BoldMT-3d" transform="translate(723.573991 0.254688)"/>
     <use xlink:href="#TimesNewRomanPS-BoldMT-30" transform="translate(780.556413 0.254688)"/>
     <use xlink:href="#TimesNewRomanPS-BoldMT-2e" transform="translate(830.556413 0.254688)"/>
     <use xlink:href="#TimesNewRomanPS-BoldMT-30" transform="translate(855.556413 0.254688)"/>
     <use xlink:href="#TimesNewRomanPS-BoldMT-36" transform="translate(905.556413 0.254688)"/>
     <use xlink:href="#TimesNewRomanPS-BoldMT-38" transform="translate(955.556413 0.254688)"/>
     <use xlink:href="#TimesNewRomanPS-BoldMT-32" transform="translate(1005.556413 0.254688)"/>
     <path d="M 0 19.051563 
L 0 25.301563 
L 711.073991 25.301563 
L 711.073991 19.051563 
L 0 19.051563 
z
"/>
    </g>
   </g>
   <g id="text_61">
    <!-- tryptophane -->
    <g transform="translate(1558.289814 38.446875) scale(0.45 -0.45)">
     <defs>
      <path id="TimesNewRomanPSMT-70" d="M -6 2578 
L 875 2934 
L 994 2934 
L 994 2266 
Q 1216 2644 1439 2795 
Q 1663 2947 1909 2947 
Q 2341 2947 2628 2609 
Q 2981 2197 2981 1534 
Q 2981 794 2556 309 
Q 2206 -88 1675 -88 
Q 1444 -88 1275 -22 
Q 1150 25 994 166 
L 994 -706 
Q 994 -1000 1030 -1079 
Q 1066 -1159 1155 -1206 
Q 1244 -1253 1478 -1253 
L 1478 -1369 
L -22 -1369 
L -22 -1253 
L 56 -1253 
Q 228 -1256 350 -1188 
Q 409 -1153 442 -1076 
Q 475 -1000 475 -688 
L 475 2019 
Q 475 2297 450 2372 
Q 425 2447 370 2484 
Q 316 2522 222 2522 
Q 147 2522 31 2478 
L -6 2578 
z
M 994 2081 
L 994 1013 
Q 994 666 1022 556 
Q 1066 375 1236 237 
Q 1406 100 1666 100 
Q 1978 100 2172 344 
Q 2425 663 2425 1241 
Q 2425 1897 2138 2250 
Q 1938 2494 1663 2494 
Q 1513 2494 1366 2419 
Q 1253 2363 994 2081 
z
" transform="scale(0.015625)"/>
     </defs>
     <use xlink:href="#TimesNewRomanPSMT-74"/>
     <use xlink:href="#TimesNewRomanPSMT-72" x="27.783203"/>
     <use xlink:href="#TimesNewRomanPSMT-79" x="61.083984"/>
     <use xlink:href="#TimesNewRomanPSMT-70" x="111.083984"/>
     <use xlink:href="#TimesNewRomanPSMT-74" x="161.083984"/>
     <use xlink:href="#TimesNewRomanPSMT-6f" x="188.867188"/>
     <use xlink:href="#TimesNewRomanPSMT-70" x="238.867188"/>
     <use xlink:href="#TimesNewRomanPSMT-68" x="288.867188"/>
     <use xlink:href="#TimesNewRomanPSMT-61" x="338.867188"/>
     <use xlink:href="#TimesNewRomanPSMT-6e" x="383.251953"/>
     <use xlink:href="#TimesNewRomanPSMT-65" x="433.251953"/>
    </g>
   </g>
  </g>
 </g>
 <defs>
  <clipPath id="p7978011bf1">
   <rect x="103.847813" y="53.446875" width="470.613772" height="521.62"/>
  </clipPath>
  <clipPath id="p72793b5b8f">
   <rect x="767.14994" y="53.446875" width="470.613772" height="521.62"/>
  </clipPath>
  <clipPath id="p4a50075247">
   <rect x="1430.452068" y="53.446875" width="470.613772" height="521.62"/>
  </clipPath>
 </defs>
</svg>
