<?xml version="1.0" encoding="utf-8" standalone="no"?>
<!DOCTYPE svg PUBLIC "-//W3C//DTD SVG 1.1//EN"
  "http://www.w3.org/Graphics/SVG/1.1/DTD/svg11.dtd">
<svg xmlns:xlink="http://www.w3.org/1999/xlink" width="880.418605pt" height="565.519375pt" viewBox="0 0 880.418605 565.519375" xmlns="http://www.w3.org/2000/svg" version="1.1">
 <metadata>
  <rdf:RDF xmlns:dc="http://purl.org/dc/elements/1.1/" xmlns:cc="http://creativecommons.org/ns#" xmlns:rdf="http://www.w3.org/1999/02/22-rdf-syntax-ns#">
   <cc:Work>
    <dc:type rdf:resource="http://purl.org/dc/dcmitype/StillImage"/>
    <dc:date>2024-04-22T18:30:40.856242</dc:date>
    <dc:format>image/svg+xml</dc:format>
    <dc:creator>
     <cc:Agent>
      <dc:title>Matplotlib v3.8.0, https://matplotlib.org/</dc:title>
     </cc:Agent>
    </dc:creator>
   </cc:Work>
  </rdf:RDF>
 </metadata>
 <defs>
  <style type="text/css">*{stroke-linejoin: round; stroke-linecap: butt}</style>
 </defs>
 <g id="figure_1">
  <g id="patch_1">
   <path d="M 0 565.519375 
L 880.418605 565.519375 
L 880.418605 0 
L 0 0 
z
" style="fill: #ffffff"/>
  </g>
  <g id="axes_1">
   <g id="patch_2">
    <path d="M 78.2 444.065 
L 394.532211 444.065 
L 394.532211 49.975 
L 78.2 49.975 
z
" style="fill: #ffffff"/>
   </g>
   <g id="matplotlib.axis_1">
    <g id="xtick_1">
     <g id="line2d_1">
      <path d="M 133.660842 444.065 
L 133.660842 49.975 
" clip-path="url(#pc0f90e4d84)" style="fill: none; stroke: #000000; stroke-width: 0.7; stroke-linecap: square"/>
     </g>
     <g id="line2d_2">
      <defs>
       <path id="m2834c37b3d" d="M 0 0 
L 0 -10 
" style="stroke: #000000; stroke-width: 2"/>
      </defs>
      <g>
       <use xlink:href="#m2834c37b3d" x="133.660842" y="444.065" style="stroke: #000000; stroke-width: 2"/>
      </g>
     </g>
     <g id="text_1">
      <!-- 300 -->
      <g transform="translate(111.160842 468.39625) scale(0.3 -0.3)">
       <defs>
        <path id="TimesNewRomanPSMT-33" d="M 325 3431 
Q 506 3859 782 4092 
Q 1059 4325 1472 4325 
Q 1981 4325 2253 3994 
Q 2459 3747 2459 3466 
Q 2459 3003 1878 2509 
Q 2269 2356 2469 2072 
Q 2669 1788 2669 1403 
Q 2669 853 2319 450 
Q 1863 -75 997 -75 
Q 569 -75 414 31 
Q 259 138 259 259 
Q 259 350 332 419 
Q 406 488 509 488 
Q 588 488 669 463 
Q 722 447 909 348 
Q 1097 250 1169 231 
Q 1284 197 1416 197 
Q 1734 197 1970 444 
Q 2206 691 2206 1028 
Q 2206 1275 2097 1509 
Q 2016 1684 1919 1775 
Q 1784 1900 1550 2001 
Q 1316 2103 1072 2103 
L 972 2103 
L 972 2197 
Q 1219 2228 1467 2375 
Q 1716 2522 1828 2728 
Q 1941 2934 1941 3181 
Q 1941 3503 1739 3701 
Q 1538 3900 1238 3900 
Q 753 3900 428 3381 
L 325 3431 
z
" transform="scale(0.015625)"/>
        <path id="TimesNewRomanPSMT-30" d="M 231 2094 
Q 231 2819 450 3342 
Q 669 3866 1031 4122 
Q 1313 4325 1613 4325 
Q 2100 4325 2488 3828 
Q 2972 3213 2972 2159 
Q 2972 1422 2759 906 
Q 2547 391 2217 158 
Q 1888 -75 1581 -75 
Q 975 -75 572 641 
Q 231 1244 231 2094 
z
M 844 2016 
Q 844 1141 1059 588 
Q 1238 122 1591 122 
Q 1759 122 1940 273 
Q 2122 425 2216 781 
Q 2359 1319 2359 2297 
Q 2359 3022 2209 3506 
Q 2097 3866 1919 4016 
Q 1791 4119 1609 4119 
Q 1397 4119 1231 3928 
Q 1006 3669 925 3112 
Q 844 2556 844 2016 
z
" transform="scale(0.015625)"/>
       </defs>
       <use xlink:href="#TimesNewRomanPSMT-33"/>
       <use xlink:href="#TimesNewRomanPSMT-30" x="50"/>
       <use xlink:href="#TimesNewRomanPSMT-30" x="100"/>
      </g>
     </g>
    </g>
    <g id="xtick_2">
     <g id="line2d_3">
      <path d="M 215.825053 444.065 
L 215.825053 49.975 
" clip-path="url(#pc0f90e4d84)" style="fill: none; stroke: #000000; stroke-width: 0.7; stroke-linecap: square"/>
     </g>
     <g id="line2d_4">
      <g>
       <use xlink:href="#m2834c37b3d" x="215.825053" y="444.065" style="stroke: #000000; stroke-width: 2"/>
      </g>
     </g>
     <g id="text_2">
      <!-- 400 -->
      <g transform="translate(193.325053 468.39625) scale(0.3 -0.3)">
       <defs>
        <path id="TimesNewRomanPSMT-34" d="M 2978 1563 
L 2978 1119 
L 2409 1119 
L 2409 0 
L 1894 0 
L 1894 1119 
L 100 1119 
L 100 1519 
L 2066 4325 
L 2409 4325 
L 2409 1563 
L 2978 1563 
z
M 1894 1563 
L 1894 3666 
L 406 1563 
L 1894 1563 
z
" transform="scale(0.015625)"/>
       </defs>
       <use xlink:href="#TimesNewRomanPSMT-34"/>
       <use xlink:href="#TimesNewRomanPSMT-30" x="50"/>
       <use xlink:href="#TimesNewRomanPSMT-30" x="100"/>
      </g>
     </g>
    </g>
    <g id="xtick_3">
     <g id="line2d_5">
      <path d="M 297.989263 444.065 
L 297.989263 49.975 
" clip-path="url(#pc0f90e4d84)" style="fill: none; stroke: #000000; stroke-width: 0.7; stroke-linecap: square"/>
     </g>
     <g id="line2d_6">
      <g>
       <use xlink:href="#m2834c37b3d" x="297.989263" y="444.065" style="stroke: #000000; stroke-width: 2"/>
      </g>
     </g>
     <g id="text_3">
      <!-- 500 -->
      <g transform="translate(275.489263 468.39625) scale(0.3 -0.3)">
       <defs>
        <path id="TimesNewRomanPSMT-35" d="M 2778 4238 
L 2534 3706 
L 1259 3706 
L 981 3138 
Q 1809 3016 2294 2522 
Q 2709 2097 2709 1522 
Q 2709 1188 2573 903 
Q 2438 619 2231 419 
Q 2025 219 1772 97 
Q 1413 -75 1034 -75 
Q 653 -75 479 54 
Q 306 184 306 341 
Q 306 428 378 495 
Q 450 563 559 563 
Q 641 563 702 538 
Q 763 513 909 409 
Q 1144 247 1384 247 
Q 1750 247 2026 523 
Q 2303 800 2303 1197 
Q 2303 1581 2056 1914 
Q 1809 2247 1375 2428 
Q 1034 2569 447 2591 
L 1259 4238 
L 2778 4238 
z
" transform="scale(0.015625)"/>
       </defs>
       <use xlink:href="#TimesNewRomanPSMT-35"/>
       <use xlink:href="#TimesNewRomanPSMT-30" x="50"/>
       <use xlink:href="#TimesNewRomanPSMT-30" x="100"/>
      </g>
     </g>
    </g>
    <g id="xtick_4">
     <g id="line2d_7">
      <path d="M 380.153474 444.065 
L 380.153474 49.975 
" clip-path="url(#pc0f90e4d84)" style="fill: none; stroke: #000000; stroke-width: 0.7; stroke-linecap: square"/>
     </g>
     <g id="line2d_8">
      <g>
       <use xlink:href="#m2834c37b3d" x="380.153474" y="444.065" style="stroke: #000000; stroke-width: 2"/>
      </g>
     </g>
     <g id="text_4">
      <!-- 600 -->
      <g transform="translate(357.653474 468.39625) scale(0.3 -0.3)">
       <defs>
        <path id="TimesNewRomanPSMT-36" d="M 2869 4325 
L 2869 4209 
Q 2456 4169 2195 4045 
Q 1934 3922 1679 3669 
Q 1425 3416 1258 3105 
Q 1091 2794 978 2366 
Q 1428 2675 1881 2675 
Q 2316 2675 2634 2325 
Q 2953 1975 2953 1425 
Q 2953 894 2631 456 
Q 2244 -75 1606 -75 
Q 1172 -75 869 213 
Q 275 772 275 1663 
Q 275 2231 503 2743 
Q 731 3256 1154 3653 
Q 1578 4050 1965 4187 
Q 2353 4325 2688 4325 
L 2869 4325 
z
M 925 2138 
Q 869 1716 869 1456 
Q 869 1156 980 804 
Q 1091 453 1309 247 
Q 1469 100 1697 100 
Q 1969 100 2183 356 
Q 2397 613 2397 1088 
Q 2397 1622 2184 2012 
Q 1972 2403 1581 2403 
Q 1463 2403 1327 2353 
Q 1191 2303 925 2138 
z
" transform="scale(0.015625)"/>
       </defs>
       <use xlink:href="#TimesNewRomanPSMT-36"/>
       <use xlink:href="#TimesNewRomanPSMT-30" x="50"/>
       <use xlink:href="#TimesNewRomanPSMT-30" x="100"/>
      </g>
     </g>
    </g>
    <g id="text_5">
     <!-- длины волны  -->
     <g transform="translate(132.971183 514.116562) scale(0.35 -0.35)">
      <defs>
       <path id="TimesNewRomanPSMT-434" d="M 591 2863 
L 3116 2863 
L 3116 2744 
Q 2903 2744 2833 2701 
Q 2763 2659 2722 2596 
Q 2681 2534 2681 2191 
L 2681 775 
Q 2681 328 2757 226 
Q 2834 125 3116 116 
L 3116 -794 
L 2997 -794 
Q 2984 -538 2870 -347 
Q 2756 -156 2553 -78 
Q 2350 0 1953 0 
L 1216 0 
Q 872 0 678 -61 
Q 484 -122 354 -315 
Q 225 -509 197 -794 
L 81 -794 
L 81 116 
Q 338 125 547 319 
Q 756 513 915 1078 
Q 1075 1644 1075 2191 
Q 1075 2728 591 2744 
L 591 2863 
z
M 1281 2659 
L 1281 2488 
Q 1281 953 725 203 
L 1788 203 
Q 2075 203 2119 251 
Q 2163 300 2163 609 
L 2163 2659 
L 1281 2659 
z
" transform="scale(0.015625)"/>
       <path id="TimesNewRomanPSMT-43b" d="M 494 2863 
L 3053 2863 
L 3053 2744 
Q 2841 2744 2770 2701 
Q 2700 2659 2659 2596 
Q 2619 2534 2619 2191 
L 2619 672 
Q 2619 341 2653 277 
Q 2688 213 2761 164 
Q 2834 116 3053 116 
L 3053 0 
L 1572 0 
L 1572 116 
Q 1813 116 1905 141 
Q 1997 166 2050 261 
Q 2103 356 2103 672 
L 2103 2659 
L 1150 2659 
L 1150 1453 
Q 1150 769 1089 492 
Q 1028 216 848 83 
Q 669 -50 438 -50 
Q 38 -50 38 281 
Q 38 394 102 466 
Q 166 538 269 538 
Q 378 538 472 447 
Q 594 328 656 328 
Q 797 328 861 564 
Q 925 800 925 1391 
L 925 2022 
Q 925 2509 854 2615 
Q 784 2722 494 2744 
L 494 2863 
z
" transform="scale(0.015625)"/>
       <path id="TimesNewRomanPSMT-438" d="M 1094 881 
L 2331 2313 
Q 2325 2553 2240 2647 
Q 2156 2741 1950 2744 
L 1950 2863 
L 3281 2863 
L 3281 2744 
Q 3072 2744 3000 2701 
Q 2928 2659 2887 2596 
Q 2847 2534 2847 2191 
L 2847 672 
Q 2847 341 2881 277 
Q 2916 213 2989 164 
Q 3063 116 3281 116 
L 3281 0 
L 1897 0 
L 1897 116 
Q 2156 116 2243 211 
Q 2331 306 2331 672 
L 2331 2019 
L 1094 584 
Q 1100 319 1169 219 
Q 1238 119 1466 116 
L 1466 0 
L 144 0 
L 144 116 
Q 422 116 500 217 
Q 578 319 578 672 
L 578 2191 
Q 578 2525 543 2586 
Q 509 2647 437 2695 
Q 366 2744 144 2744 
L 144 2863 
L 1528 2863 
L 1528 2744 
Q 1319 2744 1247 2701 
Q 1175 2659 1134 2596 
Q 1094 2534 1094 2191 
L 1094 881 
z
" transform="scale(0.015625)"/>
       <path id="TimesNewRomanPSMT-43d" d="M 1094 1584 
L 2331 1584 
L 2331 2191 
Q 2331 2463 2309 2545 
Q 2288 2628 2202 2686 
Q 2116 2744 1897 2744 
L 1897 2863 
L 3281 2863 
L 3281 2744 
Q 3088 2744 2998 2700 
Q 2909 2656 2878 2573 
Q 2847 2491 2847 2191 
L 2847 672 
Q 2847 400 2870 312 
Q 2894 225 2984 170 
Q 3075 116 3281 116 
L 3281 0 
L 1897 0 
L 1897 116 
Q 2156 116 2243 211 
Q 2331 306 2331 672 
L 2331 1381 
L 1094 1381 
L 1094 672 
Q 1094 400 1117 312 
Q 1141 225 1231 170 
Q 1322 116 1528 116 
L 1528 0 
L 144 0 
L 144 116 
Q 422 116 500 217 
Q 578 319 578 672 
L 578 2191 
Q 578 2463 554 2550 
Q 531 2638 440 2691 
Q 350 2744 144 2744 
L 144 2863 
L 1528 2863 
L 1528 2744 
Q 1334 2744 1245 2700 
Q 1156 2656 1125 2573 
Q 1094 2491 1094 2191 
L 1094 1584 
z
" transform="scale(0.015625)"/>
       <path id="TimesNewRomanPSMT-44b" d="M 2716 2744 
L 2716 2863 
L 4156 2863 
L 4156 2744 
Q 3966 2744 3878 2703 
Q 3791 2663 3758 2578 
Q 3725 2494 3725 2191 
L 3725 672 
Q 3725 378 3753 292 
Q 3781 206 3873 161 
Q 3966 116 4156 116 
L 4156 0 
L 2716 0 
L 2716 116 
Q 2959 125 3032 148 
Q 3106 172 3156 269 
Q 3206 366 3206 672 
L 3206 2191 
Q 3206 2494 3172 2581 
Q 3138 2669 3052 2705 
Q 2966 2741 2716 2744 
z
M 1091 1588 
L 1447 1594 
Q 2722 1594 2722 806 
Q 2722 441 2411 220 
Q 2100 0 1516 0 
L 141 0 
L 141 116 
Q 419 116 497 217 
Q 575 319 575 672 
L 575 2191 
Q 575 2525 540 2586 
Q 506 2647 434 2695 
Q 363 2744 141 2744 
L 141 2863 
L 1638 2863 
L 1638 2744 
Q 1328 2744 1256 2708 
Q 1184 2672 1137 2614 
Q 1091 2556 1091 2191 
L 1091 1588 
z
M 1091 247 
Q 1256 203 1422 203 
Q 1734 203 1929 368 
Q 2125 534 2125 788 
Q 2125 1388 1291 1388 
Q 1219 1388 1091 1384 
L 1091 247 
z
" transform="scale(0.015625)"/>
       <path id="TimesNewRomanPSMT-20" transform="scale(0.015625)"/>
       <path id="TimesNewRomanPSMT-432" d="M 2016 1513 
Q 2800 1350 2800 778 
Q 2800 388 2473 194 
Q 2147 0 1563 0 
L 150 0 
L 150 116 
Q 428 116 501 220 
Q 575 325 575 672 
L 575 2191 
Q 575 2528 542 2587 
Q 509 2647 439 2695 
Q 369 2744 150 2744 
L 150 2863 
L 1469 2863 
Q 1850 2863 2086 2803 
Q 2322 2744 2473 2569 
Q 2625 2394 2625 2144 
Q 2625 1656 2016 1513 
z
M 1094 1584 
Q 1231 1581 1259 1581 
Q 1688 1581 1878 1745 
Q 2069 1909 2069 2144 
Q 2069 2416 1875 2537 
Q 1681 2659 1256 2659 
L 1094 2659 
L 1094 1584 
z
M 1094 253 
Q 1250 203 1466 203 
Q 1838 203 2019 365 
Q 2200 528 2200 784 
Q 2200 1072 1965 1225 
Q 1731 1378 1316 1378 
Q 1213 1378 1094 1372 
L 1094 253 
z
" transform="scale(0.015625)"/>
       <path id="TimesNewRomanPSMT-43e" d="M 1600 2947 
Q 2250 2947 2644 2453 
Q 2978 2031 2978 1484 
Q 2978 1100 2793 706 
Q 2609 313 2286 112 
Q 1963 -88 1566 -88 
Q 919 -88 538 428 
Q 216 863 216 1403 
Q 216 1797 411 2186 
Q 606 2575 925 2761 
Q 1244 2947 1600 2947 
z
M 1503 2744 
Q 1338 2744 1170 2645 
Q 1003 2547 900 2300 
Q 797 2053 797 1666 
Q 797 1041 1045 587 
Q 1294 134 1700 134 
Q 2003 134 2200 384 
Q 2397 634 2397 1244 
Q 2397 2006 2069 2444 
Q 1847 2744 1503 2744 
z
" transform="scale(0.015625)"/>
      </defs>
      <use xlink:href="#TimesNewRomanPSMT-434"/>
      <use xlink:href="#TimesNewRomanPSMT-43b" x="50.878906"/>
      <use xlink:href="#TimesNewRomanPSMT-438" x="100.78125"/>
      <use xlink:href="#TimesNewRomanPSMT-43d" x="154.296875"/>
      <use xlink:href="#TimesNewRomanPSMT-44b" x="207.8125"/>
      <use xlink:href="#TimesNewRomanPSMT-20" x="275"/>
      <use xlink:href="#TimesNewRomanPSMT-432" x="300"/>
      <use xlink:href="#TimesNewRomanPSMT-43e" x="346.591797"/>
      <use xlink:href="#TimesNewRomanPSMT-43b" x="395.216797"/>
      <use xlink:href="#TimesNewRomanPSMT-43d" x="445.119141"/>
      <use xlink:href="#TimesNewRomanPSMT-44b" x="498.634766"/>
      <use xlink:href="#TimesNewRomanPSMT-20" x="565.822266"/>
     </g>
     <!-- регистрации, нм -->
     <g transform="translate(113.866105 550.767031) scale(0.35 -0.35)">
      <defs>
       <path id="TimesNewRomanPSMT-440" d="M -6 2578 
L 875 2934 
L 994 2934 
L 994 2266 
Q 1216 2644 1439 2795 
Q 1663 2947 1909 2947 
Q 2341 2947 2628 2609 
Q 2981 2197 2981 1534 
Q 2981 794 2556 309 
Q 2206 -88 1675 -88 
Q 1444 -88 1275 -22 
Q 1150 25 994 166 
L 994 -706 
Q 994 -1000 1030 -1079 
Q 1066 -1159 1155 -1206 
Q 1244 -1253 1478 -1253 
L 1478 -1369 
L -22 -1369 
L -22 -1253 
L 56 -1253 
Q 228 -1256 350 -1188 
Q 409 -1153 442 -1076 
Q 475 -1000 475 -688 
L 475 2019 
Q 475 2297 450 2372 
Q 425 2447 370 2484 
Q 316 2522 222 2522 
Q 147 2522 31 2478 
L -6 2578 
z
M 994 2081 
L 994 1013 
Q 994 666 1022 556 
Q 1066 375 1236 237 
Q 1406 100 1666 100 
Q 1978 100 2172 344 
Q 2425 663 2425 1241 
Q 2425 1897 2138 2250 
Q 1938 2494 1663 2494 
Q 1513 2494 1366 2419 
Q 1253 2363 994 2081 
z
" transform="scale(0.015625)"/>
       <path id="TimesNewRomanPSMT-435" d="M 681 1784 
Q 678 1147 991 784 
Q 1303 422 1725 422 
Q 2006 422 2214 576 
Q 2422 731 2563 1106 
L 2659 1044 
Q 2594 616 2278 264 
Q 1963 -88 1488 -88 
Q 972 -88 605 314 
Q 238 716 238 1394 
Q 238 2128 614 2539 
Q 991 2950 1559 2950 
Q 2041 2950 2350 2633 
Q 2659 2316 2659 1784 
L 681 1784 
z
M 681 1966 
L 2006 1966 
Q 1991 2241 1941 2353 
Q 1863 2528 1708 2628 
Q 1553 2728 1384 2728 
Q 1125 2728 920 2526 
Q 716 2325 681 1966 
z
" transform="scale(0.015625)"/>
       <path id="TimesNewRomanPSMT-433" d="M 2469 2863 
L 2584 2081 
L 2447 2081 
Q 2328 2469 2208 2564 
Q 2088 2659 1700 2659 
L 1094 2659 
L 1094 672 
Q 1094 341 1128 277 
Q 1163 213 1236 164 
Q 1309 116 1528 116 
L 1528 0 
L 97 0 
L 97 116 
Q 403 122 490 211 
Q 578 300 578 672 
L 578 2191 
Q 578 2494 543 2580 
Q 509 2666 423 2703 
Q 338 2741 97 2744 
L 97 2863 
L 2469 2863 
z
" transform="scale(0.015625)"/>
       <path id="TimesNewRomanPSMT-441" d="M 2631 1088 
Q 2516 522 2178 217 
Q 1841 -88 1431 -88 
Q 944 -88 581 321 
Q 219 731 219 1428 
Q 219 2103 620 2525 
Q 1022 2947 1584 2947 
Q 2006 2947 2278 2723 
Q 2550 2500 2550 2259 
Q 2550 2141 2473 2067 
Q 2397 1994 2259 1994 
Q 2075 1994 1981 2113 
Q 1928 2178 1911 2362 
Q 1894 2547 1784 2644 
Q 1675 2738 1481 2738 
Q 1169 2738 978 2506 
Q 725 2200 725 1697 
Q 725 1184 976 792 
Q 1228 400 1656 400 
Q 1963 400 2206 609 
Q 2378 753 2541 1131 
L 2631 1088 
z
" transform="scale(0.015625)"/>
       <path id="TimesNewRomanPSMT-442" d="M 156 2863 
L 2631 2863 
L 2756 2088 
L 2616 2088 
Q 2578 2322 2490 2450 
Q 2403 2578 2290 2618 
Q 2178 2659 1906 2659 
L 1656 2659 
L 1656 672 
Q 1656 353 1695 267 
Q 1734 181 1821 153 
Q 1909 125 2222 116 
L 2222 0 
L 666 0 
L 666 116 
Q 966 122 1052 212 
Q 1138 303 1138 672 
L 1138 2659 
L 881 2659 
Q 613 2659 516 2626 
Q 419 2594 330 2470 
Q 241 2347 178 2088 
L 38 2088 
L 156 2863 
z
" transform="scale(0.015625)"/>
       <path id="TimesNewRomanPSMT-430" d="M 1822 413 
Q 1381 72 1269 19 
Q 1100 -59 909 -59 
Q 613 -59 420 144 
Q 228 347 228 678 
Q 228 888 322 1041 
Q 450 1253 767 1440 
Q 1084 1628 1822 1897 
L 1822 2009 
Q 1822 2438 1686 2597 
Q 1550 2756 1291 2756 
Q 1094 2756 978 2650 
Q 859 2544 859 2406 
L 866 2225 
Q 866 2081 792 2003 
Q 719 1925 600 1925 
Q 484 1925 411 2006 
Q 338 2088 338 2228 
Q 338 2497 613 2722 
Q 888 2947 1384 2947 
Q 1766 2947 2009 2819 
Q 2194 2722 2281 2516 
Q 2338 2381 2338 1966 
L 2338 994 
Q 2338 584 2353 492 
Q 2369 400 2405 369 
Q 2441 338 2488 338 
Q 2538 338 2575 359 
Q 2641 400 2828 588 
L 2828 413 
Q 2478 -56 2159 -56 
Q 2006 -56 1915 50 
Q 1825 156 1822 413 
z
M 1822 616 
L 1822 1706 
Q 1350 1519 1213 1441 
Q 966 1303 859 1153 
Q 753 1003 753 825 
Q 753 600 887 451 
Q 1022 303 1197 303 
Q 1434 303 1822 616 
z
" transform="scale(0.015625)"/>
       <path id="TimesNewRomanPSMT-446" d="M 3281 116 
L 3281 -794 
L 3166 -794 
Q 3156 -428 2926 -214 
Q 2697 0 2094 0 
L 144 0 
L 144 116 
Q 422 116 500 217 
Q 578 319 578 672 
L 578 2191 
Q 578 2525 543 2586 
Q 509 2647 437 2695 
Q 366 2744 144 2744 
L 144 2863 
L 1528 2863 
L 1528 2744 
Q 1319 2744 1247 2701 
Q 1175 2659 1134 2596 
Q 1094 2534 1094 2191 
L 1094 575 
Q 1094 303 1142 253 
Q 1191 203 1453 203 
L 1959 203 
Q 2250 203 2290 256 
Q 2331 309 2331 600 
L 2331 2191 
Q 2331 2488 2300 2573 
Q 2269 2659 2178 2701 
Q 2088 2744 1897 2744 
L 1897 2863 
L 3281 2863 
L 3281 2744 
Q 3072 2744 3000 2701 
Q 2928 2659 2887 2596 
Q 2847 2534 2847 2191 
L 2847 719 
Q 2847 316 2919 222 
Q 2991 128 3281 116 
z
" transform="scale(0.015625)"/>
       <path id="TimesNewRomanPSMT-2c" d="M 344 -1066 
L 344 -928 
Q 666 -822 842 -598 
Q 1019 -375 1019 -125 
Q 1019 -66 991 -25 
Q 969 3 947 3 
Q 913 3 797 -59 
Q 741 -88 678 -88 
Q 525 -88 434 3 
Q 344 94 344 253 
Q 344 406 461 515 
Q 578 625 747 625 
Q 953 625 1114 445 
Q 1275 266 1275 -31 
Q 1275 -353 1051 -629 
Q 828 -906 344 -1066 
z
" transform="scale(0.015625)"/>
       <path id="TimesNewRomanPSMT-43c" d="M 2050 747 
L 2944 2863 
L 3909 2863 
L 3909 2744 
Q 3697 2744 3626 2701 
Q 3556 2659 3515 2596 
Q 3475 2534 3475 2191 
L 3475 672 
Q 3475 375 3504 289 
Q 3534 203 3626 159 
Q 3719 116 3909 116 
L 3909 0 
L 2525 0 
L 2525 116 
Q 2781 116 2868 211 
Q 2956 306 2956 672 
L 2956 2394 
L 1944 0 
L 1834 0 
L 803 2394 
L 803 672 
Q 803 375 834 289 
Q 866 203 956 159 
Q 1047 116 1238 116 
L 1238 0 
L 144 0 
L 144 116 
Q 422 116 500 217 
Q 578 319 578 672 
L 578 2191 
Q 578 2525 543 2586 
Q 509 2647 437 2695 
Q 366 2744 144 2744 
L 144 2863 
L 1150 2863 
L 2050 747 
z
" transform="scale(0.015625)"/>
      </defs>
      <use xlink:href="#TimesNewRomanPSMT-440"/>
      <use xlink:href="#TimesNewRomanPSMT-435" x="50"/>
      <use xlink:href="#TimesNewRomanPSMT-433" x="94.384766"/>
      <use xlink:href="#TimesNewRomanPSMT-438" x="135.400391"/>
      <use xlink:href="#TimesNewRomanPSMT-441" x="188.916016"/>
      <use xlink:href="#TimesNewRomanPSMT-442" x="233.300781"/>
      <use xlink:href="#TimesNewRomanPSMT-440" x="278.251953"/>
      <use xlink:href="#TimesNewRomanPSMT-430" x="328.251953"/>
      <use xlink:href="#TimesNewRomanPSMT-446" x="372.636719"/>
      <use xlink:href="#TimesNewRomanPSMT-438" x="426.152344"/>
      <use xlink:href="#TimesNewRomanPSMT-438" x="479.667969"/>
      <use xlink:href="#TimesNewRomanPSMT-2c" x="533.183594"/>
      <use xlink:href="#TimesNewRomanPSMT-20" x="558.183594"/>
      <use xlink:href="#TimesNewRomanPSMT-43d" x="583.183594"/>
      <use xlink:href="#TimesNewRomanPSMT-43c" x="636.699219"/>
     </g>
    </g>
   </g>
   <g id="matplotlib.axis_2">
    <g id="ytick_1">
     <g id="line2d_9">
      <path d="M 78.2 426.151818 
L 394.532211 426.151818 
" clip-path="url(#pc0f90e4d84)" style="fill: none; stroke: #000000; stroke-width: 0.7; stroke-linecap: square"/>
     </g>
     <g id="line2d_10">
      <defs>
       <path id="mb0422befa6" d="M 0 0 
L 10 0 
" style="stroke: #000000; stroke-width: 2"/>
      </defs>
      <g>
       <use xlink:href="#mb0422befa6" x="78.2" y="426.151818" style="stroke: #000000; stroke-width: 2"/>
      </g>
     </g>
     <g id="text_6">
      <!-- 0.000 -->
      <g transform="translate(7.2 436.567443) scale(0.3 -0.3)">
       <defs>
        <path id="TimesNewRomanPSMT-2e" d="M 800 606 
Q 947 606 1047 504 
Q 1147 403 1147 259 
Q 1147 116 1045 14 
Q 944 -88 800 -88 
Q 656 -88 554 14 
Q 453 116 453 259 
Q 453 406 554 506 
Q 656 606 800 606 
z
" transform="scale(0.015625)"/>
       </defs>
       <use xlink:href="#TimesNewRomanPSMT-30"/>
       <use xlink:href="#TimesNewRomanPSMT-2e" x="50"/>
       <use xlink:href="#TimesNewRomanPSMT-30" x="75"/>
       <use xlink:href="#TimesNewRomanPSMT-30" x="125"/>
       <use xlink:href="#TimesNewRomanPSMT-30" x="175"/>
      </g>
     </g>
    </g>
    <g id="ytick_2">
     <g id="line2d_11">
      <path d="M 78.2 336.348442 
L 394.532211 336.348442 
" clip-path="url(#pc0f90e4d84)" style="fill: none; stroke: #000000; stroke-width: 0.7; stroke-linecap: square"/>
     </g>
     <g id="line2d_12">
      <g>
       <use xlink:href="#mb0422befa6" x="78.2" y="336.348442" style="stroke: #000000; stroke-width: 2"/>
      </g>
     </g>
     <g id="text_7">
      <!-- 0.005 -->
      <g transform="translate(7.2 346.764067) scale(0.3 -0.3)">
       <use xlink:href="#TimesNewRomanPSMT-30"/>
       <use xlink:href="#TimesNewRomanPSMT-2e" x="50"/>
       <use xlink:href="#TimesNewRomanPSMT-30" x="75"/>
       <use xlink:href="#TimesNewRomanPSMT-30" x="125"/>
       <use xlink:href="#TimesNewRomanPSMT-35" x="175"/>
      </g>
     </g>
    </g>
    <g id="ytick_3">
     <g id="line2d_13">
      <path d="M 78.2 246.545066 
L 394.532211 246.545066 
" clip-path="url(#pc0f90e4d84)" style="fill: none; stroke: #000000; stroke-width: 0.7; stroke-linecap: square"/>
     </g>
     <g id="line2d_14">
      <g>
       <use xlink:href="#mb0422befa6" x="78.2" y="246.545066" style="stroke: #000000; stroke-width: 2"/>
      </g>
     </g>
     <g id="text_8">
      <!-- 0.010 -->
      <g transform="translate(7.2 256.960691) scale(0.3 -0.3)">
       <defs>
        <path id="TimesNewRomanPSMT-31" d="M 750 3822 
L 1781 4325 
L 1884 4325 
L 1884 747 
Q 1884 391 1914 303 
Q 1944 216 2037 169 
Q 2131 122 2419 116 
L 2419 0 
L 825 0 
L 825 116 
Q 1125 122 1212 167 
Q 1300 213 1334 289 
Q 1369 366 1369 747 
L 1369 3034 
Q 1369 3497 1338 3628 
Q 1316 3728 1258 3775 
Q 1200 3822 1119 3822 
Q 1003 3822 797 3725 
L 750 3822 
z
" transform="scale(0.015625)"/>
       </defs>
       <use xlink:href="#TimesNewRomanPSMT-30"/>
       <use xlink:href="#TimesNewRomanPSMT-2e" x="50"/>
       <use xlink:href="#TimesNewRomanPSMT-30" x="75"/>
       <use xlink:href="#TimesNewRomanPSMT-31" x="125"/>
       <use xlink:href="#TimesNewRomanPSMT-30" x="175"/>
      </g>
     </g>
    </g>
    <g id="ytick_4">
     <g id="line2d_15">
      <path d="M 78.2 156.74169 
L 394.532211 156.74169 
" clip-path="url(#pc0f90e4d84)" style="fill: none; stroke: #000000; stroke-width: 0.7; stroke-linecap: square"/>
     </g>
     <g id="line2d_16">
      <g>
       <use xlink:href="#mb0422befa6" x="78.2" y="156.74169" style="stroke: #000000; stroke-width: 2"/>
      </g>
     </g>
     <g id="text_9">
      <!-- 0.015 -->
      <g transform="translate(7.2 167.157315) scale(0.3 -0.3)">
       <use xlink:href="#TimesNewRomanPSMT-30"/>
       <use xlink:href="#TimesNewRomanPSMT-2e" x="50"/>
       <use xlink:href="#TimesNewRomanPSMT-30" x="75"/>
       <use xlink:href="#TimesNewRomanPSMT-31" x="125"/>
       <use xlink:href="#TimesNewRomanPSMT-35" x="175"/>
      </g>
     </g>
    </g>
    <g id="ytick_5">
     <g id="line2d_17">
      <path d="M 78.2 66.938314 
L 394.532211 66.938314 
" clip-path="url(#pc0f90e4d84)" style="fill: none; stroke: #000000; stroke-width: 0.7; stroke-linecap: square"/>
     </g>
     <g id="line2d_18">
      <g>
       <use xlink:href="#mb0422befa6" x="78.2" y="66.938314" style="stroke: #000000; stroke-width: 2"/>
      </g>
     </g>
     <g id="text_10">
      <!-- 0.020 -->
      <g transform="translate(7.2 77.353939) scale(0.3 -0.3)">
       <defs>
        <path id="TimesNewRomanPSMT-32" d="M 2934 816 
L 2638 0 
L 138 0 
L 138 116 
Q 1241 1122 1691 1759 
Q 2141 2397 2141 2925 
Q 2141 3328 1894 3587 
Q 1647 3847 1303 3847 
Q 991 3847 742 3664 
Q 494 3481 375 3128 
L 259 3128 
Q 338 3706 661 4015 
Q 984 4325 1469 4325 
Q 1984 4325 2329 3994 
Q 2675 3663 2675 3213 
Q 2675 2891 2525 2569 
Q 2294 2063 1775 1497 
Q 997 647 803 472 
L 1909 472 
Q 2247 472 2383 497 
Q 2519 522 2628 598 
Q 2738 675 2819 816 
L 2934 816 
z
" transform="scale(0.015625)"/>
       </defs>
       <use xlink:href="#TimesNewRomanPSMT-30"/>
       <use xlink:href="#TimesNewRomanPSMT-2e" x="50"/>
       <use xlink:href="#TimesNewRomanPSMT-30" x="75"/>
       <use xlink:href="#TimesNewRomanPSMT-32" x="125"/>
       <use xlink:href="#TimesNewRomanPSMT-30" x="175"/>
      </g>
     </g>
    </g>
   </g>
   <g id="line2d_19">
    <path d="M 92.578737 410.410813 
L 94.222021 406.040774 
L 95.865305 400.713182 
L 97.508589 394.294436 
L 99.151874 386.653064 
L 100.795158 377.666107 
L 102.438442 367.226601 
L 104.081726 355.251911 
L 105.725011 341.692572 
L 107.368295 326.541164 
L 109.011579 309.840645 
L 111.476505 282.122176 
L 113.941432 251.766185 
L 122.979495 136.111735 
L 124.622779 118.176658 
L 126.266063 102.386434 
L 127.909347 89.173318 
L 128.73099 83.652684 
L 129.552632 78.910795 
L 130.374274 74.982277 
L 131.195916 71.896061 
L 132.017558 69.675029 
L 132.8392 68.335732 
L 133.660842 67.888182 
L 134.482484 68.335732 
L 135.304126 69.675029 
L 136.125768 71.896061 
L 136.947411 74.982277 
L 137.769053 78.910795 
L 138.590695 83.652684 
L 140.233979 95.432799 
L 141.877263 109.985269 
L 143.520547 126.904875 
L 145.985474 155.720238 
L 149.272042 197.998208 
L 154.201895 262.126773 
L 156.666821 291.691499 
L 159.131747 318.379684 
L 160.775032 334.314463 
L 162.418316 348.671873 
L 164.0616 361.435128 
L 165.704884 372.63376 
L 167.348168 382.334938 
L 168.991453 390.634546 
L 170.634737 397.648539 
L 172.278021 403.505005 
L 173.921305 408.337204 
L 175.56459 412.277783 
L 177.207874 415.454221 
L 178.851158 417.985492 
L 180.494442 419.979842 
L 182.137726 421.533553 
L 183.781011 422.730523 
L 185.424295 423.64248 
L 187.067579 424.329665 
L 189.532505 425.045244 
L 191.997432 425.494759 
L 195.284 425.835175 
L 200.213853 426.053543 
L 209.251916 426.142711 
L 261.015369 426.151818 
L 380.153474 426.151818 
L 380.153474 426.151818 
" clip-path="url(#pc0f90e4d84)" style="fill: none; stroke: #445cce; stroke-width: 3; stroke-linecap: square"/>
   </g>
   <g id="line2d_20">
    <path d="M 92.578737 424.559838 
L 97.508589 423.886357 
L 102.438442 422.974052 
L 106.546653 421.984893 
L 110.654863 420.742201 
L 113.941432 419.533916 
L 117.228 418.1074 
L 120.514568 416.435776 
L 123.801137 414.491652 
L 127.087705 412.247793 
L 130.374274 409.6779 
L 133.660842 406.757534 
L 136.947411 403.465128 
L 140.233979 399.7831 
L 143.520547 395.699004 
L 146.807116 391.206713 
L 150.093684 386.307556 
L 153.380253 381.011384 
L 156.666821 375.337488 
L 160.775032 367.759847 
L 164.883242 359.719849 
L 170.634737 347.896374 
L 184.602653 318.792814 
L 188.710863 310.893207 
L 191.997432 305.032229 
L 195.284 299.685198 
L 197.748926 296.068078 
L 200.213853 292.828333 
L 202.678779 289.998935 
L 205.143705 287.609144 
L 206.78699 286.272729 
L 208.430274 285.149209 
L 210.073558 284.243898 
L 211.716842 283.561103 
L 213.360126 283.104081 
L 215.003411 282.875022 
L 216.646695 282.875022 
L 218.289979 283.104081 
L 219.933263 283.561103 
L 221.576547 284.243898 
L 223.219832 285.149209 
L 224.863116 286.272729 
L 226.5064 287.609144 
L 228.149684 289.152165 
L 230.614611 291.838079 
L 233.079537 294.944534 
L 235.544463 298.439733 
L 238.00939 302.288536 
L 241.295958 307.904494 
L 244.582526 313.985989 
L 248.690737 322.0907 
L 254.442232 334.023866 
L 265.945221 358.065356 
L 270.875074 367.759847 
L 274.983284 375.337488 
L 278.269853 381.011384 
L 281.556421 386.307556 
L 284.84299 391.206713 
L 288.129558 395.699004 
L 291.416126 399.7831 
L 294.702695 403.465128 
L 297.989263 406.757534 
L 301.275832 409.6779 
L 304.5624 412.247793 
L 307.848969 414.491652 
L 311.135537 416.435776 
L 314.422105 418.1074 
L 317.708674 419.533916 
L 320.995242 420.742201 
L 325.103453 421.984893 
L 329.211663 422.974052 
L 333.319874 423.752515 
L 338.249726 424.461734 
L 344.001221 425.0491 
L 350.574358 425.490964 
L 358.790779 425.815676 
L 370.293769 426.029829 
L 380.153474 426.103745 
L 380.153474 426.103745 
" clip-path="url(#pc0f90e4d84)" style="fill: none; stroke: #84fe4f; stroke-width: 3; stroke-linecap: square"/>
   </g>
   <g id="line2d_21">
    <path d="M 92.578737 426.151802 
L 145.163832 426.044046 
L 154.201895 425.803938 
L 159.95339 425.455266 
L 164.883242 424.928394 
L 168.991453 424.238972 
L 172.278021 423.456681 
L 175.56459 422.403733 
L 178.029516 421.392898 
L 180.494442 420.153679 
L 182.959368 418.647108 
L 185.424295 416.830859 
L 187.889221 414.659793 
L 190.354147 412.086752 
L 192.819074 409.06362 
L 195.284 405.542672 
L 197.748926 401.47819 
L 200.213853 396.828354 
L 202.678779 391.557337 
L 205.143705 385.637585 
L 207.608632 379.052167 
L 210.073558 371.797129 
L 212.538484 363.883718 
L 215.003411 355.34037 
L 218.289979 343.053814 
L 221.576547 329.900808 
L 226.5064 309.069433 
L 234.722821 274.118101 
L 238.00939 261.186547 
L 240.474316 252.267883 
L 242.939242 244.20869 
L 244.582526 239.393268 
L 246.225811 235.075341 
L 247.869095 231.29489 
L 249.512379 228.087441 
L 251.155663 225.483509 
L 252.798947 223.508119 
L 253.62059 222.762345 
L 254.442232 222.180401 
L 255.263874 221.763708 
L 256.085516 221.513283 
L 256.907158 221.42974 
L 257.7288 221.513283 
L 258.550442 221.763708 
L 259.372084 222.180401 
L 260.193726 222.762345 
L 261.015369 223.508119 
L 262.658653 225.483509 
L 264.301937 228.087441 
L 265.945221 231.29489 
L 267.588505 235.075341 
L 269.23179 239.393268 
L 270.875074 244.20869 
L 273.34 252.267883 
L 275.804926 261.186547 
L 279.091495 274.118101 
L 283.199705 291.365033 
L 293.059411 333.258728 
L 296.345979 346.21431 
L 299.632548 358.255631 
L 302.097474 366.593292 
L 304.5624 374.289519 
L 307.027326 381.321806 
L 309.492253 387.684207 
L 311.957179 393.385259 
L 314.422105 398.445698 
L 316.887032 402.896094 
L 319.351958 406.774517 
L 321.816884 410.124312 
L 324.281811 412.99206 
L 326.746737 415.425785 
L 329.211663 417.47342 
L 331.67659 419.181553 
L 334.141516 420.594461 
L 336.606442 421.753399 
L 339.071369 422.696133 
L 342.357937 423.675038 
L 345.644505 424.39968 
L 349.752716 425.035745 
L 354.682569 425.51949 
L 360.434063 425.837813 
L 368.650484 426.044046 
L 380.153474 426.130793 
L 380.153474 426.130793 
" clip-path="url(#pc0f90e4d84)" style="fill: none; stroke: #f7c03a; stroke-width: 3; stroke-linecap: square"/>
   </g>
   <g id="line2d_22">
    <path d="M 92.578737 426.151284 
L 142.698905 426.038689 
L 155.845179 425.791519 
L 164.883242 425.398917 
L 171.456379 424.903523 
L 177.207874 424.2493 
L 182.137726 423.463869 
L 186.245937 422.605966 
L 190.354147 421.520792 
L 193.640716 420.459154 
L 196.927284 419.198782 
L 200.213853 417.713539 
L 203.500421 415.976364 
L 206.78699 413.959838 
L 210.073558 411.636879 
L 213.360126 408.981565 
L 216.646695 405.970075 
L 219.933263 402.581731 
L 223.219832 398.800126 
L 226.5064 394.614284 
L 229.792969 390.019836 
L 233.079537 385.020148 
L 236.366105 379.627349 
L 239.652674 373.863217 
L 243.760884 366.185778 
L 248.690737 356.397565 
L 255.263874 342.707597 
L 265.123579 322.0907 
L 269.23179 313.985989 
L 272.518358 307.904494 
L 275.804926 302.288536 
L 278.269853 298.439733 
L 280.734779 294.944534 
L 283.199705 291.838079 
L 285.664632 289.152165 
L 288.129558 286.914696 
L 289.772842 285.684002 
L 291.416126 284.668984 
L 293.059411 283.874457 
L 294.702695 283.304208 
L 296.345979 282.960962 
L 297.989263 282.846364 
L 299.632548 282.960962 
L 301.275832 283.304208 
L 302.919116 283.874457 
L 304.5624 284.668984 
L 306.205684 285.684002 
L 307.848969 286.914696 
L 309.492253 288.355258 
L 311.957179 290.894585 
L 314.422105 293.864211 
L 316.887032 297.233579 
L 319.351958 300.968601 
L 322.638526 306.453041 
L 325.925095 312.42737 
L 330.033305 320.433477 
L 334.963158 330.570403 
L 349.752716 361.360061 
L 353.860927 369.315337 
L 357.969137 376.789942 
L 361.255705 382.371761 
L 364.542274 387.570106 
L 367.828842 392.36812 
L 371.115411 396.758176 
L 374.401979 400.740914 
L 377.688548 404.324149 
L 380.153474 406.757534 
L 380.153474 406.757534 
" clip-path="url(#pc0f90e4d84)" style="fill: none; stroke: #790403; stroke-width: 3; stroke-linecap: square"/>
   </g>
   <g id="patch_3">
    <path d="M 78.2 444.065 
L 78.2 49.975 
" style="fill: none; stroke: #000000; stroke-width: 0.8; stroke-linejoin: miter; stroke-linecap: square"/>
   </g>
   <g id="patch_4">
    <path d="M 394.532211 444.065 
L 394.532211 49.975 
" style="fill: none; stroke: #000000; stroke-width: 0.8; stroke-linejoin: miter; stroke-linecap: square"/>
   </g>
   <g id="patch_5">
    <path d="M 78.2 444.065 
L 394.532211 444.065 
" style="fill: none; stroke: #000000; stroke-width: 0.8; stroke-linejoin: miter; stroke-linecap: square"/>
   </g>
   <g id="patch_6">
    <path d="M 78.2 49.975 
L 394.532211 49.975 
" style="fill: none; stroke: #000000; stroke-width: 0.8; stroke-linejoin: miter; stroke-linecap: square"/>
   </g>
   <g id="text_11">
    <!-- нагрузки регистрации -->
    <g transform="translate(48.897355 34.975) scale(0.4 -0.4)">
     <defs>
      <path id="TimesNewRomanPSMT-443" d="M 38 2863 
L 1372 2863 
L 1372 2747 
L 1306 2747 
Q 1166 2747 1095 2686 
Q 1025 2625 1025 2534 
Q 1025 2413 1128 2197 
L 1825 753 
L 2466 2334 
Q 2519 2463 2519 2588 
Q 2519 2644 2497 2672 
Q 2472 2706 2419 2726 
Q 2366 2747 2231 2747 
L 2231 2863 
L 3163 2863 
L 3163 2747 
Q 3047 2734 2984 2696 
Q 2922 2659 2847 2556 
Q 2819 2513 2741 2316 
L 1575 -541 
Q 1406 -956 1132 -1168 
Q 859 -1381 606 -1381 
Q 422 -1381 303 -1275 
Q 184 -1169 184 -1031 
Q 184 -900 270 -820 
Q 356 -741 506 -741 
Q 609 -741 788 -809 
Q 913 -856 944 -856 
Q 1038 -856 1148 -759 
Q 1259 -663 1372 -384 
L 1575 113 
L 547 2272 
Q 500 2369 397 2513 
Q 319 2622 269 2659 
Q 197 2709 38 2747 
L 38 2863 
z
" transform="scale(0.015625)"/>
      <path id="TimesNewRomanPSMT-437" d="M 263 1966 
L 263 2863 
L 394 2863 
Q 450 2813 519 2813 
Q 572 2813 750 2863 
Q 1047 2947 1234 2947 
Q 1647 2947 1923 2756 
Q 2200 2566 2200 2250 
Q 2200 1766 1466 1547 
Q 2322 1369 2322 744 
Q 2322 416 2047 164 
Q 1772 -88 1247 -88 
Q 903 -88 642 35 
Q 381 159 75 453 
L 156 534 
Q 669 138 1128 138 
Q 1391 138 1559 316 
Q 1728 494 1728 778 
Q 1728 1400 925 1438 
L 925 1619 
Q 1303 1619 1473 1820 
Q 1644 2022 1644 2253 
Q 1644 2456 1498 2609 
Q 1353 2763 1113 2763 
Q 556 2763 375 1966 
L 263 1966 
z
" transform="scale(0.015625)"/>
      <path id="TimesNewRomanPSMT-43a" d="M 3072 0 
L 2228 0 
Q 1834 572 1516 1172 
Q 1441 1309 1380 1376 
Q 1319 1444 1213 1444 
Q 1175 1444 1094 1438 
L 1094 672 
Q 1094 363 1130 277 
Q 1166 191 1259 153 
Q 1353 116 1575 116 
L 1575 0 
L 144 0 
L 144 116 
Q 422 116 500 217 
Q 578 319 578 672 
L 578 2191 
Q 578 2525 543 2586 
Q 509 2647 437 2695 
Q 366 2744 144 2744 
L 144 2863 
L 1575 2863 
L 1575 2744 
Q 1316 2744 1255 2706 
Q 1194 2669 1144 2614 
Q 1094 2559 1094 2191 
L 1094 1628 
Q 1166 1622 1191 1622 
Q 1381 1622 1548 1730 
Q 1716 1838 1847 2188 
Q 1969 2519 2048 2634 
Q 2128 2750 2270 2823 
Q 2413 2897 2569 2897 
Q 2738 2897 2838 2815 
Q 2938 2734 2938 2603 
Q 2938 2494 2866 2417 
Q 2794 2341 2666 2341 
Q 2597 2341 2494 2378 
Q 2363 2425 2294 2425 
Q 2150 2425 2056 2178 
Q 1950 1894 1900 1811 
Q 1850 1728 1709 1591 
Q 1806 1563 1920 1447 
Q 2034 1331 2344 788 
Q 2591 353 2714 237 
Q 2838 122 3072 116 
L 3072 0 
z
" transform="scale(0.015625)"/>
     </defs>
     <use xlink:href="#TimesNewRomanPSMT-43d"/>
     <use xlink:href="#TimesNewRomanPSMT-430" x="53.515625"/>
     <use xlink:href="#TimesNewRomanPSMT-433" x="97.900391"/>
     <use xlink:href="#TimesNewRomanPSMT-440" x="138.916016"/>
     <use xlink:href="#TimesNewRomanPSMT-443" x="187.541016"/>
     <use xlink:href="#TimesNewRomanPSMT-437" x="237.541016"/>
     <use xlink:href="#TimesNewRomanPSMT-43a" x="277.042969"/>
     <use xlink:href="#TimesNewRomanPSMT-438" x="325.626953"/>
     <use xlink:href="#TimesNewRomanPSMT-20" x="379.142578"/>
     <use xlink:href="#TimesNewRomanPSMT-440" x="404.142578"/>
     <use xlink:href="#TimesNewRomanPSMT-435" x="454.142578"/>
     <use xlink:href="#TimesNewRomanPSMT-433" x="498.527344"/>
     <use xlink:href="#TimesNewRomanPSMT-438" x="539.542969"/>
     <use xlink:href="#TimesNewRomanPSMT-441" x="593.058594"/>
     <use xlink:href="#TimesNewRomanPSMT-442" x="637.443359"/>
     <use xlink:href="#TimesNewRomanPSMT-440" x="682.394531"/>
     <use xlink:href="#TimesNewRomanPSMT-430" x="732.394531"/>
     <use xlink:href="#TimesNewRomanPSMT-446" x="776.779297"/>
     <use xlink:href="#TimesNewRomanPSMT-438" x="830.294922"/>
     <use xlink:href="#TimesNewRomanPSMT-438" x="883.810547"/>
    </g>
   </g>
   <g id="legend_1">
    <g id="patch_7">
     <path d="M 253.610336 211.365625 
L 377.032211 211.365625 
Q 382.032211 211.365625 382.032211 206.365625 
L 382.032211 67.475 
Q 382.032211 62.475 377.032211 62.475 
L 253.610336 62.475 
Q 248.610336 62.475 248.610336 67.475 
L 248.610336 206.365625 
Q 248.610336 211.365625 253.610336 211.365625 
z
" style="fill: #ffffff; opacity: 0.8; stroke: #cccccc; stroke-linejoin: miter"/>
    </g>
    <g id="line2d_23">
     <path d="M 258.610336 81.225 
L 283.610336 81.225 
L 308.610336 81.225 
" style="fill: none; stroke: #445cce; stroke-width: 3; stroke-linecap: square"/>
    </g>
    <g id="text_12">
     <!-- 1-ая -->
     <g transform="translate(328.610336 89.975) scale(0.25 -0.25)">
      <defs>
       <path id="TimesNewRomanPSMT-2d" d="M 259 1672 
L 1875 1672 
L 1875 1200 
L 259 1200 
L 259 1672 
z
" transform="scale(0.015625)"/>
       <path id="TimesNewRomanPSMT-44f" d="M 2800 2863 
L 2800 2744 
Q 2606 2744 2514 2691 
Q 2422 2638 2394 2556 
Q 2366 2475 2366 2191 
L 2366 672 
Q 2366 400 2391 314 
Q 2416 228 2511 172 
Q 2606 116 2800 116 
L 2800 0 
L 1416 0 
L 1416 116 
Q 1675 116 1762 211 
Q 1850 306 1850 672 
L 1850 1294 
L 1722 1291 
Q 1694 1291 1622 1294 
L 709 0 
L -3 0 
L -3 116 
Q 153 116 214 158 
Q 275 200 441 434 
L 1109 1378 
Q 391 1628 391 2144 
Q 391 2434 648 2648 
Q 906 2863 1528 2863 
L 2800 2863 
z
M 1850 2625 
Q 1728 2659 1619 2659 
Q 1303 2659 1147 2503 
Q 991 2347 991 2131 
Q 991 1856 1212 1675 
Q 1434 1494 1772 1494 
Q 1806 1494 1850 1500 
L 1850 2625 
z
" transform="scale(0.015625)"/>
      </defs>
      <use xlink:href="#TimesNewRomanPSMT-31"/>
      <use xlink:href="#TimesNewRomanPSMT-2d" x="50"/>
      <use xlink:href="#TimesNewRomanPSMT-430" x="83.300781"/>
      <use xlink:href="#TimesNewRomanPSMT-44f" x="127.685547"/>
     </g>
    </g>
    <g id="line2d_24">
     <path d="M 258.610336 116.572656 
L 283.610336 116.572656 
L 308.610336 116.572656 
" style="fill: none; stroke: #84fe4f; stroke-width: 3; stroke-linecap: square"/>
    </g>
    <g id="text_13">
     <!-- 2-ая -->
     <g transform="translate(328.610336 125.322656) scale(0.25 -0.25)">
      <use xlink:href="#TimesNewRomanPSMT-32"/>
      <use xlink:href="#TimesNewRomanPSMT-2d" x="50"/>
      <use xlink:href="#TimesNewRomanPSMT-430" x="83.300781"/>
      <use xlink:href="#TimesNewRomanPSMT-44f" x="127.685547"/>
     </g>
    </g>
    <g id="line2d_25">
     <path d="M 258.610336 151.920312 
L 283.610336 151.920312 
L 308.610336 151.920312 
" style="fill: none; stroke: #f7c03a; stroke-width: 3; stroke-linecap: square"/>
    </g>
    <g id="text_14">
     <!-- 3-я -->
     <g transform="translate(328.610336 160.670312) scale(0.25 -0.25)">
      <use xlink:href="#TimesNewRomanPSMT-33"/>
      <use xlink:href="#TimesNewRomanPSMT-2d" x="50"/>
      <use xlink:href="#TimesNewRomanPSMT-44f" x="83.300781"/>
     </g>
    </g>
    <g id="line2d_26">
     <path d="M 258.610336 187.267969 
L 283.610336 187.267969 
L 308.610336 187.267969 
" style="fill: none; stroke: #790403; stroke-width: 3; stroke-linecap: square"/>
    </g>
    <g id="text_15">
     <!-- 4-ая -->
     <g transform="translate(328.610336 196.017969) scale(0.25 -0.25)">
      <use xlink:href="#TimesNewRomanPSMT-34"/>
      <use xlink:href="#TimesNewRomanPSMT-2d" x="50"/>
      <use xlink:href="#TimesNewRomanPSMT-430" x="83.300781"/>
      <use xlink:href="#TimesNewRomanPSMT-44f" x="127.685547"/>
     </g>
    </g>
   </g>
  </g>
  <g id="axes_2">
   <g id="patch_8">
    <path d="M 524.3775 444.065 
L 840.709711 444.065 
L 840.709711 49.975 
L 524.3775 49.975 
z
" style="fill: #ffffff"/>
   </g>
   <g id="matplotlib.axis_3">
    <g id="xtick_5">
     <g id="line2d_27">
      <path d="M 572.588559 444.065 
L 572.588559 49.975 
" clip-path="url(#pfe0d22f887)" style="fill: none; stroke: #000000; stroke-width: 0.7; stroke-linecap: square"/>
     </g>
     <g id="line2d_28">
      <g>
       <use xlink:href="#m2834c37b3d" x="572.588559" y="444.065" style="stroke: #000000; stroke-width: 2"/>
      </g>
     </g>
     <g id="text_16">
      <!-- 250 -->
      <g transform="translate(550.088559 468.39625) scale(0.3 -0.3)">
       <use xlink:href="#TimesNewRomanPSMT-32"/>
       <use xlink:href="#TimesNewRomanPSMT-35" x="50"/>
       <use xlink:href="#TimesNewRomanPSMT-30" x="100"/>
      </g>
     </g>
    </g>
    <g id="xtick_6">
     <g id="line2d_29">
      <path d="M 657.169364 444.065 
L 657.169364 49.975 
" clip-path="url(#pfe0d22f887)" style="fill: none; stroke: #000000; stroke-width: 0.7; stroke-linecap: square"/>
     </g>
     <g id="line2d_30">
      <g>
       <use xlink:href="#m2834c37b3d" x="657.169364" y="444.065" style="stroke: #000000; stroke-width: 2"/>
      </g>
     </g>
     <g id="text_17">
      <!-- 300 -->
      <g transform="translate(634.669364 468.39625) scale(0.3 -0.3)">
       <use xlink:href="#TimesNewRomanPSMT-33"/>
       <use xlink:href="#TimesNewRomanPSMT-30" x="50"/>
       <use xlink:href="#TimesNewRomanPSMT-30" x="100"/>
      </g>
     </g>
    </g>
    <g id="xtick_7">
     <g id="line2d_31">
      <path d="M 741.750169 444.065 
L 741.750169 49.975 
" clip-path="url(#pfe0d22f887)" style="fill: none; stroke: #000000; stroke-width: 0.7; stroke-linecap: square"/>
     </g>
     <g id="line2d_32">
      <g>
       <use xlink:href="#m2834c37b3d" x="741.750169" y="444.065" style="stroke: #000000; stroke-width: 2"/>
      </g>
     </g>
     <g id="text_18">
      <!-- 350 -->
      <g transform="translate(719.250169 468.39625) scale(0.3 -0.3)">
       <use xlink:href="#TimesNewRomanPSMT-33"/>
       <use xlink:href="#TimesNewRomanPSMT-35" x="50"/>
       <use xlink:href="#TimesNewRomanPSMT-30" x="100"/>
      </g>
     </g>
    </g>
    <g id="xtick_8">
     <g id="line2d_33">
      <path d="M 826.330974 444.065 
L 826.330974 49.975 
" clip-path="url(#pfe0d22f887)" style="fill: none; stroke: #000000; stroke-width: 0.7; stroke-linecap: square"/>
     </g>
     <g id="line2d_34">
      <g>
       <use xlink:href="#m2834c37b3d" x="826.330974" y="444.065" style="stroke: #000000; stroke-width: 2"/>
      </g>
     </g>
     <g id="text_19">
      <!-- 400 -->
      <g transform="translate(803.830974 468.39625) scale(0.3 -0.3)">
       <use xlink:href="#TimesNewRomanPSMT-34"/>
       <use xlink:href="#TimesNewRomanPSMT-30" x="50"/>
       <use xlink:href="#TimesNewRomanPSMT-30" x="100"/>
      </g>
     </g>
    </g>
    <g id="text_20">
     <!-- длины волны  -->
     <g transform="translate(579.148683 514.116562) scale(0.35 -0.35)">
      <use xlink:href="#TimesNewRomanPSMT-434"/>
      <use xlink:href="#TimesNewRomanPSMT-43b" x="50.878906"/>
      <use xlink:href="#TimesNewRomanPSMT-438" x="100.78125"/>
      <use xlink:href="#TimesNewRomanPSMT-43d" x="154.296875"/>
      <use xlink:href="#TimesNewRomanPSMT-44b" x="207.8125"/>
      <use xlink:href="#TimesNewRomanPSMT-20" x="275"/>
      <use xlink:href="#TimesNewRomanPSMT-432" x="300"/>
      <use xlink:href="#TimesNewRomanPSMT-43e" x="346.591797"/>
      <use xlink:href="#TimesNewRomanPSMT-43b" x="395.216797"/>
      <use xlink:href="#TimesNewRomanPSMT-43d" x="445.119141"/>
      <use xlink:href="#TimesNewRomanPSMT-44b" x="498.634766"/>
      <use xlink:href="#TimesNewRomanPSMT-20" x="565.822266"/>
     </g>
     <!-- возбуждения, нм -->
     <g transform="translate(557.238137 550.767031) scale(0.35 -0.35)">
      <defs>
       <path id="TimesNewRomanPSMT-431" d="M 469 2044 
Q 828 2947 1681 2947 
Q 2278 2947 2658 2500 
Q 3038 2053 3038 1478 
Q 3038 884 2653 398 
Q 2269 -88 1613 -88 
Q 944 -88 594 467 
Q 244 1022 244 1819 
Q 244 2438 425 2973 
Q 606 3509 806 3775 
Q 1006 4041 1268 4162 
Q 1531 4284 2197 4291 
Q 2675 4297 2775 4319 
Q 2875 4341 2966 4444 
L 3088 4444 
Q 2984 4138 2837 4006 
Q 2691 3875 2522 3829 
Q 2353 3784 1919 3772 
Q 1450 3759 1270 3701 
Q 1091 3644 897 3420 
Q 703 3197 595 2834 
Q 488 2472 469 2044 
z
M 1575 2734 
Q 1263 2734 1063 2475 
Q 863 2216 863 1659 
Q 863 906 1131 518 
Q 1400 131 1753 131 
Q 2078 131 2264 401 
Q 2450 672 2450 1266 
Q 2450 1897 2206 2315 
Q 1963 2734 1575 2734 
z
" transform="scale(0.015625)"/>
       <path id="TimesNewRomanPSMT-436" d="M 1506 0 
L 1506 116 
Q 1797 144 1875 270 
Q 1953 397 1953 788 
L 1953 1438 
Q 1747 1438 1680 1391 
Q 1613 1344 1453 1038 
L 916 0 
L 72 0 
L 72 116 
Q 291 131 403 239 
Q 516 347 706 731 
Q 997 1316 1131 1439 
Q 1266 1563 1422 1575 
Q 1231 1656 1063 2088 
Q 981 2291 934 2355 
Q 888 2419 806 2419 
Q 744 2419 647 2381 
Q 506 2325 428 2325 
Q 303 2325 231 2409 
Q 159 2494 159 2613 
Q 159 2750 268 2823 
Q 378 2897 525 2897 
Q 781 2897 936 2745 
Q 1091 2594 1231 2203 
Q 1366 1831 1534 1718 
Q 1703 1606 1953 1606 
L 1953 2075 
Q 1953 2478 1870 2597 
Q 1788 2716 1506 2744 
L 1506 2863 
L 2919 2863 
L 2919 2744 
Q 2634 2713 2553 2594 
Q 2472 2475 2472 2075 
L 2472 1606 
Q 2719 1606 2887 1718 
Q 3056 1831 3191 2203 
Q 3359 2684 3542 2790 
Q 3725 2897 3891 2897 
Q 4075 2897 4170 2812 
Q 4266 2728 4266 2613 
Q 4266 2494 4194 2409 
Q 4122 2325 3997 2325 
Q 3919 2325 3778 2381 
Q 3681 2419 3628 2419 
Q 3538 2419 3491 2355 
Q 3444 2291 3363 2088 
Q 3194 1656 3003 1575 
Q 3166 1563 3300 1431 
Q 3434 1300 3713 741 
Q 3909 347 4021 239 
Q 4134 131 4353 116 
L 4353 0 
L 3509 0 
L 2972 1038 
Q 2813 1344 2745 1391 
Q 2678 1438 2472 1438 
L 2472 788 
Q 2472 341 2564 245 
Q 2656 150 2919 116 
L 2919 0 
L 1506 0 
z
" transform="scale(0.015625)"/>
      </defs>
      <use xlink:href="#TimesNewRomanPSMT-432"/>
      <use xlink:href="#TimesNewRomanPSMT-43e" x="46.591797"/>
      <use xlink:href="#TimesNewRomanPSMT-437" x="96.591797"/>
      <use xlink:href="#TimesNewRomanPSMT-431" x="136.09375"/>
      <use xlink:href="#TimesNewRomanPSMT-443" x="183.222656"/>
      <use xlink:href="#TimesNewRomanPSMT-436" x="231.847656"/>
      <use xlink:href="#TimesNewRomanPSMT-434" x="300.939453"/>
      <use xlink:href="#TimesNewRomanPSMT-435" x="351.818359"/>
      <use xlink:href="#TimesNewRomanPSMT-43d" x="396.203125"/>
      <use xlink:href="#TimesNewRomanPSMT-438" x="449.71875"/>
      <use xlink:href="#TimesNewRomanPSMT-44f" x="503.234375"/>
      <use xlink:href="#TimesNewRomanPSMT-2c" x="549.230469"/>
      <use xlink:href="#TimesNewRomanPSMT-20" x="574.230469"/>
      <use xlink:href="#TimesNewRomanPSMT-43d" x="599.230469"/>
      <use xlink:href="#TimesNewRomanPSMT-43c" x="652.746094"/>
     </g>
    </g>
   </g>
   <g id="matplotlib.axis_4">
    <g id="ytick_6">
     <g id="line2d_35">
      <path d="M 524.3775 426.151822 
L 840.709711 426.151822 
" clip-path="url(#pfe0d22f887)" style="fill: none; stroke: #000000; stroke-width: 0.7; stroke-linecap: square"/>
     </g>
     <g id="line2d_36">
      <g>
       <use xlink:href="#mb0422befa6" x="524.3775" y="426.151822" style="stroke: #000000; stroke-width: 2"/>
      </g>
     </g>
     <g id="text_21">
      <!-- 0.000 -->
      <g transform="translate(453.3775 436.567447) scale(0.3 -0.3)">
       <use xlink:href="#TimesNewRomanPSMT-30"/>
       <use xlink:href="#TimesNewRomanPSMT-2e" x="50"/>
       <use xlink:href="#TimesNewRomanPSMT-30" x="75"/>
       <use xlink:href="#TimesNewRomanPSMT-30" x="125"/>
       <use xlink:href="#TimesNewRomanPSMT-30" x="175"/>
      </g>
     </g>
    </g>
    <g id="ytick_7">
     <g id="line2d_37">
      <path d="M 524.3775 358.799289 
L 840.709711 358.799289 
" clip-path="url(#pfe0d22f887)" style="fill: none; stroke: #000000; stroke-width: 0.7; stroke-linecap: square"/>
     </g>
     <g id="line2d_38">
      <g>
       <use xlink:href="#mb0422befa6" x="524.3775" y="358.799289" style="stroke: #000000; stroke-width: 2"/>
      </g>
     </g>
     <g id="text_22">
      <!-- 0.005 -->
      <g transform="translate(453.3775 369.214914) scale(0.3 -0.3)">
       <use xlink:href="#TimesNewRomanPSMT-30"/>
       <use xlink:href="#TimesNewRomanPSMT-2e" x="50"/>
       <use xlink:href="#TimesNewRomanPSMT-30" x="75"/>
       <use xlink:href="#TimesNewRomanPSMT-30" x="125"/>
       <use xlink:href="#TimesNewRomanPSMT-35" x="175"/>
      </g>
     </g>
    </g>
    <g id="ytick_8">
     <g id="line2d_39">
      <path d="M 524.3775 291.446757 
L 840.709711 291.446757 
" clip-path="url(#pfe0d22f887)" style="fill: none; stroke: #000000; stroke-width: 0.7; stroke-linecap: square"/>
     </g>
     <g id="line2d_40">
      <g>
       <use xlink:href="#mb0422befa6" x="524.3775" y="291.446757" style="stroke: #000000; stroke-width: 2"/>
      </g>
     </g>
     <g id="text_23">
      <!-- 0.010 -->
      <g transform="translate(453.3775 301.862382) scale(0.3 -0.3)">
       <use xlink:href="#TimesNewRomanPSMT-30"/>
       <use xlink:href="#TimesNewRomanPSMT-2e" x="50"/>
       <use xlink:href="#TimesNewRomanPSMT-30" x="75"/>
       <use xlink:href="#TimesNewRomanPSMT-31" x="125"/>
       <use xlink:href="#TimesNewRomanPSMT-30" x="175"/>
      </g>
     </g>
    </g>
    <g id="ytick_9">
     <g id="line2d_41">
      <path d="M 524.3775 224.094224 
L 840.709711 224.094224 
" clip-path="url(#pfe0d22f887)" style="fill: none; stroke: #000000; stroke-width: 0.7; stroke-linecap: square"/>
     </g>
     <g id="line2d_42">
      <g>
       <use xlink:href="#mb0422befa6" x="524.3775" y="224.094224" style="stroke: #000000; stroke-width: 2"/>
      </g>
     </g>
     <g id="text_24">
      <!-- 0.015 -->
      <g transform="translate(453.3775 234.509849) scale(0.3 -0.3)">
       <use xlink:href="#TimesNewRomanPSMT-30"/>
       <use xlink:href="#TimesNewRomanPSMT-2e" x="50"/>
       <use xlink:href="#TimesNewRomanPSMT-30" x="75"/>
       <use xlink:href="#TimesNewRomanPSMT-31" x="125"/>
       <use xlink:href="#TimesNewRomanPSMT-35" x="175"/>
      </g>
     </g>
    </g>
    <g id="ytick_10">
     <g id="line2d_43">
      <path d="M 524.3775 156.741691 
L 840.709711 156.741691 
" clip-path="url(#pfe0d22f887)" style="fill: none; stroke: #000000; stroke-width: 0.7; stroke-linecap: square"/>
     </g>
     <g id="line2d_44">
      <g>
       <use xlink:href="#mb0422befa6" x="524.3775" y="156.741691" style="stroke: #000000; stroke-width: 2"/>
      </g>
     </g>
     <g id="text_25">
      <!-- 0.020 -->
      <g transform="translate(453.3775 167.157316) scale(0.3 -0.3)">
       <use xlink:href="#TimesNewRomanPSMT-30"/>
       <use xlink:href="#TimesNewRomanPSMT-2e" x="50"/>
       <use xlink:href="#TimesNewRomanPSMT-30" x="75"/>
       <use xlink:href="#TimesNewRomanPSMT-32" x="125"/>
       <use xlink:href="#TimesNewRomanPSMT-30" x="175"/>
      </g>
     </g>
    </g>
    <g id="ytick_11">
     <g id="line2d_45">
      <path d="M 524.3775 89.389158 
L 840.709711 89.389158 
" clip-path="url(#pfe0d22f887)" style="fill: none; stroke: #000000; stroke-width: 0.7; stroke-linecap: square"/>
     </g>
     <g id="line2d_46">
      <g>
       <use xlink:href="#mb0422befa6" x="524.3775" y="89.389158" style="stroke: #000000; stroke-width: 2"/>
      </g>
     </g>
     <g id="text_26">
      <!-- 0.025 -->
      <g transform="translate(453.3775 99.804783) scale(0.3 -0.3)">
       <use xlink:href="#TimesNewRomanPSMT-30"/>
       <use xlink:href="#TimesNewRomanPSMT-2e" x="50"/>
       <use xlink:href="#TimesNewRomanPSMT-30" x="75"/>
       <use xlink:href="#TimesNewRomanPSMT-32" x="125"/>
       <use xlink:href="#TimesNewRomanPSMT-35" x="175"/>
      </g>
     </g>
    </g>
   </g>
   <g id="line2d_47">
    <path d="M 538.756237 291.802957 
L 547.214317 292.848468 
L 555.672398 295.936437 
L 564.130478 300.92491 
L 572.588559 307.589365 
L 581.046639 315.63946 
L 589.50472 324.739978 
L 597.9628 334.533856 
L 606.420881 344.665116 
L 614.878961 354.799679 
L 623.337042 364.64243 
L 631.795122 373.949479 
L 640.253203 382.535132 
L 648.711283 390.273711 
L 657.169364 397.096843 
L 665.627444 402.987173 
L 674.085525 407.969681 
L 682.543605 412.101752 
L 691.001686 415.463093 
L 699.459766 418.146334 
L 707.917847 420.248945 
L 716.375927 421.866793 
L 724.834008 423.08945 
L 733.292088 423.997174 
L 741.750169 424.659341 
L 750.208249 425.134039 
L 758.66633 425.468515 
L 767.12441 425.700184 
L 775.582491 425.857935 
L 784.040571 425.963551 
L 792.498652 426.033081 
L 800.956732 426.078094 
L 809.414813 426.106753 
L 817.872893 426.124699 
L 826.330974 426.135752 
" clip-path="url(#pfe0d22f887)" style="fill: none; stroke: #445cce; stroke-width: 3; stroke-linecap: square"/>
   </g>
   <g id="line2d_48">
    <path d="M 538.756237 131.350356 
L 547.214317 146.013994 
L 555.672398 165.325917 
L 564.130478 188.212327 
L 572.588559 213.475473 
L 581.046639 239.896495 
L 589.50472 266.330375 
L 597.9628 291.783077 
L 606.420881 315.464391 
L 614.878961 336.814032 
L 623.337042 355.502345 
L 631.795122 371.409963 
L 640.253203 384.592641 
L 648.711283 395.238102 
L 657.169364 403.621241 
L 665.627444 410.062773 
L 674.085525 414.894756 
L 682.543605 418.434673 
L 691.001686 420.968295 
L 699.459766 422.740437 
L 707.917847 423.952074 
L 716.375927 424.762023 
L 724.834008 425.291487 
L 733.292088 425.630002 
L 741.750169 425.841716 
L 750.208249 425.971256 
L 758.66633 426.048807 
L 767.12441 426.094238 
L 775.582491 426.120284 
L 784.040571 426.134898 
L 792.498652 426.142924 
L 800.956732 426.147238 
L 809.414813 426.149508 
L 817.872893 426.150678 
L 826.330974 426.151268 
" clip-path="url(#pfe0d22f887)" style="fill: none; stroke: #84fe4f; stroke-width: 3; stroke-linecap: square"/>
   </g>
   <g id="line2d_49">
    <path d="M 538.756237 426.151818 
L 547.214317 426.151804 
L 555.672398 426.15175 
L 564.130478 426.151544 
L 572.588559 426.150821 
L 581.046639 426.148435 
L 589.50472 426.141057 
L 597.9628 426.119683 
L 606.420881 426.061684 
L 614.878961 425.91434 
L 623.337042 425.564048 
L 631.795122 424.785207 
L 640.253203 423.16686 
L 648.711283 420.027078 
L 657.169364 414.346068 
L 665.627444 404.774363 
L 674.085525 389.787539 
L 682.543605 368.041863 
L 691.001686 338.918441 
L 699.459766 303.133037 
L 707.917847 263.178411 
L 716.375927 223.328134 
L 724.834008 189.026908 
L 733.292088 165.721052 
L 741.750169 157.454092 
L 750.208249 165.721052 
L 758.66633 189.026908 
L 767.12441 223.328134 
L 775.582491 263.178411 
L 784.040571 303.133037 
L 792.498652 338.918441 
L 800.956732 368.041863 
L 809.414813 389.787539 
L 817.872893 404.774363 
L 826.330974 414.346068 
" clip-path="url(#pfe0d22f887)" style="fill: none; stroke: #f7c03a; stroke-width: 3; stroke-linecap: square"/>
   </g>
   <g id="line2d_50">
    <path d="M 538.756237 139.276725 
L 547.214317 109.985269 
L 555.672398 87.248939 
L 564.130478 72.82967 
L 572.588559 67.888182 
L 581.046639 72.82967 
L 589.50472 87.248939 
L 597.9628 109.985269 
L 606.420881 139.276725 
L 614.878961 172.985438 
L 623.337042 208.85394 
L 631.795122 244.750181 
L 640.253203 278.865236 
L 648.711283 309.840647 
L 657.169364 336.817992 
L 665.627444 359.417888 
L 674.085525 377.666111 
L 682.543605 391.889478 
L 691.001686 402.60368 
L 699.459766 410.410816 
L 707.917847 415.917842 
L 716.375927 419.680501 
L 724.834008 422.171873 
L 733.292088 423.771156 
L 741.750169 424.766804 
L 750.208249 425.368124 
L 758.66633 425.720523 
L 767.12441 425.920964 
L 775.582491 426.031638 
L 784.040571 426.090969 
L 792.498652 426.121854 
L 800.956732 426.137468 
L 809.414813 426.145135 
L 817.872893 426.148793 
L 826.330974 426.150487 
" clip-path="url(#pfe0d22f887)" style="fill: none; stroke: #790403; stroke-width: 3; stroke-linecap: square"/>
   </g>
   <g id="patch_9">
    <path d="M 524.3775 444.065 
L 524.3775 49.975 
" style="fill: none; stroke: #000000; stroke-width: 0.8; stroke-linejoin: miter; stroke-linecap: square"/>
   </g>
   <g id="patch_10">
    <path d="M 840.709711 444.065 
L 840.709711 49.975 
" style="fill: none; stroke: #000000; stroke-width: 0.8; stroke-linejoin: miter; stroke-linecap: square"/>
   </g>
   <g id="patch_11">
    <path d="M 524.3775 444.065 
L 840.709711 444.065 
" style="fill: none; stroke: #000000; stroke-width: 0.8; stroke-linejoin: miter; stroke-linecap: square"/>
   </g>
   <g id="patch_12">
    <path d="M 524.3775 49.975 
L 840.709711 49.975 
" style="fill: none; stroke: #000000; stroke-width: 0.8; stroke-linejoin: miter; stroke-linecap: square"/>
   </g>
   <g id="text_27">
    <!-- нагрузки возбуждения -->
    <g transform="translate(491.868605 34.975) scale(0.4 -0.4)">
     <use xlink:href="#TimesNewRomanPSMT-43d"/>
     <use xlink:href="#TimesNewRomanPSMT-430" x="53.515625"/>
     <use xlink:href="#TimesNewRomanPSMT-433" x="97.900391"/>
     <use xlink:href="#TimesNewRomanPSMT-440" x="138.916016"/>
     <use xlink:href="#TimesNewRomanPSMT-443" x="187.541016"/>
     <use xlink:href="#TimesNewRomanPSMT-437" x="237.541016"/>
     <use xlink:href="#TimesNewRomanPSMT-43a" x="277.042969"/>
     <use xlink:href="#TimesNewRomanPSMT-438" x="325.626953"/>
     <use xlink:href="#TimesNewRomanPSMT-20" x="379.142578"/>
     <use xlink:href="#TimesNewRomanPSMT-432" x="404.142578"/>
     <use xlink:href="#TimesNewRomanPSMT-43e" x="450.734375"/>
     <use xlink:href="#TimesNewRomanPSMT-437" x="500.734375"/>
     <use xlink:href="#TimesNewRomanPSMT-431" x="540.236328"/>
     <use xlink:href="#TimesNewRomanPSMT-443" x="587.365234"/>
     <use xlink:href="#TimesNewRomanPSMT-436" x="635.990234"/>
     <use xlink:href="#TimesNewRomanPSMT-434" x="705.082031"/>
     <use xlink:href="#TimesNewRomanPSMT-435" x="755.960938"/>
     <use xlink:href="#TimesNewRomanPSMT-43d" x="800.345703"/>
     <use xlink:href="#TimesNewRomanPSMT-438" x="853.861328"/>
     <use xlink:href="#TimesNewRomanPSMT-44f" x="907.376953"/>
    </g>
   </g>
   <g id="legend_2">
    <g id="patch_13">
     <path d="M 699.787836 211.365625 
L 823.209711 211.365625 
Q 828.209711 211.365625 828.209711 206.365625 
L 828.209711 67.475 
Q 828.209711 62.475 823.209711 62.475 
L 699.787836 62.475 
Q 694.787836 62.475 694.787836 67.475 
L 694.787836 206.365625 
Q 694.787836 211.365625 699.787836 211.365625 
z
" style="fill: #ffffff; opacity: 0.8; stroke: #cccccc; stroke-linejoin: miter"/>
    </g>
    <g id="line2d_51">
     <path d="M 704.787836 81.225 
L 729.787836 81.225 
L 754.787836 81.225 
" style="fill: none; stroke: #445cce; stroke-width: 3; stroke-linecap: square"/>
    </g>
    <g id="text_28">
     <!-- 1-ая -->
     <g transform="translate(774.787836 89.975) scale(0.25 -0.25)">
      <use xlink:href="#TimesNewRomanPSMT-31"/>
      <use xlink:href="#TimesNewRomanPSMT-2d" x="50"/>
      <use xlink:href="#TimesNewRomanPSMT-430" x="83.300781"/>
      <use xlink:href="#TimesNewRomanPSMT-44f" x="127.685547"/>
     </g>
    </g>
    <g id="line2d_52">
     <path d="M 704.787836 116.572656 
L 729.787836 116.572656 
L 754.787836 116.572656 
" style="fill: none; stroke: #84fe4f; stroke-width: 3; stroke-linecap: square"/>
    </g>
    <g id="text_29">
     <!-- 2-ая -->
     <g transform="translate(774.787836 125.322656) scale(0.25 -0.25)">
      <use xlink:href="#TimesNewRomanPSMT-32"/>
      <use xlink:href="#TimesNewRomanPSMT-2d" x="50"/>
      <use xlink:href="#TimesNewRomanPSMT-430" x="83.300781"/>
      <use xlink:href="#TimesNewRomanPSMT-44f" x="127.685547"/>
     </g>
    </g>
    <g id="line2d_53">
     <path d="M 704.787836 151.920312 
L 729.787836 151.920312 
L 754.787836 151.920312 
" style="fill: none; stroke: #f7c03a; stroke-width: 3; stroke-linecap: square"/>
    </g>
    <g id="text_30">
     <!-- 3-я -->
     <g transform="translate(774.787836 160.670312) scale(0.25 -0.25)">
      <use xlink:href="#TimesNewRomanPSMT-33"/>
      <use xlink:href="#TimesNewRomanPSMT-2d" x="50"/>
      <use xlink:href="#TimesNewRomanPSMT-44f" x="83.300781"/>
     </g>
    </g>
    <g id="line2d_54">
     <path d="M 704.787836 187.267969 
L 729.787836 187.267969 
L 754.787836 187.267969 
" style="fill: none; stroke: #790403; stroke-width: 3; stroke-linecap: square"/>
    </g>
    <g id="text_31">
     <!-- 4-ая -->
     <g transform="translate(774.787836 196.017969) scale(0.25 -0.25)">
      <use xlink:href="#TimesNewRomanPSMT-34"/>
      <use xlink:href="#TimesNewRomanPSMT-2d" x="50"/>
      <use xlink:href="#TimesNewRomanPSMT-430" x="83.300781"/>
      <use xlink:href="#TimesNewRomanPSMT-44f" x="127.685547"/>
     </g>
    </g>
   </g>
  </g>
 </g>
 <defs>
  <clipPath id="pc0f90e4d84">
   <rect x="78.2" y="49.975" width="316.332211" height="394.09"/>
  </clipPath>
  <clipPath id="pfe0d22f887">
   <rect x="524.3775" y="49.975" width="316.332211" height="394.09"/>
  </clipPath>
 </defs>
</svg>
