<?xml version="1.0" encoding="utf-8" standalone="no"?>
<!DOCTYPE svg PUBLIC "-//W3C//DTD SVG 1.1//EN"
  "http://www.w3.org/Graphics/SVG/1.1/DTD/svg11.dtd">
<svg xmlns:xlink="http://www.w3.org/1999/xlink" width="1718.605671pt" height="1045.435781pt" viewBox="0 0 1718.605671 1045.435781" xmlns="http://www.w3.org/2000/svg" version="1.1">
 <metadata>
  <rdf:RDF xmlns:dc="http://purl.org/dc/elements/1.1/" xmlns:cc="http://creativecommons.org/ns#" xmlns:rdf="http://www.w3.org/1999/02/22-rdf-syntax-ns#">
   <cc:Work>
    <dc:type rdf:resource="http://purl.org/dc/dcmitype/StillImage"/>
    <dc:date>2024-05-20T16:15:06.353215</dc:date>
    <dc:format>image/svg+xml</dc:format>
    <dc:creator>
     <cc:Agent>
      <dc:title>Matplotlib v3.6.3, https://matplotlib.org/</dc:title>
     </cc:Agent>
    </dc:creator>
   </cc:Work>
  </rdf:RDF>
 </metadata>
 <defs>
  <style type="text/css">*{stroke-linejoin: round; stroke-linecap: butt}</style>
 </defs>
 <g id="figure_1">
  <g id="patch_1">
   <path d="M 0 1045.435781 
L 1718.605671 1045.435781 
L 1718.605671 0 
L 0 0 
z
" style="fill: #ffffff"/>
  </g>
  <g id="axes_1">
   <g id="patch_2">
    <path d="M 83.25625 747.9 
L 834.355961 747.9 
L 834.355961 7.2 
L 83.25625 7.2 
z
" style="fill: #ffffff"/>
   </g>
   <g id="matplotlib.axis_1">
    <g id="xtick_1">
     <g id="line2d_1">
      <path d="M 217.321719 747.9 
L 217.321719 7.2 
" clip-path="url(#p62e1e57408)" style="fill: none; stroke: #000000; stroke-width: 0.7; stroke-linecap: square"/>
     </g>
     <g id="line2d_2">
      <defs>
       <path id="m5eb18089d5" d="M 0 0 
L 0 -10 
" style="stroke: #000000; stroke-width: 2"/>
      </defs>
      <g>
       <use xlink:href="#m5eb18089d5" x="217.321719" y="747.9" style="stroke: #000000; stroke-width: 2"/>
      </g>
     </g>
     <g id="text_1">
      <!-- 300 -->
      <g transform="translate(187.321719 790.675) scale(0.4 -0.4)">
       <defs>
        <path id="TimesNewRomanPSMT-33" d="M 325 3431 
Q 506 3859 782 4092 
Q 1059 4325 1472 4325 
Q 1981 4325 2253 3994 
Q 2459 3747 2459 3466 
Q 2459 3003 1878 2509 
Q 2269 2356 2469 2072 
Q 2669 1788 2669 1403 
Q 2669 853 2319 450 
Q 1863 -75 997 -75 
Q 569 -75 414 31 
Q 259 138 259 259 
Q 259 350 332 419 
Q 406 488 509 488 
Q 588 488 669 463 
Q 722 447 909 348 
Q 1097 250 1169 231 
Q 1284 197 1416 197 
Q 1734 197 1970 444 
Q 2206 691 2206 1028 
Q 2206 1275 2097 1509 
Q 2016 1684 1919 1775 
Q 1784 1900 1550 2001 
Q 1316 2103 1072 2103 
L 972 2103 
L 972 2197 
Q 1219 2228 1467 2375 
Q 1716 2522 1828 2728 
Q 1941 2934 1941 3181 
Q 1941 3503 1739 3701 
Q 1538 3900 1238 3900 
Q 753 3900 428 3381 
L 325 3431 
z
" transform="scale(0.015625)"/>
        <path id="TimesNewRomanPSMT-30" d="M 231 2094 
Q 231 2819 450 3342 
Q 669 3866 1031 4122 
Q 1313 4325 1613 4325 
Q 2100 4325 2488 3828 
Q 2972 3213 2972 2159 
Q 2972 1422 2759 906 
Q 2547 391 2217 158 
Q 1888 -75 1581 -75 
Q 975 -75 572 641 
Q 231 1244 231 2094 
z
M 844 2016 
Q 844 1141 1059 588 
Q 1238 122 1591 122 
Q 1759 122 1940 273 
Q 2122 425 2216 781 
Q 2359 1319 2359 2297 
Q 2359 3022 2209 3506 
Q 2097 3866 1919 4016 
Q 1791 4119 1609 4119 
Q 1397 4119 1231 3928 
Q 1006 3669 925 3112 
Q 844 2556 844 2016 
z
" transform="scale(0.015625)"/>
       </defs>
       <use xlink:href="#TimesNewRomanPSMT-33"/>
       <use xlink:href="#TimesNewRomanPSMT-30" x="50"/>
       <use xlink:href="#TimesNewRomanPSMT-30" x="100"/>
      </g>
     </g>
    </g>
    <g id="xtick_2">
     <g id="line2d_3">
      <path d="M 383.862675 747.9 
L 383.862675 7.2 
" clip-path="url(#p62e1e57408)" style="fill: none; stroke: #000000; stroke-width: 0.7; stroke-linecap: square"/>
     </g>
     <g id="line2d_4">
      <g>
       <use xlink:href="#m5eb18089d5" x="383.862675" y="747.9" style="stroke: #000000; stroke-width: 2"/>
      </g>
     </g>
     <g id="text_2">
      <!-- 400 -->
      <g transform="translate(353.862675 790.675) scale(0.4 -0.4)">
       <defs>
        <path id="TimesNewRomanPSMT-34" d="M 2978 1563 
L 2978 1119 
L 2409 1119 
L 2409 0 
L 1894 0 
L 1894 1119 
L 100 1119 
L 100 1519 
L 2066 4325 
L 2409 4325 
L 2409 1563 
L 2978 1563 
z
M 1894 1563 
L 1894 3666 
L 406 1563 
L 1894 1563 
z
" transform="scale(0.015625)"/>
       </defs>
       <use xlink:href="#TimesNewRomanPSMT-34"/>
       <use xlink:href="#TimesNewRomanPSMT-30" x="50"/>
       <use xlink:href="#TimesNewRomanPSMT-30" x="100"/>
      </g>
     </g>
    </g>
    <g id="xtick_3">
     <g id="line2d_5">
      <path d="M 550.403631 747.9 
L 550.403631 7.2 
" clip-path="url(#p62e1e57408)" style="fill: none; stroke: #000000; stroke-width: 0.7; stroke-linecap: square"/>
     </g>
     <g id="line2d_6">
      <g>
       <use xlink:href="#m5eb18089d5" x="550.403631" y="747.9" style="stroke: #000000; stroke-width: 2"/>
      </g>
     </g>
     <g id="text_3">
      <!-- 500 -->
      <g transform="translate(520.403631 790.675) scale(0.4 -0.4)">
       <defs>
        <path id="TimesNewRomanPSMT-35" d="M 2778 4238 
L 2534 3706 
L 1259 3706 
L 981 3138 
Q 1809 3016 2294 2522 
Q 2709 2097 2709 1522 
Q 2709 1188 2573 903 
Q 2438 619 2231 419 
Q 2025 219 1772 97 
Q 1413 -75 1034 -75 
Q 653 -75 479 54 
Q 306 184 306 341 
Q 306 428 378 495 
Q 450 563 559 563 
Q 641 563 702 538 
Q 763 513 909 409 
Q 1144 247 1384 247 
Q 1750 247 2026 523 
Q 2303 800 2303 1197 
Q 2303 1581 2056 1914 
Q 1809 2247 1375 2428 
Q 1034 2569 447 2591 
L 1259 4238 
L 2778 4238 
z
" transform="scale(0.015625)"/>
       </defs>
       <use xlink:href="#TimesNewRomanPSMT-35"/>
       <use xlink:href="#TimesNewRomanPSMT-30" x="50"/>
       <use xlink:href="#TimesNewRomanPSMT-30" x="100"/>
      </g>
     </g>
    </g>
    <g id="xtick_4">
     <g id="line2d_7">
      <path d="M 716.944587 747.9 
L 716.944587 7.2 
" clip-path="url(#p62e1e57408)" style="fill: none; stroke: #000000; stroke-width: 0.7; stroke-linecap: square"/>
     </g>
     <g id="line2d_8">
      <g>
       <use xlink:href="#m5eb18089d5" x="716.944587" y="747.9" style="stroke: #000000; stroke-width: 2"/>
      </g>
     </g>
     <g id="text_4">
      <!-- 600 -->
      <g transform="translate(686.944587 790.675) scale(0.4 -0.4)">
       <defs>
        <path id="TimesNewRomanPSMT-36" d="M 2869 4325 
L 2869 4209 
Q 2456 4169 2195 4045 
Q 1934 3922 1679 3669 
Q 1425 3416 1258 3105 
Q 1091 2794 978 2366 
Q 1428 2675 1881 2675 
Q 2316 2675 2634 2325 
Q 2953 1975 2953 1425 
Q 2953 894 2631 456 
Q 2244 -75 1606 -75 
Q 1172 -75 869 213 
Q 275 772 275 1663 
Q 275 2231 503 2743 
Q 731 3256 1154 3653 
Q 1578 4050 1965 4187 
Q 2353 4325 2688 4325 
L 2869 4325 
z
M 925 2138 
Q 869 1716 869 1456 
Q 869 1156 980 804 
Q 1091 453 1309 247 
Q 1469 100 1697 100 
Q 1969 100 2183 356 
Q 2397 613 2397 1088 
Q 2397 1622 2184 2012 
Q 1972 2403 1581 2403 
Q 1463 2403 1327 2353 
Q 1191 2303 925 2138 
z
" transform="scale(0.015625)"/>
       </defs>
       <use xlink:href="#TimesNewRomanPSMT-36"/>
       <use xlink:href="#TimesNewRomanPSMT-30" x="50"/>
       <use xlink:href="#TimesNewRomanPSMT-30" x="100"/>
      </g>
     </g>
    </g>
    <g id="text_5">
     <!-- длина волны  -->
     <g transform="translate(339.519543 843.395) scale(0.42 -0.42)">
      <defs>
       <path id="TimesNewRomanPSMT-434" d="M 591 2863 
L 3116 2863 
L 3116 2744 
Q 2903 2744 2833 2701 
Q 2763 2659 2722 2596 
Q 2681 2534 2681 2191 
L 2681 775 
Q 2681 328 2757 226 
Q 2834 125 3116 116 
L 3116 -794 
L 2997 -794 
Q 2984 -538 2870 -347 
Q 2756 -156 2553 -78 
Q 2350 0 1953 0 
L 1216 0 
Q 872 0 678 -61 
Q 484 -122 354 -315 
Q 225 -509 197 -794 
L 81 -794 
L 81 116 
Q 338 125 547 319 
Q 756 513 915 1078 
Q 1075 1644 1075 2191 
Q 1075 2728 591 2744 
L 591 2863 
z
M 1281 2659 
L 1281 2488 
Q 1281 953 725 203 
L 1788 203 
Q 2075 203 2119 251 
Q 2163 300 2163 609 
L 2163 2659 
L 1281 2659 
z
" transform="scale(0.015625)"/>
       <path id="TimesNewRomanPSMT-43b" d="M 494 2863 
L 3053 2863 
L 3053 2744 
Q 2841 2744 2770 2701 
Q 2700 2659 2659 2596 
Q 2619 2534 2619 2191 
L 2619 672 
Q 2619 341 2653 277 
Q 2688 213 2761 164 
Q 2834 116 3053 116 
L 3053 0 
L 1572 0 
L 1572 116 
Q 1813 116 1905 141 
Q 1997 166 2050 261 
Q 2103 356 2103 672 
L 2103 2659 
L 1150 2659 
L 1150 1453 
Q 1150 769 1089 492 
Q 1028 216 848 83 
Q 669 -50 438 -50 
Q 38 -50 38 281 
Q 38 394 102 466 
Q 166 538 269 538 
Q 378 538 472 447 
Q 594 328 656 328 
Q 797 328 861 564 
Q 925 800 925 1391 
L 925 2022 
Q 925 2509 854 2615 
Q 784 2722 494 2744 
L 494 2863 
z
" transform="scale(0.015625)"/>
       <path id="TimesNewRomanPSMT-438" d="M 1094 881 
L 2331 2313 
Q 2325 2553 2240 2647 
Q 2156 2741 1950 2744 
L 1950 2863 
L 3281 2863 
L 3281 2744 
Q 3072 2744 3000 2701 
Q 2928 2659 2887 2596 
Q 2847 2534 2847 2191 
L 2847 672 
Q 2847 341 2881 277 
Q 2916 213 2989 164 
Q 3063 116 3281 116 
L 3281 0 
L 1897 0 
L 1897 116 
Q 2156 116 2243 211 
Q 2331 306 2331 672 
L 2331 2019 
L 1094 584 
Q 1100 319 1169 219 
Q 1238 119 1466 116 
L 1466 0 
L 144 0 
L 144 116 
Q 422 116 500 217 
Q 578 319 578 672 
L 578 2191 
Q 578 2525 543 2586 
Q 509 2647 437 2695 
Q 366 2744 144 2744 
L 144 2863 
L 1528 2863 
L 1528 2744 
Q 1319 2744 1247 2701 
Q 1175 2659 1134 2596 
Q 1094 2534 1094 2191 
L 1094 881 
z
" transform="scale(0.015625)"/>
       <path id="TimesNewRomanPSMT-43d" d="M 1094 1584 
L 2331 1584 
L 2331 2191 
Q 2331 2463 2309 2545 
Q 2288 2628 2202 2686 
Q 2116 2744 1897 2744 
L 1897 2863 
L 3281 2863 
L 3281 2744 
Q 3088 2744 2998 2700 
Q 2909 2656 2878 2573 
Q 2847 2491 2847 2191 
L 2847 672 
Q 2847 400 2870 312 
Q 2894 225 2984 170 
Q 3075 116 3281 116 
L 3281 0 
L 1897 0 
L 1897 116 
Q 2156 116 2243 211 
Q 2331 306 2331 672 
L 2331 1381 
L 1094 1381 
L 1094 672 
Q 1094 400 1117 312 
Q 1141 225 1231 170 
Q 1322 116 1528 116 
L 1528 0 
L 144 0 
L 144 116 
Q 422 116 500 217 
Q 578 319 578 672 
L 578 2191 
Q 578 2463 554 2550 
Q 531 2638 440 2691 
Q 350 2744 144 2744 
L 144 2863 
L 1528 2863 
L 1528 2744 
Q 1334 2744 1245 2700 
Q 1156 2656 1125 2573 
Q 1094 2491 1094 2191 
L 1094 1584 
z
" transform="scale(0.015625)"/>
       <path id="TimesNewRomanPSMT-430" d="M 1822 413 
Q 1381 72 1269 19 
Q 1100 -59 909 -59 
Q 613 -59 420 144 
Q 228 347 228 678 
Q 228 888 322 1041 
Q 450 1253 767 1440 
Q 1084 1628 1822 1897 
L 1822 2009 
Q 1822 2438 1686 2597 
Q 1550 2756 1291 2756 
Q 1094 2756 978 2650 
Q 859 2544 859 2406 
L 866 2225 
Q 866 2081 792 2003 
Q 719 1925 600 1925 
Q 484 1925 411 2006 
Q 338 2088 338 2228 
Q 338 2497 613 2722 
Q 888 2947 1384 2947 
Q 1766 2947 2009 2819 
Q 2194 2722 2281 2516 
Q 2338 2381 2338 1966 
L 2338 994 
Q 2338 584 2353 492 
Q 2369 400 2405 369 
Q 2441 338 2488 338 
Q 2538 338 2575 359 
Q 2641 400 2828 588 
L 2828 413 
Q 2478 -56 2159 -56 
Q 2006 -56 1915 50 
Q 1825 156 1822 413 
z
M 1822 616 
L 1822 1706 
Q 1350 1519 1213 1441 
Q 966 1303 859 1153 
Q 753 1003 753 825 
Q 753 600 887 451 
Q 1022 303 1197 303 
Q 1434 303 1822 616 
z
" transform="scale(0.015625)"/>
       <path id="TimesNewRomanPSMT-20" transform="scale(0.015625)"/>
       <path id="TimesNewRomanPSMT-432" d="M 2016 1513 
Q 2800 1350 2800 778 
Q 2800 388 2473 194 
Q 2147 0 1563 0 
L 150 0 
L 150 116 
Q 428 116 501 220 
Q 575 325 575 672 
L 575 2191 
Q 575 2528 542 2587 
Q 509 2647 439 2695 
Q 369 2744 150 2744 
L 150 2863 
L 1469 2863 
Q 1850 2863 2086 2803 
Q 2322 2744 2473 2569 
Q 2625 2394 2625 2144 
Q 2625 1656 2016 1513 
z
M 1094 1584 
Q 1231 1581 1259 1581 
Q 1688 1581 1878 1745 
Q 2069 1909 2069 2144 
Q 2069 2416 1875 2537 
Q 1681 2659 1256 2659 
L 1094 2659 
L 1094 1584 
z
M 1094 253 
Q 1250 203 1466 203 
Q 1838 203 2019 365 
Q 2200 528 2200 784 
Q 2200 1072 1965 1225 
Q 1731 1378 1316 1378 
Q 1213 1378 1094 1372 
L 1094 253 
z
" transform="scale(0.015625)"/>
       <path id="TimesNewRomanPSMT-43e" d="M 1600 2947 
Q 2250 2947 2644 2453 
Q 2978 2031 2978 1484 
Q 2978 1100 2793 706 
Q 2609 313 2286 112 
Q 1963 -88 1566 -88 
Q 919 -88 538 428 
Q 216 863 216 1403 
Q 216 1797 411 2186 
Q 606 2575 925 2761 
Q 1244 2947 1600 2947 
z
M 1503 2744 
Q 1338 2744 1170 2645 
Q 1003 2547 900 2300 
Q 797 2053 797 1666 
Q 797 1041 1045 587 
Q 1294 134 1700 134 
Q 2003 134 2200 384 
Q 2397 634 2397 1244 
Q 2397 2006 2069 2444 
Q 1847 2744 1503 2744 
z
" transform="scale(0.015625)"/>
       <path id="TimesNewRomanPSMT-44b" d="M 2716 2744 
L 2716 2863 
L 4156 2863 
L 4156 2744 
Q 3966 2744 3878 2703 
Q 3791 2663 3758 2578 
Q 3725 2494 3725 2191 
L 3725 672 
Q 3725 378 3753 292 
Q 3781 206 3873 161 
Q 3966 116 4156 116 
L 4156 0 
L 2716 0 
L 2716 116 
Q 2959 125 3032 148 
Q 3106 172 3156 269 
Q 3206 366 3206 672 
L 3206 2191 
Q 3206 2494 3172 2581 
Q 3138 2669 3052 2705 
Q 2966 2741 2716 2744 
z
M 1091 1588 
L 1447 1594 
Q 2722 1594 2722 806 
Q 2722 441 2411 220 
Q 2100 0 1516 0 
L 141 0 
L 141 116 
Q 419 116 497 217 
Q 575 319 575 672 
L 575 2191 
Q 575 2525 540 2586 
Q 506 2647 434 2695 
Q 363 2744 141 2744 
L 141 2863 
L 1638 2863 
L 1638 2744 
Q 1328 2744 1256 2708 
Q 1184 2672 1137 2614 
Q 1091 2556 1091 2191 
L 1091 1588 
z
M 1091 247 
Q 1256 203 1422 203 
Q 1734 203 1929 368 
Q 2125 534 2125 788 
Q 2125 1388 1291 1388 
Q 1219 1388 1091 1384 
L 1091 247 
z
" transform="scale(0.015625)"/>
      </defs>
      <use xlink:href="#TimesNewRomanPSMT-434"/>
      <use xlink:href="#TimesNewRomanPSMT-43b" x="50.878906"/>
      <use xlink:href="#TimesNewRomanPSMT-438" x="100.78125"/>
      <use xlink:href="#TimesNewRomanPSMT-43d" x="154.296875"/>
      <use xlink:href="#TimesNewRomanPSMT-430" x="207.8125"/>
      <use xlink:href="#TimesNewRomanPSMT-20" x="252.197266"/>
      <use xlink:href="#TimesNewRomanPSMT-432" x="277.197266"/>
      <use xlink:href="#TimesNewRomanPSMT-43e" x="323.789062"/>
      <use xlink:href="#TimesNewRomanPSMT-43b" x="372.414062"/>
      <use xlink:href="#TimesNewRomanPSMT-43d" x="422.316406"/>
      <use xlink:href="#TimesNewRomanPSMT-44b" x="475.832031"/>
      <use xlink:href="#TimesNewRomanPSMT-20" x="543.019531"/>
     </g>
     <!-- регистрации, нм -->
     <g transform="translate(311.806105 887.375562) scale(0.42 -0.42)">
      <defs>
       <path id="TimesNewRomanPSMT-440" d="M -6 2578 
L 875 2934 
L 994 2934 
L 994 2266 
Q 1216 2644 1439 2795 
Q 1663 2947 1909 2947 
Q 2341 2947 2628 2609 
Q 2981 2197 2981 1534 
Q 2981 794 2556 309 
Q 2206 -88 1675 -88 
Q 1444 -88 1275 -22 
Q 1150 25 994 166 
L 994 -706 
Q 994 -1000 1030 -1079 
Q 1066 -1159 1155 -1206 
Q 1244 -1253 1478 -1253 
L 1478 -1369 
L -22 -1369 
L -22 -1253 
L 56 -1253 
Q 228 -1256 350 -1188 
Q 409 -1153 442 -1076 
Q 475 -1000 475 -688 
L 475 2019 
Q 475 2297 450 2372 
Q 425 2447 370 2484 
Q 316 2522 222 2522 
Q 147 2522 31 2478 
L -6 2578 
z
M 994 2081 
L 994 1013 
Q 994 666 1022 556 
Q 1066 375 1236 237 
Q 1406 100 1666 100 
Q 1978 100 2172 344 
Q 2425 663 2425 1241 
Q 2425 1897 2138 2250 
Q 1938 2494 1663 2494 
Q 1513 2494 1366 2419 
Q 1253 2363 994 2081 
z
" transform="scale(0.015625)"/>
       <path id="TimesNewRomanPSMT-435" d="M 681 1784 
Q 678 1147 991 784 
Q 1303 422 1725 422 
Q 2006 422 2214 576 
Q 2422 731 2563 1106 
L 2659 1044 
Q 2594 616 2278 264 
Q 1963 -88 1488 -88 
Q 972 -88 605 314 
Q 238 716 238 1394 
Q 238 2128 614 2539 
Q 991 2950 1559 2950 
Q 2041 2950 2350 2633 
Q 2659 2316 2659 1784 
L 681 1784 
z
M 681 1966 
L 2006 1966 
Q 1991 2241 1941 2353 
Q 1863 2528 1708 2628 
Q 1553 2728 1384 2728 
Q 1125 2728 920 2526 
Q 716 2325 681 1966 
z
" transform="scale(0.015625)"/>
       <path id="TimesNewRomanPSMT-433" d="M 2469 2863 
L 2584 2081 
L 2447 2081 
Q 2328 2469 2208 2564 
Q 2088 2659 1700 2659 
L 1094 2659 
L 1094 672 
Q 1094 341 1128 277 
Q 1163 213 1236 164 
Q 1309 116 1528 116 
L 1528 0 
L 97 0 
L 97 116 
Q 403 122 490 211 
Q 578 300 578 672 
L 578 2191 
Q 578 2494 543 2580 
Q 509 2666 423 2703 
Q 338 2741 97 2744 
L 97 2863 
L 2469 2863 
z
" transform="scale(0.015625)"/>
       <path id="TimesNewRomanPSMT-441" d="M 2631 1088 
Q 2516 522 2178 217 
Q 1841 -88 1431 -88 
Q 944 -88 581 321 
Q 219 731 219 1428 
Q 219 2103 620 2525 
Q 1022 2947 1584 2947 
Q 2006 2947 2278 2723 
Q 2550 2500 2550 2259 
Q 2550 2141 2473 2067 
Q 2397 1994 2259 1994 
Q 2075 1994 1981 2113 
Q 1928 2178 1911 2362 
Q 1894 2547 1784 2644 
Q 1675 2738 1481 2738 
Q 1169 2738 978 2506 
Q 725 2200 725 1697 
Q 725 1184 976 792 
Q 1228 400 1656 400 
Q 1963 400 2206 609 
Q 2378 753 2541 1131 
L 2631 1088 
z
" transform="scale(0.015625)"/>
       <path id="TimesNewRomanPSMT-442" d="M 156 2863 
L 2631 2863 
L 2756 2088 
L 2616 2088 
Q 2578 2322 2490 2450 
Q 2403 2578 2290 2618 
Q 2178 2659 1906 2659 
L 1656 2659 
L 1656 672 
Q 1656 353 1695 267 
Q 1734 181 1821 153 
Q 1909 125 2222 116 
L 2222 0 
L 666 0 
L 666 116 
Q 966 122 1052 212 
Q 1138 303 1138 672 
L 1138 2659 
L 881 2659 
Q 613 2659 516 2626 
Q 419 2594 330 2470 
Q 241 2347 178 2088 
L 38 2088 
L 156 2863 
z
" transform="scale(0.015625)"/>
       <path id="TimesNewRomanPSMT-446" d="M 3281 116 
L 3281 -794 
L 3166 -794 
Q 3156 -428 2926 -214 
Q 2697 0 2094 0 
L 144 0 
L 144 116 
Q 422 116 500 217 
Q 578 319 578 672 
L 578 2191 
Q 578 2525 543 2586 
Q 509 2647 437 2695 
Q 366 2744 144 2744 
L 144 2863 
L 1528 2863 
L 1528 2744 
Q 1319 2744 1247 2701 
Q 1175 2659 1134 2596 
Q 1094 2534 1094 2191 
L 1094 575 
Q 1094 303 1142 253 
Q 1191 203 1453 203 
L 1959 203 
Q 2250 203 2290 256 
Q 2331 309 2331 600 
L 2331 2191 
Q 2331 2488 2300 2573 
Q 2269 2659 2178 2701 
Q 2088 2744 1897 2744 
L 1897 2863 
L 3281 2863 
L 3281 2744 
Q 3072 2744 3000 2701 
Q 2928 2659 2887 2596 
Q 2847 2534 2847 2191 
L 2847 719 
Q 2847 316 2919 222 
Q 2991 128 3281 116 
z
" transform="scale(0.015625)"/>
       <path id="TimesNewRomanPSMT-2c" d="M 344 -1066 
L 344 -928 
Q 666 -822 842 -598 
Q 1019 -375 1019 -125 
Q 1019 -66 991 -25 
Q 969 3 947 3 
Q 913 3 797 -59 
Q 741 -88 678 -88 
Q 525 -88 434 3 
Q 344 94 344 253 
Q 344 406 461 515 
Q 578 625 747 625 
Q 953 625 1114 445 
Q 1275 266 1275 -31 
Q 1275 -353 1051 -629 
Q 828 -906 344 -1066 
z
" transform="scale(0.015625)"/>
       <path id="TimesNewRomanPSMT-43c" d="M 2050 747 
L 2944 2863 
L 3909 2863 
L 3909 2744 
Q 3697 2744 3626 2701 
Q 3556 2659 3515 2596 
Q 3475 2534 3475 2191 
L 3475 672 
Q 3475 375 3504 289 
Q 3534 203 3626 159 
Q 3719 116 3909 116 
L 3909 0 
L 2525 0 
L 2525 116 
Q 2781 116 2868 211 
Q 2956 306 2956 672 
L 2956 2394 
L 1944 0 
L 1834 0 
L 803 2394 
L 803 672 
Q 803 375 834 289 
Q 866 203 956 159 
Q 1047 116 1238 116 
L 1238 0 
L 144 0 
L 144 116 
Q 422 116 500 217 
Q 578 319 578 672 
L 578 2191 
Q 578 2525 543 2586 
Q 509 2647 437 2695 
Q 366 2744 144 2744 
L 144 2863 
L 1150 2863 
L 2050 747 
z
" transform="scale(0.015625)"/>
      </defs>
      <use xlink:href="#TimesNewRomanPSMT-440"/>
      <use xlink:href="#TimesNewRomanPSMT-435" x="50"/>
      <use xlink:href="#TimesNewRomanPSMT-433" x="94.384766"/>
      <use xlink:href="#TimesNewRomanPSMT-438" x="135.400391"/>
      <use xlink:href="#TimesNewRomanPSMT-441" x="188.916016"/>
      <use xlink:href="#TimesNewRomanPSMT-442" x="233.300781"/>
      <use xlink:href="#TimesNewRomanPSMT-440" x="278.251953"/>
      <use xlink:href="#TimesNewRomanPSMT-430" x="328.251953"/>
      <use xlink:href="#TimesNewRomanPSMT-446" x="372.636719"/>
      <use xlink:href="#TimesNewRomanPSMT-438" x="426.152344"/>
      <use xlink:href="#TimesNewRomanPSMT-438" x="479.667969"/>
      <use xlink:href="#TimesNewRomanPSMT-2c" x="533.183594"/>
      <use xlink:href="#TimesNewRomanPSMT-20" x="558.183594"/>
      <use xlink:href="#TimesNewRomanPSMT-43d" x="583.183594"/>
      <use xlink:href="#TimesNewRomanPSMT-43c" x="636.699219"/>
     </g>
    </g>
   </g>
   <g id="matplotlib.axis_2">
    <g id="ytick_1">
     <g id="line2d_9">
      <path d="M 83.25625 655.106215 
L 834.355961 655.106215 
" clip-path="url(#p62e1e57408)" style="fill: none; stroke: #000000; stroke-width: 0.7; stroke-linecap: square"/>
     </g>
     <g id="line2d_10">
      <defs>
       <path id="me12f8fe6cf" d="M 0 0 
L 10 0 
" style="stroke: #000000; stroke-width: 2"/>
      </defs>
      <g>
       <use xlink:href="#me12f8fe6cf" x="83.25625" y="655.106215" style="stroke: #000000; stroke-width: 2"/>
      </g>
     </g>
     <g id="text_6">
      <!-- −0.2 -->
      <g transform="translate(7.2 668.993715) scale(0.4 -0.4)">
       <defs>
        <path id="TimesNewRomanPSMT-2212" d="M 3484 2000 
L 116 2000 
L 116 2256 
L 3484 2256 
L 3484 2000 
z
" transform="scale(0.015625)"/>
        <path id="TimesNewRomanPSMT-2e" d="M 800 606 
Q 947 606 1047 504 
Q 1147 403 1147 259 
Q 1147 116 1045 14 
Q 944 -88 800 -88 
Q 656 -88 554 14 
Q 453 116 453 259 
Q 453 406 554 506 
Q 656 606 800 606 
z
" transform="scale(0.015625)"/>
        <path id="TimesNewRomanPSMT-32" d="M 2934 816 
L 2638 0 
L 138 0 
L 138 116 
Q 1241 1122 1691 1759 
Q 2141 2397 2141 2925 
Q 2141 3328 1894 3587 
Q 1647 3847 1303 3847 
Q 991 3847 742 3664 
Q 494 3481 375 3128 
L 259 3128 
Q 338 3706 661 4015 
Q 984 4325 1469 4325 
Q 1984 4325 2329 3994 
Q 2675 3663 2675 3213 
Q 2675 2891 2525 2569 
Q 2294 2063 1775 1497 
Q 997 647 803 472 
L 1909 472 
Q 2247 472 2383 497 
Q 2519 522 2628 598 
Q 2738 675 2819 816 
L 2934 816 
z
" transform="scale(0.015625)"/>
       </defs>
       <use xlink:href="#TimesNewRomanPSMT-2212"/>
       <use xlink:href="#TimesNewRomanPSMT-30" x="56.396484"/>
       <use xlink:href="#TimesNewRomanPSMT-2e" x="106.396484"/>
       <use xlink:href="#TimesNewRomanPSMT-32" x="131.396484"/>
      </g>
     </g>
    </g>
    <g id="ytick_2">
     <g id="line2d_11">
      <path d="M 83.25625 545.886536 
L 834.355961 545.886536 
" clip-path="url(#p62e1e57408)" style="fill: none; stroke: #000000; stroke-width: 0.7; stroke-linecap: square"/>
     </g>
     <g id="line2d_12">
      <g>
       <use xlink:href="#me12f8fe6cf" x="83.25625" y="545.886536" style="stroke: #000000; stroke-width: 2"/>
      </g>
     </g>
     <g id="text_7">
      <!-- −0.1 -->
      <g transform="translate(7.2 559.774036) scale(0.4 -0.4)">
       <defs>
        <path id="TimesNewRomanPSMT-31" d="M 750 3822 
L 1781 4325 
L 1884 4325 
L 1884 747 
Q 1884 391 1914 303 
Q 1944 216 2037 169 
Q 2131 122 2419 116 
L 2419 0 
L 825 0 
L 825 116 
Q 1125 122 1212 167 
Q 1300 213 1334 289 
Q 1369 366 1369 747 
L 1369 3034 
Q 1369 3497 1338 3628 
Q 1316 3728 1258 3775 
Q 1200 3822 1119 3822 
Q 1003 3822 797 3725 
L 750 3822 
z
" transform="scale(0.015625)"/>
       </defs>
       <use xlink:href="#TimesNewRomanPSMT-2212"/>
       <use xlink:href="#TimesNewRomanPSMT-30" x="56.396484"/>
       <use xlink:href="#TimesNewRomanPSMT-2e" x="106.396484"/>
       <use xlink:href="#TimesNewRomanPSMT-31" x="131.396484"/>
      </g>
     </g>
    </g>
    <g id="ytick_3">
     <g id="line2d_13">
      <path d="M 83.25625 436.666858 
L 834.355961 436.666858 
" clip-path="url(#p62e1e57408)" style="fill: none; stroke: #000000; stroke-width: 0.7; stroke-linecap: square"/>
     </g>
     <g id="line2d_14">
      <g>
       <use xlink:href="#me12f8fe6cf" x="83.25625" y="436.666858" style="stroke: #000000; stroke-width: 2"/>
      </g>
     </g>
     <g id="text_8">
      <!-- 0.0 -->
      <g transform="translate(29.75625 450.554358) scale(0.4 -0.4)">
       <use xlink:href="#TimesNewRomanPSMT-30"/>
       <use xlink:href="#TimesNewRomanPSMT-2e" x="50"/>
       <use xlink:href="#TimesNewRomanPSMT-30" x="75"/>
      </g>
     </g>
    </g>
    <g id="ytick_4">
     <g id="line2d_15">
      <path d="M 83.25625 327.44718 
L 834.355961 327.44718 
" clip-path="url(#p62e1e57408)" style="fill: none; stroke: #000000; stroke-width: 0.7; stroke-linecap: square"/>
     </g>
     <g id="line2d_16">
      <g>
       <use xlink:href="#me12f8fe6cf" x="83.25625" y="327.44718" style="stroke: #000000; stroke-width: 2"/>
      </g>
     </g>
     <g id="text_9">
      <!-- 0.1 -->
      <g transform="translate(29.75625 341.33468) scale(0.4 -0.4)">
       <use xlink:href="#TimesNewRomanPSMT-30"/>
       <use xlink:href="#TimesNewRomanPSMT-2e" x="50"/>
       <use xlink:href="#TimesNewRomanPSMT-31" x="75"/>
      </g>
     </g>
    </g>
    <g id="ytick_5">
     <g id="line2d_17">
      <path d="M 83.25625 218.227501 
L 834.355961 218.227501 
" clip-path="url(#p62e1e57408)" style="fill: none; stroke: #000000; stroke-width: 0.7; stroke-linecap: square"/>
     </g>
     <g id="line2d_18">
      <g>
       <use xlink:href="#me12f8fe6cf" x="83.25625" y="218.227501" style="stroke: #000000; stroke-width: 2"/>
      </g>
     </g>
     <g id="text_10">
      <!-- 0.2 -->
      <g transform="translate(29.75625 232.115001) scale(0.4 -0.4)">
       <use xlink:href="#TimesNewRomanPSMT-30"/>
       <use xlink:href="#TimesNewRomanPSMT-2e" x="50"/>
       <use xlink:href="#TimesNewRomanPSMT-32" x="75"/>
      </g>
     </g>
    </g>
    <g id="ytick_6">
     <g id="line2d_19">
      <path d="M 83.25625 109.007823 
L 834.355961 109.007823 
" clip-path="url(#p62e1e57408)" style="fill: none; stroke: #000000; stroke-width: 0.7; stroke-linecap: square"/>
     </g>
     <g id="line2d_20">
      <g>
       <use xlink:href="#me12f8fe6cf" x="83.25625" y="109.007823" style="stroke: #000000; stroke-width: 2"/>
      </g>
     </g>
     <g id="text_11">
      <!-- 0.3 -->
      <g transform="translate(29.75625 122.895323) scale(0.4 -0.4)">
       <use xlink:href="#TimesNewRomanPSMT-30"/>
       <use xlink:href="#TimesNewRomanPSMT-2e" x="50"/>
       <use xlink:href="#TimesNewRomanPSMT-33" x="75"/>
      </g>
     </g>
    </g>
   </g>
   <g id="line2d_21">
    <path d="M 117.397146 436.666858 
L 144.043699 436.761536 
L 147.374518 436.855591 
L 157.366975 438.217917 
L 164.028614 440.152875 
L 167.359433 441.974032 
L 170.690252 443.560556 
L 174.021071 444.913119 
L 177.35189 448.631171 
L 180.682709 451.596499 
L 184.013528 458.747077 
L 187.344347 464.556266 
L 190.675167 469.557965 
L 194.005986 480.752459 
L 197.336805 490.277851 
L 200.667624 499.122278 
L 203.998443 506.664944 
L 207.329262 513.260748 
L 210.660081 518.5724 
L 213.9909 522.424903 
L 217.321719 525.187376 
L 220.652539 526.562358 
L 223.983358 527.308111 
L 230.644996 527.84933 
L 233.975815 528.276787 
L 237.306634 529.541552 
L 240.637453 531.520753 
L 243.968272 534.650398 
L 247.299091 538.528529 
L 250.629911 543.276288 
L 253.96073 548.884031 
L 257.291549 555.59326 
L 263.953187 571.177675 
L 267.284006 579.696779 
L 273.945644 595.518424 
L 280.607283 608.558311 
L 283.938102 614.427101 
L 287.268921 619.250405 
L 290.59974 623.434966 
L 293.930559 626.428618 
L 297.261378 629.021071 
L 300.592197 630.597188 
L 303.923016 631.30591 
L 307.253836 630.93134 
L 310.584655 629.088827 
L 313.915474 626.488434 
L 317.246293 623.399234 
L 320.577112 619.579959 
L 323.907931 614.859151 
L 327.23875 609.583773 
L 330.569569 603.573298 
L 333.900389 597.240125 
L 347.223665 570.447228 
L 353.885303 558.382961 
L 360.546941 546.696411 
L 367.20858 535.924199 
L 373.870218 526.132669 
L 377.201037 521.607321 
L 380.531856 517.806682 
L 383.862675 513.696959 
L 387.193494 510.013629 
L 393.855133 503.184547 
L 397.185952 500.184876 
L 403.84759 494.624261 
L 410.509228 489.918908 
L 413.840047 487.893154 
L 423.832505 482.834334 
L 427.163324 481.252781 
L 437.155781 477.714287 
L 443.817419 475.898191 
L 457.140696 473.346027 
L 467.133153 471.897145 
L 470.463972 471.614798 
L 473.794791 471.187611 
L 497.110525 469.683871 
L 550.403631 467.763713 
L 573.719365 467.060233 
L 593.70428 466.313924 
L 620.350833 465.112123 
L 627.012471 464.661693 
L 653.659024 462.342011 
L 666.9823 461.764412 
L 673.643938 461.558486 
L 676.974757 461.327329 
L 686.967215 460.963253 
L 700.290491 460.225316 
L 716.944587 458.714241 
L 740.260321 455.736628 
L 746.921959 454.8931 
L 766.906874 452.748318 
L 783.560969 451.570042 
L 796.884246 451.101287 
L 800.215065 451.061189 
L 800.215065 451.061189 
" clip-path="url(#p62e1e57408)" style="fill: none; stroke: #ff0000; stroke-width: 4; stroke-linecap: square"/>
   </g>
   <g id="line2d_22">
    <path d="M 117.397146 436.666858 
L 140.71288 436.666858 
L 154.036156 438.143477 
L 157.366975 438.43636 
L 164.028614 438.293031 
L 167.359433 439.603697 
L 170.690252 440.618588 
L 174.021071 441.356707 
L 177.35189 449.802388 
L 180.682709 455.672842 
L 184.013528 480.899748 
L 187.344347 495.962775 
L 190.675167 508.817521 
L 194.005986 560.907762 
L 197.336805 603.028953 
L 200.667624 631.119588 
L 207.329262 676.769216 
L 210.660081 694.602588 
L 213.9909 707.568128 
L 217.321719 714.231818 
L 220.652539 713.802432 
L 223.983358 709.999997 
L 227.314177 698.481698 
L 230.644996 688.015564 
L 233.975815 670.404283 
L 237.306634 651.481282 
L 243.968272 615.975622 
L 250.629911 577.453988 
L 260.622368 525.93749 
L 263.953187 511.59589 
L 267.284006 491.499077 
L 273.945644 462.452104 
L 277.276464 456.497284 
L 280.607283 447.312661 
L 283.938102 433.012987 
L 287.268921 426.26565 
L 290.59974 417.158588 
L 293.930559 409.341916 
L 297.261378 400.594638 
L 303.923016 389.792667 
L 307.253836 386.445813 
L 310.584655 380.893388 
L 313.915474 378.66247 
L 317.246293 373.884088 
L 320.577112 374.365224 
L 323.907931 370.091931 
L 327.23875 371.839758 
L 330.569569 371.323361 
L 333.900389 368.922762 
L 337.231208 369.51426 
L 340.562027 371.625432 
L 343.892846 371.946719 
L 347.223665 374.34687 
L 353.885303 372.128594 
L 357.216122 373.28969 
L 360.546941 376.940111 
L 363.877761 376.826245 
L 367.20858 376.363007 
L 373.870218 380.988673 
L 377.201037 381.263285 
L 380.531856 381.749223 
L 383.862675 381.393554 
L 387.193494 384.326748 
L 390.524313 385.405449 
L 393.855133 384.889892 
L 397.185952 386.794103 
L 400.516771 387.591585 
L 403.84759 387.781857 
L 407.178409 388.659994 
L 410.509228 388.954967 
L 413.840047 389.880667 
L 417.170866 389.122668 
L 423.832505 391.625288 
L 427.163324 392.565062 
L 430.494143 391.048035 
L 437.155781 392.402263 
L 440.4866 392.364067 
L 443.817419 393.734087 
L 450.479058 392.47881 
L 453.809877 392.688065 
L 457.140696 393.38903 
L 460.471515 393.39423 
L 463.802334 392.971762 
L 467.133153 394.244291 
L 470.463972 392.968569 
L 473.794791 393.081109 
L 480.45643 394.449636 
L 483.787249 393.789767 
L 487.118068 394.351723 
L 490.448887 392.76867 
L 493.779706 394.451874 
L 500.441344 394.104752 
L 503.772163 394.302728 
L 507.102983 394.257323 
L 510.433802 393.781587 
L 517.09544 395.009387 
L 520.426259 394.936337 
L 523.757078 395.218423 
L 527.087897 396.015252 
L 530.418716 395.662476 
L 533.749535 396.202212 
L 537.080355 396.459984 
L 540.411174 397.007554 
L 543.741993 396.913111 
L 547.072812 397.447695 
L 550.403631 397.56559 
L 553.73445 398.128363 
L 557.065269 398.05644 
L 560.396088 398.51352 
L 563.726908 398.661765 
L 587.042641 400.902486 
L 610.358375 403.707097 
L 613.689194 403.811875 
L 617.020013 404.520421 
L 620.350833 404.687305 
L 627.012471 405.908074 
L 633.674109 407.00649 
L 637.004928 407.905316 
L 640.335747 408.486099 
L 643.666566 409.411372 
L 646.997385 410.112611 
L 650.328205 411.356829 
L 656.989843 413.219061 
L 660.320662 414.45064 
L 663.651481 416.057196 
L 670.313119 420.250712 
L 673.643938 422.122632 
L 676.974757 423.811009 
L 680.305577 424.889135 
L 683.636396 426.75307 
L 686.967215 428.217696 
L 690.298034 429.403052 
L 693.628853 431.083708 
L 696.959672 432.143776 
L 700.290491 432.156381 
L 703.62131 433.849126 
L 706.95213 434.272986 
L 710.282949 435.896673 
L 713.613768 436.93093 
L 716.944587 438.215475 
L 720.275406 438.881375 
L 723.606225 439.996898 
L 726.937044 441.514283 
L 730.267863 443.167996 
L 733.598682 443.335291 
L 736.929502 444.588365 
L 740.260321 445.387426 
L 743.59114 446.496106 
L 746.921959 446.659774 
L 750.252778 447.173552 
L 753.583597 446.959732 
L 756.914416 447.654317 
L 760.245235 447.011845 
L 763.576055 446.633373 
L 766.906874 446.948801 
L 770.237693 446.008259 
L 776.899331 445.369251 
L 783.560969 443.378197 
L 786.891788 443.412531 
L 790.222607 442.659877 
L 796.884246 441.448209 
L 800.215065 442.420766 
L 800.215065 442.420766 
" clip-path="url(#p62e1e57408)" style="fill: none; stroke: #008000; stroke-width: 4; stroke-linecap: square"/>
   </g>
   <g id="line2d_23">
    <path d="M 117.397146 436.666858 
L 140.71288 436.666858 
L 144.043699 438.139465 
L 147.374518 439.312597 
L 150.705337 433.095391 
L 154.036156 426.617807 
L 157.366975 419.772388 
L 160.697794 395.044883 
L 164.028614 372.579472 
L 174.021071 290.86464 
L 177.35189 272.68115 
L 184.013528 264.961714 
L 187.344347 234.754618 
L 190.675167 200.654281 
L 194.005986 237.655009 
L 197.336805 348.824368 
L 200.667624 451.213857 
L 203.998443 560.006831 
L 207.329262 541.436743 
L 210.660081 559.326177 
L 213.9909 600.02019 
L 217.321719 633.790603 
L 220.652539 634.631903 
L 223.983358 612.305748 
L 227.314177 606.151192 
L 230.644996 646.808455 
L 233.975815 574.005499 
L 237.306634 529.564878 
L 240.637453 508.553275 
L 243.968272 488.343545 
L 247.299091 460.082656 
L 250.629911 375.278646 
L 253.96073 379.245858 
L 257.291549 357.021783 
L 260.622368 366.845277 
L 263.953187 368.327432 
L 267.284006 339.120899 
L 270.614825 328.605781 
L 273.945644 322.146207 
L 277.276464 387.787949 
L 280.607283 420.859356 
L 283.938102 362.46732 
L 287.268921 398.816221 
L 290.59974 485.505334 
L 293.930559 402.788668 
L 297.261378 399.504058 
L 300.592197 417.982992 
L 303.923016 425.331461 
L 307.253836 429.395125 
L 310.584655 435.61043 
L 313.915474 476.743956 
L 317.246293 420.675862 
L 320.577112 472.27389 
L 323.907931 441.663186 
L 327.23875 510.524159 
L 330.569569 515.779063 
L 333.900389 457.953202 
L 337.231208 475.68936 
L 340.562027 516.970471 
L 343.892846 459.37494 
L 347.223665 487.726149 
L 350.554484 484.022025 
L 353.885303 464.106351 
L 357.216122 412.303157 
L 360.546941 526.014081 
L 363.877761 432.428112 
L 367.20858 446.872245 
L 370.539399 444.324212 
L 373.870218 456.522151 
L 377.201037 445.042997 
L 380.531856 443.248039 
L 383.862675 421.544102 
L 387.193494 431.049872 
L 390.524313 421.77768 
L 393.855133 398.841526 
L 397.185952 406.422845 
L 400.516771 406.540121 
L 403.84759 383.514781 
L 407.178409 380.615813 
L 410.509228 368.285683 
L 413.840047 357.020354 
L 417.170866 364.004963 
L 420.501686 332.360106 
L 423.832505 350.232035 
L 427.163324 367.12726 
L 430.494143 363.411548 
L 433.824962 345.411509 
L 437.155781 366.843426 
L 440.4866 368.37716 
L 443.817419 364.038339 
L 447.148238 345.741943 
L 450.479058 323.67844 
L 453.809877 352.787702 
L 457.140696 351.10314 
L 460.471515 342.444792 
L 463.802334 323.669139 
L 467.133153 344.663011 
L 470.463972 334.768672 
L 473.794791 342.795727 
L 477.125611 339.960359 
L 480.45643 356.25801 
L 483.787249 370.277804 
L 487.118068 356.485496 
L 490.448887 344.298142 
L 493.779706 358.266664 
L 497.110525 365.469419 
L 500.441344 376.026657 
L 503.772163 363.021729 
L 507.102983 375.395811 
L 510.433802 376.737015 
L 513.764621 390.701714 
L 517.09544 385.741851 
L 520.426259 395.932482 
L 523.757078 396.892601 
L 527.087897 408.553904 
L 530.418716 412.658468 
L 533.749535 421.755418 
L 537.080355 417.333123 
L 540.411174 424.68861 
L 543.741993 423.689601 
L 547.072812 424.433298 
L 550.403631 433.10367 
L 553.73445 436.672368 
L 557.065269 440.836886 
L 560.396088 447.279966 
L 563.726908 448.110193 
L 567.057727 456.7209 
L 573.719365 458.832677 
L 577.050184 462.158954 
L 580.381003 463.241881 
L 583.711822 467.772233 
L 587.042641 470.253385 
L 590.37346 475.298731 
L 593.70428 476.232876 
L 597.035099 479.572541 
L 600.365918 480.963353 
L 603.696737 485.090108 
L 607.027556 485.736619 
L 610.358375 488.531262 
L 613.689194 485.677861 
L 617.020013 485.082082 
L 620.350833 480.766536 
L 623.681652 493.981042 
L 627.012471 496.093671 
L 630.34329 504.154125 
L 633.674109 496.831764 
L 637.004928 501.91153 
L 640.335747 487.953079 
L 643.666566 508.211205 
L 646.997385 488.03426 
L 650.328205 498.246617 
L 653.659024 505.698179 
L 656.989843 492.146393 
L 660.320662 497.467651 
L 663.651481 491.355954 
L 666.9823 498.82084 
L 670.313119 496.221959 
L 673.643938 497.802195 
L 676.974757 498.559541 
L 680.305577 508.023685 
L 683.636396 511.323796 
L 686.967215 511.543221 
L 690.298034 531.558804 
L 693.628853 526.762938 
L 696.959672 531.218927 
L 700.290491 513.378811 
L 703.62131 522.739818 
L 706.95213 515.955925 
L 710.282949 521.55692 
L 713.613768 538.047549 
L 716.944587 540.67455 
L 720.275406 520.389552 
L 723.606225 531.887923 
L 726.937044 531.611749 
L 730.267863 531.840747 
L 733.598682 509.803355 
L 736.929502 519.035189 
L 740.260321 521.631345 
L 743.59114 524.72491 
L 746.921959 502.374102 
L 750.252778 504.653838 
L 753.583597 514.10357 
L 756.914416 513.521713 
L 760.245235 500.449718 
L 763.576055 495.732878 
L 766.906874 486.700119 
L 770.237693 475.189908 
L 773.568512 482.079124 
L 776.899331 482.212463 
L 780.23015 467.622235 
L 783.560969 459.270362 
L 786.891788 471.474448 
L 790.222607 468.516993 
L 793.553427 468.722252 
L 796.884246 462.385118 
L 800.215065 447.961607 
L 800.215065 447.961607 
" clip-path="url(#p62e1e57408)" style="fill: none; stroke: #0000ff; stroke-width: 4; stroke-linecap: square"/>
   </g>
   <g id="line2d_24">
    <path d="M 117.397146 436.666858 
L 140.71288 436.666858 
L 144.043699 434.573768 
L 147.374518 432.859809 
L 150.705337 429.96742 
L 154.036156 428.37011 
L 157.366975 428.084259 
L 160.697794 433.282831 
L 164.028614 439.535164 
L 167.359433 449.962457 
L 170.690252 462.37016 
L 174.021071 476.58335 
L 177.35189 491.589103 
L 180.682709 499.508989 
L 184.013528 492.769205 
L 187.344347 504.449648 
L 190.675167 521.680302 
L 194.005986 513.459214 
L 197.336805 470.819461 
L 200.667624 447.819803 
L 203.998443 389.343758 
L 207.329262 389.87735 
L 210.660081 358.188176 
L 213.9909 352.275429 
L 217.321719 333.225261 
L 220.652539 325.121395 
L 223.983358 353.230914 
L 227.314177 351.476242 
L 230.644996 324.279811 
L 233.975815 352.803579 
L 237.306634 369.889764 
L 240.637453 389.18066 
L 243.968272 397.632213 
L 247.299091 409.37941 
L 250.629911 432.139605 
L 253.96073 404.890129 
L 257.291549 434.96214 
L 260.622368 442.147225 
L 263.953187 446.248351 
L 267.284006 424.128185 
L 270.614825 429.900561 
L 273.945644 455.064129 
L 277.276464 423.184058 
L 280.607283 403.723509 
L 283.938102 435.035895 
L 287.268921 447.916548 
L 290.59974 404.89684 
L 293.930559 436.462222 
L 297.261378 431.570794 
L 300.592197 424.565558 
L 303.923016 418.363877 
L 307.253836 445.867135 
L 310.584655 451.022665 
L 313.915474 421.6876 
L 317.246293 449.512819 
L 320.577112 419.057089 
L 323.907931 441.945558 
L 327.23875 401.217573 
L 330.569569 411.08447 
L 333.900389 429.094339 
L 337.231208 407.783545 
L 340.562027 395.793123 
L 343.892846 409.276357 
L 347.223665 416.911037 
L 350.554484 399.133691 
L 353.885303 390.570566 
L 357.216122 397.92694 
L 360.546941 351.085172 
L 363.877761 392.270231 
L 367.20858 365.127604 
L 370.539399 374.21308 
L 373.870218 366.148706 
L 377.201037 354.293559 
L 380.531856 345.716459 
L 383.862675 353.324228 
L 387.193494 349.598069 
L 390.524313 325.24498 
L 393.855133 344.350218 
L 397.185952 324.822857 
L 400.516771 325.853195 
L 403.84759 329.115608 
L 407.178409 329.208048 
L 410.509228 323.795513 
L 413.840047 324.131814 
L 417.170866 321.200956 
L 420.501686 338.070581 
L 423.832505 334.807101 
L 427.163324 311.296447 
L 430.494143 309.552531 
L 433.824962 316.308554 
L 437.155781 315.440151 
L 440.4866 311.51793 
L 443.817419 307.800112 
L 447.148238 329.867576 
L 450.479058 336.056419 
L 453.809877 321.439526 
L 457.140696 314.328249 
L 460.471515 330.153068 
L 463.802334 343.572716 
L 467.133153 335.787944 
L 470.463972 343.517304 
L 473.794791 341.696406 
L 477.125611 351.552454 
L 480.45643 347.197763 
L 483.787249 348.099432 
L 487.118068 364.140698 
L 490.448887 369.317388 
L 493.779706 370.04589 
L 497.110525 374.684601 
L 500.441344 370.617335 
L 503.772163 387.356771 
L 507.102983 383.904655 
L 510.433802 393.373782 
L 513.764621 392.586921 
L 517.09544 402.40556 
L 520.426259 402.555 
L 523.757078 413.840485 
L 527.087897 411.680459 
L 530.418716 417.260776 
L 537.080355 433.335424 
L 540.411174 440.034615 
L 543.741993 442.591258 
L 547.072812 454.195941 
L 550.403631 455.637259 
L 553.73445 461.72913 
L 557.065269 463.664999 
L 560.396088 468.184868 
L 563.726908 471.824455 
L 567.057727 473.812603 
L 570.388546 481.476596 
L 573.719365 484.058179 
L 577.050184 490.562266 
L 580.381003 492.413538 
L 583.711822 498.413166 
L 587.042641 501.991424 
L 590.37346 506.3799 
L 593.70428 510.186726 
L 603.696737 524.408376 
L 607.027556 527.545134 
L 610.358375 532.42081 
L 613.689194 529.494681 
L 617.020013 523.989097 
L 620.350833 535.744001 
L 623.681652 539.384094 
L 627.012471 541.094488 
L 630.34329 548.187501 
L 633.674109 558.939432 
L 637.004928 560.380675 
L 640.335747 569.732149 
L 643.666566 566.960135 
L 646.997385 562.56988 
L 650.328205 571.26612 
L 653.659024 558.688302 
L 656.989843 571.845442 
L 660.320662 569.869231 
L 663.651481 571.949749 
L 666.9823 559.797646 
L 670.313119 550.66097 
L 673.643938 568.916784 
L 676.974757 557.565147 
L 680.305577 557.217443 
L 683.636396 554.39497 
L 686.967215 554.904039 
L 690.298034 550.651964 
L 693.628853 546.840324 
L 696.959672 540.341863 
L 700.290491 544.432305 
L 703.62131 547.959826 
L 706.95213 539.64057 
L 710.282949 538.932128 
L 713.613768 539.457967 
L 716.944587 528.83233 
L 720.275406 538.062727 
L 723.606225 526.982754 
L 726.937044 529.698164 
L 730.267863 522.838252 
L 733.598682 527.888392 
L 736.929502 512.916361 
L 740.260321 508.419439 
L 743.59114 512.173642 
L 746.921959 512.951291 
L 750.252778 518.441732 
L 753.583597 499.289021 
L 756.914416 501.770049 
L 763.576055 501.669762 
L 766.906874 498.816414 
L 770.237693 509.162951 
L 773.568512 509.417496 
L 776.899331 501.016299 
L 780.23015 497.994156 
L 783.560969 501.592403 
L 786.891788 489.413408 
L 790.222607 486.432083 
L 793.553427 486.567516 
L 796.884246 482.599445 
L 800.215065 490.609272 
L 800.215065 490.609272 
" clip-path="url(#p62e1e57408)" style="fill: none; stroke: #a020f0; stroke-width: 4; stroke-linecap: square"/>
   </g>
   <g id="line2d_25">
    <path d="M 117.397146 436.666858 
L 140.71288 436.666858 
L 147.374518 436.227242 
L 150.705337 426.871951 
L 154.036156 418.091639 
L 157.366975 409.812876 
L 160.697794 382.005813 
L 164.028614 358.45496 
L 167.359433 325.160315 
L 170.690252 297.182238 
L 174.021071 270.880823 
L 177.35189 263.724427 
L 180.682709 257.140981 
L 184.013528 329.176423 
L 187.344347 309.552408 
L 190.675167 235.322178 
L 194.005986 40.868182 
L 197.336805 146.646297 
L 200.667624 378.351329 
L 203.998443 472.999182 
L 207.329262 465.014373 
L 210.660081 473.728816 
L 213.9909 503.618332 
L 217.321719 549.725532 
L 220.652539 523.868876 
L 223.983358 491.009053 
L 227.314177 449.343085 
L 230.644996 473.252598 
L 233.975815 430.258339 
L 237.306634 405.694068 
L 240.637453 395.133734 
L 243.968272 403.94126 
L 247.299091 442.992384 
L 250.629911 319.676482 
L 253.96073 390.832878 
L 257.291549 375.004862 
L 260.622368 353.345973 
L 263.953187 404.738888 
L 267.284006 345.052262 
L 270.614825 343.673712 
L 273.945644 386.34507 
L 277.276464 344.939916 
L 280.607283 416.622521 
L 283.938102 355.010522 
L 287.268921 371.880185 
L 290.59974 436.433545 
L 293.930559 350.976675 
L 297.261378 412.834481 
L 300.592197 364.959912 
L 303.923016 374.030662 
L 307.253836 404.621538 
L 310.584655 319.707209 
L 313.915474 334.522649 
L 317.246293 399.189089 
L 320.577112 403.496208 
L 323.907931 403.893416 
L 327.23875 435.954652 
L 330.569569 424.35761 
L 333.900389 386.450678 
L 337.231208 399.409831 
L 340.562027 398.794762 
L 343.892846 440.555935 
L 347.223665 398.673969 
L 350.554484 485.846997 
L 353.885303 399.659586 
L 357.216122 420.877022 
L 360.546941 433.722359 
L 363.877761 359.010637 
L 367.20858 396.146279 
L 370.539399 366.445327 
L 373.870218 452.700068 
L 377.201037 417.452031 
L 380.531856 440.336643 
L 387.193494 410.087531 
L 390.524313 413.160515 
L 393.855133 397.434661 
L 397.185952 378.454491 
L 400.516771 408.673103 
L 403.84759 380.409853 
L 407.178409 412.79636 
L 410.509228 367.629016 
L 413.840047 391.381943 
L 417.170866 359.408047 
L 420.501686 353.671197 
L 423.832505 364.422361 
L 427.163324 373.411342 
L 430.494143 389.62113 
L 433.824962 388.275043 
L 437.155781 365.405107 
L 440.4866 397.272823 
L 443.817419 362.493748 
L 447.148238 374.259678 
L 450.479058 352.907115 
L 453.809877 341.816633 
L 457.140696 366.172305 
L 460.471515 339.954868 
L 463.802334 350.859527 
L 467.133153 349.721556 
L 470.463972 355.894557 
L 473.794791 362.629254 
L 477.125611 349.059257 
L 480.45643 354.631743 
L 483.787249 344.995709 
L 487.118068 359.377294 
L 490.448887 361.53491 
L 493.779706 367.958815 
L 497.110525 361.827152 
L 500.441344 356.462422 
L 503.772163 345.63522 
L 507.102983 354.525475 
L 510.433802 361.476631 
L 513.764621 342.772926 
L 517.09544 336.627138 
L 520.426259 347.253649 
L 523.757078 361.148156 
L 527.087897 345.399546 
L 530.418716 342.975019 
L 533.749535 333.063124 
L 537.080355 334.315605 
L 540.411174 328.410934 
L 543.741993 323.560419 
L 547.072812 328.148492 
L 550.403631 339.96154 
L 553.73445 334.293964 
L 557.065269 335.702626 
L 560.396088 325.679252 
L 563.726908 327.873255 
L 567.057727 332.414213 
L 570.388546 329.108861 
L 573.719365 331.148661 
L 577.050184 329.962338 
L 580.381003 330.351542 
L 583.711822 330.915117 
L 587.042641 330.85949 
L 590.37346 331.463735 
L 593.70428 332.230187 
L 597.035099 337.38598 
L 600.365918 338.87096 
L 603.696737 341.209559 
L 607.027556 347.085579 
L 610.358375 351.448147 
L 613.689194 345.936605 
L 617.020013 330.92637 
L 620.350833 341.391214 
L 623.681652 365.960771 
L 627.012471 364.871549 
L 630.34329 389.464581 
L 633.674109 388.853179 
L 637.004928 391.976664 
L 640.335747 386.911556 
L 643.666566 412.441774 
L 646.997385 383.022799 
L 650.328205 401.961483 
L 653.659024 400.251388 
L 656.989843 403.843898 
L 660.320662 402.17569 
L 663.651481 385.30876 
L 666.9823 398.445962 
L 670.313119 402.168888 
L 673.643938 410.883378 
L 676.974757 406.769225 
L 680.305577 410.437305 
L 683.636396 416.755312 
L 686.967215 417.547222 
L 690.298034 436.860844 
L 693.628853 444.731064 
L 696.959672 439.227792 
L 700.290491 429.754285 
L 703.62131 456.744665 
L 706.95213 451.265175 
L 710.282949 449.687234 
L 713.613768 462.978482 
L 716.944587 477.244016 
L 720.275406 442.99121 
L 723.606225 473.956319 
L 726.937044 467.74345 
L 730.267863 469.57487 
L 733.598682 459.31916 
L 736.929502 462.287572 
L 740.260321 474.038756 
L 743.59114 492.615391 
L 746.921959 451.790755 
L 750.252778 459.144961 
L 753.583597 446.672042 
L 756.914416 459.915487 
L 760.245235 454.032297 
L 763.576055 455.735406 
L 766.906874 440.216838 
L 770.237693 440.350966 
L 773.568512 442.352254 
L 776.899331 435.879826 
L 780.23015 435.126306 
L 783.560969 415.396242 
L 786.891788 430.450264 
L 793.553427 423.961583 
L 796.884246 412.206019 
L 800.215065 429.047519 
L 800.215065 429.047519 
" clip-path="url(#p62e1e57408)" style="fill: none; stroke: #a63600; stroke-width: 4; stroke-linecap: square"/>
   </g>
   <g id="patch_3">
    <path d="M 83.25625 747.9 
L 83.25625 7.2 
" style="fill: none; stroke: #000000; stroke-width: 0.8; stroke-linejoin: miter; stroke-linecap: square"/>
   </g>
   <g id="patch_4">
    <path d="M 834.355961 747.9 
L 834.355961 7.2 
" style="fill: none; stroke: #000000; stroke-width: 0.8; stroke-linejoin: miter; stroke-linecap: square"/>
   </g>
   <g id="patch_5">
    <path d="M 83.25625 747.9 
L 834.355961 747.9 
" style="fill: none; stroke: #000000; stroke-width: 0.8; stroke-linejoin: miter; stroke-linecap: square"/>
   </g>
   <g id="patch_6">
    <path d="M 83.25625 7.2 
L 834.355961 7.2 
" style="fill: none; stroke: #000000; stroke-width: 0.8; stroke-linejoin: miter; stroke-linecap: square"/>
   </g>
   <g id="legend_1">
    <g id="patch_7">
     <path d="M 207.155324 1038.235781 
L 710.456887 1038.235781 
Q 716.456887 1038.235781 716.456887 1032.235781 
L 716.456887 907.984219 
Q 716.456887 901.984219 710.456887 901.984219 
L 207.155324 901.984219 
Q 201.155324 901.984219 201.155324 907.984219 
L 201.155324 1032.235781 
Q 201.155324 1038.235781 207.155324 1038.235781 
z
" style="fill: #ffffff; stroke: #000000; stroke-linejoin: miter"/>
    </g>
    <g id="line2d_26">
     <path d="M 213.155324 924.484219 
L 243.155324 924.484219 
L 273.155324 924.484219 
" style="fill: none; stroke: #ff0000; stroke-width: 4; stroke-linecap: square"/>
    </g>
    <g id="text_12">
     <!-- 1-st 668.61 -->
     <g style="fill: #ff0000" transform="translate(297.155324 934.984219) scale(0.3 -0.3)">
      <defs>
       <path id="TimesNewRomanPSMT-2d" d="M 259 1672 
L 1875 1672 
L 1875 1200 
L 259 1200 
L 259 1672 
z
" transform="scale(0.015625)"/>
       <path id="TimesNewRomanPSMT-73" d="M 2050 2947 
L 2050 1972 
L 1947 1972 
Q 1828 2431 1642 2597 
Q 1456 2763 1169 2763 
Q 950 2763 815 2647 
Q 681 2531 681 2391 
Q 681 2216 781 2091 
Q 878 1963 1175 1819 
L 1631 1597 
Q 2266 1288 2266 781 
Q 2266 391 1970 151 
Q 1675 -88 1309 -88 
Q 1047 -88 709 6 
Q 606 38 541 38 
Q 469 38 428 -44 
L 325 -44 
L 325 978 
L 428 978 
Q 516 541 762 319 
Q 1009 97 1316 97 
Q 1531 97 1667 223 
Q 1803 350 1803 528 
Q 1803 744 1651 891 
Q 1500 1038 1047 1263 
Q 594 1488 453 1669 
Q 313 1847 313 2119 
Q 313 2472 555 2709 
Q 797 2947 1181 2947 
Q 1350 2947 1591 2875 
Q 1750 2828 1803 2828 
Q 1853 2828 1881 2850 
Q 1909 2872 1947 2947 
L 2050 2947 
z
" transform="scale(0.015625)"/>
       <path id="TimesNewRomanPSMT-74" d="M 1031 3803 
L 1031 2863 
L 1700 2863 
L 1700 2644 
L 1031 2644 
L 1031 788 
Q 1031 509 1111 412 
Q 1191 316 1316 316 
Q 1419 316 1516 380 
Q 1613 444 1666 569 
L 1788 569 
Q 1678 263 1478 108 
Q 1278 -47 1066 -47 
Q 922 -47 784 33 
Q 647 113 581 261 
Q 516 409 516 719 
L 516 2644 
L 63 2644 
L 63 2747 
Q 234 2816 414 2980 
Q 594 3144 734 3369 
Q 806 3488 934 3803 
L 1031 3803 
z
" transform="scale(0.015625)"/>
       <path id="TimesNewRomanPSMT-38" d="M 1228 2134 
Q 725 2547 579 2797 
Q 434 3047 434 3316 
Q 434 3728 753 4026 
Q 1072 4325 1600 4325 
Q 2113 4325 2425 4047 
Q 2738 3769 2738 3413 
Q 2738 3175 2569 2928 
Q 2400 2681 1866 2347 
Q 2416 1922 2594 1678 
Q 2831 1359 2831 1006 
Q 2831 559 2490 242 
Q 2150 -75 1597 -75 
Q 994 -75 656 303 
Q 388 606 388 966 
Q 388 1247 577 1523 
Q 766 1800 1228 2134 
z
M 1719 2469 
Q 2094 2806 2194 3001 
Q 2294 3197 2294 3444 
Q 2294 3772 2109 3958 
Q 1925 4144 1606 4144 
Q 1288 4144 1088 3959 
Q 888 3775 888 3528 
Q 888 3366 970 3203 
Q 1053 3041 1206 2894 
L 1719 2469 
z
M 1375 2016 
Q 1116 1797 991 1539 
Q 866 1281 866 981 
Q 866 578 1086 336 
Q 1306 94 1647 94 
Q 1984 94 2187 284 
Q 2391 475 2391 747 
Q 2391 972 2272 1150 
Q 2050 1481 1375 2016 
z
" transform="scale(0.015625)"/>
      </defs>
      <use xlink:href="#TimesNewRomanPSMT-31"/>
      <use xlink:href="#TimesNewRomanPSMT-2d" x="50"/>
      <use xlink:href="#TimesNewRomanPSMT-73" x="83.300781"/>
      <use xlink:href="#TimesNewRomanPSMT-74" x="122.216797"/>
      <use xlink:href="#TimesNewRomanPSMT-20" x="150"/>
      <use xlink:href="#TimesNewRomanPSMT-36" x="175"/>
      <use xlink:href="#TimesNewRomanPSMT-36" x="225"/>
      <use xlink:href="#TimesNewRomanPSMT-38" x="275"/>
      <use xlink:href="#TimesNewRomanPSMT-2e" x="325"/>
      <use xlink:href="#TimesNewRomanPSMT-36" x="350"/>
      <use xlink:href="#TimesNewRomanPSMT-31" x="400"/>
     </g>
    </g>
    <g id="line2d_27">
     <path d="M 213.155324 966.901406 
L 243.155324 966.901406 
L 273.155324 966.901406 
" style="fill: none; stroke: #008000; stroke-width: 4; stroke-linecap: square"/>
    </g>
    <g id="text_13">
     <!-- 3-rd 152.07 -->
     <g style="fill: #008000" transform="translate(297.155324 977.401406) scale(0.3 -0.3)">
      <defs>
       <path id="TimesNewRomanPSMT-72" d="M 1038 2947 
L 1038 2303 
Q 1397 2947 1775 2947 
Q 1947 2947 2059 2842 
Q 2172 2738 2172 2600 
Q 2172 2478 2090 2393 
Q 2009 2309 1897 2309 
Q 1788 2309 1652 2417 
Q 1516 2525 1450 2525 
Q 1394 2525 1328 2463 
Q 1188 2334 1038 2041 
L 1038 669 
Q 1038 431 1097 309 
Q 1138 225 1241 169 
Q 1344 113 1538 113 
L 1538 0 
L 72 0 
L 72 113 
Q 291 113 397 181 
Q 475 231 506 341 
Q 522 394 522 644 
L 522 1753 
Q 522 2253 501 2348 
Q 481 2444 426 2487 
Q 372 2531 291 2531 
Q 194 2531 72 2484 
L 41 2597 
L 906 2947 
L 1038 2947 
z
" transform="scale(0.015625)"/>
       <path id="TimesNewRomanPSMT-64" d="M 2222 322 
Q 2013 103 1813 7 
Q 1613 -88 1381 -88 
Q 913 -88 563 304 
Q 213 697 213 1313 
Q 213 1928 600 2439 
Q 988 2950 1597 2950 
Q 1975 2950 2222 2709 
L 2222 3238 
Q 2222 3728 2198 3840 
Q 2175 3953 2125 3993 
Q 2075 4034 2000 4034 
Q 1919 4034 1784 3984 
L 1744 4094 
L 2597 4444 
L 2738 4444 
L 2738 1134 
Q 2738 631 2761 520 
Q 2784 409 2836 365 
Q 2888 322 2956 322 
Q 3041 322 3181 375 
L 3216 266 
L 2366 -88 
L 2222 -88 
L 2222 322 
z
M 2222 541 
L 2222 2016 
Q 2203 2228 2109 2403 
Q 2016 2578 1861 2667 
Q 1706 2756 1559 2756 
Q 1284 2756 1069 2509 
Q 784 2184 784 1559 
Q 784 928 1059 592 
Q 1334 256 1672 256 
Q 1956 256 2222 541 
z
" transform="scale(0.015625)"/>
       <path id="TimesNewRomanPSMT-37" d="M 644 4238 
L 2916 4238 
L 2916 4119 
L 1503 -88 
L 1153 -88 
L 2419 3728 
L 1253 3728 
Q 900 3728 750 3644 
Q 488 3500 328 3200 
L 238 3234 
L 644 4238 
z
" transform="scale(0.015625)"/>
      </defs>
      <use xlink:href="#TimesNewRomanPSMT-33"/>
      <use xlink:href="#TimesNewRomanPSMT-2d" x="50"/>
      <use xlink:href="#TimesNewRomanPSMT-72" x="83.300781"/>
      <use xlink:href="#TimesNewRomanPSMT-64" x="116.601562"/>
      <use xlink:href="#TimesNewRomanPSMT-20" x="166.601562"/>
      <use xlink:href="#TimesNewRomanPSMT-31" x="191.601562"/>
      <use xlink:href="#TimesNewRomanPSMT-35" x="241.601562"/>
      <use xlink:href="#TimesNewRomanPSMT-32" x="291.601562"/>
      <use xlink:href="#TimesNewRomanPSMT-2e" x="341.601562"/>
      <use xlink:href="#TimesNewRomanPSMT-30" x="366.601562"/>
      <use xlink:href="#TimesNewRomanPSMT-37" x="416.601562"/>
     </g>
    </g>
    <g id="line2d_28">
     <path d="M 213.155324 1009.318594 
L 243.155324 1009.318594 
L 273.155324 1009.318594 
" style="fill: none; stroke: #0000ff; stroke-width: 4; stroke-linecap: square"/>
    </g>
    <g id="text_14">
     <!-- 5-th 23.98 -->
     <g style="fill: #0000ff" transform="translate(297.155324 1019.818594) scale(0.3 -0.3)">
      <defs>
       <path id="TimesNewRomanPSMT-68" d="M 1041 4444 
L 1041 2350 
Q 1388 2731 1591 2839 
Q 1794 2947 1997 2947 
Q 2241 2947 2416 2812 
Q 2591 2678 2675 2391 
Q 2734 2191 2734 1659 
L 2734 647 
Q 2734 375 2778 275 
Q 2809 200 2884 156 
Q 2959 113 3159 113 
L 3159 0 
L 1753 0 
L 1753 113 
L 1819 113 
Q 2019 113 2097 173 
Q 2175 234 2206 353 
Q 2216 403 2216 647 
L 2216 1659 
Q 2216 2128 2167 2275 
Q 2119 2422 2012 2495 
Q 1906 2569 1756 2569 
Q 1603 2569 1437 2487 
Q 1272 2406 1041 2159 
L 1041 647 
Q 1041 353 1073 281 
Q 1106 209 1195 161 
Q 1284 113 1503 113 
L 1503 0 
L 84 0 
L 84 113 
Q 275 113 384 172 
Q 447 203 484 290 
Q 522 378 522 647 
L 522 3238 
Q 522 3728 498 3840 
Q 475 3953 426 3993 
Q 378 4034 297 4034 
Q 231 4034 84 3984 
L 41 4094 
L 897 4444 
L 1041 4444 
z
" transform="scale(0.015625)"/>
       <path id="TimesNewRomanPSMT-39" d="M 338 -88 
L 338 28 
Q 744 34 1094 217 
Q 1444 400 1770 856 
Q 2097 1313 2225 1859 
Q 1734 1544 1338 1544 
Q 891 1544 572 1889 
Q 253 2234 253 2806 
Q 253 3363 572 3797 
Q 956 4325 1575 4325 
Q 2097 4325 2469 3894 
Q 2925 3359 2925 2575 
Q 2925 1869 2578 1258 
Q 2231 647 1613 244 
Q 1109 -88 516 -88 
L 338 -88 
z
M 2275 2091 
Q 2331 2497 2331 2741 
Q 2331 3044 2228 3395 
Q 2125 3747 1936 3934 
Q 1747 4122 1506 4122 
Q 1228 4122 1018 3872 
Q 809 3622 809 3128 
Q 809 2469 1088 2097 
Q 1291 1828 1588 1828 
Q 1731 1828 1928 1897 
Q 2125 1966 2275 2091 
z
" transform="scale(0.015625)"/>
      </defs>
      <use xlink:href="#TimesNewRomanPSMT-35"/>
      <use xlink:href="#TimesNewRomanPSMT-2d" x="50"/>
      <use xlink:href="#TimesNewRomanPSMT-74" x="83.300781"/>
      <use xlink:href="#TimesNewRomanPSMT-68" x="111.083984"/>
      <use xlink:href="#TimesNewRomanPSMT-20" x="161.083984"/>
      <use xlink:href="#TimesNewRomanPSMT-32" x="186.083984"/>
      <use xlink:href="#TimesNewRomanPSMT-33" x="236.083984"/>
      <use xlink:href="#TimesNewRomanPSMT-2e" x="286.083984"/>
      <use xlink:href="#TimesNewRomanPSMT-39" x="311.083984"/>
      <use xlink:href="#TimesNewRomanPSMT-38" x="361.083984"/>
     </g>
    </g>
    <g id="line2d_29">
     <path d="M 497.133449 924.484219 
L 527.133449 924.484219 
L 557.133449 924.484219 
" style="fill: none; stroke: #a020f0; stroke-width: 4; stroke-linecap: square"/>
    </g>
    <g id="text_15">
     <!-- 7-th 49.66 -->
     <g style="fill: #a020f0" transform="translate(581.133449 934.984219) scale(0.3 -0.3)">
      <use xlink:href="#TimesNewRomanPSMT-37"/>
      <use xlink:href="#TimesNewRomanPSMT-2d" x="50"/>
      <use xlink:href="#TimesNewRomanPSMT-74" x="83.300781"/>
      <use xlink:href="#TimesNewRomanPSMT-68" x="111.083984"/>
      <use xlink:href="#TimesNewRomanPSMT-20" x="161.083984"/>
      <use xlink:href="#TimesNewRomanPSMT-34" x="186.083984"/>
      <use xlink:href="#TimesNewRomanPSMT-39" x="236.083984"/>
      <use xlink:href="#TimesNewRomanPSMT-2e" x="286.083984"/>
      <use xlink:href="#TimesNewRomanPSMT-36" x="311.083984"/>
      <use xlink:href="#TimesNewRomanPSMT-36" x="361.083984"/>
     </g>
    </g>
    <g id="line2d_30">
     <path d="M 497.133449 966.901406 
L 527.133449 966.901406 
L 557.133449 966.901406 
" style="fill: none; stroke: #a63600; stroke-width: 4; stroke-linecap: square"/>
    </g>
    <g id="text_16">
     <!-- 9-th 16.16 -->
     <g style="fill: #a63600" transform="translate(581.133449 977.401406) scale(0.3 -0.3)">
      <use xlink:href="#TimesNewRomanPSMT-39"/>
      <use xlink:href="#TimesNewRomanPSMT-2d" x="50"/>
      <use xlink:href="#TimesNewRomanPSMT-74" x="83.300781"/>
      <use xlink:href="#TimesNewRomanPSMT-68" x="111.083984"/>
      <use xlink:href="#TimesNewRomanPSMT-20" x="161.083984"/>
      <use xlink:href="#TimesNewRomanPSMT-31" x="186.083984"/>
      <use xlink:href="#TimesNewRomanPSMT-36" x="236.083984"/>
      <use xlink:href="#TimesNewRomanPSMT-2e" x="286.083984"/>
      <use xlink:href="#TimesNewRomanPSMT-31" x="311.083984"/>
      <use xlink:href="#TimesNewRomanPSMT-36" x="361.083984"/>
     </g>
    </g>
   </g>
  </g>
  <g id="axes_2">
   <g id="patch_8">
    <path d="M 960.305961 747.9 
L 1711.405671 747.9 
L 1711.405671 7.2 
L 960.305961 7.2 
z
" style="fill: #ffffff"/>
   </g>
   <g id="matplotlib.axis_3">
    <g id="xtick_5">
     <g id="line2d_31">
      <path d="M 1007.835443 747.9 
L 1007.835443 7.2 
" clip-path="url(#p7f6244ce54)" style="fill: none; stroke: #000000; stroke-width: 0.7; stroke-linecap: square"/>
     </g>
     <g id="line2d_32">
      <g>
       <use xlink:href="#m5eb18089d5" x="1007.835443" y="747.9" style="stroke: #000000; stroke-width: 2"/>
      </g>
     </g>
     <g id="text_17">
      <!-- 250 -->
      <g transform="translate(977.835443 790.675) scale(0.4 -0.4)">
       <use xlink:href="#TimesNewRomanPSMT-32"/>
       <use xlink:href="#TimesNewRomanPSMT-35" x="50"/>
       <use xlink:href="#TimesNewRomanPSMT-30" x="100"/>
      </g>
     </g>
    </g>
    <g id="xtick_6">
     <g id="line2d_33">
      <path d="M 1141.72131 747.9 
L 1141.72131 7.2 
" clip-path="url(#p7f6244ce54)" style="fill: none; stroke: #000000; stroke-width: 0.7; stroke-linecap: square"/>
     </g>
     <g id="line2d_34">
      <g>
       <use xlink:href="#m5eb18089d5" x="1141.72131" y="747.9" style="stroke: #000000; stroke-width: 2"/>
      </g>
     </g>
     <g id="text_18">
      <!-- 300 -->
      <g transform="translate(1111.72131 790.675) scale(0.4 -0.4)">
       <use xlink:href="#TimesNewRomanPSMT-33"/>
       <use xlink:href="#TimesNewRomanPSMT-30" x="50"/>
       <use xlink:href="#TimesNewRomanPSMT-30" x="100"/>
      </g>
     </g>
    </g>
    <g id="xtick_7">
     <g id="line2d_35">
      <path d="M 1275.607176 747.9 
L 1275.607176 7.2 
" clip-path="url(#p7f6244ce54)" style="fill: none; stroke: #000000; stroke-width: 0.7; stroke-linecap: square"/>
     </g>
     <g id="line2d_36">
      <g>
       <use xlink:href="#m5eb18089d5" x="1275.607176" y="747.9" style="stroke: #000000; stroke-width: 2"/>
      </g>
     </g>
     <g id="text_19">
      <!-- 350 -->
      <g transform="translate(1245.607176 790.675) scale(0.4 -0.4)">
       <use xlink:href="#TimesNewRomanPSMT-33"/>
       <use xlink:href="#TimesNewRomanPSMT-35" x="50"/>
       <use xlink:href="#TimesNewRomanPSMT-30" x="100"/>
      </g>
     </g>
    </g>
    <g id="xtick_8">
     <g id="line2d_37">
      <path d="M 1409.493043 747.9 
L 1409.493043 7.2 
" clip-path="url(#p7f6244ce54)" style="fill: none; stroke: #000000; stroke-width: 0.7; stroke-linecap: square"/>
     </g>
     <g id="line2d_38">
      <g>
       <use xlink:href="#m5eb18089d5" x="1409.493043" y="747.9" style="stroke: #000000; stroke-width: 2"/>
      </g>
     </g>
     <g id="text_20">
      <!-- 400 -->
      <g transform="translate(1379.493043 790.675) scale(0.4 -0.4)">
       <use xlink:href="#TimesNewRomanPSMT-34"/>
       <use xlink:href="#TimesNewRomanPSMT-30" x="50"/>
       <use xlink:href="#TimesNewRomanPSMT-30" x="100"/>
      </g>
     </g>
    </g>
    <g id="xtick_9">
     <g id="line2d_39">
      <path d="M 1543.378909 747.9 
L 1543.378909 7.2 
" clip-path="url(#p7f6244ce54)" style="fill: none; stroke: #000000; stroke-width: 0.7; stroke-linecap: square"/>
     </g>
     <g id="line2d_40">
      <g>
       <use xlink:href="#m5eb18089d5" x="1543.378909" y="747.9" style="stroke: #000000; stroke-width: 2"/>
      </g>
     </g>
     <g id="text_21">
      <!-- 450 -->
      <g transform="translate(1513.378909 790.675) scale(0.4 -0.4)">
       <use xlink:href="#TimesNewRomanPSMT-34"/>
       <use xlink:href="#TimesNewRomanPSMT-35" x="50"/>
       <use xlink:href="#TimesNewRomanPSMT-30" x="100"/>
      </g>
     </g>
    </g>
    <g id="xtick_10">
     <g id="line2d_41">
      <path d="M 1677.264776 747.9 
L 1677.264776 7.2 
" clip-path="url(#p7f6244ce54)" style="fill: none; stroke: #000000; stroke-width: 0.7; stroke-linecap: square"/>
     </g>
     <g id="line2d_42">
      <g>
       <use xlink:href="#m5eb18089d5" x="1677.264776" y="747.9" style="stroke: #000000; stroke-width: 2"/>
      </g>
     </g>
     <g id="text_22">
      <!-- 500 -->
      <g transform="translate(1647.264776 790.675) scale(0.4 -0.4)">
       <use xlink:href="#TimesNewRomanPSMT-35"/>
       <use xlink:href="#TimesNewRomanPSMT-30" x="50"/>
       <use xlink:href="#TimesNewRomanPSMT-30" x="100"/>
      </g>
     </g>
    </g>
    <g id="text_23">
     <!-- длина волны  -->
     <g transform="translate(1216.569254 843.395) scale(0.42 -0.42)">
      <use xlink:href="#TimesNewRomanPSMT-434"/>
      <use xlink:href="#TimesNewRomanPSMT-43b" x="50.878906"/>
      <use xlink:href="#TimesNewRomanPSMT-438" x="100.78125"/>
      <use xlink:href="#TimesNewRomanPSMT-43d" x="154.296875"/>
      <use xlink:href="#TimesNewRomanPSMT-430" x="207.8125"/>
      <use xlink:href="#TimesNewRomanPSMT-20" x="252.197266"/>
      <use xlink:href="#TimesNewRomanPSMT-432" x="277.197266"/>
      <use xlink:href="#TimesNewRomanPSMT-43e" x="323.789062"/>
      <use xlink:href="#TimesNewRomanPSMT-43b" x="372.414062"/>
      <use xlink:href="#TimesNewRomanPSMT-43d" x="422.316406"/>
      <use xlink:href="#TimesNewRomanPSMT-44b" x="475.832031"/>
      <use xlink:href="#TimesNewRomanPSMT-20" x="543.019531"/>
     </g>
     <!-- возбуждения, нм -->
     <g transform="translate(1185.489254 887.375562) scale(0.42 -0.42)">
      <defs>
       <path id="TimesNewRomanPSMT-437" d="M 263 1966 
L 263 2863 
L 394 2863 
Q 450 2813 519 2813 
Q 572 2813 750 2863 
Q 1047 2947 1234 2947 
Q 1647 2947 1923 2756 
Q 2200 2566 2200 2250 
Q 2200 1766 1466 1547 
Q 2322 1369 2322 744 
Q 2322 416 2047 164 
Q 1772 -88 1247 -88 
Q 903 -88 642 35 
Q 381 159 75 453 
L 156 534 
Q 669 138 1128 138 
Q 1391 138 1559 316 
Q 1728 494 1728 778 
Q 1728 1400 925 1438 
L 925 1619 
Q 1303 1619 1473 1820 
Q 1644 2022 1644 2253 
Q 1644 2456 1498 2609 
Q 1353 2763 1113 2763 
Q 556 2763 375 1966 
L 263 1966 
z
" transform="scale(0.015625)"/>
       <path id="TimesNewRomanPSMT-431" d="M 469 2044 
Q 828 2947 1681 2947 
Q 2278 2947 2658 2500 
Q 3038 2053 3038 1478 
Q 3038 884 2653 398 
Q 2269 -88 1613 -88 
Q 944 -88 594 467 
Q 244 1022 244 1819 
Q 244 2438 425 2973 
Q 606 3509 806 3775 
Q 1006 4041 1268 4162 
Q 1531 4284 2197 4291 
Q 2675 4297 2775 4319 
Q 2875 4341 2966 4444 
L 3088 4444 
Q 2984 4138 2837 4006 
Q 2691 3875 2522 3829 
Q 2353 3784 1919 3772 
Q 1450 3759 1270 3701 
Q 1091 3644 897 3420 
Q 703 3197 595 2834 
Q 488 2472 469 2044 
z
M 1575 2734 
Q 1263 2734 1063 2475 
Q 863 2216 863 1659 
Q 863 906 1131 518 
Q 1400 131 1753 131 
Q 2078 131 2264 401 
Q 2450 672 2450 1266 
Q 2450 1897 2206 2315 
Q 1963 2734 1575 2734 
z
" transform="scale(0.015625)"/>
       <path id="TimesNewRomanPSMT-443" d="M 38 2863 
L 1372 2863 
L 1372 2747 
L 1306 2747 
Q 1166 2747 1095 2686 
Q 1025 2625 1025 2534 
Q 1025 2413 1128 2197 
L 1825 753 
L 2466 2334 
Q 2519 2463 2519 2588 
Q 2519 2644 2497 2672 
Q 2472 2706 2419 2726 
Q 2366 2747 2231 2747 
L 2231 2863 
L 3163 2863 
L 3163 2747 
Q 3047 2734 2984 2696 
Q 2922 2659 2847 2556 
Q 2819 2513 2741 2316 
L 1575 -541 
Q 1406 -956 1132 -1168 
Q 859 -1381 606 -1381 
Q 422 -1381 303 -1275 
Q 184 -1169 184 -1031 
Q 184 -900 270 -820 
Q 356 -741 506 -741 
Q 609 -741 788 -809 
Q 913 -856 944 -856 
Q 1038 -856 1148 -759 
Q 1259 -663 1372 -384 
L 1575 113 
L 547 2272 
Q 500 2369 397 2513 
Q 319 2622 269 2659 
Q 197 2709 38 2747 
L 38 2863 
z
" transform="scale(0.015625)"/>
       <path id="TimesNewRomanPSMT-436" d="M 1506 0 
L 1506 116 
Q 1797 144 1875 270 
Q 1953 397 1953 788 
L 1953 1438 
Q 1747 1438 1680 1391 
Q 1613 1344 1453 1038 
L 916 0 
L 72 0 
L 72 116 
Q 291 131 403 239 
Q 516 347 706 731 
Q 997 1316 1131 1439 
Q 1266 1563 1422 1575 
Q 1231 1656 1063 2088 
Q 981 2291 934 2355 
Q 888 2419 806 2419 
Q 744 2419 647 2381 
Q 506 2325 428 2325 
Q 303 2325 231 2409 
Q 159 2494 159 2613 
Q 159 2750 268 2823 
Q 378 2897 525 2897 
Q 781 2897 936 2745 
Q 1091 2594 1231 2203 
Q 1366 1831 1534 1718 
Q 1703 1606 1953 1606 
L 1953 2075 
Q 1953 2478 1870 2597 
Q 1788 2716 1506 2744 
L 1506 2863 
L 2919 2863 
L 2919 2744 
Q 2634 2713 2553 2594 
Q 2472 2475 2472 2075 
L 2472 1606 
Q 2719 1606 2887 1718 
Q 3056 1831 3191 2203 
Q 3359 2684 3542 2790 
Q 3725 2897 3891 2897 
Q 4075 2897 4170 2812 
Q 4266 2728 4266 2613 
Q 4266 2494 4194 2409 
Q 4122 2325 3997 2325 
Q 3919 2325 3778 2381 
Q 3681 2419 3628 2419 
Q 3538 2419 3491 2355 
Q 3444 2291 3363 2088 
Q 3194 1656 3003 1575 
Q 3166 1563 3300 1431 
Q 3434 1300 3713 741 
Q 3909 347 4021 239 
Q 4134 131 4353 116 
L 4353 0 
L 3509 0 
L 2972 1038 
Q 2813 1344 2745 1391 
Q 2678 1438 2472 1438 
L 2472 788 
Q 2472 341 2564 245 
Q 2656 150 2919 116 
L 2919 0 
L 1506 0 
z
" transform="scale(0.015625)"/>
       <path id="TimesNewRomanPSMT-44f" d="M 2800 2863 
L 2800 2744 
Q 2606 2744 2514 2691 
Q 2422 2638 2394 2556 
Q 2366 2475 2366 2191 
L 2366 672 
Q 2366 400 2391 314 
Q 2416 228 2511 172 
Q 2606 116 2800 116 
L 2800 0 
L 1416 0 
L 1416 116 
Q 1675 116 1762 211 
Q 1850 306 1850 672 
L 1850 1294 
L 1722 1291 
Q 1694 1291 1622 1294 
L 709 0 
L -3 0 
L -3 116 
Q 153 116 214 158 
Q 275 200 441 434 
L 1109 1378 
Q 391 1628 391 2144 
Q 391 2434 648 2648 
Q 906 2863 1528 2863 
L 2800 2863 
z
M 1850 2625 
Q 1728 2659 1619 2659 
Q 1303 2659 1147 2503 
Q 991 2347 991 2131 
Q 991 1856 1212 1675 
Q 1434 1494 1772 1494 
Q 1806 1494 1850 1500 
L 1850 2625 
z
" transform="scale(0.015625)"/>
      </defs>
      <use xlink:href="#TimesNewRomanPSMT-432"/>
      <use xlink:href="#TimesNewRomanPSMT-43e" x="46.591797"/>
      <use xlink:href="#TimesNewRomanPSMT-437" x="96.591797"/>
      <use xlink:href="#TimesNewRomanPSMT-431" x="136.09375"/>
      <use xlink:href="#TimesNewRomanPSMT-443" x="183.222656"/>
      <use xlink:href="#TimesNewRomanPSMT-436" x="231.847656"/>
      <use xlink:href="#TimesNewRomanPSMT-434" x="300.939453"/>
      <use xlink:href="#TimesNewRomanPSMT-435" x="351.818359"/>
      <use xlink:href="#TimesNewRomanPSMT-43d" x="396.203125"/>
      <use xlink:href="#TimesNewRomanPSMT-438" x="449.71875"/>
      <use xlink:href="#TimesNewRomanPSMT-44f" x="503.234375"/>
      <use xlink:href="#TimesNewRomanPSMT-2c" x="549.230469"/>
      <use xlink:href="#TimesNewRomanPSMT-20" x="574.230469"/>
      <use xlink:href="#TimesNewRomanPSMT-43d" x="599.230469"/>
      <use xlink:href="#TimesNewRomanPSMT-43c" x="652.746094"/>
     </g>
    </g>
   </g>
   <g id="matplotlib.axis_4">
    <g id="ytick_7">
     <g id="line2d_43">
      <path d="M 960.305961 642.436559 
L 1711.405671 642.436559 
" clip-path="url(#p7f6244ce54)" style="fill: none; stroke: #000000; stroke-width: 0.7; stroke-linecap: square"/>
     </g>
     <g id="line2d_44">
      <g>
       <use xlink:href="#me12f8fe6cf" x="960.305961" y="642.436559" style="stroke: #000000; stroke-width: 2"/>
      </g>
     </g>
     <g id="text_24">
      <!-- −0.4 -->
      <g transform="translate(884.249711 656.324059) scale(0.4 -0.4)">
       <use xlink:href="#TimesNewRomanPSMT-2212"/>
       <use xlink:href="#TimesNewRomanPSMT-30" x="56.396484"/>
       <use xlink:href="#TimesNewRomanPSMT-2e" x="106.396484"/>
       <use xlink:href="#TimesNewRomanPSMT-34" x="131.396484"/>
      </g>
     </g>
    </g>
    <g id="ytick_8">
     <g id="line2d_45">
      <path d="M 960.305961 510.757994 
L 1711.405671 510.757994 
" clip-path="url(#p7f6244ce54)" style="fill: none; stroke: #000000; stroke-width: 0.7; stroke-linecap: square"/>
     </g>
     <g id="line2d_46">
      <g>
       <use xlink:href="#me12f8fe6cf" x="960.305961" y="510.757994" style="stroke: #000000; stroke-width: 2"/>
      </g>
     </g>
     <g id="text_25">
      <!-- −0.2 -->
      <g transform="translate(884.249711 524.645494) scale(0.4 -0.4)">
       <use xlink:href="#TimesNewRomanPSMT-2212"/>
       <use xlink:href="#TimesNewRomanPSMT-30" x="56.396484"/>
       <use xlink:href="#TimesNewRomanPSMT-2e" x="106.396484"/>
       <use xlink:href="#TimesNewRomanPSMT-32" x="131.396484"/>
      </g>
     </g>
    </g>
    <g id="ytick_9">
     <g id="line2d_47">
      <path d="M 960.305961 379.07943 
L 1711.405671 379.07943 
" clip-path="url(#p7f6244ce54)" style="fill: none; stroke: #000000; stroke-width: 0.7; stroke-linecap: square"/>
     </g>
     <g id="line2d_48">
      <g>
       <use xlink:href="#me12f8fe6cf" x="960.305961" y="379.07943" style="stroke: #000000; stroke-width: 2"/>
      </g>
     </g>
     <g id="text_26">
      <!-- 0.0 -->
      <g transform="translate(906.805961 392.96693) scale(0.4 -0.4)">
       <use xlink:href="#TimesNewRomanPSMT-30"/>
       <use xlink:href="#TimesNewRomanPSMT-2e" x="50"/>
       <use xlink:href="#TimesNewRomanPSMT-30" x="75"/>
      </g>
     </g>
    </g>
    <g id="ytick_10">
     <g id="line2d_49">
      <path d="M 960.305961 247.400865 
L 1711.405671 247.400865 
" clip-path="url(#p7f6244ce54)" style="fill: none; stroke: #000000; stroke-width: 0.7; stroke-linecap: square"/>
     </g>
     <g id="line2d_50">
      <g>
       <use xlink:href="#me12f8fe6cf" x="960.305961" y="247.400865" style="stroke: #000000; stroke-width: 2"/>
      </g>
     </g>
     <g id="text_27">
      <!-- 0.2 -->
      <g transform="translate(906.805961 261.288365) scale(0.4 -0.4)">
       <use xlink:href="#TimesNewRomanPSMT-30"/>
       <use xlink:href="#TimesNewRomanPSMT-2e" x="50"/>
       <use xlink:href="#TimesNewRomanPSMT-32" x="75"/>
      </g>
     </g>
    </g>
    <g id="ytick_11">
     <g id="line2d_51">
      <path d="M 960.305961 115.722301 
L 1711.405671 115.722301 
" clip-path="url(#p7f6244ce54)" style="fill: none; stroke: #000000; stroke-width: 0.7; stroke-linecap: square"/>
     </g>
     <g id="line2d_52">
      <g>
       <use xlink:href="#me12f8fe6cf" x="960.305961" y="115.722301" style="stroke: #000000; stroke-width: 2"/>
      </g>
     </g>
     <g id="text_28">
      <!-- 0.4 -->
      <g transform="translate(906.805961 129.609801) scale(0.4 -0.4)">
       <use xlink:href="#TimesNewRomanPSMT-30"/>
       <use xlink:href="#TimesNewRomanPSMT-2e" x="50"/>
       <use xlink:href="#TimesNewRomanPSMT-34" x="75"/>
      </g>
     </g>
    </g>
   </g>
   <g id="line2d_53">
    <path d="M 994.446857 539.165566 
L 1007.835443 566.751049 
L 1021.22403 595.361725 
L 1034.612617 619.107526 
L 1048.001203 643.175372 
L 1061.38979 655.159885 
L 1074.778377 628.367587 
L 1088.166963 567.903 
L 1101.55555 504.351108 
L 1114.944136 453.365607 
L 1128.332723 420.398731 
L 1141.72131 404.425183 
L 1155.109896 395.296538 
L 1168.498483 390.850629 
L 1181.88707 388.893435 
L 1195.275656 387.738475 
L 1208.664243 386.792951 
L 1222.05283 386.045137 
L 1235.441416 385.447211 
L 1248.830003 384.913111 
L 1262.21859 384.357693 
L 1275.607176 383.7885 
L 1288.995763 383.16617 
L 1302.38435 382.69078 
L 1315.772936 382.305362 
L 1329.161523 381.991912 
L 1342.550109 381.733144 
L 1355.938696 381.545641 
L 1369.327283 381.324224 
L 1382.715869 381.114559 
L 1396.104456 380.905162 
L 1409.493043 380.745798 
L 1422.881629 380.629998 
L 1436.270216 380.575331 
L 1449.658803 380.525912 
L 1463.047389 380.482379 
L 1476.435976 380.43554 
L 1489.824563 380.392369 
L 1503.213149 380.362263 
L 1516.601736 380.377015 
L 1529.990322 380.447763 
L 1543.378909 380.567219 
L 1556.767496 380.618646 
L 1570.156082 380.570544 
L 1583.544669 380.419225 
L 1596.933256 380.220845 
L 1610.321842 380.037824 
L 1623.710429 379.971178 
L 1637.099016 379.93513 
L 1650.487602 379.925264 
L 1663.876189 379.866705 
L 1677.264776 379.830952 
" clip-path="url(#p7f6244ce54)" style="fill: none; stroke: #ff0000; stroke-width: 4; stroke-linecap: square"/>
   </g>
   <g id="line2d_54">
    <path d="M 994.446857 261.88154 
L 1007.835443 228.072843 
L 1021.22403 182.610223 
L 1034.612617 139.983199 
L 1048.001203 80.638241 
L 1061.38979 40.868182 
L 1074.778377 94.980542 
L 1088.166963 270.408725 
L 1101.55555 324.189754 
L 1114.944136 353.834015 
L 1128.332723 361.856268 
L 1141.72131 364.909016 
L 1155.109896 367.116245 
L 1168.498483 368.251264 
L 1181.88707 369.23863 
L 1195.275656 369.840015 
L 1208.664243 370.396424 
L 1222.05283 370.885598 
L 1235.441416 371.296041 
L 1248.830003 371.684356 
L 1262.21859 372.066687 
L 1275.607176 372.525251 
L 1288.995763 373.106691 
L 1302.38435 373.619096 
L 1315.772936 373.947272 
L 1329.161523 374.234867 
L 1342.550109 374.598997 
L 1355.938696 374.853426 
L 1369.327283 375.193541 
L 1382.715869 375.509813 
L 1396.104456 375.863627 
L 1409.493043 376.237488 
L 1422.881629 376.455942 
L 1436.270216 376.579745 
L 1449.658803 376.715864 
L 1463.047389 376.867776 
L 1476.435976 376.932818 
L 1489.824563 377.051943 
L 1503.213149 377.216254 
L 1516.601736 377.328109 
L 1529.990322 377.380275 
L 1543.378909 377.360523 
L 1556.767496 377.32102 
L 1570.156082 377.373661 
L 1583.544669 377.527128 
L 1596.933256 377.767187 
L 1610.321842 378.02216 
L 1623.710429 378.002147 
L 1637.099016 378.11264 
L 1650.487602 378.057784 
L 1663.876189 378.141311 
L 1677.264776 378.372963 
" clip-path="url(#p7f6244ce54)" style="fill: none; stroke: #008000; stroke-width: 4; stroke-linecap: square"/>
   </g>
   <g id="line2d_55">
    <path d="M 994.446857 226.956012 
L 1007.835443 117.758988 
L 1021.22403 91.688719 
L 1034.612617 139.621604 
L 1048.001203 171.123677 
L 1061.38979 128.783058 
L 1074.778377 547.692208 
L 1088.166963 242.805 
L 1101.55555 281.016819 
L 1114.944136 320.902967 
L 1128.332723 291.061701 
L 1141.72131 359.412798 
L 1155.109896 315.144206 
L 1168.498483 325.82174 
L 1181.88707 325.699317 
L 1195.275656 332.277102 
L 1208.664243 335.85993 
L 1222.05283 337.335233 
L 1235.441416 340.26211 
L 1248.830003 337.878388 
L 1262.21859 341.867392 
L 1275.607176 342.212361 
L 1288.995763 345.422399 
L 1302.38435 345.593335 
L 1315.772936 348.796931 
L 1329.161523 351.120507 
L 1342.550109 354.168045 
L 1355.938696 357.515412 
L 1369.327283 358.343399 
L 1382.715869 361.433668 
L 1396.104456 366.198722 
L 1409.493043 368.276548 
L 1422.881629 371.475894 
L 1436.270216 371.024296 
L 1449.658803 372.30593 
L 1463.047389 372.40313 
L 1476.435976 371.213251 
L 1489.824563 371.335552 
L 1503.213149 373.54674 
L 1516.601736 374.073553 
L 1529.990322 378.286349 
L 1543.378909 378.415109 
L 1556.767496 380.241376 
L 1570.156082 379.551631 
L 1583.544669 376.796149 
L 1596.933256 375.841728 
L 1610.321842 374.960713 
L 1623.710429 375.221292 
L 1637.099016 376.106603 
L 1650.487602 376.419307 
L 1663.876189 385.656742 
L 1677.264776 377.332707 
" clip-path="url(#p7f6244ce54)" style="fill: none; stroke: #0000ff; stroke-width: 4; stroke-linecap: square"/>
   </g>
   <g id="line2d_56">
    <path d="M 994.446857 714.231818 
L 1007.835443 598.053978 
L 1021.22403 528.814498 
L 1034.612617 520.233356 
L 1048.001203 494.855161 
L 1061.38979 481.97308 
L 1074.778377 589.414077 
L 1088.166963 474.822332 
L 1101.55555 493.549247 
L 1114.944136 448.717285 
L 1128.332723 502.531783 
L 1141.72131 491.440989 
L 1155.109896 505.066539 
L 1168.498483 493.964514 
L 1181.88707 484.872625 
L 1195.275656 477.044605 
L 1208.664243 472.484442 
L 1222.05283 464.155304 
L 1235.441416 456.480468 
L 1248.830003 452.578818 
L 1262.21859 443.981976 
L 1275.607176 437.447855 
L 1288.995763 426.146548 
L 1302.38435 418.595949 
L 1315.772936 412.207938 
L 1329.161523 406.803205 
L 1342.550109 403.96222 
L 1355.938696 403.005598 
L 1369.327283 399.330595 
L 1382.715869 396.205945 
L 1396.104456 396.501144 
L 1409.493043 394.755226 
L 1422.881629 394.93905 
L 1436.270216 395.615715 
L 1449.658803 397.995276 
L 1463.047389 398.21348 
L 1476.435976 399.630787 
L 1489.824563 400.607554 
L 1503.213149 403.745759 
L 1516.601736 404.747601 
L 1529.990322 408.866057 
L 1543.378909 409.445022 
L 1556.767496 411.600583 
L 1570.156082 412.684361 
L 1583.544669 412.380537 
L 1596.933256 412.482111 
L 1610.321842 412.617311 
L 1623.710429 410.845715 
L 1637.099016 410.001587 
L 1650.487602 408.615299 
L 1663.876189 397.93447 
L 1677.264776 406.984623 
" clip-path="url(#p7f6244ce54)" style="fill: none; stroke: #a020f0; stroke-width: 4; stroke-linecap: square"/>
   </g>
   <g id="line2d_57">
    <path d="M 994.446857 578.399137 
L 1007.835443 444.322126 
L 1021.22403 500.856662 
L 1034.612617 253.745012 
L 1048.001203 234.937596 
L 1061.38979 191.269561 
L 1074.778377 675.713471 
L 1088.166963 76.257848 
L 1101.55555 186.830235 
L 1114.944136 249.705333 
L 1128.332723 256.087901 
L 1141.72131 297.978754 
L 1155.109896 323.106633 
L 1168.498483 339.307083 
L 1181.88707 355.646259 
L 1195.275656 373.3603 
L 1208.664243 395.358228 
L 1222.05283 397.681879 
L 1235.441416 404.170512 
L 1248.830003 404.608452 
L 1262.21859 401.591068 
L 1275.607176 397.195469 
L 1288.995763 391.477252 
L 1302.38435 383.051953 
L 1315.772936 375.14678 
L 1329.161523 371.288465 
L 1342.550109 368.240216 
L 1355.938696 363.784141 
L 1369.327283 358.522095 
L 1382.715869 355.71525 
L 1396.104456 354.250275 
L 1409.493043 344.654314 
L 1422.881629 342.981009 
L 1436.270216 339.549968 
L 1449.658803 339.185316 
L 1463.047389 333.995972 
L 1476.435976 330.630783 
L 1489.824563 328.105119 
L 1503.213149 327.001417 
L 1516.601736 324.614056 
L 1529.990322 331.652443 
L 1543.378909 328.426341 
L 1556.767496 331.432789 
L 1570.156082 335.047614 
L 1583.544669 334.943983 
L 1596.933256 329.663814 
L 1610.321842 330.861704 
L 1623.710429 338.065049 
L 1637.099016 346.164765 
L 1650.487602 357.767527 
L 1663.876189 388.157813 
L 1677.264776 362.710343 
" clip-path="url(#p7f6244ce54)" style="fill: none; stroke: #a63600; stroke-width: 4; stroke-linecap: square"/>
   </g>
   <g id="patch_9">
    <path d="M 960.305961 747.9 
L 960.305961 7.2 
" style="fill: none; stroke: #000000; stroke-width: 0.8; stroke-linejoin: miter; stroke-linecap: square"/>
   </g>
   <g id="patch_10">
    <path d="M 1711.405671 747.9 
L 1711.405671 7.2 
" style="fill: none; stroke: #000000; stroke-width: 0.8; stroke-linejoin: miter; stroke-linecap: square"/>
   </g>
   <g id="patch_11">
    <path d="M 960.305961 747.9 
L 1711.405671 747.9 
" style="fill: none; stroke: #000000; stroke-width: 0.8; stroke-linejoin: miter; stroke-linecap: square"/>
   </g>
   <g id="patch_12">
    <path d="M 960.305961 7.2 
L 1711.405671 7.2 
" style="fill: none; stroke: #000000; stroke-width: 0.8; stroke-linejoin: miter; stroke-linecap: square"/>
   </g>
   <g id="legend_2">
    <g id="patch_13">
     <path d="M 1076.705035 1038.235781 
L 1595.006597 1038.235781 
Q 1601.006597 1038.235781 1601.006597 1032.235781 
L 1601.006597 907.984219 
Q 1601.006597 901.984219 1595.006597 901.984219 
L 1076.705035 901.984219 
Q 1070.705035 901.984219 1070.705035 907.984219 
L 1070.705035 1032.235781 
Q 1070.705035 1038.235781 1076.705035 1038.235781 
z
" style="fill: #ffffff; stroke: #000000; stroke-linejoin: miter"/>
    </g>
    <g id="line2d_58">
     <path d="M 1082.705035 924.484219 
L 1112.705035 924.484219 
L 1142.705035 924.484219 
" style="fill: none; stroke: #ff0000; stroke-width: 4; stroke-linecap: square"/>
    </g>
    <g id="text_29">
     <!-- 1-st 316.59 -->
     <g style="fill: #ff0000" transform="translate(1166.705035 934.984219) scale(0.3 -0.3)">
      <use xlink:href="#TimesNewRomanPSMT-31"/>
      <use xlink:href="#TimesNewRomanPSMT-2d" x="50"/>
      <use xlink:href="#TimesNewRomanPSMT-73" x="83.300781"/>
      <use xlink:href="#TimesNewRomanPSMT-74" x="122.216797"/>
      <use xlink:href="#TimesNewRomanPSMT-20" x="150"/>
      <use xlink:href="#TimesNewRomanPSMT-33" x="175"/>
      <use xlink:href="#TimesNewRomanPSMT-31" x="225"/>
      <use xlink:href="#TimesNewRomanPSMT-36" x="275"/>
      <use xlink:href="#TimesNewRomanPSMT-2e" x="325"/>
      <use xlink:href="#TimesNewRomanPSMT-35" x="350"/>
      <use xlink:href="#TimesNewRomanPSMT-39" x="400"/>
     </g>
    </g>
    <g id="line2d_59">
     <path d="M 1082.705035 966.901406 
L 1112.705035 966.901406 
L 1142.705035 966.901406 
" style="fill: none; stroke: #008000; stroke-width: 4; stroke-linecap: square"/>
    </g>
    <g id="text_30">
     <!-- 3-rd 136.19 -->
     <g style="fill: #008000" transform="translate(1166.705035 977.401406) scale(0.3 -0.3)">
      <use xlink:href="#TimesNewRomanPSMT-33"/>
      <use xlink:href="#TimesNewRomanPSMT-2d" x="50"/>
      <use xlink:href="#TimesNewRomanPSMT-72" x="83.300781"/>
      <use xlink:href="#TimesNewRomanPSMT-64" x="116.601562"/>
      <use xlink:href="#TimesNewRomanPSMT-20" x="166.601562"/>
      <use xlink:href="#TimesNewRomanPSMT-31" x="191.601562"/>
      <use xlink:href="#TimesNewRomanPSMT-33" x="241.601562"/>
      <use xlink:href="#TimesNewRomanPSMT-36" x="291.601562"/>
      <use xlink:href="#TimesNewRomanPSMT-2e" x="341.601562"/>
      <use xlink:href="#TimesNewRomanPSMT-31" x="366.601562"/>
      <use xlink:href="#TimesNewRomanPSMT-39" x="416.601562"/>
     </g>
    </g>
    <g id="line2d_60">
     <path d="M 1082.705035 1009.318594 
L 1112.705035 1009.318594 
L 1142.705035 1009.318594 
" style="fill: none; stroke: #0000ff; stroke-width: 4; stroke-linecap: square"/>
    </g>
    <g id="text_31">
     <!-- 5-th 76.58 -->
     <g style="fill: #0000ff" transform="translate(1166.705035 1019.818594) scale(0.3 -0.3)">
      <use xlink:href="#TimesNewRomanPSMT-35"/>
      <use xlink:href="#TimesNewRomanPSMT-2d" x="50"/>
      <use xlink:href="#TimesNewRomanPSMT-74" x="83.300781"/>
      <use xlink:href="#TimesNewRomanPSMT-68" x="111.083984"/>
      <use xlink:href="#TimesNewRomanPSMT-20" x="161.083984"/>
      <use xlink:href="#TimesNewRomanPSMT-37" x="186.083984"/>
      <use xlink:href="#TimesNewRomanPSMT-36" x="236.083984"/>
      <use xlink:href="#TimesNewRomanPSMT-2e" x="286.083984"/>
      <use xlink:href="#TimesNewRomanPSMT-35" x="311.083984"/>
      <use xlink:href="#TimesNewRomanPSMT-38" x="361.083984"/>
     </g>
    </g>
    <g id="line2d_61">
     <path d="M 1366.68316 924.484219 
L 1396.68316 924.484219 
L 1426.68316 924.484219 
" style="fill: none; stroke: #a020f0; stroke-width: 4; stroke-linecap: square"/>
    </g>
    <g id="text_32">
     <!-- 7-th 180.81 -->
     <g style="fill: #a020f0" transform="translate(1450.68316 934.984219) scale(0.3 -0.3)">
      <use xlink:href="#TimesNewRomanPSMT-37"/>
      <use xlink:href="#TimesNewRomanPSMT-2d" x="50"/>
      <use xlink:href="#TimesNewRomanPSMT-74" x="83.300781"/>
      <use xlink:href="#TimesNewRomanPSMT-68" x="111.083984"/>
      <use xlink:href="#TimesNewRomanPSMT-20" x="161.083984"/>
      <use xlink:href="#TimesNewRomanPSMT-31" x="186.083984"/>
      <use xlink:href="#TimesNewRomanPSMT-38" x="236.083984"/>
      <use xlink:href="#TimesNewRomanPSMT-30" x="286.083984"/>
      <use xlink:href="#TimesNewRomanPSMT-2e" x="336.083984"/>
      <use xlink:href="#TimesNewRomanPSMT-38" x="361.083984"/>
      <use xlink:href="#TimesNewRomanPSMT-31" x="411.083984"/>
     </g>
    </g>
    <g id="line2d_62">
     <path d="M 1366.68316 966.901406 
L 1396.68316 966.901406 
L 1426.68316 966.901406 
" style="fill: none; stroke: #a63600; stroke-width: 4; stroke-linecap: square"/>
    </g>
    <g id="text_33">
     <!-- 9-th 46.48 -->
     <g style="fill: #a63600" transform="translate(1450.68316 977.401406) scale(0.3 -0.3)">
      <use xlink:href="#TimesNewRomanPSMT-39"/>
      <use xlink:href="#TimesNewRomanPSMT-2d" x="50"/>
      <use xlink:href="#TimesNewRomanPSMT-74" x="83.300781"/>
      <use xlink:href="#TimesNewRomanPSMT-68" x="111.083984"/>
      <use xlink:href="#TimesNewRomanPSMT-20" x="161.083984"/>
      <use xlink:href="#TimesNewRomanPSMT-34" x="186.083984"/>
      <use xlink:href="#TimesNewRomanPSMT-36" x="236.083984"/>
      <use xlink:href="#TimesNewRomanPSMT-2e" x="286.083984"/>
      <use xlink:href="#TimesNewRomanPSMT-34" x="311.083984"/>
      <use xlink:href="#TimesNewRomanPSMT-38" x="361.083984"/>
     </g>
    </g>
   </g>
  </g>
 </g>
 <defs>
  <clipPath id="p62e1e57408">
   <rect x="83.25625" y="7.2" width="751.099711" height="740.7"/>
  </clipPath>
  <clipPath id="p7f6244ce54">
   <rect x="960.305961" y="7.2" width="751.099711" height="740.7"/>
  </clipPath>
 </defs>
</svg>
