<?xml version="1.0" encoding="utf-8" standalone="no"?>
<!DOCTYPE svg PUBLIC "-//W3C//DTD SVG 1.1//EN"
  "http://www.w3.org/Graphics/SVG/1.1/DTD/svg11.dtd">
<svg xmlns:xlink="http://www.w3.org/1999/xlink" width="872.39952pt" height="584.39952pt" viewBox="0 0 872.39952 584.39952" xmlns="http://www.w3.org/2000/svg" version="1.1">
 <metadata>
  <rdf:RDF xmlns:dc="http://purl.org/dc/elements/1.1/" xmlns:cc="http://creativecommons.org/ns#" xmlns:rdf="http://www.w3.org/1999/02/22-rdf-syntax-ns#">
   <cc:Work>
    <dc:type rdf:resource="http://purl.org/dc/dcmitype/StillImage"/>
    <dc:date>2024-04-11T00:14:50.180541</dc:date>
    <dc:format>image/svg+xml</dc:format>
    <dc:creator>
     <cc:Agent>
      <dc:title>Matplotlib v3.8.0, https://matplotlib.org/</dc:title>
     </cc:Agent>
    </dc:creator>
   </cc:Work>
  </rdf:RDF>
 </metadata>
 <defs>
  <style type="text/css">*{stroke-linejoin: round; stroke-linecap: butt}</style>
 </defs>
 <g id="figure_1">
  <g id="patch_1">
   <path d="M 0 584.39952 
L 872.39952 584.39952 
L 872.39952 0 
L 0 0 
z
" style="fill: #ffffff"/>
  </g>
  <g id="axes_1">
   <g id="patch_2">
    <path d="M 86.75625 480.720457 
L 865.19952 480.720457 
L 865.19952 7.2 
L 86.75625 7.2 
z
" style="fill: #ffffff"/>
   </g>
   <g id="matplotlib.axis_1">
    <g id="xtick_1">
     <g id="line2d_1">
      <path d="M 225.702333 480.720457 
L 225.702333 7.2 
" clip-path="url(#p167577bbad)" style="fill: none; stroke: #000000; stroke-width: 0.7; stroke-linecap: square"/>
     </g>
     <g id="line2d_2">
      <defs>
       <path id="md18a8a59a2" d="M 0 0 
L 0 3.5 
" style="stroke: #000000; stroke-width: 0.8"/>
      </defs>
      <g>
       <use xlink:href="#md18a8a59a2" x="225.702333" y="480.720457" style="stroke: #000000; stroke-width: 0.8"/>
      </g>
     </g>
     <g id="text_1">
      <!-- 300 -->
      <g transform="translate(195.702333 515.495457) scale(0.4 -0.4)">
       <defs>
        <path id="TimesNewRomanPSMT-33" d="M 325 3431 
Q 506 3859 782 4092 
Q 1059 4325 1472 4325 
Q 1981 4325 2253 3994 
Q 2459 3747 2459 3466 
Q 2459 3003 1878 2509 
Q 2269 2356 2469 2072 
Q 2669 1788 2669 1403 
Q 2669 853 2319 450 
Q 1863 -75 997 -75 
Q 569 -75 414 31 
Q 259 138 259 259 
Q 259 350 332 419 
Q 406 488 509 488 
Q 588 488 669 463 
Q 722 447 909 348 
Q 1097 250 1169 231 
Q 1284 197 1416 197 
Q 1734 197 1970 444 
Q 2206 691 2206 1028 
Q 2206 1275 2097 1509 
Q 2016 1684 1919 1775 
Q 1784 1900 1550 2001 
Q 1316 2103 1072 2103 
L 972 2103 
L 972 2197 
Q 1219 2228 1467 2375 
Q 1716 2522 1828 2728 
Q 1941 2934 1941 3181 
Q 1941 3503 1739 3701 
Q 1538 3900 1238 3900 
Q 753 3900 428 3381 
L 325 3431 
z
" transform="scale(0.015625)"/>
        <path id="TimesNewRomanPSMT-30" d="M 231 2094 
Q 231 2819 450 3342 
Q 669 3866 1031 4122 
Q 1313 4325 1613 4325 
Q 2100 4325 2488 3828 
Q 2972 3213 2972 2159 
Q 2972 1422 2759 906 
Q 2547 391 2217 158 
Q 1888 -75 1581 -75 
Q 975 -75 572 641 
Q 231 1244 231 2094 
z
M 844 2016 
Q 844 1141 1059 588 
Q 1238 122 1591 122 
Q 1759 122 1940 273 
Q 2122 425 2216 781 
Q 2359 1319 2359 2297 
Q 2359 3022 2209 3506 
Q 2097 3866 1919 4016 
Q 1791 4119 1609 4119 
Q 1397 4119 1231 3928 
Q 1006 3669 925 3112 
Q 844 2556 844 2016 
z
" transform="scale(0.015625)"/>
       </defs>
       <use xlink:href="#TimesNewRomanPSMT-33"/>
       <use xlink:href="#TimesNewRomanPSMT-30" x="50"/>
       <use xlink:href="#TimesNewRomanPSMT-30" x="100"/>
      </g>
     </g>
    </g>
    <g id="xtick_2">
     <g id="line2d_3">
      <path d="M 398.306162 480.720457 
L 398.306162 7.2 
" clip-path="url(#p167577bbad)" style="fill: none; stroke: #000000; stroke-width: 0.7; stroke-linecap: square"/>
     </g>
     <g id="line2d_4">
      <g>
       <use xlink:href="#md18a8a59a2" x="398.306162" y="480.720457" style="stroke: #000000; stroke-width: 0.8"/>
      </g>
     </g>
     <g id="text_2">
      <!-- 400 -->
      <g transform="translate(368.306162 515.495457) scale(0.4 -0.4)">
       <defs>
        <path id="TimesNewRomanPSMT-34" d="M 2978 1563 
L 2978 1119 
L 2409 1119 
L 2409 0 
L 1894 0 
L 1894 1119 
L 100 1119 
L 100 1519 
L 2066 4325 
L 2409 4325 
L 2409 1563 
L 2978 1563 
z
M 1894 1563 
L 1894 3666 
L 406 1563 
L 1894 1563 
z
" transform="scale(0.015625)"/>
       </defs>
       <use xlink:href="#TimesNewRomanPSMT-34"/>
       <use xlink:href="#TimesNewRomanPSMT-30" x="50"/>
       <use xlink:href="#TimesNewRomanPSMT-30" x="100"/>
      </g>
     </g>
    </g>
    <g id="xtick_3">
     <g id="line2d_5">
      <path d="M 570.909991 480.720457 
L 570.909991 7.2 
" clip-path="url(#p167577bbad)" style="fill: none; stroke: #000000; stroke-width: 0.7; stroke-linecap: square"/>
     </g>
     <g id="line2d_6">
      <g>
       <use xlink:href="#md18a8a59a2" x="570.909991" y="480.720457" style="stroke: #000000; stroke-width: 0.8"/>
      </g>
     </g>
     <g id="text_3">
      <!-- 500 -->
      <g transform="translate(540.909991 515.495457) scale(0.4 -0.4)">
       <defs>
        <path id="TimesNewRomanPSMT-35" d="M 2778 4238 
L 2534 3706 
L 1259 3706 
L 981 3138 
Q 1809 3016 2294 2522 
Q 2709 2097 2709 1522 
Q 2709 1188 2573 903 
Q 2438 619 2231 419 
Q 2025 219 1772 97 
Q 1413 -75 1034 -75 
Q 653 -75 479 54 
Q 306 184 306 341 
Q 306 428 378 495 
Q 450 563 559 563 
Q 641 563 702 538 
Q 763 513 909 409 
Q 1144 247 1384 247 
Q 1750 247 2026 523 
Q 2303 800 2303 1197 
Q 2303 1581 2056 1914 
Q 1809 2247 1375 2428 
Q 1034 2569 447 2591 
L 1259 4238 
L 2778 4238 
z
" transform="scale(0.015625)"/>
       </defs>
       <use xlink:href="#TimesNewRomanPSMT-35"/>
       <use xlink:href="#TimesNewRomanPSMT-30" x="50"/>
       <use xlink:href="#TimesNewRomanPSMT-30" x="100"/>
      </g>
     </g>
    </g>
    <g id="xtick_4">
     <g id="line2d_7">
      <path d="M 743.51382 480.720457 
L 743.51382 7.2 
" clip-path="url(#p167577bbad)" style="fill: none; stroke: #000000; stroke-width: 0.7; stroke-linecap: square"/>
     </g>
     <g id="line2d_8">
      <g>
       <use xlink:href="#md18a8a59a2" x="743.51382" y="480.720457" style="stroke: #000000; stroke-width: 0.8"/>
      </g>
     </g>
     <g id="text_4">
      <!-- 600 -->
      <g transform="translate(713.51382 515.495457) scale(0.4 -0.4)">
       <defs>
        <path id="TimesNewRomanPSMT-36" d="M 2869 4325 
L 2869 4209 
Q 2456 4169 2195 4045 
Q 1934 3922 1679 3669 
Q 1425 3416 1258 3105 
Q 1091 2794 978 2366 
Q 1428 2675 1881 2675 
Q 2316 2675 2634 2325 
Q 2953 1975 2953 1425 
Q 2953 894 2631 456 
Q 2244 -75 1606 -75 
Q 1172 -75 869 213 
Q 275 772 275 1663 
Q 275 2231 503 2743 
Q 731 3256 1154 3653 
Q 1578 4050 1965 4187 
Q 2353 4325 2688 4325 
L 2869 4325 
z
M 925 2138 
Q 869 1716 869 1456 
Q 869 1156 980 804 
Q 1091 453 1309 247 
Q 1469 100 1697 100 
Q 1969 100 2183 356 
Q 2397 613 2397 1088 
Q 2397 1622 2184 2012 
Q 1972 2403 1581 2403 
Q 1463 2403 1327 2353 
Q 1191 2303 925 2138 
z
" transform="scale(0.015625)"/>
       </defs>
       <use xlink:href="#TimesNewRomanPSMT-36"/>
       <use xlink:href="#TimesNewRomanPSMT-30" x="50"/>
       <use xlink:href="#TimesNewRomanPSMT-30" x="100"/>
      </g>
     </g>
    </g>
    <g id="text_5">
     <!-- Длина волны, нм -->
     <g transform="translate(323.271791 568.215457) scale(0.42 -0.42)">
      <defs>
       <path id="TimesNewRomanPSMT-414" d="M 753 4238 
L 4250 4238 
L 4250 4122 
Q 3856 4109 3747 3996 
Q 3638 3884 3638 3466 
L 3638 1119 
Q 3638 438 3716 277 
Q 3794 116 4222 116 
L 4222 -1219 
L 4116 -1219 
Q 4022 -756 3814 -473 
Q 3606 -191 3342 -95 
Q 3078 0 2709 0 
L 1628 0 
Q 919 0 586 -384 
Q 253 -769 188 -1219 
L 81 -1219 
L 81 116 
Q 584 159 900 718 
Q 1216 1278 1337 2092 
Q 1459 2906 1459 3428 
Q 1459 3741 1381 3887 
Q 1303 4034 1195 4071 
Q 1088 4109 753 4122 
L 753 4238 
z
M 1772 4006 
Q 1694 2153 1475 1406 
Q 1256 659 888 231 
L 2456 231 
Q 2875 231 2958 304 
Q 3041 378 3041 781 
L 3041 4006 
L 1772 4006 
z
" transform="scale(0.015625)"/>
       <path id="TimesNewRomanPSMT-43b" d="M 494 2863 
L 3053 2863 
L 3053 2744 
Q 2841 2744 2770 2701 
Q 2700 2659 2659 2596 
Q 2619 2534 2619 2191 
L 2619 672 
Q 2619 341 2653 277 
Q 2688 213 2761 164 
Q 2834 116 3053 116 
L 3053 0 
L 1572 0 
L 1572 116 
Q 1813 116 1905 141 
Q 1997 166 2050 261 
Q 2103 356 2103 672 
L 2103 2659 
L 1150 2659 
L 1150 1453 
Q 1150 769 1089 492 
Q 1028 216 848 83 
Q 669 -50 438 -50 
Q 38 -50 38 281 
Q 38 394 102 466 
Q 166 538 269 538 
Q 378 538 472 447 
Q 594 328 656 328 
Q 797 328 861 564 
Q 925 800 925 1391 
L 925 2022 
Q 925 2509 854 2615 
Q 784 2722 494 2744 
L 494 2863 
z
" transform="scale(0.015625)"/>
       <path id="TimesNewRomanPSMT-438" d="M 1094 881 
L 2331 2313 
Q 2325 2553 2240 2647 
Q 2156 2741 1950 2744 
L 1950 2863 
L 3281 2863 
L 3281 2744 
Q 3072 2744 3000 2701 
Q 2928 2659 2887 2596 
Q 2847 2534 2847 2191 
L 2847 672 
Q 2847 341 2881 277 
Q 2916 213 2989 164 
Q 3063 116 3281 116 
L 3281 0 
L 1897 0 
L 1897 116 
Q 2156 116 2243 211 
Q 2331 306 2331 672 
L 2331 2019 
L 1094 584 
Q 1100 319 1169 219 
Q 1238 119 1466 116 
L 1466 0 
L 144 0 
L 144 116 
Q 422 116 500 217 
Q 578 319 578 672 
L 578 2191 
Q 578 2525 543 2586 
Q 509 2647 437 2695 
Q 366 2744 144 2744 
L 144 2863 
L 1528 2863 
L 1528 2744 
Q 1319 2744 1247 2701 
Q 1175 2659 1134 2596 
Q 1094 2534 1094 2191 
L 1094 881 
z
" transform="scale(0.015625)"/>
       <path id="TimesNewRomanPSMT-43d" d="M 1094 1584 
L 2331 1584 
L 2331 2191 
Q 2331 2463 2309 2545 
Q 2288 2628 2202 2686 
Q 2116 2744 1897 2744 
L 1897 2863 
L 3281 2863 
L 3281 2744 
Q 3088 2744 2998 2700 
Q 2909 2656 2878 2573 
Q 2847 2491 2847 2191 
L 2847 672 
Q 2847 400 2870 312 
Q 2894 225 2984 170 
Q 3075 116 3281 116 
L 3281 0 
L 1897 0 
L 1897 116 
Q 2156 116 2243 211 
Q 2331 306 2331 672 
L 2331 1381 
L 1094 1381 
L 1094 672 
Q 1094 400 1117 312 
Q 1141 225 1231 170 
Q 1322 116 1528 116 
L 1528 0 
L 144 0 
L 144 116 
Q 422 116 500 217 
Q 578 319 578 672 
L 578 2191 
Q 578 2463 554 2550 
Q 531 2638 440 2691 
Q 350 2744 144 2744 
L 144 2863 
L 1528 2863 
L 1528 2744 
Q 1334 2744 1245 2700 
Q 1156 2656 1125 2573 
Q 1094 2491 1094 2191 
L 1094 1584 
z
" transform="scale(0.015625)"/>
       <path id="TimesNewRomanPSMT-430" d="M 1822 413 
Q 1381 72 1269 19 
Q 1100 -59 909 -59 
Q 613 -59 420 144 
Q 228 347 228 678 
Q 228 888 322 1041 
Q 450 1253 767 1440 
Q 1084 1628 1822 1897 
L 1822 2009 
Q 1822 2438 1686 2597 
Q 1550 2756 1291 2756 
Q 1094 2756 978 2650 
Q 859 2544 859 2406 
L 866 2225 
Q 866 2081 792 2003 
Q 719 1925 600 1925 
Q 484 1925 411 2006 
Q 338 2088 338 2228 
Q 338 2497 613 2722 
Q 888 2947 1384 2947 
Q 1766 2947 2009 2819 
Q 2194 2722 2281 2516 
Q 2338 2381 2338 1966 
L 2338 994 
Q 2338 584 2353 492 
Q 2369 400 2405 369 
Q 2441 338 2488 338 
Q 2538 338 2575 359 
Q 2641 400 2828 588 
L 2828 413 
Q 2478 -56 2159 -56 
Q 2006 -56 1915 50 
Q 1825 156 1822 413 
z
M 1822 616 
L 1822 1706 
Q 1350 1519 1213 1441 
Q 966 1303 859 1153 
Q 753 1003 753 825 
Q 753 600 887 451 
Q 1022 303 1197 303 
Q 1434 303 1822 616 
z
" transform="scale(0.015625)"/>
       <path id="TimesNewRomanPSMT-20" transform="scale(0.015625)"/>
       <path id="TimesNewRomanPSMT-432" d="M 2016 1513 
Q 2800 1350 2800 778 
Q 2800 388 2473 194 
Q 2147 0 1563 0 
L 150 0 
L 150 116 
Q 428 116 501 220 
Q 575 325 575 672 
L 575 2191 
Q 575 2528 542 2587 
Q 509 2647 439 2695 
Q 369 2744 150 2744 
L 150 2863 
L 1469 2863 
Q 1850 2863 2086 2803 
Q 2322 2744 2473 2569 
Q 2625 2394 2625 2144 
Q 2625 1656 2016 1513 
z
M 1094 1584 
Q 1231 1581 1259 1581 
Q 1688 1581 1878 1745 
Q 2069 1909 2069 2144 
Q 2069 2416 1875 2537 
Q 1681 2659 1256 2659 
L 1094 2659 
L 1094 1584 
z
M 1094 253 
Q 1250 203 1466 203 
Q 1838 203 2019 365 
Q 2200 528 2200 784 
Q 2200 1072 1965 1225 
Q 1731 1378 1316 1378 
Q 1213 1378 1094 1372 
L 1094 253 
z
" transform="scale(0.015625)"/>
       <path id="TimesNewRomanPSMT-43e" d="M 1600 2947 
Q 2250 2947 2644 2453 
Q 2978 2031 2978 1484 
Q 2978 1100 2793 706 
Q 2609 313 2286 112 
Q 1963 -88 1566 -88 
Q 919 -88 538 428 
Q 216 863 216 1403 
Q 216 1797 411 2186 
Q 606 2575 925 2761 
Q 1244 2947 1600 2947 
z
M 1503 2744 
Q 1338 2744 1170 2645 
Q 1003 2547 900 2300 
Q 797 2053 797 1666 
Q 797 1041 1045 587 
Q 1294 134 1700 134 
Q 2003 134 2200 384 
Q 2397 634 2397 1244 
Q 2397 2006 2069 2444 
Q 1847 2744 1503 2744 
z
" transform="scale(0.015625)"/>
       <path id="TimesNewRomanPSMT-44b" d="M 2716 2744 
L 2716 2863 
L 4156 2863 
L 4156 2744 
Q 3966 2744 3878 2703 
Q 3791 2663 3758 2578 
Q 3725 2494 3725 2191 
L 3725 672 
Q 3725 378 3753 292 
Q 3781 206 3873 161 
Q 3966 116 4156 116 
L 4156 0 
L 2716 0 
L 2716 116 
Q 2959 125 3032 148 
Q 3106 172 3156 269 
Q 3206 366 3206 672 
L 3206 2191 
Q 3206 2494 3172 2581 
Q 3138 2669 3052 2705 
Q 2966 2741 2716 2744 
z
M 1091 1588 
L 1447 1594 
Q 2722 1594 2722 806 
Q 2722 441 2411 220 
Q 2100 0 1516 0 
L 141 0 
L 141 116 
Q 419 116 497 217 
Q 575 319 575 672 
L 575 2191 
Q 575 2525 540 2586 
Q 506 2647 434 2695 
Q 363 2744 141 2744 
L 141 2863 
L 1638 2863 
L 1638 2744 
Q 1328 2744 1256 2708 
Q 1184 2672 1137 2614 
Q 1091 2556 1091 2191 
L 1091 1588 
z
M 1091 247 
Q 1256 203 1422 203 
Q 1734 203 1929 368 
Q 2125 534 2125 788 
Q 2125 1388 1291 1388 
Q 1219 1388 1091 1384 
L 1091 247 
z
" transform="scale(0.015625)"/>
       <path id="TimesNewRomanPSMT-2c" d="M 344 -1066 
L 344 -928 
Q 666 -822 842 -598 
Q 1019 -375 1019 -125 
Q 1019 -66 991 -25 
Q 969 3 947 3 
Q 913 3 797 -59 
Q 741 -88 678 -88 
Q 525 -88 434 3 
Q 344 94 344 253 
Q 344 406 461 515 
Q 578 625 747 625 
Q 953 625 1114 445 
Q 1275 266 1275 -31 
Q 1275 -353 1051 -629 
Q 828 -906 344 -1066 
z
" transform="scale(0.015625)"/>
       <path id="TimesNewRomanPSMT-43c" d="M 2050 747 
L 2944 2863 
L 3909 2863 
L 3909 2744 
Q 3697 2744 3626 2701 
Q 3556 2659 3515 2596 
Q 3475 2534 3475 2191 
L 3475 672 
Q 3475 375 3504 289 
Q 3534 203 3626 159 
Q 3719 116 3909 116 
L 3909 0 
L 2525 0 
L 2525 116 
Q 2781 116 2868 211 
Q 2956 306 2956 672 
L 2956 2394 
L 1944 0 
L 1834 0 
L 803 2394 
L 803 672 
Q 803 375 834 289 
Q 866 203 956 159 
Q 1047 116 1238 116 
L 1238 0 
L 144 0 
L 144 116 
Q 422 116 500 217 
Q 578 319 578 672 
L 578 2191 
Q 578 2525 543 2586 
Q 509 2647 437 2695 
Q 366 2744 144 2744 
L 144 2863 
L 1150 2863 
L 2050 747 
z
" transform="scale(0.015625)"/>
      </defs>
      <use xlink:href="#TimesNewRomanPSMT-414"/>
      <use xlink:href="#TimesNewRomanPSMT-43b" x="68.212891"/>
      <use xlink:href="#TimesNewRomanPSMT-438" x="118.115234"/>
      <use xlink:href="#TimesNewRomanPSMT-43d" x="171.630859"/>
      <use xlink:href="#TimesNewRomanPSMT-430" x="225.146484"/>
      <use xlink:href="#TimesNewRomanPSMT-20" x="269.53125"/>
      <use xlink:href="#TimesNewRomanPSMT-432" x="294.53125"/>
      <use xlink:href="#TimesNewRomanPSMT-43e" x="341.123047"/>
      <use xlink:href="#TimesNewRomanPSMT-43b" x="389.748047"/>
      <use xlink:href="#TimesNewRomanPSMT-43d" x="439.650391"/>
      <use xlink:href="#TimesNewRomanPSMT-44b" x="493.166016"/>
      <use xlink:href="#TimesNewRomanPSMT-2c" x="560.353516"/>
      <use xlink:href="#TimesNewRomanPSMT-20" x="585.353516"/>
      <use xlink:href="#TimesNewRomanPSMT-43d" x="610.353516"/>
      <use xlink:href="#TimesNewRomanPSMT-43c" x="663.869141"/>
     </g>
    </g>
   </g>
   <g id="matplotlib.axis_2">
    <g id="ytick_1">
     <g id="line2d_9">
      <path d="M 86.75625 401.230634 
L 865.19952 401.230634 
" clip-path="url(#p167577bbad)" style="fill: none; stroke: #000000; stroke-width: 0.7; stroke-linecap: square"/>
     </g>
     <g id="line2d_10">
      <defs>
       <path id="m325e299c21" d="M 0 0 
L -3.5 0 
" style="stroke: #000000; stroke-width: 0.8"/>
      </defs>
      <g>
       <use xlink:href="#m325e299c21" x="86.75625" y="401.230634" style="stroke: #000000; stroke-width: 0.8"/>
      </g>
     </g>
     <g id="text_6">
      <!-- −0.2 -->
      <g transform="translate(7.2 415.118134) scale(0.4 -0.4)">
       <defs>
        <path id="TimesNewRomanPSMT-2212" d="M 3484 2000 
L 116 2000 
L 116 2256 
L 3484 2256 
L 3484 2000 
z
" transform="scale(0.015625)"/>
        <path id="TimesNewRomanPSMT-2e" d="M 800 606 
Q 947 606 1047 504 
Q 1147 403 1147 259 
Q 1147 116 1045 14 
Q 944 -88 800 -88 
Q 656 -88 554 14 
Q 453 116 453 259 
Q 453 406 554 506 
Q 656 606 800 606 
z
" transform="scale(0.015625)"/>
        <path id="TimesNewRomanPSMT-32" d="M 2934 816 
L 2638 0 
L 138 0 
L 138 116 
Q 1241 1122 1691 1759 
Q 2141 2397 2141 2925 
Q 2141 3328 1894 3587 
Q 1647 3847 1303 3847 
Q 991 3847 742 3664 
Q 494 3481 375 3128 
L 259 3128 
Q 338 3706 661 4015 
Q 984 4325 1469 4325 
Q 1984 4325 2329 3994 
Q 2675 3663 2675 3213 
Q 2675 2891 2525 2569 
Q 2294 2063 1775 1497 
Q 997 647 803 472 
L 1909 472 
Q 2247 472 2383 497 
Q 2519 522 2628 598 
Q 2738 675 2819 816 
L 2934 816 
z
" transform="scale(0.015625)"/>
       </defs>
       <use xlink:href="#TimesNewRomanPSMT-2212"/>
       <use xlink:href="#TimesNewRomanPSMT-30" x="56.396484"/>
       <use xlink:href="#TimesNewRomanPSMT-2e" x="106.396484"/>
       <use xlink:href="#TimesNewRomanPSMT-32" x="131.396484"/>
      </g>
     </g>
    </g>
    <g id="ytick_2">
     <g id="line2d_11">
      <path d="M 86.75625 312.538656 
L 865.19952 312.538656 
" clip-path="url(#p167577bbad)" style="fill: none; stroke: #000000; stroke-width: 0.7; stroke-linecap: square"/>
     </g>
     <g id="line2d_12">
      <g>
       <use xlink:href="#m325e299c21" x="86.75625" y="312.538656" style="stroke: #000000; stroke-width: 0.8"/>
      </g>
     </g>
     <g id="text_7">
      <!-- −0.1 -->
      <g transform="translate(7.2 326.426156) scale(0.4 -0.4)">
       <defs>
        <path id="TimesNewRomanPSMT-31" d="M 750 3822 
L 1781 4325 
L 1884 4325 
L 1884 747 
Q 1884 391 1914 303 
Q 1944 216 2037 169 
Q 2131 122 2419 116 
L 2419 0 
L 825 0 
L 825 116 
Q 1125 122 1212 167 
Q 1300 213 1334 289 
Q 1369 366 1369 747 
L 1369 3034 
Q 1369 3497 1338 3628 
Q 1316 3728 1258 3775 
Q 1200 3822 1119 3822 
Q 1003 3822 797 3725 
L 750 3822 
z
" transform="scale(0.015625)"/>
       </defs>
       <use xlink:href="#TimesNewRomanPSMT-2212"/>
       <use xlink:href="#TimesNewRomanPSMT-30" x="56.396484"/>
       <use xlink:href="#TimesNewRomanPSMT-2e" x="106.396484"/>
       <use xlink:href="#TimesNewRomanPSMT-31" x="131.396484"/>
      </g>
     </g>
    </g>
    <g id="ytick_3">
     <g id="line2d_13">
      <path d="M 86.75625 223.846679 
L 865.19952 223.846679 
" clip-path="url(#p167577bbad)" style="fill: none; stroke: #000000; stroke-width: 0.7; stroke-linecap: square"/>
     </g>
     <g id="line2d_14">
      <g>
       <use xlink:href="#m325e299c21" x="86.75625" y="223.846679" style="stroke: #000000; stroke-width: 0.8"/>
      </g>
     </g>
     <g id="text_8">
      <!-- 0.0 -->
      <g transform="translate(29.75625 237.734179) scale(0.4 -0.4)">
       <use xlink:href="#TimesNewRomanPSMT-30"/>
       <use xlink:href="#TimesNewRomanPSMT-2e" x="50"/>
       <use xlink:href="#TimesNewRomanPSMT-30" x="75"/>
      </g>
     </g>
    </g>
    <g id="ytick_4">
     <g id="line2d_15">
      <path d="M 86.75625 135.154701 
L 865.19952 135.154701 
" clip-path="url(#p167577bbad)" style="fill: none; stroke: #000000; stroke-width: 0.7; stroke-linecap: square"/>
     </g>
     <g id="line2d_16">
      <g>
       <use xlink:href="#m325e299c21" x="86.75625" y="135.154701" style="stroke: #000000; stroke-width: 0.8"/>
      </g>
     </g>
     <g id="text_9">
      <!-- 0.1 -->
      <g transform="translate(29.75625 149.042201) scale(0.4 -0.4)">
       <use xlink:href="#TimesNewRomanPSMT-30"/>
       <use xlink:href="#TimesNewRomanPSMT-2e" x="50"/>
       <use xlink:href="#TimesNewRomanPSMT-31" x="75"/>
      </g>
     </g>
    </g>
    <g id="ytick_5">
     <g id="line2d_17">
      <path d="M 86.75625 46.462724 
L 865.19952 46.462724 
" clip-path="url(#p167577bbad)" style="fill: none; stroke: #000000; stroke-width: 0.7; stroke-linecap: square"/>
     </g>
     <g id="line2d_18">
      <g>
       <use xlink:href="#m325e299c21" x="86.75625" y="46.462724" style="stroke: #000000; stroke-width: 0.8"/>
      </g>
     </g>
     <g id="text_10">
      <!-- 0.2 -->
      <g transform="translate(29.75625 60.350224) scale(0.4 -0.4)">
       <use xlink:href="#TimesNewRomanPSMT-30"/>
       <use xlink:href="#TimesNewRomanPSMT-2e" x="50"/>
       <use xlink:href="#TimesNewRomanPSMT-32" x="75"/>
      </g>
     </g>
    </g>
   </g>
   <g id="line2d_19">
    <path d="M 139.400418 223.476863 
L 151.482686 223.074897 
L 161.838916 222.49365 
L 170.469107 221.804686 
L 180.825337 220.733595 
L 196.359682 218.818344 
L 208.44195 217.422491 
L 215.346103 216.813124 
L 222.250256 216.408202 
L 229.154409 216.234861 
L 236.058562 216.290405 
L 244.688754 216.629452 
L 256.771022 217.390151 
L 270.579328 218.204891 
L 279.20952 218.464287 
L 286.113673 218.462254 
L 293.017826 218.244781 
L 299.921979 217.793708 
L 306.826132 217.092999 
L 313.730285 216.123205 
L 318.9084 215.203335 
L 324.086515 214.101935 
L 329.26463 212.800393 
L 334.442745 211.276713 
L 339.62086 209.50588 
L 344.798975 207.460469 
L 349.97709 205.111464 
L 355.155205 202.429273 
L 360.333319 199.384913 
L 363.785396 197.140659 
L 367.237473 194.716116 
L 370.689549 192.10492 
L 374.141626 189.301787 
L 377.593702 186.30272 
L 382.771817 181.431742 
L 387.949932 176.113657 
L 393.128047 170.35748 
L 398.306162 164.18355 
L 403.484277 157.624514 
L 408.662392 150.725982 
L 415.566545 141.103326 
L 425.922775 126.129021 
L 436.279004 111.175722 
L 443.183157 101.643365 
L 448.361272 94.915332 
L 451.813349 90.693688 
L 455.265425 86.720986 
L 458.717502 83.028194 
L 462.169579 79.644389 
L 465.621655 76.596331 
L 469.073732 73.908069 
L 472.525808 71.600586 
L 475.977885 69.691481 
L 479.429962 68.194716 
L 482.882038 67.120404 
L 486.334115 66.474673 
L 489.786191 66.25959 
L 493.238268 66.473147 
L 496.690345 67.10932 
L 500.142421 68.158191 
L 503.594498 69.606134 
L 507.046574 71.43605 
L 510.498651 73.627671 
L 513.950727 76.157892 
L 517.402804 79.001151 
L 520.854881 82.129836 
L 524.306957 85.514713 
L 529.485072 91.005633 
L 534.663187 96.899039 
L 541.56734 105.200425 
L 553.649608 120.279067 
L 562.2798 130.95154 
L 569.183953 139.172876 
L 574.362068 145.069511 
L 579.540183 150.691205 
L 584.718297 156.010644 
L 589.896412 161.011054 
L 595.074527 165.685117 
L 600.252642 170.03369 
L 605.430757 174.064419 
L 610.608872 177.790318 
L 615.786987 181.228376 
L 620.965102 184.398262 
L 626.143216 187.321145 
L 631.321331 190.018691 
L 636.499446 192.51222 
L 643.403599 195.554478 
L 650.307753 198.313912 
L 657.211906 200.828595 
L 664.116059 203.130279 
L 672.74625 205.746275 
L 681.376442 208.10687 
L 690.006633 210.238858 
L 698.636825 212.160902 
L 707.267016 213.886339 
L 717.623246 215.711899 
L 727.979476 217.285373 
L 738.335705 218.623372 
L 743.51382 219.209763 
L 743.51382 219.209763 
" clip-path="url(#p167577bbad)" style="fill: none; stroke: #008000; stroke-width: 5; stroke-linecap: square"/>
   </g>
   <g id="line2d_20">
    <path d="M 122.140035 223.846679 
L 146.304571 223.846679 
L 149.756648 225.344022 
L 153.208724 226.558801 
L 163.564954 246.879563 
L 167.017031 266.547262 
L 170.469107 284.335198 
L 173.921184 320.203099 
L 180.825337 380.947375 
L 184.277414 413.915223 
L 187.72949 425.15392 
L 191.181567 374.298895 
L 194.633643 409.277657 
L 198.08572 459.1968 
L 201.537796 120.397677 
L 204.989873 28.723657 
L 208.44195 158.115075 
L 211.894026 144.447138 
L 215.346103 207.357463 
L 218.798179 219.873197 
L 222.250256 157.140928 
L 225.702333 160.654206 
L 229.154409 146.936976 
L 232.606486 175.730929 
L 236.058562 217.517675 
L 239.510639 179.067987 
L 242.962715 199.049049 
L 246.414792 237.936289 
L 249.866869 230.660459 
L 253.318945 167.841345 
L 256.771022 182.429963 
L 260.223098 194.224154 
L 263.675175 241.410473 
L 267.127252 237.829605 
L 270.579328 217.713253 
L 274.031405 169.244249 
L 277.483481 213.679772 
L 280.935558 186.990663 
L 284.387635 219.911549 
L 287.839711 146.383914 
L 291.291788 104.859447 
L 294.743864 207.68875 
L 298.195941 196.793552 
L 301.648017 177.943258 
L 305.100094 212.662996 
L 308.552171 203.851615 
L 312.004247 278.668643 
L 315.456324 215.692711 
L 318.9084 250.586441 
L 322.360477 314.203052 
L 325.812554 313.022432 
L 329.26463 312.51295 
L 332.716707 315.215815 
L 336.168783 291.00901 
L 339.62086 285.90819 
L 343.072936 324.160441 
L 346.525013 320.670564 
L 349.97709 321.352528 
L 353.429166 329.508299 
L 356.881243 285.861095 
L 360.333319 338.135663 
L 363.785396 316.846469 
L 367.237473 327.896773 
L 370.689549 348.884025 
L 374.141626 276.291112 
L 377.593702 307.789418 
L 381.045779 325.956609 
L 384.497855 334.127641 
L 387.949932 308.284285 
L 391.402009 299.34455 
L 394.854085 311.151724 
L 398.306162 298.557594 
L 401.758238 303.508929 
L 405.210315 251.298656 
L 408.662392 313.10496 
L 415.566545 281.248079 
L 419.018621 288.761013 
L 422.470698 283.191049 
L 425.922775 291.996355 
L 429.374851 263.686034 
L 432.826928 278.788059 
L 436.279004 290.117986 
L 439.731081 274.04988 
L 443.183157 256.816997 
L 446.635234 263.219221 
L 450.087311 236.856322 
L 453.539387 258.864595 
L 456.991464 226.965448 
L 460.44354 246.350426 
L 463.895617 277.09095 
L 467.347694 281.91231 
L 470.79977 273.613435 
L 474.251847 226.354974 
L 477.703923 241.163709 
L 481.156 274.177215 
L 484.608076 237.632029 
L 488.060153 264.977433 
L 491.51223 230.907111 
L 494.964306 238.670973 
L 498.416383 240.999739 
L 501.868459 217.881291 
L 505.320536 237.835108 
L 508.772613 230.554239 
L 512.224689 220.532043 
L 515.676766 227.200562 
L 519.128842 211.549028 
L 522.580919 219.139517 
L 526.032995 214.062972 
L 529.485072 193.160099 
L 532.937149 177.13073 
L 536.389225 192.543507 
L 539.841302 188.787418 
L 543.293378 193.065368 
L 546.745455 199.606465 
L 550.197532 186.038585 
L 553.649608 165.112291 
L 557.101685 168.0356 
L 560.553761 168.20203 
L 564.005838 164.86756 
L 567.457915 162.626661 
L 570.909991 166.667352 
L 574.362068 163.887159 
L 577.814144 163.745189 
L 581.266221 164.068708 
L 584.718297 160.682641 
L 588.170374 152.435785 
L 591.622451 152.943175 
L 595.074527 156.047226 
L 598.526604 148.042664 
L 601.97868 152.936253 
L 605.430757 146.885259 
L 608.882834 151.867598 
L 612.33491 147.335319 
L 615.786987 149.966743 
L 619.239063 145.42481 
L 622.69114 143.134997 
L 626.143216 142.280037 
L 629.595293 145.869971 
L 633.04737 144.659546 
L 636.499446 157.956433 
L 639.951523 167.724433 
L 643.403599 172.897894 
L 646.855676 165.287359 
L 650.307753 166.010038 
L 653.759829 158.323045 
L 657.211906 176.897345 
L 660.663982 172.229373 
L 664.116059 193.263859 
L 667.568135 177.0534 
L 671.020212 203.342776 
L 674.472289 191.424885 
L 677.924365 192.777941 
L 681.376442 208.049105 
L 684.828518 204.587069 
L 688.280595 234.310413 
L 691.732672 203.01272 
L 695.184748 212.388291 
L 698.636825 220.499389 
L 702.088901 218.371401 
L 705.540978 227.942574 
L 708.993055 225.796416 
L 712.445131 228.892519 
L 715.897208 216.022941 
L 719.349284 217.152537 
L 722.801361 212.847039 
L 726.253437 238.094129 
L 729.705514 225.860099 
L 733.157591 226.501612 
L 736.609667 230.736288 
L 740.061744 225.506066 
L 743.51382 207.341479 
L 746.965897 233.727994 
L 750.417974 221.415631 
L 753.87005 227.415114 
L 757.322127 209.819535 
L 760.774203 223.107524 
L 764.22628 224.74313 
L 767.678356 209.172521 
L 771.130433 206.960367 
L 774.58251 235.814867 
L 778.034586 235.732638 
L 781.486663 217.505019 
L 784.938739 212.678874 
L 788.390816 208.977446 
L 791.842893 213.390688 
L 795.294969 210.208315 
L 798.747046 223.374316 
L 802.199122 213.233884 
L 805.651199 216.255982 
L 809.103275 207.274067 
L 812.555352 210.098341 
L 816.007429 204.047897 
L 819.459505 192.027063 
L 822.911582 184.305757 
L 826.363658 199.014951 
L 829.815735 168.95375 
L 829.815735 168.95375 
" clip-path="url(#p167577bbad)" style="fill: none; stroke: #800080; stroke-width: 5; stroke-linecap: square"/>
   </g>
   <g id="patch_3">
    <path d="M 86.75625 480.720457 
L 86.75625 7.2 
" style="fill: none; stroke: #000000; stroke-width: 0.8; stroke-linejoin: miter; stroke-linecap: square"/>
   </g>
   <g id="patch_4">
    <path d="M 865.19952 480.720457 
L 865.19952 7.2 
" style="fill: none; stroke: #000000; stroke-width: 0.8; stroke-linejoin: miter; stroke-linecap: square"/>
   </g>
   <g id="patch_5">
    <path d="M 86.75625 480.720457 
L 865.19952 480.720457 
" style="fill: none; stroke: #000000; stroke-width: 0.8; stroke-linejoin: miter; stroke-linecap: square"/>
   </g>
   <g id="patch_6">
    <path d="M 86.75625 7.2 
L 865.19952 7.2 
" style="fill: none; stroke: #000000; stroke-width: 0.8; stroke-linejoin: miter; stroke-linecap: square"/>
   </g>
   <g id="legend_1">
    <g id="patch_7">
     <path d="M 478.83077 460.720457 
L 837.19952 460.720457 
Q 845.19952 460.720457 845.19952 452.720457 
L 845.19952 343.607957 
Q 845.19952 335.607957 837.19952 335.607957 
L 478.83077 335.607957 
Q 470.83077 335.607957 470.83077 343.607957 
L 470.83077 452.720457 
Q 470.83077 460.720457 478.83077 460.720457 
z
" style="fill: #ffffff; opacity: 0.8; stroke: #cccccc; stroke-linejoin: miter"/>
    </g>
    <g id="line2d_21">
     <path d="M 486.83077 365.607957 
L 526.83077 365.607957 
L 566.83077 365.607957 
" style="fill: none; stroke: #008000; stroke-width: 5; stroke-linecap: square"/>
    </g>
    <g id="text_11">
     <!-- SNR=1821.51 -->
     <g style="fill: #008000" transform="translate(598.83077 379.607957) scale(0.4 -0.4)">
      <defs>
       <path id="TimesNewRomanPSMT-53" d="M 2934 4334 
L 2934 2869 
L 2819 2869 
Q 2763 3291 2617 3541 
Q 2472 3791 2203 3937 
Q 1934 4084 1647 4084 
Q 1322 4084 1109 3886 
Q 897 3688 897 3434 
Q 897 3241 1031 3081 
Q 1225 2847 1953 2456 
Q 2547 2138 2764 1967 
Q 2981 1797 3098 1565 
Q 3216 1334 3216 1081 
Q 3216 600 2842 251 
Q 2469 -97 1881 -97 
Q 1697 -97 1534 -69 
Q 1438 -53 1133 45 
Q 828 144 747 144 
Q 669 144 623 97 
Q 578 50 556 -97 
L 441 -97 
L 441 1356 
L 556 1356 
Q 638 900 775 673 
Q 913 447 1195 297 
Q 1478 147 1816 147 
Q 2206 147 2432 353 
Q 2659 559 2659 841 
Q 2659 997 2573 1156 
Q 2488 1316 2306 1453 
Q 2184 1547 1640 1851 
Q 1097 2156 867 2337 
Q 638 2519 519 2737 
Q 400 2956 400 3219 
Q 400 3675 750 4004 
Q 1100 4334 1641 4334 
Q 1978 4334 2356 4169 
Q 2531 4091 2603 4091 
Q 2684 4091 2736 4139 
Q 2788 4188 2819 4334 
L 2934 4334 
z
" transform="scale(0.015625)"/>
       <path id="TimesNewRomanPSMT-4e" d="M -84 4238 
L 1066 4238 
L 3656 1059 
L 3656 3503 
Q 3656 3894 3569 3991 
Q 3453 4122 3203 4122 
L 3056 4122 
L 3056 4238 
L 4531 4238 
L 4531 4122 
L 4381 4122 
Q 4113 4122 4000 3959 
Q 3931 3859 3931 3503 
L 3931 -69 
L 3819 -69 
L 1025 3344 
L 1025 734 
Q 1025 344 1109 247 
Q 1228 116 1475 116 
L 1625 116 
L 1625 0 
L 150 0 
L 150 116 
L 297 116 
Q 569 116 681 278 
Q 750 378 750 734 
L 750 3681 
Q 566 3897 470 3965 
Q 375 4034 191 4094 
Q 100 4122 -84 4122 
L -84 4238 
z
" transform="scale(0.015625)"/>
       <path id="TimesNewRomanPSMT-52" d="M 4325 0 
L 3194 0 
L 1759 1981 
Q 1600 1975 1500 1975 
Q 1459 1975 1412 1976 
Q 1366 1978 1316 1981 
L 1316 750 
Q 1316 350 1403 253 
Q 1522 116 1759 116 
L 1925 116 
L 1925 0 
L 109 0 
L 109 116 
L 269 116 
Q 538 116 653 291 
Q 719 388 719 750 
L 719 3488 
Q 719 3888 631 3984 
Q 509 4122 269 4122 
L 109 4122 
L 109 4238 
L 1653 4238 
Q 2328 4238 2648 4139 
Q 2969 4041 3192 3777 
Q 3416 3513 3416 3147 
Q 3416 2756 3161 2468 
Q 2906 2181 2372 2063 
L 3247 847 
Q 3547 428 3762 290 
Q 3978 153 4325 116 
L 4325 0 
z
M 1316 2178 
Q 1375 2178 1419 2176 
Q 1463 2175 1491 2175 
Q 2097 2175 2405 2437 
Q 2713 2700 2713 3106 
Q 2713 3503 2464 3751 
Q 2216 4000 1806 4000 
Q 1625 4000 1316 3941 
L 1316 2178 
z
" transform="scale(0.015625)"/>
       <path id="TimesNewRomanPSMT-3d" d="M 116 2759 
L 3488 2759 
L 3488 2503 
L 116 2503 
L 116 2759 
z
M 116 1741 
L 3488 1741 
L 3488 1484 
L 116 1484 
L 116 1741 
z
" transform="scale(0.015625)"/>
       <path id="TimesNewRomanPSMT-38" d="M 1228 2134 
Q 725 2547 579 2797 
Q 434 3047 434 3316 
Q 434 3728 753 4026 
Q 1072 4325 1600 4325 
Q 2113 4325 2425 4047 
Q 2738 3769 2738 3413 
Q 2738 3175 2569 2928 
Q 2400 2681 1866 2347 
Q 2416 1922 2594 1678 
Q 2831 1359 2831 1006 
Q 2831 559 2490 242 
Q 2150 -75 1597 -75 
Q 994 -75 656 303 
Q 388 606 388 966 
Q 388 1247 577 1523 
Q 766 1800 1228 2134 
z
M 1719 2469 
Q 2094 2806 2194 3001 
Q 2294 3197 2294 3444 
Q 2294 3772 2109 3958 
Q 1925 4144 1606 4144 
Q 1288 4144 1088 3959 
Q 888 3775 888 3528 
Q 888 3366 970 3203 
Q 1053 3041 1206 2894 
L 1719 2469 
z
M 1375 2016 
Q 1116 1797 991 1539 
Q 866 1281 866 981 
Q 866 578 1086 336 
Q 1306 94 1647 94 
Q 1984 94 2187 284 
Q 2391 475 2391 747 
Q 2391 972 2272 1150 
Q 2050 1481 1375 2016 
z
" transform="scale(0.015625)"/>
      </defs>
      <use xlink:href="#TimesNewRomanPSMT-53"/>
      <use xlink:href="#TimesNewRomanPSMT-4e" x="55.615234"/>
      <use xlink:href="#TimesNewRomanPSMT-52" x="127.832031"/>
      <use xlink:href="#TimesNewRomanPSMT-3d" x="194.53125"/>
      <use xlink:href="#TimesNewRomanPSMT-31" x="250.927734"/>
      <use xlink:href="#TimesNewRomanPSMT-38" x="300.927734"/>
      <use xlink:href="#TimesNewRomanPSMT-32" x="350.927734"/>
      <use xlink:href="#TimesNewRomanPSMT-31" x="400.927734"/>
      <use xlink:href="#TimesNewRomanPSMT-2e" x="450.927734"/>
      <use xlink:href="#TimesNewRomanPSMT-35" x="475.927734"/>
      <use xlink:href="#TimesNewRomanPSMT-31" x="525.927734"/>
     </g>
    </g>
    <g id="line2d_22">
     <path d="M 486.83077 422.164207 
L 526.83077 422.164207 
L 566.83077 422.164207 
" style="fill: none; stroke: #800080; stroke-width: 5; stroke-linecap: square"/>
    </g>
    <g id="text_12">
     <!-- SNR=13.0 -->
     <g style="fill: #800080" transform="translate(598.83077 436.164207) scale(0.4 -0.4)">
      <use xlink:href="#TimesNewRomanPSMT-53"/>
      <use xlink:href="#TimesNewRomanPSMT-4e" x="55.615234"/>
      <use xlink:href="#TimesNewRomanPSMT-52" x="127.832031"/>
      <use xlink:href="#TimesNewRomanPSMT-3d" x="194.53125"/>
      <use xlink:href="#TimesNewRomanPSMT-31" x="250.927734"/>
      <use xlink:href="#TimesNewRomanPSMT-33" x="300.927734"/>
      <use xlink:href="#TimesNewRomanPSMT-2e" x="350.927734"/>
      <use xlink:href="#TimesNewRomanPSMT-30" x="375.927734"/>
     </g>
    </g>
   </g>
  </g>
 </g>
 <defs>
  <clipPath id="p167577bbad">
   <rect x="86.75625" y="7.2" width="778.44327" height="473.520458"/>
  </clipPath>
 </defs>
</svg>
