<?xml version="1.0" encoding="utf-8" standalone="no"?>
<!DOCTYPE svg PUBLIC "-//W3C//DTD SVG 1.1//EN"
  "http://www.w3.org/Graphics/SVG/1.1/DTD/svg11.dtd">
<svg xmlns:xlink="http://www.w3.org/1999/xlink" width="1718.605671pt" height="1045.435781pt" viewBox="0 0 1718.605671 1045.435781" xmlns="http://www.w3.org/2000/svg" version="1.1">
 <metadata>
  <rdf:RDF xmlns:dc="http://purl.org/dc/elements/1.1/" xmlns:cc="http://creativecommons.org/ns#" xmlns:rdf="http://www.w3.org/1999/02/22-rdf-syntax-ns#">
   <cc:Work>
    <dc:type rdf:resource="http://purl.org/dc/dcmitype/StillImage"/>
    <dc:date>2024-05-21T05:50:16.318778</dc:date>
    <dc:format>image/svg+xml</dc:format>
    <dc:creator>
     <cc:Agent>
      <dc:title>Matplotlib v3.6.3, https://matplotlib.org/</dc:title>
     </cc:Agent>
    </dc:creator>
   </cc:Work>
  </rdf:RDF>
 </metadata>
 <defs>
  <style type="text/css">*{stroke-linejoin: round; stroke-linecap: butt}</style>
 </defs>
 <g id="figure_1">
  <g id="patch_1">
   <path d="M 0 1045.435781 
L 1718.605671 1045.435781 
L 1718.605671 0 
L 0 0 
z
" style="fill: #ffffff"/>
  </g>
  <g id="axes_1">
   <g id="patch_2">
    <path d="M 83.25625 747.9 
L 833.205671 747.9 
L 833.205671 7.2 
L 83.25625 7.2 
z
" style="fill: #ffffff"/>
   </g>
   <g id="matplotlib.axis_1">
    <g id="xtick_1">
     <g id="line2d_1">
      <path d="M 167.846505 747.9 
L 167.846505 7.2 
" clip-path="url(#p93bfcc04f5)" style="fill: none; stroke: #000000; stroke-width: 0.7; stroke-linecap: square"/>
     </g>
     <g id="line2d_2">
      <defs>
       <path id="ma9f00a9894" d="M 0 0 
L 0 -10 
" style="stroke: #000000; stroke-width: 2"/>
      </defs>
      <g>
       <use xlink:href="#ma9f00a9894" x="167.846505" y="747.9" style="stroke: #000000; stroke-width: 2"/>
      </g>
     </g>
     <g id="text_1">
      <!-- 250 -->
      <g transform="translate(137.846505 790.675) scale(0.4 -0.4)">
       <defs>
        <path id="TimesNewRomanPSMT-32" d="M 2934 816 
L 2638 0 
L 138 0 
L 138 116 
Q 1241 1122 1691 1759 
Q 2141 2397 2141 2925 
Q 2141 3328 1894 3587 
Q 1647 3847 1303 3847 
Q 991 3847 742 3664 
Q 494 3481 375 3128 
L 259 3128 
Q 338 3706 661 4015 
Q 984 4325 1469 4325 
Q 1984 4325 2329 3994 
Q 2675 3663 2675 3213 
Q 2675 2891 2525 2569 
Q 2294 2063 1775 1497 
Q 997 647 803 472 
L 1909 472 
Q 2247 472 2383 497 
Q 2519 522 2628 598 
Q 2738 675 2819 816 
L 2934 816 
z
" transform="scale(0.015625)"/>
        <path id="TimesNewRomanPSMT-35" d="M 2778 4238 
L 2534 3706 
L 1259 3706 
L 981 3138 
Q 1809 3016 2294 2522 
Q 2709 2097 2709 1522 
Q 2709 1188 2573 903 
Q 2438 619 2231 419 
Q 2025 219 1772 97 
Q 1413 -75 1034 -75 
Q 653 -75 479 54 
Q 306 184 306 341 
Q 306 428 378 495 
Q 450 563 559 563 
Q 641 563 702 538 
Q 763 513 909 409 
Q 1144 247 1384 247 
Q 1750 247 2026 523 
Q 2303 800 2303 1197 
Q 2303 1581 2056 1914 
Q 1809 2247 1375 2428 
Q 1034 2569 447 2591 
L 1259 4238 
L 2778 4238 
z
" transform="scale(0.015625)"/>
        <path id="TimesNewRomanPSMT-30" d="M 231 2094 
Q 231 2819 450 3342 
Q 669 3866 1031 4122 
Q 1313 4325 1613 4325 
Q 2100 4325 2488 3828 
Q 2972 3213 2972 2159 
Q 2972 1422 2759 906 
Q 2547 391 2217 158 
Q 1888 -75 1581 -75 
Q 975 -75 572 641 
Q 231 1244 231 2094 
z
M 844 2016 
Q 844 1141 1059 588 
Q 1238 122 1591 122 
Q 1759 122 1940 273 
Q 2122 425 2216 781 
Q 2359 1319 2359 2297 
Q 2359 3022 2209 3506 
Q 2097 3866 1919 4016 
Q 1791 4119 1609 4119 
Q 1397 4119 1231 3928 
Q 1006 3669 925 3112 
Q 844 2556 844 2016 
z
" transform="scale(0.015625)"/>
       </defs>
       <use xlink:href="#TimesNewRomanPSMT-32"/>
       <use xlink:href="#TimesNewRomanPSMT-35" x="50"/>
       <use xlink:href="#TimesNewRomanPSMT-30" x="100"/>
      </g>
     </g>
    </g>
    <g id="xtick_2">
     <g id="line2d_3">
      <path d="M 294.100616 747.9 
L 294.100616 7.2 
" clip-path="url(#p93bfcc04f5)" style="fill: none; stroke: #000000; stroke-width: 0.7; stroke-linecap: square"/>
     </g>
     <g id="line2d_4">
      <g>
       <use xlink:href="#ma9f00a9894" x="294.100616" y="747.9" style="stroke: #000000; stroke-width: 2"/>
      </g>
     </g>
     <g id="text_2">
      <!-- 300 -->
      <g transform="translate(264.100616 790.675) scale(0.4 -0.4)">
       <defs>
        <path id="TimesNewRomanPSMT-33" d="M 325 3431 
Q 506 3859 782 4092 
Q 1059 4325 1472 4325 
Q 1981 4325 2253 3994 
Q 2459 3747 2459 3466 
Q 2459 3003 1878 2509 
Q 2269 2356 2469 2072 
Q 2669 1788 2669 1403 
Q 2669 853 2319 450 
Q 1863 -75 997 -75 
Q 569 -75 414 31 
Q 259 138 259 259 
Q 259 350 332 419 
Q 406 488 509 488 
Q 588 488 669 463 
Q 722 447 909 348 
Q 1097 250 1169 231 
Q 1284 197 1416 197 
Q 1734 197 1970 444 
Q 2206 691 2206 1028 
Q 2206 1275 2097 1509 
Q 2016 1684 1919 1775 
Q 1784 1900 1550 2001 
Q 1316 2103 1072 2103 
L 972 2103 
L 972 2197 
Q 1219 2228 1467 2375 
Q 1716 2522 1828 2728 
Q 1941 2934 1941 3181 
Q 1941 3503 1739 3701 
Q 1538 3900 1238 3900 
Q 753 3900 428 3381 
L 325 3431 
z
" transform="scale(0.015625)"/>
       </defs>
       <use xlink:href="#TimesNewRomanPSMT-33"/>
       <use xlink:href="#TimesNewRomanPSMT-30" x="50"/>
       <use xlink:href="#TimesNewRomanPSMT-30" x="100"/>
      </g>
     </g>
    </g>
    <g id="xtick_3">
     <g id="line2d_5">
      <path d="M 420.354727 747.9 
L 420.354727 7.2 
" clip-path="url(#p93bfcc04f5)" style="fill: none; stroke: #000000; stroke-width: 0.7; stroke-linecap: square"/>
     </g>
     <g id="line2d_6">
      <g>
       <use xlink:href="#ma9f00a9894" x="420.354727" y="747.9" style="stroke: #000000; stroke-width: 2"/>
      </g>
     </g>
     <g id="text_3">
      <!-- 350 -->
      <g transform="translate(390.354727 790.675) scale(0.4 -0.4)">
       <use xlink:href="#TimesNewRomanPSMT-33"/>
       <use xlink:href="#TimesNewRomanPSMT-35" x="50"/>
       <use xlink:href="#TimesNewRomanPSMT-30" x="100"/>
      </g>
     </g>
    </g>
    <g id="xtick_4">
     <g id="line2d_7">
      <path d="M 546.608839 747.9 
L 546.608839 7.2 
" clip-path="url(#p93bfcc04f5)" style="fill: none; stroke: #000000; stroke-width: 0.7; stroke-linecap: square"/>
     </g>
     <g id="line2d_8">
      <g>
       <use xlink:href="#ma9f00a9894" x="546.608839" y="747.9" style="stroke: #000000; stroke-width: 2"/>
      </g>
     </g>
     <g id="text_4">
      <!-- 400 -->
      <g transform="translate(516.608839 790.675) scale(0.4 -0.4)">
       <defs>
        <path id="TimesNewRomanPSMT-34" d="M 2978 1563 
L 2978 1119 
L 2409 1119 
L 2409 0 
L 1894 0 
L 1894 1119 
L 100 1119 
L 100 1519 
L 2066 4325 
L 2409 4325 
L 2409 1563 
L 2978 1563 
z
M 1894 1563 
L 1894 3666 
L 406 1563 
L 1894 1563 
z
" transform="scale(0.015625)"/>
       </defs>
       <use xlink:href="#TimesNewRomanPSMT-34"/>
       <use xlink:href="#TimesNewRomanPSMT-30" x="50"/>
       <use xlink:href="#TimesNewRomanPSMT-30" x="100"/>
      </g>
     </g>
    </g>
    <g id="xtick_5">
     <g id="line2d_9">
      <path d="M 672.86295 747.9 
L 672.86295 7.2 
" clip-path="url(#p93bfcc04f5)" style="fill: none; stroke: #000000; stroke-width: 0.7; stroke-linecap: square"/>
     </g>
     <g id="line2d_10">
      <g>
       <use xlink:href="#ma9f00a9894" x="672.86295" y="747.9" style="stroke: #000000; stroke-width: 2"/>
      </g>
     </g>
     <g id="text_5">
      <!-- 450 -->
      <g transform="translate(642.86295 790.675) scale(0.4 -0.4)">
       <use xlink:href="#TimesNewRomanPSMT-34"/>
       <use xlink:href="#TimesNewRomanPSMT-35" x="50"/>
       <use xlink:href="#TimesNewRomanPSMT-30" x="100"/>
      </g>
     </g>
    </g>
    <g id="xtick_6">
     <g id="line2d_11">
      <path d="M 799.117061 747.9 
L 799.117061 7.2 
" clip-path="url(#p93bfcc04f5)" style="fill: none; stroke: #000000; stroke-width: 0.7; stroke-linecap: square"/>
     </g>
     <g id="line2d_12">
      <g>
       <use xlink:href="#ma9f00a9894" x="799.117061" y="747.9" style="stroke: #000000; stroke-width: 2"/>
      </g>
     </g>
     <g id="text_6">
      <!-- 500 -->
      <g transform="translate(769.117061 790.675) scale(0.4 -0.4)">
       <use xlink:href="#TimesNewRomanPSMT-35"/>
       <use xlink:href="#TimesNewRomanPSMT-30" x="50"/>
       <use xlink:href="#TimesNewRomanPSMT-30" x="100"/>
      </g>
     </g>
    </g>
    <g id="text_7">
     <!-- длина волны  -->
     <g transform="translate(338.944398 843.395) scale(0.42 -0.42)">
      <defs>
       <path id="TimesNewRomanPSMT-434" d="M 591 2863 
L 3116 2863 
L 3116 2744 
Q 2903 2744 2833 2701 
Q 2763 2659 2722 2596 
Q 2681 2534 2681 2191 
L 2681 775 
Q 2681 328 2757 226 
Q 2834 125 3116 116 
L 3116 -794 
L 2997 -794 
Q 2984 -538 2870 -347 
Q 2756 -156 2553 -78 
Q 2350 0 1953 0 
L 1216 0 
Q 872 0 678 -61 
Q 484 -122 354 -315 
Q 225 -509 197 -794 
L 81 -794 
L 81 116 
Q 338 125 547 319 
Q 756 513 915 1078 
Q 1075 1644 1075 2191 
Q 1075 2728 591 2744 
L 591 2863 
z
M 1281 2659 
L 1281 2488 
Q 1281 953 725 203 
L 1788 203 
Q 2075 203 2119 251 
Q 2163 300 2163 609 
L 2163 2659 
L 1281 2659 
z
" transform="scale(0.015625)"/>
       <path id="TimesNewRomanPSMT-43b" d="M 494 2863 
L 3053 2863 
L 3053 2744 
Q 2841 2744 2770 2701 
Q 2700 2659 2659 2596 
Q 2619 2534 2619 2191 
L 2619 672 
Q 2619 341 2653 277 
Q 2688 213 2761 164 
Q 2834 116 3053 116 
L 3053 0 
L 1572 0 
L 1572 116 
Q 1813 116 1905 141 
Q 1997 166 2050 261 
Q 2103 356 2103 672 
L 2103 2659 
L 1150 2659 
L 1150 1453 
Q 1150 769 1089 492 
Q 1028 216 848 83 
Q 669 -50 438 -50 
Q 38 -50 38 281 
Q 38 394 102 466 
Q 166 538 269 538 
Q 378 538 472 447 
Q 594 328 656 328 
Q 797 328 861 564 
Q 925 800 925 1391 
L 925 2022 
Q 925 2509 854 2615 
Q 784 2722 494 2744 
L 494 2863 
z
" transform="scale(0.015625)"/>
       <path id="TimesNewRomanPSMT-438" d="M 1094 881 
L 2331 2313 
Q 2325 2553 2240 2647 
Q 2156 2741 1950 2744 
L 1950 2863 
L 3281 2863 
L 3281 2744 
Q 3072 2744 3000 2701 
Q 2928 2659 2887 2596 
Q 2847 2534 2847 2191 
L 2847 672 
Q 2847 341 2881 277 
Q 2916 213 2989 164 
Q 3063 116 3281 116 
L 3281 0 
L 1897 0 
L 1897 116 
Q 2156 116 2243 211 
Q 2331 306 2331 672 
L 2331 2019 
L 1094 584 
Q 1100 319 1169 219 
Q 1238 119 1466 116 
L 1466 0 
L 144 0 
L 144 116 
Q 422 116 500 217 
Q 578 319 578 672 
L 578 2191 
Q 578 2525 543 2586 
Q 509 2647 437 2695 
Q 366 2744 144 2744 
L 144 2863 
L 1528 2863 
L 1528 2744 
Q 1319 2744 1247 2701 
Q 1175 2659 1134 2596 
Q 1094 2534 1094 2191 
L 1094 881 
z
" transform="scale(0.015625)"/>
       <path id="TimesNewRomanPSMT-43d" d="M 1094 1584 
L 2331 1584 
L 2331 2191 
Q 2331 2463 2309 2545 
Q 2288 2628 2202 2686 
Q 2116 2744 1897 2744 
L 1897 2863 
L 3281 2863 
L 3281 2744 
Q 3088 2744 2998 2700 
Q 2909 2656 2878 2573 
Q 2847 2491 2847 2191 
L 2847 672 
Q 2847 400 2870 312 
Q 2894 225 2984 170 
Q 3075 116 3281 116 
L 3281 0 
L 1897 0 
L 1897 116 
Q 2156 116 2243 211 
Q 2331 306 2331 672 
L 2331 1381 
L 1094 1381 
L 1094 672 
Q 1094 400 1117 312 
Q 1141 225 1231 170 
Q 1322 116 1528 116 
L 1528 0 
L 144 0 
L 144 116 
Q 422 116 500 217 
Q 578 319 578 672 
L 578 2191 
Q 578 2463 554 2550 
Q 531 2638 440 2691 
Q 350 2744 144 2744 
L 144 2863 
L 1528 2863 
L 1528 2744 
Q 1334 2744 1245 2700 
Q 1156 2656 1125 2573 
Q 1094 2491 1094 2191 
L 1094 1584 
z
" transform="scale(0.015625)"/>
       <path id="TimesNewRomanPSMT-430" d="M 1822 413 
Q 1381 72 1269 19 
Q 1100 -59 909 -59 
Q 613 -59 420 144 
Q 228 347 228 678 
Q 228 888 322 1041 
Q 450 1253 767 1440 
Q 1084 1628 1822 1897 
L 1822 2009 
Q 1822 2438 1686 2597 
Q 1550 2756 1291 2756 
Q 1094 2756 978 2650 
Q 859 2544 859 2406 
L 866 2225 
Q 866 2081 792 2003 
Q 719 1925 600 1925 
Q 484 1925 411 2006 
Q 338 2088 338 2228 
Q 338 2497 613 2722 
Q 888 2947 1384 2947 
Q 1766 2947 2009 2819 
Q 2194 2722 2281 2516 
Q 2338 2381 2338 1966 
L 2338 994 
Q 2338 584 2353 492 
Q 2369 400 2405 369 
Q 2441 338 2488 338 
Q 2538 338 2575 359 
Q 2641 400 2828 588 
L 2828 413 
Q 2478 -56 2159 -56 
Q 2006 -56 1915 50 
Q 1825 156 1822 413 
z
M 1822 616 
L 1822 1706 
Q 1350 1519 1213 1441 
Q 966 1303 859 1153 
Q 753 1003 753 825 
Q 753 600 887 451 
Q 1022 303 1197 303 
Q 1434 303 1822 616 
z
" transform="scale(0.015625)"/>
       <path id="TimesNewRomanPSMT-20" transform="scale(0.015625)"/>
       <path id="TimesNewRomanPSMT-432" d="M 2016 1513 
Q 2800 1350 2800 778 
Q 2800 388 2473 194 
Q 2147 0 1563 0 
L 150 0 
L 150 116 
Q 428 116 501 220 
Q 575 325 575 672 
L 575 2191 
Q 575 2528 542 2587 
Q 509 2647 439 2695 
Q 369 2744 150 2744 
L 150 2863 
L 1469 2863 
Q 1850 2863 2086 2803 
Q 2322 2744 2473 2569 
Q 2625 2394 2625 2144 
Q 2625 1656 2016 1513 
z
M 1094 1584 
Q 1231 1581 1259 1581 
Q 1688 1581 1878 1745 
Q 2069 1909 2069 2144 
Q 2069 2416 1875 2537 
Q 1681 2659 1256 2659 
L 1094 2659 
L 1094 1584 
z
M 1094 253 
Q 1250 203 1466 203 
Q 1838 203 2019 365 
Q 2200 528 2200 784 
Q 2200 1072 1965 1225 
Q 1731 1378 1316 1378 
Q 1213 1378 1094 1372 
L 1094 253 
z
" transform="scale(0.015625)"/>
       <path id="TimesNewRomanPSMT-43e" d="M 1600 2947 
Q 2250 2947 2644 2453 
Q 2978 2031 2978 1484 
Q 2978 1100 2793 706 
Q 2609 313 2286 112 
Q 1963 -88 1566 -88 
Q 919 -88 538 428 
Q 216 863 216 1403 
Q 216 1797 411 2186 
Q 606 2575 925 2761 
Q 1244 2947 1600 2947 
z
M 1503 2744 
Q 1338 2744 1170 2645 
Q 1003 2547 900 2300 
Q 797 2053 797 1666 
Q 797 1041 1045 587 
Q 1294 134 1700 134 
Q 2003 134 2200 384 
Q 2397 634 2397 1244 
Q 2397 2006 2069 2444 
Q 1847 2744 1503 2744 
z
" transform="scale(0.015625)"/>
       <path id="TimesNewRomanPSMT-44b" d="M 2716 2744 
L 2716 2863 
L 4156 2863 
L 4156 2744 
Q 3966 2744 3878 2703 
Q 3791 2663 3758 2578 
Q 3725 2494 3725 2191 
L 3725 672 
Q 3725 378 3753 292 
Q 3781 206 3873 161 
Q 3966 116 4156 116 
L 4156 0 
L 2716 0 
L 2716 116 
Q 2959 125 3032 148 
Q 3106 172 3156 269 
Q 3206 366 3206 672 
L 3206 2191 
Q 3206 2494 3172 2581 
Q 3138 2669 3052 2705 
Q 2966 2741 2716 2744 
z
M 1091 1588 
L 1447 1594 
Q 2722 1594 2722 806 
Q 2722 441 2411 220 
Q 2100 0 1516 0 
L 141 0 
L 141 116 
Q 419 116 497 217 
Q 575 319 575 672 
L 575 2191 
Q 575 2525 540 2586 
Q 506 2647 434 2695 
Q 363 2744 141 2744 
L 141 2863 
L 1638 2863 
L 1638 2744 
Q 1328 2744 1256 2708 
Q 1184 2672 1137 2614 
Q 1091 2556 1091 2191 
L 1091 1588 
z
M 1091 247 
Q 1256 203 1422 203 
Q 1734 203 1929 368 
Q 2125 534 2125 788 
Q 2125 1388 1291 1388 
Q 1219 1388 1091 1384 
L 1091 247 
z
" transform="scale(0.015625)"/>
      </defs>
      <use xlink:href="#TimesNewRomanPSMT-434"/>
      <use xlink:href="#TimesNewRomanPSMT-43b" x="50.878906"/>
      <use xlink:href="#TimesNewRomanPSMT-438" x="100.78125"/>
      <use xlink:href="#TimesNewRomanPSMT-43d" x="154.296875"/>
      <use xlink:href="#TimesNewRomanPSMT-430" x="207.8125"/>
      <use xlink:href="#TimesNewRomanPSMT-20" x="252.197266"/>
      <use xlink:href="#TimesNewRomanPSMT-432" x="277.197266"/>
      <use xlink:href="#TimesNewRomanPSMT-43e" x="323.789062"/>
      <use xlink:href="#TimesNewRomanPSMT-43b" x="372.414062"/>
      <use xlink:href="#TimesNewRomanPSMT-43d" x="422.316406"/>
      <use xlink:href="#TimesNewRomanPSMT-44b" x="475.832031"/>
      <use xlink:href="#TimesNewRomanPSMT-20" x="543.019531"/>
     </g>
     <!-- регистрации, нм -->
     <g transform="translate(311.230961 887.375562) scale(0.42 -0.42)">
      <defs>
       <path id="TimesNewRomanPSMT-440" d="M -6 2578 
L 875 2934 
L 994 2934 
L 994 2266 
Q 1216 2644 1439 2795 
Q 1663 2947 1909 2947 
Q 2341 2947 2628 2609 
Q 2981 2197 2981 1534 
Q 2981 794 2556 309 
Q 2206 -88 1675 -88 
Q 1444 -88 1275 -22 
Q 1150 25 994 166 
L 994 -706 
Q 994 -1000 1030 -1079 
Q 1066 -1159 1155 -1206 
Q 1244 -1253 1478 -1253 
L 1478 -1369 
L -22 -1369 
L -22 -1253 
L 56 -1253 
Q 228 -1256 350 -1188 
Q 409 -1153 442 -1076 
Q 475 -1000 475 -688 
L 475 2019 
Q 475 2297 450 2372 
Q 425 2447 370 2484 
Q 316 2522 222 2522 
Q 147 2522 31 2478 
L -6 2578 
z
M 994 2081 
L 994 1013 
Q 994 666 1022 556 
Q 1066 375 1236 237 
Q 1406 100 1666 100 
Q 1978 100 2172 344 
Q 2425 663 2425 1241 
Q 2425 1897 2138 2250 
Q 1938 2494 1663 2494 
Q 1513 2494 1366 2419 
Q 1253 2363 994 2081 
z
" transform="scale(0.015625)"/>
       <path id="TimesNewRomanPSMT-435" d="M 681 1784 
Q 678 1147 991 784 
Q 1303 422 1725 422 
Q 2006 422 2214 576 
Q 2422 731 2563 1106 
L 2659 1044 
Q 2594 616 2278 264 
Q 1963 -88 1488 -88 
Q 972 -88 605 314 
Q 238 716 238 1394 
Q 238 2128 614 2539 
Q 991 2950 1559 2950 
Q 2041 2950 2350 2633 
Q 2659 2316 2659 1784 
L 681 1784 
z
M 681 1966 
L 2006 1966 
Q 1991 2241 1941 2353 
Q 1863 2528 1708 2628 
Q 1553 2728 1384 2728 
Q 1125 2728 920 2526 
Q 716 2325 681 1966 
z
" transform="scale(0.015625)"/>
       <path id="TimesNewRomanPSMT-433" d="M 2469 2863 
L 2584 2081 
L 2447 2081 
Q 2328 2469 2208 2564 
Q 2088 2659 1700 2659 
L 1094 2659 
L 1094 672 
Q 1094 341 1128 277 
Q 1163 213 1236 164 
Q 1309 116 1528 116 
L 1528 0 
L 97 0 
L 97 116 
Q 403 122 490 211 
Q 578 300 578 672 
L 578 2191 
Q 578 2494 543 2580 
Q 509 2666 423 2703 
Q 338 2741 97 2744 
L 97 2863 
L 2469 2863 
z
" transform="scale(0.015625)"/>
       <path id="TimesNewRomanPSMT-441" d="M 2631 1088 
Q 2516 522 2178 217 
Q 1841 -88 1431 -88 
Q 944 -88 581 321 
Q 219 731 219 1428 
Q 219 2103 620 2525 
Q 1022 2947 1584 2947 
Q 2006 2947 2278 2723 
Q 2550 2500 2550 2259 
Q 2550 2141 2473 2067 
Q 2397 1994 2259 1994 
Q 2075 1994 1981 2113 
Q 1928 2178 1911 2362 
Q 1894 2547 1784 2644 
Q 1675 2738 1481 2738 
Q 1169 2738 978 2506 
Q 725 2200 725 1697 
Q 725 1184 976 792 
Q 1228 400 1656 400 
Q 1963 400 2206 609 
Q 2378 753 2541 1131 
L 2631 1088 
z
" transform="scale(0.015625)"/>
       <path id="TimesNewRomanPSMT-442" d="M 156 2863 
L 2631 2863 
L 2756 2088 
L 2616 2088 
Q 2578 2322 2490 2450 
Q 2403 2578 2290 2618 
Q 2178 2659 1906 2659 
L 1656 2659 
L 1656 672 
Q 1656 353 1695 267 
Q 1734 181 1821 153 
Q 1909 125 2222 116 
L 2222 0 
L 666 0 
L 666 116 
Q 966 122 1052 212 
Q 1138 303 1138 672 
L 1138 2659 
L 881 2659 
Q 613 2659 516 2626 
Q 419 2594 330 2470 
Q 241 2347 178 2088 
L 38 2088 
L 156 2863 
z
" transform="scale(0.015625)"/>
       <path id="TimesNewRomanPSMT-446" d="M 3281 116 
L 3281 -794 
L 3166 -794 
Q 3156 -428 2926 -214 
Q 2697 0 2094 0 
L 144 0 
L 144 116 
Q 422 116 500 217 
Q 578 319 578 672 
L 578 2191 
Q 578 2525 543 2586 
Q 509 2647 437 2695 
Q 366 2744 144 2744 
L 144 2863 
L 1528 2863 
L 1528 2744 
Q 1319 2744 1247 2701 
Q 1175 2659 1134 2596 
Q 1094 2534 1094 2191 
L 1094 575 
Q 1094 303 1142 253 
Q 1191 203 1453 203 
L 1959 203 
Q 2250 203 2290 256 
Q 2331 309 2331 600 
L 2331 2191 
Q 2331 2488 2300 2573 
Q 2269 2659 2178 2701 
Q 2088 2744 1897 2744 
L 1897 2863 
L 3281 2863 
L 3281 2744 
Q 3072 2744 3000 2701 
Q 2928 2659 2887 2596 
Q 2847 2534 2847 2191 
L 2847 719 
Q 2847 316 2919 222 
Q 2991 128 3281 116 
z
" transform="scale(0.015625)"/>
       <path id="TimesNewRomanPSMT-2c" d="M 344 -1066 
L 344 -928 
Q 666 -822 842 -598 
Q 1019 -375 1019 -125 
Q 1019 -66 991 -25 
Q 969 3 947 3 
Q 913 3 797 -59 
Q 741 -88 678 -88 
Q 525 -88 434 3 
Q 344 94 344 253 
Q 344 406 461 515 
Q 578 625 747 625 
Q 953 625 1114 445 
Q 1275 266 1275 -31 
Q 1275 -353 1051 -629 
Q 828 -906 344 -1066 
z
" transform="scale(0.015625)"/>
       <path id="TimesNewRomanPSMT-43c" d="M 2050 747 
L 2944 2863 
L 3909 2863 
L 3909 2744 
Q 3697 2744 3626 2701 
Q 3556 2659 3515 2596 
Q 3475 2534 3475 2191 
L 3475 672 
Q 3475 375 3504 289 
Q 3534 203 3626 159 
Q 3719 116 3909 116 
L 3909 0 
L 2525 0 
L 2525 116 
Q 2781 116 2868 211 
Q 2956 306 2956 672 
L 2956 2394 
L 1944 0 
L 1834 0 
L 803 2394 
L 803 672 
Q 803 375 834 289 
Q 866 203 956 159 
Q 1047 116 1238 116 
L 1238 0 
L 144 0 
L 144 116 
Q 422 116 500 217 
Q 578 319 578 672 
L 578 2191 
Q 578 2525 543 2586 
Q 509 2647 437 2695 
Q 366 2744 144 2744 
L 144 2863 
L 1150 2863 
L 2050 747 
z
" transform="scale(0.015625)"/>
      </defs>
      <use xlink:href="#TimesNewRomanPSMT-440"/>
      <use xlink:href="#TimesNewRomanPSMT-435" x="50"/>
      <use xlink:href="#TimesNewRomanPSMT-433" x="94.384766"/>
      <use xlink:href="#TimesNewRomanPSMT-438" x="135.400391"/>
      <use xlink:href="#TimesNewRomanPSMT-441" x="188.916016"/>
      <use xlink:href="#TimesNewRomanPSMT-442" x="233.300781"/>
      <use xlink:href="#TimesNewRomanPSMT-440" x="278.251953"/>
      <use xlink:href="#TimesNewRomanPSMT-430" x="328.251953"/>
      <use xlink:href="#TimesNewRomanPSMT-446" x="372.636719"/>
      <use xlink:href="#TimesNewRomanPSMT-438" x="426.152344"/>
      <use xlink:href="#TimesNewRomanPSMT-438" x="479.667969"/>
      <use xlink:href="#TimesNewRomanPSMT-2c" x="533.183594"/>
      <use xlink:href="#TimesNewRomanPSMT-20" x="558.183594"/>
      <use xlink:href="#TimesNewRomanPSMT-43d" x="583.183594"/>
      <use xlink:href="#TimesNewRomanPSMT-43c" x="636.699219"/>
     </g>
    </g>
   </g>
   <g id="matplotlib.axis_2">
    <g id="ytick_1">
     <g id="line2d_13">
      <path d="M 83.25625 590.31264 
L 833.205671 590.31264 
" clip-path="url(#p93bfcc04f5)" style="fill: none; stroke: #000000; stroke-width: 0.7; stroke-linecap: square"/>
     </g>
     <g id="line2d_14">
      <defs>
       <path id="m38664869ab" d="M 0 0 
L 10 0 
" style="stroke: #000000; stroke-width: 2"/>
      </defs>
      <g>
       <use xlink:href="#m38664869ab" x="83.25625" y="590.31264" style="stroke: #000000; stroke-width: 2"/>
      </g>
     </g>
     <g id="text_8">
      <!-- −0.2 -->
      <g transform="translate(7.2 604.20014) scale(0.4 -0.4)">
       <defs>
        <path id="TimesNewRomanPSMT-2212" d="M 3484 2000 
L 116 2000 
L 116 2256 
L 3484 2256 
L 3484 2000 
z
" transform="scale(0.015625)"/>
        <path id="TimesNewRomanPSMT-2e" d="M 800 606 
Q 947 606 1047 504 
Q 1147 403 1147 259 
Q 1147 116 1045 14 
Q 944 -88 800 -88 
Q 656 -88 554 14 
Q 453 116 453 259 
Q 453 406 554 506 
Q 656 606 800 606 
z
" transform="scale(0.015625)"/>
       </defs>
       <use xlink:href="#TimesNewRomanPSMT-2212"/>
       <use xlink:href="#TimesNewRomanPSMT-30" x="56.396484"/>
       <use xlink:href="#TimesNewRomanPSMT-2e" x="106.396484"/>
       <use xlink:href="#TimesNewRomanPSMT-32" x="131.396484"/>
      </g>
     </g>
    </g>
    <g id="ytick_2">
     <g id="line2d_15">
      <path d="M 83.25625 432.00117 
L 833.205671 432.00117 
" clip-path="url(#p93bfcc04f5)" style="fill: none; stroke: #000000; stroke-width: 0.7; stroke-linecap: square"/>
     </g>
     <g id="line2d_16">
      <g>
       <use xlink:href="#m38664869ab" x="83.25625" y="432.00117" style="stroke: #000000; stroke-width: 2"/>
      </g>
     </g>
     <g id="text_9">
      <!-- −0.1 -->
      <g transform="translate(7.2 445.88867) scale(0.4 -0.4)">
       <defs>
        <path id="TimesNewRomanPSMT-31" d="M 750 3822 
L 1781 4325 
L 1884 4325 
L 1884 747 
Q 1884 391 1914 303 
Q 1944 216 2037 169 
Q 2131 122 2419 116 
L 2419 0 
L 825 0 
L 825 116 
Q 1125 122 1212 167 
Q 1300 213 1334 289 
Q 1369 366 1369 747 
L 1369 3034 
Q 1369 3497 1338 3628 
Q 1316 3728 1258 3775 
Q 1200 3822 1119 3822 
Q 1003 3822 797 3725 
L 750 3822 
z
" transform="scale(0.015625)"/>
       </defs>
       <use xlink:href="#TimesNewRomanPSMT-2212"/>
       <use xlink:href="#TimesNewRomanPSMT-30" x="56.396484"/>
       <use xlink:href="#TimesNewRomanPSMT-2e" x="106.396484"/>
       <use xlink:href="#TimesNewRomanPSMT-31" x="131.396484"/>
      </g>
     </g>
    </g>
    <g id="ytick_3">
     <g id="line2d_17">
      <path d="M 83.25625 273.689699 
L 833.205671 273.689699 
" clip-path="url(#p93bfcc04f5)" style="fill: none; stroke: #000000; stroke-width: 0.7; stroke-linecap: square"/>
     </g>
     <g id="line2d_18">
      <g>
       <use xlink:href="#m38664869ab" x="83.25625" y="273.689699" style="stroke: #000000; stroke-width: 2"/>
      </g>
     </g>
     <g id="text_10">
      <!-- 0.0 -->
      <g transform="translate(29.75625 287.577199) scale(0.4 -0.4)">
       <use xlink:href="#TimesNewRomanPSMT-30"/>
       <use xlink:href="#TimesNewRomanPSMT-2e" x="50"/>
       <use xlink:href="#TimesNewRomanPSMT-30" x="75"/>
      </g>
     </g>
    </g>
    <g id="ytick_4">
     <g id="line2d_19">
      <path d="M 83.25625 115.378229 
L 833.205671 115.378229 
" clip-path="url(#p93bfcc04f5)" style="fill: none; stroke: #000000; stroke-width: 0.7; stroke-linecap: square"/>
     </g>
     <g id="line2d_20">
      <g>
       <use xlink:href="#m38664869ab" x="83.25625" y="115.378229" style="stroke: #000000; stroke-width: 2"/>
      </g>
     </g>
     <g id="text_11">
      <!-- 0.1 -->
      <g transform="translate(29.75625 129.265729) scale(0.4 -0.4)">
       <use xlink:href="#TimesNewRomanPSMT-30"/>
       <use xlink:href="#TimesNewRomanPSMT-2e" x="50"/>
       <use xlink:href="#TimesNewRomanPSMT-31" x="75"/>
      </g>
     </g>
    </g>
   </g>
   <g id="line2d_21">
    <path d="M 117.34486 274.125571 
L 208.071046 274.323762 
L 213.19696 274.494871 
L 218.348149 274.793831 
L 223.474063 275.268716 
L 228.599977 275.985344 
L 233.321868 276.939024 
L 238.447782 278.340588 
L 243.598971 280.230387 
L 248.724885 282.81146 
L 253.850799 286.117289 
L 258.572691 289.846181 
L 263.698604 294.60602 
L 268.849794 300.034442 
L 273.899958 306.090712 
L 278.950123 312.962712 
L 284.000287 320.847639 
L 289.050452 329.998035 
L 294.100616 340.595205 
L 299.22653 352.185207 
L 304.352444 365.645394 
L 309.074335 379.387053 
L 314.200249 397.488131 
L 319.351438 417.074811 
L 324.401603 438.193812 
L 329.451767 460.039928 
L 334.501932 481.313805 
L 339.552096 502.006645 
L 344.602261 521.138696 
L 349.728174 537.78636 
L 354.854088 552.569893 
L 359.57598 564.554416 
L 364.701893 574.890528 
L 369.853083 583.637849 
L 374.903247 590.772533 
L 379.953412 595.403199 
L 385.003576 598.080578 
L 390.053741 599.020669 
L 395.103905 597.428228 
L 400.15407 593.974482 
L 405.204234 588.711821 
L 410.254398 582.454312 
L 415.304563 575.45759 
L 420.354727 567.449124 
L 425.480641 558.607483 
L 430.606555 549.272296 
L 440.45436 528.562183 
L 445.60555 517.157598 
L 450.655714 505.396815 
L 455.705879 494.028831 
L 460.756043 482.01451 
L 475.906536 447.950489 
L 491.05703 416.274813 
L 501.157359 397.489583 
L 506.207523 388.970227 
L 511.257688 380.87655 
L 516.307852 373.164624 
L 521.358016 366.195659 
L 526.307156 359.586214 
L 531.281571 353.432045 
L 536.660009 347.327553 
L 541.634424 341.881001 
L 546.608839 336.756756 
L 551.659003 332.005735 
L 556.709168 327.462719 
L 561.759332 323.278024 
L 566.809497 319.458745 
L 571.859661 315.813004 
L 576.909825 312.44951 
L 581.95999 309.235123 
L 587.010154 306.252689 
L 592.060319 303.832337 
L 597.110483 301.862908 
L 612.412475 296.886037 
L 627.310445 291.81041 
L 632.28486 290.292878 
L 642.637713 287.537567 
L 652.662292 285.415596 
L 662.762621 283.739253 
L 672.86295 282.344273 
L 688.164942 280.600348 
L 703.062912 279.222439 
L 718.39018 278.095663 
L 733.288149 277.238428 
L 748.615417 276.571859 
L 768.942298 275.957863 
L 794.142646 275.370468 
L 799.117061 275.268395 
L 799.117061 275.268395 
" clip-path="url(#p93bfcc04f5)" style="fill: none; stroke: #ff0000; stroke-width: 4; stroke-linecap: square"/>
   </g>
   <g id="line2d_22">
    <path d="M 117.34486 273.763774 
L 147.721596 273.877413 
L 172.972418 274.078233 
L 193.097327 274.523242 
L 198.223241 274.861698 
L 203.349155 275.321693 
L 208.071046 276.062667 
L 213.19696 277.139461 
L 218.348149 278.579578 
L 223.474063 281.094903 
L 228.599977 284.192782 
L 233.321868 288.473307 
L 238.447782 293.985561 
L 243.598971 301.113434 
L 248.724885 311.361317 
L 253.850799 324.257134 
L 258.572691 338.656968 
L 268.849794 373.509797 
L 273.899958 390.283139 
L 278.950123 403.855498 
L 284.000287 411.575328 
L 289.050452 412.541748 
L 294.100616 406.325387 
L 299.22653 388.328549 
L 304.352444 363.924401 
L 309.074335 335.799147 
L 314.200249 303.501421 
L 319.351438 266.787061 
L 324.401603 228.413805 
L 334.501932 154.653997 
L 339.552096 120.687359 
L 344.602261 91.973495 
L 349.728174 67.864383 
L 354.854088 51.75207 
L 359.57598 40.868182 
L 364.701893 40.982115 
L 369.853083 46.785653 
L 374.903247 58.773499 
L 379.953412 80.306513 
L 385.003576 105.476121 
L 390.053741 137.229133 
L 400.15407 205.64953 
L 405.204234 241.742105 
L 410.254398 280.898565 
L 415.304563 318.689742 
L 420.354727 355.186718 
L 425.480641 390.556362 
L 430.606555 422.580546 
L 435.328446 451.335563 
L 440.45436 478.510656 
L 445.60555 500.482356 
L 450.655714 521.354995 
L 455.705879 537.135325 
L 460.756043 550.782102 
L 465.806207 561.188818 
L 470.856372 567.07629 
L 475.906536 570.795122 
L 480.956701 572.771905 
L 486.006865 570.660182 
L 491.05703 570.009548 
L 496.107194 563.995468 
L 501.157359 556.928677 
L 506.207523 550.70441 
L 511.257688 541.930646 
L 516.307852 534.36037 
L 521.358016 525.902404 
L 526.307156 515.244483 
L 531.281571 505.795042 
L 536.660009 495.125433 
L 541.634424 484.448334 
L 546.608839 475.197416 
L 551.659003 464.614772 
L 556.709168 453.620489 
L 561.759332 443.818936 
L 566.809497 433.72884 
L 571.859661 423.968502 
L 576.909825 414.943108 
L 581.95999 404.840995 
L 587.010154 396.2074 
L 592.060319 389.080675 
L 597.110483 383.264692 
L 602.059623 378.584763 
L 607.034038 373.424608 
L 612.412475 367.186124 
L 617.38689 361.22028 
L 622.361306 354.692785 
L 627.310445 347.762401 
L 632.28486 341.298498 
L 637.663298 334.51078 
L 642.637713 328.781261 
L 647.612128 323.881835 
L 652.662292 319.290612 
L 657.712457 315.392408 
L 662.762621 311.819739 
L 667.812786 308.550948 
L 672.86295 305.814651 
L 677.81209 302.968739 
L 682.786505 300.59867 
L 693.139357 295.975005 
L 698.113772 294.044454 
L 708.037327 290.638241 
L 718.39018 287.780955 
L 723.364595 286.503469 
L 728.313734 285.367852 
L 743.641002 282.372262 
L 758.76622 280.030883 
L 778.815379 277.872682 
L 794.142646 276.650626 
L 799.117061 276.328403 
L 799.117061 276.328403 
" clip-path="url(#p93bfcc04f5)" style="fill: none; stroke: #008000; stroke-width: 4; stroke-linecap: square"/>
   </g>
   <g id="line2d_23">
    <path d="M 117.34486 273.676616 
L 198.223241 274.019147 
L 203.349155 273.849479 
L 208.071046 273.539483 
L 218.348149 272.565207 
L 223.474063 272.377632 
L 228.599977 272.537595 
L 233.321868 273.996663 
L 238.447782 279.853141 
L 243.598971 294.529275 
L 248.724885 324.293815 
L 253.850799 371.828988 
L 258.572691 424.444648 
L 263.698604 489.128801 
L 268.849794 548.459157 
L 273.899958 603.317286 
L 278.950123 649.867561 
L 284.000287 684.256302 
L 289.050452 705.975937 
L 294.100616 714.231818 
L 299.22653 710.407952 
L 304.352444 698.95937 
L 309.074335 684.518554 
L 314.200249 665.256785 
L 319.351438 644.837494 
L 324.401603 624.204564 
L 334.501932 578.251948 
L 339.552096 552.101376 
L 344.602261 524.677715 
L 349.728174 495.651894 
L 354.854088 464.769332 
L 359.57598 437.709603 
L 364.701893 407.599328 
L 369.853083 380.23106 
L 374.903247 356.119279 
L 379.953412 333.011007 
L 385.003576 312.159639 
L 390.053741 293.681777 
L 395.103905 276.524023 
L 400.15407 261.519059 
L 405.204234 248.849268 
L 410.254398 237.156208 
L 415.304563 227.562062 
L 420.354727 218.998765 
L 425.480641 212.556798 
L 430.606555 207.392659 
L 435.328446 203.4119 
L 440.45436 201.407163 
L 445.60555 199.644714 
L 450.655714 198.903545 
L 455.705879 199.491397 
L 460.756043 200.609242 
L 465.806207 201.952324 
L 470.856372 203.740194 
L 475.906536 206.124449 
L 480.956701 208.971104 
L 486.006865 211.650537 
L 491.05703 214.862216 
L 501.157359 220.617381 
L 506.207523 223.272801 
L 516.307852 229.057297 
L 526.307156 234.169227 
L 536.660009 238.950477 
L 541.634424 240.962121 
L 546.608839 243.250634 
L 551.659003 245.210021 
L 566.809497 250.587934 
L 576.909825 253.672105 
L 581.95999 255.123782 
L 592.060319 257.568753 
L 597.110483 258.518812 
L 607.034038 259.702107 
L 612.412475 260.604573 
L 617.38689 261.562618 
L 622.361306 262.355885 
L 627.310445 263.624109 
L 632.28486 264.772838 
L 642.637713 266.810449 
L 652.662292 268.476833 
L 657.712457 269.217894 
L 667.812786 270.329577 
L 677.81209 271.131868 
L 688.164942 271.785329 
L 703.062912 272.376752 
L 743.641002 273.159052 
L 753.514083 273.300618 
L 773.866239 273.490839 
L 799.117061 273.771334 
L 799.117061 273.771334 
" clip-path="url(#p93bfcc04f5)" style="fill: none; stroke: #0000ff; stroke-width: 4; stroke-linecap: square"/>
   </g>
   <g id="line2d_24">
    <path d="M 117.34486 275.012232 
L 127.596688 275.426366 
L 132.318579 275.250003 
L 137.444532 275.362683 
L 147.721596 274.919541 
L 152.84751 274.29914 
L 157.569401 274.19036 
L 167.846505 272.827722 
L 172.972418 271.934542 
L 182.820224 269.837719 
L 187.946138 268.446844 
L 198.223241 266.082289 
L 203.349155 265.200958 
L 208.071046 264.610651 
L 213.19696 264.987852 
L 218.348149 266.144924 
L 223.474063 268.655816 
L 228.599977 273.344364 
L 233.321868 277.9887 
L 238.447782 280.683293 
L 243.598971 279.809075 
L 248.724885 276.352342 
L 253.850799 280.729763 
L 258.572691 294.567405 
L 263.698604 314.900483 
L 273.899958 367.480703 
L 278.950123 398.702713 
L 284.000287 431.42972 
L 294.100616 482.617839 
L 299.22653 497.320355 
L 304.352444 501.362401 
L 309.074335 498.882861 
L 314.200249 503.822016 
L 319.351438 498.415182 
L 324.401603 503.84095 
L 329.451767 507.154114 
L 334.501932 510.033912 
L 339.552096 523.311459 
L 344.602261 531.722176 
L 349.728174 536.489674 
L 354.854088 544.106863 
L 359.57598 546.125673 
L 364.701893 553.543303 
L 369.853083 552.806566 
L 374.903247 551.29126 
L 379.953412 561.409997 
L 385.003576 562.260295 
L 390.053741 564.911099 
L 395.103905 565.685632 
L 400.15407 563.935268 
L 405.204234 555.745949 
L 410.254398 551.981624 
L 415.304563 544.017735 
L 420.354727 539.825015 
L 425.480641 530.098326 
L 430.606555 518.228062 
L 435.328446 508.861652 
L 440.45436 503.814517 
L 445.60555 494.636683 
L 450.655714 482.078251 
L 455.705879 470.844108 
L 460.756043 461.82786 
L 465.806207 449.365044 
L 470.856372 441.483373 
L 475.906536 429.585234 
L 480.956701 421.896944 
L 486.006865 414.560714 
L 491.05703 403.534089 
L 496.107194 392.059558 
L 501.157359 388.687383 
L 506.207523 380.22195 
L 511.257688 372.542185 
L 516.307852 368.091721 
L 521.358016 361.503662 
L 526.307156 353.002659 
L 531.281571 348.054695 
L 536.660009 344.924217 
L 541.634424 341.232756 
L 546.608839 334.050497 
L 551.659003 329.647683 
L 556.709168 324.812147 
L 571.859661 313.630913 
L 576.909825 311.077063 
L 581.95999 307.292284 
L 587.010154 304.734889 
L 597.110483 301.412858 
L 602.059623 299.770868 
L 607.034038 297.699386 
L 612.412475 297.399155 
L 617.38689 295.207267 
L 622.361306 293.821011 
L 627.310445 290.41218 
L 632.28486 289.29974 
L 642.637713 284.60849 
L 647.612128 284.044813 
L 652.662292 282.14391 
L 657.712457 281.422915 
L 662.762621 280.563743 
L 667.812786 279.533067 
L 672.86295 279.836724 
L 677.81209 278.422523 
L 688.164942 277.948078 
L 693.139357 277.601083 
L 708.037327 277.179428 
L 713.415764 276.790344 
L 723.364595 276.834919 
L 728.313734 276.560578 
L 733.288149 276.06073 
L 743.641002 276.008622 
L 748.615417 276.586444 
L 753.514083 276.22515 
L 758.76622 276.044946 
L 763.690161 276.23115 
L 773.866239 275.839924 
L 778.815379 275.782584 
L 783.789794 275.86105 
L 789.168231 275.686359 
L 799.117061 275.597008 
L 799.117061 275.597008 
" clip-path="url(#p93bfcc04f5)" style="fill: none; stroke: #a020f0; stroke-width: 4; stroke-linecap: square"/>
   </g>
   <g id="line2d_25">
    <path d="M 117.34486 274.036249 
L 122.470774 272.487961 
L 127.596688 274.041657 
L 132.318579 273.596741 
L 137.444532 272.412345 
L 142.595682 273.50293 
L 147.721596 273.474671 
L 152.84751 271.340035 
L 157.569401 273.085094 
L 162.695354 271.027893 
L 167.846505 270.292828 
L 172.972418 267.789448 
L 178.098332 266.963719 
L 182.820224 266.734837 
L 187.946138 269.0864 
L 193.097327 269.516809 
L 198.223241 270.780945 
L 203.349155 274.207216 
L 208.071046 273.350278 
L 213.19696 270.447864 
L 218.348149 272.404058 
L 223.474063 272.750005 
L 228.599977 270.343515 
L 233.321868 266.194967 
L 238.447782 268.265648 
L 243.598971 280.41913 
L 248.724885 289.615589 
L 253.850799 325.375535 
L 258.572691 345.818852 
L 263.698604 365.962888 
L 268.849794 408.883861 
L 273.899958 447.115228 
L 278.950123 495.903965 
L 289.050452 544.817144 
L 294.100616 573.756925 
L 299.22653 567.670069 
L 304.352444 587.351543 
L 309.074335 582.661088 
L 314.200249 563.944463 
L 319.351438 529.817385 
L 324.401603 506.063205 
L 329.451767 515.980644 
L 334.501932 468.800337 
L 344.602261 433.362177 
L 349.728174 403.885865 
L 354.854088 420.51479 
L 359.57598 421.876688 
L 364.701893 413.63889 
L 369.853083 443.743529 
L 374.903247 423.783452 
L 379.953412 443.359985 
L 385.003576 452.573807 
L 390.053741 514.129478 
L 395.103905 450.081115 
L 400.15407 415.27713 
L 405.204234 464.915905 
L 410.254398 496.261646 
L 415.304563 485.792996 
L 420.354727 482.169793 
L 425.480641 476.379527 
L 430.606555 493.467565 
L 435.328446 526.78474 
L 440.45436 521.604945 
L 445.60555 512.168741 
L 450.655714 503.179377 
L 455.705879 524.578093 
L 460.756043 521.108055 
L 465.806207 506.792847 
L 470.856372 476.658312 
L 475.906536 501.506185 
L 480.956701 487.112801 
L 486.006865 462.388516 
L 491.05703 479.277993 
L 496.107194 461.965764 
L 501.157359 458.333034 
L 506.207523 437.283804 
L 511.257688 424.170482 
L 516.307852 423.91702 
L 521.358016 422.959227 
L 526.307156 410.474712 
L 531.281571 401.80499 
L 536.660009 414.465074 
L 541.634424 393.037015 
L 546.608839 392.246996 
L 551.659003 391.244501 
L 556.709168 380.712183 
L 561.759332 358.226314 
L 566.809497 356.434918 
L 571.859661 355.61522 
L 576.909825 345.134294 
L 581.95999 335.779064 
L 587.010154 332.355418 
L 592.060319 336.115626 
L 597.110483 329.447275 
L 602.059623 334.393176 
L 607.034038 324.357798 
L 612.412475 326.959016 
L 617.38689 329.648973 
L 622.361306 315.198072 
L 627.310445 310.961237 
L 632.28486 307.512435 
L 637.663298 302.41462 
L 642.637713 295.446519 
L 647.612128 295.806382 
L 652.662292 287.754012 
L 657.712457 291.036605 
L 662.762621 289.620717 
L 667.812786 291.096787 
L 672.86295 289.069672 
L 677.81209 284.07649 
L 682.786505 286.291752 
L 688.164942 284.418331 
L 693.139357 283.398825 
L 698.113772 284.437518 
L 708.037327 283.583089 
L 713.415764 285.151386 
L 718.39018 285.07773 
L 723.364595 285.894769 
L 728.313734 285.383795 
L 733.288149 283.255074 
L 738.666587 282.442735 
L 743.641002 282.67731 
L 748.615417 281.766671 
L 753.514083 283.754681 
L 758.76622 281.813601 
L 763.690161 278.903984 
L 768.942298 278.114347 
L 773.866239 277.710439 
L 778.815379 276.249827 
L 783.789794 273.830516 
L 794.142646 271.175732 
L 799.117061 273.408499 
L 799.117061 273.408499 
" clip-path="url(#p93bfcc04f5)" style="fill: none; stroke: #a63600; stroke-width: 4; stroke-linecap: square"/>
   </g>
   <g id="patch_3">
    <path d="M 83.25625 747.9 
L 83.25625 7.2 
" style="fill: none; stroke: #000000; stroke-width: 0.8; stroke-linejoin: miter; stroke-linecap: square"/>
   </g>
   <g id="patch_4">
    <path d="M 833.205671 747.9 
L 833.205671 7.2 
" style="fill: none; stroke: #000000; stroke-width: 0.8; stroke-linejoin: miter; stroke-linecap: square"/>
   </g>
   <g id="patch_5">
    <path d="M 83.25625 747.9 
L 833.205671 747.9 
" style="fill: none; stroke: #000000; stroke-width: 0.8; stroke-linejoin: miter; stroke-linecap: square"/>
   </g>
   <g id="patch_6">
    <path d="M 83.25625 7.2 
L 833.205671 7.2 
" style="fill: none; stroke: #000000; stroke-width: 0.8; stroke-linejoin: miter; stroke-linecap: square"/>
   </g>
   <g id="legend_1">
    <g id="patch_7">
     <path d="M 196.124711 1038.235781 
L 720.337211 1038.235781 
Q 726.337211 1038.235781 726.337211 1032.235781 
L 726.337211 907.984219 
Q 726.337211 901.984219 720.337211 901.984219 
L 196.124711 901.984219 
Q 190.124711 901.984219 190.124711 907.984219 
L 190.124711 1032.235781 
Q 190.124711 1038.235781 196.124711 1038.235781 
z
" style="fill: #ffffff; stroke: #000000; stroke-linejoin: miter"/>
    </g>
    <g id="line2d_26">
     <path d="M 202.124711 924.484219 
L 232.124711 924.484219 
L 262.124711 924.484219 
" style="fill: none; stroke: #ff0000; stroke-width: 4; stroke-linecap: square"/>
    </g>
    <g id="text_12">
     <!-- 1-ая 672.64 -->
     <g style="fill: #ff0000" transform="translate(286.124711 934.984219) scale(0.3 -0.3)">
      <defs>
       <path id="TimesNewRomanPSMT-2d" d="M 259 1672 
L 1875 1672 
L 1875 1200 
L 259 1200 
L 259 1672 
z
" transform="scale(0.015625)"/>
       <path id="TimesNewRomanPSMT-44f" d="M 2800 2863 
L 2800 2744 
Q 2606 2744 2514 2691 
Q 2422 2638 2394 2556 
Q 2366 2475 2366 2191 
L 2366 672 
Q 2366 400 2391 314 
Q 2416 228 2511 172 
Q 2606 116 2800 116 
L 2800 0 
L 1416 0 
L 1416 116 
Q 1675 116 1762 211 
Q 1850 306 1850 672 
L 1850 1294 
L 1722 1291 
Q 1694 1291 1622 1294 
L 709 0 
L -3 0 
L -3 116 
Q 153 116 214 158 
Q 275 200 441 434 
L 1109 1378 
Q 391 1628 391 2144 
Q 391 2434 648 2648 
Q 906 2863 1528 2863 
L 2800 2863 
z
M 1850 2625 
Q 1728 2659 1619 2659 
Q 1303 2659 1147 2503 
Q 991 2347 991 2131 
Q 991 1856 1212 1675 
Q 1434 1494 1772 1494 
Q 1806 1494 1850 1500 
L 1850 2625 
z
" transform="scale(0.015625)"/>
       <path id="TimesNewRomanPSMT-36" d="M 2869 4325 
L 2869 4209 
Q 2456 4169 2195 4045 
Q 1934 3922 1679 3669 
Q 1425 3416 1258 3105 
Q 1091 2794 978 2366 
Q 1428 2675 1881 2675 
Q 2316 2675 2634 2325 
Q 2953 1975 2953 1425 
Q 2953 894 2631 456 
Q 2244 -75 1606 -75 
Q 1172 -75 869 213 
Q 275 772 275 1663 
Q 275 2231 503 2743 
Q 731 3256 1154 3653 
Q 1578 4050 1965 4187 
Q 2353 4325 2688 4325 
L 2869 4325 
z
M 925 2138 
Q 869 1716 869 1456 
Q 869 1156 980 804 
Q 1091 453 1309 247 
Q 1469 100 1697 100 
Q 1969 100 2183 356 
Q 2397 613 2397 1088 
Q 2397 1622 2184 2012 
Q 1972 2403 1581 2403 
Q 1463 2403 1327 2353 
Q 1191 2303 925 2138 
z
" transform="scale(0.015625)"/>
       <path id="TimesNewRomanPSMT-37" d="M 644 4238 
L 2916 4238 
L 2916 4119 
L 1503 -88 
L 1153 -88 
L 2419 3728 
L 1253 3728 
Q 900 3728 750 3644 
Q 488 3500 328 3200 
L 238 3234 
L 644 4238 
z
" transform="scale(0.015625)"/>
      </defs>
      <use xlink:href="#TimesNewRomanPSMT-31"/>
      <use xlink:href="#TimesNewRomanPSMT-2d" x="50"/>
      <use xlink:href="#TimesNewRomanPSMT-430" x="83.300781"/>
      <use xlink:href="#TimesNewRomanPSMT-44f" x="127.685547"/>
      <use xlink:href="#TimesNewRomanPSMT-20" x="173.681641"/>
      <use xlink:href="#TimesNewRomanPSMT-36" x="198.681641"/>
      <use xlink:href="#TimesNewRomanPSMT-37" x="248.681641"/>
      <use xlink:href="#TimesNewRomanPSMT-32" x="298.681641"/>
      <use xlink:href="#TimesNewRomanPSMT-2e" x="348.681641"/>
      <use xlink:href="#TimesNewRomanPSMT-36" x="373.681641"/>
      <use xlink:href="#TimesNewRomanPSMT-34" x="423.681641"/>
     </g>
    </g>
    <g id="line2d_27">
     <path d="M 202.124711 966.901406 
L 232.124711 966.901406 
L 262.124711 966.901406 
" style="fill: none; stroke: #008000; stroke-width: 4; stroke-linecap: square"/>
    </g>
    <g id="text_13">
     <!-- 3-я 204.89 -->
     <g style="fill: #008000" transform="translate(286.124711 977.401406) scale(0.3 -0.3)">
      <defs>
       <path id="TimesNewRomanPSMT-38" d="M 1228 2134 
Q 725 2547 579 2797 
Q 434 3047 434 3316 
Q 434 3728 753 4026 
Q 1072 4325 1600 4325 
Q 2113 4325 2425 4047 
Q 2738 3769 2738 3413 
Q 2738 3175 2569 2928 
Q 2400 2681 1866 2347 
Q 2416 1922 2594 1678 
Q 2831 1359 2831 1006 
Q 2831 559 2490 242 
Q 2150 -75 1597 -75 
Q 994 -75 656 303 
Q 388 606 388 966 
Q 388 1247 577 1523 
Q 766 1800 1228 2134 
z
M 1719 2469 
Q 2094 2806 2194 3001 
Q 2294 3197 2294 3444 
Q 2294 3772 2109 3958 
Q 1925 4144 1606 4144 
Q 1288 4144 1088 3959 
Q 888 3775 888 3528 
Q 888 3366 970 3203 
Q 1053 3041 1206 2894 
L 1719 2469 
z
M 1375 2016 
Q 1116 1797 991 1539 
Q 866 1281 866 981 
Q 866 578 1086 336 
Q 1306 94 1647 94 
Q 1984 94 2187 284 
Q 2391 475 2391 747 
Q 2391 972 2272 1150 
Q 2050 1481 1375 2016 
z
" transform="scale(0.015625)"/>
       <path id="TimesNewRomanPSMT-39" d="M 338 -88 
L 338 28 
Q 744 34 1094 217 
Q 1444 400 1770 856 
Q 2097 1313 2225 1859 
Q 1734 1544 1338 1544 
Q 891 1544 572 1889 
Q 253 2234 253 2806 
Q 253 3363 572 3797 
Q 956 4325 1575 4325 
Q 2097 4325 2469 3894 
Q 2925 3359 2925 2575 
Q 2925 1869 2578 1258 
Q 2231 647 1613 244 
Q 1109 -88 516 -88 
L 338 -88 
z
M 2275 2091 
Q 2331 2497 2331 2741 
Q 2331 3044 2228 3395 
Q 2125 3747 1936 3934 
Q 1747 4122 1506 4122 
Q 1228 4122 1018 3872 
Q 809 3622 809 3128 
Q 809 2469 1088 2097 
Q 1291 1828 1588 1828 
Q 1731 1828 1928 1897 
Q 2125 1966 2275 2091 
z
" transform="scale(0.015625)"/>
      </defs>
      <use xlink:href="#TimesNewRomanPSMT-33"/>
      <use xlink:href="#TimesNewRomanPSMT-2d" x="50"/>
      <use xlink:href="#TimesNewRomanPSMT-44f" x="83.300781"/>
      <use xlink:href="#TimesNewRomanPSMT-20" x="129.296875"/>
      <use xlink:href="#TimesNewRomanPSMT-32" x="154.296875"/>
      <use xlink:href="#TimesNewRomanPSMT-30" x="204.296875"/>
      <use xlink:href="#TimesNewRomanPSMT-34" x="254.296875"/>
      <use xlink:href="#TimesNewRomanPSMT-2e" x="304.296875"/>
      <use xlink:href="#TimesNewRomanPSMT-38" x="329.296875"/>
      <use xlink:href="#TimesNewRomanPSMT-39" x="379.296875"/>
     </g>
    </g>
    <g id="line2d_28">
     <path d="M 202.124711 1009.318594 
L 232.124711 1009.318594 
L 262.124711 1009.318594 
" style="fill: none; stroke: #0000ff; stroke-width: 4; stroke-linecap: square"/>
    </g>
    <g id="text_14">
     <!-- 5-ая 163.81 -->
     <g style="fill: #0000ff" transform="translate(286.124711 1019.818594) scale(0.3 -0.3)">
      <use xlink:href="#TimesNewRomanPSMT-35"/>
      <use xlink:href="#TimesNewRomanPSMT-2d" x="50"/>
      <use xlink:href="#TimesNewRomanPSMT-430" x="83.300781"/>
      <use xlink:href="#TimesNewRomanPSMT-44f" x="127.685547"/>
      <use xlink:href="#TimesNewRomanPSMT-20" x="173.681641"/>
      <use xlink:href="#TimesNewRomanPSMT-31" x="198.681641"/>
      <use xlink:href="#TimesNewRomanPSMT-36" x="248.681641"/>
      <use xlink:href="#TimesNewRomanPSMT-33" x="298.681641"/>
      <use xlink:href="#TimesNewRomanPSMT-2e" x="348.681641"/>
      <use xlink:href="#TimesNewRomanPSMT-38" x="373.681641"/>
      <use xlink:href="#TimesNewRomanPSMT-31" x="423.681641"/>
     </g>
    </g>
    <g id="line2d_29">
     <path d="M 488.230961 924.484219 
L 518.230961 924.484219 
L 548.230961 924.484219 
" style="fill: none; stroke: #a020f0; stroke-width: 4; stroke-linecap: square"/>
    </g>
    <g id="text_15">
     <!-- 7-ая 271.08 -->
     <g style="fill: #a020f0" transform="translate(572.230961 934.984219) scale(0.3 -0.3)">
      <use xlink:href="#TimesNewRomanPSMT-37"/>
      <use xlink:href="#TimesNewRomanPSMT-2d" x="50"/>
      <use xlink:href="#TimesNewRomanPSMT-430" x="83.300781"/>
      <use xlink:href="#TimesNewRomanPSMT-44f" x="127.685547"/>
      <use xlink:href="#TimesNewRomanPSMT-20" x="173.681641"/>
      <use xlink:href="#TimesNewRomanPSMT-32" x="198.681641"/>
      <use xlink:href="#TimesNewRomanPSMT-37" x="248.681641"/>
      <use xlink:href="#TimesNewRomanPSMT-31" x="298.681641"/>
      <use xlink:href="#TimesNewRomanPSMT-2e" x="348.681641"/>
      <use xlink:href="#TimesNewRomanPSMT-30" x="373.681641"/>
      <use xlink:href="#TimesNewRomanPSMT-38" x="423.681641"/>
     </g>
    </g>
    <g id="line2d_30">
     <path d="M 488.230961 966.901406 
L 518.230961 966.901406 
L 548.230961 966.901406 
" style="fill: none; stroke: #a63600; stroke-width: 4; stroke-linecap: square"/>
    </g>
    <g id="text_16">
     <!-- 9-ая 68.21 -->
     <g style="fill: #a63600" transform="translate(572.230961 977.401406) scale(0.3 -0.3)">
      <use xlink:href="#TimesNewRomanPSMT-39"/>
      <use xlink:href="#TimesNewRomanPSMT-2d" x="50"/>
      <use xlink:href="#TimesNewRomanPSMT-430" x="83.300781"/>
      <use xlink:href="#TimesNewRomanPSMT-44f" x="127.685547"/>
      <use xlink:href="#TimesNewRomanPSMT-20" x="173.681641"/>
      <use xlink:href="#TimesNewRomanPSMT-36" x="198.681641"/>
      <use xlink:href="#TimesNewRomanPSMT-38" x="248.681641"/>
      <use xlink:href="#TimesNewRomanPSMT-2e" x="298.681641"/>
      <use xlink:href="#TimesNewRomanPSMT-32" x="323.681641"/>
      <use xlink:href="#TimesNewRomanPSMT-31" x="373.681641"/>
     </g>
    </g>
   </g>
  </g>
  <g id="axes_2">
   <g id="patch_8">
    <path d="M 961.45625 747.9 
L 1711.405671 747.9 
L 1711.405671 7.2 
L 961.45625 7.2 
z
" style="fill: #ffffff"/>
   </g>
   <g id="matplotlib.axis_3">
    <g id="xtick_7">
     <g id="line2d_31">
      <path d="M 1071.297327 747.9 
L 1071.297327 7.2 
" clip-path="url(#p548fa9807c)" style="fill: none; stroke: #000000; stroke-width: 0.7; stroke-linecap: square"/>
     </g>
     <g id="line2d_32">
      <g>
       <use xlink:href="#ma9f00a9894" x="1071.297327" y="747.9" style="stroke: #000000; stroke-width: 2"/>
      </g>
     </g>
     <g id="text_17">
      <!-- 240 -->
      <g transform="translate(1041.297327 790.675) scale(0.4 -0.4)">
       <use xlink:href="#TimesNewRomanPSMT-32"/>
       <use xlink:href="#TimesNewRomanPSMT-34" x="50"/>
       <use xlink:href="#TimesNewRomanPSMT-30" x="100"/>
      </g>
     </g>
    </g>
    <g id="xtick_8">
     <g id="line2d_33">
      <path d="M 1222.802261 747.9 
L 1222.802261 7.2 
" clip-path="url(#p548fa9807c)" style="fill: none; stroke: #000000; stroke-width: 0.7; stroke-linecap: square"/>
     </g>
     <g id="line2d_34">
      <g>
       <use xlink:href="#ma9f00a9894" x="1222.802261" y="747.9" style="stroke: #000000; stroke-width: 2"/>
      </g>
     </g>
     <g id="text_18">
      <!-- 260 -->
      <g transform="translate(1192.802261 790.675) scale(0.4 -0.4)">
       <use xlink:href="#TimesNewRomanPSMT-32"/>
       <use xlink:href="#TimesNewRomanPSMT-36" x="50"/>
       <use xlink:href="#TimesNewRomanPSMT-30" x="100"/>
      </g>
     </g>
    </g>
    <g id="xtick_9">
     <g id="line2d_35">
      <path d="M 1374.307194 747.9 
L 1374.307194 7.2 
" clip-path="url(#p548fa9807c)" style="fill: none; stroke: #000000; stroke-width: 0.7; stroke-linecap: square"/>
     </g>
     <g id="line2d_36">
      <g>
       <use xlink:href="#ma9f00a9894" x="1374.307194" y="747.9" style="stroke: #000000; stroke-width: 2"/>
      </g>
     </g>
     <g id="text_19">
      <!-- 280 -->
      <g transform="translate(1344.307194 790.675) scale(0.4 -0.4)">
       <use xlink:href="#TimesNewRomanPSMT-32"/>
       <use xlink:href="#TimesNewRomanPSMT-38" x="50"/>
       <use xlink:href="#TimesNewRomanPSMT-30" x="100"/>
      </g>
     </g>
    </g>
    <g id="xtick_10">
     <g id="line2d_37">
      <path d="M 1525.812128 747.9 
L 1525.812128 7.2 
" clip-path="url(#p548fa9807c)" style="fill: none; stroke: #000000; stroke-width: 0.7; stroke-linecap: square"/>
     </g>
     <g id="line2d_38">
      <g>
       <use xlink:href="#ma9f00a9894" x="1525.812128" y="747.9" style="stroke: #000000; stroke-width: 2"/>
      </g>
     </g>
     <g id="text_20">
      <!-- 300 -->
      <g transform="translate(1495.812128 790.675) scale(0.4 -0.4)">
       <use xlink:href="#TimesNewRomanPSMT-33"/>
       <use xlink:href="#TimesNewRomanPSMT-30" x="50"/>
       <use xlink:href="#TimesNewRomanPSMT-30" x="100"/>
      </g>
     </g>
    </g>
    <g id="xtick_11">
     <g id="line2d_39">
      <path d="M 1677.317061 747.9 
L 1677.317061 7.2 
" clip-path="url(#p548fa9807c)" style="fill: none; stroke: #000000; stroke-width: 0.7; stroke-linecap: square"/>
     </g>
     <g id="line2d_40">
      <g>
       <use xlink:href="#ma9f00a9894" x="1677.317061" y="747.9" style="stroke: #000000; stroke-width: 2"/>
      </g>
     </g>
     <g id="text_21">
      <!-- 320 -->
      <g transform="translate(1647.317061 790.675) scale(0.4 -0.4)">
       <use xlink:href="#TimesNewRomanPSMT-33"/>
       <use xlink:href="#TimesNewRomanPSMT-32" x="50"/>
       <use xlink:href="#TimesNewRomanPSMT-30" x="100"/>
      </g>
     </g>
    </g>
    <g id="text_22">
     <!-- длина волны  -->
     <g transform="translate(1217.144398 843.395) scale(0.42 -0.42)">
      <use xlink:href="#TimesNewRomanPSMT-434"/>
      <use xlink:href="#TimesNewRomanPSMT-43b" x="50.878906"/>
      <use xlink:href="#TimesNewRomanPSMT-438" x="100.78125"/>
      <use xlink:href="#TimesNewRomanPSMT-43d" x="154.296875"/>
      <use xlink:href="#TimesNewRomanPSMT-430" x="207.8125"/>
      <use xlink:href="#TimesNewRomanPSMT-20" x="252.197266"/>
      <use xlink:href="#TimesNewRomanPSMT-432" x="277.197266"/>
      <use xlink:href="#TimesNewRomanPSMT-43e" x="323.789062"/>
      <use xlink:href="#TimesNewRomanPSMT-43b" x="372.414062"/>
      <use xlink:href="#TimesNewRomanPSMT-43d" x="422.316406"/>
      <use xlink:href="#TimesNewRomanPSMT-44b" x="475.832031"/>
      <use xlink:href="#TimesNewRomanPSMT-20" x="543.019531"/>
     </g>
     <!-- возбуждения, нм -->
     <g transform="translate(1186.064398 887.375562) scale(0.42 -0.42)">
      <defs>
       <path id="TimesNewRomanPSMT-437" d="M 263 1966 
L 263 2863 
L 394 2863 
Q 450 2813 519 2813 
Q 572 2813 750 2863 
Q 1047 2947 1234 2947 
Q 1647 2947 1923 2756 
Q 2200 2566 2200 2250 
Q 2200 1766 1466 1547 
Q 2322 1369 2322 744 
Q 2322 416 2047 164 
Q 1772 -88 1247 -88 
Q 903 -88 642 35 
Q 381 159 75 453 
L 156 534 
Q 669 138 1128 138 
Q 1391 138 1559 316 
Q 1728 494 1728 778 
Q 1728 1400 925 1438 
L 925 1619 
Q 1303 1619 1473 1820 
Q 1644 2022 1644 2253 
Q 1644 2456 1498 2609 
Q 1353 2763 1113 2763 
Q 556 2763 375 1966 
L 263 1966 
z
" transform="scale(0.015625)"/>
       <path id="TimesNewRomanPSMT-431" d="M 469 2044 
Q 828 2947 1681 2947 
Q 2278 2947 2658 2500 
Q 3038 2053 3038 1478 
Q 3038 884 2653 398 
Q 2269 -88 1613 -88 
Q 944 -88 594 467 
Q 244 1022 244 1819 
Q 244 2438 425 2973 
Q 606 3509 806 3775 
Q 1006 4041 1268 4162 
Q 1531 4284 2197 4291 
Q 2675 4297 2775 4319 
Q 2875 4341 2966 4444 
L 3088 4444 
Q 2984 4138 2837 4006 
Q 2691 3875 2522 3829 
Q 2353 3784 1919 3772 
Q 1450 3759 1270 3701 
Q 1091 3644 897 3420 
Q 703 3197 595 2834 
Q 488 2472 469 2044 
z
M 1575 2734 
Q 1263 2734 1063 2475 
Q 863 2216 863 1659 
Q 863 906 1131 518 
Q 1400 131 1753 131 
Q 2078 131 2264 401 
Q 2450 672 2450 1266 
Q 2450 1897 2206 2315 
Q 1963 2734 1575 2734 
z
" transform="scale(0.015625)"/>
       <path id="TimesNewRomanPSMT-443" d="M 38 2863 
L 1372 2863 
L 1372 2747 
L 1306 2747 
Q 1166 2747 1095 2686 
Q 1025 2625 1025 2534 
Q 1025 2413 1128 2197 
L 1825 753 
L 2466 2334 
Q 2519 2463 2519 2588 
Q 2519 2644 2497 2672 
Q 2472 2706 2419 2726 
Q 2366 2747 2231 2747 
L 2231 2863 
L 3163 2863 
L 3163 2747 
Q 3047 2734 2984 2696 
Q 2922 2659 2847 2556 
Q 2819 2513 2741 2316 
L 1575 -541 
Q 1406 -956 1132 -1168 
Q 859 -1381 606 -1381 
Q 422 -1381 303 -1275 
Q 184 -1169 184 -1031 
Q 184 -900 270 -820 
Q 356 -741 506 -741 
Q 609 -741 788 -809 
Q 913 -856 944 -856 
Q 1038 -856 1148 -759 
Q 1259 -663 1372 -384 
L 1575 113 
L 547 2272 
Q 500 2369 397 2513 
Q 319 2622 269 2659 
Q 197 2709 38 2747 
L 38 2863 
z
" transform="scale(0.015625)"/>
       <path id="TimesNewRomanPSMT-436" d="M 1506 0 
L 1506 116 
Q 1797 144 1875 270 
Q 1953 397 1953 788 
L 1953 1438 
Q 1747 1438 1680 1391 
Q 1613 1344 1453 1038 
L 916 0 
L 72 0 
L 72 116 
Q 291 131 403 239 
Q 516 347 706 731 
Q 997 1316 1131 1439 
Q 1266 1563 1422 1575 
Q 1231 1656 1063 2088 
Q 981 2291 934 2355 
Q 888 2419 806 2419 
Q 744 2419 647 2381 
Q 506 2325 428 2325 
Q 303 2325 231 2409 
Q 159 2494 159 2613 
Q 159 2750 268 2823 
Q 378 2897 525 2897 
Q 781 2897 936 2745 
Q 1091 2594 1231 2203 
Q 1366 1831 1534 1718 
Q 1703 1606 1953 1606 
L 1953 2075 
Q 1953 2478 1870 2597 
Q 1788 2716 1506 2744 
L 1506 2863 
L 2919 2863 
L 2919 2744 
Q 2634 2713 2553 2594 
Q 2472 2475 2472 2075 
L 2472 1606 
Q 2719 1606 2887 1718 
Q 3056 1831 3191 2203 
Q 3359 2684 3542 2790 
Q 3725 2897 3891 2897 
Q 4075 2897 4170 2812 
Q 4266 2728 4266 2613 
Q 4266 2494 4194 2409 
Q 4122 2325 3997 2325 
Q 3919 2325 3778 2381 
Q 3681 2419 3628 2419 
Q 3538 2419 3491 2355 
Q 3444 2291 3363 2088 
Q 3194 1656 3003 1575 
Q 3166 1563 3300 1431 
Q 3434 1300 3713 741 
Q 3909 347 4021 239 
Q 4134 131 4353 116 
L 4353 0 
L 3509 0 
L 2972 1038 
Q 2813 1344 2745 1391 
Q 2678 1438 2472 1438 
L 2472 788 
Q 2472 341 2564 245 
Q 2656 150 2919 116 
L 2919 0 
L 1506 0 
z
" transform="scale(0.015625)"/>
      </defs>
      <use xlink:href="#TimesNewRomanPSMT-432"/>
      <use xlink:href="#TimesNewRomanPSMT-43e" x="46.591797"/>
      <use xlink:href="#TimesNewRomanPSMT-437" x="96.591797"/>
      <use xlink:href="#TimesNewRomanPSMT-431" x="136.09375"/>
      <use xlink:href="#TimesNewRomanPSMT-443" x="183.222656"/>
      <use xlink:href="#TimesNewRomanPSMT-436" x="231.847656"/>
      <use xlink:href="#TimesNewRomanPSMT-434" x="300.939453"/>
      <use xlink:href="#TimesNewRomanPSMT-435" x="351.818359"/>
      <use xlink:href="#TimesNewRomanPSMT-43d" x="396.203125"/>
      <use xlink:href="#TimesNewRomanPSMT-438" x="449.71875"/>
      <use xlink:href="#TimesNewRomanPSMT-44f" x="503.234375"/>
      <use xlink:href="#TimesNewRomanPSMT-2c" x="549.230469"/>
      <use xlink:href="#TimesNewRomanPSMT-20" x="574.230469"/>
      <use xlink:href="#TimesNewRomanPSMT-43d" x="599.230469"/>
      <use xlink:href="#TimesNewRomanPSMT-43c" x="652.746094"/>
     </g>
    </g>
   </g>
   <g id="matplotlib.axis_4">
    <g id="ytick_5">
     <g id="line2d_41">
      <path d="M 961.45625 669.353815 
L 1711.405671 669.353815 
" clip-path="url(#p548fa9807c)" style="fill: none; stroke: #000000; stroke-width: 0.7; stroke-linecap: square"/>
     </g>
     <g id="line2d_42">
      <g>
       <use xlink:href="#m38664869ab" x="961.45625" y="669.353815" style="stroke: #000000; stroke-width: 2"/>
      </g>
     </g>
     <g id="text_23">
      <!-- −0.8 -->
      <g transform="translate(885.4 683.241315) scale(0.4 -0.4)">
       <use xlink:href="#TimesNewRomanPSMT-2212"/>
       <use xlink:href="#TimesNewRomanPSMT-30" x="56.396484"/>
       <use xlink:href="#TimesNewRomanPSMT-2e" x="106.396484"/>
       <use xlink:href="#TimesNewRomanPSMT-38" x="131.396484"/>
      </g>
     </g>
    </g>
    <g id="ytick_6">
     <g id="line2d_43">
      <path d="M 961.45625 572.271308 
L 1711.405671 572.271308 
" clip-path="url(#p548fa9807c)" style="fill: none; stroke: #000000; stroke-width: 0.7; stroke-linecap: square"/>
     </g>
     <g id="line2d_44">
      <g>
       <use xlink:href="#m38664869ab" x="961.45625" y="572.271308" style="stroke: #000000; stroke-width: 2"/>
      </g>
     </g>
     <g id="text_24">
      <!-- −0.6 -->
      <g transform="translate(885.4 586.158808) scale(0.4 -0.4)">
       <use xlink:href="#TimesNewRomanPSMT-2212"/>
       <use xlink:href="#TimesNewRomanPSMT-30" x="56.396484"/>
       <use xlink:href="#TimesNewRomanPSMT-2e" x="106.396484"/>
       <use xlink:href="#TimesNewRomanPSMT-36" x="131.396484"/>
      </g>
     </g>
    </g>
    <g id="ytick_7">
     <g id="line2d_45">
      <path d="M 961.45625 475.1888 
L 1711.405671 475.1888 
" clip-path="url(#p548fa9807c)" style="fill: none; stroke: #000000; stroke-width: 0.7; stroke-linecap: square"/>
     </g>
     <g id="line2d_46">
      <g>
       <use xlink:href="#m38664869ab" x="961.45625" y="475.1888" style="stroke: #000000; stroke-width: 2"/>
      </g>
     </g>
     <g id="text_25">
      <!-- −0.4 -->
      <g transform="translate(885.4 489.0763) scale(0.4 -0.4)">
       <use xlink:href="#TimesNewRomanPSMT-2212"/>
       <use xlink:href="#TimesNewRomanPSMT-30" x="56.396484"/>
       <use xlink:href="#TimesNewRomanPSMT-2e" x="106.396484"/>
       <use xlink:href="#TimesNewRomanPSMT-34" x="131.396484"/>
      </g>
     </g>
    </g>
    <g id="ytick_8">
     <g id="line2d_47">
      <path d="M 961.45625 378.106293 
L 1711.405671 378.106293 
" clip-path="url(#p548fa9807c)" style="fill: none; stroke: #000000; stroke-width: 0.7; stroke-linecap: square"/>
     </g>
     <g id="line2d_48">
      <g>
       <use xlink:href="#m38664869ab" x="961.45625" y="378.106293" style="stroke: #000000; stroke-width: 2"/>
      </g>
     </g>
     <g id="text_26">
      <!-- −0.2 -->
      <g transform="translate(885.4 391.993793) scale(0.4 -0.4)">
       <use xlink:href="#TimesNewRomanPSMT-2212"/>
       <use xlink:href="#TimesNewRomanPSMT-30" x="56.396484"/>
       <use xlink:href="#TimesNewRomanPSMT-2e" x="106.396484"/>
       <use xlink:href="#TimesNewRomanPSMT-32" x="131.396484"/>
      </g>
     </g>
    </g>
    <g id="ytick_9">
     <g id="line2d_49">
      <path d="M 961.45625 281.023786 
L 1711.405671 281.023786 
" clip-path="url(#p548fa9807c)" style="fill: none; stroke: #000000; stroke-width: 0.7; stroke-linecap: square"/>
     </g>
     <g id="line2d_50">
      <g>
       <use xlink:href="#m38664869ab" x="961.45625" y="281.023786" style="stroke: #000000; stroke-width: 2"/>
      </g>
     </g>
     <g id="text_27">
      <!-- 0.0 -->
      <g transform="translate(907.95625 294.911286) scale(0.4 -0.4)">
       <use xlink:href="#TimesNewRomanPSMT-30"/>
       <use xlink:href="#TimesNewRomanPSMT-2e" x="50"/>
       <use xlink:href="#TimesNewRomanPSMT-30" x="75"/>
      </g>
     </g>
    </g>
    <g id="ytick_10">
     <g id="line2d_51">
      <path d="M 961.45625 183.941279 
L 1711.405671 183.941279 
" clip-path="url(#p548fa9807c)" style="fill: none; stroke: #000000; stroke-width: 0.7; stroke-linecap: square"/>
     </g>
     <g id="line2d_52">
      <g>
       <use xlink:href="#m38664869ab" x="961.45625" y="183.941279" style="stroke: #000000; stroke-width: 2"/>
      </g>
     </g>
     <g id="text_28">
      <!-- 0.2 -->
      <g transform="translate(907.95625 197.828779) scale(0.4 -0.4)">
       <use xlink:href="#TimesNewRomanPSMT-30"/>
       <use xlink:href="#TimesNewRomanPSMT-2e" x="50"/>
       <use xlink:href="#TimesNewRomanPSMT-32" x="75"/>
      </g>
     </g>
    </g>
    <g id="ytick_11">
     <g id="line2d_53">
      <path d="M 961.45625 86.858772 
L 1711.405671 86.858772 
" clip-path="url(#p548fa9807c)" style="fill: none; stroke: #000000; stroke-width: 0.7; stroke-linecap: square"/>
     </g>
     <g id="line2d_54">
      <g>
       <use xlink:href="#m38664869ab" x="961.45625" y="86.858772" style="stroke: #000000; stroke-width: 2"/>
      </g>
     </g>
     <g id="text_29">
      <!-- 0.4 -->
      <g transform="translate(907.95625 100.746272) scale(0.4 -0.4)">
       <use xlink:href="#TimesNewRomanPSMT-30"/>
       <use xlink:href="#TimesNewRomanPSMT-2e" x="50"/>
       <use xlink:href="#TimesNewRomanPSMT-34" x="75"/>
      </g>
     </g>
    </g>
   </g>
   <g id="line2d_55">
    <path d="M 995.54486 370.882787 
L 1033.421093 332.817728 
L 1071.297327 319.59033 
L 1109.17356 324.587533 
L 1147.049794 337.18486 
L 1184.926027 359.470539 
L 1222.802261 393.195194 
L 1260.678494 420.149895 
L 1298.554727 450.467262 
L 1336.430961 471.139123 
L 1374.307194 473.848988 
L 1412.183428 466.069231 
L 1450.059661 437.936749 
L 1487.935894 391.520578 
L 1525.812128 354.265302 
L 1563.688361 319.567441 
L 1601.564595 296.848406 
L 1639.440828 286.000157 
L 1677.317061 282.364825 
" clip-path="url(#p548fa9807c)" style="fill: none; stroke: #ff0000; stroke-width: 4; stroke-linecap: square"/>
   </g>
   <g id="line2d_56">
    <path d="M 995.54486 86.976811 
L 1033.421093 212.505967 
L 1071.297327 245.763401 
L 1109.17356 249.101242 
L 1147.049794 245.119798 
L 1184.926027 231.503445 
L 1222.802261 207.773182 
L 1260.678494 182.869735 
L 1298.554727 151.586266 
L 1336.430961 131.770371 
L 1374.307194 104.02381 
L 1412.183428 92.555853 
L 1450.059661 66.146942 
L 1487.935894 153.515491 
L 1525.812128 223.525957 
L 1563.688361 257.351984 
L 1601.564595 271.88358 
L 1639.440828 277.883938 
L 1677.317061 279.335887 
" clip-path="url(#p548fa9807c)" style="fill: none; stroke: #008000; stroke-width: 4; stroke-linecap: square"/>
   </g>
   <g id="line2d_57">
    <path d="M 995.54486 714.231818 
L 1033.421093 423.005871 
L 1071.297327 297.774044 
L 1109.17356 289.621569 
L 1147.049794 292.908926 
L 1184.926027 291.931393 
L 1222.802261 275.368855 
L 1260.678494 247.884334 
L 1298.554727 212.920535 
L 1336.430961 192.459394 
L 1374.307194 196.055831 
L 1412.183428 218.699528 
L 1450.059661 257.196191 
L 1487.935894 293.654144 
L 1525.812128 309.596565 
L 1563.688361 306.693698 
L 1601.564595 295.793004 
L 1639.440828 287.138453 
L 1677.317061 283.951813 
" clip-path="url(#p548fa9807c)" style="fill: none; stroke: #0000ff; stroke-width: 4; stroke-linecap: square"/>
   </g>
   <g id="line2d_58">
    <path d="M 995.54486 40.868182 
L 1033.421093 236.464416 
L 1071.297327 302.439633 
L 1109.17356 335.930229 
L 1147.049794 369.610391 
L 1184.926027 413.93 
L 1222.802261 477.132469 
L 1260.678494 447.021042 
L 1298.554727 308.3957 
L 1336.430961 169.005134 
L 1374.307194 110.889883 
L 1412.183428 162.598991 
L 1450.059661 307.987147 
L 1487.935894 368.475802 
L 1525.812128 385.1923 
L 1563.688361 346.676104 
L 1601.564595 293.117243 
L 1639.440828 264.084675 
L 1677.317061 254.012248 
" clip-path="url(#p548fa9807c)" style="fill: none; stroke: #a020f0; stroke-width: 4; stroke-linecap: square"/>
   </g>
   <g id="line2d_59">
    <path d="M 995.54486 564.524082 
L 1033.421093 105.791316 
L 1071.297327 242.362161 
L 1109.17356 244.8545 
L 1147.049794 211.15562 
L 1184.926027 199.781339 
L 1222.802261 369.508416 
L 1260.678494 362.637249 
L 1298.554727 292.587002 
L 1336.430961 304.687929 
L 1374.307194 207.982177 
L 1412.183428 171.515931 
L 1450.059661 52.764478 
L 1487.935894 199.816254 
L 1525.812128 365.014547 
L 1563.688361 383.431708 
L 1601.564595 318.783372 
L 1639.440828 288.82218 
L 1677.317061 276.001972 
" clip-path="url(#p548fa9807c)" style="fill: none; stroke: #a63600; stroke-width: 4; stroke-linecap: square"/>
   </g>
   <g id="patch_9">
    <path d="M 961.45625 747.9 
L 961.45625 7.2 
" style="fill: none; stroke: #000000; stroke-width: 0.8; stroke-linejoin: miter; stroke-linecap: square"/>
   </g>
   <g id="patch_10">
    <path d="M 1711.405671 747.9 
L 1711.405671 7.2 
" style="fill: none; stroke: #000000; stroke-width: 0.8; stroke-linejoin: miter; stroke-linecap: square"/>
   </g>
   <g id="patch_11">
    <path d="M 961.45625 747.9 
L 1711.405671 747.9 
" style="fill: none; stroke: #000000; stroke-width: 0.8; stroke-linejoin: miter; stroke-linecap: square"/>
   </g>
   <g id="patch_12">
    <path d="M 961.45625 7.2 
L 1711.405671 7.2 
" style="fill: none; stroke: #000000; stroke-width: 0.8; stroke-linejoin: miter; stroke-linecap: square"/>
   </g>
   <g id="legend_2">
    <g id="patch_13">
     <path d="M 1081.824711 1038.235781 
L 1591.037211 1038.235781 
Q 1597.037211 1038.235781 1597.037211 1032.235781 
L 1597.037211 907.984219 
Q 1597.037211 901.984219 1591.037211 901.984219 
L 1081.824711 901.984219 
Q 1075.824711 901.984219 1075.824711 907.984219 
L 1075.824711 1032.235781 
Q 1075.824711 1038.235781 1081.824711 1038.235781 
z
" style="fill: #ffffff; stroke: #000000; stroke-linejoin: miter"/>
    </g>
    <g id="line2d_60">
     <path d="M 1087.824711 924.484219 
L 1117.824711 924.484219 
L 1147.824711 924.484219 
" style="fill: none; stroke: #ff0000; stroke-width: 4; stroke-linecap: square"/>
    </g>
    <g id="text_30">
     <!-- 1-ая 256.74 -->
     <g style="fill: #ff0000" transform="translate(1171.824711 934.984219) scale(0.3 -0.3)">
      <use xlink:href="#TimesNewRomanPSMT-31"/>
      <use xlink:href="#TimesNewRomanPSMT-2d" x="50"/>
      <use xlink:href="#TimesNewRomanPSMT-430" x="83.300781"/>
      <use xlink:href="#TimesNewRomanPSMT-44f" x="127.685547"/>
      <use xlink:href="#TimesNewRomanPSMT-20" x="173.681641"/>
      <use xlink:href="#TimesNewRomanPSMT-32" x="198.681641"/>
      <use xlink:href="#TimesNewRomanPSMT-35" x="248.681641"/>
      <use xlink:href="#TimesNewRomanPSMT-36" x="298.681641"/>
      <use xlink:href="#TimesNewRomanPSMT-2e" x="348.681641"/>
      <use xlink:href="#TimesNewRomanPSMT-37" x="373.681641"/>
      <use xlink:href="#TimesNewRomanPSMT-34" x="423.681641"/>
     </g>
    </g>
    <g id="line2d_61">
     <path d="M 1087.824711 966.901406 
L 1117.824711 966.901406 
L 1147.824711 966.901406 
" style="fill: none; stroke: #008000; stroke-width: 4; stroke-linecap: square"/>
    </g>
    <g id="text_31">
     <!-- 3-я 113.7 -->
     <g style="fill: #008000" transform="translate(1171.824711 977.401406) scale(0.3 -0.3)">
      <use xlink:href="#TimesNewRomanPSMT-33"/>
      <use xlink:href="#TimesNewRomanPSMT-2d" x="50"/>
      <use xlink:href="#TimesNewRomanPSMT-44f" x="83.300781"/>
      <use xlink:href="#TimesNewRomanPSMT-20" x="129.296875"/>
      <use xlink:href="#TimesNewRomanPSMT-31" x="154.296875"/>
      <use xlink:href="#TimesNewRomanPSMT-31" x="200.546875"/>
      <use xlink:href="#TimesNewRomanPSMT-33" x="250.546875"/>
      <use xlink:href="#TimesNewRomanPSMT-2e" x="300.546875"/>
      <use xlink:href="#TimesNewRomanPSMT-37" x="325.546875"/>
     </g>
    </g>
    <g id="line2d_62">
     <path d="M 1087.824711 1009.318594 
L 1117.824711 1009.318594 
L 1147.824711 1009.318594 
" style="fill: none; stroke: #0000ff; stroke-width: 4; stroke-linecap: square"/>
    </g>
    <g id="text_32">
     <!-- 5-ая 66.61 -->
     <g style="fill: #0000ff" transform="translate(1171.824711 1019.818594) scale(0.3 -0.3)">
      <use xlink:href="#TimesNewRomanPSMT-35"/>
      <use xlink:href="#TimesNewRomanPSMT-2d" x="50"/>
      <use xlink:href="#TimesNewRomanPSMT-430" x="83.300781"/>
      <use xlink:href="#TimesNewRomanPSMT-44f" x="127.685547"/>
      <use xlink:href="#TimesNewRomanPSMT-20" x="173.681641"/>
      <use xlink:href="#TimesNewRomanPSMT-36" x="198.681641"/>
      <use xlink:href="#TimesNewRomanPSMT-36" x="248.681641"/>
      <use xlink:href="#TimesNewRomanPSMT-2e" x="298.681641"/>
      <use xlink:href="#TimesNewRomanPSMT-36" x="323.681641"/>
      <use xlink:href="#TimesNewRomanPSMT-31" x="373.681641"/>
     </g>
    </g>
    <g id="line2d_63">
     <path d="M 1373.930961 924.484219 
L 1403.930961 924.484219 
L 1433.930961 924.484219 
" style="fill: none; stroke: #a020f0; stroke-width: 4; stroke-linecap: square"/>
    </g>
    <g id="text_33">
     <!-- 7-ая 56.07 -->
     <g style="fill: #a020f0" transform="translate(1457.930961 934.984219) scale(0.3 -0.3)">
      <use xlink:href="#TimesNewRomanPSMT-37"/>
      <use xlink:href="#TimesNewRomanPSMT-2d" x="50"/>
      <use xlink:href="#TimesNewRomanPSMT-430" x="83.300781"/>
      <use xlink:href="#TimesNewRomanPSMT-44f" x="127.685547"/>
      <use xlink:href="#TimesNewRomanPSMT-20" x="173.681641"/>
      <use xlink:href="#TimesNewRomanPSMT-35" x="198.681641"/>
      <use xlink:href="#TimesNewRomanPSMT-36" x="248.681641"/>
      <use xlink:href="#TimesNewRomanPSMT-2e" x="298.681641"/>
      <use xlink:href="#TimesNewRomanPSMT-30" x="323.681641"/>
      <use xlink:href="#TimesNewRomanPSMT-37" x="373.681641"/>
     </g>
    </g>
    <g id="line2d_64">
     <path d="M 1373.930961 966.901406 
L 1403.930961 966.901406 
L 1433.930961 966.901406 
" style="fill: none; stroke: #a63600; stroke-width: 4; stroke-linecap: square"/>
    </g>
    <g id="text_34">
     <!-- 9-ая 26.61 -->
     <g style="fill: #a63600" transform="translate(1457.930961 977.401406) scale(0.3 -0.3)">
      <use xlink:href="#TimesNewRomanPSMT-39"/>
      <use xlink:href="#TimesNewRomanPSMT-2d" x="50"/>
      <use xlink:href="#TimesNewRomanPSMT-430" x="83.300781"/>
      <use xlink:href="#TimesNewRomanPSMT-44f" x="127.685547"/>
      <use xlink:href="#TimesNewRomanPSMT-20" x="173.681641"/>
      <use xlink:href="#TimesNewRomanPSMT-32" x="198.681641"/>
      <use xlink:href="#TimesNewRomanPSMT-36" x="248.681641"/>
      <use xlink:href="#TimesNewRomanPSMT-2e" x="298.681641"/>
      <use xlink:href="#TimesNewRomanPSMT-36" x="323.681641"/>
      <use xlink:href="#TimesNewRomanPSMT-31" x="373.681641"/>
     </g>
    </g>
   </g>
  </g>
 </g>
 <defs>
  <clipPath id="p93bfcc04f5">
   <rect x="83.25625" y="7.2" width="749.949421" height="740.7"/>
  </clipPath>
  <clipPath id="p548fa9807c">
   <rect x="961.45625" y="7.2" width="749.949421" height="740.7"/>
  </clipPath>
 </defs>
</svg>
