<?xml version="1.0" encoding="utf-8" standalone="no"?>
<!DOCTYPE svg PUBLIC "-//W3C//DTD SVG 1.1//EN"
  "http://www.w3.org/Graphics/SVG/1.1/DTD/svg11.dtd">
<svg xmlns:xlink="http://www.w3.org/1999/xlink" width="1285.824927pt" height="675.757812pt" viewBox="0 0 1285.824927 675.757812" xmlns="http://www.w3.org/2000/svg" version="1.1">
 <metadata>
  <rdf:RDF xmlns:dc="http://purl.org/dc/elements/1.1/" xmlns:cc="http://creativecommons.org/ns#" xmlns:rdf="http://www.w3.org/1999/02/22-rdf-syntax-ns#">
   <cc:Work>
    <dc:type rdf:resource="http://purl.org/dc/dcmitype/StillImage"/>
    <dc:date>2024-04-25T02:15:03.970061</dc:date>
    <dc:format>image/svg+xml</dc:format>
    <dc:creator>
     <cc:Agent>
      <dc:title>Matplotlib v3.8.0, https://matplotlib.org/</dc:title>
     </cc:Agent>
    </dc:creator>
   </cc:Work>
  </rdf:RDF>
 </metadata>
 <defs>
  <style type="text/css">*{stroke-linejoin: round; stroke-linecap: butt}</style>
 </defs>
 <g id="figure_1">
  <g id="patch_1">
   <path d="M 0 675.757812 
L 1285.824927 675.757812 
L 1285.824927 0 
L 0 0 
z
" style="fill: #ffffff"/>
  </g>
  <g id="axes_1">
   <g id="patch_2">
    <path d="M 103.25625 564 
L 631.660816 564 
L 631.660816 7.2 
L 103.25625 7.2 
z
" style="fill: #ffffff"/>
   </g>
   <g id="matplotlib.axis_1">
    <g id="xtick_1">
     <g id="line2d_1">
      <path d="M 162.857438 564 
L 162.857438 7.2 
" clip-path="url(#p02ed11ff00)" style="fill: none; stroke: #000000; stroke-width: 0.7; stroke-linecap: square"/>
     </g>
     <g id="line2d_2">
      <defs>
       <path id="m9fef1ad7c7" d="M 0 0 
L 0 -10 
" style="stroke: #000000; stroke-width: 2"/>
      </defs>
      <g>
       <use xlink:href="#m9fef1ad7c7" x="162.857438" y="564" style="stroke: #000000; stroke-width: 2"/>
      </g>
     </g>
     <g id="text_1">
      <!-- 250 -->
      <g transform="translate(132.857438 606.775) scale(0.4 -0.4)">
       <defs>
        <path id="TimesNewRomanPSMT-32" d="M 2934 816 
L 2638 0 
L 138 0 
L 138 116 
Q 1241 1122 1691 1759 
Q 2141 2397 2141 2925 
Q 2141 3328 1894 3587 
Q 1647 3847 1303 3847 
Q 991 3847 742 3664 
Q 494 3481 375 3128 
L 259 3128 
Q 338 3706 661 4015 
Q 984 4325 1469 4325 
Q 1984 4325 2329 3994 
Q 2675 3663 2675 3213 
Q 2675 2891 2525 2569 
Q 2294 2063 1775 1497 
Q 997 647 803 472 
L 1909 472 
Q 2247 472 2383 497 
Q 2519 522 2628 598 
Q 2738 675 2819 816 
L 2934 816 
z
" transform="scale(0.015625)"/>
        <path id="TimesNewRomanPSMT-35" d="M 2778 4238 
L 2534 3706 
L 1259 3706 
L 981 3138 
Q 1809 3016 2294 2522 
Q 2709 2097 2709 1522 
Q 2709 1188 2573 903 
Q 2438 619 2231 419 
Q 2025 219 1772 97 
Q 1413 -75 1034 -75 
Q 653 -75 479 54 
Q 306 184 306 341 
Q 306 428 378 495 
Q 450 563 559 563 
Q 641 563 702 538 
Q 763 513 909 409 
Q 1144 247 1384 247 
Q 1750 247 2026 523 
Q 2303 800 2303 1197 
Q 2303 1581 2056 1914 
Q 1809 2247 1375 2428 
Q 1034 2569 447 2591 
L 1259 4238 
L 2778 4238 
z
" transform="scale(0.015625)"/>
        <path id="TimesNewRomanPSMT-30" d="M 231 2094 
Q 231 2819 450 3342 
Q 669 3866 1031 4122 
Q 1313 4325 1613 4325 
Q 2100 4325 2488 3828 
Q 2972 3213 2972 2159 
Q 2972 1422 2759 906 
Q 2547 391 2217 158 
Q 1888 -75 1581 -75 
Q 975 -75 572 641 
Q 231 1244 231 2094 
z
M 844 2016 
Q 844 1141 1059 588 
Q 1238 122 1591 122 
Q 1759 122 1940 273 
Q 2122 425 2216 781 
Q 2359 1319 2359 2297 
Q 2359 3022 2209 3506 
Q 2097 3866 1919 4016 
Q 1791 4119 1609 4119 
Q 1397 4119 1231 3928 
Q 1006 3669 925 3112 
Q 844 2556 844 2016 
z
" transform="scale(0.015625)"/>
       </defs>
       <use xlink:href="#TimesNewRomanPSMT-32"/>
       <use xlink:href="#TimesNewRomanPSMT-35" x="50"/>
       <use xlink:href="#TimesNewRomanPSMT-30" x="100"/>
      </g>
     </g>
    </g>
    <g id="xtick_2">
     <g id="line2d_3">
      <path d="M 251.814436 564 
L 251.814436 7.2 
" clip-path="url(#p02ed11ff00)" style="fill: none; stroke: #000000; stroke-width: 0.7; stroke-linecap: square"/>
     </g>
     <g id="line2d_4">
      <g>
       <use xlink:href="#m9fef1ad7c7" x="251.814436" y="564" style="stroke: #000000; stroke-width: 2"/>
      </g>
     </g>
     <g id="text_2">
      <!-- 300 -->
      <g transform="translate(221.814436 606.775) scale(0.4 -0.4)">
       <defs>
        <path id="TimesNewRomanPSMT-33" d="M 325 3431 
Q 506 3859 782 4092 
Q 1059 4325 1472 4325 
Q 1981 4325 2253 3994 
Q 2459 3747 2459 3466 
Q 2459 3003 1878 2509 
Q 2269 2356 2469 2072 
Q 2669 1788 2669 1403 
Q 2669 853 2319 450 
Q 1863 -75 997 -75 
Q 569 -75 414 31 
Q 259 138 259 259 
Q 259 350 332 419 
Q 406 488 509 488 
Q 588 488 669 463 
Q 722 447 909 348 
Q 1097 250 1169 231 
Q 1284 197 1416 197 
Q 1734 197 1970 444 
Q 2206 691 2206 1028 
Q 2206 1275 2097 1509 
Q 2016 1684 1919 1775 
Q 1784 1900 1550 2001 
Q 1316 2103 1072 2103 
L 972 2103 
L 972 2197 
Q 1219 2228 1467 2375 
Q 1716 2522 1828 2728 
Q 1941 2934 1941 3181 
Q 1941 3503 1739 3701 
Q 1538 3900 1238 3900 
Q 753 3900 428 3381 
L 325 3431 
z
" transform="scale(0.015625)"/>
       </defs>
       <use xlink:href="#TimesNewRomanPSMT-33"/>
       <use xlink:href="#TimesNewRomanPSMT-30" x="50"/>
       <use xlink:href="#TimesNewRomanPSMT-30" x="100"/>
      </g>
     </g>
    </g>
    <g id="xtick_3">
     <g id="line2d_5">
      <path d="M 340.771434 564 
L 340.771434 7.2 
" clip-path="url(#p02ed11ff00)" style="fill: none; stroke: #000000; stroke-width: 0.7; stroke-linecap: square"/>
     </g>
     <g id="line2d_6">
      <g>
       <use xlink:href="#m9fef1ad7c7" x="340.771434" y="564" style="stroke: #000000; stroke-width: 2"/>
      </g>
     </g>
     <g id="text_3">
      <!-- 350 -->
      <g transform="translate(310.771434 606.775) scale(0.4 -0.4)">
       <use xlink:href="#TimesNewRomanPSMT-33"/>
       <use xlink:href="#TimesNewRomanPSMT-35" x="50"/>
       <use xlink:href="#TimesNewRomanPSMT-30" x="100"/>
      </g>
     </g>
    </g>
    <g id="xtick_4">
     <g id="line2d_7">
      <path d="M 429.728431 564 
L 429.728431 7.2 
" clip-path="url(#p02ed11ff00)" style="fill: none; stroke: #000000; stroke-width: 0.7; stroke-linecap: square"/>
     </g>
     <g id="line2d_8">
      <g>
       <use xlink:href="#m9fef1ad7c7" x="429.728431" y="564" style="stroke: #000000; stroke-width: 2"/>
      </g>
     </g>
     <g id="text_4">
      <!-- 400 -->
      <g transform="translate(399.728431 606.775) scale(0.4 -0.4)">
       <defs>
        <path id="TimesNewRomanPSMT-34" d="M 2978 1563 
L 2978 1119 
L 2409 1119 
L 2409 0 
L 1894 0 
L 1894 1119 
L 100 1119 
L 100 1519 
L 2066 4325 
L 2409 4325 
L 2409 1563 
L 2978 1563 
z
M 1894 1563 
L 1894 3666 
L 406 1563 
L 1894 1563 
z
" transform="scale(0.015625)"/>
       </defs>
       <use xlink:href="#TimesNewRomanPSMT-34"/>
       <use xlink:href="#TimesNewRomanPSMT-30" x="50"/>
       <use xlink:href="#TimesNewRomanPSMT-30" x="100"/>
      </g>
     </g>
    </g>
    <g id="xtick_5">
     <g id="line2d_9">
      <path d="M 518.685429 564 
L 518.685429 7.2 
" clip-path="url(#p02ed11ff00)" style="fill: none; stroke: #000000; stroke-width: 0.7; stroke-linecap: square"/>
     </g>
     <g id="line2d_10">
      <g>
       <use xlink:href="#m9fef1ad7c7" x="518.685429" y="564" style="stroke: #000000; stroke-width: 2"/>
      </g>
     </g>
     <g id="text_5">
      <!-- 450 -->
      <g transform="translate(488.685429 606.775) scale(0.4 -0.4)">
       <use xlink:href="#TimesNewRomanPSMT-34"/>
       <use xlink:href="#TimesNewRomanPSMT-35" x="50"/>
       <use xlink:href="#TimesNewRomanPSMT-30" x="100"/>
      </g>
     </g>
    </g>
    <g id="xtick_6">
     <g id="line2d_11">
      <path d="M 607.642427 564 
L 607.642427 7.2 
" clip-path="url(#p02ed11ff00)" style="fill: none; stroke: #000000; stroke-width: 0.7; stroke-linecap: square"/>
     </g>
     <g id="line2d_12">
      <g>
       <use xlink:href="#m9fef1ad7c7" x="607.642427" y="564" style="stroke: #000000; stroke-width: 2"/>
      </g>
     </g>
     <g id="text_6">
      <!-- 500 -->
      <g transform="translate(577.642427 606.775) scale(0.4 -0.4)">
       <use xlink:href="#TimesNewRomanPSMT-35"/>
       <use xlink:href="#TimesNewRomanPSMT-30" x="50"/>
       <use xlink:href="#TimesNewRomanPSMT-30" x="100"/>
      </g>
     </g>
    </g>
    <g id="text_7">
     <!-- длина волны регистрации, нм -->
     <g transform="translate(101.171971 659.495) scale(0.42 -0.42)">
      <defs>
       <path id="TimesNewRomanPSMT-434" d="M 591 2863 
L 3116 2863 
L 3116 2744 
Q 2903 2744 2833 2701 
Q 2763 2659 2722 2596 
Q 2681 2534 2681 2191 
L 2681 775 
Q 2681 328 2757 226 
Q 2834 125 3116 116 
L 3116 -794 
L 2997 -794 
Q 2984 -538 2870 -347 
Q 2756 -156 2553 -78 
Q 2350 0 1953 0 
L 1216 0 
Q 872 0 678 -61 
Q 484 -122 354 -315 
Q 225 -509 197 -794 
L 81 -794 
L 81 116 
Q 338 125 547 319 
Q 756 513 915 1078 
Q 1075 1644 1075 2191 
Q 1075 2728 591 2744 
L 591 2863 
z
M 1281 2659 
L 1281 2488 
Q 1281 953 725 203 
L 1788 203 
Q 2075 203 2119 251 
Q 2163 300 2163 609 
L 2163 2659 
L 1281 2659 
z
" transform="scale(0.015625)"/>
       <path id="TimesNewRomanPSMT-43b" d="M 494 2863 
L 3053 2863 
L 3053 2744 
Q 2841 2744 2770 2701 
Q 2700 2659 2659 2596 
Q 2619 2534 2619 2191 
L 2619 672 
Q 2619 341 2653 277 
Q 2688 213 2761 164 
Q 2834 116 3053 116 
L 3053 0 
L 1572 0 
L 1572 116 
Q 1813 116 1905 141 
Q 1997 166 2050 261 
Q 2103 356 2103 672 
L 2103 2659 
L 1150 2659 
L 1150 1453 
Q 1150 769 1089 492 
Q 1028 216 848 83 
Q 669 -50 438 -50 
Q 38 -50 38 281 
Q 38 394 102 466 
Q 166 538 269 538 
Q 378 538 472 447 
Q 594 328 656 328 
Q 797 328 861 564 
Q 925 800 925 1391 
L 925 2022 
Q 925 2509 854 2615 
Q 784 2722 494 2744 
L 494 2863 
z
" transform="scale(0.015625)"/>
       <path id="TimesNewRomanPSMT-438" d="M 1094 881 
L 2331 2313 
Q 2325 2553 2240 2647 
Q 2156 2741 1950 2744 
L 1950 2863 
L 3281 2863 
L 3281 2744 
Q 3072 2744 3000 2701 
Q 2928 2659 2887 2596 
Q 2847 2534 2847 2191 
L 2847 672 
Q 2847 341 2881 277 
Q 2916 213 2989 164 
Q 3063 116 3281 116 
L 3281 0 
L 1897 0 
L 1897 116 
Q 2156 116 2243 211 
Q 2331 306 2331 672 
L 2331 2019 
L 1094 584 
Q 1100 319 1169 219 
Q 1238 119 1466 116 
L 1466 0 
L 144 0 
L 144 116 
Q 422 116 500 217 
Q 578 319 578 672 
L 578 2191 
Q 578 2525 543 2586 
Q 509 2647 437 2695 
Q 366 2744 144 2744 
L 144 2863 
L 1528 2863 
L 1528 2744 
Q 1319 2744 1247 2701 
Q 1175 2659 1134 2596 
Q 1094 2534 1094 2191 
L 1094 881 
z
" transform="scale(0.015625)"/>
       <path id="TimesNewRomanPSMT-43d" d="M 1094 1584 
L 2331 1584 
L 2331 2191 
Q 2331 2463 2309 2545 
Q 2288 2628 2202 2686 
Q 2116 2744 1897 2744 
L 1897 2863 
L 3281 2863 
L 3281 2744 
Q 3088 2744 2998 2700 
Q 2909 2656 2878 2573 
Q 2847 2491 2847 2191 
L 2847 672 
Q 2847 400 2870 312 
Q 2894 225 2984 170 
Q 3075 116 3281 116 
L 3281 0 
L 1897 0 
L 1897 116 
Q 2156 116 2243 211 
Q 2331 306 2331 672 
L 2331 1381 
L 1094 1381 
L 1094 672 
Q 1094 400 1117 312 
Q 1141 225 1231 170 
Q 1322 116 1528 116 
L 1528 0 
L 144 0 
L 144 116 
Q 422 116 500 217 
Q 578 319 578 672 
L 578 2191 
Q 578 2463 554 2550 
Q 531 2638 440 2691 
Q 350 2744 144 2744 
L 144 2863 
L 1528 2863 
L 1528 2744 
Q 1334 2744 1245 2700 
Q 1156 2656 1125 2573 
Q 1094 2491 1094 2191 
L 1094 1584 
z
" transform="scale(0.015625)"/>
       <path id="TimesNewRomanPSMT-430" d="M 1822 413 
Q 1381 72 1269 19 
Q 1100 -59 909 -59 
Q 613 -59 420 144 
Q 228 347 228 678 
Q 228 888 322 1041 
Q 450 1253 767 1440 
Q 1084 1628 1822 1897 
L 1822 2009 
Q 1822 2438 1686 2597 
Q 1550 2756 1291 2756 
Q 1094 2756 978 2650 
Q 859 2544 859 2406 
L 866 2225 
Q 866 2081 792 2003 
Q 719 1925 600 1925 
Q 484 1925 411 2006 
Q 338 2088 338 2228 
Q 338 2497 613 2722 
Q 888 2947 1384 2947 
Q 1766 2947 2009 2819 
Q 2194 2722 2281 2516 
Q 2338 2381 2338 1966 
L 2338 994 
Q 2338 584 2353 492 
Q 2369 400 2405 369 
Q 2441 338 2488 338 
Q 2538 338 2575 359 
Q 2641 400 2828 588 
L 2828 413 
Q 2478 -56 2159 -56 
Q 2006 -56 1915 50 
Q 1825 156 1822 413 
z
M 1822 616 
L 1822 1706 
Q 1350 1519 1213 1441 
Q 966 1303 859 1153 
Q 753 1003 753 825 
Q 753 600 887 451 
Q 1022 303 1197 303 
Q 1434 303 1822 616 
z
" transform="scale(0.015625)"/>
       <path id="TimesNewRomanPSMT-20" transform="scale(0.015625)"/>
       <path id="TimesNewRomanPSMT-432" d="M 2016 1513 
Q 2800 1350 2800 778 
Q 2800 388 2473 194 
Q 2147 0 1563 0 
L 150 0 
L 150 116 
Q 428 116 501 220 
Q 575 325 575 672 
L 575 2191 
Q 575 2528 542 2587 
Q 509 2647 439 2695 
Q 369 2744 150 2744 
L 150 2863 
L 1469 2863 
Q 1850 2863 2086 2803 
Q 2322 2744 2473 2569 
Q 2625 2394 2625 2144 
Q 2625 1656 2016 1513 
z
M 1094 1584 
Q 1231 1581 1259 1581 
Q 1688 1581 1878 1745 
Q 2069 1909 2069 2144 
Q 2069 2416 1875 2537 
Q 1681 2659 1256 2659 
L 1094 2659 
L 1094 1584 
z
M 1094 253 
Q 1250 203 1466 203 
Q 1838 203 2019 365 
Q 2200 528 2200 784 
Q 2200 1072 1965 1225 
Q 1731 1378 1316 1378 
Q 1213 1378 1094 1372 
L 1094 253 
z
" transform="scale(0.015625)"/>
       <path id="TimesNewRomanPSMT-43e" d="M 1600 2947 
Q 2250 2947 2644 2453 
Q 2978 2031 2978 1484 
Q 2978 1100 2793 706 
Q 2609 313 2286 112 
Q 1963 -88 1566 -88 
Q 919 -88 538 428 
Q 216 863 216 1403 
Q 216 1797 411 2186 
Q 606 2575 925 2761 
Q 1244 2947 1600 2947 
z
M 1503 2744 
Q 1338 2744 1170 2645 
Q 1003 2547 900 2300 
Q 797 2053 797 1666 
Q 797 1041 1045 587 
Q 1294 134 1700 134 
Q 2003 134 2200 384 
Q 2397 634 2397 1244 
Q 2397 2006 2069 2444 
Q 1847 2744 1503 2744 
z
" transform="scale(0.015625)"/>
       <path id="TimesNewRomanPSMT-44b" d="M 2716 2744 
L 2716 2863 
L 4156 2863 
L 4156 2744 
Q 3966 2744 3878 2703 
Q 3791 2663 3758 2578 
Q 3725 2494 3725 2191 
L 3725 672 
Q 3725 378 3753 292 
Q 3781 206 3873 161 
Q 3966 116 4156 116 
L 4156 0 
L 2716 0 
L 2716 116 
Q 2959 125 3032 148 
Q 3106 172 3156 269 
Q 3206 366 3206 672 
L 3206 2191 
Q 3206 2494 3172 2581 
Q 3138 2669 3052 2705 
Q 2966 2741 2716 2744 
z
M 1091 1588 
L 1447 1594 
Q 2722 1594 2722 806 
Q 2722 441 2411 220 
Q 2100 0 1516 0 
L 141 0 
L 141 116 
Q 419 116 497 217 
Q 575 319 575 672 
L 575 2191 
Q 575 2525 540 2586 
Q 506 2647 434 2695 
Q 363 2744 141 2744 
L 141 2863 
L 1638 2863 
L 1638 2744 
Q 1328 2744 1256 2708 
Q 1184 2672 1137 2614 
Q 1091 2556 1091 2191 
L 1091 1588 
z
M 1091 247 
Q 1256 203 1422 203 
Q 1734 203 1929 368 
Q 2125 534 2125 788 
Q 2125 1388 1291 1388 
Q 1219 1388 1091 1384 
L 1091 247 
z
" transform="scale(0.015625)"/>
       <path id="TimesNewRomanPSMT-440" d="M -6 2578 
L 875 2934 
L 994 2934 
L 994 2266 
Q 1216 2644 1439 2795 
Q 1663 2947 1909 2947 
Q 2341 2947 2628 2609 
Q 2981 2197 2981 1534 
Q 2981 794 2556 309 
Q 2206 -88 1675 -88 
Q 1444 -88 1275 -22 
Q 1150 25 994 166 
L 994 -706 
Q 994 -1000 1030 -1079 
Q 1066 -1159 1155 -1206 
Q 1244 -1253 1478 -1253 
L 1478 -1369 
L -22 -1369 
L -22 -1253 
L 56 -1253 
Q 228 -1256 350 -1188 
Q 409 -1153 442 -1076 
Q 475 -1000 475 -688 
L 475 2019 
Q 475 2297 450 2372 
Q 425 2447 370 2484 
Q 316 2522 222 2522 
Q 147 2522 31 2478 
L -6 2578 
z
M 994 2081 
L 994 1013 
Q 994 666 1022 556 
Q 1066 375 1236 237 
Q 1406 100 1666 100 
Q 1978 100 2172 344 
Q 2425 663 2425 1241 
Q 2425 1897 2138 2250 
Q 1938 2494 1663 2494 
Q 1513 2494 1366 2419 
Q 1253 2363 994 2081 
z
" transform="scale(0.015625)"/>
       <path id="TimesNewRomanPSMT-435" d="M 681 1784 
Q 678 1147 991 784 
Q 1303 422 1725 422 
Q 2006 422 2214 576 
Q 2422 731 2563 1106 
L 2659 1044 
Q 2594 616 2278 264 
Q 1963 -88 1488 -88 
Q 972 -88 605 314 
Q 238 716 238 1394 
Q 238 2128 614 2539 
Q 991 2950 1559 2950 
Q 2041 2950 2350 2633 
Q 2659 2316 2659 1784 
L 681 1784 
z
M 681 1966 
L 2006 1966 
Q 1991 2241 1941 2353 
Q 1863 2528 1708 2628 
Q 1553 2728 1384 2728 
Q 1125 2728 920 2526 
Q 716 2325 681 1966 
z
" transform="scale(0.015625)"/>
       <path id="TimesNewRomanPSMT-433" d="M 2469 2863 
L 2584 2081 
L 2447 2081 
Q 2328 2469 2208 2564 
Q 2088 2659 1700 2659 
L 1094 2659 
L 1094 672 
Q 1094 341 1128 277 
Q 1163 213 1236 164 
Q 1309 116 1528 116 
L 1528 0 
L 97 0 
L 97 116 
Q 403 122 490 211 
Q 578 300 578 672 
L 578 2191 
Q 578 2494 543 2580 
Q 509 2666 423 2703 
Q 338 2741 97 2744 
L 97 2863 
L 2469 2863 
z
" transform="scale(0.015625)"/>
       <path id="TimesNewRomanPSMT-441" d="M 2631 1088 
Q 2516 522 2178 217 
Q 1841 -88 1431 -88 
Q 944 -88 581 321 
Q 219 731 219 1428 
Q 219 2103 620 2525 
Q 1022 2947 1584 2947 
Q 2006 2947 2278 2723 
Q 2550 2500 2550 2259 
Q 2550 2141 2473 2067 
Q 2397 1994 2259 1994 
Q 2075 1994 1981 2113 
Q 1928 2178 1911 2362 
Q 1894 2547 1784 2644 
Q 1675 2738 1481 2738 
Q 1169 2738 978 2506 
Q 725 2200 725 1697 
Q 725 1184 976 792 
Q 1228 400 1656 400 
Q 1963 400 2206 609 
Q 2378 753 2541 1131 
L 2631 1088 
z
" transform="scale(0.015625)"/>
       <path id="TimesNewRomanPSMT-442" d="M 156 2863 
L 2631 2863 
L 2756 2088 
L 2616 2088 
Q 2578 2322 2490 2450 
Q 2403 2578 2290 2618 
Q 2178 2659 1906 2659 
L 1656 2659 
L 1656 672 
Q 1656 353 1695 267 
Q 1734 181 1821 153 
Q 1909 125 2222 116 
L 2222 0 
L 666 0 
L 666 116 
Q 966 122 1052 212 
Q 1138 303 1138 672 
L 1138 2659 
L 881 2659 
Q 613 2659 516 2626 
Q 419 2594 330 2470 
Q 241 2347 178 2088 
L 38 2088 
L 156 2863 
z
" transform="scale(0.015625)"/>
       <path id="TimesNewRomanPSMT-446" d="M 3281 116 
L 3281 -794 
L 3166 -794 
Q 3156 -428 2926 -214 
Q 2697 0 2094 0 
L 144 0 
L 144 116 
Q 422 116 500 217 
Q 578 319 578 672 
L 578 2191 
Q 578 2525 543 2586 
Q 509 2647 437 2695 
Q 366 2744 144 2744 
L 144 2863 
L 1528 2863 
L 1528 2744 
Q 1319 2744 1247 2701 
Q 1175 2659 1134 2596 
Q 1094 2534 1094 2191 
L 1094 575 
Q 1094 303 1142 253 
Q 1191 203 1453 203 
L 1959 203 
Q 2250 203 2290 256 
Q 2331 309 2331 600 
L 2331 2191 
Q 2331 2488 2300 2573 
Q 2269 2659 2178 2701 
Q 2088 2744 1897 2744 
L 1897 2863 
L 3281 2863 
L 3281 2744 
Q 3072 2744 3000 2701 
Q 2928 2659 2887 2596 
Q 2847 2534 2847 2191 
L 2847 719 
Q 2847 316 2919 222 
Q 2991 128 3281 116 
z
" transform="scale(0.015625)"/>
       <path id="TimesNewRomanPSMT-2c" d="M 344 -1066 
L 344 -928 
Q 666 -822 842 -598 
Q 1019 -375 1019 -125 
Q 1019 -66 991 -25 
Q 969 3 947 3 
Q 913 3 797 -59 
Q 741 -88 678 -88 
Q 525 -88 434 3 
Q 344 94 344 253 
Q 344 406 461 515 
Q 578 625 747 625 
Q 953 625 1114 445 
Q 1275 266 1275 -31 
Q 1275 -353 1051 -629 
Q 828 -906 344 -1066 
z
" transform="scale(0.015625)"/>
       <path id="TimesNewRomanPSMT-43c" d="M 2050 747 
L 2944 2863 
L 3909 2863 
L 3909 2744 
Q 3697 2744 3626 2701 
Q 3556 2659 3515 2596 
Q 3475 2534 3475 2191 
L 3475 672 
Q 3475 375 3504 289 
Q 3534 203 3626 159 
Q 3719 116 3909 116 
L 3909 0 
L 2525 0 
L 2525 116 
Q 2781 116 2868 211 
Q 2956 306 2956 672 
L 2956 2394 
L 1944 0 
L 1834 0 
L 803 2394 
L 803 672 
Q 803 375 834 289 
Q 866 203 956 159 
Q 1047 116 1238 116 
L 1238 0 
L 144 0 
L 144 116 
Q 422 116 500 217 
Q 578 319 578 672 
L 578 2191 
Q 578 2525 543 2586 
Q 509 2647 437 2695 
Q 366 2744 144 2744 
L 144 2863 
L 1150 2863 
L 2050 747 
z
" transform="scale(0.015625)"/>
      </defs>
      <use xlink:href="#TimesNewRomanPSMT-434"/>
      <use xlink:href="#TimesNewRomanPSMT-43b" x="50.878906"/>
      <use xlink:href="#TimesNewRomanPSMT-438" x="100.78125"/>
      <use xlink:href="#TimesNewRomanPSMT-43d" x="154.296875"/>
      <use xlink:href="#TimesNewRomanPSMT-430" x="207.8125"/>
      <use xlink:href="#TimesNewRomanPSMT-20" x="252.197266"/>
      <use xlink:href="#TimesNewRomanPSMT-432" x="277.197266"/>
      <use xlink:href="#TimesNewRomanPSMT-43e" x="323.789062"/>
      <use xlink:href="#TimesNewRomanPSMT-43b" x="372.414062"/>
      <use xlink:href="#TimesNewRomanPSMT-43d" x="422.316406"/>
      <use xlink:href="#TimesNewRomanPSMT-44b" x="475.832031"/>
      <use xlink:href="#TimesNewRomanPSMT-20" x="543.019531"/>
      <use xlink:href="#TimesNewRomanPSMT-440" x="568.019531"/>
      <use xlink:href="#TimesNewRomanPSMT-435" x="618.019531"/>
      <use xlink:href="#TimesNewRomanPSMT-433" x="662.404297"/>
      <use xlink:href="#TimesNewRomanPSMT-438" x="703.419922"/>
      <use xlink:href="#TimesNewRomanPSMT-441" x="756.935547"/>
      <use xlink:href="#TimesNewRomanPSMT-442" x="801.320312"/>
      <use xlink:href="#TimesNewRomanPSMT-440" x="846.271484"/>
      <use xlink:href="#TimesNewRomanPSMT-430" x="896.271484"/>
      <use xlink:href="#TimesNewRomanPSMT-446" x="940.65625"/>
      <use xlink:href="#TimesNewRomanPSMT-438" x="994.171875"/>
      <use xlink:href="#TimesNewRomanPSMT-438" x="1047.6875"/>
      <use xlink:href="#TimesNewRomanPSMT-2c" x="1101.203125"/>
      <use xlink:href="#TimesNewRomanPSMT-20" x="1126.203125"/>
      <use xlink:href="#TimesNewRomanPSMT-43d" x="1151.203125"/>
      <use xlink:href="#TimesNewRomanPSMT-43c" x="1204.71875"/>
     </g>
    </g>
   </g>
   <g id="matplotlib.axis_2">
    <g id="ytick_1">
     <g id="line2d_13">
      <path d="M 103.25625 537.584745 
L 631.660816 537.584745 
" clip-path="url(#p02ed11ff00)" style="fill: none; stroke: #000000; stroke-width: 0.7; stroke-linecap: square"/>
     </g>
     <g id="line2d_14">
      <defs>
       <path id="m4f9410711c" d="M 0 0 
L 10 0 
" style="stroke: #000000; stroke-width: 2"/>
      </defs>
      <g>
       <use xlink:href="#m4f9410711c" x="103.25625" y="537.584745" style="stroke: #000000; stroke-width: 2"/>
      </g>
     </g>
     <g id="text_8">
      <!-- −0.15 -->
      <g transform="translate(7.2 551.472245) scale(0.4 -0.4)">
       <defs>
        <path id="TimesNewRomanPSMT-2212" d="M 3484 2000 
L 116 2000 
L 116 2256 
L 3484 2256 
L 3484 2000 
z
" transform="scale(0.015625)"/>
        <path id="TimesNewRomanPSMT-2e" d="M 800 606 
Q 947 606 1047 504 
Q 1147 403 1147 259 
Q 1147 116 1045 14 
Q 944 -88 800 -88 
Q 656 -88 554 14 
Q 453 116 453 259 
Q 453 406 554 506 
Q 656 606 800 606 
z
" transform="scale(0.015625)"/>
        <path id="TimesNewRomanPSMT-31" d="M 750 3822 
L 1781 4325 
L 1884 4325 
L 1884 747 
Q 1884 391 1914 303 
Q 1944 216 2037 169 
Q 2131 122 2419 116 
L 2419 0 
L 825 0 
L 825 116 
Q 1125 122 1212 167 
Q 1300 213 1334 289 
Q 1369 366 1369 747 
L 1369 3034 
Q 1369 3497 1338 3628 
Q 1316 3728 1258 3775 
Q 1200 3822 1119 3822 
Q 1003 3822 797 3725 
L 750 3822 
z
" transform="scale(0.015625)"/>
       </defs>
       <use xlink:href="#TimesNewRomanPSMT-2212"/>
       <use xlink:href="#TimesNewRomanPSMT-30" x="56.396484"/>
       <use xlink:href="#TimesNewRomanPSMT-2e" x="106.396484"/>
       <use xlink:href="#TimesNewRomanPSMT-31" x="131.396484"/>
       <use xlink:href="#TimesNewRomanPSMT-35" x="181.396484"/>
      </g>
     </g>
    </g>
    <g id="ytick_2">
     <g id="line2d_15">
      <path d="M 103.25625 473.381971 
L 631.660816 473.381971 
" clip-path="url(#p02ed11ff00)" style="fill: none; stroke: #000000; stroke-width: 0.7; stroke-linecap: square"/>
     </g>
     <g id="line2d_16">
      <g>
       <use xlink:href="#m4f9410711c" x="103.25625" y="473.381971" style="stroke: #000000; stroke-width: 2"/>
      </g>
     </g>
     <g id="text_9">
      <!-- −0.10 -->
      <g transform="translate(7.2 487.269471) scale(0.4 -0.4)">
       <use xlink:href="#TimesNewRomanPSMT-2212"/>
       <use xlink:href="#TimesNewRomanPSMT-30" x="56.396484"/>
       <use xlink:href="#TimesNewRomanPSMT-2e" x="106.396484"/>
       <use xlink:href="#TimesNewRomanPSMT-31" x="131.396484"/>
       <use xlink:href="#TimesNewRomanPSMT-30" x="181.396484"/>
      </g>
     </g>
    </g>
    <g id="ytick_3">
     <g id="line2d_17">
      <path d="M 103.25625 409.179197 
L 631.660816 409.179197 
" clip-path="url(#p02ed11ff00)" style="fill: none; stroke: #000000; stroke-width: 0.7; stroke-linecap: square"/>
     </g>
     <g id="line2d_18">
      <g>
       <use xlink:href="#m4f9410711c" x="103.25625" y="409.179197" style="stroke: #000000; stroke-width: 2"/>
      </g>
     </g>
     <g id="text_10">
      <!-- −0.05 -->
      <g transform="translate(7.2 423.066697) scale(0.4 -0.4)">
       <use xlink:href="#TimesNewRomanPSMT-2212"/>
       <use xlink:href="#TimesNewRomanPSMT-30" x="56.396484"/>
       <use xlink:href="#TimesNewRomanPSMT-2e" x="106.396484"/>
       <use xlink:href="#TimesNewRomanPSMT-30" x="131.396484"/>
       <use xlink:href="#TimesNewRomanPSMT-35" x="181.396484"/>
      </g>
     </g>
    </g>
    <g id="ytick_4">
     <g id="line2d_19">
      <path d="M 103.25625 344.976424 
L 631.660816 344.976424 
" clip-path="url(#p02ed11ff00)" style="fill: none; stroke: #000000; stroke-width: 0.7; stroke-linecap: square"/>
     </g>
     <g id="line2d_20">
      <g>
       <use xlink:href="#m4f9410711c" x="103.25625" y="344.976424" style="stroke: #000000; stroke-width: 2"/>
      </g>
     </g>
     <g id="text_11">
      <!-- 0.00 -->
      <g transform="translate(29.75625 358.863924) scale(0.4 -0.4)">
       <use xlink:href="#TimesNewRomanPSMT-30"/>
       <use xlink:href="#TimesNewRomanPSMT-2e" x="50"/>
       <use xlink:href="#TimesNewRomanPSMT-30" x="75"/>
       <use xlink:href="#TimesNewRomanPSMT-30" x="125"/>
      </g>
     </g>
    </g>
    <g id="ytick_5">
     <g id="line2d_21">
      <path d="M 103.25625 280.77365 
L 631.660816 280.77365 
" clip-path="url(#p02ed11ff00)" style="fill: none; stroke: #000000; stroke-width: 0.7; stroke-linecap: square"/>
     </g>
     <g id="line2d_22">
      <g>
       <use xlink:href="#m4f9410711c" x="103.25625" y="280.77365" style="stroke: #000000; stroke-width: 2"/>
      </g>
     </g>
     <g id="text_12">
      <!-- 0.05 -->
      <g transform="translate(29.75625 294.66115) scale(0.4 -0.4)">
       <use xlink:href="#TimesNewRomanPSMT-30"/>
       <use xlink:href="#TimesNewRomanPSMT-2e" x="50"/>
       <use xlink:href="#TimesNewRomanPSMT-30" x="75"/>
       <use xlink:href="#TimesNewRomanPSMT-35" x="125"/>
      </g>
     </g>
    </g>
    <g id="ytick_6">
     <g id="line2d_23">
      <path d="M 103.25625 216.570876 
L 631.660816 216.570876 
" clip-path="url(#p02ed11ff00)" style="fill: none; stroke: #000000; stroke-width: 0.7; stroke-linecap: square"/>
     </g>
     <g id="line2d_24">
      <g>
       <use xlink:href="#m4f9410711c" x="103.25625" y="216.570876" style="stroke: #000000; stroke-width: 2"/>
      </g>
     </g>
     <g id="text_13">
      <!-- 0.10 -->
      <g transform="translate(29.75625 230.458376) scale(0.4 -0.4)">
       <use xlink:href="#TimesNewRomanPSMT-30"/>
       <use xlink:href="#TimesNewRomanPSMT-2e" x="50"/>
       <use xlink:href="#TimesNewRomanPSMT-31" x="75"/>
       <use xlink:href="#TimesNewRomanPSMT-30" x="125"/>
      </g>
     </g>
    </g>
    <g id="ytick_7">
     <g id="line2d_25">
      <path d="M 103.25625 152.368103 
L 631.660816 152.368103 
" clip-path="url(#p02ed11ff00)" style="fill: none; stroke: #000000; stroke-width: 0.7; stroke-linecap: square"/>
     </g>
     <g id="line2d_26">
      <g>
       <use xlink:href="#m4f9410711c" x="103.25625" y="152.368103" style="stroke: #000000; stroke-width: 2"/>
      </g>
     </g>
     <g id="text_14">
      <!-- 0.15 -->
      <g transform="translate(29.75625 166.255603) scale(0.4 -0.4)">
       <use xlink:href="#TimesNewRomanPSMT-30"/>
       <use xlink:href="#TimesNewRomanPSMT-2e" x="50"/>
       <use xlink:href="#TimesNewRomanPSMT-31" x="75"/>
       <use xlink:href="#TimesNewRomanPSMT-35" x="125"/>
      </g>
     </g>
    </g>
    <g id="ytick_8">
     <g id="line2d_27">
      <path d="M 103.25625 88.165329 
L 631.660816 88.165329 
" clip-path="url(#p02ed11ff00)" style="fill: none; stroke: #000000; stroke-width: 0.7; stroke-linecap: square"/>
     </g>
     <g id="line2d_28">
      <g>
       <use xlink:href="#m4f9410711c" x="103.25625" y="88.165329" style="stroke: #000000; stroke-width: 2"/>
      </g>
     </g>
     <g id="text_15">
      <!-- 0.20 -->
      <g transform="translate(29.75625 102.052829) scale(0.4 -0.4)">
       <use xlink:href="#TimesNewRomanPSMT-30"/>
       <use xlink:href="#TimesNewRomanPSMT-2e" x="50"/>
       <use xlink:href="#TimesNewRomanPSMT-32" x="75"/>
       <use xlink:href="#TimesNewRomanPSMT-30" x="125"/>
      </g>
     </g>
    </g>
    <g id="ytick_9">
     <g id="line2d_29">
      <path d="M 103.25625 23.962556 
L 631.660816 23.962556 
" clip-path="url(#p02ed11ff00)" style="fill: none; stroke: #000000; stroke-width: 0.7; stroke-linecap: square"/>
     </g>
     <g id="line2d_30">
      <g>
       <use xlink:href="#m4f9410711c" x="103.25625" y="23.962556" style="stroke: #000000; stroke-width: 2"/>
      </g>
     </g>
     <g id="text_16">
      <!-- 0.25 -->
      <g transform="translate(29.75625 37.850056) scale(0.4 -0.4)">
       <use xlink:href="#TimesNewRomanPSMT-30"/>
       <use xlink:href="#TimesNewRomanPSMT-2e" x="50"/>
       <use xlink:href="#TimesNewRomanPSMT-32" x="75"/>
       <use xlink:href="#TimesNewRomanPSMT-35" x="125"/>
      </g>
     </g>
    </g>
   </g>
   <g id="line2d_31">
    <path d="M 127.274639 344.428258 
L 162.857438 344.240057 
L 166.46909 344.298394 
L 177.019377 344.19544 
L 180.648838 343.942221 
L 184.26049 343.358322 
L 187.872142 342.401968 
L 191.199125 340.966922 
L 194.810777 338.753511 
L 198.440237 335.624712 
L 202.051889 331.12329 
L 205.663541 325.393631 
L 208.990524 318.605604 
L 212.602176 308.986783 
L 216.231637 296.477709 
L 219.843289 280.736873 
L 223.454941 262.258318 
L 226.781924 243.992988 
L 234.023037 200.073494 
L 241.139596 154.668833 
L 244.697876 133.278912 
L 248.256156 112.975794 
L 251.814436 94.147415 
L 255.426088 78.455948 
L 259.03774 65.348987 
L 265.976375 44.067754 
L 269.605836 38.090842 
L 273.164116 34.870245 
L 276.722395 32.509091 
L 280.280675 38.856537 
L 283.838955 47.419504 
L 287.397235 59.624891 
L 291.008887 75.862671 
L 294.620539 95.142594 
L 297.947522 111.72493 
L 305.188635 149.697323 
L 308.746915 165.990873 
L 312.305195 180.164211 
L 315.863474 192.273952 
L 322.980034 214.370361 
L 326.538314 224.887543 
L 333.654874 243.233052 
L 337.213154 251.550255 
L 340.771434 259.486897 
L 351.321721 278.455933 
L 354.933373 283.519541 
L 358.562833 289.119421 
L 362.121113 293.791981 
L 369.237673 302.331625 
L 376.354233 309.142164 
L 383.470793 315.174552 
L 390.587352 320.080376 
L 397.703912 323.833308 
L 404.820472 327.18562 
L 411.937032 329.824733 
L 418.929039 331.855382 
L 422.718616 332.728474 
L 426.223524 333.662256 
L 436.844991 335.782502 
L 454.636391 338.30318 
L 461.752951 339.060211 
L 479.597722 340.146617 
L 486.589729 340.760886 
L 511.568869 342.120898 
L 522.172528 342.553615 
L 539.963928 343.060741 
L 593.338126 343.92872 
L 600.632611 343.958721 
L 607.642427 344.007036 
L 607.642427 344.007036 
" clip-path="url(#p02ed11ff00)" style="fill: none; stroke-dasharray: 14.8,6.4; stroke-dashoffset: 0; stroke: #008000; stroke-width: 4"/>
   </g>
   <g id="line2d_32">
    <path d="M 127.274639 328.929598 
L 173.407725 328.650291 
L 177.019377 328.421212 
L 180.648838 327.957561 
L 184.26049 327.045378 
L 187.872142 325.619915 
L 191.199125 323.542148 
L 194.810777 320.484971 
L 198.440237 316.328363 
L 202.051889 310.335812 
L 205.663541 302.876894 
L 208.990524 293.995853 
L 212.602176 281.916939 
L 216.231637 266.475131 
L 219.843289 246.998576 
L 223.454941 224.550834 
L 226.781924 201.984416 
L 237.581316 123.75324 
L 241.139596 99.712449 
L 244.697876 78.650424 
L 248.256156 61.190039 
L 251.814436 48.251934 
L 255.426088 41.725011 
L 259.03774 41.432771 
L 262.364723 45.586644 
L 265.976375 50.508132 
L 269.605836 63.68664 
L 273.164116 80.290748 
L 276.722395 100.038593 
L 280.280675 129.05761 
L 283.838955 161.85177 
L 287.397235 197.500471 
L 291.008887 236.749713 
L 294.620539 277.800937 
L 301.559174 349.968179 
L 305.188635 384.431341 
L 308.746915 415.672799 
L 312.305195 441.13521 
L 315.863474 462.618171 
L 319.421754 481.068873 
L 322.980034 496.851417 
L 326.538314 509.30879 
L 330.096594 519.370564 
L 333.654874 527.284659 
L 337.213154 533.169867 
L 340.771434 537.144738 
L 344.383086 538.572969 
L 347.994738 538.690909 
L 351.321721 537.209271 
L 354.933373 533.802492 
L 358.562833 529.615819 
L 365.679393 517.19386 
L 369.237673 509.895486 
L 376.354233 494.317897 
L 379.912513 485.778281 
L 383.470793 477.546227 
L 387.029073 468.882737 
L 390.587352 459.849226 
L 401.262192 436.306746 
L 408.378752 421.704817 
L 411.937032 415.236317 
L 418.929039 403.095564 
L 422.718616 397.250096 
L 429.728431 387.018396 
L 433.286711 382.426612 
L 440.403271 373.859127 
L 447.519831 366.656292 
L 451.078111 363.304325 
L 458.194671 357.345229 
L 461.752951 354.983004 
L 465.31123 352.980502 
L 486.589729 343.304131 
L 490.094637 341.92828 
L 497.389122 339.471365 
L 504.452309 337.604921 
L 508.010589 336.799167 
L 515.127149 335.500876 
L 522.172528 334.443359 
L 529.467013 333.479178 
L 539.963928 332.381917 
L 547.258412 331.761427 
L 557.755327 331.055837 
L 575.511164 330.330092 
L 607.642427 329.628825 
L 607.642427 329.628825 
" clip-path="url(#p02ed11ff00)" style="fill: none; stroke: #ff0000; stroke-width: 4; stroke-linecap: square"/>
   </g>
   <g id="patch_3">
    <path d="M 103.25625 564 
L 103.25625 7.2 
" style="fill: none; stroke: #000000; stroke-width: 0.8; stroke-linejoin: miter; stroke-linecap: square"/>
   </g>
   <g id="patch_4">
    <path d="M 631.660816 564 
L 631.660816 7.2 
" style="fill: none; stroke: #000000; stroke-width: 0.8; stroke-linejoin: miter; stroke-linecap: square"/>
   </g>
   <g id="patch_5">
    <path d="M 103.25625 564 
L 631.660816 564 
" style="fill: none; stroke: #000000; stroke-width: 0.8; stroke-linejoin: miter; stroke-linecap: square"/>
   </g>
   <g id="patch_6">
    <path d="M 103.25625 7.2 
L 631.660816 7.2 
" style="fill: none; stroke: #000000; stroke-width: 0.8; stroke-linejoin: miter; stroke-linecap: square"/>
   </g>
   <g id="legend_1">
    <g id="patch_7">
     <path d="M 260.612379 116.034375 
L 610.660816 116.034375 
Q 616.660816 116.034375 616.660816 110.034375 
L 616.660816 28.2 
Q 616.660816 22.2 610.660816 22.2 
L 260.612379 22.2 
Q 254.612379 22.2 254.612379 28.2 
L 254.612379 110.034375 
Q 254.612379 116.034375 260.612379 116.034375 
z
" style="fill: #ffffff; opacity: 0.8; stroke: #cccccc; stroke-linejoin: miter"/>
    </g>
    <g id="line2d_33">
     <path d="M 266.612379 44.7 
L 296.612379 44.7 
L 326.612379 44.7 
" style="fill: none; stroke-dasharray: 14.8,6.4; stroke-dashoffset: 0; stroke: #008000; stroke-width: 4"/>
    </g>
    <g id="text_17">
     <!-- теоретические -->
     <g transform="translate(350.612379 55.2) scale(0.3 -0.3)">
      <defs>
       <path id="TimesNewRomanPSMT-447" d="M 2125 1578 
L 2125 2191 
Q 2125 2488 2095 2573 
Q 2066 2659 1973 2701 
Q 1881 2744 1694 2744 
L 1694 2863 
L 3078 2863 
L 3078 2744 
Q 2866 2744 2795 2701 
Q 2725 2659 2684 2596 
Q 2644 2534 2644 2191 
L 2644 672 
Q 2644 375 2673 289 
Q 2703 203 2795 159 
Q 2888 116 3078 116 
L 3078 0 
L 1625 0 
L 1625 116 
Q 1875 125 1951 148 
Q 2028 172 2076 269 
Q 2125 366 2125 672 
L 2125 1372 
Q 1666 1138 1156 1138 
Q 878 1138 725 1208 
Q 572 1278 531 1370 
Q 491 1463 491 1669 
L 491 2191 
Q 491 2469 466 2556 
Q 441 2644 353 2694 
Q 266 2744 94 2744 
L 94 2863 
L 1441 2863 
L 1441 2744 
Q 1231 2744 1159 2701 
Q 1088 2659 1047 2596 
Q 1006 2534 1006 2191 
L 1006 1838 
Q 1006 1631 1036 1559 
Q 1066 1488 1173 1439 
Q 1281 1391 1478 1391 
Q 1819 1391 2125 1578 
z
" transform="scale(0.015625)"/>
       <path id="TimesNewRomanPSMT-43a" d="M 3072 0 
L 2228 0 
Q 1834 572 1516 1172 
Q 1441 1309 1380 1376 
Q 1319 1444 1213 1444 
Q 1175 1444 1094 1438 
L 1094 672 
Q 1094 363 1130 277 
Q 1166 191 1259 153 
Q 1353 116 1575 116 
L 1575 0 
L 144 0 
L 144 116 
Q 422 116 500 217 
Q 578 319 578 672 
L 578 2191 
Q 578 2525 543 2586 
Q 509 2647 437 2695 
Q 366 2744 144 2744 
L 144 2863 
L 1575 2863 
L 1575 2744 
Q 1316 2744 1255 2706 
Q 1194 2669 1144 2614 
Q 1094 2559 1094 2191 
L 1094 1628 
Q 1166 1622 1191 1622 
Q 1381 1622 1548 1730 
Q 1716 1838 1847 2188 
Q 1969 2519 2048 2634 
Q 2128 2750 2270 2823 
Q 2413 2897 2569 2897 
Q 2738 2897 2838 2815 
Q 2938 2734 2938 2603 
Q 2938 2494 2866 2417 
Q 2794 2341 2666 2341 
Q 2597 2341 2494 2378 
Q 2363 2425 2294 2425 
Q 2150 2425 2056 2178 
Q 1950 1894 1900 1811 
Q 1850 1728 1709 1591 
Q 1806 1563 1920 1447 
Q 2034 1331 2344 788 
Q 2591 353 2714 237 
Q 2838 122 3072 116 
L 3072 0 
z
" transform="scale(0.015625)"/>
      </defs>
      <use xlink:href="#TimesNewRomanPSMT-442"/>
      <use xlink:href="#TimesNewRomanPSMT-435" x="43.701172"/>
      <use xlink:href="#TimesNewRomanPSMT-43e" x="88.085938"/>
      <use xlink:href="#TimesNewRomanPSMT-440" x="138.085938"/>
      <use xlink:href="#TimesNewRomanPSMT-435" x="188.085938"/>
      <use xlink:href="#TimesNewRomanPSMT-442" x="232.470703"/>
      <use xlink:href="#TimesNewRomanPSMT-438" x="276.171875"/>
      <use xlink:href="#TimesNewRomanPSMT-447" x="329.6875"/>
      <use xlink:href="#TimesNewRomanPSMT-435" x="379.980469"/>
      <use xlink:href="#TimesNewRomanPSMT-441" x="426.865234"/>
      <use xlink:href="#TimesNewRomanPSMT-43a" x="471.25"/>
      <use xlink:href="#TimesNewRomanPSMT-438" x="519.833984"/>
      <use xlink:href="#TimesNewRomanPSMT-435" x="573.349609"/>
     </g>
    </g>
    <g id="line2d_34">
     <path d="M 266.612379 87.117188 
L 296.612379 87.117188 
L 326.612379 87.117188 
" style="fill: none; stroke: #ff0000; stroke-width: 4; stroke-linecap: square"/>
    </g>
    <g id="text_18">
     <!-- экспериментальные -->
     <g transform="translate(350.612379 97.617188) scale(0.3 -0.3)">
      <defs>
       <path id="TimesNewRomanPSMT-44d" d="M 281 1972 
L 400 1972 
Q 438 2300 631 2522 
Q 825 2744 1119 2744 
Q 1434 2744 1646 2442 
Q 1859 2141 1919 1625 
L 991 1625 
L 991 1422 
L 1941 1422 
L 1941 1269 
Q 1941 647 1694 376 
Q 1447 106 1078 106 
Q 544 106 191 609 
L 84 547 
Q 519 -88 1141 -88 
Q 1753 -88 2140 370 
Q 2528 828 2528 1469 
Q 2528 2125 2131 2536 
Q 1734 2947 1241 2947 
Q 1047 2947 756 2856 
Q 581 2803 531 2803 
Q 466 2803 400 2863 
L 281 2863 
L 281 1972 
z
" transform="scale(0.015625)"/>
       <path id="TimesNewRomanPSMT-43f" d="M 2331 2659 
L 1094 2659 
L 1094 672 
Q 1094 341 1128 277 
Q 1163 213 1236 164 
Q 1309 116 1528 116 
L 1528 0 
L 144 0 
L 144 116 
Q 422 116 500 217 
Q 578 319 578 672 
L 578 2191 
Q 578 2525 543 2586 
Q 509 2647 437 2695 
Q 366 2744 144 2744 
L 144 2863 
L 3281 2863 
L 3281 2744 
Q 3072 2744 3000 2701 
Q 2928 2659 2887 2596 
Q 2847 2534 2847 2191 
L 2847 672 
Q 2847 341 2881 277 
Q 2916 213 2989 164 
Q 3063 116 3281 116 
L 3281 0 
L 1897 0 
L 1897 116 
Q 2156 116 2243 211 
Q 2331 306 2331 672 
L 2331 2659 
z
" transform="scale(0.015625)"/>
       <path id="TimesNewRomanPSMT-44c" d="M 1094 1588 
L 1450 1594 
Q 2725 1594 2725 806 
Q 2725 441 2414 220 
Q 2103 0 1519 0 
L 144 0 
L 144 116 
Q 422 116 500 217 
Q 578 319 578 672 
L 578 2191 
Q 578 2525 543 2586 
Q 509 2647 437 2695 
Q 366 2744 144 2744 
L 144 2863 
L 1641 2863 
L 1641 2744 
Q 1331 2744 1259 2708 
Q 1188 2672 1141 2614 
Q 1094 2556 1094 2191 
L 1094 1588 
z
M 1094 247 
Q 1259 203 1425 203 
Q 1738 203 1933 368 
Q 2128 534 2128 788 
Q 2128 1388 1294 1388 
Q 1222 1388 1094 1384 
L 1094 247 
z
" transform="scale(0.015625)"/>
      </defs>
      <use xlink:href="#TimesNewRomanPSMT-44d"/>
      <use xlink:href="#TimesNewRomanPSMT-43a" x="42.919922"/>
      <use xlink:href="#TimesNewRomanPSMT-441" x="89.003906"/>
      <use xlink:href="#TimesNewRomanPSMT-43f" x="133.388672"/>
      <use xlink:href="#TimesNewRomanPSMT-435" x="186.904297"/>
      <use xlink:href="#TimesNewRomanPSMT-440" x="231.289062"/>
      <use xlink:href="#TimesNewRomanPSMT-438" x="281.289062"/>
      <use xlink:href="#TimesNewRomanPSMT-43c" x="334.804688"/>
      <use xlink:href="#TimesNewRomanPSMT-435" x="398.085938"/>
      <use xlink:href="#TimesNewRomanPSMT-43d" x="442.470703"/>
      <use xlink:href="#TimesNewRomanPSMT-442" x="495.986328"/>
      <use xlink:href="#TimesNewRomanPSMT-430" x="540.9375"/>
      <use xlink:href="#TimesNewRomanPSMT-43b" x="586.197266"/>
      <use xlink:href="#TimesNewRomanPSMT-44c" x="636.099609"/>
      <use xlink:href="#TimesNewRomanPSMT-43d" x="681.705078"/>
      <use xlink:href="#TimesNewRomanPSMT-44b" x="735.220703"/>
      <use xlink:href="#TimesNewRomanPSMT-435" x="802.408203"/>
     </g>
    </g>
   </g>
  </g>
  <g id="axes_2">
   <g id="patch_8">
    <path d="M 744.23875 564 
L 1272.643316 564 
L 1272.643316 7.2 
L 744.23875 7.2 
z
" style="fill: #ffffff"/>
   </g>
   <g id="matplotlib.axis_3">
    <g id="xtick_7">
     <g id="line2d_35">
      <path d="M 821.631338 564 
L 821.631338 7.2 
" clip-path="url(#p4efaae62fa)" style="fill: none; stroke: #000000; stroke-width: 0.7; stroke-linecap: square"/>
     </g>
     <g id="line2d_36">
      <g>
       <use xlink:href="#m9fef1ad7c7" x="821.631338" y="564" style="stroke: #000000; stroke-width: 2"/>
      </g>
     </g>
     <g id="text_19">
      <!-- 240 -->
      <g transform="translate(791.631338 606.775) scale(0.4 -0.4)">
       <use xlink:href="#TimesNewRomanPSMT-32"/>
       <use xlink:href="#TimesNewRomanPSMT-34" x="50"/>
       <use xlink:href="#TimesNewRomanPSMT-30" x="100"/>
      </g>
     </g>
    </g>
    <g id="xtick_8">
     <g id="line2d_37">
      <path d="M 928.379735 564 
L 928.379735 7.2 
" clip-path="url(#p4efaae62fa)" style="fill: none; stroke: #000000; stroke-width: 0.7; stroke-linecap: square"/>
     </g>
     <g id="line2d_38">
      <g>
       <use xlink:href="#m9fef1ad7c7" x="928.379735" y="564" style="stroke: #000000; stroke-width: 2"/>
      </g>
     </g>
     <g id="text_20">
      <!-- 260 -->
      <g transform="translate(898.379735 606.775) scale(0.4 -0.4)">
       <defs>
        <path id="TimesNewRomanPSMT-36" d="M 2869 4325 
L 2869 4209 
Q 2456 4169 2195 4045 
Q 1934 3922 1679 3669 
Q 1425 3416 1258 3105 
Q 1091 2794 978 2366 
Q 1428 2675 1881 2675 
Q 2316 2675 2634 2325 
Q 2953 1975 2953 1425 
Q 2953 894 2631 456 
Q 2244 -75 1606 -75 
Q 1172 -75 869 213 
Q 275 772 275 1663 
Q 275 2231 503 2743 
Q 731 3256 1154 3653 
Q 1578 4050 1965 4187 
Q 2353 4325 2688 4325 
L 2869 4325 
z
M 925 2138 
Q 869 1716 869 1456 
Q 869 1156 980 804 
Q 1091 453 1309 247 
Q 1469 100 1697 100 
Q 1969 100 2183 356 
Q 2397 613 2397 1088 
Q 2397 1622 2184 2012 
Q 1972 2403 1581 2403 
Q 1463 2403 1327 2353 
Q 1191 2303 925 2138 
z
" transform="scale(0.015625)"/>
       </defs>
       <use xlink:href="#TimesNewRomanPSMT-32"/>
       <use xlink:href="#TimesNewRomanPSMT-36" x="50"/>
       <use xlink:href="#TimesNewRomanPSMT-30" x="100"/>
      </g>
     </g>
    </g>
    <g id="xtick_9">
     <g id="line2d_39">
      <path d="M 1035.128132 564 
L 1035.128132 7.2 
" clip-path="url(#p4efaae62fa)" style="fill: none; stroke: #000000; stroke-width: 0.7; stroke-linecap: square"/>
     </g>
     <g id="line2d_40">
      <g>
       <use xlink:href="#m9fef1ad7c7" x="1035.128132" y="564" style="stroke: #000000; stroke-width: 2"/>
      </g>
     </g>
     <g id="text_21">
      <!-- 280 -->
      <g transform="translate(1005.128132 606.775) scale(0.4 -0.4)">
       <defs>
        <path id="TimesNewRomanPSMT-38" d="M 1228 2134 
Q 725 2547 579 2797 
Q 434 3047 434 3316 
Q 434 3728 753 4026 
Q 1072 4325 1600 4325 
Q 2113 4325 2425 4047 
Q 2738 3769 2738 3413 
Q 2738 3175 2569 2928 
Q 2400 2681 1866 2347 
Q 2416 1922 2594 1678 
Q 2831 1359 2831 1006 
Q 2831 559 2490 242 
Q 2150 -75 1597 -75 
Q 994 -75 656 303 
Q 388 606 388 966 
Q 388 1247 577 1523 
Q 766 1800 1228 2134 
z
M 1719 2469 
Q 2094 2806 2194 3001 
Q 2294 3197 2294 3444 
Q 2294 3772 2109 3958 
Q 1925 4144 1606 4144 
Q 1288 4144 1088 3959 
Q 888 3775 888 3528 
Q 888 3366 970 3203 
Q 1053 3041 1206 2894 
L 1719 2469 
z
M 1375 2016 
Q 1116 1797 991 1539 
Q 866 1281 866 981 
Q 866 578 1086 336 
Q 1306 94 1647 94 
Q 1984 94 2187 284 
Q 2391 475 2391 747 
Q 2391 972 2272 1150 
Q 2050 1481 1375 2016 
z
" transform="scale(0.015625)"/>
       </defs>
       <use xlink:href="#TimesNewRomanPSMT-32"/>
       <use xlink:href="#TimesNewRomanPSMT-38" x="50"/>
       <use xlink:href="#TimesNewRomanPSMT-30" x="100"/>
      </g>
     </g>
    </g>
    <g id="xtick_10">
     <g id="line2d_41">
      <path d="M 1141.87653 564 
L 1141.87653 7.2 
" clip-path="url(#p4efaae62fa)" style="fill: none; stroke: #000000; stroke-width: 0.7; stroke-linecap: square"/>
     </g>
     <g id="line2d_42">
      <g>
       <use xlink:href="#m9fef1ad7c7" x="1141.87653" y="564" style="stroke: #000000; stroke-width: 2"/>
      </g>
     </g>
     <g id="text_22">
      <!-- 300 -->
      <g transform="translate(1111.87653 606.775) scale(0.4 -0.4)">
       <use xlink:href="#TimesNewRomanPSMT-33"/>
       <use xlink:href="#TimesNewRomanPSMT-30" x="50"/>
       <use xlink:href="#TimesNewRomanPSMT-30" x="100"/>
      </g>
     </g>
    </g>
    <g id="xtick_11">
     <g id="line2d_43">
      <path d="M 1248.624927 564 
L 1248.624927 7.2 
" clip-path="url(#p4efaae62fa)" style="fill: none; stroke: #000000; stroke-width: 0.7; stroke-linecap: square"/>
     </g>
     <g id="line2d_44">
      <g>
       <use xlink:href="#m9fef1ad7c7" x="1248.624927" y="564" style="stroke: #000000; stroke-width: 2"/>
      </g>
     </g>
     <g id="text_23">
      <!-- 320 -->
      <g transform="translate(1218.624927 606.775) scale(0.4 -0.4)">
       <use xlink:href="#TimesNewRomanPSMT-33"/>
       <use xlink:href="#TimesNewRomanPSMT-32" x="50"/>
       <use xlink:href="#TimesNewRomanPSMT-30" x="100"/>
      </g>
     </g>
    </g>
    <g id="text_24">
     <!-- длина волны возбуждения, нм -->
     <g transform="translate(738.787908 659.495) scale(0.42 -0.42)">
      <defs>
       <path id="TimesNewRomanPSMT-437" d="M 263 1966 
L 263 2863 
L 394 2863 
Q 450 2813 519 2813 
Q 572 2813 750 2863 
Q 1047 2947 1234 2947 
Q 1647 2947 1923 2756 
Q 2200 2566 2200 2250 
Q 2200 1766 1466 1547 
Q 2322 1369 2322 744 
Q 2322 416 2047 164 
Q 1772 -88 1247 -88 
Q 903 -88 642 35 
Q 381 159 75 453 
L 156 534 
Q 669 138 1128 138 
Q 1391 138 1559 316 
Q 1728 494 1728 778 
Q 1728 1400 925 1438 
L 925 1619 
Q 1303 1619 1473 1820 
Q 1644 2022 1644 2253 
Q 1644 2456 1498 2609 
Q 1353 2763 1113 2763 
Q 556 2763 375 1966 
L 263 1966 
z
" transform="scale(0.015625)"/>
       <path id="TimesNewRomanPSMT-431" d="M 469 2044 
Q 828 2947 1681 2947 
Q 2278 2947 2658 2500 
Q 3038 2053 3038 1478 
Q 3038 884 2653 398 
Q 2269 -88 1613 -88 
Q 944 -88 594 467 
Q 244 1022 244 1819 
Q 244 2438 425 2973 
Q 606 3509 806 3775 
Q 1006 4041 1268 4162 
Q 1531 4284 2197 4291 
Q 2675 4297 2775 4319 
Q 2875 4341 2966 4444 
L 3088 4444 
Q 2984 4138 2837 4006 
Q 2691 3875 2522 3829 
Q 2353 3784 1919 3772 
Q 1450 3759 1270 3701 
Q 1091 3644 897 3420 
Q 703 3197 595 2834 
Q 488 2472 469 2044 
z
M 1575 2734 
Q 1263 2734 1063 2475 
Q 863 2216 863 1659 
Q 863 906 1131 518 
Q 1400 131 1753 131 
Q 2078 131 2264 401 
Q 2450 672 2450 1266 
Q 2450 1897 2206 2315 
Q 1963 2734 1575 2734 
z
" transform="scale(0.015625)"/>
       <path id="TimesNewRomanPSMT-443" d="M 38 2863 
L 1372 2863 
L 1372 2747 
L 1306 2747 
Q 1166 2747 1095 2686 
Q 1025 2625 1025 2534 
Q 1025 2413 1128 2197 
L 1825 753 
L 2466 2334 
Q 2519 2463 2519 2588 
Q 2519 2644 2497 2672 
Q 2472 2706 2419 2726 
Q 2366 2747 2231 2747 
L 2231 2863 
L 3163 2863 
L 3163 2747 
Q 3047 2734 2984 2696 
Q 2922 2659 2847 2556 
Q 2819 2513 2741 2316 
L 1575 -541 
Q 1406 -956 1132 -1168 
Q 859 -1381 606 -1381 
Q 422 -1381 303 -1275 
Q 184 -1169 184 -1031 
Q 184 -900 270 -820 
Q 356 -741 506 -741 
Q 609 -741 788 -809 
Q 913 -856 944 -856 
Q 1038 -856 1148 -759 
Q 1259 -663 1372 -384 
L 1575 113 
L 547 2272 
Q 500 2369 397 2513 
Q 319 2622 269 2659 
Q 197 2709 38 2747 
L 38 2863 
z
" transform="scale(0.015625)"/>
       <path id="TimesNewRomanPSMT-436" d="M 1506 0 
L 1506 116 
Q 1797 144 1875 270 
Q 1953 397 1953 788 
L 1953 1438 
Q 1747 1438 1680 1391 
Q 1613 1344 1453 1038 
L 916 0 
L 72 0 
L 72 116 
Q 291 131 403 239 
Q 516 347 706 731 
Q 997 1316 1131 1439 
Q 1266 1563 1422 1575 
Q 1231 1656 1063 2088 
Q 981 2291 934 2355 
Q 888 2419 806 2419 
Q 744 2419 647 2381 
Q 506 2325 428 2325 
Q 303 2325 231 2409 
Q 159 2494 159 2613 
Q 159 2750 268 2823 
Q 378 2897 525 2897 
Q 781 2897 936 2745 
Q 1091 2594 1231 2203 
Q 1366 1831 1534 1718 
Q 1703 1606 1953 1606 
L 1953 2075 
Q 1953 2478 1870 2597 
Q 1788 2716 1506 2744 
L 1506 2863 
L 2919 2863 
L 2919 2744 
Q 2634 2713 2553 2594 
Q 2472 2475 2472 2075 
L 2472 1606 
Q 2719 1606 2887 1718 
Q 3056 1831 3191 2203 
Q 3359 2684 3542 2790 
Q 3725 2897 3891 2897 
Q 4075 2897 4170 2812 
Q 4266 2728 4266 2613 
Q 4266 2494 4194 2409 
Q 4122 2325 3997 2325 
Q 3919 2325 3778 2381 
Q 3681 2419 3628 2419 
Q 3538 2419 3491 2355 
Q 3444 2291 3363 2088 
Q 3194 1656 3003 1575 
Q 3166 1563 3300 1431 
Q 3434 1300 3713 741 
Q 3909 347 4021 239 
Q 4134 131 4353 116 
L 4353 0 
L 3509 0 
L 2972 1038 
Q 2813 1344 2745 1391 
Q 2678 1438 2472 1438 
L 2472 788 
Q 2472 341 2564 245 
Q 2656 150 2919 116 
L 2919 0 
L 1506 0 
z
" transform="scale(0.015625)"/>
       <path id="TimesNewRomanPSMT-44f" d="M 2800 2863 
L 2800 2744 
Q 2606 2744 2514 2691 
Q 2422 2638 2394 2556 
Q 2366 2475 2366 2191 
L 2366 672 
Q 2366 400 2391 314 
Q 2416 228 2511 172 
Q 2606 116 2800 116 
L 2800 0 
L 1416 0 
L 1416 116 
Q 1675 116 1762 211 
Q 1850 306 1850 672 
L 1850 1294 
L 1722 1291 
Q 1694 1291 1622 1294 
L 709 0 
L -3 0 
L -3 116 
Q 153 116 214 158 
Q 275 200 441 434 
L 1109 1378 
Q 391 1628 391 2144 
Q 391 2434 648 2648 
Q 906 2863 1528 2863 
L 2800 2863 
z
M 1850 2625 
Q 1728 2659 1619 2659 
Q 1303 2659 1147 2503 
Q 991 2347 991 2131 
Q 991 1856 1212 1675 
Q 1434 1494 1772 1494 
Q 1806 1494 1850 1500 
L 1850 2625 
z
" transform="scale(0.015625)"/>
      </defs>
      <use xlink:href="#TimesNewRomanPSMT-434"/>
      <use xlink:href="#TimesNewRomanPSMT-43b" x="50.878906"/>
      <use xlink:href="#TimesNewRomanPSMT-438" x="100.78125"/>
      <use xlink:href="#TimesNewRomanPSMT-43d" x="154.296875"/>
      <use xlink:href="#TimesNewRomanPSMT-430" x="207.8125"/>
      <use xlink:href="#TimesNewRomanPSMT-20" x="252.197266"/>
      <use xlink:href="#TimesNewRomanPSMT-432" x="277.197266"/>
      <use xlink:href="#TimesNewRomanPSMT-43e" x="323.789062"/>
      <use xlink:href="#TimesNewRomanPSMT-43b" x="372.414062"/>
      <use xlink:href="#TimesNewRomanPSMT-43d" x="422.316406"/>
      <use xlink:href="#TimesNewRomanPSMT-44b" x="475.832031"/>
      <use xlink:href="#TimesNewRomanPSMT-20" x="543.019531"/>
      <use xlink:href="#TimesNewRomanPSMT-432" x="568.019531"/>
      <use xlink:href="#TimesNewRomanPSMT-43e" x="614.611328"/>
      <use xlink:href="#TimesNewRomanPSMT-437" x="664.611328"/>
      <use xlink:href="#TimesNewRomanPSMT-431" x="704.113281"/>
      <use xlink:href="#TimesNewRomanPSMT-443" x="751.242188"/>
      <use xlink:href="#TimesNewRomanPSMT-436" x="799.867188"/>
      <use xlink:href="#TimesNewRomanPSMT-434" x="868.958984"/>
      <use xlink:href="#TimesNewRomanPSMT-435" x="919.837891"/>
      <use xlink:href="#TimesNewRomanPSMT-43d" x="964.222656"/>
      <use xlink:href="#TimesNewRomanPSMT-438" x="1017.738281"/>
      <use xlink:href="#TimesNewRomanPSMT-44f" x="1071.253906"/>
      <use xlink:href="#TimesNewRomanPSMT-2c" x="1117.25"/>
      <use xlink:href="#TimesNewRomanPSMT-20" x="1142.25"/>
      <use xlink:href="#TimesNewRomanPSMT-43d" x="1167.25"/>
      <use xlink:href="#TimesNewRomanPSMT-43c" x="1220.765625"/>
     </g>
    </g>
   </g>
   <g id="matplotlib.axis_4">
    <g id="ytick_10">
     <g id="line2d_45">
      <path d="M 744.23875 500.154767 
L 1272.643316 500.154767 
" clip-path="url(#p4efaae62fa)" style="fill: none; stroke: #000000; stroke-width: 0.7; stroke-linecap: square"/>
     </g>
     <g id="line2d_46">
      <g>
       <use xlink:href="#m4f9410711c" x="744.23875" y="500.154767" style="stroke: #000000; stroke-width: 2"/>
      </g>
     </g>
     <g id="text_25">
      <!-- 0.0 -->
      <g transform="translate(690.73875 514.042267) scale(0.4 -0.4)">
       <use xlink:href="#TimesNewRomanPSMT-30"/>
       <use xlink:href="#TimesNewRomanPSMT-2e" x="50"/>
       <use xlink:href="#TimesNewRomanPSMT-30" x="75"/>
      </g>
     </g>
    </g>
    <g id="ytick_11">
     <g id="line2d_47">
      <path d="M 744.23875 399.365847 
L 1272.643316 399.365847 
" clip-path="url(#p4efaae62fa)" style="fill: none; stroke: #000000; stroke-width: 0.7; stroke-linecap: square"/>
     </g>
     <g id="line2d_48">
      <g>
       <use xlink:href="#m4f9410711c" x="744.23875" y="399.365847" style="stroke: #000000; stroke-width: 2"/>
      </g>
     </g>
     <g id="text_26">
      <!-- 0.1 -->
      <g transform="translate(690.73875 413.253347) scale(0.4 -0.4)">
       <use xlink:href="#TimesNewRomanPSMT-30"/>
       <use xlink:href="#TimesNewRomanPSMT-2e" x="50"/>
       <use xlink:href="#TimesNewRomanPSMT-31" x="75"/>
      </g>
     </g>
    </g>
    <g id="ytick_12">
     <g id="line2d_49">
      <path d="M 744.23875 298.576926 
L 1272.643316 298.576926 
" clip-path="url(#p4efaae62fa)" style="fill: none; stroke: #000000; stroke-width: 0.7; stroke-linecap: square"/>
     </g>
     <g id="line2d_50">
      <g>
       <use xlink:href="#m4f9410711c" x="744.23875" y="298.576926" style="stroke: #000000; stroke-width: 2"/>
      </g>
     </g>
     <g id="text_27">
      <!-- 0.2 -->
      <g transform="translate(690.73875 312.464426) scale(0.4 -0.4)">
       <use xlink:href="#TimesNewRomanPSMT-30"/>
       <use xlink:href="#TimesNewRomanPSMT-2e" x="50"/>
       <use xlink:href="#TimesNewRomanPSMT-32" x="75"/>
      </g>
     </g>
    </g>
    <g id="ytick_13">
     <g id="line2d_51">
      <path d="M 744.23875 197.788006 
L 1272.643316 197.788006 
" clip-path="url(#p4efaae62fa)" style="fill: none; stroke: #000000; stroke-width: 0.7; stroke-linecap: square"/>
     </g>
     <g id="line2d_52">
      <g>
       <use xlink:href="#m4f9410711c" x="744.23875" y="197.788006" style="stroke: #000000; stroke-width: 2"/>
      </g>
     </g>
     <g id="text_28">
      <!-- 0.3 -->
      <g transform="translate(690.73875 211.675506) scale(0.4 -0.4)">
       <use xlink:href="#TimesNewRomanPSMT-30"/>
       <use xlink:href="#TimesNewRomanPSMT-2e" x="50"/>
       <use xlink:href="#TimesNewRomanPSMT-33" x="75"/>
      </g>
     </g>
    </g>
    <g id="ytick_14">
     <g id="line2d_53">
      <path d="M 744.23875 96.999086 
L 1272.643316 96.999086 
" clip-path="url(#p4efaae62fa)" style="fill: none; stroke: #000000; stroke-width: 0.7; stroke-linecap: square"/>
     </g>
     <g id="line2d_54">
      <g>
       <use xlink:href="#m4f9410711c" x="744.23875" y="96.999086" style="stroke: #000000; stroke-width: 2"/>
      </g>
     </g>
     <g id="text_29">
      <!-- 0.4 -->
      <g transform="translate(690.73875 110.886586) scale(0.4 -0.4)">
       <use xlink:href="#TimesNewRomanPSMT-30"/>
       <use xlink:href="#TimesNewRomanPSMT-2e" x="50"/>
       <use xlink:href="#TimesNewRomanPSMT-34" x="75"/>
      </g>
     </g>
    </g>
   </g>
   <g id="line2d_55">
    <path d="M 768.257139 129.03751 
L 794.944239 358.678471 
L 821.631338 453.268947 
L 848.318437 452.19426 
L 875.005537 424.012647 
L 901.692636 356.593289 
L 928.379735 243.166728 
L 955.066834 127.369882 
L 981.753934 32.509091 
L 1008.441033 35.681826 
L 1035.128132 134.8848 
L 1061.815232 285.073717 
L 1088.502331 413.075525 
L 1115.18943 478.204242 
L 1141.87653 498.024168 
L 1168.563629 499.919853 
L 1195.250728 499.852509 
L 1221.937827 499.690223 
L 1248.624927 499.427082 
" clip-path="url(#p4efaae62fa)" style="fill: none; stroke-dasharray: 14.8,6.4; stroke-dashoffset: 0; stroke: #008000; stroke-width: 4"/>
   </g>
   <g id="line2d_56">
    <path d="M 768.257139 182.110742 
L 794.944239 375.470804 
L 821.631338 447.1923 
L 848.318437 430.61502 
L 875.005537 386.21263 
L 901.692636 305.373961 
L 928.379735 194.305291 
L 955.066834 118.034748 
L 981.753934 84.020683 
L 1008.441033 101.56356 
L 1035.128132 158.815131 
L 1061.815232 210.675627 
L 1088.502331 334.230782 
L 1115.18943 455.395464 
L 1141.87653 503.542944 
L 1168.563629 524.69373 
L 1195.250728 533.340996 
L 1221.937827 536.379447 
L 1248.624927 538.690909 
" clip-path="url(#p4efaae62fa)" style="fill: none; stroke: #ff0000; stroke-width: 4; stroke-linecap: square"/>
   </g>
   <g id="patch_9">
    <path d="M 744.23875 564 
L 744.23875 7.2 
" style="fill: none; stroke: #000000; stroke-width: 0.8; stroke-linejoin: miter; stroke-linecap: square"/>
   </g>
   <g id="patch_10">
    <path d="M 1272.643316 564 
L 1272.643316 7.2 
" style="fill: none; stroke: #000000; stroke-width: 0.8; stroke-linejoin: miter; stroke-linecap: square"/>
   </g>
   <g id="patch_11">
    <path d="M 744.23875 564 
L 1272.643316 564 
" style="fill: none; stroke: #000000; stroke-width: 0.8; stroke-linejoin: miter; stroke-linecap: square"/>
   </g>
   <g id="patch_12">
    <path d="M 744.23875 7.2 
L 1272.643316 7.2 
" style="fill: none; stroke: #000000; stroke-width: 0.8; stroke-linejoin: miter; stroke-linecap: square"/>
   </g>
   <g id="legend_2">
    <g id="patch_13">
     <path d="M 765.23875 549 
L 1115.287188 549 
Q 1121.287188 549 1121.287188 543 
L 1121.287188 461.165625 
Q 1121.287188 455.165625 1115.287188 455.165625 
L 765.23875 455.165625 
Q 759.23875 455.165625 759.23875 461.165625 
L 759.23875 543 
Q 759.23875 549 765.23875 549 
z
" style="fill: #ffffff; opacity: 0.8; stroke: #cccccc; stroke-linejoin: miter"/>
    </g>
    <g id="line2d_57">
     <path d="M 771.23875 477.665625 
L 801.23875 477.665625 
L 831.23875 477.665625 
" style="fill: none; stroke-dasharray: 14.8,6.4; stroke-dashoffset: 0; stroke: #008000; stroke-width: 4"/>
    </g>
    <g id="text_30">
     <!-- теоретические -->
     <g transform="translate(855.23875 488.165625) scale(0.3 -0.3)">
      <use xlink:href="#TimesNewRomanPSMT-442"/>
      <use xlink:href="#TimesNewRomanPSMT-435" x="43.701172"/>
      <use xlink:href="#TimesNewRomanPSMT-43e" x="88.085938"/>
      <use xlink:href="#TimesNewRomanPSMT-440" x="138.085938"/>
      <use xlink:href="#TimesNewRomanPSMT-435" x="188.085938"/>
      <use xlink:href="#TimesNewRomanPSMT-442" x="232.470703"/>
      <use xlink:href="#TimesNewRomanPSMT-438" x="276.171875"/>
      <use xlink:href="#TimesNewRomanPSMT-447" x="329.6875"/>
      <use xlink:href="#TimesNewRomanPSMT-435" x="379.980469"/>
      <use xlink:href="#TimesNewRomanPSMT-441" x="426.865234"/>
      <use xlink:href="#TimesNewRomanPSMT-43a" x="471.25"/>
      <use xlink:href="#TimesNewRomanPSMT-438" x="519.833984"/>
      <use xlink:href="#TimesNewRomanPSMT-435" x="573.349609"/>
     </g>
    </g>
    <g id="line2d_58">
     <path d="M 771.23875 520.082813 
L 801.23875 520.082813 
L 831.23875 520.082813 
" style="fill: none; stroke: #ff0000; stroke-width: 4; stroke-linecap: square"/>
    </g>
    <g id="text_31">
     <!-- экспериментальные -->
     <g transform="translate(855.23875 530.582813) scale(0.3 -0.3)">
      <use xlink:href="#TimesNewRomanPSMT-44d"/>
      <use xlink:href="#TimesNewRomanPSMT-43a" x="42.919922"/>
      <use xlink:href="#TimesNewRomanPSMT-441" x="89.003906"/>
      <use xlink:href="#TimesNewRomanPSMT-43f" x="133.388672"/>
      <use xlink:href="#TimesNewRomanPSMT-435" x="186.904297"/>
      <use xlink:href="#TimesNewRomanPSMT-440" x="231.289062"/>
      <use xlink:href="#TimesNewRomanPSMT-438" x="281.289062"/>
      <use xlink:href="#TimesNewRomanPSMT-43c" x="334.804688"/>
      <use xlink:href="#TimesNewRomanPSMT-435" x="398.085938"/>
      <use xlink:href="#TimesNewRomanPSMT-43d" x="442.470703"/>
      <use xlink:href="#TimesNewRomanPSMT-442" x="495.986328"/>
      <use xlink:href="#TimesNewRomanPSMT-430" x="540.9375"/>
      <use xlink:href="#TimesNewRomanPSMT-43b" x="586.197266"/>
      <use xlink:href="#TimesNewRomanPSMT-44c" x="636.099609"/>
      <use xlink:href="#TimesNewRomanPSMT-43d" x="681.705078"/>
      <use xlink:href="#TimesNewRomanPSMT-44b" x="735.220703"/>
      <use xlink:href="#TimesNewRomanPSMT-435" x="802.408203"/>
     </g>
    </g>
   </g>
  </g>
 </g>
 <defs>
  <clipPath id="p02ed11ff00">
   <rect x="103.25625" y="7.2" width="528.404566" height="556.8"/>
  </clipPath>
  <clipPath id="p4efaae62fa">
   <rect x="744.23875" y="7.2" width="528.404566" height="556.8"/>
  </clipPath>
 </defs>
</svg>
