<?xml version="1.0" encoding="utf-8" standalone="no"?>
<!DOCTYPE svg PUBLIC "-//W3C//DTD SVG 1.1//EN"
  "http://www.w3.org/Graphics/SVG/1.1/DTD/svg11.dtd">
<svg xmlns:xlink="http://www.w3.org/1999/xlink" width="872.39952pt" height="584.399663pt" viewBox="0 0 872.39952 584.399663" xmlns="http://www.w3.org/2000/svg" version="1.1">
 <metadata>
  <rdf:RDF xmlns:dc="http://purl.org/dc/elements/1.1/" xmlns:cc="http://creativecommons.org/ns#" xmlns:rdf="http://www.w3.org/1999/02/22-rdf-syntax-ns#">
   <cc:Work>
    <dc:type rdf:resource="http://purl.org/dc/dcmitype/StillImage"/>
    <dc:date>2024-04-05T06:46:46.187966</dc:date>
    <dc:format>image/svg+xml</dc:format>
    <dc:creator>
     <cc:Agent>
      <dc:title>Matplotlib v3.8.0, https://matplotlib.org/</dc:title>
     </cc:Agent>
    </dc:creator>
   </cc:Work>
  </rdf:RDF>
 </metadata>
 <defs>
  <style type="text/css">*{stroke-linejoin: round; stroke-linecap: butt}</style>
 </defs>
 <g id="figure_1">
  <g id="patch_1">
   <path d="M 0 584.399663 
L 872.39952 584.399663 
L 872.39952 0 
L 0 0 
z
" style="fill: #ffffff"/>
  </g>
  <g id="axes_1">
   <g id="patch_2">
    <path d="M 84.765 490.886226 
L 865.19952 490.886226 
L 865.19952 11.38838 
L 84.765 11.38838 
z
" style="fill: #ffffff"/>
   </g>
   <g id="matplotlib.axis_1">
    <g id="xtick_1">
     <g id="line2d_1">
      <path d="M 109.956892 490.886226 
L 109.956892 11.38838 
" clip-path="url(#pdf5d56eaac)" style="fill: none; stroke: #000000; stroke-width: 0.7; stroke-linecap: square"/>
     </g>
     <g id="line2d_2">
      <defs>
       <path id="m6a2e8113a3" d="M 0 0 
L 0 -10 
" style="stroke: #000000; stroke-width: 2"/>
      </defs>
      <g>
       <use xlink:href="#m6a2e8113a3" x="109.956892" y="490.886226" style="stroke: #000000; stroke-width: 2"/>
      </g>
     </g>
     <g id="text_1">
      <!-- 0 -->
      <g transform="translate(102.456892 526.717476) scale(0.3 -0.3)">
       <defs>
        <path id="TimesNewRomanPSMT-30" d="M 231 2094 
Q 231 2819 450 3342 
Q 669 3866 1031 4122 
Q 1313 4325 1613 4325 
Q 2100 4325 2488 3828 
Q 2972 3213 2972 2159 
Q 2972 1422 2759 906 
Q 2547 391 2217 158 
Q 1888 -75 1581 -75 
Q 975 -75 572 641 
Q 231 1244 231 2094 
z
M 844 2016 
Q 844 1141 1059 588 
Q 1238 122 1591 122 
Q 1759 122 1940 273 
Q 2122 425 2216 781 
Q 2359 1319 2359 2297 
Q 2359 3022 2209 3506 
Q 2097 3866 1919 4016 
Q 1791 4119 1609 4119 
Q 1397 4119 1231 3928 
Q 1006 3669 925 3112 
Q 844 2556 844 2016 
z
" transform="scale(0.015625)"/>
       </defs>
       <use xlink:href="#TimesNewRomanPSMT-30"/>
      </g>
     </g>
    </g>
    <g id="xtick_2">
     <g id="line2d_3">
      <path d="M 212.780939 490.886226 
L 212.780939 11.38838 
" clip-path="url(#pdf5d56eaac)" style="fill: none; stroke: #000000; stroke-width: 0.7; stroke-linecap: square"/>
     </g>
     <g id="line2d_4">
      <g>
       <use xlink:href="#m6a2e8113a3" x="212.780939" y="490.886226" style="stroke: #000000; stroke-width: 2"/>
      </g>
     </g>
     <g id="text_2">
      <!-- 10 -->
      <g transform="translate(197.780939 526.717476) scale(0.3 -0.3)">
       <defs>
        <path id="TimesNewRomanPSMT-31" d="M 750 3822 
L 1781 4325 
L 1884 4325 
L 1884 747 
Q 1884 391 1914 303 
Q 1944 216 2037 169 
Q 2131 122 2419 116 
L 2419 0 
L 825 0 
L 825 116 
Q 1125 122 1212 167 
Q 1300 213 1334 289 
Q 1369 366 1369 747 
L 1369 3034 
Q 1369 3497 1338 3628 
Q 1316 3728 1258 3775 
Q 1200 3822 1119 3822 
Q 1003 3822 797 3725 
L 750 3822 
z
" transform="scale(0.015625)"/>
       </defs>
       <use xlink:href="#TimesNewRomanPSMT-31"/>
       <use xlink:href="#TimesNewRomanPSMT-30" x="50"/>
      </g>
     </g>
    </g>
    <g id="xtick_3">
     <g id="line2d_5">
      <path d="M 315.604986 490.886226 
L 315.604986 11.38838 
" clip-path="url(#pdf5d56eaac)" style="fill: none; stroke: #000000; stroke-width: 0.7; stroke-linecap: square"/>
     </g>
     <g id="line2d_6">
      <g>
       <use xlink:href="#m6a2e8113a3" x="315.604986" y="490.886226" style="stroke: #000000; stroke-width: 2"/>
      </g>
     </g>
     <g id="text_3">
      <!-- 20 -->
      <g transform="translate(300.604986 526.717476) scale(0.3 -0.3)">
       <defs>
        <path id="TimesNewRomanPSMT-32" d="M 2934 816 
L 2638 0 
L 138 0 
L 138 116 
Q 1241 1122 1691 1759 
Q 2141 2397 2141 2925 
Q 2141 3328 1894 3587 
Q 1647 3847 1303 3847 
Q 991 3847 742 3664 
Q 494 3481 375 3128 
L 259 3128 
Q 338 3706 661 4015 
Q 984 4325 1469 4325 
Q 1984 4325 2329 3994 
Q 2675 3663 2675 3213 
Q 2675 2891 2525 2569 
Q 2294 2063 1775 1497 
Q 997 647 803 472 
L 1909 472 
Q 2247 472 2383 497 
Q 2519 522 2628 598 
Q 2738 675 2819 816 
L 2934 816 
z
" transform="scale(0.015625)"/>
       </defs>
       <use xlink:href="#TimesNewRomanPSMT-32"/>
       <use xlink:href="#TimesNewRomanPSMT-30" x="50"/>
      </g>
     </g>
    </g>
    <g id="xtick_4">
     <g id="line2d_7">
      <path d="M 418.429034 490.886226 
L 418.429034 11.38838 
" clip-path="url(#pdf5d56eaac)" style="fill: none; stroke: #000000; stroke-width: 0.7; stroke-linecap: square"/>
     </g>
     <g id="line2d_8">
      <g>
       <use xlink:href="#m6a2e8113a3" x="418.429034" y="490.886226" style="stroke: #000000; stroke-width: 2"/>
      </g>
     </g>
     <g id="text_4">
      <!-- 30 -->
      <g transform="translate(403.429034 526.717476) scale(0.3 -0.3)">
       <defs>
        <path id="TimesNewRomanPSMT-33" d="M 325 3431 
Q 506 3859 782 4092 
Q 1059 4325 1472 4325 
Q 1981 4325 2253 3994 
Q 2459 3747 2459 3466 
Q 2459 3003 1878 2509 
Q 2269 2356 2469 2072 
Q 2669 1788 2669 1403 
Q 2669 853 2319 450 
Q 1863 -75 997 -75 
Q 569 -75 414 31 
Q 259 138 259 259 
Q 259 350 332 419 
Q 406 488 509 488 
Q 588 488 669 463 
Q 722 447 909 348 
Q 1097 250 1169 231 
Q 1284 197 1416 197 
Q 1734 197 1970 444 
Q 2206 691 2206 1028 
Q 2206 1275 2097 1509 
Q 2016 1684 1919 1775 
Q 1784 1900 1550 2001 
Q 1316 2103 1072 2103 
L 972 2103 
L 972 2197 
Q 1219 2228 1467 2375 
Q 1716 2522 1828 2728 
Q 1941 2934 1941 3181 
Q 1941 3503 1739 3701 
Q 1538 3900 1238 3900 
Q 753 3900 428 3381 
L 325 3431 
z
" transform="scale(0.015625)"/>
       </defs>
       <use xlink:href="#TimesNewRomanPSMT-33"/>
       <use xlink:href="#TimesNewRomanPSMT-30" x="50"/>
      </g>
     </g>
    </g>
    <g id="xtick_5">
     <g id="line2d_9">
      <path d="M 521.253081 490.886226 
L 521.253081 11.38838 
" clip-path="url(#pdf5d56eaac)" style="fill: none; stroke: #000000; stroke-width: 0.7; stroke-linecap: square"/>
     </g>
     <g id="line2d_10">
      <g>
       <use xlink:href="#m6a2e8113a3" x="521.253081" y="490.886226" style="stroke: #000000; stroke-width: 2"/>
      </g>
     </g>
     <g id="text_5">
      <!-- 40 -->
      <g transform="translate(506.253081 526.717476) scale(0.3 -0.3)">
       <defs>
        <path id="TimesNewRomanPSMT-34" d="M 2978 1563 
L 2978 1119 
L 2409 1119 
L 2409 0 
L 1894 0 
L 1894 1119 
L 100 1119 
L 100 1519 
L 2066 4325 
L 2409 4325 
L 2409 1563 
L 2978 1563 
z
M 1894 1563 
L 1894 3666 
L 406 1563 
L 1894 1563 
z
" transform="scale(0.015625)"/>
       </defs>
       <use xlink:href="#TimesNewRomanPSMT-34"/>
       <use xlink:href="#TimesNewRomanPSMT-30" x="50"/>
      </g>
     </g>
    </g>
    <g id="xtick_6">
     <g id="line2d_11">
      <path d="M 624.077129 490.886226 
L 624.077129 11.38838 
" clip-path="url(#pdf5d56eaac)" style="fill: none; stroke: #000000; stroke-width: 0.7; stroke-linecap: square"/>
     </g>
     <g id="line2d_12">
      <g>
       <use xlink:href="#m6a2e8113a3" x="624.077129" y="490.886226" style="stroke: #000000; stroke-width: 2"/>
      </g>
     </g>
     <g id="text_6">
      <!-- 50 -->
      <g transform="translate(609.077129 526.717476) scale(0.3 -0.3)">
       <defs>
        <path id="TimesNewRomanPSMT-35" d="M 2778 4238 
L 2534 3706 
L 1259 3706 
L 981 3138 
Q 1809 3016 2294 2522 
Q 2709 2097 2709 1522 
Q 2709 1188 2573 903 
Q 2438 619 2231 419 
Q 2025 219 1772 97 
Q 1413 -75 1034 -75 
Q 653 -75 479 54 
Q 306 184 306 341 
Q 306 428 378 495 
Q 450 563 559 563 
Q 641 563 702 538 
Q 763 513 909 409 
Q 1144 247 1384 247 
Q 1750 247 2026 523 
Q 2303 800 2303 1197 
Q 2303 1581 2056 1914 
Q 1809 2247 1375 2428 
Q 1034 2569 447 2591 
L 1259 4238 
L 2778 4238 
z
" transform="scale(0.015625)"/>
       </defs>
       <use xlink:href="#TimesNewRomanPSMT-35"/>
       <use xlink:href="#TimesNewRomanPSMT-30" x="50"/>
      </g>
     </g>
    </g>
    <g id="xtick_7">
     <g id="line2d_13">
      <path d="M 726.901176 490.886226 
L 726.901176 11.38838 
" clip-path="url(#pdf5d56eaac)" style="fill: none; stroke: #000000; stroke-width: 0.7; stroke-linecap: square"/>
     </g>
     <g id="line2d_14">
      <g>
       <use xlink:href="#m6a2e8113a3" x="726.901176" y="490.886226" style="stroke: #000000; stroke-width: 2"/>
      </g>
     </g>
     <g id="text_7">
      <!-- 60 -->
      <g transform="translate(711.901176 526.717476) scale(0.3 -0.3)">
       <defs>
        <path id="TimesNewRomanPSMT-36" d="M 2869 4325 
L 2869 4209 
Q 2456 4169 2195 4045 
Q 1934 3922 1679 3669 
Q 1425 3416 1258 3105 
Q 1091 2794 978 2366 
Q 1428 2675 1881 2675 
Q 2316 2675 2634 2325 
Q 2953 1975 2953 1425 
Q 2953 894 2631 456 
Q 2244 -75 1606 -75 
Q 1172 -75 869 213 
Q 275 772 275 1663 
Q 275 2231 503 2743 
Q 731 3256 1154 3653 
Q 1578 4050 1965 4187 
Q 2353 4325 2688 4325 
L 2869 4325 
z
M 925 2138 
Q 869 1716 869 1456 
Q 869 1156 980 804 
Q 1091 453 1309 247 
Q 1469 100 1697 100 
Q 1969 100 2183 356 
Q 2397 613 2397 1088 
Q 2397 1622 2184 2012 
Q 1972 2403 1581 2403 
Q 1463 2403 1327 2353 
Q 1191 2303 925 2138 
z
" transform="scale(0.015625)"/>
       </defs>
       <use xlink:href="#TimesNewRomanPSMT-36"/>
       <use xlink:href="#TimesNewRomanPSMT-30" x="50"/>
      </g>
     </g>
    </g>
    <g id="xtick_8">
     <g id="line2d_15">
      <path d="M 829.725224 490.886226 
L 829.725224 11.38838 
" clip-path="url(#pdf5d56eaac)" style="fill: none; stroke: #000000; stroke-width: 0.7; stroke-linecap: square"/>
     </g>
     <g id="line2d_16">
      <g>
       <use xlink:href="#m6a2e8113a3" x="829.725224" y="490.886226" style="stroke: #000000; stroke-width: 2"/>
      </g>
     </g>
     <g id="text_8">
      <!-- 70 -->
      <g transform="translate(814.725224 526.717476) scale(0.3 -0.3)">
       <defs>
        <path id="TimesNewRomanPSMT-37" d="M 644 4238 
L 2916 4238 
L 2916 4119 
L 1503 -88 
L 1153 -88 
L 2419 3728 
L 1253 3728 
Q 900 3728 750 3644 
Q 488 3500 328 3200 
L 238 3234 
L 644 4238 
z
" transform="scale(0.015625)"/>
       </defs>
       <use xlink:href="#TimesNewRomanPSMT-37"/>
       <use xlink:href="#TimesNewRomanPSMT-30" x="50"/>
      </g>
     </g>
    </g>
    <g id="text_9">
     <!-- Количество соседей -->
     <g transform="translate(338.18976 570.354663) scale(0.32 -0.32)">
      <defs>
       <path id="TimesNewRomanPSMT-41a" d="M 4247 116 
L 4247 0 
L 3153 0 
Q 2975 284 2403 1073 
Q 1831 1863 1706 1948 
Q 1581 2034 1328 2038 
L 1328 772 
Q 1328 353 1436 240 
Q 1544 128 1941 116 
L 1941 0 
L 116 0 
L 116 116 
Q 506 128 617 239 
Q 728 350 728 772 
L 728 3466 
Q 728 3884 618 3996 
Q 509 4109 116 4122 
L 116 4238 
L 1941 4238 
L 1941 4122 
Q 1544 4109 1436 3996 
Q 1328 3884 1328 3466 
L 1328 2284 
Q 1669 2288 1800 2330 
Q 1931 2372 2095 2522 
Q 2259 2672 2354 2845 
Q 2450 3019 2600 3416 
Q 2741 3788 2830 3933 
Q 2919 4078 3116 4183 
Q 3313 4288 3584 4288 
Q 4066 4288 4066 3950 
Q 4066 3831 3970 3743 
Q 3875 3656 3753 3656 
Q 3666 3656 3459 3756 
Q 3278 3847 3206 3847 
Q 3106 3847 3034 3742 
Q 2963 3638 2806 3209 
Q 2506 2409 2041 2194 
Q 2325 2144 2828 1416 
Q 3363 644 3613 384 
Q 3863 125 4247 116 
z
" transform="scale(0.015625)"/>
       <path id="TimesNewRomanPSMT-43e" d="M 1600 2947 
Q 2250 2947 2644 2453 
Q 2978 2031 2978 1484 
Q 2978 1100 2793 706 
Q 2609 313 2286 112 
Q 1963 -88 1566 -88 
Q 919 -88 538 428 
Q 216 863 216 1403 
Q 216 1797 411 2186 
Q 606 2575 925 2761 
Q 1244 2947 1600 2947 
z
M 1503 2744 
Q 1338 2744 1170 2645 
Q 1003 2547 900 2300 
Q 797 2053 797 1666 
Q 797 1041 1045 587 
Q 1294 134 1700 134 
Q 2003 134 2200 384 
Q 2397 634 2397 1244 
Q 2397 2006 2069 2444 
Q 1847 2744 1503 2744 
z
" transform="scale(0.015625)"/>
       <path id="TimesNewRomanPSMT-43b" d="M 494 2863 
L 3053 2863 
L 3053 2744 
Q 2841 2744 2770 2701 
Q 2700 2659 2659 2596 
Q 2619 2534 2619 2191 
L 2619 672 
Q 2619 341 2653 277 
Q 2688 213 2761 164 
Q 2834 116 3053 116 
L 3053 0 
L 1572 0 
L 1572 116 
Q 1813 116 1905 141 
Q 1997 166 2050 261 
Q 2103 356 2103 672 
L 2103 2659 
L 1150 2659 
L 1150 1453 
Q 1150 769 1089 492 
Q 1028 216 848 83 
Q 669 -50 438 -50 
Q 38 -50 38 281 
Q 38 394 102 466 
Q 166 538 269 538 
Q 378 538 472 447 
Q 594 328 656 328 
Q 797 328 861 564 
Q 925 800 925 1391 
L 925 2022 
Q 925 2509 854 2615 
Q 784 2722 494 2744 
L 494 2863 
z
" transform="scale(0.015625)"/>
       <path id="TimesNewRomanPSMT-438" d="M 1094 881 
L 2331 2313 
Q 2325 2553 2240 2647 
Q 2156 2741 1950 2744 
L 1950 2863 
L 3281 2863 
L 3281 2744 
Q 3072 2744 3000 2701 
Q 2928 2659 2887 2596 
Q 2847 2534 2847 2191 
L 2847 672 
Q 2847 341 2881 277 
Q 2916 213 2989 164 
Q 3063 116 3281 116 
L 3281 0 
L 1897 0 
L 1897 116 
Q 2156 116 2243 211 
Q 2331 306 2331 672 
L 2331 2019 
L 1094 584 
Q 1100 319 1169 219 
Q 1238 119 1466 116 
L 1466 0 
L 144 0 
L 144 116 
Q 422 116 500 217 
Q 578 319 578 672 
L 578 2191 
Q 578 2525 543 2586 
Q 509 2647 437 2695 
Q 366 2744 144 2744 
L 144 2863 
L 1528 2863 
L 1528 2744 
Q 1319 2744 1247 2701 
Q 1175 2659 1134 2596 
Q 1094 2534 1094 2191 
L 1094 881 
z
" transform="scale(0.015625)"/>
       <path id="TimesNewRomanPSMT-447" d="M 2125 1578 
L 2125 2191 
Q 2125 2488 2095 2573 
Q 2066 2659 1973 2701 
Q 1881 2744 1694 2744 
L 1694 2863 
L 3078 2863 
L 3078 2744 
Q 2866 2744 2795 2701 
Q 2725 2659 2684 2596 
Q 2644 2534 2644 2191 
L 2644 672 
Q 2644 375 2673 289 
Q 2703 203 2795 159 
Q 2888 116 3078 116 
L 3078 0 
L 1625 0 
L 1625 116 
Q 1875 125 1951 148 
Q 2028 172 2076 269 
Q 2125 366 2125 672 
L 2125 1372 
Q 1666 1138 1156 1138 
Q 878 1138 725 1208 
Q 572 1278 531 1370 
Q 491 1463 491 1669 
L 491 2191 
Q 491 2469 466 2556 
Q 441 2644 353 2694 
Q 266 2744 94 2744 
L 94 2863 
L 1441 2863 
L 1441 2744 
Q 1231 2744 1159 2701 
Q 1088 2659 1047 2596 
Q 1006 2534 1006 2191 
L 1006 1838 
Q 1006 1631 1036 1559 
Q 1066 1488 1173 1439 
Q 1281 1391 1478 1391 
Q 1819 1391 2125 1578 
z
" transform="scale(0.015625)"/>
       <path id="TimesNewRomanPSMT-435" d="M 681 1784 
Q 678 1147 991 784 
Q 1303 422 1725 422 
Q 2006 422 2214 576 
Q 2422 731 2563 1106 
L 2659 1044 
Q 2594 616 2278 264 
Q 1963 -88 1488 -88 
Q 972 -88 605 314 
Q 238 716 238 1394 
Q 238 2128 614 2539 
Q 991 2950 1559 2950 
Q 2041 2950 2350 2633 
Q 2659 2316 2659 1784 
L 681 1784 
z
M 681 1966 
L 2006 1966 
Q 1991 2241 1941 2353 
Q 1863 2528 1708 2628 
Q 1553 2728 1384 2728 
Q 1125 2728 920 2526 
Q 716 2325 681 1966 
z
" transform="scale(0.015625)"/>
       <path id="TimesNewRomanPSMT-441" d="M 2631 1088 
Q 2516 522 2178 217 
Q 1841 -88 1431 -88 
Q 944 -88 581 321 
Q 219 731 219 1428 
Q 219 2103 620 2525 
Q 1022 2947 1584 2947 
Q 2006 2947 2278 2723 
Q 2550 2500 2550 2259 
Q 2550 2141 2473 2067 
Q 2397 1994 2259 1994 
Q 2075 1994 1981 2113 
Q 1928 2178 1911 2362 
Q 1894 2547 1784 2644 
Q 1675 2738 1481 2738 
Q 1169 2738 978 2506 
Q 725 2200 725 1697 
Q 725 1184 976 792 
Q 1228 400 1656 400 
Q 1963 400 2206 609 
Q 2378 753 2541 1131 
L 2631 1088 
z
" transform="scale(0.015625)"/>
       <path id="TimesNewRomanPSMT-442" d="M 156 2863 
L 2631 2863 
L 2756 2088 
L 2616 2088 
Q 2578 2322 2490 2450 
Q 2403 2578 2290 2618 
Q 2178 2659 1906 2659 
L 1656 2659 
L 1656 672 
Q 1656 353 1695 267 
Q 1734 181 1821 153 
Q 1909 125 2222 116 
L 2222 0 
L 666 0 
L 666 116 
Q 966 122 1052 212 
Q 1138 303 1138 672 
L 1138 2659 
L 881 2659 
Q 613 2659 516 2626 
Q 419 2594 330 2470 
Q 241 2347 178 2088 
L 38 2088 
L 156 2863 
z
" transform="scale(0.015625)"/>
       <path id="TimesNewRomanPSMT-432" d="M 2016 1513 
Q 2800 1350 2800 778 
Q 2800 388 2473 194 
Q 2147 0 1563 0 
L 150 0 
L 150 116 
Q 428 116 501 220 
Q 575 325 575 672 
L 575 2191 
Q 575 2528 542 2587 
Q 509 2647 439 2695 
Q 369 2744 150 2744 
L 150 2863 
L 1469 2863 
Q 1850 2863 2086 2803 
Q 2322 2744 2473 2569 
Q 2625 2394 2625 2144 
Q 2625 1656 2016 1513 
z
M 1094 1584 
Q 1231 1581 1259 1581 
Q 1688 1581 1878 1745 
Q 2069 1909 2069 2144 
Q 2069 2416 1875 2537 
Q 1681 2659 1256 2659 
L 1094 2659 
L 1094 1584 
z
M 1094 253 
Q 1250 203 1466 203 
Q 1838 203 2019 365 
Q 2200 528 2200 784 
Q 2200 1072 1965 1225 
Q 1731 1378 1316 1378 
Q 1213 1378 1094 1372 
L 1094 253 
z
" transform="scale(0.015625)"/>
       <path id="TimesNewRomanPSMT-20" transform="scale(0.015625)"/>
       <path id="TimesNewRomanPSMT-434" d="M 591 2863 
L 3116 2863 
L 3116 2744 
Q 2903 2744 2833 2701 
Q 2763 2659 2722 2596 
Q 2681 2534 2681 2191 
L 2681 775 
Q 2681 328 2757 226 
Q 2834 125 3116 116 
L 3116 -794 
L 2997 -794 
Q 2984 -538 2870 -347 
Q 2756 -156 2553 -78 
Q 2350 0 1953 0 
L 1216 0 
Q 872 0 678 -61 
Q 484 -122 354 -315 
Q 225 -509 197 -794 
L 81 -794 
L 81 116 
Q 338 125 547 319 
Q 756 513 915 1078 
Q 1075 1644 1075 2191 
Q 1075 2728 591 2744 
L 591 2863 
z
M 1281 2659 
L 1281 2488 
Q 1281 953 725 203 
L 1788 203 
Q 2075 203 2119 251 
Q 2163 300 2163 609 
L 2163 2659 
L 1281 2659 
z
" transform="scale(0.015625)"/>
       <path id="TimesNewRomanPSMT-439" d="M 688 4009 
Q 688 4119 748 4186 
Q 809 4253 903 4253 
Q 1109 4253 1269 3866 
Q 1359 3647 1476 3592 
Q 1594 3538 1706 3538 
Q 1903 3538 2003 3622 
Q 2103 3706 2191 3925 
Q 2322 4250 2513 4250 
Q 2606 4250 2672 4183 
Q 2738 4116 2738 4016 
Q 2738 3775 2422 3569 
Q 2106 3363 1713 3363 
Q 1197 3363 942 3550 
Q 688 3738 688 4009 
z
M 1094 881 
L 2331 2313 
Q 2325 2553 2240 2647 
Q 2156 2741 1950 2744 
L 1950 2863 
L 3281 2863 
L 3281 2744 
Q 3072 2744 3000 2701 
Q 2928 2659 2887 2596 
Q 2847 2534 2847 2191 
L 2847 672 
Q 2847 341 2881 277 
Q 2916 213 2989 164 
Q 3063 116 3281 116 
L 3281 0 
L 1897 0 
L 1897 116 
Q 2156 116 2243 211 
Q 2331 306 2331 672 
L 2331 2019 
L 1094 584 
Q 1100 319 1169 219 
Q 1238 119 1466 116 
L 1466 0 
L 144 0 
L 144 116 
Q 422 116 500 217 
Q 578 319 578 672 
L 578 2191 
Q 578 2525 543 2586 
Q 509 2647 437 2695 
Q 366 2744 144 2744 
L 144 2863 
L 1528 2863 
L 1528 2744 
Q 1319 2744 1247 2701 
Q 1175 2659 1134 2596 
Q 1094 2534 1094 2191 
L 1094 881 
z
" transform="scale(0.015625)"/>
      </defs>
      <use xlink:href="#TimesNewRomanPSMT-41a"/>
      <use xlink:href="#TimesNewRomanPSMT-43e" x="61.699219"/>
      <use xlink:href="#TimesNewRomanPSMT-43b" x="110.324219"/>
      <use xlink:href="#TimesNewRomanPSMT-438" x="160.226562"/>
      <use xlink:href="#TimesNewRomanPSMT-447" x="213.742188"/>
      <use xlink:href="#TimesNewRomanPSMT-435" x="264.035156"/>
      <use xlink:href="#TimesNewRomanPSMT-441" x="310.919922"/>
      <use xlink:href="#TimesNewRomanPSMT-442" x="355.304688"/>
      <use xlink:href="#TimesNewRomanPSMT-432" x="399.005859"/>
      <use xlink:href="#TimesNewRomanPSMT-43e" x="445.597656"/>
      <use xlink:href="#TimesNewRomanPSMT-20" x="495.597656"/>
      <use xlink:href="#TimesNewRomanPSMT-441" x="520.597656"/>
      <use xlink:href="#TimesNewRomanPSMT-43e" x="564.982422"/>
      <use xlink:href="#TimesNewRomanPSMT-441" x="617.482422"/>
      <use xlink:href="#TimesNewRomanPSMT-435" x="663.117188"/>
      <use xlink:href="#TimesNewRomanPSMT-434" x="706.126953"/>
      <use xlink:href="#TimesNewRomanPSMT-435" x="757.005859"/>
      <use xlink:href="#TimesNewRomanPSMT-439" x="801.390625"/>
     </g>
    </g>
   </g>
   <g id="matplotlib.axis_2">
    <g id="ytick_1">
     <g id="line2d_17">
      <path d="M 84.765 484.658981 
L 865.19952 484.658981 
" clip-path="url(#pdf5d56eaac)" style="fill: none; stroke: #000000; stroke-width: 0.7; stroke-linecap: square"/>
     </g>
     <g id="line2d_18">
      <defs>
       <path id="m210f828fb3" d="M 0 0 
L 10 0 
" style="stroke: #000000; stroke-width: 2"/>
      </defs>
      <g>
       <use xlink:href="#m210f828fb3" x="84.765" y="484.658981" style="stroke: #000000; stroke-width: 2"/>
      </g>
     </g>
     <g id="text_10">
      <!-- 0 -->
      <g transform="translate(66.265 495.074606) scale(0.3 -0.3)">
       <use xlink:href="#TimesNewRomanPSMT-30"/>
      </g>
     </g>
    </g>
    <g id="ytick_2">
     <g id="line2d_19">
      <path d="M 84.765 406.818422 
L 865.19952 406.818422 
" clip-path="url(#pdf5d56eaac)" style="fill: none; stroke: #000000; stroke-width: 0.7; stroke-linecap: square"/>
     </g>
     <g id="line2d_20">
      <g>
       <use xlink:href="#m210f828fb3" x="84.765" y="406.818422" style="stroke: #000000; stroke-width: 2"/>
      </g>
     </g>
     <g id="text_11">
      <!-- 10 -->
      <g transform="translate(51.265 417.234047) scale(0.3 -0.3)">
       <use xlink:href="#TimesNewRomanPSMT-31"/>
       <use xlink:href="#TimesNewRomanPSMT-30" x="50"/>
      </g>
     </g>
    </g>
    <g id="ytick_3">
     <g id="line2d_21">
      <path d="M 84.765 328.977862 
L 865.19952 328.977862 
" clip-path="url(#pdf5d56eaac)" style="fill: none; stroke: #000000; stroke-width: 0.7; stroke-linecap: square"/>
     </g>
     <g id="line2d_22">
      <g>
       <use xlink:href="#m210f828fb3" x="84.765" y="328.977862" style="stroke: #000000; stroke-width: 2"/>
      </g>
     </g>
     <g id="text_12">
      <!-- 20 -->
      <g transform="translate(51.265 339.393487) scale(0.3 -0.3)">
       <use xlink:href="#TimesNewRomanPSMT-32"/>
       <use xlink:href="#TimesNewRomanPSMT-30" x="50"/>
      </g>
     </g>
    </g>
    <g id="ytick_4">
     <g id="line2d_23">
      <path d="M 84.765 251.137303 
L 865.19952 251.137303 
" clip-path="url(#pdf5d56eaac)" style="fill: none; stroke: #000000; stroke-width: 0.7; stroke-linecap: square"/>
     </g>
     <g id="line2d_24">
      <g>
       <use xlink:href="#m210f828fb3" x="84.765" y="251.137303" style="stroke: #000000; stroke-width: 2"/>
      </g>
     </g>
     <g id="text_13">
      <!-- 30 -->
      <g transform="translate(51.265 261.552928) scale(0.3 -0.3)">
       <use xlink:href="#TimesNewRomanPSMT-33"/>
       <use xlink:href="#TimesNewRomanPSMT-30" x="50"/>
      </g>
     </g>
    </g>
    <g id="ytick_5">
     <g id="line2d_25">
      <path d="M 84.765 173.296744 
L 865.19952 173.296744 
" clip-path="url(#pdf5d56eaac)" style="fill: none; stroke: #000000; stroke-width: 0.7; stroke-linecap: square"/>
     </g>
     <g id="line2d_26">
      <g>
       <use xlink:href="#m210f828fb3" x="84.765" y="173.296744" style="stroke: #000000; stroke-width: 2"/>
      </g>
     </g>
     <g id="text_14">
      <!-- 40 -->
      <g transform="translate(51.265 183.712369) scale(0.3 -0.3)">
       <use xlink:href="#TimesNewRomanPSMT-34"/>
       <use xlink:href="#TimesNewRomanPSMT-30" x="50"/>
      </g>
     </g>
    </g>
    <g id="ytick_6">
     <g id="line2d_27">
      <path d="M 84.765 95.456184 
L 865.19952 95.456184 
" clip-path="url(#pdf5d56eaac)" style="fill: none; stroke: #000000; stroke-width: 0.7; stroke-linecap: square"/>
     </g>
     <g id="line2d_28">
      <g>
       <use xlink:href="#m210f828fb3" x="84.765" y="95.456184" style="stroke: #000000; stroke-width: 2"/>
      </g>
     </g>
     <g id="text_15">
      <!-- 50 -->
      <g transform="translate(51.265 105.871809) scale(0.3 -0.3)">
       <use xlink:href="#TimesNewRomanPSMT-35"/>
       <use xlink:href="#TimesNewRomanPSMT-30" x="50"/>
      </g>
     </g>
    </g>
    <g id="ytick_7">
     <g id="line2d_29">
      <path d="M 84.765 17.615625 
L 865.19952 17.615625 
" clip-path="url(#pdf5d56eaac)" style="fill: none; stroke: #000000; stroke-width: 0.7; stroke-linecap: square"/>
     </g>
     <g id="line2d_30">
      <g>
       <use xlink:href="#m210f828fb3" x="84.765" y="17.615625" style="stroke: #000000; stroke-width: 2"/>
      </g>
     </g>
     <g id="text_16">
      <!-- 60 -->
      <g transform="translate(51.265 28.03125) scale(0.3 -0.3)">
       <use xlink:href="#TimesNewRomanPSMT-36"/>
       <use xlink:href="#TimesNewRomanPSMT-30" x="50"/>
      </g>
     </g>
    </g>
    <g id="text_17">
     <!-- Количество кластеров -->
     <g transform="translate(29.42 402.049803) rotate(-90) scale(0.32 -0.32)">
      <defs>
       <path id="TimesNewRomanPSMT-43a" d="M 3072 0 
L 2228 0 
Q 1834 572 1516 1172 
Q 1441 1309 1380 1376 
Q 1319 1444 1213 1444 
Q 1175 1444 1094 1438 
L 1094 672 
Q 1094 363 1130 277 
Q 1166 191 1259 153 
Q 1353 116 1575 116 
L 1575 0 
L 144 0 
L 144 116 
Q 422 116 500 217 
Q 578 319 578 672 
L 578 2191 
Q 578 2525 543 2586 
Q 509 2647 437 2695 
Q 366 2744 144 2744 
L 144 2863 
L 1575 2863 
L 1575 2744 
Q 1316 2744 1255 2706 
Q 1194 2669 1144 2614 
Q 1094 2559 1094 2191 
L 1094 1628 
Q 1166 1622 1191 1622 
Q 1381 1622 1548 1730 
Q 1716 1838 1847 2188 
Q 1969 2519 2048 2634 
Q 2128 2750 2270 2823 
Q 2413 2897 2569 2897 
Q 2738 2897 2838 2815 
Q 2938 2734 2938 2603 
Q 2938 2494 2866 2417 
Q 2794 2341 2666 2341 
Q 2597 2341 2494 2378 
Q 2363 2425 2294 2425 
Q 2150 2425 2056 2178 
Q 1950 1894 1900 1811 
Q 1850 1728 1709 1591 
Q 1806 1563 1920 1447 
Q 2034 1331 2344 788 
Q 2591 353 2714 237 
Q 2838 122 3072 116 
L 3072 0 
z
" transform="scale(0.015625)"/>
       <path id="TimesNewRomanPSMT-430" d="M 1822 413 
Q 1381 72 1269 19 
Q 1100 -59 909 -59 
Q 613 -59 420 144 
Q 228 347 228 678 
Q 228 888 322 1041 
Q 450 1253 767 1440 
Q 1084 1628 1822 1897 
L 1822 2009 
Q 1822 2438 1686 2597 
Q 1550 2756 1291 2756 
Q 1094 2756 978 2650 
Q 859 2544 859 2406 
L 866 2225 
Q 866 2081 792 2003 
Q 719 1925 600 1925 
Q 484 1925 411 2006 
Q 338 2088 338 2228 
Q 338 2497 613 2722 
Q 888 2947 1384 2947 
Q 1766 2947 2009 2819 
Q 2194 2722 2281 2516 
Q 2338 2381 2338 1966 
L 2338 994 
Q 2338 584 2353 492 
Q 2369 400 2405 369 
Q 2441 338 2488 338 
Q 2538 338 2575 359 
Q 2641 400 2828 588 
L 2828 413 
Q 2478 -56 2159 -56 
Q 2006 -56 1915 50 
Q 1825 156 1822 413 
z
M 1822 616 
L 1822 1706 
Q 1350 1519 1213 1441 
Q 966 1303 859 1153 
Q 753 1003 753 825 
Q 753 600 887 451 
Q 1022 303 1197 303 
Q 1434 303 1822 616 
z
" transform="scale(0.015625)"/>
       <path id="TimesNewRomanPSMT-440" d="M -6 2578 
L 875 2934 
L 994 2934 
L 994 2266 
Q 1216 2644 1439 2795 
Q 1663 2947 1909 2947 
Q 2341 2947 2628 2609 
Q 2981 2197 2981 1534 
Q 2981 794 2556 309 
Q 2206 -88 1675 -88 
Q 1444 -88 1275 -22 
Q 1150 25 994 166 
L 994 -706 
Q 994 -1000 1030 -1079 
Q 1066 -1159 1155 -1206 
Q 1244 -1253 1478 -1253 
L 1478 -1369 
L -22 -1369 
L -22 -1253 
L 56 -1253 
Q 228 -1256 350 -1188 
Q 409 -1153 442 -1076 
Q 475 -1000 475 -688 
L 475 2019 
Q 475 2297 450 2372 
Q 425 2447 370 2484 
Q 316 2522 222 2522 
Q 147 2522 31 2478 
L -6 2578 
z
M 994 2081 
L 994 1013 
Q 994 666 1022 556 
Q 1066 375 1236 237 
Q 1406 100 1666 100 
Q 1978 100 2172 344 
Q 2425 663 2425 1241 
Q 2425 1897 2138 2250 
Q 1938 2494 1663 2494 
Q 1513 2494 1366 2419 
Q 1253 2363 994 2081 
z
" transform="scale(0.015625)"/>
      </defs>
      <use xlink:href="#TimesNewRomanPSMT-41a"/>
      <use xlink:href="#TimesNewRomanPSMT-43e" x="61.699219"/>
      <use xlink:href="#TimesNewRomanPSMT-43b" x="110.324219"/>
      <use xlink:href="#TimesNewRomanPSMT-438" x="160.226562"/>
      <use xlink:href="#TimesNewRomanPSMT-447" x="213.742188"/>
      <use xlink:href="#TimesNewRomanPSMT-435" x="264.035156"/>
      <use xlink:href="#TimesNewRomanPSMT-441" x="310.919922"/>
      <use xlink:href="#TimesNewRomanPSMT-442" x="355.304688"/>
      <use xlink:href="#TimesNewRomanPSMT-432" x="399.005859"/>
      <use xlink:href="#TimesNewRomanPSMT-43e" x="445.597656"/>
      <use xlink:href="#TimesNewRomanPSMT-20" x="495.597656"/>
      <use xlink:href="#TimesNewRomanPSMT-43a" x="520.597656"/>
      <use xlink:href="#TimesNewRomanPSMT-43b" x="569.181641"/>
      <use xlink:href="#TimesNewRomanPSMT-430" x="619.083984"/>
      <use xlink:href="#TimesNewRomanPSMT-441" x="663.46875"/>
      <use xlink:href="#TimesNewRomanPSMT-442" x="707.853516"/>
      <use xlink:href="#TimesNewRomanPSMT-435" x="751.554688"/>
      <use xlink:href="#TimesNewRomanPSMT-440" x="795.939453"/>
      <use xlink:href="#TimesNewRomanPSMT-43e" x="845.939453"/>
      <use xlink:href="#TimesNewRomanPSMT-432" x="895.939453"/>
     </g>
    </g>
   </g>
   <g id="line2d_31">
    <defs>
     <path id="mf86063ee23" d="M 0 5 
C 1.326016 5 2.597899 4.473168 3.535534 3.535534 
C 4.473168 2.597899 5 1.326016 5 0 
C 5 -1.326016 4.473168 -2.597899 3.535534 -3.535534 
C 2.597899 -4.473168 1.326016 -5 0 -5 
C -1.326016 -5 -2.597899 -4.473168 -3.535534 -3.535534 
C -4.473168 -2.597899 -5 -1.326016 -5 0 
C -5 1.326016 -4.473168 2.597899 -3.535534 3.535534 
C -2.597899 4.473168 -1.326016 5 0 5 
z
" style="stroke: #ff0000"/>
    </defs>
    <g clip-path="url(#pdf5d56eaac)">
     <use xlink:href="#mf86063ee23" x="120.239296" y="33.183737" style="fill: #ff0000; stroke: #ff0000"/>
     <use xlink:href="#mf86063ee23" x="130.521701" y="204.432967" style="fill: #ff0000; stroke: #ff0000"/>
     <use xlink:href="#mf86063ee23" x="140.804106" y="297.841639" style="fill: #ff0000; stroke: #ff0000"/>
     <use xlink:href="#mf86063ee23" x="151.086511" y="360.114086" style="fill: #ff0000; stroke: #ff0000"/>
     <use xlink:href="#mf86063ee23" x="161.368915" y="313.40975" style="fill: #ff0000; stroke: #ff0000"/>
     <use xlink:href="#mf86063ee23" x="171.65132" y="375.682198" style="fill: #ff0000; stroke: #ff0000"/>
     <use xlink:href="#mf86063ee23" x="181.933725" y="360.114086" style="fill: #ff0000; stroke: #ff0000"/>
     <use xlink:href="#mf86063ee23" x="192.21613" y="360.114086" style="fill: #ff0000; stroke: #ff0000"/>
     <use xlink:href="#mf86063ee23" x="202.498534" y="391.25031" style="fill: #ff0000; stroke: #ff0000"/>
     <use xlink:href="#mf86063ee23" x="212.780939" y="422.386533" style="fill: #ff0000; stroke: #ff0000"/>
     <use xlink:href="#mf86063ee23" x="223.063344" y="406.818422" style="fill: #ff0000; stroke: #ff0000"/>
     <use xlink:href="#mf86063ee23" x="233.345749" y="406.818422" style="fill: #ff0000; stroke: #ff0000"/>
     <use xlink:href="#mf86063ee23" x="243.628153" y="406.818422" style="fill: #ff0000; stroke: #ff0000"/>
     <use xlink:href="#mf86063ee23" x="253.910558" y="375.682198" style="fill: #ff0000; stroke: #ff0000"/>
     <use xlink:href="#mf86063ee23" x="264.192963" y="391.25031" style="fill: #ff0000; stroke: #ff0000"/>
     <use xlink:href="#mf86063ee23" x="274.475368" y="437.954645" style="fill: #ff0000; stroke: #ff0000"/>
     <use xlink:href="#mf86063ee23" x="284.757772" y="375.682198" style="fill: #ff0000; stroke: #ff0000"/>
     <use xlink:href="#mf86063ee23" x="295.040177" y="391.25031" style="fill: #ff0000; stroke: #ff0000"/>
     <use xlink:href="#mf86063ee23" x="305.322582" y="406.818422" style="fill: #ff0000; stroke: #ff0000"/>
     <use xlink:href="#mf86063ee23" x="315.604986" y="406.818422" style="fill: #ff0000; stroke: #ff0000"/>
     <use xlink:href="#mf86063ee23" x="325.887391" y="406.818422" style="fill: #ff0000; stroke: #ff0000"/>
     <use xlink:href="#mf86063ee23" x="336.169796" y="437.954645" style="fill: #ff0000; stroke: #ff0000"/>
     <use xlink:href="#mf86063ee23" x="346.452201" y="422.386533" style="fill: #ff0000; stroke: #ff0000"/>
     <use xlink:href="#mf86063ee23" x="356.734605" y="406.818422" style="fill: #ff0000; stroke: #ff0000"/>
     <use xlink:href="#mf86063ee23" x="367.01701" y="422.386533" style="fill: #ff0000; stroke: #ff0000"/>
     <use xlink:href="#mf86063ee23" x="377.299415" y="437.954645" style="fill: #ff0000; stroke: #ff0000"/>
     <use xlink:href="#mf86063ee23" x="387.58182" y="437.954645" style="fill: #ff0000; stroke: #ff0000"/>
     <use xlink:href="#mf86063ee23" x="397.864224" y="437.954645" style="fill: #ff0000; stroke: #ff0000"/>
     <use xlink:href="#mf86063ee23" x="408.146629" y="437.954645" style="fill: #ff0000; stroke: #ff0000"/>
     <use xlink:href="#mf86063ee23" x="418.429034" y="437.954645" style="fill: #ff0000; stroke: #ff0000"/>
     <use xlink:href="#mf86063ee23" x="428.711439" y="437.954645" style="fill: #ff0000; stroke: #ff0000"/>
     <use xlink:href="#mf86063ee23" x="438.993843" y="437.954645" style="fill: #ff0000; stroke: #ff0000"/>
     <use xlink:href="#mf86063ee23" x="449.276248" y="437.954645" style="fill: #ff0000; stroke: #ff0000"/>
     <use xlink:href="#mf86063ee23" x="459.558653" y="453.522757" style="fill: #ff0000; stroke: #ff0000"/>
     <use xlink:href="#mf86063ee23" x="469.841058" y="437.954645" style="fill: #ff0000; stroke: #ff0000"/>
     <use xlink:href="#mf86063ee23" x="480.123462" y="437.954645" style="fill: #ff0000; stroke: #ff0000"/>
     <use xlink:href="#mf86063ee23" x="490.405867" y="453.522757" style="fill: #ff0000; stroke: #ff0000"/>
     <use xlink:href="#mf86063ee23" x="500.688272" y="453.522757" style="fill: #ff0000; stroke: #ff0000"/>
     <use xlink:href="#mf86063ee23" x="510.970677" y="469.090869" style="fill: #ff0000; stroke: #ff0000"/>
     <use xlink:href="#mf86063ee23" x="521.253081" y="453.522757" style="fill: #ff0000; stroke: #ff0000"/>
     <use xlink:href="#mf86063ee23" x="531.535486" y="469.090869" style="fill: #ff0000; stroke: #ff0000"/>
     <use xlink:href="#mf86063ee23" x="541.817891" y="469.090869" style="fill: #ff0000; stroke: #ff0000"/>
     <use xlink:href="#mf86063ee23" x="552.100296" y="469.090869" style="fill: #ff0000; stroke: #ff0000"/>
     <use xlink:href="#mf86063ee23" x="562.3827" y="469.090869" style="fill: #ff0000; stroke: #ff0000"/>
     <use xlink:href="#mf86063ee23" x="572.665105" y="469.090869" style="fill: #ff0000; stroke: #ff0000"/>
     <use xlink:href="#mf86063ee23" x="582.94751" y="469.090869" style="fill: #ff0000; stroke: #ff0000"/>
     <use xlink:href="#mf86063ee23" x="593.229915" y="469.090869" style="fill: #ff0000; stroke: #ff0000"/>
     <use xlink:href="#mf86063ee23" x="603.512319" y="469.090869" style="fill: #ff0000; stroke: #ff0000"/>
     <use xlink:href="#mf86063ee23" x="613.794724" y="469.090869" style="fill: #ff0000; stroke: #ff0000"/>
     <use xlink:href="#mf86063ee23" x="624.077129" y="469.090869" style="fill: #ff0000; stroke: #ff0000"/>
     <use xlink:href="#mf86063ee23" x="634.359534" y="469.090869" style="fill: #ff0000; stroke: #ff0000"/>
     <use xlink:href="#mf86063ee23" x="644.641938" y="469.090869" style="fill: #ff0000; stroke: #ff0000"/>
     <use xlink:href="#mf86063ee23" x="654.924343" y="469.090869" style="fill: #ff0000; stroke: #ff0000"/>
     <use xlink:href="#mf86063ee23" x="665.206748" y="453.522757" style="fill: #ff0000; stroke: #ff0000"/>
     <use xlink:href="#mf86063ee23" x="675.489152" y="469.090869" style="fill: #ff0000; stroke: #ff0000"/>
     <use xlink:href="#mf86063ee23" x="685.771557" y="469.090869" style="fill: #ff0000; stroke: #ff0000"/>
     <use xlink:href="#mf86063ee23" x="696.053962" y="453.522757" style="fill: #ff0000; stroke: #ff0000"/>
     <use xlink:href="#mf86063ee23" x="706.336367" y="453.522757" style="fill: #ff0000; stroke: #ff0000"/>
     <use xlink:href="#mf86063ee23" x="716.618771" y="469.090869" style="fill: #ff0000; stroke: #ff0000"/>
     <use xlink:href="#mf86063ee23" x="726.901176" y="453.522757" style="fill: #ff0000; stroke: #ff0000"/>
     <use xlink:href="#mf86063ee23" x="737.183581" y="469.090869" style="fill: #ff0000; stroke: #ff0000"/>
     <use xlink:href="#mf86063ee23" x="747.465986" y="469.090869" style="fill: #ff0000; stroke: #ff0000"/>
     <use xlink:href="#mf86063ee23" x="757.74839" y="469.090869" style="fill: #ff0000; stroke: #ff0000"/>
     <use xlink:href="#mf86063ee23" x="768.030795" y="469.090869" style="fill: #ff0000; stroke: #ff0000"/>
     <use xlink:href="#mf86063ee23" x="778.3132" y="469.090869" style="fill: #ff0000; stroke: #ff0000"/>
     <use xlink:href="#mf86063ee23" x="788.595605" y="469.090869" style="fill: #ff0000; stroke: #ff0000"/>
     <use xlink:href="#mf86063ee23" x="798.878009" y="469.090869" style="fill: #ff0000; stroke: #ff0000"/>
     <use xlink:href="#mf86063ee23" x="809.160414" y="469.090869" style="fill: #ff0000; stroke: #ff0000"/>
     <use xlink:href="#mf86063ee23" x="819.442819" y="469.090869" style="fill: #ff0000; stroke: #ff0000"/>
     <use xlink:href="#mf86063ee23" x="829.725224" y="469.090869" style="fill: #ff0000; stroke: #ff0000"/>
    </g>
   </g>
   <g id="patch_3">
    <path d="M 84.765 490.886226 
L 84.765 11.38838 
" style="fill: none; stroke: #000000; stroke-width: 0.8; stroke-linejoin: miter; stroke-linecap: square"/>
   </g>
   <g id="patch_4">
    <path d="M 865.19952 490.886226 
L 865.19952 11.38838 
" style="fill: none; stroke: #000000; stroke-width: 0.8; stroke-linejoin: miter; stroke-linecap: square"/>
   </g>
   <g id="patch_5">
    <path d="M 84.765 490.886226 
L 865.19952 490.886226 
" style="fill: none; stroke: #000000; stroke-width: 0.8; stroke-linejoin: miter; stroke-linecap: square"/>
   </g>
   <g id="patch_6">
    <path d="M 84.765 11.38838 
L 865.19952 11.38838 
" style="fill: none; stroke: #000000; stroke-width: 0.8; stroke-linejoin: miter; stroke-linecap: square"/>
   </g>
  </g>
 </g>
 <defs>
  <clipPath id="pdf5d56eaac">
   <rect x="84.765" y="11.38838" width="780.43452" height="479.497845"/>
  </clipPath>
 </defs>
</svg>
