<?xml version="1.0" encoding="utf-8" standalone="no"?>
<!DOCTYPE svg PUBLIC "-//W3C//DTD SVG 1.1//EN"
  "http://www.w3.org/Graphics/SVG/1.1/DTD/svg11.dtd">
<svg xmlns:xlink="http://www.w3.org/1999/xlink" width="1288.127813pt" height="1359.245937pt" viewBox="0 0 1288.127813 1359.245937" xmlns="http://www.w3.org/2000/svg" version="1.1">
 <metadata>
  <rdf:RDF xmlns:dc="http://purl.org/dc/elements/1.1/" xmlns:cc="http://creativecommons.org/ns#" xmlns:rdf="http://www.w3.org/1999/02/22-rdf-syntax-ns#">
   <cc:Work>
    <dc:type rdf:resource="http://purl.org/dc/dcmitype/StillImage"/>
    <dc:date>2024-04-15T07:16:13.261946</dc:date>
    <dc:format>image/svg+xml</dc:format>
    <dc:creator>
     <cc:Agent>
      <dc:title>Matplotlib v3.8.0, https://matplotlib.org/</dc:title>
     </cc:Agent>
    </dc:creator>
   </cc:Work>
  </rdf:RDF>
 </metadata>
 <defs>
  <style type="text/css">*{stroke-linejoin: round; stroke-linecap: butt}</style>
 </defs>
 <g id="figure_1">
  <g id="patch_1">
   <path d="M 0 1359.245937 
L 1288.127813 1359.245937 
L 1288.127813 0 
L 0 0 
z
" style="fill: #ffffff"/>
  </g>
  <g id="axes_1">
   <g id="patch_2">
    <path d="M 123.847813 560.866875 
L 607.477813 560.866875 
L 607.477813 53.446875 
L 123.847813 53.446875 
z
" style="fill: #ffffff"/>
   </g>
   <g id="matplotlib.axis_1">
    <g id="xtick_1">
     <g id="line2d_1">
      <path d="M 145.830994 560.866875 
L 145.830994 53.446875 
" clip-path="url(#p0c37063ead)" style="fill: none; stroke: #000000; stroke-width: 0.7; stroke-linecap: square"/>
     </g>
     <g id="line2d_2">
      <defs>
       <path id="m198d6f2884" d="M 0 0 
L 0 -10 
" style="stroke: #000000; stroke-width: 2"/>
      </defs>
      <g>
       <use xlink:href="#m198d6f2884" x="145.830994" y="560.866875" style="stroke: #000000; stroke-width: 2"/>
      </g>
     </g>
     <g id="text_1">
      <!-- 0 -->
      <g transform="translate(135.830994 592.141875) scale(0.4 -0.4)">
       <defs>
        <path id="TimesNewRomanPSMT-30" d="M 231 2094 
Q 231 2819 450 3342 
Q 669 3866 1031 4122 
Q 1313 4325 1613 4325 
Q 2100 4325 2488 3828 
Q 2972 3213 2972 2159 
Q 2972 1422 2759 906 
Q 2547 391 2217 158 
Q 1888 -75 1581 -75 
Q 975 -75 572 641 
Q 231 1244 231 2094 
z
M 844 2016 
Q 844 1141 1059 588 
Q 1238 122 1591 122 
Q 1759 122 1940 273 
Q 2122 425 2216 781 
Q 2359 1319 2359 2297 
Q 2359 3022 2209 3506 
Q 2097 3866 1919 4016 
Q 1791 4119 1609 4119 
Q 1397 4119 1231 3928 
Q 1006 3669 925 3112 
Q 844 2556 844 2016 
z
" transform="scale(0.015625)"/>
       </defs>
       <use xlink:href="#TimesNewRomanPSMT-30"/>
      </g>
     </g>
    </g>
    <g id="xtick_2">
     <g id="line2d_3">
      <path d="M 225.769837 560.866875 
L 225.769837 53.446875 
" clip-path="url(#p0c37063ead)" style="fill: none; stroke: #000000; stroke-width: 0.7; stroke-linecap: square"/>
     </g>
     <g id="line2d_4">
      <g>
       <use xlink:href="#m198d6f2884" x="225.769837" y="560.866875" style="stroke: #000000; stroke-width: 2"/>
      </g>
     </g>
     <g id="text_2">
      <!-- 50 -->
      <g transform="translate(205.769837 592.141875) scale(0.4 -0.4)">
       <defs>
        <path id="TimesNewRomanPSMT-35" d="M 2778 4238 
L 2534 3706 
L 1259 3706 
L 981 3138 
Q 1809 3016 2294 2522 
Q 2709 2097 2709 1522 
Q 2709 1188 2573 903 
Q 2438 619 2231 419 
Q 2025 219 1772 97 
Q 1413 -75 1034 -75 
Q 653 -75 479 54 
Q 306 184 306 341 
Q 306 428 378 495 
Q 450 563 559 563 
Q 641 563 702 538 
Q 763 513 909 409 
Q 1144 247 1384 247 
Q 1750 247 2026 523 
Q 2303 800 2303 1197 
Q 2303 1581 2056 1914 
Q 1809 2247 1375 2428 
Q 1034 2569 447 2591 
L 1259 4238 
L 2778 4238 
z
" transform="scale(0.015625)"/>
       </defs>
       <use xlink:href="#TimesNewRomanPSMT-35"/>
       <use xlink:href="#TimesNewRomanPSMT-30" x="50"/>
      </g>
     </g>
    </g>
    <g id="xtick_3">
     <g id="line2d_5">
      <path d="M 305.70868 560.866875 
L 305.70868 53.446875 
" clip-path="url(#p0c37063ead)" style="fill: none; stroke: #000000; stroke-width: 0.7; stroke-linecap: square"/>
     </g>
     <g id="line2d_6">
      <g>
       <use xlink:href="#m198d6f2884" x="305.70868" y="560.866875" style="stroke: #000000; stroke-width: 2"/>
      </g>
     </g>
     <g id="text_3">
      <!-- 100 -->
      <g transform="translate(275.70868 592.141875) scale(0.4 -0.4)">
       <defs>
        <path id="TimesNewRomanPSMT-31" d="M 750 3822 
L 1781 4325 
L 1884 4325 
L 1884 747 
Q 1884 391 1914 303 
Q 1944 216 2037 169 
Q 2131 122 2419 116 
L 2419 0 
L 825 0 
L 825 116 
Q 1125 122 1212 167 
Q 1300 213 1334 289 
Q 1369 366 1369 747 
L 1369 3034 
Q 1369 3497 1338 3628 
Q 1316 3728 1258 3775 
Q 1200 3822 1119 3822 
Q 1003 3822 797 3725 
L 750 3822 
z
" transform="scale(0.015625)"/>
       </defs>
       <use xlink:href="#TimesNewRomanPSMT-31"/>
       <use xlink:href="#TimesNewRomanPSMT-30" x="50"/>
       <use xlink:href="#TimesNewRomanPSMT-30" x="100"/>
      </g>
     </g>
    </g>
    <g id="xtick_4">
     <g id="line2d_7">
      <path d="M 385.647523 560.866875 
L 385.647523 53.446875 
" clip-path="url(#p0c37063ead)" style="fill: none; stroke: #000000; stroke-width: 0.7; stroke-linecap: square"/>
     </g>
     <g id="line2d_8">
      <g>
       <use xlink:href="#m198d6f2884" x="385.647523" y="560.866875" style="stroke: #000000; stroke-width: 2"/>
      </g>
     </g>
     <g id="text_4">
      <!-- 150 -->
      <g transform="translate(355.647523 592.141875) scale(0.4 -0.4)">
       <use xlink:href="#TimesNewRomanPSMT-31"/>
       <use xlink:href="#TimesNewRomanPSMT-35" x="50"/>
       <use xlink:href="#TimesNewRomanPSMT-30" x="100"/>
      </g>
     </g>
    </g>
    <g id="xtick_5">
     <g id="line2d_9">
      <path d="M 465.586366 560.866875 
L 465.586366 53.446875 
" clip-path="url(#p0c37063ead)" style="fill: none; stroke: #000000; stroke-width: 0.7; stroke-linecap: square"/>
     </g>
     <g id="line2d_10">
      <g>
       <use xlink:href="#m198d6f2884" x="465.586366" y="560.866875" style="stroke: #000000; stroke-width: 2"/>
      </g>
     </g>
     <g id="text_5">
      <!-- 200 -->
      <g transform="translate(435.586366 592.141875) scale(0.4 -0.4)">
       <defs>
        <path id="TimesNewRomanPSMT-32" d="M 2934 816 
L 2638 0 
L 138 0 
L 138 116 
Q 1241 1122 1691 1759 
Q 2141 2397 2141 2925 
Q 2141 3328 1894 3587 
Q 1647 3847 1303 3847 
Q 991 3847 742 3664 
Q 494 3481 375 3128 
L 259 3128 
Q 338 3706 661 4015 
Q 984 4325 1469 4325 
Q 1984 4325 2329 3994 
Q 2675 3663 2675 3213 
Q 2675 2891 2525 2569 
Q 2294 2063 1775 1497 
Q 997 647 803 472 
L 1909 472 
Q 2247 472 2383 497 
Q 2519 522 2628 598 
Q 2738 675 2819 816 
L 2934 816 
z
" transform="scale(0.015625)"/>
       </defs>
       <use xlink:href="#TimesNewRomanPSMT-32"/>
       <use xlink:href="#TimesNewRomanPSMT-30" x="50"/>
       <use xlink:href="#TimesNewRomanPSMT-30" x="100"/>
      </g>
     </g>
    </g>
    <g id="xtick_6">
     <g id="line2d_11">
      <path d="M 545.525209 560.866875 
L 545.525209 53.446875 
" clip-path="url(#p0c37063ead)" style="fill: none; stroke: #000000; stroke-width: 0.7; stroke-linecap: square"/>
     </g>
     <g id="line2d_12">
      <g>
       <use xlink:href="#m198d6f2884" x="545.525209" y="560.866875" style="stroke: #000000; stroke-width: 2"/>
      </g>
     </g>
     <g id="text_6">
      <!-- 250 -->
      <g transform="translate(515.525209 592.141875) scale(0.4 -0.4)">
       <use xlink:href="#TimesNewRomanPSMT-32"/>
       <use xlink:href="#TimesNewRomanPSMT-35" x="50"/>
       <use xlink:href="#TimesNewRomanPSMT-30" x="100"/>
      </g>
     </g>
    </g>
    <g id="text_7">
     <!-- Введено -->
     <g transform="translate(291.093125 644.861875) scale(0.42 -0.42)">
      <defs>
       <path id="TimesNewRomanPSMT-412" d="M 2956 2163 
Q 3397 2069 3616 1863 
Q 3919 1575 3919 1159 
Q 3919 844 3719 555 
Q 3519 266 3170 133 
Q 2822 0 2106 0 
L 106 0 
L 106 116 
L 266 116 
Q 531 116 647 284 
Q 719 394 719 750 
L 719 3488 
Q 719 3881 628 3984 
Q 506 4122 266 4122 
L 106 4122 
L 106 4238 
L 1938 4238 
Q 2450 4238 2759 4163 
Q 3228 4050 3475 3764 
Q 3722 3478 3722 3106 
Q 3722 2788 3528 2536 
Q 3334 2284 2956 2163 
z
M 1319 2331 
Q 1434 2309 1582 2298 
Q 1731 2288 1909 2288 
Q 2366 2288 2595 2386 
Q 2825 2484 2947 2687 
Q 3069 2891 3069 3131 
Q 3069 3503 2766 3765 
Q 2463 4028 1881 4028 
Q 1569 4028 1319 3959 
L 1319 2331 
z
M 1319 306 
Q 1681 222 2034 222 
Q 2600 222 2897 476 
Q 3194 731 3194 1106 
Q 3194 1353 3059 1581 
Q 2925 1809 2622 1940 
Q 2319 2072 1872 2072 
Q 1678 2072 1540 2065 
Q 1403 2059 1319 2044 
L 1319 306 
z
" transform="scale(0.015625)"/>
       <path id="TimesNewRomanPSMT-432" d="M 2016 1513 
Q 2800 1350 2800 778 
Q 2800 388 2473 194 
Q 2147 0 1563 0 
L 150 0 
L 150 116 
Q 428 116 501 220 
Q 575 325 575 672 
L 575 2191 
Q 575 2528 542 2587 
Q 509 2647 439 2695 
Q 369 2744 150 2744 
L 150 2863 
L 1469 2863 
Q 1850 2863 2086 2803 
Q 2322 2744 2473 2569 
Q 2625 2394 2625 2144 
Q 2625 1656 2016 1513 
z
M 1094 1584 
Q 1231 1581 1259 1581 
Q 1688 1581 1878 1745 
Q 2069 1909 2069 2144 
Q 2069 2416 1875 2537 
Q 1681 2659 1256 2659 
L 1094 2659 
L 1094 1584 
z
M 1094 253 
Q 1250 203 1466 203 
Q 1838 203 2019 365 
Q 2200 528 2200 784 
Q 2200 1072 1965 1225 
Q 1731 1378 1316 1378 
Q 1213 1378 1094 1372 
L 1094 253 
z
" transform="scale(0.015625)"/>
       <path id="TimesNewRomanPSMT-435" d="M 681 1784 
Q 678 1147 991 784 
Q 1303 422 1725 422 
Q 2006 422 2214 576 
Q 2422 731 2563 1106 
L 2659 1044 
Q 2594 616 2278 264 
Q 1963 -88 1488 -88 
Q 972 -88 605 314 
Q 238 716 238 1394 
Q 238 2128 614 2539 
Q 991 2950 1559 2950 
Q 2041 2950 2350 2633 
Q 2659 2316 2659 1784 
L 681 1784 
z
M 681 1966 
L 2006 1966 
Q 1991 2241 1941 2353 
Q 1863 2528 1708 2628 
Q 1553 2728 1384 2728 
Q 1125 2728 920 2526 
Q 716 2325 681 1966 
z
" transform="scale(0.015625)"/>
       <path id="TimesNewRomanPSMT-434" d="M 591 2863 
L 3116 2863 
L 3116 2744 
Q 2903 2744 2833 2701 
Q 2763 2659 2722 2596 
Q 2681 2534 2681 2191 
L 2681 775 
Q 2681 328 2757 226 
Q 2834 125 3116 116 
L 3116 -794 
L 2997 -794 
Q 2984 -538 2870 -347 
Q 2756 -156 2553 -78 
Q 2350 0 1953 0 
L 1216 0 
Q 872 0 678 -61 
Q 484 -122 354 -315 
Q 225 -509 197 -794 
L 81 -794 
L 81 116 
Q 338 125 547 319 
Q 756 513 915 1078 
Q 1075 1644 1075 2191 
Q 1075 2728 591 2744 
L 591 2863 
z
M 1281 2659 
L 1281 2488 
Q 1281 953 725 203 
L 1788 203 
Q 2075 203 2119 251 
Q 2163 300 2163 609 
L 2163 2659 
L 1281 2659 
z
" transform="scale(0.015625)"/>
       <path id="TimesNewRomanPSMT-43d" d="M 1094 1584 
L 2331 1584 
L 2331 2191 
Q 2331 2463 2309 2545 
Q 2288 2628 2202 2686 
Q 2116 2744 1897 2744 
L 1897 2863 
L 3281 2863 
L 3281 2744 
Q 3088 2744 2998 2700 
Q 2909 2656 2878 2573 
Q 2847 2491 2847 2191 
L 2847 672 
Q 2847 400 2870 312 
Q 2894 225 2984 170 
Q 3075 116 3281 116 
L 3281 0 
L 1897 0 
L 1897 116 
Q 2156 116 2243 211 
Q 2331 306 2331 672 
L 2331 1381 
L 1094 1381 
L 1094 672 
Q 1094 400 1117 312 
Q 1141 225 1231 170 
Q 1322 116 1528 116 
L 1528 0 
L 144 0 
L 144 116 
Q 422 116 500 217 
Q 578 319 578 672 
L 578 2191 
Q 578 2463 554 2550 
Q 531 2638 440 2691 
Q 350 2744 144 2744 
L 144 2863 
L 1528 2863 
L 1528 2744 
Q 1334 2744 1245 2700 
Q 1156 2656 1125 2573 
Q 1094 2491 1094 2191 
L 1094 1584 
z
" transform="scale(0.015625)"/>
       <path id="TimesNewRomanPSMT-43e" d="M 1600 2947 
Q 2250 2947 2644 2453 
Q 2978 2031 2978 1484 
Q 2978 1100 2793 706 
Q 2609 313 2286 112 
Q 1963 -88 1566 -88 
Q 919 -88 538 428 
Q 216 863 216 1403 
Q 216 1797 411 2186 
Q 606 2575 925 2761 
Q 1244 2947 1600 2947 
z
M 1503 2744 
Q 1338 2744 1170 2645 
Q 1003 2547 900 2300 
Q 797 2053 797 1666 
Q 797 1041 1045 587 
Q 1294 134 1700 134 
Q 2003 134 2200 384 
Q 2397 634 2397 1244 
Q 2397 2006 2069 2444 
Q 1847 2744 1503 2744 
z
" transform="scale(0.015625)"/>
      </defs>
      <use xlink:href="#TimesNewRomanPSMT-412"/>
      <use xlink:href="#TimesNewRomanPSMT-432" x="66.699219"/>
      <use xlink:href="#TimesNewRomanPSMT-435" x="113.291016"/>
      <use xlink:href="#TimesNewRomanPSMT-434" x="156.300781"/>
      <use xlink:href="#TimesNewRomanPSMT-435" x="207.179688"/>
      <use xlink:href="#TimesNewRomanPSMT-43d" x="251.564453"/>
      <use xlink:href="#TimesNewRomanPSMT-43e" x="305.080078"/>
     </g>
    </g>
   </g>
   <g id="matplotlib.axis_2">
    <g id="ytick_1">
     <g id="line2d_13">
      <path d="M 123.847813 535.589697 
L 607.477813 535.589697 
" clip-path="url(#p0c37063ead)" style="fill: none; stroke: #000000; stroke-width: 0.7; stroke-linecap: square"/>
     </g>
     <g id="line2d_14">
      <defs>
       <path id="meaf301f4ff" d="M 0 0 
L 10 0 
" style="stroke: #000000; stroke-width: 2"/>
      </defs>
      <g>
       <use xlink:href="#meaf301f4ff" x="123.847813" y="535.589697" style="stroke: #000000; stroke-width: 2"/>
      </g>
     </g>
     <g id="text_8">
      <!-- 0 -->
      <g transform="translate(100.347813 549.477197) scale(0.4 -0.4)">
       <use xlink:href="#TimesNewRomanPSMT-30"/>
      </g>
     </g>
    </g>
    <g id="ytick_2">
     <g id="line2d_15">
      <path d="M 123.847813 452.12092 
L 607.477813 452.12092 
" clip-path="url(#p0c37063ead)" style="fill: none; stroke: #000000; stroke-width: 0.7; stroke-linecap: square"/>
     </g>
     <g id="line2d_16">
      <g>
       <use xlink:href="#meaf301f4ff" x="123.847813" y="452.12092" style="stroke: #000000; stroke-width: 2"/>
      </g>
     </g>
     <g id="text_9">
      <!-- 50 -->
      <g transform="translate(80.347813 466.00842) scale(0.4 -0.4)">
       <use xlink:href="#TimesNewRomanPSMT-35"/>
       <use xlink:href="#TimesNewRomanPSMT-30" x="50"/>
      </g>
     </g>
    </g>
    <g id="ytick_3">
     <g id="line2d_17">
      <path d="M 123.847813 368.652142 
L 607.477813 368.652142 
" clip-path="url(#p0c37063ead)" style="fill: none; stroke: #000000; stroke-width: 0.7; stroke-linecap: square"/>
     </g>
     <g id="line2d_18">
      <g>
       <use xlink:href="#meaf301f4ff" x="123.847813" y="368.652142" style="stroke: #000000; stroke-width: 2"/>
      </g>
     </g>
     <g id="text_10">
      <!-- 100 -->
      <g transform="translate(60.347813 382.539642) scale(0.4 -0.4)">
       <use xlink:href="#TimesNewRomanPSMT-31"/>
       <use xlink:href="#TimesNewRomanPSMT-30" x="50"/>
       <use xlink:href="#TimesNewRomanPSMT-30" x="100"/>
      </g>
     </g>
    </g>
    <g id="ytick_4">
     <g id="line2d_19">
      <path d="M 123.847813 285.183365 
L 607.477813 285.183365 
" clip-path="url(#p0c37063ead)" style="fill: none; stroke: #000000; stroke-width: 0.7; stroke-linecap: square"/>
     </g>
     <g id="line2d_20">
      <g>
       <use xlink:href="#meaf301f4ff" x="123.847813" y="285.183365" style="stroke: #000000; stroke-width: 2"/>
      </g>
     </g>
     <g id="text_11">
      <!-- 150 -->
      <g transform="translate(60.347813 299.070865) scale(0.4 -0.4)">
       <use xlink:href="#TimesNewRomanPSMT-31"/>
       <use xlink:href="#TimesNewRomanPSMT-35" x="50"/>
       <use xlink:href="#TimesNewRomanPSMT-30" x="100"/>
      </g>
     </g>
    </g>
    <g id="ytick_5">
     <g id="line2d_21">
      <path d="M 123.847813 201.714587 
L 607.477813 201.714587 
" clip-path="url(#p0c37063ead)" style="fill: none; stroke: #000000; stroke-width: 0.7; stroke-linecap: square"/>
     </g>
     <g id="line2d_22">
      <g>
       <use xlink:href="#meaf301f4ff" x="123.847813" y="201.714587" style="stroke: #000000; stroke-width: 2"/>
      </g>
     </g>
     <g id="text_12">
      <!-- 200 -->
      <g transform="translate(60.347813 215.602087) scale(0.4 -0.4)">
       <use xlink:href="#TimesNewRomanPSMT-32"/>
       <use xlink:href="#TimesNewRomanPSMT-30" x="50"/>
       <use xlink:href="#TimesNewRomanPSMT-30" x="100"/>
      </g>
     </g>
    </g>
    <g id="ytick_6">
     <g id="line2d_23">
      <path d="M 123.847813 118.245809 
L 607.477813 118.245809 
" clip-path="url(#p0c37063ead)" style="fill: none; stroke: #000000; stroke-width: 0.7; stroke-linecap: square"/>
     </g>
     <g id="line2d_24">
      <g>
       <use xlink:href="#meaf301f4ff" x="123.847813" y="118.245809" style="stroke: #000000; stroke-width: 2"/>
      </g>
     </g>
     <g id="text_13">
      <!-- 250 -->
      <g transform="translate(60.347813 132.133309) scale(0.4 -0.4)">
       <use xlink:href="#TimesNewRomanPSMT-32"/>
       <use xlink:href="#TimesNewRomanPSMT-35" x="50"/>
       <use xlink:href="#TimesNewRomanPSMT-30" x="100"/>
      </g>
     </g>
    </g>
    <g id="text_14">
     <!-- Найдено -->
     <g transform="translate(36.36375 384.627188) rotate(-90) scale(0.42 -0.42)">
      <defs>
       <path id="TimesNewRomanPSMT-41d" d="M 1316 2272 
L 3284 2272 
L 3284 3484 
Q 3284 3809 3244 3913 
Q 3213 3991 3113 4047 
Q 2978 4122 2828 4122 
L 2678 4122 
L 2678 4238 
L 4491 4238 
L 4491 4122 
L 4341 4122 
Q 4191 4122 4056 4050 
Q 3956 4000 3920 3898 
Q 3884 3797 3884 3484 
L 3884 750 
Q 3884 428 3925 325 
Q 3956 247 4053 191 
Q 4191 116 4341 116 
L 4491 116 
L 4491 0 
L 2678 0 
L 2678 116 
L 2828 116 
Q 3088 116 3206 269 
Q 3284 369 3284 750 
L 3284 2041 
L 1316 2041 
L 1316 750 
Q 1316 428 1356 325 
Q 1388 247 1488 191 
Q 1622 116 1772 116 
L 1925 116 
L 1925 0 
L 109 0 
L 109 116 
L 259 116 
Q 522 116 641 269 
Q 716 369 716 750 
L 716 3484 
Q 716 3809 675 3913 
Q 644 3991 547 4047 
Q 409 4122 259 4122 
L 109 4122 
L 109 4238 
L 1925 4238 
L 1925 4122 
L 1772 4122 
Q 1622 4122 1488 4050 
Q 1391 4000 1353 3898 
Q 1316 3797 1316 3484 
L 1316 2272 
z
" transform="scale(0.015625)"/>
       <path id="TimesNewRomanPSMT-430" d="M 1822 413 
Q 1381 72 1269 19 
Q 1100 -59 909 -59 
Q 613 -59 420 144 
Q 228 347 228 678 
Q 228 888 322 1041 
Q 450 1253 767 1440 
Q 1084 1628 1822 1897 
L 1822 2009 
Q 1822 2438 1686 2597 
Q 1550 2756 1291 2756 
Q 1094 2756 978 2650 
Q 859 2544 859 2406 
L 866 2225 
Q 866 2081 792 2003 
Q 719 1925 600 1925 
Q 484 1925 411 2006 
Q 338 2088 338 2228 
Q 338 2497 613 2722 
Q 888 2947 1384 2947 
Q 1766 2947 2009 2819 
Q 2194 2722 2281 2516 
Q 2338 2381 2338 1966 
L 2338 994 
Q 2338 584 2353 492 
Q 2369 400 2405 369 
Q 2441 338 2488 338 
Q 2538 338 2575 359 
Q 2641 400 2828 588 
L 2828 413 
Q 2478 -56 2159 -56 
Q 2006 -56 1915 50 
Q 1825 156 1822 413 
z
M 1822 616 
L 1822 1706 
Q 1350 1519 1213 1441 
Q 966 1303 859 1153 
Q 753 1003 753 825 
Q 753 600 887 451 
Q 1022 303 1197 303 
Q 1434 303 1822 616 
z
" transform="scale(0.015625)"/>
       <path id="TimesNewRomanPSMT-439" d="M 688 4009 
Q 688 4119 748 4186 
Q 809 4253 903 4253 
Q 1109 4253 1269 3866 
Q 1359 3647 1476 3592 
Q 1594 3538 1706 3538 
Q 1903 3538 2003 3622 
Q 2103 3706 2191 3925 
Q 2322 4250 2513 4250 
Q 2606 4250 2672 4183 
Q 2738 4116 2738 4016 
Q 2738 3775 2422 3569 
Q 2106 3363 1713 3363 
Q 1197 3363 942 3550 
Q 688 3738 688 4009 
z
M 1094 881 
L 2331 2313 
Q 2325 2553 2240 2647 
Q 2156 2741 1950 2744 
L 1950 2863 
L 3281 2863 
L 3281 2744 
Q 3072 2744 3000 2701 
Q 2928 2659 2887 2596 
Q 2847 2534 2847 2191 
L 2847 672 
Q 2847 341 2881 277 
Q 2916 213 2989 164 
Q 3063 116 3281 116 
L 3281 0 
L 1897 0 
L 1897 116 
Q 2156 116 2243 211 
Q 2331 306 2331 672 
L 2331 2019 
L 1094 584 
Q 1100 319 1169 219 
Q 1238 119 1466 116 
L 1466 0 
L 144 0 
L 144 116 
Q 422 116 500 217 
Q 578 319 578 672 
L 578 2191 
Q 578 2525 543 2586 
Q 509 2647 437 2695 
Q 366 2744 144 2744 
L 144 2863 
L 1528 2863 
L 1528 2744 
Q 1319 2744 1247 2701 
Q 1175 2659 1134 2596 
Q 1094 2534 1094 2191 
L 1094 881 
z
" transform="scale(0.015625)"/>
      </defs>
      <use xlink:href="#TimesNewRomanPSMT-41d"/>
      <use xlink:href="#TimesNewRomanPSMT-430" x="72.216797"/>
      <use xlink:href="#TimesNewRomanPSMT-439" x="116.601562"/>
      <use xlink:href="#TimesNewRomanPSMT-434" x="170.117188"/>
      <use xlink:href="#TimesNewRomanPSMT-435" x="220.996094"/>
      <use xlink:href="#TimesNewRomanPSMT-43d" x="265.380859"/>
      <use xlink:href="#TimesNewRomanPSMT-43e" x="318.896484"/>
     </g>
    </g>
   </g>
   <g id="line2d_25">
    <path d="M 145.830994 535.589697 
L 145.830994 535.589697 
L 585.494631 76.51142 
L 145.830994 535.589697 
L 219.37473 458.798422 
L 173.010201 507.210313 
L 177.806532 502.202186 
L 161.818763 518.895942 
L 155.423655 525.573444 
L 145.830994 535.589697 
L 145.830994 535.589697 
L 235.362498 442.104666 
L 190.596746 488.847182 
L 145.830994 535.589697 
L 145.830994 535.589697 
L 145.830994 535.589697 
L 151.426713 529.746883 
L 151.426713 529.746883 
L 151.426713 529.746883 
L 148.628854 532.66829 
L 147.229924 534.128994 
L 190.596746 488.847182 
L 190.596746 488.847182 
L 168.21387 512.21844 
L 147.229924 534.128994 
L 148.628854 532.66829 
L 151.426713 529.746883 
" clip-path="url(#p0c37063ead)" style="fill: none; stroke: #0000ff; stroke-width: 3; stroke-linecap: square"/>
   </g>
   <g id="line2d_26">
    <defs>
     <path id="mc505eb82bc" d="M 0 5 
C 1.326016 5 2.597899 4.473168 3.535534 3.535534 
C 4.473168 2.597899 5 1.326016 5 0 
C 5 -1.326016 4.473168 -2.597899 3.535534 -3.535534 
C 2.597899 -4.473168 1.326016 -5 0 -5 
C -1.326016 -5 -2.597899 -4.473168 -3.535534 -3.535534 
C -4.473168 -2.597899 -5 -1.326016 -5 0 
C -5 1.326016 -4.473168 2.597899 -3.535534 3.535534 
C -2.597899 4.473168 -1.326016 5 0 5 
z
" style="stroke: #ff0000"/>
    </defs>
    <g clip-path="url(#p0c37063ead)">
     <use xlink:href="#mc505eb82bc" x="145.830994" y="537.137087" style="fill: #ff0000; stroke: #ff0000"/>
     <use xlink:href="#mc505eb82bc" x="145.830994" y="527.775982" style="fill: #ff0000; stroke: #ff0000"/>
     <use xlink:href="#mc505eb82bc" x="585.494631" y="294.428341" style="fill: #ff0000; stroke: #ff0000"/>
     <use xlink:href="#mc505eb82bc" x="145.830994" y="531.941795" style="fill: #ff0000; stroke: #ff0000"/>
     <use xlink:href="#mc505eb82bc" x="219.37473" y="252.083661" style="fill: #ff0000; stroke: #ff0000"/>
     <use xlink:href="#mc505eb82bc" x="173.010201" y="505.889673" style="fill: #ff0000; stroke: #ff0000"/>
     <use xlink:href="#mc505eb82bc" x="177.806532" y="502.033397" style="fill: #ff0000; stroke: #ff0000"/>
     <use xlink:href="#mc505eb82bc" x="161.818763" y="520.501378" style="fill: #ff0000; stroke: #ff0000"/>
     <use xlink:href="#mc505eb82bc" x="155.423655" y="526.475042" style="fill: #ff0000; stroke: #ff0000"/>
     <use xlink:href="#mc505eb82bc" x="145.830994" y="535.631661" style="fill: #ff0000; stroke: #ff0000"/>
     <use xlink:href="#mc505eb82bc" x="145.830994" y="537.80233" style="fill: #ff0000; stroke: #ff0000"/>
     <use xlink:href="#mc505eb82bc" x="235.362498" y="436.273401" style="fill: #ff0000; stroke: #ff0000"/>
     <use xlink:href="#mc505eb82bc" x="190.596746" y="490.739942" style="fill: #ff0000; stroke: #ff0000"/>
     <use xlink:href="#mc505eb82bc" x="145.830994" y="534.452638" style="fill: #ff0000; stroke: #ff0000"/>
     <use xlink:href="#mc505eb82bc" x="145.830994" y="534.453494" style="fill: #ff0000; stroke: #ff0000"/>
     <use xlink:href="#mc505eb82bc" x="145.830994" y="535.120399" style="fill: #ff0000; stroke: #ff0000"/>
     <use xlink:href="#mc505eb82bc" x="151.426713" y="530.474253" style="fill: #ff0000; stroke: #ff0000"/>
     <use xlink:href="#mc505eb82bc" x="151.426713" y="530.984001" style="fill: #ff0000; stroke: #ff0000"/>
     <use xlink:href="#mc505eb82bc" x="151.426713" y="530.352978" style="fill: #ff0000; stroke: #ff0000"/>
     <use xlink:href="#mc505eb82bc" x="148.628854" y="531.411189" style="fill: #ff0000; stroke: #ff0000"/>
     <use xlink:href="#mc505eb82bc" x="147.229924" y="533.124568" style="fill: #ff0000; stroke: #ff0000"/>
     <use xlink:href="#mc505eb82bc" x="190.596746" y="491.588302" style="fill: #ff0000; stroke: #ff0000"/>
     <use xlink:href="#mc505eb82bc" x="190.596746" y="486.268769" style="fill: #ff0000; stroke: #ff0000"/>
     <use xlink:href="#mc505eb82bc" x="168.21387" y="512.84459" style="fill: #ff0000; stroke: #ff0000"/>
     <use xlink:href="#mc505eb82bc" x="147.229924" y="535.046404" style="fill: #ff0000; stroke: #ff0000"/>
     <use xlink:href="#mc505eb82bc" x="148.628854" y="532.611826" style="fill: #ff0000; stroke: #ff0000"/>
     <use xlink:href="#mc505eb82bc" x="151.426713" y="528.264762" style="fill: #ff0000; stroke: #ff0000"/>
    </g>
   </g>
   <g id="patch_3">
    <path d="M 123.847813 560.866875 
L 123.847813 53.446875 
" style="fill: none; stroke: #000000; stroke-width: 0.8; stroke-linejoin: miter; stroke-linecap: square"/>
   </g>
   <g id="patch_4">
    <path d="M 607.477813 560.866875 
L 607.477813 53.446875 
" style="fill: none; stroke: #000000; stroke-width: 0.8; stroke-linejoin: miter; stroke-linecap: square"/>
   </g>
   <g id="patch_5">
    <path d="M 123.847812 560.866875 
L 607.477813 560.866875 
" style="fill: none; stroke: #000000; stroke-width: 0.8; stroke-linejoin: miter; stroke-linecap: square"/>
   </g>
   <g id="patch_6">
    <path d="M 123.847812 53.446875 
L 607.477813 53.446875 
" style="fill: none; stroke: #000000; stroke-width: 0.8; stroke-linejoin: miter; stroke-linecap: square"/>
   </g>
   <g id="text_15">
    <g id="patch_7">
     <path d="M 145.830994 178.973162 
L 352.890994 178.973162 
Q 365.490994 178.973162 365.490994 166.373162 
L 365.490994 104.633162 
Q 365.490994 92.033162 352.890994 92.033162 
L 145.830994 92.033162 
Q 133.230994 92.033162 133.230994 104.633162 
L 133.230994 166.373162 
Q 133.230994 178.973162 145.830994 178.973162 
z
" style="fill: #ffffff; stroke: #000000; stroke-linejoin: miter"/>
    </g>
    <!-- $\frac {RMSE}{ДК}$=0.126 -->
    <g transform="translate(145.830994 145.373162) scale(0.42 -0.42)">
     <defs>
      <path id="DejaVuSans-Oblique-52" d="M 1613 4147 
L 1294 2491 
L 2106 2491 
Q 2584 2491 2879 2755 
Q 3175 3019 3175 3444 
Q 3175 3784 2976 3965 
Q 2778 4147 2406 4147 
L 1613 4147 
z
M 2772 2241 
Q 2972 2194 3105 2009 
Q 3238 1825 3413 1275 
L 3809 0 
L 3144 0 
L 2778 1197 
Q 2638 1659 2453 1815 
Q 2269 1972 1888 1972 
L 1191 1972 
L 806 0 
L 172 0 
L 1081 4666 
L 2503 4666 
Q 3150 4666 3495 4373 
Q 3841 4081 3841 3531 
Q 3841 3044 3547 2687 
Q 3253 2331 2772 2241 
z
" transform="scale(0.015625)"/>
      <path id="DejaVuSans-Oblique-4d" d="M 1081 4666 
L 2028 4666 
L 2572 1522 
L 4378 4666 
L 5350 4666 
L 4441 0 
L 3828 0 
L 4622 4091 
L 2791 897 
L 2175 897 
L 1581 4103 
L 788 0 
L 172 0 
L 1081 4666 
z
" transform="scale(0.015625)"/>
      <path id="DejaVuSans-Oblique-53" d="M 3859 4513 
L 3738 3897 
Q 3422 4066 3111 4152 
Q 2800 4238 2509 4238 
Q 1944 4238 1609 3991 
Q 1275 3744 1275 3334 
Q 1275 3109 1398 2989 
Q 1522 2869 2034 2731 
L 2413 2638 
Q 3053 2472 3303 2217 
Q 3553 1963 3553 1503 
Q 3553 797 2998 353 
Q 2444 -91 1538 -91 
Q 1166 -91 791 -17 
Q 416 56 38 206 
L 166 856 
Q 513 641 861 531 
Q 1209 422 1556 422 
Q 2147 422 2503 684 
Q 2859 947 2859 1369 
Q 2859 1650 2717 1795 
Q 2575 1941 2106 2059 
L 1728 2156 
Q 1081 2325 845 2545 
Q 609 2766 609 3163 
Q 609 3859 1145 4304 
Q 1681 4750 2541 4750 
Q 2875 4750 3203 4690 
Q 3531 4631 3859 4513 
z
" transform="scale(0.015625)"/>
      <path id="DejaVuSans-Oblique-45" d="M 1081 4666 
L 4031 4666 
L 3928 4134 
L 1606 4134 
L 1338 2753 
L 3566 2753 
L 3463 2222 
L 1234 2222 
L 909 531 
L 3284 531 
L 3181 0 
L 172 0 
L 1081 4666 
z
" transform="scale(0.015625)"/>
      <path id="DejaVuSans-Oblique-414" d="M 1206 531 
L 3269 531 
L 3969 4134 
L 2453 4134 
L 2325 3472 
Q 2022 1913 1472 878 
Q 1356 666 1206 531 
z
M 284 531 
Q 741 728 934 1103 
Q 1425 2066 1756 3784 
L 1928 4666 
L 4703 4666 
L 3900 531 
L 4431 531 
L 4134 -1003 
L 3603 -1003 
L 3797 0 
L 491 0 
L 297 -1003 
L -234 -1003 
L 63 531 
L 284 531 
z
" transform="scale(0.015625)"/>
      <path id="DejaVuSans-Oblique-41a" d="M 1081 4666 
L 1713 4666 
L 1266 2359 
L 3969 4666 
L 4778 4666 
L 2616 2822 
L 3966 0 
L 3278 0 
L 2125 2403 
L 1103 1531 
L 806 0 
L 175 0 
L 1081 4666 
z
" transform="scale(0.015625)"/>
      <path id="TimesNewRomanPS-BoldMT-3d" d="M 125 2825 
L 3544 2825 
L 3544 2419 
L 125 2419 
L 125 2825 
z
M 125 1803 
L 3544 1803 
L 3544 1397 
L 125 1397 
L 125 1803 
z
" transform="scale(0.015625)"/>
      <path id="TimesNewRomanPS-BoldMT-30" d="M 2966 2119 
Q 2966 1484 2788 934 
Q 2681 597 2501 381 
Q 2322 166 2094 39 
Q 1866 -88 1597 -88 
Q 1291 -88 1044 68 
Q 797 225 606 516 
Q 469 728 366 1081 
Q 231 1559 231 2069 
Q 231 2759 425 3338 
Q 584 3816 909 4070 
Q 1234 4325 1597 4325 
Q 1966 4325 2286 4073 
Q 2606 3822 2756 3397 
Q 2966 2813 2966 2119 
z
M 2003 2125 
Q 2003 3238 1991 3422 
Q 1959 3856 1841 4009 
Q 1763 4109 1588 4109 
Q 1453 4109 1375 4034 
Q 1259 3925 1218 3648 
Q 1178 3372 1178 1719 
Q 1178 819 1241 513 
Q 1288 291 1375 216 
Q 1463 141 1606 141 
Q 1763 141 1841 241 
Q 1972 416 1991 781 
L 2003 2125 
z
" transform="scale(0.015625)"/>
      <path id="TimesNewRomanPS-BoldMT-2e" d="M 800 963 
Q 1019 963 1170 809 
Q 1322 656 1322 441 
Q 1322 225 1169 73 
Q 1016 -78 800 -78 
Q 584 -78 432 73 
Q 281 225 281 441 
Q 281 656 432 809 
Q 584 963 800 963 
z
" transform="scale(0.015625)"/>
      <path id="TimesNewRomanPS-BoldMT-31" d="M 2084 4325 
L 2084 859 
Q 2084 469 2118 361 
Q 2153 253 2262 184 
Q 2372 116 2613 116 
L 2709 116 
L 2709 0 
L 478 0 
L 478 116 
L 591 116 
Q 863 116 978 178 
Q 1094 241 1134 350 
Q 1175 459 1175 859 
L 1175 3056 
Q 1175 3350 1147 3423 
Q 1119 3497 1042 3548 
Q 966 3600 866 3600 
Q 706 3600 478 3500 
L 422 3613 
L 1981 4325 
L 2084 4325 
z
" transform="scale(0.015625)"/>
      <path id="TimesNewRomanPS-BoldMT-32" d="M 2650 0 
L 156 0 
L 156 69 
Q 1303 1434 1548 1906 
Q 1794 2378 1794 2828 
Q 1794 3156 1591 3373 
Q 1388 3591 1094 3591 
Q 613 3591 347 3109 
L 231 3150 
Q 400 3750 744 4037 
Q 1088 4325 1538 4325 
Q 1859 4325 2125 4175 
Q 2391 4025 2541 3764 
Q 2691 3503 2691 3275 
Q 2691 2859 2459 2431 
Q 2144 1853 1081 819 
L 1997 819 
Q 2334 819 2436 847 
Q 2538 875 2603 942 
Q 2669 1009 2775 1225 
L 2888 1225 
L 2650 0 
z
" transform="scale(0.015625)"/>
      <path id="TimesNewRomanPS-BoldMT-36" d="M 3006 4325 
L 3006 4238 
Q 2441 4094 2098 3867 
Q 1756 3641 1557 3317 
Q 1359 2994 1250 2516 
Q 1388 2609 1478 2638 
Q 1681 2700 1888 2700 
Q 2363 2700 2680 2354 
Q 2997 2009 2997 1413 
Q 2997 994 2825 644 
Q 2653 294 2337 103 
Q 2022 -88 1663 -88 
Q 1272 -88 940 126 
Q 609 341 423 753 
Q 238 1166 238 1650 
Q 238 2363 580 2977 
Q 922 3591 1551 3955 
Q 2181 4319 3006 4325 
z
M 1209 2263 
Q 1184 1831 1184 1631 
Q 1184 1200 1267 797 
Q 1350 394 1494 231 
Q 1597 116 1738 116 
Q 1881 116 1993 283 
Q 2106 450 2106 963 
Q 2106 1825 1897 2153 
Q 1763 2366 1534 2366 
Q 1409 2366 1209 2263 
z
" transform="scale(0.015625)"/>
     </defs>
     <use xlink:href="#DejaVuSans-Oblique-52" transform="translate(0 45.046875) scale(0.7)"/>
     <use xlink:href="#DejaVuSans-Oblique-4d" transform="translate(48.637695 45.046875) scale(0.7)"/>
     <use xlink:href="#DejaVuSans-Oblique-53" transform="translate(109.033203 45.046875) scale(0.7)"/>
     <use xlink:href="#DejaVuSans-Oblique-45" transform="translate(153.466797 45.046875) scale(0.7)"/>
     <use xlink:href="#DejaVuSans-Oblique-414" transform="translate(47 -38.232812) scale(0.7)"/>
     <use xlink:href="#DejaVuSans-Oblique-41a" transform="translate(101.6875 -38.232812) scale(0.7)"/>
     <use xlink:href="#TimesNewRomanPS-BoldMT-3d" transform="translate(210.195312 0.254688)"/>
     <use xlink:href="#TimesNewRomanPS-BoldMT-30" transform="translate(267.177734 0.254688)"/>
     <use xlink:href="#TimesNewRomanPS-BoldMT-2e" transform="translate(317.177734 0.254688)"/>
     <use xlink:href="#TimesNewRomanPS-BoldMT-31" transform="translate(342.177734 0.254688)"/>
     <use xlink:href="#TimesNewRomanPS-BoldMT-32" transform="translate(392.177734 0.254688)"/>
     <use xlink:href="#TimesNewRomanPS-BoldMT-36" transform="translate(442.177734 0.254688)"/>
     <path d="M 0 19.051563 
L 0 25.301563 
L 197.695312 25.301563 
L 197.695312 19.051563 
L 0 19.051563 
z
"/>
    </g>
   </g>
   <g id="text_16">
    <!-- гидрохинон -->
    <g transform="translate(252.385859 38.446875) scale(0.45 -0.45)">
     <defs>
      <path id="TimesNewRomanPSMT-433" d="M 2469 2863 
L 2584 2081 
L 2447 2081 
Q 2328 2469 2208 2564 
Q 2088 2659 1700 2659 
L 1094 2659 
L 1094 672 
Q 1094 341 1128 277 
Q 1163 213 1236 164 
Q 1309 116 1528 116 
L 1528 0 
L 97 0 
L 97 116 
Q 403 122 490 211 
Q 578 300 578 672 
L 578 2191 
Q 578 2494 543 2580 
Q 509 2666 423 2703 
Q 338 2741 97 2744 
L 97 2863 
L 2469 2863 
z
" transform="scale(0.015625)"/>
      <path id="TimesNewRomanPSMT-438" d="M 1094 881 
L 2331 2313 
Q 2325 2553 2240 2647 
Q 2156 2741 1950 2744 
L 1950 2863 
L 3281 2863 
L 3281 2744 
Q 3072 2744 3000 2701 
Q 2928 2659 2887 2596 
Q 2847 2534 2847 2191 
L 2847 672 
Q 2847 341 2881 277 
Q 2916 213 2989 164 
Q 3063 116 3281 116 
L 3281 0 
L 1897 0 
L 1897 116 
Q 2156 116 2243 211 
Q 2331 306 2331 672 
L 2331 2019 
L 1094 584 
Q 1100 319 1169 219 
Q 1238 119 1466 116 
L 1466 0 
L 144 0 
L 144 116 
Q 422 116 500 217 
Q 578 319 578 672 
L 578 2191 
Q 578 2525 543 2586 
Q 509 2647 437 2695 
Q 366 2744 144 2744 
L 144 2863 
L 1528 2863 
L 1528 2744 
Q 1319 2744 1247 2701 
Q 1175 2659 1134 2596 
Q 1094 2534 1094 2191 
L 1094 881 
z
" transform="scale(0.015625)"/>
      <path id="TimesNewRomanPSMT-440" d="M -6 2578 
L 875 2934 
L 994 2934 
L 994 2266 
Q 1216 2644 1439 2795 
Q 1663 2947 1909 2947 
Q 2341 2947 2628 2609 
Q 2981 2197 2981 1534 
Q 2981 794 2556 309 
Q 2206 -88 1675 -88 
Q 1444 -88 1275 -22 
Q 1150 25 994 166 
L 994 -706 
Q 994 -1000 1030 -1079 
Q 1066 -1159 1155 -1206 
Q 1244 -1253 1478 -1253 
L 1478 -1369 
L -22 -1369 
L -22 -1253 
L 56 -1253 
Q 228 -1256 350 -1188 
Q 409 -1153 442 -1076 
Q 475 -1000 475 -688 
L 475 2019 
Q 475 2297 450 2372 
Q 425 2447 370 2484 
Q 316 2522 222 2522 
Q 147 2522 31 2478 
L -6 2578 
z
M 994 2081 
L 994 1013 
Q 994 666 1022 556 
Q 1066 375 1236 237 
Q 1406 100 1666 100 
Q 1978 100 2172 344 
Q 2425 663 2425 1241 
Q 2425 1897 2138 2250 
Q 1938 2494 1663 2494 
Q 1513 2494 1366 2419 
Q 1253 2363 994 2081 
z
" transform="scale(0.015625)"/>
      <path id="TimesNewRomanPSMT-445" d="M 84 2863 
L 1431 2863 
L 1431 2747 
Q 1303 2747 1251 2703 
Q 1200 2659 1200 2588 
Q 1200 2513 1309 2356 
Q 1344 2306 1413 2200 
L 1616 1875 
L 1850 2200 
Q 2075 2509 2075 2591 
Q 2075 2656 2022 2701 
Q 1969 2747 1850 2747 
L 1850 2863 
L 2819 2863 
L 2819 2747 
Q 2666 2738 2553 2663 
Q 2400 2556 2134 2200 
L 1744 1678 
L 2456 653 
Q 2719 275 2831 198 
Q 2944 122 3122 113 
L 3122 0 
L 1772 0 
L 1772 113 
Q 1913 113 1991 175 
Q 2050 219 2050 291 
Q 2050 363 1850 653 
L 1431 1266 
L 972 653 
Q 759 369 759 316 
Q 759 241 829 180 
Q 900 119 1041 113 
L 1041 0 
L 106 0 
L 106 113 
Q 219 128 303 191 
Q 422 281 703 653 
L 1303 1450 
L 759 2238 
Q 528 2575 401 2661 
Q 275 2747 84 2747 
L 84 2863 
z
" transform="scale(0.015625)"/>
     </defs>
     <use xlink:href="#TimesNewRomanPSMT-433"/>
     <use xlink:href="#TimesNewRomanPSMT-438" x="41.015625"/>
     <use xlink:href="#TimesNewRomanPSMT-434" x="94.53125"/>
     <use xlink:href="#TimesNewRomanPSMT-440" x="145.410156"/>
     <use xlink:href="#TimesNewRomanPSMT-43e" x="195.410156"/>
     <use xlink:href="#TimesNewRomanPSMT-445" x="242.910156"/>
     <use xlink:href="#TimesNewRomanPSMT-438" x="292.910156"/>
     <use xlink:href="#TimesNewRomanPSMT-43d" x="346.425781"/>
     <use xlink:href="#TimesNewRomanPSMT-43e" x="399.941406"/>
     <use xlink:href="#TimesNewRomanPSMT-43d" x="449.941406"/>
    </g>
   </g>
  </g>
  <g id="axes_2">
   <g id="patch_8">
    <path d="M 797.297813 560.866875 
L 1280.927813 560.866875 
L 1280.927813 53.446875 
L 797.297813 53.446875 
z
" style="fill: #ffffff"/>
   </g>
   <g id="matplotlib.axis_3">
    <g id="xtick_7">
     <g id="line2d_27">
      <path d="M 819.280994 560.866875 
L 819.280994 53.446875 
" clip-path="url(#p1597b9f028)" style="fill: none; stroke: #000000; stroke-width: 0.7; stroke-linecap: square"/>
     </g>
     <g id="line2d_28">
      <g>
       <use xlink:href="#m198d6f2884" x="819.280994" y="560.866875" style="stroke: #000000; stroke-width: 2"/>
      </g>
     </g>
     <g id="text_17">
      <!-- 0 -->
      <g transform="translate(809.280994 592.141875) scale(0.4 -0.4)">
       <use xlink:href="#TimesNewRomanPSMT-30"/>
      </g>
     </g>
    </g>
    <g id="xtick_8">
     <g id="line2d_29">
      <path d="M 907.213722 560.866875 
L 907.213722 53.446875 
" clip-path="url(#p1597b9f028)" style="fill: none; stroke: #000000; stroke-width: 0.7; stroke-linecap: square"/>
     </g>
     <g id="line2d_30">
      <g>
       <use xlink:href="#m198d6f2884" x="907.213722" y="560.866875" style="stroke: #000000; stroke-width: 2"/>
      </g>
     </g>
     <g id="text_18">
      <!-- 5 -->
      <g transform="translate(897.213722 592.141875) scale(0.4 -0.4)">
       <use xlink:href="#TimesNewRomanPSMT-35"/>
      </g>
     </g>
    </g>
    <g id="xtick_9">
     <g id="line2d_31">
      <path d="M 995.146449 560.866875 
L 995.146449 53.446875 
" clip-path="url(#p1597b9f028)" style="fill: none; stroke: #000000; stroke-width: 0.7; stroke-linecap: square"/>
     </g>
     <g id="line2d_32">
      <g>
       <use xlink:href="#m198d6f2884" x="995.146449" y="560.866875" style="stroke: #000000; stroke-width: 2"/>
      </g>
     </g>
     <g id="text_19">
      <!-- 10 -->
      <g transform="translate(975.146449 592.141875) scale(0.4 -0.4)">
       <use xlink:href="#TimesNewRomanPSMT-31"/>
       <use xlink:href="#TimesNewRomanPSMT-30" x="50"/>
      </g>
     </g>
    </g>
    <g id="xtick_10">
     <g id="line2d_33">
      <path d="M 1083.079176 560.866875 
L 1083.079176 53.446875 
" clip-path="url(#p1597b9f028)" style="fill: none; stroke: #000000; stroke-width: 0.7; stroke-linecap: square"/>
     </g>
     <g id="line2d_34">
      <g>
       <use xlink:href="#m198d6f2884" x="1083.079176" y="560.866875" style="stroke: #000000; stroke-width: 2"/>
      </g>
     </g>
     <g id="text_20">
      <!-- 15 -->
      <g transform="translate(1063.079176 592.141875) scale(0.4 -0.4)">
       <use xlink:href="#TimesNewRomanPSMT-31"/>
       <use xlink:href="#TimesNewRomanPSMT-35" x="50"/>
      </g>
     </g>
    </g>
    <g id="xtick_11">
     <g id="line2d_35">
      <path d="M 1171.011903 560.866875 
L 1171.011903 53.446875 
" clip-path="url(#p1597b9f028)" style="fill: none; stroke: #000000; stroke-width: 0.7; stroke-linecap: square"/>
     </g>
     <g id="line2d_36">
      <g>
       <use xlink:href="#m198d6f2884" x="1171.011903" y="560.866875" style="stroke: #000000; stroke-width: 2"/>
      </g>
     </g>
     <g id="text_21">
      <!-- 20 -->
      <g transform="translate(1151.011903 592.141875) scale(0.4 -0.4)">
       <use xlink:href="#TimesNewRomanPSMT-32"/>
       <use xlink:href="#TimesNewRomanPSMT-30" x="50"/>
      </g>
     </g>
    </g>
    <g id="xtick_12">
     <g id="line2d_37">
      <path d="M 1258.944631 560.866875 
L 1258.944631 53.446875 
" clip-path="url(#p1597b9f028)" style="fill: none; stroke: #000000; stroke-width: 0.7; stroke-linecap: square"/>
     </g>
     <g id="line2d_38">
      <g>
       <use xlink:href="#m198d6f2884" x="1258.944631" y="560.866875" style="stroke: #000000; stroke-width: 2"/>
      </g>
     </g>
     <g id="text_22">
      <!-- 25 -->
      <g transform="translate(1238.944631 592.141875) scale(0.4 -0.4)">
       <use xlink:href="#TimesNewRomanPSMT-32"/>
       <use xlink:href="#TimesNewRomanPSMT-35" x="50"/>
      </g>
     </g>
    </g>
    <g id="text_23">
     <!-- Введено -->
     <g transform="translate(964.543125 644.861875) scale(0.42 -0.42)">
      <use xlink:href="#TimesNewRomanPSMT-412"/>
      <use xlink:href="#TimesNewRomanPSMT-432" x="66.699219"/>
      <use xlink:href="#TimesNewRomanPSMT-435" x="113.291016"/>
      <use xlink:href="#TimesNewRomanPSMT-434" x="156.300781"/>
      <use xlink:href="#TimesNewRomanPSMT-435" x="207.179688"/>
      <use xlink:href="#TimesNewRomanPSMT-43d" x="251.564453"/>
      <use xlink:href="#TimesNewRomanPSMT-43e" x="305.080078"/>
     </g>
    </g>
   </g>
   <g id="matplotlib.axis_4">
    <g id="ytick_7">
     <g id="line2d_39">
      <path d="M 797.297813 511.678153 
L 1280.927813 511.678153 
" clip-path="url(#p1597b9f028)" style="fill: none; stroke: #000000; stroke-width: 0.7; stroke-linecap: square"/>
     </g>
     <g id="line2d_40">
      <g>
       <use xlink:href="#meaf301f4ff" x="797.297813" y="511.678153" style="stroke: #000000; stroke-width: 2"/>
      </g>
     </g>
     <g id="text_24">
      <!-- 0 -->
      <g transform="translate(773.797813 525.565653) scale(0.4 -0.4)">
       <use xlink:href="#TimesNewRomanPSMT-30"/>
      </g>
     </g>
    </g>
    <g id="ytick_8">
     <g id="line2d_41">
      <path d="M 797.297813 424.644806 
L 1280.927813 424.644806 
" clip-path="url(#p1597b9f028)" style="fill: none; stroke: #000000; stroke-width: 0.7; stroke-linecap: square"/>
     </g>
     <g id="line2d_42">
      <g>
       <use xlink:href="#meaf301f4ff" x="797.297813" y="424.644806" style="stroke: #000000; stroke-width: 2"/>
      </g>
     </g>
     <g id="text_25">
      <!-- 5 -->
      <g transform="translate(773.797813 438.532306) scale(0.4 -0.4)">
       <use xlink:href="#TimesNewRomanPSMT-35"/>
      </g>
     </g>
    </g>
    <g id="ytick_9">
     <g id="line2d_43">
      <path d="M 797.297813 337.61146 
L 1280.927813 337.61146 
" clip-path="url(#p1597b9f028)" style="fill: none; stroke: #000000; stroke-width: 0.7; stroke-linecap: square"/>
     </g>
     <g id="line2d_44">
      <g>
       <use xlink:href="#meaf301f4ff" x="797.297813" y="337.61146" style="stroke: #000000; stroke-width: 2"/>
      </g>
     </g>
     <g id="text_26">
      <!-- 10 -->
      <g transform="translate(753.797813 351.49896) scale(0.4 -0.4)">
       <use xlink:href="#TimesNewRomanPSMT-31"/>
       <use xlink:href="#TimesNewRomanPSMT-30" x="50"/>
      </g>
     </g>
    </g>
    <g id="ytick_10">
     <g id="line2d_45">
      <path d="M 797.297813 250.578113 
L 1280.927813 250.578113 
" clip-path="url(#p1597b9f028)" style="fill: none; stroke: #000000; stroke-width: 0.7; stroke-linecap: square"/>
     </g>
     <g id="line2d_46">
      <g>
       <use xlink:href="#meaf301f4ff" x="797.297813" y="250.578113" style="stroke: #000000; stroke-width: 2"/>
      </g>
     </g>
     <g id="text_27">
      <!-- 15 -->
      <g transform="translate(753.797813 264.465613) scale(0.4 -0.4)">
       <use xlink:href="#TimesNewRomanPSMT-31"/>
       <use xlink:href="#TimesNewRomanPSMT-35" x="50"/>
      </g>
     </g>
    </g>
    <g id="ytick_11">
     <g id="line2d_47">
      <path d="M 797.297813 163.544767 
L 1280.927813 163.544767 
" clip-path="url(#p1597b9f028)" style="fill: none; stroke: #000000; stroke-width: 0.7; stroke-linecap: square"/>
     </g>
     <g id="line2d_48">
      <g>
       <use xlink:href="#meaf301f4ff" x="797.297813" y="163.544767" style="stroke: #000000; stroke-width: 2"/>
      </g>
     </g>
     <g id="text_28">
      <!-- 20 -->
      <g transform="translate(753.797813 177.432267) scale(0.4 -0.4)">
       <use xlink:href="#TimesNewRomanPSMT-32"/>
       <use xlink:href="#TimesNewRomanPSMT-30" x="50"/>
      </g>
     </g>
    </g>
    <g id="ytick_12">
     <g id="line2d_49">
      <path d="M 797.297813 76.51142 
L 1280.927813 76.51142 
" clip-path="url(#p1597b9f028)" style="fill: none; stroke: #000000; stroke-width: 0.7; stroke-linecap: square"/>
     </g>
     <g id="line2d_50">
      <g>
       <use xlink:href="#meaf301f4ff" x="797.297813" y="76.51142" style="stroke: #000000; stroke-width: 2"/>
      </g>
     </g>
     <g id="text_29">
      <!-- 25 -->
      <g transform="translate(753.797813 90.39892) scale(0.4 -0.4)">
       <use xlink:href="#TimesNewRomanPSMT-32"/>
       <use xlink:href="#TimesNewRomanPSMT-35" x="50"/>
      </g>
     </g>
    </g>
    <g id="text_30">
     <!-- Найдено -->
     <g transform="translate(729.81375 384.627188) rotate(-90) scale(0.42 -0.42)">
      <use xlink:href="#TimesNewRomanPSMT-41d"/>
      <use xlink:href="#TimesNewRomanPSMT-430" x="72.216797"/>
      <use xlink:href="#TimesNewRomanPSMT-439" x="116.601562"/>
      <use xlink:href="#TimesNewRomanPSMT-434" x="170.117188"/>
      <use xlink:href="#TimesNewRomanPSMT-435" x="220.996094"/>
      <use xlink:href="#TimesNewRomanPSMT-43d" x="265.380859"/>
      <use xlink:href="#TimesNewRomanPSMT-43e" x="318.896484"/>
     </g>
    </g>
   </g>
   <g id="line2d_51">
    <path d="M 819.280994 511.678153 
L 819.280994 511.678153 
L 819.280994 511.678153 
L 1258.944631 76.51142 
L 889.627176 442.051475 
L 854.454085 476.864814 
L 836.86754 494.271483 
L 889.627176 442.051475 
L 854.454085 476.864814 
L 819.280994 511.678153 
L 959.973358 372.424798 
L 819.280994 511.678153 
L 819.280994 511.678153 
L 819.280994 511.678153 
L 819.280994 511.678153 
L 1100.665722 233.171444 
L 836.86754 494.271483 
L 828.074267 502.974818 
L 823.677631 507.326485 
L 889.627176 442.051475 
L 854.454085 476.864814 
L 959.973358 372.424798 
L 959.973358 372.424798 
L 959.973358 372.424798 
L 959.973358 372.424798 
L 959.973358 372.424798 
L 854.454085 476.864814 
" clip-path="url(#p1597b9f028)" style="fill: none; stroke: #0000ff; stroke-width: 3; stroke-linecap: square"/>
   </g>
   <g id="line2d_52">
    <g clip-path="url(#p1597b9f028)">
     <use xlink:href="#mc505eb82bc" x="819.280994" y="511.005074" style="fill: #ff0000; stroke: #ff0000"/>
     <use xlink:href="#mc505eb82bc" x="819.280994" y="403.471133" style="fill: #ff0000; stroke: #ff0000"/>
     <use xlink:href="#mc505eb82bc" x="819.280994" y="537.80233" style="fill: #ff0000; stroke: #ff0000"/>
     <use xlink:href="#mc505eb82bc" x="1258.944631" y="82.891568" style="fill: #ff0000; stroke: #ff0000"/>
     <use xlink:href="#mc505eb82bc" x="889.627176" y="511.252342" style="fill: #ff0000; stroke: #ff0000"/>
     <use xlink:href="#mc505eb82bc" x="854.454085" y="484.003474" style="fill: #ff0000; stroke: #ff0000"/>
     <use xlink:href="#mc505eb82bc" x="836.86754" y="494.79734" style="fill: #ff0000; stroke: #ff0000"/>
     <use xlink:href="#mc505eb82bc" x="889.627176" y="440.755772" style="fill: #ff0000; stroke: #ff0000"/>
     <use xlink:href="#mc505eb82bc" x="854.454085" y="468.48501" style="fill: #ff0000; stroke: #ff0000"/>
     <use xlink:href="#mc505eb82bc" x="819.280994" y="524.433756" style="fill: #ff0000; stroke: #ff0000"/>
     <use xlink:href="#mc505eb82bc" x="959.973358" y="363.790198" style="fill: #ff0000; stroke: #ff0000"/>
     <use xlink:href="#mc505eb82bc" x="819.280994" y="510.557052" style="fill: #ff0000; stroke: #ff0000"/>
     <use xlink:href="#mc505eb82bc" x="819.280994" y="515.338215" style="fill: #ff0000; stroke: #ff0000"/>
     <use xlink:href="#mc505eb82bc" x="819.280994" y="515.51962" style="fill: #ff0000; stroke: #ff0000"/>
     <use xlink:href="#mc505eb82bc" x="819.280994" y="514.383817" style="fill: #ff0000; stroke: #ff0000"/>
     <use xlink:href="#mc505eb82bc" x="1100.665722" y="231.392357" style="fill: #ff0000; stroke: #ff0000"/>
     <use xlink:href="#mc505eb82bc" x="836.86754" y="492.148715" style="fill: #ff0000; stroke: #ff0000"/>
     <use xlink:href="#mc505eb82bc" x="828.074267" y="498.929969" style="fill: #ff0000; stroke: #ff0000"/>
     <use xlink:href="#mc505eb82bc" x="823.677631" y="500.807356" style="fill: #ff0000; stroke: #ff0000"/>
     <use xlink:href="#mc505eb82bc" x="889.627176" y="437.975739" style="fill: #ff0000; stroke: #ff0000"/>
     <use xlink:href="#mc505eb82bc" x="854.454085" y="478.789426" style="fill: #ff0000; stroke: #ff0000"/>
     <use xlink:href="#mc505eb82bc" x="959.973358" y="395.633042" style="fill: #ff0000; stroke: #ff0000"/>
     <use xlink:href="#mc505eb82bc" x="959.973358" y="352.651876" style="fill: #ff0000; stroke: #ff0000"/>
     <use xlink:href="#mc505eb82bc" x="959.973358" y="377.613278" style="fill: #ff0000; stroke: #ff0000"/>
     <use xlink:href="#mc505eb82bc" x="959.973358" y="378.107839" style="fill: #ff0000; stroke: #ff0000"/>
     <use xlink:href="#mc505eb82bc" x="959.973358" y="374.197196" style="fill: #ff0000; stroke: #ff0000"/>
     <use xlink:href="#mc505eb82bc" x="854.454085" y="481.210934" style="fill: #ff0000; stroke: #ff0000"/>
    </g>
   </g>
   <g id="patch_9">
    <path d="M 797.297813 560.866875 
L 797.297813 53.446875 
" style="fill: none; stroke: #000000; stroke-width: 0.8; stroke-linejoin: miter; stroke-linecap: square"/>
   </g>
   <g id="patch_10">
    <path d="M 1280.927813 560.866875 
L 1280.927813 53.446875 
" style="fill: none; stroke: #000000; stroke-width: 0.8; stroke-linejoin: miter; stroke-linecap: square"/>
   </g>
   <g id="patch_11">
    <path d="M 797.297813 560.866875 
L 1280.927813 560.866875 
" style="fill: none; stroke: #000000; stroke-width: 0.8; stroke-linejoin: miter; stroke-linecap: square"/>
   </g>
   <g id="patch_12">
    <path d="M 797.297813 53.446875 
L 1280.927813 53.446875 
" style="fill: none; stroke: #000000; stroke-width: 0.8; stroke-linejoin: miter; stroke-linecap: square"/>
   </g>
   <g id="text_31">
    <g id="patch_13">
     <path d="M 819.280994 175.38643 
L 1047.340994 175.38643 
Q 1059.940994 175.38643 1059.940994 162.78643 
L 1059.940994 101.04643 
Q 1059.940994 88.44643 1047.340994 88.44643 
L 819.280994 88.44643 
Q 806.680994 88.44643 806.680994 101.04643 
L 806.680994 162.78643 
Q 806.680994 175.38643 819.280994 175.38643 
z
" style="fill: #ffffff; stroke: #000000; stroke-linejoin: miter"/>
    </g>
    <!-- $\frac {RMSE}{ДК}$=0.0605 -->
    <g transform="translate(819.280994 141.78643) scale(0.42 -0.42)">
     <defs>
      <path id="TimesNewRomanPS-BoldMT-35" d="M 975 4238 
L 2959 4238 
L 2644 3431 
L 975 3431 
L 816 3009 
Q 1894 2969 2475 2472 
Q 2953 2063 2953 1453 
Q 2953 1063 2731 689 
Q 2509 316 2106 114 
Q 1703 -88 1222 -88 
Q 703 -88 425 106 
Q 231 244 231 419 
Q 231 553 332 656 
Q 434 759 569 759 
Q 691 759 816 709 
Q 941 659 1244 447 
Q 1434 316 1572 266 
Q 1669 228 1791 228 
Q 2047 228 2226 415 
Q 2406 603 2406 866 
Q 2406 1416 1856 1759 
Q 1306 2103 469 2103 
Q 384 2103 216 2100 
L 975 4238 
z
" transform="scale(0.015625)"/>
     </defs>
     <use xlink:href="#DejaVuSans-Oblique-52" transform="translate(0 45.046875) scale(0.7)"/>
     <use xlink:href="#DejaVuSans-Oblique-4d" transform="translate(48.637695 45.046875) scale(0.7)"/>
     <use xlink:href="#DejaVuSans-Oblique-53" transform="translate(109.033203 45.046875) scale(0.7)"/>
     <use xlink:href="#DejaVuSans-Oblique-45" transform="translate(153.466797 45.046875) scale(0.7)"/>
     <use xlink:href="#DejaVuSans-Oblique-414" transform="translate(47 -38.232812) scale(0.7)"/>
     <use xlink:href="#DejaVuSans-Oblique-41a" transform="translate(101.6875 -38.232812) scale(0.7)"/>
     <use xlink:href="#TimesNewRomanPS-BoldMT-3d" transform="translate(210.195312 0.254688)"/>
     <use xlink:href="#TimesNewRomanPS-BoldMT-30" transform="translate(267.177734 0.254688)"/>
     <use xlink:href="#TimesNewRomanPS-BoldMT-2e" transform="translate(317.177734 0.254688)"/>
     <use xlink:href="#TimesNewRomanPS-BoldMT-30" transform="translate(342.177734 0.254688)"/>
     <use xlink:href="#TimesNewRomanPS-BoldMT-36" transform="translate(392.177734 0.254688)"/>
     <use xlink:href="#TimesNewRomanPS-BoldMT-30" transform="translate(442.177734 0.254688)"/>
     <use xlink:href="#TimesNewRomanPS-BoldMT-35" transform="translate(492.177734 0.254688)"/>
     <path d="M 0 19.051563 
L 0 25.301563 
L 197.695312 25.301563 
L 197.695312 19.051563 
L 0 19.051563 
z
"/>
    </g>
   </g>
   <g id="text_32">
    <!-- триптофан -->
    <g transform="translate(936.284297 38.446875) scale(0.45 -0.45)">
     <defs>
      <path id="TimesNewRomanPSMT-442" d="M 156 2863 
L 2631 2863 
L 2756 2088 
L 2616 2088 
Q 2578 2322 2490 2450 
Q 2403 2578 2290 2618 
Q 2178 2659 1906 2659 
L 1656 2659 
L 1656 672 
Q 1656 353 1695 267 
Q 1734 181 1821 153 
Q 1909 125 2222 116 
L 2222 0 
L 666 0 
L 666 116 
Q 966 122 1052 212 
Q 1138 303 1138 672 
L 1138 2659 
L 881 2659 
Q 613 2659 516 2626 
Q 419 2594 330 2470 
Q 241 2347 178 2088 
L 38 2088 
L 156 2863 
z
" transform="scale(0.015625)"/>
      <path id="TimesNewRomanPSMT-43f" d="M 2331 2659 
L 1094 2659 
L 1094 672 
Q 1094 341 1128 277 
Q 1163 213 1236 164 
Q 1309 116 1528 116 
L 1528 0 
L 144 0 
L 144 116 
Q 422 116 500 217 
Q 578 319 578 672 
L 578 2191 
Q 578 2525 543 2586 
Q 509 2647 437 2695 
Q 366 2744 144 2744 
L 144 2863 
L 3281 2863 
L 3281 2744 
Q 3072 2744 3000 2701 
Q 2928 2659 2887 2596 
Q 2847 2534 2847 2191 
L 2847 672 
Q 2847 341 2881 277 
Q 2916 213 2989 164 
Q 3063 116 3281 116 
L 3281 0 
L 1897 0 
L 1897 116 
Q 2156 116 2243 211 
Q 2331 306 2331 672 
L 2331 2659 
z
" transform="scale(0.015625)"/>
      <path id="TimesNewRomanPSMT-444" d="M 1334 4091 
L 2178 4444 
L 2316 4444 
L 2316 2684 
Q 2600 2947 2894 2947 
Q 3297 2947 3586 2503 
Q 3875 2059 3875 1428 
Q 3875 809 3581 360 
Q 3288 -88 2869 -88 
Q 2559 -88 2316 188 
L 2316 -697 
Q 2316 -1009 2352 -1095 
Q 2388 -1181 2481 -1217 
Q 2575 -1253 2875 -1253 
L 2875 -1369 
L 1334 -1369 
L 1334 -1253 
Q 1647 -1253 1739 -1164 
Q 1831 -1075 1831 -697 
L 1831 188 
Q 1597 -88 1281 -88 
Q 847 -88 559 362 
Q 272 813 272 1459 
Q 272 2044 547 2495 
Q 822 2947 1266 2947 
Q 1594 2947 1831 2647 
L 1831 3422 
Q 1831 3822 1781 3931 
Q 1731 4041 1606 4041 
Q 1503 4041 1381 3988 
L 1334 4091 
z
M 1831 2369 
Q 1656 2738 1381 2738 
Q 1116 2738 967 2389 
Q 819 2041 819 1353 
Q 819 747 967 436 
Q 1116 125 1381 125 
Q 1625 125 1831 409 
L 1831 2369 
z
M 2316 463 
Q 2378 300 2512 212 
Q 2647 125 2769 125 
Q 3009 125 3164 428 
Q 3319 731 3319 1375 
Q 3319 2738 2778 2738 
Q 2550 2738 2316 2484 
L 2316 463 
z
" transform="scale(0.015625)"/>
     </defs>
     <use xlink:href="#TimesNewRomanPSMT-442"/>
     <use xlink:href="#TimesNewRomanPSMT-440" x="44.951172"/>
     <use xlink:href="#TimesNewRomanPSMT-438" x="94.951172"/>
     <use xlink:href="#TimesNewRomanPSMT-43f" x="148.466797"/>
     <use xlink:href="#TimesNewRomanPSMT-442" x="201.982422"/>
     <use xlink:href="#TimesNewRomanPSMT-43e" x="244.308594"/>
     <use xlink:href="#TimesNewRomanPSMT-444" x="294.308594"/>
     <use xlink:href="#TimesNewRomanPSMT-430" x="359.103516"/>
     <use xlink:href="#TimesNewRomanPSMT-43d" x="403.488281"/>
    </g>
   </g>
  </g>
  <g id="axes_3">
   <g id="patch_14">
    <path d="M 123.847813 1259.066875 
L 607.477813 1259.066875 
L 607.477813 751.646875 
L 123.847813 751.646875 
z
" style="fill: #ffffff"/>
   </g>
   <g id="matplotlib.axis_5">
    <g id="xtick_13">
     <g id="line2d_53">
      <path d="M 145.830994 1259.066875 
L 145.830994 751.646875 
" clip-path="url(#p3f2a1bd784)" style="fill: none; stroke: #000000; stroke-width: 0.7; stroke-linecap: square"/>
     </g>
     <g id="line2d_54">
      <g>
       <use xlink:href="#m198d6f2884" x="145.830994" y="1259.066875" style="stroke: #000000; stroke-width: 2"/>
      </g>
     </g>
     <g id="text_33">
      <!-- 0 -->
      <g transform="translate(135.830994 1290.341875) scale(0.4 -0.4)">
       <use xlink:href="#TimesNewRomanPSMT-30"/>
      </g>
     </g>
    </g>
    <g id="xtick_14">
     <g id="line2d_55">
      <path d="M 224.342358 1259.066875 
L 224.342358 751.646875 
" clip-path="url(#p3f2a1bd784)" style="fill: none; stroke: #000000; stroke-width: 0.7; stroke-linecap: square"/>
     </g>
     <g id="line2d_56">
      <g>
       <use xlink:href="#m198d6f2884" x="224.342358" y="1259.066875" style="stroke: #000000; stroke-width: 2"/>
      </g>
     </g>
     <g id="text_34">
      <!-- 20 -->
      <g transform="translate(204.342358 1290.341875) scale(0.4 -0.4)">
       <use xlink:href="#TimesNewRomanPSMT-32"/>
       <use xlink:href="#TimesNewRomanPSMT-30" x="50"/>
      </g>
     </g>
    </g>
    <g id="xtick_15">
     <g id="line2d_57">
      <path d="M 302.853722 1259.066875 
L 302.853722 751.646875 
" clip-path="url(#p3f2a1bd784)" style="fill: none; stroke: #000000; stroke-width: 0.7; stroke-linecap: square"/>
     </g>
     <g id="line2d_58">
      <g>
       <use xlink:href="#m198d6f2884" x="302.853722" y="1259.066875" style="stroke: #000000; stroke-width: 2"/>
      </g>
     </g>
     <g id="text_35">
      <!-- 40 -->
      <g transform="translate(282.853722 1290.341875) scale(0.4 -0.4)">
       <defs>
        <path id="TimesNewRomanPSMT-34" d="M 2978 1563 
L 2978 1119 
L 2409 1119 
L 2409 0 
L 1894 0 
L 1894 1119 
L 100 1119 
L 100 1519 
L 2066 4325 
L 2409 4325 
L 2409 1563 
L 2978 1563 
z
M 1894 1563 
L 1894 3666 
L 406 1563 
L 1894 1563 
z
" transform="scale(0.015625)"/>
       </defs>
       <use xlink:href="#TimesNewRomanPSMT-34"/>
       <use xlink:href="#TimesNewRomanPSMT-30" x="50"/>
      </g>
     </g>
    </g>
    <g id="xtick_16">
     <g id="line2d_59">
      <path d="M 381.365085 1259.066875 
L 381.365085 751.646875 
" clip-path="url(#p3f2a1bd784)" style="fill: none; stroke: #000000; stroke-width: 0.7; stroke-linecap: square"/>
     </g>
     <g id="line2d_60">
      <g>
       <use xlink:href="#m198d6f2884" x="381.365085" y="1259.066875" style="stroke: #000000; stroke-width: 2"/>
      </g>
     </g>
     <g id="text_36">
      <!-- 60 -->
      <g transform="translate(361.365085 1290.341875) scale(0.4 -0.4)">
       <defs>
        <path id="TimesNewRomanPSMT-36" d="M 2869 4325 
L 2869 4209 
Q 2456 4169 2195 4045 
Q 1934 3922 1679 3669 
Q 1425 3416 1258 3105 
Q 1091 2794 978 2366 
Q 1428 2675 1881 2675 
Q 2316 2675 2634 2325 
Q 2953 1975 2953 1425 
Q 2953 894 2631 456 
Q 2244 -75 1606 -75 
Q 1172 -75 869 213 
Q 275 772 275 1663 
Q 275 2231 503 2743 
Q 731 3256 1154 3653 
Q 1578 4050 1965 4187 
Q 2353 4325 2688 4325 
L 2869 4325 
z
M 925 2138 
Q 869 1716 869 1456 
Q 869 1156 980 804 
Q 1091 453 1309 247 
Q 1469 100 1697 100 
Q 1969 100 2183 356 
Q 2397 613 2397 1088 
Q 2397 1622 2184 2012 
Q 1972 2403 1581 2403 
Q 1463 2403 1327 2353 
Q 1191 2303 925 2138 
z
" transform="scale(0.015625)"/>
       </defs>
       <use xlink:href="#TimesNewRomanPSMT-36"/>
       <use xlink:href="#TimesNewRomanPSMT-30" x="50"/>
      </g>
     </g>
    </g>
    <g id="xtick_17">
     <g id="line2d_61">
      <path d="M 459.876449 1259.066875 
L 459.876449 751.646875 
" clip-path="url(#p3f2a1bd784)" style="fill: none; stroke: #000000; stroke-width: 0.7; stroke-linecap: square"/>
     </g>
     <g id="line2d_62">
      <g>
       <use xlink:href="#m198d6f2884" x="459.876449" y="1259.066875" style="stroke: #000000; stroke-width: 2"/>
      </g>
     </g>
     <g id="text_37">
      <!-- 80 -->
      <g transform="translate(439.876449 1290.341875) scale(0.4 -0.4)">
       <defs>
        <path id="TimesNewRomanPSMT-38" d="M 1228 2134 
Q 725 2547 579 2797 
Q 434 3047 434 3316 
Q 434 3728 753 4026 
Q 1072 4325 1600 4325 
Q 2113 4325 2425 4047 
Q 2738 3769 2738 3413 
Q 2738 3175 2569 2928 
Q 2400 2681 1866 2347 
Q 2416 1922 2594 1678 
Q 2831 1359 2831 1006 
Q 2831 559 2490 242 
Q 2150 -75 1597 -75 
Q 994 -75 656 303 
Q 388 606 388 966 
Q 388 1247 577 1523 
Q 766 1800 1228 2134 
z
M 1719 2469 
Q 2094 2806 2194 3001 
Q 2294 3197 2294 3444 
Q 2294 3772 2109 3958 
Q 1925 4144 1606 4144 
Q 1288 4144 1088 3959 
Q 888 3775 888 3528 
Q 888 3366 970 3203 
Q 1053 3041 1206 2894 
L 1719 2469 
z
M 1375 2016 
Q 1116 1797 991 1539 
Q 866 1281 866 981 
Q 866 578 1086 336 
Q 1306 94 1647 94 
Q 1984 94 2187 284 
Q 2391 475 2391 747 
Q 2391 972 2272 1150 
Q 2050 1481 1375 2016 
z
" transform="scale(0.015625)"/>
       </defs>
       <use xlink:href="#TimesNewRomanPSMT-38"/>
       <use xlink:href="#TimesNewRomanPSMT-30" x="50"/>
      </g>
     </g>
    </g>
    <g id="xtick_18">
     <g id="line2d_63">
      <path d="M 538.387813 1259.066875 
L 538.387813 751.646875 
" clip-path="url(#p3f2a1bd784)" style="fill: none; stroke: #000000; stroke-width: 0.7; stroke-linecap: square"/>
     </g>
     <g id="line2d_64">
      <g>
       <use xlink:href="#m198d6f2884" x="538.387813" y="1259.066875" style="stroke: #000000; stroke-width: 2"/>
      </g>
     </g>
     <g id="text_38">
      <!-- 100 -->
      <g transform="translate(508.387813 1290.341875) scale(0.4 -0.4)">
       <use xlink:href="#TimesNewRomanPSMT-31"/>
       <use xlink:href="#TimesNewRomanPSMT-30" x="50"/>
       <use xlink:href="#TimesNewRomanPSMT-30" x="100"/>
      </g>
     </g>
    </g>
    <g id="text_39">
     <!-- Введено -->
     <g transform="translate(291.093125 1343.061875) scale(0.42 -0.42)">
      <use xlink:href="#TimesNewRomanPSMT-412"/>
      <use xlink:href="#TimesNewRomanPSMT-432" x="66.699219"/>
      <use xlink:href="#TimesNewRomanPSMT-435" x="113.291016"/>
      <use xlink:href="#TimesNewRomanPSMT-434" x="156.300781"/>
      <use xlink:href="#TimesNewRomanPSMT-435" x="207.179688"/>
      <use xlink:href="#TimesNewRomanPSMT-43d" x="251.564453"/>
      <use xlink:href="#TimesNewRomanPSMT-43e" x="305.080078"/>
     </g>
    </g>
   </g>
   <g id="matplotlib.axis_6">
    <g id="ytick_13">
     <g id="line2d_65">
      <path d="M 123.847813 1206.505699 
L 607.477813 1206.505699 
" clip-path="url(#p3f2a1bd784)" style="fill: none; stroke: #000000; stroke-width: 0.7; stroke-linecap: square"/>
     </g>
     <g id="line2d_66">
      <g>
       <use xlink:href="#meaf301f4ff" x="123.847813" y="1206.505699" style="stroke: #000000; stroke-width: 2"/>
      </g>
     </g>
     <g id="text_40">
      <!-- 0 -->
      <g transform="translate(100.347813 1220.393199) scale(0.4 -0.4)">
       <use xlink:href="#TimesNewRomanPSMT-30"/>
      </g>
     </g>
    </g>
    <g id="ytick_14">
     <g id="line2d_67">
      <path d="M 123.847813 1129.399578 
L 607.477813 1129.399578 
" clip-path="url(#p3f2a1bd784)" style="fill: none; stroke: #000000; stroke-width: 0.7; stroke-linecap: square"/>
     </g>
     <g id="line2d_68">
      <g>
       <use xlink:href="#meaf301f4ff" x="123.847813" y="1129.399578" style="stroke: #000000; stroke-width: 2"/>
      </g>
     </g>
     <g id="text_41">
      <!-- 20 -->
      <g transform="translate(80.347813 1143.287078) scale(0.4 -0.4)">
       <use xlink:href="#TimesNewRomanPSMT-32"/>
       <use xlink:href="#TimesNewRomanPSMT-30" x="50"/>
      </g>
     </g>
    </g>
    <g id="ytick_15">
     <g id="line2d_69">
      <path d="M 123.847813 1052.293457 
L 607.477813 1052.293457 
" clip-path="url(#p3f2a1bd784)" style="fill: none; stroke: #000000; stroke-width: 0.7; stroke-linecap: square"/>
     </g>
     <g id="line2d_70">
      <g>
       <use xlink:href="#meaf301f4ff" x="123.847813" y="1052.293457" style="stroke: #000000; stroke-width: 2"/>
      </g>
     </g>
     <g id="text_42">
      <!-- 40 -->
      <g transform="translate(80.347813 1066.180957) scale(0.4 -0.4)">
       <use xlink:href="#TimesNewRomanPSMT-34"/>
       <use xlink:href="#TimesNewRomanPSMT-30" x="50"/>
      </g>
     </g>
    </g>
    <g id="ytick_16">
     <g id="line2d_71">
      <path d="M 123.847813 975.187336 
L 607.477813 975.187336 
" clip-path="url(#p3f2a1bd784)" style="fill: none; stroke: #000000; stroke-width: 0.7; stroke-linecap: square"/>
     </g>
     <g id="line2d_72">
      <g>
       <use xlink:href="#meaf301f4ff" x="123.847813" y="975.187336" style="stroke: #000000; stroke-width: 2"/>
      </g>
     </g>
     <g id="text_43">
      <!-- 60 -->
      <g transform="translate(80.347813 989.074836) scale(0.4 -0.4)">
       <use xlink:href="#TimesNewRomanPSMT-36"/>
       <use xlink:href="#TimesNewRomanPSMT-30" x="50"/>
      </g>
     </g>
    </g>
    <g id="ytick_17">
     <g id="line2d_73">
      <path d="M 123.847813 898.081214 
L 607.477813 898.081214 
" clip-path="url(#p3f2a1bd784)" style="fill: none; stroke: #000000; stroke-width: 0.7; stroke-linecap: square"/>
     </g>
     <g id="line2d_74">
      <g>
       <use xlink:href="#meaf301f4ff" x="123.847813" y="898.081214" style="stroke: #000000; stroke-width: 2"/>
      </g>
     </g>
     <g id="text_44">
      <!-- 80 -->
      <g transform="translate(80.347813 911.968714) scale(0.4 -0.4)">
       <use xlink:href="#TimesNewRomanPSMT-38"/>
       <use xlink:href="#TimesNewRomanPSMT-30" x="50"/>
      </g>
     </g>
    </g>
    <g id="ytick_18">
     <g id="line2d_75">
      <path d="M 123.847813 820.975093 
L 607.477813 820.975093 
" clip-path="url(#p3f2a1bd784)" style="fill: none; stroke: #000000; stroke-width: 0.7; stroke-linecap: square"/>
     </g>
     <g id="line2d_76">
      <g>
       <use xlink:href="#meaf301f4ff" x="123.847813" y="820.975093" style="stroke: #000000; stroke-width: 2"/>
      </g>
     </g>
     <g id="text_45">
      <!-- 100 -->
      <g transform="translate(60.347813 834.862593) scale(0.4 -0.4)">
       <use xlink:href="#TimesNewRomanPSMT-31"/>
       <use xlink:href="#TimesNewRomanPSMT-30" x="50"/>
       <use xlink:href="#TimesNewRomanPSMT-30" x="100"/>
      </g>
     </g>
    </g>
    <g id="text_46">
     <!-- Найдено -->
     <g transform="translate(36.36375 1082.827187) rotate(-90) scale(0.42 -0.42)">
      <use xlink:href="#TimesNewRomanPSMT-41d"/>
      <use xlink:href="#TimesNewRomanPSMT-430" x="72.216797"/>
      <use xlink:href="#TimesNewRomanPSMT-439" x="116.601562"/>
      <use xlink:href="#TimesNewRomanPSMT-434" x="170.117188"/>
      <use xlink:href="#TimesNewRomanPSMT-435" x="220.996094"/>
      <use xlink:href="#TimesNewRomanPSMT-43d" x="265.380859"/>
      <use xlink:href="#TimesNewRomanPSMT-43e" x="318.896484"/>
     </g>
    </g>
   </g>
   <g id="line2d_77">
    <path d="M 145.830994 1206.505699 
L 145.830994 1206.505699 
L 145.830994 1206.505699 
L 145.830994 1206.505699 
L 365.662813 990.60856 
L 514.834403 844.10693 
L 397.067358 959.766111 
L 397.067358 959.766111 
L 365.662813 990.60856 
L 585.494631 774.71142 
L 145.830994 1206.505699 
L 145.830994 1206.505699 
L 145.830994 1206.505699 
L 145.830994 1206.505699 
L 200.788949 1152.531415 
L 145.830994 1206.505699 
L 173.309972 1179.518557 
L 159.570483 1193.012128 
L 200.788949 1152.531415 
L 255.746903 1098.55713 
L 200.788949 1152.531415 
L 200.788949 1152.531415 
L 173.309972 1179.518557 
L 159.570483 1193.012128 
L 255.746903 1098.55713 
L 200.788949 1152.531415 
L 200.788949 1152.531415 
" clip-path="url(#p3f2a1bd784)" style="fill: none; stroke: #0000ff; stroke-width: 3; stroke-linecap: square"/>
   </g>
   <g id="line2d_78">
    <g clip-path="url(#p3f2a1bd784)">
     <use xlink:href="#mc505eb82bc" x="145.830994" y="1236.00233" style="fill: #ff0000; stroke: #ff0000"/>
     <use xlink:href="#mc505eb82bc" x="145.830994" y="1134.783053" style="fill: #ff0000; stroke: #ff0000"/>
     <use xlink:href="#mc505eb82bc" x="145.830994" y="1144.475472" style="fill: #ff0000; stroke: #ff0000"/>
     <use xlink:href="#mc505eb82bc" x="145.830994" y="1206.866518" style="fill: #ff0000; stroke: #ff0000"/>
     <use xlink:href="#mc505eb82bc" x="365.662813" y="951.931538" style="fill: #ff0000; stroke: #ff0000"/>
     <use xlink:href="#mc505eb82bc" x="514.834403" y="941.972113" style="fill: #ff0000; stroke: #ff0000"/>
     <use xlink:href="#mc505eb82bc" x="397.067358" y="916.456385" style="fill: #ff0000; stroke: #ff0000"/>
     <use xlink:href="#mc505eb82bc" x="397.067358" y="930.116869" style="fill: #ff0000; stroke: #ff0000"/>
     <use xlink:href="#mc505eb82bc" x="365.662813" y="954.39663" style="fill: #ff0000; stroke: #ff0000"/>
     <use xlink:href="#mc505eb82bc" x="585.494631" y="784.511163" style="fill: #ff0000; stroke: #ff0000"/>
     <use xlink:href="#mc505eb82bc" x="145.830994" y="1223.841731" style="fill: #ff0000; stroke: #ff0000"/>
     <use xlink:href="#mc505eb82bc" x="145.830994" y="1192.630069" style="fill: #ff0000; stroke: #ff0000"/>
     <use xlink:href="#mc505eb82bc" x="145.830994" y="1207.333594" style="fill: #ff0000; stroke: #ff0000"/>
     <use xlink:href="#mc505eb82bc" x="145.830994" y="1224.013923" style="fill: #ff0000; stroke: #ff0000"/>
     <use xlink:href="#mc505eb82bc" x="200.788949" y="1137.821597" style="fill: #ff0000; stroke: #ff0000"/>
     <use xlink:href="#mc505eb82bc" x="145.830994" y="1219.162435" style="fill: #ff0000; stroke: #ff0000"/>
     <use xlink:href="#mc505eb82bc" x="173.309972" y="1147.207522" style="fill: #ff0000; stroke: #ff0000"/>
     <use xlink:href="#mc505eb82bc" x="159.570483" y="1204.897785" style="fill: #ff0000; stroke: #ff0000"/>
     <use xlink:href="#mc505eb82bc" x="200.788949" y="1151.731077" style="fill: #ff0000; stroke: #ff0000"/>
     <use xlink:href="#mc505eb82bc" x="255.746903" y="1081.306271" style="fill: #ff0000; stroke: #ff0000"/>
     <use xlink:href="#mc505eb82bc" x="200.788949" y="1143.143263" style="fill: #ff0000; stroke: #ff0000"/>
     <use xlink:href="#mc505eb82bc" x="200.788949" y="1154.100794" style="fill: #ff0000; stroke: #ff0000"/>
     <use xlink:href="#mc505eb82bc" x="173.309972" y="1177.482507" style="fill: #ff0000; stroke: #ff0000"/>
     <use xlink:href="#mc505eb82bc" x="159.570483" y="1204.670075" style="fill: #ff0000; stroke: #ff0000"/>
     <use xlink:href="#mc505eb82bc" x="255.746903" y="1086.958333" style="fill: #ff0000; stroke: #ff0000"/>
     <use xlink:href="#mc505eb82bc" x="200.788949" y="1142.331306" style="fill: #ff0000; stroke: #ff0000"/>
     <use xlink:href="#mc505eb82bc" x="200.788949" y="1156.847979" style="fill: #ff0000; stroke: #ff0000"/>
    </g>
   </g>
   <g id="patch_15">
    <path d="M 123.847813 1259.066875 
L 123.847813 751.646875 
" style="fill: none; stroke: #000000; stroke-width: 0.8; stroke-linejoin: miter; stroke-linecap: square"/>
   </g>
   <g id="patch_16">
    <path d="M 607.477813 1259.066875 
L 607.477813 751.646875 
" style="fill: none; stroke: #000000; stroke-width: 0.8; stroke-linejoin: miter; stroke-linecap: square"/>
   </g>
   <g id="patch_17">
    <path d="M 123.847813 1259.066875 
L 607.477813 1259.066875 
" style="fill: none; stroke: #000000; stroke-width: 0.8; stroke-linejoin: miter; stroke-linecap: square"/>
   </g>
   <g id="patch_18">
    <path d="M 123.847813 751.646875 
L 607.477813 751.646875 
" style="fill: none; stroke: #000000; stroke-width: 0.8; stroke-linejoin: miter; stroke-linecap: square"/>
   </g>
   <g id="text_47">
    <g id="patch_19">
     <path d="M 145.830994 873.080562 
L 373.890994 873.080562 
Q 386.490994 873.080562 386.490994 860.480562 
L 386.490994 798.740562 
Q 386.490994 786.140562 373.890994 786.140562 
L 145.830994 786.140562 
Q 133.230994 786.140562 133.230994 798.740562 
L 133.230994 860.480562 
Q 133.230994 873.080562 145.830994 873.080562 
z
" style="fill: #ffffff; stroke: #000000; stroke-linejoin: miter"/>
    </g>
    <!-- $\frac {RMSE}{ДК}$=0.0749 -->
    <g transform="translate(145.830994 839.480562) scale(0.42 -0.42)">
     <defs>
      <path id="TimesNewRomanPS-BoldMT-37" d="M 1134 -88 
L 2288 3409 
L 1409 3409 
Q 894 3409 634 3275 
Q 453 3181 334 2922 
L 216 2922 
L 522 4238 
L 3047 4238 
L 1625 -88 
L 1134 -88 
z
" transform="scale(0.015625)"/>
      <path id="TimesNewRomanPS-BoldMT-34" d="M 159 1597 
L 2172 4325 
L 2553 4325 
L 2553 1597 
L 2941 1597 
L 2941 950 
L 2553 950 
L 2553 0 
L 1694 0 
L 1694 950 
L 159 950 
L 159 1597 
z
M 463 1597 
L 1694 1597 
L 1694 3269 
L 463 1597 
z
" transform="scale(0.015625)"/>
      <path id="TimesNewRomanPS-BoldMT-39" d="M 197 -88 
L 197 0 
Q 716 119 1077 350 
Q 1438 581 1648 922 
Q 1859 1263 1944 1706 
Q 1750 1606 1614 1567 
Q 1478 1528 1328 1528 
Q 847 1528 526 1875 
Q 206 2222 206 2825 
Q 206 3244 379 3592 
Q 553 3941 875 4133 
Q 1197 4325 1544 4325 
Q 1916 4325 2247 4112 
Q 2578 3900 2775 3497 
Q 2972 3094 2972 2578 
Q 2972 1909 2651 1296 
Q 2331 684 1697 314 
Q 1063 -56 197 -88 
z
M 1991 1969 
Q 2022 2319 2022 2584 
Q 2022 3153 1891 3644 
Q 1816 3916 1669 4044 
Q 1591 4113 1466 4113 
Q 1309 4113 1222 3978 
Q 1100 3794 1100 3275 
Q 1100 2409 1306 2081 
Q 1441 1869 1669 1869 
Q 1791 1869 1991 1969 
z
" transform="scale(0.015625)"/>
     </defs>
     <use xlink:href="#DejaVuSans-Oblique-52" transform="translate(0 45.046875) scale(0.7)"/>
     <use xlink:href="#DejaVuSans-Oblique-4d" transform="translate(48.637695 45.046875) scale(0.7)"/>
     <use xlink:href="#DejaVuSans-Oblique-53" transform="translate(109.033203 45.046875) scale(0.7)"/>
     <use xlink:href="#DejaVuSans-Oblique-45" transform="translate(153.466797 45.046875) scale(0.7)"/>
     <use xlink:href="#DejaVuSans-Oblique-414" transform="translate(47 -38.232812) scale(0.7)"/>
     <use xlink:href="#DejaVuSans-Oblique-41a" transform="translate(101.6875 -38.232812) scale(0.7)"/>
     <use xlink:href="#TimesNewRomanPS-BoldMT-3d" transform="translate(210.195312 0.254688)"/>
     <use xlink:href="#TimesNewRomanPS-BoldMT-30" transform="translate(267.177734 0.254688)"/>
     <use xlink:href="#TimesNewRomanPS-BoldMT-2e" transform="translate(317.177734 0.254688)"/>
     <use xlink:href="#TimesNewRomanPS-BoldMT-30" transform="translate(342.177734 0.254688)"/>
     <use xlink:href="#TimesNewRomanPS-BoldMT-37" transform="translate(392.177734 0.254688)"/>
     <use xlink:href="#TimesNewRomanPS-BoldMT-34" transform="translate(442.177734 0.254688)"/>
     <use xlink:href="#TimesNewRomanPS-BoldMT-39" transform="translate(492.177734 0.254688)"/>
     <path d="M 0 19.051563 
L 0 25.301563 
L 197.695312 25.301563 
L 197.695312 19.051563 
L 0 19.051563 
z
"/>
    </g>
   </g>
   <g id="text_48">
    <!-- фелинлаланин -->
    <g transform="translate(227.031172 736.646875) scale(0.45 -0.45)">
     <defs>
      <path id="TimesNewRomanPSMT-43b" d="M 494 2863 
L 3053 2863 
L 3053 2744 
Q 2841 2744 2770 2701 
Q 2700 2659 2659 2596 
Q 2619 2534 2619 2191 
L 2619 672 
Q 2619 341 2653 277 
Q 2688 213 2761 164 
Q 2834 116 3053 116 
L 3053 0 
L 1572 0 
L 1572 116 
Q 1813 116 1905 141 
Q 1997 166 2050 261 
Q 2103 356 2103 672 
L 2103 2659 
L 1150 2659 
L 1150 1453 
Q 1150 769 1089 492 
Q 1028 216 848 83 
Q 669 -50 438 -50 
Q 38 -50 38 281 
Q 38 394 102 466 
Q 166 538 269 538 
Q 378 538 472 447 
Q 594 328 656 328 
Q 797 328 861 564 
Q 925 800 925 1391 
L 925 2022 
Q 925 2509 854 2615 
Q 784 2722 494 2744 
L 494 2863 
z
" transform="scale(0.015625)"/>
     </defs>
     <use xlink:href="#TimesNewRomanPSMT-444"/>
     <use xlink:href="#TimesNewRomanPSMT-435" x="64.794922"/>
     <use xlink:href="#TimesNewRomanPSMT-43b" x="109.179688"/>
     <use xlink:href="#TimesNewRomanPSMT-438" x="159.082031"/>
     <use xlink:href="#TimesNewRomanPSMT-43d" x="212.597656"/>
     <use xlink:href="#TimesNewRomanPSMT-43b" x="266.113281"/>
     <use xlink:href="#TimesNewRomanPSMT-430" x="316.015625"/>
     <use xlink:href="#TimesNewRomanPSMT-43b" x="361.275391"/>
     <use xlink:href="#TimesNewRomanPSMT-430" x="411.177734"/>
     <use xlink:href="#TimesNewRomanPSMT-43d" x="455.5625"/>
     <use xlink:href="#TimesNewRomanPSMT-438" x="509.078125"/>
     <use xlink:href="#TimesNewRomanPSMT-43d" x="562.59375"/>
    </g>
   </g>
  </g>
  <g id="axes_4">
   <g id="patch_20">
    <path d="M 797.297813 1259.066875 
L 1280.927813 1259.066875 
L 1280.927813 751.646875 
L 797.297813 751.646875 
z
" style="fill: #ffffff"/>
   </g>
   <g id="matplotlib.axis_7">
    <g id="xtick_19">
     <g id="line2d_79">
      <path d="M 819.280994 1259.066875 
L 819.280994 751.646875 
" clip-path="url(#p738561b5f8)" style="fill: none; stroke: #000000; stroke-width: 0.7; stroke-linecap: square"/>
     </g>
     <g id="line2d_80">
      <g>
       <use xlink:href="#m198d6f2884" x="819.280994" y="1259.066875" style="stroke: #000000; stroke-width: 2"/>
      </g>
     </g>
     <g id="text_49">
      <!-- 0 -->
      <g transform="translate(809.280994 1290.341875) scale(0.4 -0.4)">
       <use xlink:href="#TimesNewRomanPSMT-30"/>
      </g>
     </g>
    </g>
    <g id="xtick_20">
     <g id="line2d_81">
      <path d="M 919.204548 1259.066875 
L 919.204548 751.646875 
" clip-path="url(#p738561b5f8)" style="fill: none; stroke: #000000; stroke-width: 0.7; stroke-linecap: square"/>
     </g>
     <g id="line2d_82">
      <g>
       <use xlink:href="#m198d6f2884" x="919.204548" y="1259.066875" style="stroke: #000000; stroke-width: 2"/>
      </g>
     </g>
     <g id="text_50">
      <!-- 50 -->
      <g transform="translate(899.204548 1290.341875) scale(0.4 -0.4)">
       <use xlink:href="#TimesNewRomanPSMT-35"/>
       <use xlink:href="#TimesNewRomanPSMT-30" x="50"/>
      </g>
     </g>
    </g>
    <g id="xtick_21">
     <g id="line2d_83">
      <path d="M 1019.128102 1259.066875 
L 1019.128102 751.646875 
" clip-path="url(#p738561b5f8)" style="fill: none; stroke: #000000; stroke-width: 0.7; stroke-linecap: square"/>
     </g>
     <g id="line2d_84">
      <g>
       <use xlink:href="#m198d6f2884" x="1019.128102" y="1259.066875" style="stroke: #000000; stroke-width: 2"/>
      </g>
     </g>
     <g id="text_51">
      <!-- 100 -->
      <g transform="translate(989.128102 1290.341875) scale(0.4 -0.4)">
       <use xlink:href="#TimesNewRomanPSMT-31"/>
       <use xlink:href="#TimesNewRomanPSMT-30" x="50"/>
       <use xlink:href="#TimesNewRomanPSMT-30" x="100"/>
      </g>
     </g>
    </g>
    <g id="xtick_22">
     <g id="line2d_85">
      <path d="M 1119.051655 1259.066875 
L 1119.051655 751.646875 
" clip-path="url(#p738561b5f8)" style="fill: none; stroke: #000000; stroke-width: 0.7; stroke-linecap: square"/>
     </g>
     <g id="line2d_86">
      <g>
       <use xlink:href="#m198d6f2884" x="1119.051655" y="1259.066875" style="stroke: #000000; stroke-width: 2"/>
      </g>
     </g>
     <g id="text_52">
      <!-- 150 -->
      <g transform="translate(1089.051655 1290.341875) scale(0.4 -0.4)">
       <use xlink:href="#TimesNewRomanPSMT-31"/>
       <use xlink:href="#TimesNewRomanPSMT-35" x="50"/>
       <use xlink:href="#TimesNewRomanPSMT-30" x="100"/>
      </g>
     </g>
    </g>
    <g id="xtick_23">
     <g id="line2d_87">
      <path d="M 1218.975209 1259.066875 
L 1218.975209 751.646875 
" clip-path="url(#p738561b5f8)" style="fill: none; stroke: #000000; stroke-width: 0.7; stroke-linecap: square"/>
     </g>
     <g id="line2d_88">
      <g>
       <use xlink:href="#m198d6f2884" x="1218.975209" y="1259.066875" style="stroke: #000000; stroke-width: 2"/>
      </g>
     </g>
     <g id="text_53">
      <!-- 200 -->
      <g transform="translate(1188.975209 1290.341875) scale(0.4 -0.4)">
       <use xlink:href="#TimesNewRomanPSMT-32"/>
       <use xlink:href="#TimesNewRomanPSMT-30" x="50"/>
       <use xlink:href="#TimesNewRomanPSMT-30" x="100"/>
      </g>
     </g>
    </g>
    <g id="text_54">
     <!-- Введено -->
     <g transform="translate(964.543125 1343.061875) scale(0.42 -0.42)">
      <use xlink:href="#TimesNewRomanPSMT-412"/>
      <use xlink:href="#TimesNewRomanPSMT-432" x="66.699219"/>
      <use xlink:href="#TimesNewRomanPSMT-435" x="113.291016"/>
      <use xlink:href="#TimesNewRomanPSMT-434" x="156.300781"/>
      <use xlink:href="#TimesNewRomanPSMT-435" x="207.179688"/>
      <use xlink:href="#TimesNewRomanPSMT-43d" x="251.564453"/>
      <use xlink:href="#TimesNewRomanPSMT-43e" x="305.080078"/>
     </g>
    </g>
   </g>
   <g id="matplotlib.axis_8">
    <g id="ytick_19">
     <g id="line2d_89">
      <path d="M 797.297813 1253.563954 
L 1280.927813 1253.563954 
" clip-path="url(#p738561b5f8)" style="fill: none; stroke: #000000; stroke-width: 0.7; stroke-linecap: square"/>
     </g>
     <g id="line2d_90">
      <g>
       <use xlink:href="#meaf301f4ff" x="797.297813" y="1253.563954" style="stroke: #000000; stroke-width: 2"/>
      </g>
     </g>
     <g id="text_55">
      <!-- −100 -->
      <g transform="translate(711.241563 1267.451454) scale(0.4 -0.4)">
       <defs>
        <path id="TimesNewRomanPSMT-2212" d="M 3484 2000 
L 116 2000 
L 116 2256 
L 3484 2256 
L 3484 2000 
z
" transform="scale(0.015625)"/>
       </defs>
       <use xlink:href="#TimesNewRomanPSMT-2212"/>
       <use xlink:href="#TimesNewRomanPSMT-31" x="56.396484"/>
       <use xlink:href="#TimesNewRomanPSMT-30" x="106.396484"/>
       <use xlink:href="#TimesNewRomanPSMT-30" x="156.396484"/>
      </g>
     </g>
    </g>
    <g id="ytick_20">
     <g id="line2d_91">
      <path d="M 797.297813 1184.731224 
L 1280.927813 1184.731224 
" clip-path="url(#p738561b5f8)" style="fill: none; stroke: #000000; stroke-width: 0.7; stroke-linecap: square"/>
     </g>
     <g id="line2d_92">
      <g>
       <use xlink:href="#meaf301f4ff" x="797.297813" y="1184.731224" style="stroke: #000000; stroke-width: 2"/>
      </g>
     </g>
     <g id="text_56">
      <!-- −50 -->
      <g transform="translate(731.241563 1198.618724) scale(0.4 -0.4)">
       <use xlink:href="#TimesNewRomanPSMT-2212"/>
       <use xlink:href="#TimesNewRomanPSMT-35" x="56.396484"/>
       <use xlink:href="#TimesNewRomanPSMT-30" x="106.396484"/>
      </g>
     </g>
    </g>
    <g id="ytick_21">
     <g id="line2d_93">
      <path d="M 797.297813 1115.898494 
L 1280.927813 1115.898494 
" clip-path="url(#p738561b5f8)" style="fill: none; stroke: #000000; stroke-width: 0.7; stroke-linecap: square"/>
     </g>
     <g id="line2d_94">
      <g>
       <use xlink:href="#meaf301f4ff" x="797.297813" y="1115.898494" style="stroke: #000000; stroke-width: 2"/>
      </g>
     </g>
     <g id="text_57">
      <!-- 0 -->
      <g transform="translate(773.797813 1129.785994) scale(0.4 -0.4)">
       <use xlink:href="#TimesNewRomanPSMT-30"/>
      </g>
     </g>
    </g>
    <g id="ytick_22">
     <g id="line2d_95">
      <path d="M 797.297813 1047.065763 
L 1280.927813 1047.065763 
" clip-path="url(#p738561b5f8)" style="fill: none; stroke: #000000; stroke-width: 0.7; stroke-linecap: square"/>
     </g>
     <g id="line2d_96">
      <g>
       <use xlink:href="#meaf301f4ff" x="797.297813" y="1047.065763" style="stroke: #000000; stroke-width: 2"/>
      </g>
     </g>
     <g id="text_58">
      <!-- 50 -->
      <g transform="translate(753.797813 1060.953263) scale(0.4 -0.4)">
       <use xlink:href="#TimesNewRomanPSMT-35"/>
       <use xlink:href="#TimesNewRomanPSMT-30" x="50"/>
      </g>
     </g>
    </g>
    <g id="ytick_23">
     <g id="line2d_97">
      <path d="M 797.297813 978.233033 
L 1280.927813 978.233033 
" clip-path="url(#p738561b5f8)" style="fill: none; stroke: #000000; stroke-width: 0.7; stroke-linecap: square"/>
     </g>
     <g id="line2d_98">
      <g>
       <use xlink:href="#meaf301f4ff" x="797.297813" y="978.233033" style="stroke: #000000; stroke-width: 2"/>
      </g>
     </g>
     <g id="text_59">
      <!-- 100 -->
      <g transform="translate(733.797813 992.120533) scale(0.4 -0.4)">
       <use xlink:href="#TimesNewRomanPSMT-31"/>
       <use xlink:href="#TimesNewRomanPSMT-30" x="50"/>
       <use xlink:href="#TimesNewRomanPSMT-30" x="100"/>
      </g>
     </g>
    </g>
    <g id="ytick_24">
     <g id="line2d_99">
      <path d="M 797.297813 909.400303 
L 1280.927813 909.400303 
" clip-path="url(#p738561b5f8)" style="fill: none; stroke: #000000; stroke-width: 0.7; stroke-linecap: square"/>
     </g>
     <g id="line2d_100">
      <g>
       <use xlink:href="#meaf301f4ff" x="797.297813" y="909.400303" style="stroke: #000000; stroke-width: 2"/>
      </g>
     </g>
     <g id="text_60">
      <!-- 150 -->
      <g transform="translate(733.797813 923.287803) scale(0.4 -0.4)">
       <use xlink:href="#TimesNewRomanPSMT-31"/>
       <use xlink:href="#TimesNewRomanPSMT-35" x="50"/>
       <use xlink:href="#TimesNewRomanPSMT-30" x="100"/>
      </g>
     </g>
    </g>
    <g id="ytick_25">
     <g id="line2d_101">
      <path d="M 797.297813 840.567572 
L 1280.927813 840.567572 
" clip-path="url(#p738561b5f8)" style="fill: none; stroke: #000000; stroke-width: 0.7; stroke-linecap: square"/>
     </g>
     <g id="line2d_102">
      <g>
       <use xlink:href="#meaf301f4ff" x="797.297813" y="840.567572" style="stroke: #000000; stroke-width: 2"/>
      </g>
     </g>
     <g id="text_61">
      <!-- 200 -->
      <g transform="translate(733.797813 854.455072) scale(0.4 -0.4)">
       <use xlink:href="#TimesNewRomanPSMT-32"/>
       <use xlink:href="#TimesNewRomanPSMT-30" x="50"/>
       <use xlink:href="#TimesNewRomanPSMT-30" x="100"/>
      </g>
     </g>
    </g>
    <g id="ytick_26">
     <g id="line2d_103">
      <path d="M 797.297813 771.734842 
L 1280.927813 771.734842 
" clip-path="url(#p738561b5f8)" style="fill: none; stroke: #000000; stroke-width: 0.7; stroke-linecap: square"/>
     </g>
     <g id="line2d_104">
      <g>
       <use xlink:href="#meaf301f4ff" x="797.297813" y="771.734842" style="stroke: #000000; stroke-width: 2"/>
      </g>
     </g>
     <g id="text_62">
      <!-- 250 -->
      <g transform="translate(733.797813 785.622342) scale(0.4 -0.4)">
       <use xlink:href="#TimesNewRomanPSMT-32"/>
       <use xlink:href="#TimesNewRomanPSMT-35" x="50"/>
       <use xlink:href="#TimesNewRomanPSMT-30" x="100"/>
      </g>
     </g>
    </g>
    <g id="text_63">
     <!-- Найдено -->
     <g transform="translate(687.2575 1082.827187) rotate(-90) scale(0.42 -0.42)">
      <use xlink:href="#TimesNewRomanPSMT-41d"/>
      <use xlink:href="#TimesNewRomanPSMT-430" x="72.216797"/>
      <use xlink:href="#TimesNewRomanPSMT-439" x="116.601562"/>
      <use xlink:href="#TimesNewRomanPSMT-434" x="170.117188"/>
      <use xlink:href="#TimesNewRomanPSMT-435" x="220.996094"/>
      <use xlink:href="#TimesNewRomanPSMT-43d" x="265.380859"/>
      <use xlink:href="#TimesNewRomanPSMT-43e" x="318.896484"/>
     </g>
    </g>
   </g>
   <g id="line2d_105">
    <path d="M 929.196903 1040.18249 
L 1258.944631 813.03448 
L 819.280994 1115.898494 
L 819.280994 1115.898494 
L 855.253474 1091.118711 
L 875.238184 1077.352165 
L 835.268763 1104.885257 
L 851.256532 1093.87202 
L 875.238184 1077.352165 
L 819.280994 1115.898494 
L 819.280994 1115.898494 
L 819.280994 1115.898494 
L 819.280994 1115.898494 
L 829.27335 1109.015221 
L 819.280994 1115.898494 
L 819.280994 1115.898494 
L 859.250416 1088.365402 
L 859.250416 1088.365402 
L 839.265705 1102.131948 
L 829.27335 1109.015221 
L 824.277172 1112.456857 
L 899.219837 1060.832309 
L 859.250416 1088.365402 
L 859.250416 1088.365402 
L 824.277172 1112.456857 
L 829.27335 1109.015221 
L 979.15868 1005.766125 
" clip-path="url(#p738561b5f8)" style="fill: none; stroke: #0000ff; stroke-width: 3; stroke-linecap: square"/>
   </g>
   <g id="line2d_106">
    <g clip-path="url(#p738561b5f8)">
     <use xlink:href="#mc505eb82bc" x="929.196903" y="1027.740226" style="fill: #ff0000; stroke: #ff0000"/>
     <use xlink:href="#mc505eb82bc" x="1258.944631" y="774.71142" style="fill: #ff0000; stroke: #ff0000"/>
     <use xlink:href="#mc505eb82bc" x="819.280994" y="1014.168303" style="fill: #ff0000; stroke: #ff0000"/>
     <use xlink:href="#mc505eb82bc" x="819.280994" y="1118.475523" style="fill: #ff0000; stroke: #ff0000"/>
     <use xlink:href="#mc505eb82bc" x="855.253474" y="1236.00233" style="fill: #ff0000; stroke: #ff0000"/>
     <use xlink:href="#mc505eb82bc" x="875.238184" y="1082.241894" style="fill: #ff0000; stroke: #ff0000"/>
     <use xlink:href="#mc505eb82bc" x="835.268763" y="1101.880056" style="fill: #ff0000; stroke: #ff0000"/>
     <use xlink:href="#mc505eb82bc" x="851.256532" y="1092.542851" style="fill: #ff0000; stroke: #ff0000"/>
     <use xlink:href="#mc505eb82bc" x="875.238184" y="1072.744709" style="fill: #ff0000; stroke: #ff0000"/>
     <use xlink:href="#mc505eb82bc" x="819.280994" y="1107.312632" style="fill: #ff0000; stroke: #ff0000"/>
     <use xlink:href="#mc505eb82bc" x="819.280994" y="1116.927246" style="fill: #ff0000; stroke: #ff0000"/>
     <use xlink:href="#mc505eb82bc" x="819.280994" y="1117.749198" style="fill: #ff0000; stroke: #ff0000"/>
     <use xlink:href="#mc505eb82bc" x="819.280994" y="1116.441375" style="fill: #ff0000; stroke: #ff0000"/>
     <use xlink:href="#mc505eb82bc" x="829.27335" y="1110.589993" style="fill: #ff0000; stroke: #ff0000"/>
     <use xlink:href="#mc505eb82bc" x="819.280994" y="1116.913938" style="fill: #ff0000; stroke: #ff0000"/>
     <use xlink:href="#mc505eb82bc" x="819.280994" y="1115.431673" style="fill: #ff0000; stroke: #ff0000"/>
     <use xlink:href="#mc505eb82bc" x="859.250416" y="1087.120482" style="fill: #ff0000; stroke: #ff0000"/>
     <use xlink:href="#mc505eb82bc" x="859.250416" y="1085.333726" style="fill: #ff0000; stroke: #ff0000"/>
     <use xlink:href="#mc505eb82bc" x="839.265705" y="1104.519519" style="fill: #ff0000; stroke: #ff0000"/>
     <use xlink:href="#mc505eb82bc" x="829.27335" y="1109.658321" style="fill: #ff0000; stroke: #ff0000"/>
     <use xlink:href="#mc505eb82bc" x="824.277172" y="1113.549816" style="fill: #ff0000; stroke: #ff0000"/>
     <use xlink:href="#mc505eb82bc" x="899.219837" y="1063.593316" style="fill: #ff0000; stroke: #ff0000"/>
     <use xlink:href="#mc505eb82bc" x="859.250416" y="1086.480325" style="fill: #ff0000; stroke: #ff0000"/>
     <use xlink:href="#mc505eb82bc" x="859.250416" y="1087.890407" style="fill: #ff0000; stroke: #ff0000"/>
     <use xlink:href="#mc505eb82bc" x="824.277172" y="1115.666594" style="fill: #ff0000; stroke: #ff0000"/>
     <use xlink:href="#mc505eb82bc" x="829.27335" y="1110.997421" style="fill: #ff0000; stroke: #ff0000"/>
     <use xlink:href="#mc505eb82bc" x="979.15868" y="1016.143367" style="fill: #ff0000; stroke: #ff0000"/>
    </g>
   </g>
   <g id="patch_21">
    <path d="M 797.297813 1259.066875 
L 797.297813 751.646875 
" style="fill: none; stroke: #000000; stroke-width: 0.8; stroke-linejoin: miter; stroke-linecap: square"/>
   </g>
   <g id="patch_22">
    <path d="M 1280.927813 1259.066875 
L 1280.927813 751.646875 
" style="fill: none; stroke: #000000; stroke-width: 0.8; stroke-linejoin: miter; stroke-linecap: square"/>
   </g>
   <g id="patch_23">
    <path d="M 797.297813 1259.066875 
L 1280.927813 1259.066875 
" style="fill: none; stroke: #000000; stroke-width: 0.8; stroke-linejoin: miter; stroke-linecap: square"/>
   </g>
   <g id="patch_24">
    <path d="M 797.297813 751.646875 
L 1280.927813 751.646875 
" style="fill: none; stroke: #000000; stroke-width: 0.8; stroke-linejoin: miter; stroke-linecap: square"/>
   </g>
   <g id="text_64">
    <g id="patch_25">
     <path d="M 819.280994 859.489481 
L 1045.660994 859.489481 
Q 1058.260994 859.489481 1058.260994 846.889481 
L 1058.260994 785.149481 
Q 1058.260994 772.549481 1045.660994 772.549481 
L 819.280994 772.549481 
Q 806.680994 772.549481 806.680994 785.149481 
L 806.680994 846.889481 
Q 806.680994 859.489481 819.280994 859.489481 
z
" style="fill: #ffffff; stroke: #000000; stroke-linejoin: miter"/>
    </g>
    <!-- $\frac {RMSE}{ДК}$=0.1159 -->
    <g transform="translate(819.280994 825.889481) scale(0.42 -0.42)">
     <use xlink:href="#DejaVuSans-Oblique-52" transform="translate(0 45.046875) scale(0.7)"/>
     <use xlink:href="#DejaVuSans-Oblique-4d" transform="translate(48.637695 45.046875) scale(0.7)"/>
     <use xlink:href="#DejaVuSans-Oblique-53" transform="translate(109.033203 45.046875) scale(0.7)"/>
     <use xlink:href="#DejaVuSans-Oblique-45" transform="translate(153.466797 45.046875) scale(0.7)"/>
     <use xlink:href="#DejaVuSans-Oblique-414" transform="translate(47 -38.232812) scale(0.7)"/>
     <use xlink:href="#DejaVuSans-Oblique-41a" transform="translate(101.6875 -38.232812) scale(0.7)"/>
     <use xlink:href="#TimesNewRomanPS-BoldMT-3d" transform="translate(210.195312 0.254688)"/>
     <use xlink:href="#TimesNewRomanPS-BoldMT-30" transform="translate(267.177734 0.254688)"/>
     <use xlink:href="#TimesNewRomanPS-BoldMT-2e" transform="translate(317.177734 0.254688)"/>
     <use xlink:href="#TimesNewRomanPS-BoldMT-31" transform="translate(342.177734 0.254688)"/>
     <use xlink:href="#TimesNewRomanPS-BoldMT-31" transform="translate(392.177734 0.254688)"/>
     <use xlink:href="#TimesNewRomanPS-BoldMT-35" transform="translate(442.177734 0.254688)"/>
     <use xlink:href="#TimesNewRomanPS-BoldMT-39" transform="translate(488.677734 0.254688)"/>
     <path d="M 0 19.051563 
L 0 25.301563 
L 197.695312 25.301563 
L 197.695312 19.051563 
L 0 19.051563 
z
"/>
    </g>
   </g>
   <g id="text_65">
    <!-- DOPA -->
    <g transform="translate(979.906172 736.646875) scale(0.45 -0.45)">
     <defs>
      <path id="TimesNewRomanPSMT-44" d="M 109 0 
L 109 116 
L 269 116 
Q 538 116 650 288 
Q 719 391 719 750 
L 719 3488 
Q 719 3884 631 3984 
Q 509 4122 269 4122 
L 109 4122 
L 109 4238 
L 1834 4238 
Q 2784 4238 3279 4022 
Q 3775 3806 4076 3303 
Q 4378 2800 4378 2141 
Q 4378 1256 3841 663 
Q 3238 0 2003 0 
L 109 0 
z
M 1319 306 
Q 1716 219 1984 219 
Q 2709 219 3187 728 
Q 3666 1238 3666 2109 
Q 3666 2988 3187 3494 
Q 2709 4000 1959 4000 
Q 1678 4000 1319 3909 
L 1319 306 
z
" transform="scale(0.015625)"/>
      <path id="TimesNewRomanPSMT-4f" d="M 2341 4334 
Q 3166 4334 3770 3707 
Q 4375 3081 4375 2144 
Q 4375 1178 3765 540 
Q 3156 -97 2291 -97 
Q 1416 -97 820 525 
Q 225 1147 225 2134 
Q 225 3144 913 3781 
Q 1509 4334 2341 4334 
z
M 2281 4106 
Q 1713 4106 1369 3684 
Q 941 3159 941 2147 
Q 941 1109 1384 550 
Q 1725 125 2284 125 
Q 2881 125 3270 590 
Q 3659 1056 3659 2059 
Q 3659 3147 3231 3681 
Q 2888 4106 2281 4106 
z
" transform="scale(0.015625)"/>
      <path id="TimesNewRomanPSMT-50" d="M 1313 1984 
L 1313 750 
Q 1313 350 1400 253 
Q 1519 116 1759 116 
L 1922 116 
L 1922 0 
L 106 0 
L 106 116 
L 266 116 
Q 534 116 650 291 
Q 713 388 713 750 
L 713 3488 
Q 713 3888 628 3984 
Q 506 4122 266 4122 
L 106 4122 
L 106 4238 
L 1659 4238 
Q 2228 4238 2556 4120 
Q 2884 4003 3109 3725 
Q 3334 3447 3334 3066 
Q 3334 2547 2992 2222 
Q 2650 1897 2025 1897 
Q 1872 1897 1694 1919 
Q 1516 1941 1313 1984 
z
M 1313 2163 
Q 1478 2131 1606 2115 
Q 1734 2100 1825 2100 
Q 2150 2100 2386 2351 
Q 2622 2603 2622 3003 
Q 2622 3278 2509 3514 
Q 2397 3750 2190 3867 
Q 1984 3984 1722 3984 
Q 1563 3984 1313 3925 
L 1313 2163 
z
" transform="scale(0.015625)"/>
      <path id="TimesNewRomanPSMT-41" d="M 2928 1419 
L 1288 1419 
L 1000 750 
Q 894 503 894 381 
Q 894 284 986 211 
Q 1078 138 1384 116 
L 1384 0 
L 50 0 
L 50 116 
Q 316 163 394 238 
Q 553 388 747 847 
L 2238 4334 
L 2347 4334 
L 3822 809 
Q 4000 384 4145 257 
Q 4291 131 4550 116 
L 4550 0 
L 2878 0 
L 2878 116 
Q 3131 128 3220 200 
Q 3309 272 3309 375 
Q 3309 513 3184 809 
L 2928 1419 
z
M 2841 1650 
L 2122 3363 
L 1384 1650 
L 2841 1650 
z
" transform="scale(0.015625)"/>
     </defs>
     <use xlink:href="#TimesNewRomanPSMT-44"/>
     <use xlink:href="#TimesNewRomanPSMT-4f" x="72.216797"/>
     <use xlink:href="#TimesNewRomanPSMT-50" x="144.433594"/>
     <use xlink:href="#TimesNewRomanPSMT-41" x="190.923828"/>
    </g>
   </g>
  </g>
 </g>
 <defs>
  <clipPath id="p0c37063ead">
   <rect x="123.847813" y="53.446875" width="483.63" height="507.42"/>
  </clipPath>
  <clipPath id="p1597b9f028">
   <rect x="797.297813" y="53.446875" width="483.63" height="507.42"/>
  </clipPath>
  <clipPath id="p3f2a1bd784">
   <rect x="123.847813" y="751.646875" width="483.63" height="507.42"/>
  </clipPath>
  <clipPath id="p738561b5f8">
   <rect x="797.297813" y="751.646875" width="483.63" height="507.42"/>
  </clipPath>
 </defs>
</svg>
