<?xml version="1.0" encoding="utf-8" standalone="no"?>
<!DOCTYPE svg PUBLIC "-//W3C//DTD SVG 1.1//EN"
  "http://www.w3.org/Graphics/SVG/1.1/DTD/svg11.dtd">
<svg xmlns:xlink="http://www.w3.org/1999/xlink" width="872.39952pt" height="584.399523pt" viewBox="0 0 872.39952 584.399523" xmlns="http://www.w3.org/2000/svg" version="1.1">
 <metadata>
  <rdf:RDF xmlns:dc="http://purl.org/dc/elements/1.1/" xmlns:cc="http://creativecommons.org/ns#" xmlns:rdf="http://www.w3.org/1999/02/22-rdf-syntax-ns#">
   <cc:Work>
    <dc:type rdf:resource="http://purl.org/dc/dcmitype/StillImage"/>
    <dc:date>2024-04-03T05:23:13.236945</dc:date>
    <dc:format>image/svg+xml</dc:format>
    <dc:creator>
     <cc:Agent>
      <dc:title>Matplotlib v3.8.0, https://matplotlib.org/</dc:title>
     </cc:Agent>
    </dc:creator>
   </cc:Work>
  </rdf:RDF>
 </metadata>
 <defs>
  <style type="text/css">*{stroke-linejoin: round; stroke-linecap: butt}</style>
 </defs>
 <g id="figure_1">
  <g id="patch_1">
   <path d="M 0 584.399523 
L 872.39952 584.399523 
L 872.39952 0 
L 0 0 
z
" style="fill: #ffffff"/>
  </g>
  <g id="axes_1">
   <g id="patch_2">
    <path d="M 107.265 490.886085 
L 597.863583 490.886085 
L 597.863583 16.753566 
L 107.265 16.753566 
z
" style="fill: #ffffff"/>
   </g>
   <g id="matplotlib.axis_1">
    <g id="xtick_1">
     <g id="line2d_1">
      <path d="M 129.564936 490.886085 
L 129.564936 16.753566 
" clip-path="url(#pc035beb84f)" style="fill: none; stroke: #000000; stroke-width: 0.7; stroke-linecap: square"/>
     </g>
     <g id="line2d_2">
      <defs>
       <path id="mdec32e1d49" d="M 0 0 
L 0 -10 
" style="stroke: #000000; stroke-width: 2"/>
      </defs>
      <g>
       <use xlink:href="#mdec32e1d49" x="129.564936" y="490.886085" style="stroke: #000000; stroke-width: 2"/>
      </g>
     </g>
     <g id="text_1">
      <!-- 5 -->
      <g transform="translate(122.064936 526.717335) scale(0.3 -0.3)">
       <defs>
        <path id="TimesNewRomanPSMT-35" d="M 2778 4238 
L 2534 3706 
L 1259 3706 
L 981 3138 
Q 1809 3016 2294 2522 
Q 2709 2097 2709 1522 
Q 2709 1188 2573 903 
Q 2438 619 2231 419 
Q 2025 219 1772 97 
Q 1413 -75 1034 -75 
Q 653 -75 479 54 
Q 306 184 306 341 
Q 306 428 378 495 
Q 450 563 559 563 
Q 641 563 702 538 
Q 763 513 909 409 
Q 1144 247 1384 247 
Q 1750 247 2026 523 
Q 2303 800 2303 1197 
Q 2303 1581 2056 1914 
Q 1809 2247 1375 2428 
Q 1034 2569 447 2591 
L 1259 4238 
L 2778 4238 
z
" transform="scale(0.015625)"/>
       </defs>
       <use xlink:href="#TimesNewRomanPSMT-35"/>
      </g>
     </g>
    </g>
    <g id="xtick_2">
     <g id="line2d_3">
      <path d="M 218.764678 490.886085 
L 218.764678 16.753566 
" clip-path="url(#pc035beb84f)" style="fill: none; stroke: #000000; stroke-width: 0.7; stroke-linecap: square"/>
     </g>
     <g id="line2d_4">
      <g>
       <use xlink:href="#mdec32e1d49" x="218.764678" y="490.886085" style="stroke: #000000; stroke-width: 2"/>
      </g>
     </g>
     <g id="text_2">
      <!-- 10 -->
      <g transform="translate(203.764678 526.717335) scale(0.3 -0.3)">
       <defs>
        <path id="TimesNewRomanPSMT-31" d="M 750 3822 
L 1781 4325 
L 1884 4325 
L 1884 747 
Q 1884 391 1914 303 
Q 1944 216 2037 169 
Q 2131 122 2419 116 
L 2419 0 
L 825 0 
L 825 116 
Q 1125 122 1212 167 
Q 1300 213 1334 289 
Q 1369 366 1369 747 
L 1369 3034 
Q 1369 3497 1338 3628 
Q 1316 3728 1258 3775 
Q 1200 3822 1119 3822 
Q 1003 3822 797 3725 
L 750 3822 
z
" transform="scale(0.015625)"/>
        <path id="TimesNewRomanPSMT-30" d="M 231 2094 
Q 231 2819 450 3342 
Q 669 3866 1031 4122 
Q 1313 4325 1613 4325 
Q 2100 4325 2488 3828 
Q 2972 3213 2972 2159 
Q 2972 1422 2759 906 
Q 2547 391 2217 158 
Q 1888 -75 1581 -75 
Q 975 -75 572 641 
Q 231 1244 231 2094 
z
M 844 2016 
Q 844 1141 1059 588 
Q 1238 122 1591 122 
Q 1759 122 1940 273 
Q 2122 425 2216 781 
Q 2359 1319 2359 2297 
Q 2359 3022 2209 3506 
Q 2097 3866 1919 4016 
Q 1791 4119 1609 4119 
Q 1397 4119 1231 3928 
Q 1006 3669 925 3112 
Q 844 2556 844 2016 
z
" transform="scale(0.015625)"/>
       </defs>
       <use xlink:href="#TimesNewRomanPSMT-31"/>
       <use xlink:href="#TimesNewRomanPSMT-30" x="50"/>
      </g>
     </g>
    </g>
    <g id="xtick_3">
     <g id="line2d_5">
      <path d="M 307.96442 490.886085 
L 307.96442 16.753566 
" clip-path="url(#pc035beb84f)" style="fill: none; stroke: #000000; stroke-width: 0.7; stroke-linecap: square"/>
     </g>
     <g id="line2d_6">
      <g>
       <use xlink:href="#mdec32e1d49" x="307.96442" y="490.886085" style="stroke: #000000; stroke-width: 2"/>
      </g>
     </g>
     <g id="text_3">
      <!-- 15 -->
      <g transform="translate(292.96442 526.717335) scale(0.3 -0.3)">
       <use xlink:href="#TimesNewRomanPSMT-31"/>
       <use xlink:href="#TimesNewRomanPSMT-35" x="50"/>
      </g>
     </g>
    </g>
    <g id="xtick_4">
     <g id="line2d_7">
      <path d="M 397.164162 490.886085 
L 397.164162 16.753566 
" clip-path="url(#pc035beb84f)" style="fill: none; stroke: #000000; stroke-width: 0.7; stroke-linecap: square"/>
     </g>
     <g id="line2d_8">
      <g>
       <use xlink:href="#mdec32e1d49" x="397.164162" y="490.886085" style="stroke: #000000; stroke-width: 2"/>
      </g>
     </g>
     <g id="text_4">
      <!-- 20 -->
      <g transform="translate(382.164162 526.717335) scale(0.3 -0.3)">
       <defs>
        <path id="TimesNewRomanPSMT-32" d="M 2934 816 
L 2638 0 
L 138 0 
L 138 116 
Q 1241 1122 1691 1759 
Q 2141 2397 2141 2925 
Q 2141 3328 1894 3587 
Q 1647 3847 1303 3847 
Q 991 3847 742 3664 
Q 494 3481 375 3128 
L 259 3128 
Q 338 3706 661 4015 
Q 984 4325 1469 4325 
Q 1984 4325 2329 3994 
Q 2675 3663 2675 3213 
Q 2675 2891 2525 2569 
Q 2294 2063 1775 1497 
Q 997 647 803 472 
L 1909 472 
Q 2247 472 2383 497 
Q 2519 522 2628 598 
Q 2738 675 2819 816 
L 2934 816 
z
" transform="scale(0.015625)"/>
       </defs>
       <use xlink:href="#TimesNewRomanPSMT-32"/>
       <use xlink:href="#TimesNewRomanPSMT-30" x="50"/>
      </g>
     </g>
    </g>
    <g id="xtick_5">
     <g id="line2d_9">
      <path d="M 486.363905 490.886085 
L 486.363905 16.753566 
" clip-path="url(#pc035beb84f)" style="fill: none; stroke: #000000; stroke-width: 0.7; stroke-linecap: square"/>
     </g>
     <g id="line2d_10">
      <g>
       <use xlink:href="#mdec32e1d49" x="486.363905" y="490.886085" style="stroke: #000000; stroke-width: 2"/>
      </g>
     </g>
     <g id="text_5">
      <!-- 25 -->
      <g transform="translate(471.363905 526.717335) scale(0.3 -0.3)">
       <use xlink:href="#TimesNewRomanPSMT-32"/>
       <use xlink:href="#TimesNewRomanPSMT-35" x="50"/>
      </g>
     </g>
    </g>
    <g id="xtick_6">
     <g id="line2d_11">
      <path d="M 575.563647 490.886085 
L 575.563647 16.753566 
" clip-path="url(#pc035beb84f)" style="fill: none; stroke: #000000; stroke-width: 0.7; stroke-linecap: square"/>
     </g>
     <g id="line2d_12">
      <g>
       <use xlink:href="#mdec32e1d49" x="575.563647" y="490.886085" style="stroke: #000000; stroke-width: 2"/>
      </g>
     </g>
     <g id="text_6">
      <!-- 30 -->
      <g transform="translate(560.563647 526.717335) scale(0.3 -0.3)">
       <defs>
        <path id="TimesNewRomanPSMT-33" d="M 325 3431 
Q 506 3859 782 4092 
Q 1059 4325 1472 4325 
Q 1981 4325 2253 3994 
Q 2459 3747 2459 3466 
Q 2459 3003 1878 2509 
Q 2269 2356 2469 2072 
Q 2669 1788 2669 1403 
Q 2669 853 2319 450 
Q 1863 -75 997 -75 
Q 569 -75 414 31 
Q 259 138 259 259 
Q 259 350 332 419 
Q 406 488 509 488 
Q 588 488 669 463 
Q 722 447 909 348 
Q 1097 250 1169 231 
Q 1284 197 1416 197 
Q 1734 197 1970 444 
Q 2206 691 2206 1028 
Q 2206 1275 2097 1509 
Q 2016 1684 1919 1775 
Q 1784 1900 1550 2001 
Q 1316 2103 1072 2103 
L 972 2103 
L 972 2197 
Q 1219 2228 1467 2375 
Q 1716 2522 1828 2728 
Q 1941 2934 1941 3181 
Q 1941 3503 1739 3701 
Q 1538 3900 1238 3900 
Q 753 3900 428 3381 
L 325 3431 
z
" transform="scale(0.015625)"/>
       </defs>
       <use xlink:href="#TimesNewRomanPSMT-33"/>
       <use xlink:href="#TimesNewRomanPSMT-30" x="50"/>
      </g>
     </g>
    </g>
    <g id="text_7">
     <!-- Ширина парзеновского окна -->
     <g transform="translate(158.674291 570.354523) scale(0.32 -0.32)">
      <defs>
       <path id="TimesNewRomanPSMT-428" d="M 6278 116 
L 6278 0 
L 178 0 
L 178 116 
Q 194 119 294 128 
Q 534 147 629 247 
Q 725 347 725 775 
L 725 3466 
Q 725 3875 623 3989 
Q 522 4103 178 4122 
L 178 4238 
L 1803 4238 
L 1803 4122 
Q 1497 4091 1411 3973 
Q 1325 3856 1325 3466 
L 1325 775 
Q 1325 453 1348 367 
Q 1372 281 1426 256 
Q 1481 231 1678 231 
L 2503 231 
Q 2816 231 2872 281 
Q 2928 331 2928 775 
L 2928 3466 
Q 2928 3847 2843 3969 
Q 2759 4091 2447 4122 
L 2447 4238 
L 4006 4238 
L 4006 4122 
Q 3697 4091 3612 3970 
Q 3528 3850 3528 3466 
L 3528 775 
Q 3528 363 3581 297 
Q 3634 231 3984 231 
L 4825 231 
Q 4997 231 5050 261 
Q 5103 291 5117 350 
Q 5131 409 5131 775 
L 5131 3466 
Q 5131 3853 5045 3972 
Q 4959 4091 4650 4122 
L 4650 4238 
L 6269 4238 
L 6269 4122 
Q 6038 4116 5920 4053 
Q 5803 3991 5767 3877 
Q 5731 3763 5731 3466 
L 5731 775 
Q 5731 447 5759 356 
Q 5788 266 5881 192 
Q 5975 119 6278 116 
z
" transform="scale(0.015625)"/>
       <path id="TimesNewRomanPSMT-438" d="M 1094 881 
L 2331 2313 
Q 2325 2553 2240 2647 
Q 2156 2741 1950 2744 
L 1950 2863 
L 3281 2863 
L 3281 2744 
Q 3072 2744 3000 2701 
Q 2928 2659 2887 2596 
Q 2847 2534 2847 2191 
L 2847 672 
Q 2847 341 2881 277 
Q 2916 213 2989 164 
Q 3063 116 3281 116 
L 3281 0 
L 1897 0 
L 1897 116 
Q 2156 116 2243 211 
Q 2331 306 2331 672 
L 2331 2019 
L 1094 584 
Q 1100 319 1169 219 
Q 1238 119 1466 116 
L 1466 0 
L 144 0 
L 144 116 
Q 422 116 500 217 
Q 578 319 578 672 
L 578 2191 
Q 578 2525 543 2586 
Q 509 2647 437 2695 
Q 366 2744 144 2744 
L 144 2863 
L 1528 2863 
L 1528 2744 
Q 1319 2744 1247 2701 
Q 1175 2659 1134 2596 
Q 1094 2534 1094 2191 
L 1094 881 
z
" transform="scale(0.015625)"/>
       <path id="TimesNewRomanPSMT-440" d="M -6 2578 
L 875 2934 
L 994 2934 
L 994 2266 
Q 1216 2644 1439 2795 
Q 1663 2947 1909 2947 
Q 2341 2947 2628 2609 
Q 2981 2197 2981 1534 
Q 2981 794 2556 309 
Q 2206 -88 1675 -88 
Q 1444 -88 1275 -22 
Q 1150 25 994 166 
L 994 -706 
Q 994 -1000 1030 -1079 
Q 1066 -1159 1155 -1206 
Q 1244 -1253 1478 -1253 
L 1478 -1369 
L -22 -1369 
L -22 -1253 
L 56 -1253 
Q 228 -1256 350 -1188 
Q 409 -1153 442 -1076 
Q 475 -1000 475 -688 
L 475 2019 
Q 475 2297 450 2372 
Q 425 2447 370 2484 
Q 316 2522 222 2522 
Q 147 2522 31 2478 
L -6 2578 
z
M 994 2081 
L 994 1013 
Q 994 666 1022 556 
Q 1066 375 1236 237 
Q 1406 100 1666 100 
Q 1978 100 2172 344 
Q 2425 663 2425 1241 
Q 2425 1897 2138 2250 
Q 1938 2494 1663 2494 
Q 1513 2494 1366 2419 
Q 1253 2363 994 2081 
z
" transform="scale(0.015625)"/>
       <path id="TimesNewRomanPSMT-43d" d="M 1094 1584 
L 2331 1584 
L 2331 2191 
Q 2331 2463 2309 2545 
Q 2288 2628 2202 2686 
Q 2116 2744 1897 2744 
L 1897 2863 
L 3281 2863 
L 3281 2744 
Q 3088 2744 2998 2700 
Q 2909 2656 2878 2573 
Q 2847 2491 2847 2191 
L 2847 672 
Q 2847 400 2870 312 
Q 2894 225 2984 170 
Q 3075 116 3281 116 
L 3281 0 
L 1897 0 
L 1897 116 
Q 2156 116 2243 211 
Q 2331 306 2331 672 
L 2331 1381 
L 1094 1381 
L 1094 672 
Q 1094 400 1117 312 
Q 1141 225 1231 170 
Q 1322 116 1528 116 
L 1528 0 
L 144 0 
L 144 116 
Q 422 116 500 217 
Q 578 319 578 672 
L 578 2191 
Q 578 2463 554 2550 
Q 531 2638 440 2691 
Q 350 2744 144 2744 
L 144 2863 
L 1528 2863 
L 1528 2744 
Q 1334 2744 1245 2700 
Q 1156 2656 1125 2573 
Q 1094 2491 1094 2191 
L 1094 1584 
z
" transform="scale(0.015625)"/>
       <path id="TimesNewRomanPSMT-430" d="M 1822 413 
Q 1381 72 1269 19 
Q 1100 -59 909 -59 
Q 613 -59 420 144 
Q 228 347 228 678 
Q 228 888 322 1041 
Q 450 1253 767 1440 
Q 1084 1628 1822 1897 
L 1822 2009 
Q 1822 2438 1686 2597 
Q 1550 2756 1291 2756 
Q 1094 2756 978 2650 
Q 859 2544 859 2406 
L 866 2225 
Q 866 2081 792 2003 
Q 719 1925 600 1925 
Q 484 1925 411 2006 
Q 338 2088 338 2228 
Q 338 2497 613 2722 
Q 888 2947 1384 2947 
Q 1766 2947 2009 2819 
Q 2194 2722 2281 2516 
Q 2338 2381 2338 1966 
L 2338 994 
Q 2338 584 2353 492 
Q 2369 400 2405 369 
Q 2441 338 2488 338 
Q 2538 338 2575 359 
Q 2641 400 2828 588 
L 2828 413 
Q 2478 -56 2159 -56 
Q 2006 -56 1915 50 
Q 1825 156 1822 413 
z
M 1822 616 
L 1822 1706 
Q 1350 1519 1213 1441 
Q 966 1303 859 1153 
Q 753 1003 753 825 
Q 753 600 887 451 
Q 1022 303 1197 303 
Q 1434 303 1822 616 
z
" transform="scale(0.015625)"/>
       <path id="TimesNewRomanPSMT-20" transform="scale(0.015625)"/>
       <path id="TimesNewRomanPSMT-43f" d="M 2331 2659 
L 1094 2659 
L 1094 672 
Q 1094 341 1128 277 
Q 1163 213 1236 164 
Q 1309 116 1528 116 
L 1528 0 
L 144 0 
L 144 116 
Q 422 116 500 217 
Q 578 319 578 672 
L 578 2191 
Q 578 2525 543 2586 
Q 509 2647 437 2695 
Q 366 2744 144 2744 
L 144 2863 
L 3281 2863 
L 3281 2744 
Q 3072 2744 3000 2701 
Q 2928 2659 2887 2596 
Q 2847 2534 2847 2191 
L 2847 672 
Q 2847 341 2881 277 
Q 2916 213 2989 164 
Q 3063 116 3281 116 
L 3281 0 
L 1897 0 
L 1897 116 
Q 2156 116 2243 211 
Q 2331 306 2331 672 
L 2331 2659 
z
" transform="scale(0.015625)"/>
       <path id="TimesNewRomanPSMT-437" d="M 263 1966 
L 263 2863 
L 394 2863 
Q 450 2813 519 2813 
Q 572 2813 750 2863 
Q 1047 2947 1234 2947 
Q 1647 2947 1923 2756 
Q 2200 2566 2200 2250 
Q 2200 1766 1466 1547 
Q 2322 1369 2322 744 
Q 2322 416 2047 164 
Q 1772 -88 1247 -88 
Q 903 -88 642 35 
Q 381 159 75 453 
L 156 534 
Q 669 138 1128 138 
Q 1391 138 1559 316 
Q 1728 494 1728 778 
Q 1728 1400 925 1438 
L 925 1619 
Q 1303 1619 1473 1820 
Q 1644 2022 1644 2253 
Q 1644 2456 1498 2609 
Q 1353 2763 1113 2763 
Q 556 2763 375 1966 
L 263 1966 
z
" transform="scale(0.015625)"/>
       <path id="TimesNewRomanPSMT-435" d="M 681 1784 
Q 678 1147 991 784 
Q 1303 422 1725 422 
Q 2006 422 2214 576 
Q 2422 731 2563 1106 
L 2659 1044 
Q 2594 616 2278 264 
Q 1963 -88 1488 -88 
Q 972 -88 605 314 
Q 238 716 238 1394 
Q 238 2128 614 2539 
Q 991 2950 1559 2950 
Q 2041 2950 2350 2633 
Q 2659 2316 2659 1784 
L 681 1784 
z
M 681 1966 
L 2006 1966 
Q 1991 2241 1941 2353 
Q 1863 2528 1708 2628 
Q 1553 2728 1384 2728 
Q 1125 2728 920 2526 
Q 716 2325 681 1966 
z
" transform="scale(0.015625)"/>
       <path id="TimesNewRomanPSMT-43e" d="M 1600 2947 
Q 2250 2947 2644 2453 
Q 2978 2031 2978 1484 
Q 2978 1100 2793 706 
Q 2609 313 2286 112 
Q 1963 -88 1566 -88 
Q 919 -88 538 428 
Q 216 863 216 1403 
Q 216 1797 411 2186 
Q 606 2575 925 2761 
Q 1244 2947 1600 2947 
z
M 1503 2744 
Q 1338 2744 1170 2645 
Q 1003 2547 900 2300 
Q 797 2053 797 1666 
Q 797 1041 1045 587 
Q 1294 134 1700 134 
Q 2003 134 2200 384 
Q 2397 634 2397 1244 
Q 2397 2006 2069 2444 
Q 1847 2744 1503 2744 
z
" transform="scale(0.015625)"/>
       <path id="TimesNewRomanPSMT-432" d="M 2016 1513 
Q 2800 1350 2800 778 
Q 2800 388 2473 194 
Q 2147 0 1563 0 
L 150 0 
L 150 116 
Q 428 116 501 220 
Q 575 325 575 672 
L 575 2191 
Q 575 2528 542 2587 
Q 509 2647 439 2695 
Q 369 2744 150 2744 
L 150 2863 
L 1469 2863 
Q 1850 2863 2086 2803 
Q 2322 2744 2473 2569 
Q 2625 2394 2625 2144 
Q 2625 1656 2016 1513 
z
M 1094 1584 
Q 1231 1581 1259 1581 
Q 1688 1581 1878 1745 
Q 2069 1909 2069 2144 
Q 2069 2416 1875 2537 
Q 1681 2659 1256 2659 
L 1094 2659 
L 1094 1584 
z
M 1094 253 
Q 1250 203 1466 203 
Q 1838 203 2019 365 
Q 2200 528 2200 784 
Q 2200 1072 1965 1225 
Q 1731 1378 1316 1378 
Q 1213 1378 1094 1372 
L 1094 253 
z
" transform="scale(0.015625)"/>
       <path id="TimesNewRomanPSMT-441" d="M 2631 1088 
Q 2516 522 2178 217 
Q 1841 -88 1431 -88 
Q 944 -88 581 321 
Q 219 731 219 1428 
Q 219 2103 620 2525 
Q 1022 2947 1584 2947 
Q 2006 2947 2278 2723 
Q 2550 2500 2550 2259 
Q 2550 2141 2473 2067 
Q 2397 1994 2259 1994 
Q 2075 1994 1981 2113 
Q 1928 2178 1911 2362 
Q 1894 2547 1784 2644 
Q 1675 2738 1481 2738 
Q 1169 2738 978 2506 
Q 725 2200 725 1697 
Q 725 1184 976 792 
Q 1228 400 1656 400 
Q 1963 400 2206 609 
Q 2378 753 2541 1131 
L 2631 1088 
z
" transform="scale(0.015625)"/>
       <path id="TimesNewRomanPSMT-43a" d="M 3072 0 
L 2228 0 
Q 1834 572 1516 1172 
Q 1441 1309 1380 1376 
Q 1319 1444 1213 1444 
Q 1175 1444 1094 1438 
L 1094 672 
Q 1094 363 1130 277 
Q 1166 191 1259 153 
Q 1353 116 1575 116 
L 1575 0 
L 144 0 
L 144 116 
Q 422 116 500 217 
Q 578 319 578 672 
L 578 2191 
Q 578 2525 543 2586 
Q 509 2647 437 2695 
Q 366 2744 144 2744 
L 144 2863 
L 1575 2863 
L 1575 2744 
Q 1316 2744 1255 2706 
Q 1194 2669 1144 2614 
Q 1094 2559 1094 2191 
L 1094 1628 
Q 1166 1622 1191 1622 
Q 1381 1622 1548 1730 
Q 1716 1838 1847 2188 
Q 1969 2519 2048 2634 
Q 2128 2750 2270 2823 
Q 2413 2897 2569 2897 
Q 2738 2897 2838 2815 
Q 2938 2734 2938 2603 
Q 2938 2494 2866 2417 
Q 2794 2341 2666 2341 
Q 2597 2341 2494 2378 
Q 2363 2425 2294 2425 
Q 2150 2425 2056 2178 
Q 1950 1894 1900 1811 
Q 1850 1728 1709 1591 
Q 1806 1563 1920 1447 
Q 2034 1331 2344 788 
Q 2591 353 2714 237 
Q 2838 122 3072 116 
L 3072 0 
z
" transform="scale(0.015625)"/>
       <path id="TimesNewRomanPSMT-433" d="M 2469 2863 
L 2584 2081 
L 2447 2081 
Q 2328 2469 2208 2564 
Q 2088 2659 1700 2659 
L 1094 2659 
L 1094 672 
Q 1094 341 1128 277 
Q 1163 213 1236 164 
Q 1309 116 1528 116 
L 1528 0 
L 97 0 
L 97 116 
Q 403 122 490 211 
Q 578 300 578 672 
L 578 2191 
Q 578 2494 543 2580 
Q 509 2666 423 2703 
Q 338 2741 97 2744 
L 97 2863 
L 2469 2863 
z
" transform="scale(0.015625)"/>
      </defs>
      <use xlink:href="#TimesNewRomanPSMT-428"/>
      <use xlink:href="#TimesNewRomanPSMT-438" x="100.878906"/>
      <use xlink:href="#TimesNewRomanPSMT-440" x="154.394531"/>
      <use xlink:href="#TimesNewRomanPSMT-438" x="204.394531"/>
      <use xlink:href="#TimesNewRomanPSMT-43d" x="257.910156"/>
      <use xlink:href="#TimesNewRomanPSMT-430" x="311.425781"/>
      <use xlink:href="#TimesNewRomanPSMT-20" x="355.810547"/>
      <use xlink:href="#TimesNewRomanPSMT-43f" x="380.810547"/>
      <use xlink:href="#TimesNewRomanPSMT-430" x="434.326172"/>
      <use xlink:href="#TimesNewRomanPSMT-440" x="478.710938"/>
      <use xlink:href="#TimesNewRomanPSMT-437" x="529.960938"/>
      <use xlink:href="#TimesNewRomanPSMT-435" x="569.462891"/>
      <use xlink:href="#TimesNewRomanPSMT-43d" x="613.847656"/>
      <use xlink:href="#TimesNewRomanPSMT-43e" x="667.363281"/>
      <use xlink:href="#TimesNewRomanPSMT-432" x="717.363281"/>
      <use xlink:href="#TimesNewRomanPSMT-441" x="763.955078"/>
      <use xlink:href="#TimesNewRomanPSMT-43a" x="808.339844"/>
      <use xlink:href="#TimesNewRomanPSMT-43e" x="851.798828"/>
      <use xlink:href="#TimesNewRomanPSMT-433" x="901.798828"/>
      <use xlink:href="#TimesNewRomanPSMT-43e" x="940.314453"/>
      <use xlink:href="#TimesNewRomanPSMT-20" x="990.314453"/>
      <use xlink:href="#TimesNewRomanPSMT-43e" x="1015.314453"/>
      <use xlink:href="#TimesNewRomanPSMT-43a" x="1065.314453"/>
      <use xlink:href="#TimesNewRomanPSMT-43d" x="1113.898438"/>
      <use xlink:href="#TimesNewRomanPSMT-430" x="1167.414062"/>
     </g>
    </g>
   </g>
   <g id="matplotlib.axis_2">
    <g id="ytick_1">
     <g id="line2d_13">
      <path d="M 107.265 433.990183 
L 597.863583 433.990183 
" clip-path="url(#pc035beb84f)" style="fill: none; stroke: #000000; stroke-width: 0.7; stroke-linecap: square"/>
     </g>
     <g id="line2d_14">
      <defs>
       <path id="m183d3eb542" d="M 0 0 
L 10 0 
" style="stroke: #000000; stroke-width: 2"/>
      </defs>
      <g>
       <use xlink:href="#m183d3eb542" x="107.265" y="433.990183" style="stroke: #000000; stroke-width: 2"/>
      </g>
     </g>
     <g id="text_8">
      <!-- 0.89 -->
      <g transform="translate(51.265 444.405808) scale(0.3 -0.3)">
       <defs>
        <path id="TimesNewRomanPSMT-2e" d="M 800 606 
Q 947 606 1047 504 
Q 1147 403 1147 259 
Q 1147 116 1045 14 
Q 944 -88 800 -88 
Q 656 -88 554 14 
Q 453 116 453 259 
Q 453 406 554 506 
Q 656 606 800 606 
z
" transform="scale(0.015625)"/>
        <path id="TimesNewRomanPSMT-38" d="M 1228 2134 
Q 725 2547 579 2797 
Q 434 3047 434 3316 
Q 434 3728 753 4026 
Q 1072 4325 1600 4325 
Q 2113 4325 2425 4047 
Q 2738 3769 2738 3413 
Q 2738 3175 2569 2928 
Q 2400 2681 1866 2347 
Q 2416 1922 2594 1678 
Q 2831 1359 2831 1006 
Q 2831 559 2490 242 
Q 2150 -75 1597 -75 
Q 994 -75 656 303 
Q 388 606 388 966 
Q 388 1247 577 1523 
Q 766 1800 1228 2134 
z
M 1719 2469 
Q 2094 2806 2194 3001 
Q 2294 3197 2294 3444 
Q 2294 3772 2109 3958 
Q 1925 4144 1606 4144 
Q 1288 4144 1088 3959 
Q 888 3775 888 3528 
Q 888 3366 970 3203 
Q 1053 3041 1206 2894 
L 1719 2469 
z
M 1375 2016 
Q 1116 1797 991 1539 
Q 866 1281 866 981 
Q 866 578 1086 336 
Q 1306 94 1647 94 
Q 1984 94 2187 284 
Q 2391 475 2391 747 
Q 2391 972 2272 1150 
Q 2050 1481 1375 2016 
z
" transform="scale(0.015625)"/>
        <path id="TimesNewRomanPSMT-39" d="M 338 -88 
L 338 28 
Q 744 34 1094 217 
Q 1444 400 1770 856 
Q 2097 1313 2225 1859 
Q 1734 1544 1338 1544 
Q 891 1544 572 1889 
Q 253 2234 253 2806 
Q 253 3363 572 3797 
Q 956 4325 1575 4325 
Q 2097 4325 2469 3894 
Q 2925 3359 2925 2575 
Q 2925 1869 2578 1258 
Q 2231 647 1613 244 
Q 1109 -88 516 -88 
L 338 -88 
z
M 2275 2091 
Q 2331 2497 2331 2741 
Q 2331 3044 2228 3395 
Q 2125 3747 1936 3934 
Q 1747 4122 1506 4122 
Q 1228 4122 1018 3872 
Q 809 3622 809 3128 
Q 809 2469 1088 2097 
Q 1291 1828 1588 1828 
Q 1731 1828 1928 1897 
Q 2125 1966 2275 2091 
z
" transform="scale(0.015625)"/>
       </defs>
       <use xlink:href="#TimesNewRomanPSMT-30"/>
       <use xlink:href="#TimesNewRomanPSMT-2e" x="50"/>
       <use xlink:href="#TimesNewRomanPSMT-38" x="75"/>
       <use xlink:href="#TimesNewRomanPSMT-39" x="125"/>
      </g>
     </g>
    </g>
    <g id="ytick_2">
     <g id="line2d_15">
      <path d="M 107.265 374.508103 
L 597.863583 374.508103 
" clip-path="url(#pc035beb84f)" style="fill: none; stroke: #000000; stroke-width: 0.7; stroke-linecap: square"/>
     </g>
     <g id="line2d_16">
      <g>
       <use xlink:href="#m183d3eb542" x="107.265" y="374.508103" style="stroke: #000000; stroke-width: 2"/>
      </g>
     </g>
     <g id="text_9">
      <!-- 0.90 -->
      <g transform="translate(51.265 384.923728) scale(0.3 -0.3)">
       <use xlink:href="#TimesNewRomanPSMT-30"/>
       <use xlink:href="#TimesNewRomanPSMT-2e" x="50"/>
       <use xlink:href="#TimesNewRomanPSMT-39" x="75"/>
       <use xlink:href="#TimesNewRomanPSMT-30" x="125"/>
      </g>
     </g>
    </g>
    <g id="ytick_3">
     <g id="line2d_17">
      <path d="M 107.265 315.026024 
L 597.863583 315.026024 
" clip-path="url(#pc035beb84f)" style="fill: none; stroke: #000000; stroke-width: 0.7; stroke-linecap: square"/>
     </g>
     <g id="line2d_18">
      <g>
       <use xlink:href="#m183d3eb542" x="107.265" y="315.026024" style="stroke: #000000; stroke-width: 2"/>
      </g>
     </g>
     <g id="text_10">
      <!-- 0.91 -->
      <g transform="translate(51.265 325.441649) scale(0.3 -0.3)">
       <use xlink:href="#TimesNewRomanPSMT-30"/>
       <use xlink:href="#TimesNewRomanPSMT-2e" x="50"/>
       <use xlink:href="#TimesNewRomanPSMT-39" x="75"/>
       <use xlink:href="#TimesNewRomanPSMT-31" x="125"/>
      </g>
     </g>
    </g>
    <g id="ytick_4">
     <g id="line2d_19">
      <path d="M 107.265 255.543944 
L 597.863583 255.543944 
" clip-path="url(#pc035beb84f)" style="fill: none; stroke: #000000; stroke-width: 0.7; stroke-linecap: square"/>
     </g>
     <g id="line2d_20">
      <g>
       <use xlink:href="#m183d3eb542" x="107.265" y="255.543944" style="stroke: #000000; stroke-width: 2"/>
      </g>
     </g>
     <g id="text_11">
      <!-- 0.92 -->
      <g transform="translate(51.265 265.959569) scale(0.3 -0.3)">
       <use xlink:href="#TimesNewRomanPSMT-30"/>
       <use xlink:href="#TimesNewRomanPSMT-2e" x="50"/>
       <use xlink:href="#TimesNewRomanPSMT-39" x="75"/>
       <use xlink:href="#TimesNewRomanPSMT-32" x="125"/>
      </g>
     </g>
    </g>
    <g id="ytick_5">
     <g id="line2d_21">
      <path d="M 107.265 196.061864 
L 597.863583 196.061864 
" clip-path="url(#pc035beb84f)" style="fill: none; stroke: #000000; stroke-width: 0.7; stroke-linecap: square"/>
     </g>
     <g id="line2d_22">
      <g>
       <use xlink:href="#m183d3eb542" x="107.265" y="196.061864" style="stroke: #000000; stroke-width: 2"/>
      </g>
     </g>
     <g id="text_12">
      <!-- 0.93 -->
      <g transform="translate(51.265 206.477489) scale(0.3 -0.3)">
       <use xlink:href="#TimesNewRomanPSMT-30"/>
       <use xlink:href="#TimesNewRomanPSMT-2e" x="50"/>
       <use xlink:href="#TimesNewRomanPSMT-39" x="75"/>
       <use xlink:href="#TimesNewRomanPSMT-33" x="125"/>
      </g>
     </g>
    </g>
    <g id="ytick_6">
     <g id="line2d_23">
      <path d="M 107.265 136.579784 
L 597.863583 136.579784 
" clip-path="url(#pc035beb84f)" style="fill: none; stroke: #000000; stroke-width: 0.7; stroke-linecap: square"/>
     </g>
     <g id="line2d_24">
      <g>
       <use xlink:href="#m183d3eb542" x="107.265" y="136.579784" style="stroke: #000000; stroke-width: 2"/>
      </g>
     </g>
     <g id="text_13">
      <!-- 0.94 -->
      <g transform="translate(51.265 146.995409) scale(0.3 -0.3)">
       <defs>
        <path id="TimesNewRomanPSMT-34" d="M 2978 1563 
L 2978 1119 
L 2409 1119 
L 2409 0 
L 1894 0 
L 1894 1119 
L 100 1119 
L 100 1519 
L 2066 4325 
L 2409 4325 
L 2409 1563 
L 2978 1563 
z
M 1894 1563 
L 1894 3666 
L 406 1563 
L 1894 1563 
z
" transform="scale(0.015625)"/>
       </defs>
       <use xlink:href="#TimesNewRomanPSMT-30"/>
       <use xlink:href="#TimesNewRomanPSMT-2e" x="50"/>
       <use xlink:href="#TimesNewRomanPSMT-39" x="75"/>
       <use xlink:href="#TimesNewRomanPSMT-34" x="125"/>
      </g>
     </g>
    </g>
    <g id="ytick_7">
     <g id="line2d_25">
      <path d="M 107.265 77.097705 
L 597.863583 77.097705 
" clip-path="url(#pc035beb84f)" style="fill: none; stroke: #000000; stroke-width: 0.7; stroke-linecap: square"/>
     </g>
     <g id="line2d_26">
      <g>
       <use xlink:href="#m183d3eb542" x="107.265" y="77.097705" style="stroke: #000000; stroke-width: 2"/>
      </g>
     </g>
     <g id="text_14">
      <!-- 0.95 -->
      <g transform="translate(51.265 87.51333) scale(0.3 -0.3)">
       <use xlink:href="#TimesNewRomanPSMT-30"/>
       <use xlink:href="#TimesNewRomanPSMT-2e" x="50"/>
       <use xlink:href="#TimesNewRomanPSMT-39" x="75"/>
       <use xlink:href="#TimesNewRomanPSMT-35" x="125"/>
      </g>
     </g>
    </g>
    <g id="ytick_8">
     <g id="line2d_27">
      <path d="M 107.265 17.615625 
L 597.863583 17.615625 
" clip-path="url(#pc035beb84f)" style="fill: none; stroke: #000000; stroke-width: 0.7; stroke-linecap: square"/>
     </g>
     <g id="line2d_28">
      <g>
       <use xlink:href="#m183d3eb542" x="107.265" y="17.615625" style="stroke: #000000; stroke-width: 2"/>
      </g>
     </g>
     <g id="text_15">
      <!-- 0.96 -->
      <g transform="translate(51.265 28.03125) scale(0.3 -0.3)">
       <defs>
        <path id="TimesNewRomanPSMT-36" d="M 2869 4325 
L 2869 4209 
Q 2456 4169 2195 4045 
Q 1934 3922 1679 3669 
Q 1425 3416 1258 3105 
Q 1091 2794 978 2366 
Q 1428 2675 1881 2675 
Q 2316 2675 2634 2325 
Q 2953 1975 2953 1425 
Q 2953 894 2631 456 
Q 2244 -75 1606 -75 
Q 1172 -75 869 213 
Q 275 772 275 1663 
Q 275 2231 503 2743 
Q 731 3256 1154 3653 
Q 1578 4050 1965 4187 
Q 2353 4325 2688 4325 
L 2869 4325 
z
M 925 2138 
Q 869 1716 869 1456 
Q 869 1156 980 804 
Q 1091 453 1309 247 
Q 1469 100 1697 100 
Q 1969 100 2183 356 
Q 2397 613 2397 1088 
Q 2397 1622 2184 2012 
Q 1972 2403 1581 2403 
Q 1463 2403 1327 2353 
Q 1191 2303 925 2138 
z
" transform="scale(0.015625)"/>
       </defs>
       <use xlink:href="#TimesNewRomanPSMT-30"/>
       <use xlink:href="#TimesNewRomanPSMT-2e" x="50"/>
       <use xlink:href="#TimesNewRomanPSMT-39" x="75"/>
       <use xlink:href="#TimesNewRomanPSMT-36" x="125"/>
      </g>
     </g>
    </g>
    <g id="text_16">
     <!-- Доля верно угаданных меток -->
     <g transform="translate(29.36 451.534826) rotate(-90) scale(0.32 -0.32)">
      <defs>
       <path id="TimesNewRomanPSMT-414" d="M 753 4238 
L 4250 4238 
L 4250 4122 
Q 3856 4109 3747 3996 
Q 3638 3884 3638 3466 
L 3638 1119 
Q 3638 438 3716 277 
Q 3794 116 4222 116 
L 4222 -1219 
L 4116 -1219 
Q 4022 -756 3814 -473 
Q 3606 -191 3342 -95 
Q 3078 0 2709 0 
L 1628 0 
Q 919 0 586 -384 
Q 253 -769 188 -1219 
L 81 -1219 
L 81 116 
Q 584 159 900 718 
Q 1216 1278 1337 2092 
Q 1459 2906 1459 3428 
Q 1459 3741 1381 3887 
Q 1303 4034 1195 4071 
Q 1088 4109 753 4122 
L 753 4238 
z
M 1772 4006 
Q 1694 2153 1475 1406 
Q 1256 659 888 231 
L 2456 231 
Q 2875 231 2958 304 
Q 3041 378 3041 781 
L 3041 4006 
L 1772 4006 
z
" transform="scale(0.015625)"/>
       <path id="TimesNewRomanPSMT-43b" d="M 494 2863 
L 3053 2863 
L 3053 2744 
Q 2841 2744 2770 2701 
Q 2700 2659 2659 2596 
Q 2619 2534 2619 2191 
L 2619 672 
Q 2619 341 2653 277 
Q 2688 213 2761 164 
Q 2834 116 3053 116 
L 3053 0 
L 1572 0 
L 1572 116 
Q 1813 116 1905 141 
Q 1997 166 2050 261 
Q 2103 356 2103 672 
L 2103 2659 
L 1150 2659 
L 1150 1453 
Q 1150 769 1089 492 
Q 1028 216 848 83 
Q 669 -50 438 -50 
Q 38 -50 38 281 
Q 38 394 102 466 
Q 166 538 269 538 
Q 378 538 472 447 
Q 594 328 656 328 
Q 797 328 861 564 
Q 925 800 925 1391 
L 925 2022 
Q 925 2509 854 2615 
Q 784 2722 494 2744 
L 494 2863 
z
" transform="scale(0.015625)"/>
       <path id="TimesNewRomanPSMT-44f" d="M 2800 2863 
L 2800 2744 
Q 2606 2744 2514 2691 
Q 2422 2638 2394 2556 
Q 2366 2475 2366 2191 
L 2366 672 
Q 2366 400 2391 314 
Q 2416 228 2511 172 
Q 2606 116 2800 116 
L 2800 0 
L 1416 0 
L 1416 116 
Q 1675 116 1762 211 
Q 1850 306 1850 672 
L 1850 1294 
L 1722 1291 
Q 1694 1291 1622 1294 
L 709 0 
L -3 0 
L -3 116 
Q 153 116 214 158 
Q 275 200 441 434 
L 1109 1378 
Q 391 1628 391 2144 
Q 391 2434 648 2648 
Q 906 2863 1528 2863 
L 2800 2863 
z
M 1850 2625 
Q 1728 2659 1619 2659 
Q 1303 2659 1147 2503 
Q 991 2347 991 2131 
Q 991 1856 1212 1675 
Q 1434 1494 1772 1494 
Q 1806 1494 1850 1500 
L 1850 2625 
z
" transform="scale(0.015625)"/>
       <path id="TimesNewRomanPSMT-443" d="M 38 2863 
L 1372 2863 
L 1372 2747 
L 1306 2747 
Q 1166 2747 1095 2686 
Q 1025 2625 1025 2534 
Q 1025 2413 1128 2197 
L 1825 753 
L 2466 2334 
Q 2519 2463 2519 2588 
Q 2519 2644 2497 2672 
Q 2472 2706 2419 2726 
Q 2366 2747 2231 2747 
L 2231 2863 
L 3163 2863 
L 3163 2747 
Q 3047 2734 2984 2696 
Q 2922 2659 2847 2556 
Q 2819 2513 2741 2316 
L 1575 -541 
Q 1406 -956 1132 -1168 
Q 859 -1381 606 -1381 
Q 422 -1381 303 -1275 
Q 184 -1169 184 -1031 
Q 184 -900 270 -820 
Q 356 -741 506 -741 
Q 609 -741 788 -809 
Q 913 -856 944 -856 
Q 1038 -856 1148 -759 
Q 1259 -663 1372 -384 
L 1575 113 
L 547 2272 
Q 500 2369 397 2513 
Q 319 2622 269 2659 
Q 197 2709 38 2747 
L 38 2863 
z
" transform="scale(0.015625)"/>
       <path id="TimesNewRomanPSMT-434" d="M 591 2863 
L 3116 2863 
L 3116 2744 
Q 2903 2744 2833 2701 
Q 2763 2659 2722 2596 
Q 2681 2534 2681 2191 
L 2681 775 
Q 2681 328 2757 226 
Q 2834 125 3116 116 
L 3116 -794 
L 2997 -794 
Q 2984 -538 2870 -347 
Q 2756 -156 2553 -78 
Q 2350 0 1953 0 
L 1216 0 
Q 872 0 678 -61 
Q 484 -122 354 -315 
Q 225 -509 197 -794 
L 81 -794 
L 81 116 
Q 338 125 547 319 
Q 756 513 915 1078 
Q 1075 1644 1075 2191 
Q 1075 2728 591 2744 
L 591 2863 
z
M 1281 2659 
L 1281 2488 
Q 1281 953 725 203 
L 1788 203 
Q 2075 203 2119 251 
Q 2163 300 2163 609 
L 2163 2659 
L 1281 2659 
z
" transform="scale(0.015625)"/>
       <path id="TimesNewRomanPSMT-44b" d="M 2716 2744 
L 2716 2863 
L 4156 2863 
L 4156 2744 
Q 3966 2744 3878 2703 
Q 3791 2663 3758 2578 
Q 3725 2494 3725 2191 
L 3725 672 
Q 3725 378 3753 292 
Q 3781 206 3873 161 
Q 3966 116 4156 116 
L 4156 0 
L 2716 0 
L 2716 116 
Q 2959 125 3032 148 
Q 3106 172 3156 269 
Q 3206 366 3206 672 
L 3206 2191 
Q 3206 2494 3172 2581 
Q 3138 2669 3052 2705 
Q 2966 2741 2716 2744 
z
M 1091 1588 
L 1447 1594 
Q 2722 1594 2722 806 
Q 2722 441 2411 220 
Q 2100 0 1516 0 
L 141 0 
L 141 116 
Q 419 116 497 217 
Q 575 319 575 672 
L 575 2191 
Q 575 2525 540 2586 
Q 506 2647 434 2695 
Q 363 2744 141 2744 
L 141 2863 
L 1638 2863 
L 1638 2744 
Q 1328 2744 1256 2708 
Q 1184 2672 1137 2614 
Q 1091 2556 1091 2191 
L 1091 1588 
z
M 1091 247 
Q 1256 203 1422 203 
Q 1734 203 1929 368 
Q 2125 534 2125 788 
Q 2125 1388 1291 1388 
Q 1219 1388 1091 1384 
L 1091 247 
z
" transform="scale(0.015625)"/>
       <path id="TimesNewRomanPSMT-445" d="M 84 2863 
L 1431 2863 
L 1431 2747 
Q 1303 2747 1251 2703 
Q 1200 2659 1200 2588 
Q 1200 2513 1309 2356 
Q 1344 2306 1413 2200 
L 1616 1875 
L 1850 2200 
Q 2075 2509 2075 2591 
Q 2075 2656 2022 2701 
Q 1969 2747 1850 2747 
L 1850 2863 
L 2819 2863 
L 2819 2747 
Q 2666 2738 2553 2663 
Q 2400 2556 2134 2200 
L 1744 1678 
L 2456 653 
Q 2719 275 2831 198 
Q 2944 122 3122 113 
L 3122 0 
L 1772 0 
L 1772 113 
Q 1913 113 1991 175 
Q 2050 219 2050 291 
Q 2050 363 1850 653 
L 1431 1266 
L 972 653 
Q 759 369 759 316 
Q 759 241 829 180 
Q 900 119 1041 113 
L 1041 0 
L 106 0 
L 106 113 
Q 219 128 303 191 
Q 422 281 703 653 
L 1303 1450 
L 759 2238 
Q 528 2575 401 2661 
Q 275 2747 84 2747 
L 84 2863 
z
" transform="scale(0.015625)"/>
       <path id="TimesNewRomanPSMT-43c" d="M 2050 747 
L 2944 2863 
L 3909 2863 
L 3909 2744 
Q 3697 2744 3626 2701 
Q 3556 2659 3515 2596 
Q 3475 2534 3475 2191 
L 3475 672 
Q 3475 375 3504 289 
Q 3534 203 3626 159 
Q 3719 116 3909 116 
L 3909 0 
L 2525 0 
L 2525 116 
Q 2781 116 2868 211 
Q 2956 306 2956 672 
L 2956 2394 
L 1944 0 
L 1834 0 
L 803 2394 
L 803 672 
Q 803 375 834 289 
Q 866 203 956 159 
Q 1047 116 1238 116 
L 1238 0 
L 144 0 
L 144 116 
Q 422 116 500 217 
Q 578 319 578 672 
L 578 2191 
Q 578 2525 543 2586 
Q 509 2647 437 2695 
Q 366 2744 144 2744 
L 144 2863 
L 1150 2863 
L 2050 747 
z
" transform="scale(0.015625)"/>
       <path id="TimesNewRomanPSMT-442" d="M 156 2863 
L 2631 2863 
L 2756 2088 
L 2616 2088 
Q 2578 2322 2490 2450 
Q 2403 2578 2290 2618 
Q 2178 2659 1906 2659 
L 1656 2659 
L 1656 672 
Q 1656 353 1695 267 
Q 1734 181 1821 153 
Q 1909 125 2222 116 
L 2222 0 
L 666 0 
L 666 116 
Q 966 122 1052 212 
Q 1138 303 1138 672 
L 1138 2659 
L 881 2659 
Q 613 2659 516 2626 
Q 419 2594 330 2470 
Q 241 2347 178 2088 
L 38 2088 
L 156 2863 
z
" transform="scale(0.015625)"/>
      </defs>
      <use xlink:href="#TimesNewRomanPSMT-414"/>
      <use xlink:href="#TimesNewRomanPSMT-43e" x="68.212891"/>
      <use xlink:href="#TimesNewRomanPSMT-43b" x="116.837891"/>
      <use xlink:href="#TimesNewRomanPSMT-44f" x="166.740234"/>
      <use xlink:href="#TimesNewRomanPSMT-20" x="212.736328"/>
      <use xlink:href="#TimesNewRomanPSMT-432" x="237.736328"/>
      <use xlink:href="#TimesNewRomanPSMT-435" x="284.328125"/>
      <use xlink:href="#TimesNewRomanPSMT-440" x="328.712891"/>
      <use xlink:href="#TimesNewRomanPSMT-43d" x="378.712891"/>
      <use xlink:href="#TimesNewRomanPSMT-43e" x="432.228516"/>
      <use xlink:href="#TimesNewRomanPSMT-20" x="482.228516"/>
      <use xlink:href="#TimesNewRomanPSMT-443" x="507.228516"/>
      <use xlink:href="#TimesNewRomanPSMT-433" x="557.228516"/>
      <use xlink:href="#TimesNewRomanPSMT-430" x="598.244141"/>
      <use xlink:href="#TimesNewRomanPSMT-434" x="642.628906"/>
      <use xlink:href="#TimesNewRomanPSMT-430" x="693.507812"/>
      <use xlink:href="#TimesNewRomanPSMT-43d" x="737.892578"/>
      <use xlink:href="#TimesNewRomanPSMT-43d" x="791.408203"/>
      <use xlink:href="#TimesNewRomanPSMT-44b" x="844.923828"/>
      <use xlink:href="#TimesNewRomanPSMT-445" x="912.111328"/>
      <use xlink:href="#TimesNewRomanPSMT-20" x="962.111328"/>
      <use xlink:href="#TimesNewRomanPSMT-43c" x="987.111328"/>
      <use xlink:href="#TimesNewRomanPSMT-435" x="1050.392578"/>
      <use xlink:href="#TimesNewRomanPSMT-442" x="1094.777344"/>
      <use xlink:href="#TimesNewRomanPSMT-43e" x="1137.103516"/>
      <use xlink:href="#TimesNewRomanPSMT-43a" x="1187.103516"/>
     </g>
    </g>
   </g>
   <g id="line2d_29">
    <defs>
     <path id="m22c2ff111e" d="M 0 3.75 
C 0.994512 3.75 1.948425 3.354876 2.65165 2.65165 
C 3.354876 1.948425 3.75 0.994512 3.75 0 
C 3.75 -0.994512 3.354876 -1.948425 2.65165 -2.65165 
C 1.948425 -3.354876 0.994512 -3.75 0 -3.75 
C -0.994512 -3.75 -1.948425 -3.354876 -2.65165 -2.65165 
C -3.354876 -1.948425 -3.75 -0.994512 -3.75 0 
C -3.75 0.994512 -3.354876 1.948425 -2.65165 2.65165 
C -1.948425 3.354876 -0.994512 3.75 0 3.75 
z
" style="stroke: #ff0000"/>
    </defs>
    <g clip-path="url(#pc035beb84f)">
     <use xlink:href="#m22c2ff111e" x="307.96442" y="296.922782" style="fill: #ff0000; stroke: #ff0000"/>
     <use xlink:href="#m22c2ff111e" x="325.804369" y="296.922782" style="fill: #ff0000; stroke: #ff0000"/>
     <use xlink:href="#m22c2ff111e" x="343.644317" y="296.922782" style="fill: #ff0000; stroke: #ff0000"/>
     <use xlink:href="#m22c2ff111e" x="361.484265" y="383.128695" style="fill: #ff0000; stroke: #ff0000"/>
     <use xlink:href="#m22c2ff111e" x="379.324214" y="383.128695" style="fill: #ff0000; stroke: #ff0000"/>
     <use xlink:href="#m22c2ff111e" x="397.164162" y="383.128695" style="fill: #ff0000; stroke: #ff0000"/>
     <use xlink:href="#m22c2ff111e" x="415.004111" y="469.334607" style="fill: #ff0000; stroke: #ff0000"/>
     <use xlink:href="#m22c2ff111e" x="432.844059" y="469.334607" style="fill: #ff0000; stroke: #ff0000"/>
     <use xlink:href="#m22c2ff111e" x="450.684008" y="383.128695" style="fill: #ff0000; stroke: #ff0000"/>
     <use xlink:href="#m22c2ff111e" x="468.523956" y="383.128695" style="fill: #ff0000; stroke: #ff0000"/>
     <use xlink:href="#m22c2ff111e" x="486.363905" y="383.128695" style="fill: #ff0000; stroke: #ff0000"/>
     <use xlink:href="#m22c2ff111e" x="504.203853" y="383.128695" style="fill: #ff0000; stroke: #ff0000"/>
     <use xlink:href="#m22c2ff111e" x="522.043802" y="383.128695" style="fill: #ff0000; stroke: #ff0000"/>
     <use xlink:href="#m22c2ff111e" x="539.88375" y="383.128695" style="fill: #ff0000; stroke: #ff0000"/>
     <use xlink:href="#m22c2ff111e" x="557.723698" y="383.128695" style="fill: #ff0000; stroke: #ff0000"/>
     <use xlink:href="#m22c2ff111e" x="575.563647" y="383.128695" style="fill: #ff0000; stroke: #ff0000"/>
    </g>
   </g>
   <g id="line2d_30">
    <defs>
     <path id="mc30f474d4b" d="M -7.5 7.5 
L 7.5 7.5 
L 7.5 -7.5 
L -7.5 -7.5 
z
" style="stroke: #008000; stroke-linejoin: miter"/>
    </defs>
    <g clip-path="url(#pc035beb84f)">
     <use xlink:href="#mc30f474d4b" x="129.564936" y="210.716869" style="fill: #008000; stroke: #008000; stroke-linejoin: miter"/>
     <use xlink:href="#mc30f474d4b" x="147.404884" y="210.716869" style="fill: #008000; stroke: #008000; stroke-linejoin: miter"/>
     <use xlink:href="#mc30f474d4b" x="165.244832" y="210.716869" style="fill: #008000; stroke: #008000; stroke-linejoin: miter"/>
     <use xlink:href="#mc30f474d4b" x="183.084781" y="210.716869" style="fill: #008000; stroke: #008000; stroke-linejoin: miter"/>
     <use xlink:href="#mc30f474d4b" x="200.924729" y="210.716869" style="fill: #008000; stroke: #008000; stroke-linejoin: miter"/>
     <use xlink:href="#mc30f474d4b" x="218.764678" y="296.922782" style="fill: #008000; stroke: #008000; stroke-linejoin: miter"/>
     <use xlink:href="#mc30f474d4b" x="236.604626" y="296.922782" style="fill: #008000; stroke: #008000; stroke-linejoin: miter"/>
     <use xlink:href="#mc30f474d4b" x="254.444575" y="296.922782" style="fill: #008000; stroke: #008000; stroke-linejoin: miter"/>
     <use xlink:href="#mc30f474d4b" x="272.284523" y="296.922782" style="fill: #008000; stroke: #008000; stroke-linejoin: miter"/>
     <use xlink:href="#mc30f474d4b" x="290.124472" y="296.922782" style="fill: #008000; stroke: #008000; stroke-linejoin: miter"/>
     <use xlink:href="#mc30f474d4b" x="307.96442" y="210.716869" style="fill: #008000; stroke: #008000; stroke-linejoin: miter"/>
     <use xlink:href="#mc30f474d4b" x="325.804369" y="210.716869" style="fill: #008000; stroke: #008000; stroke-linejoin: miter"/>
     <use xlink:href="#mc30f474d4b" x="343.644317" y="210.716869" style="fill: #008000; stroke: #008000; stroke-linejoin: miter"/>
     <use xlink:href="#mc30f474d4b" x="361.484265" y="210.716869" style="fill: #008000; stroke: #008000; stroke-linejoin: miter"/>
     <use xlink:href="#mc30f474d4b" x="379.324214" y="210.716869" style="fill: #008000; stroke: #008000; stroke-linejoin: miter"/>
     <use xlink:href="#mc30f474d4b" x="397.164162" y="210.716869" style="fill: #008000; stroke: #008000; stroke-linejoin: miter"/>
     <use xlink:href="#mc30f474d4b" x="415.004111" y="124.510957" style="fill: #008000; stroke: #008000; stroke-linejoin: miter"/>
     <use xlink:href="#mc30f474d4b" x="432.844059" y="124.510957" style="fill: #008000; stroke: #008000; stroke-linejoin: miter"/>
     <use xlink:href="#mc30f474d4b" x="450.684008" y="124.510957" style="fill: #008000; stroke: #008000; stroke-linejoin: miter"/>
     <use xlink:href="#mc30f474d4b" x="468.523956" y="38.305044" style="fill: #008000; stroke: #008000; stroke-linejoin: miter"/>
     <use xlink:href="#mc30f474d4b" x="486.363905" y="38.305044" style="fill: #008000; stroke: #008000; stroke-linejoin: miter"/>
     <use xlink:href="#mc30f474d4b" x="504.203853" y="124.510957" style="fill: #008000; stroke: #008000; stroke-linejoin: miter"/>
     <use xlink:href="#mc30f474d4b" x="522.043802" y="124.510957" style="fill: #008000; stroke: #008000; stroke-linejoin: miter"/>
     <use xlink:href="#mc30f474d4b" x="539.88375" y="124.510957" style="fill: #008000; stroke: #008000; stroke-linejoin: miter"/>
     <use xlink:href="#mc30f474d4b" x="557.723698" y="124.510957" style="fill: #008000; stroke: #008000; stroke-linejoin: miter"/>
     <use xlink:href="#mc30f474d4b" x="575.563647" y="124.510957" style="fill: #008000; stroke: #008000; stroke-linejoin: miter"/>
    </g>
   </g>
   <g id="line2d_31">
    <defs>
     <path id="m9d22bc334f" d="M 0 -7.5 
L -7.5 7.5 
L 7.5 7.5 
z
" style="stroke: #0000ff; stroke-linejoin: miter"/>
    </defs>
    <g clip-path="url(#pc035beb84f)">
     <use xlink:href="#m9d22bc334f" x="307.96442" y="296.922782" style="fill: #0000ff; stroke: #0000ff; stroke-linejoin: miter"/>
     <use xlink:href="#m9d22bc334f" x="325.804369" y="296.922782" style="fill: #0000ff; stroke: #0000ff; stroke-linejoin: miter"/>
     <use xlink:href="#m9d22bc334f" x="343.644317" y="296.922782" style="fill: #0000ff; stroke: #0000ff; stroke-linejoin: miter"/>
     <use xlink:href="#m9d22bc334f" x="361.484265" y="296.922782" style="fill: #0000ff; stroke: #0000ff; stroke-linejoin: miter"/>
     <use xlink:href="#m9d22bc334f" x="379.324214" y="296.922782" style="fill: #0000ff; stroke: #0000ff; stroke-linejoin: miter"/>
     <use xlink:href="#m9d22bc334f" x="397.164162" y="296.922782" style="fill: #0000ff; stroke: #0000ff; stroke-linejoin: miter"/>
     <use xlink:href="#m9d22bc334f" x="415.004111" y="296.922782" style="fill: #0000ff; stroke: #0000ff; stroke-linejoin: miter"/>
     <use xlink:href="#m9d22bc334f" x="432.844059" y="383.128695" style="fill: #0000ff; stroke: #0000ff; stroke-linejoin: miter"/>
     <use xlink:href="#m9d22bc334f" x="450.684008" y="383.128695" style="fill: #0000ff; stroke: #0000ff; stroke-linejoin: miter"/>
     <use xlink:href="#m9d22bc334f" x="468.523956" y="383.128695" style="fill: #0000ff; stroke: #0000ff; stroke-linejoin: miter"/>
     <use xlink:href="#m9d22bc334f" x="486.363905" y="383.128695" style="fill: #0000ff; stroke: #0000ff; stroke-linejoin: miter"/>
     <use xlink:href="#m9d22bc334f" x="504.203853" y="383.128695" style="fill: #0000ff; stroke: #0000ff; stroke-linejoin: miter"/>
     <use xlink:href="#m9d22bc334f" x="522.043802" y="383.128695" style="fill: #0000ff; stroke: #0000ff; stroke-linejoin: miter"/>
     <use xlink:href="#m9d22bc334f" x="539.88375" y="383.128695" style="fill: #0000ff; stroke: #0000ff; stroke-linejoin: miter"/>
     <use xlink:href="#m9d22bc334f" x="557.723698" y="383.128695" style="fill: #0000ff; stroke: #0000ff; stroke-linejoin: miter"/>
     <use xlink:href="#m9d22bc334f" x="575.563647" y="383.128695" style="fill: #0000ff; stroke: #0000ff; stroke-linejoin: miter"/>
    </g>
   </g>
   <g id="line2d_32">
    <defs>
     <path id="m17a3a1abee" d="M 0 -7.5 
L -1.683855 -2.317627 
L -7.132924 -2.317627 
L -2.724534 0.885255 
L -4.408389 6.067627 
L -0 2.864745 
L 4.408389 6.067627 
L 2.724534 0.885255 
L 7.132924 -2.317627 
L 1.683855 -2.317627 
z
" style="stroke: #a020f0; stroke-linejoin: bevel"/>
    </defs>
    <g clip-path="url(#pc035beb84f)">
     <use xlink:href="#m17a3a1abee" x="218.764678" y="469.334607" style="fill: #a020f0; stroke: #a020f0; stroke-linejoin: bevel"/>
     <use xlink:href="#m17a3a1abee" x="236.604626" y="296.922782" style="fill: #a020f0; stroke: #a020f0; stroke-linejoin: bevel"/>
     <use xlink:href="#m17a3a1abee" x="254.444575" y="383.128695" style="fill: #a020f0; stroke: #a020f0; stroke-linejoin: bevel"/>
     <use xlink:href="#m17a3a1abee" x="272.284523" y="296.922782" style="fill: #a020f0; stroke: #a020f0; stroke-linejoin: bevel"/>
     <use xlink:href="#m17a3a1abee" x="290.124472" y="296.922782" style="fill: #a020f0; stroke: #a020f0; stroke-linejoin: bevel"/>
     <use xlink:href="#m17a3a1abee" x="307.96442" y="383.128695" style="fill: #a020f0; stroke: #a020f0; stroke-linejoin: bevel"/>
     <use xlink:href="#m17a3a1abee" x="325.804369" y="469.334607" style="fill: #a020f0; stroke: #a020f0; stroke-linejoin: bevel"/>
     <use xlink:href="#m17a3a1abee" x="343.644317" y="469.334607" style="fill: #a020f0; stroke: #a020f0; stroke-linejoin: bevel"/>
     <use xlink:href="#m17a3a1abee" x="361.484265" y="469.334607" style="fill: #a020f0; stroke: #a020f0; stroke-linejoin: bevel"/>
     <use xlink:href="#m17a3a1abee" x="379.324214" y="469.334607" style="fill: #a020f0; stroke: #a020f0; stroke-linejoin: bevel"/>
     <use xlink:href="#m17a3a1abee" x="397.164162" y="469.334607" style="fill: #a020f0; stroke: #a020f0; stroke-linejoin: bevel"/>
     <use xlink:href="#m17a3a1abee" x="415.004111" y="469.334607" style="fill: #a020f0; stroke: #a020f0; stroke-linejoin: bevel"/>
     <use xlink:href="#m17a3a1abee" x="432.844059" y="383.128695" style="fill: #a020f0; stroke: #a020f0; stroke-linejoin: bevel"/>
     <use xlink:href="#m17a3a1abee" x="450.684008" y="383.128695" style="fill: #a020f0; stroke: #a020f0; stroke-linejoin: bevel"/>
     <use xlink:href="#m17a3a1abee" x="468.523956" y="383.128695" style="fill: #a020f0; stroke: #a020f0; stroke-linejoin: bevel"/>
     <use xlink:href="#m17a3a1abee" x="486.363905" y="383.128695" style="fill: #a020f0; stroke: #a020f0; stroke-linejoin: bevel"/>
     <use xlink:href="#m17a3a1abee" x="504.203853" y="383.128695" style="fill: #a020f0; stroke: #a020f0; stroke-linejoin: bevel"/>
     <use xlink:href="#m17a3a1abee" x="522.043802" y="383.128695" style="fill: #a020f0; stroke: #a020f0; stroke-linejoin: bevel"/>
     <use xlink:href="#m17a3a1abee" x="539.88375" y="383.128695" style="fill: #a020f0; stroke: #a020f0; stroke-linejoin: bevel"/>
     <use xlink:href="#m17a3a1abee" x="557.723698" y="383.128695" style="fill: #a020f0; stroke: #a020f0; stroke-linejoin: bevel"/>
     <use xlink:href="#m17a3a1abee" x="575.563647" y="383.128695" style="fill: #a020f0; stroke: #a020f0; stroke-linejoin: bevel"/>
    </g>
   </g>
   <g id="line2d_33">
    <defs>
     <path id="m7e939f41e0" d="M -2.5 7.5 
L 2.5 7.5 
L 2.5 2.5 
L 7.5 2.5 
L 7.5 -2.5 
L 2.5 -2.5 
L 2.5 -7.5 
L -2.5 -7.5 
L -2.5 -2.5 
L -7.5 -2.5 
L -7.5 2.5 
L -2.5 2.5 
z
" style="stroke: #ffa500; stroke-linejoin: miter"/>
    </defs>
    <g clip-path="url(#pc035beb84f)">
     <use xlink:href="#m7e939f41e0" x="307.96442" y="296.922782" style="fill: #ffa500; stroke: #ffa500; stroke-linejoin: miter"/>
     <use xlink:href="#m7e939f41e0" x="325.804369" y="296.922782" style="fill: #ffa500; stroke: #ffa500; stroke-linejoin: miter"/>
     <use xlink:href="#m7e939f41e0" x="343.644317" y="296.922782" style="fill: #ffa500; stroke: #ffa500; stroke-linejoin: miter"/>
     <use xlink:href="#m7e939f41e0" x="361.484265" y="296.922782" style="fill: #ffa500; stroke: #ffa500; stroke-linejoin: miter"/>
     <use xlink:href="#m7e939f41e0" x="379.324214" y="296.922782" style="fill: #ffa500; stroke: #ffa500; stroke-linejoin: miter"/>
     <use xlink:href="#m7e939f41e0" x="397.164162" y="383.128695" style="fill: #ffa500; stroke: #ffa500; stroke-linejoin: miter"/>
     <use xlink:href="#m7e939f41e0" x="415.004111" y="383.128695" style="fill: #ffa500; stroke: #ffa500; stroke-linejoin: miter"/>
     <use xlink:href="#m7e939f41e0" x="432.844059" y="383.128695" style="fill: #ffa500; stroke: #ffa500; stroke-linejoin: miter"/>
     <use xlink:href="#m7e939f41e0" x="450.684008" y="383.128695" style="fill: #ffa500; stroke: #ffa500; stroke-linejoin: miter"/>
     <use xlink:href="#m7e939f41e0" x="468.523956" y="383.128695" style="fill: #ffa500; stroke: #ffa500; stroke-linejoin: miter"/>
     <use xlink:href="#m7e939f41e0" x="486.363905" y="383.128695" style="fill: #ffa500; stroke: #ffa500; stroke-linejoin: miter"/>
     <use xlink:href="#m7e939f41e0" x="504.203853" y="383.128695" style="fill: #ffa500; stroke: #ffa500; stroke-linejoin: miter"/>
     <use xlink:href="#m7e939f41e0" x="522.043802" y="383.128695" style="fill: #ffa500; stroke: #ffa500; stroke-linejoin: miter"/>
     <use xlink:href="#m7e939f41e0" x="539.88375" y="383.128695" style="fill: #ffa500; stroke: #ffa500; stroke-linejoin: miter"/>
     <use xlink:href="#m7e939f41e0" x="557.723698" y="383.128695" style="fill: #ffa500; stroke: #ffa500; stroke-linejoin: miter"/>
     <use xlink:href="#m7e939f41e0" x="575.563647" y="383.128695" style="fill: #ffa500; stroke: #ffa500; stroke-linejoin: miter"/>
    </g>
   </g>
   <g id="patch_3">
    <path d="M 107.265 490.886085 
L 107.265 16.753566 
" style="fill: none; stroke: #000000; stroke-width: 0.8; stroke-linejoin: miter; stroke-linecap: square"/>
   </g>
   <g id="patch_4">
    <path d="M 597.863583 490.886085 
L 597.863583 16.753566 
" style="fill: none; stroke: #000000; stroke-width: 0.8; stroke-linejoin: miter; stroke-linecap: square"/>
   </g>
   <g id="patch_5">
    <path d="M 107.265 490.886085 
L 597.863583 490.886085 
" style="fill: none; stroke: #000000; stroke-width: 0.8; stroke-linejoin: miter; stroke-linecap: square"/>
   </g>
   <g id="patch_6">
    <path d="M 107.265 16.753566 
L 597.863583 16.753566 
" style="fill: none; stroke: #000000; stroke-width: 0.8; stroke-linejoin: miter; stroke-linecap: square"/>
   </g>
   <g id="legend_1">
    <g id="patch_7">
     <path d="M 615.363583 346.009279 
L 860.19952 346.009279 
Q 865.19952 346.009279 865.19952 341.009279 
L 865.19952 166.630372 
Q 865.19952 161.630372 860.19952 161.630372 
L 615.363583 161.630372 
Q 610.363583 161.630372 610.363583 166.630372 
L 610.363583 341.009279 
Q 610.363583 346.009279 615.363583 346.009279 
z
" style="fill: #ffffff; opacity: 0.8; stroke: #cccccc; stroke-linejoin: miter"/>
    </g>
    <g id="line2d_34">
     <g>
      <use xlink:href="#m22c2ff111e" x="645.363583" y="180.380372" style="fill: #ff0000; stroke: #ff0000"/>
     </g>
    </g>
    <g id="text_17">
     <!-- Епанечникова -->
     <g transform="translate(690.363583 189.130372) scale(0.25 -0.25)">
      <defs>
       <path id="TimesNewRomanPSMT-415" d="M 1338 4006 
L 1338 2331 
L 2269 2331 
Q 2631 2331 2753 2441 
Q 2916 2584 2934 2947 
L 3050 2947 
L 3050 1472 
L 2934 1472 
Q 2891 1781 2847 1869 
Q 2791 1978 2662 2040 
Q 2534 2103 2269 2103 
L 1338 2103 
L 1338 706 
Q 1338 425 1363 364 
Q 1388 303 1450 267 
Q 1513 231 1688 231 
L 2406 231 
Q 2766 231 2928 281 
Q 3091 331 3241 478 
Q 3434 672 3638 1063 
L 3763 1063 
L 3397 0 
L 131 0 
L 131 116 
L 281 116 
Q 431 116 566 188 
Q 666 238 702 338 
Q 738 438 738 747 
L 738 3500 
Q 738 3903 656 3997 
Q 544 4122 281 4122 
L 131 4122 
L 131 4238 
L 3397 4238 
L 3444 3309 
L 3322 3309 
Q 3256 3644 3176 3769 
Q 3097 3894 2941 3959 
Q 2816 4006 2500 4006 
L 1338 4006 
z
" transform="scale(0.015625)"/>
       <path id="TimesNewRomanPSMT-447" d="M 2125 1578 
L 2125 2191 
Q 2125 2488 2095 2573 
Q 2066 2659 1973 2701 
Q 1881 2744 1694 2744 
L 1694 2863 
L 3078 2863 
L 3078 2744 
Q 2866 2744 2795 2701 
Q 2725 2659 2684 2596 
Q 2644 2534 2644 2191 
L 2644 672 
Q 2644 375 2673 289 
Q 2703 203 2795 159 
Q 2888 116 3078 116 
L 3078 0 
L 1625 0 
L 1625 116 
Q 1875 125 1951 148 
Q 2028 172 2076 269 
Q 2125 366 2125 672 
L 2125 1372 
Q 1666 1138 1156 1138 
Q 878 1138 725 1208 
Q 572 1278 531 1370 
Q 491 1463 491 1669 
L 491 2191 
Q 491 2469 466 2556 
Q 441 2644 353 2694 
Q 266 2744 94 2744 
L 94 2863 
L 1441 2863 
L 1441 2744 
Q 1231 2744 1159 2701 
Q 1088 2659 1047 2596 
Q 1006 2534 1006 2191 
L 1006 1838 
Q 1006 1631 1036 1559 
Q 1066 1488 1173 1439 
Q 1281 1391 1478 1391 
Q 1819 1391 2125 1578 
z
" transform="scale(0.015625)"/>
      </defs>
      <use xlink:href="#TimesNewRomanPSMT-415"/>
      <use xlink:href="#TimesNewRomanPSMT-43f" x="61.083984"/>
      <use xlink:href="#TimesNewRomanPSMT-430" x="114.599609"/>
      <use xlink:href="#TimesNewRomanPSMT-43d" x="158.984375"/>
      <use xlink:href="#TimesNewRomanPSMT-435" x="212.5"/>
      <use xlink:href="#TimesNewRomanPSMT-447" x="254.384766"/>
      <use xlink:href="#TimesNewRomanPSMT-43d" x="304.677734"/>
      <use xlink:href="#TimesNewRomanPSMT-438" x="358.193359"/>
      <use xlink:href="#TimesNewRomanPSMT-43a" x="411.708984"/>
      <use xlink:href="#TimesNewRomanPSMT-43e" x="455.167969"/>
      <use xlink:href="#TimesNewRomanPSMT-432" x="505.167969"/>
      <use xlink:href="#TimesNewRomanPSMT-430" x="551.009766"/>
     </g>
    </g>
    <g id="line2d_35">
     <g>
      <use xlink:href="#mc30f474d4b" x="645.363583" y="215.728029" style="fill: #008000; stroke: #008000; stroke-linejoin: miter"/>
     </g>
    </g>
    <g id="text_18">
     <!-- Гаусово -->
     <g transform="translate(690.363583 224.478029) scale(0.25 -0.25)">
      <defs>
       <path id="TimesNewRomanPSMT-413" d="M 3516 4238 
L 3531 3247 
L 3409 3247 
Q 3397 3547 3281 3728 
Q 3166 3909 2998 3957 
Q 2831 4006 2516 4006 
L 1328 4006 
L 1328 772 
Q 1328 353 1436 240 
Q 1544 128 1934 116 
L 1934 0 
L 116 0 
L 116 116 
Q 509 128 618 240 
Q 728 353 728 772 
L 728 3466 
Q 728 3884 618 3996 
Q 509 4109 116 4122 
L 116 4238 
L 3516 4238 
z
" transform="scale(0.015625)"/>
      </defs>
      <use xlink:href="#TimesNewRomanPSMT-413"/>
      <use xlink:href="#TimesNewRomanPSMT-430" x="55.3125"/>
      <use xlink:href="#TimesNewRomanPSMT-443" x="94.572266"/>
      <use xlink:href="#TimesNewRomanPSMT-441" x="144.572266"/>
      <use xlink:href="#TimesNewRomanPSMT-43e" x="188.957031"/>
      <use xlink:href="#TimesNewRomanPSMT-432" x="238.957031"/>
      <use xlink:href="#TimesNewRomanPSMT-43e" x="285.548828"/>
     </g>
    </g>
    <g id="line2d_36">
     <g>
      <use xlink:href="#m9d22bc334f" x="645.363583" y="251.12256" style="fill: #0000ff; stroke: #0000ff; stroke-linejoin: miter"/>
     </g>
    </g>
    <g id="text_19">
     <!-- квадратическое -->
     <g transform="translate(690.363583 259.87256) scale(0.25 -0.25)">
      <use xlink:href="#TimesNewRomanPSMT-43a"/>
      <use xlink:href="#TimesNewRomanPSMT-432" x="48.583984"/>
      <use xlink:href="#TimesNewRomanPSMT-430" x="94.425781"/>
      <use xlink:href="#TimesNewRomanPSMT-434" x="138.810547"/>
      <use xlink:href="#TimesNewRomanPSMT-440" x="189.689453"/>
      <use xlink:href="#TimesNewRomanPSMT-430" x="239.689453"/>
      <use xlink:href="#TimesNewRomanPSMT-442" x="281.449219"/>
      <use xlink:href="#TimesNewRomanPSMT-438" x="325.150391"/>
      <use xlink:href="#TimesNewRomanPSMT-447" x="378.666016"/>
      <use xlink:href="#TimesNewRomanPSMT-435" x="428.958984"/>
      <use xlink:href="#TimesNewRomanPSMT-441" x="475.84375"/>
      <use xlink:href="#TimesNewRomanPSMT-43a" x="520.228516"/>
      <use xlink:href="#TimesNewRomanPSMT-43e" x="563.6875"/>
      <use xlink:href="#TimesNewRomanPSMT-435" x="614.9375"/>
     </g>
    </g>
    <g id="line2d_37">
     <g>
      <use xlink:href="#m17a3a1abee" x="645.363583" y="286.470216" style="fill: #a020f0; stroke: #a020f0; stroke-linejoin: bevel"/>
     </g>
    </g>
    <g id="text_20">
     <!-- треугольное -->
     <g transform="translate(690.363583 295.220216) scale(0.25 -0.25)">
      <defs>
       <path id="TimesNewRomanPSMT-44c" d="M 1094 1588 
L 1450 1594 
Q 2725 1594 2725 806 
Q 2725 441 2414 220 
Q 2103 0 1519 0 
L 144 0 
L 144 116 
Q 422 116 500 217 
Q 578 319 578 672 
L 578 2191 
Q 578 2525 543 2586 
Q 509 2647 437 2695 
Q 366 2744 144 2744 
L 144 2863 
L 1641 2863 
L 1641 2744 
Q 1331 2744 1259 2708 
Q 1188 2672 1141 2614 
Q 1094 2556 1094 2191 
L 1094 1588 
z
M 1094 247 
Q 1259 203 1425 203 
Q 1738 203 1933 368 
Q 2128 534 2128 788 
Q 2128 1388 1294 1388 
Q 1222 1388 1094 1384 
L 1094 247 
z
" transform="scale(0.015625)"/>
      </defs>
      <use xlink:href="#TimesNewRomanPSMT-442"/>
      <use xlink:href="#TimesNewRomanPSMT-440" x="44.951172"/>
      <use xlink:href="#TimesNewRomanPSMT-435" x="94.951172"/>
      <use xlink:href="#TimesNewRomanPSMT-443" x="136.835938"/>
      <use xlink:href="#TimesNewRomanPSMT-433" x="186.835938"/>
      <use xlink:href="#TimesNewRomanPSMT-43e" x="225.351562"/>
      <use xlink:href="#TimesNewRomanPSMT-43b" x="273.976562"/>
      <use xlink:href="#TimesNewRomanPSMT-44c" x="323.878906"/>
      <use xlink:href="#TimesNewRomanPSMT-43d" x="369.484375"/>
      <use xlink:href="#TimesNewRomanPSMT-43e" x="423"/>
      <use xlink:href="#TimesNewRomanPSMT-435" x="474.25"/>
     </g>
    </g>
    <g id="line2d_38">
     <g>
      <use xlink:href="#m7e939f41e0" x="645.363583" y="321.864747" style="fill: #ffa500; stroke: #ffa500; stroke-linejoin: miter"/>
     </g>
    </g>
    <g id="text_21">
     <!-- прямоугольное -->
     <g transform="translate(690.363583 330.614747) scale(0.25 -0.25)">
      <use xlink:href="#TimesNewRomanPSMT-43f"/>
      <use xlink:href="#TimesNewRomanPSMT-440" x="53.515625"/>
      <use xlink:href="#TimesNewRomanPSMT-44f" x="103.515625"/>
      <use xlink:href="#TimesNewRomanPSMT-43c" x="149.511719"/>
      <use xlink:href="#TimesNewRomanPSMT-43e" x="212.792969"/>
      <use xlink:href="#TimesNewRomanPSMT-443" x="259.042969"/>
      <use xlink:href="#TimesNewRomanPSMT-433" x="309.042969"/>
      <use xlink:href="#TimesNewRomanPSMT-43e" x="347.558594"/>
      <use xlink:href="#TimesNewRomanPSMT-43b" x="396.183594"/>
      <use xlink:href="#TimesNewRomanPSMT-44c" x="446.085938"/>
      <use xlink:href="#TimesNewRomanPSMT-43d" x="491.691406"/>
      <use xlink:href="#TimesNewRomanPSMT-43e" x="545.207031"/>
      <use xlink:href="#TimesNewRomanPSMT-435" x="596.457031"/>
     </g>
    </g>
   </g>
  </g>
 </g>
 <defs>
  <clipPath id="pc035beb84f">
   <rect x="107.265" y="16.753566" width="490.598583" height="474.132519"/>
  </clipPath>
 </defs>
</svg>
