<?xml version="1.0" encoding="utf-8" standalone="no"?>
<!DOCTYPE svg PUBLIC "-//W3C//DTD SVG 1.1//EN"
  "http://www.w3.org/Graphics/SVG/1.1/DTD/svg11.dtd">
<svg xmlns:xlink="http://www.w3.org/1999/xlink" width="1287.962951pt" height="1359.245937pt" viewBox="0 0 1287.962951 1359.245937" xmlns="http://www.w3.org/2000/svg" version="1.1">
 <metadata>
  <rdf:RDF xmlns:dc="http://purl.org/dc/elements/1.1/" xmlns:cc="http://creativecommons.org/ns#" xmlns:rdf="http://www.w3.org/1999/02/22-rdf-syntax-ns#">
   <cc:Work>
    <dc:type rdf:resource="http://purl.org/dc/dcmitype/StillImage"/>
    <dc:date>2023-10-31T04:49:19.443762</dc:date>
    <dc:format>image/svg+xml</dc:format>
    <dc:creator>
     <cc:Agent>
      <dc:title>Matplotlib v3.8.0, https://matplotlib.org/</dc:title>
     </cc:Agent>
    </dc:creator>
   </cc:Work>
  </rdf:RDF>
 </metadata>
 <defs>
  <style type="text/css">*{stroke-linejoin: round; stroke-linecap: butt}</style>
 </defs>
 <g id="figure_1">
  <g id="patch_1">
   <path d="M 0 1359.245937 
L 1287.962951 1359.245937 
L 1287.962951 0 
L 0 0 
z
" style="fill: #ffffff"/>
  </g>
  <g id="axes_1">
   <g id="patch_2">
    <path d="M 103.847813 560.866875 
L 593.22142 560.866875 
L 593.22142 53.446875 
L 103.847813 53.446875 
z
" style="fill: #ffffff"/>
   </g>
   <g id="matplotlib.axis_1">
    <g id="xtick_1">
     <g id="line2d_1">
      <path d="M 107.965732 560.866875 
L 107.965732 53.446875 
" clip-path="url(#pd7f3a5e839)" style="fill: none; stroke: #000000; stroke-width: 0.7; stroke-linecap: square"/>
     </g>
     <g id="line2d_2">
      <defs>
       <path id="med94805163" d="M 0 0 
L 0 -10 
" style="stroke: #000000; stroke-width: 2"/>
      </defs>
      <g>
       <use xlink:href="#med94805163" x="107.965732" y="560.866875" style="stroke: #000000; stroke-width: 2"/>
      </g>
     </g>
     <g id="text_1">
      <!-- 20 -->
      <g transform="translate(87.965732 592.141875) scale(0.4 -0.4)">
       <defs>
        <path id="TimesNewRomanPSMT-32" d="M 2934 816 
L 2638 0 
L 138 0 
L 138 116 
Q 1241 1122 1691 1759 
Q 2141 2397 2141 2925 
Q 2141 3328 1894 3587 
Q 1647 3847 1303 3847 
Q 991 3847 742 3664 
Q 494 3481 375 3128 
L 259 3128 
Q 338 3706 661 4015 
Q 984 4325 1469 4325 
Q 1984 4325 2329 3994 
Q 2675 3663 2675 3213 
Q 2675 2891 2525 2569 
Q 2294 2063 1775 1497 
Q 997 647 803 472 
L 1909 472 
Q 2247 472 2383 497 
Q 2519 522 2628 598 
Q 2738 675 2819 816 
L 2934 816 
z
" transform="scale(0.015625)"/>
        <path id="TimesNewRomanPSMT-30" d="M 231 2094 
Q 231 2819 450 3342 
Q 669 3866 1031 4122 
Q 1313 4325 1613 4325 
Q 2100 4325 2488 3828 
Q 2972 3213 2972 2159 
Q 2972 1422 2759 906 
Q 2547 391 2217 158 
Q 1888 -75 1581 -75 
Q 975 -75 572 641 
Q 231 1244 231 2094 
z
M 844 2016 
Q 844 1141 1059 588 
Q 1238 122 1591 122 
Q 1759 122 1940 273 
Q 2122 425 2216 781 
Q 2359 1319 2359 2297 
Q 2359 3022 2209 3506 
Q 2097 3866 1919 4016 
Q 1791 4119 1609 4119 
Q 1397 4119 1231 3928 
Q 1006 3669 925 3112 
Q 844 2556 844 2016 
z
" transform="scale(0.015625)"/>
       </defs>
       <use xlink:href="#TimesNewRomanPSMT-32"/>
       <use xlink:href="#TimesNewRomanPSMT-30" x="50"/>
      </g>
     </g>
    </g>
    <g id="xtick_2">
     <g id="line2d_3">
      <path d="M 172.189675 560.866875 
L 172.189675 53.446875 
" clip-path="url(#pd7f3a5e839)" style="fill: none; stroke: #000000; stroke-width: 0.7; stroke-linecap: square"/>
     </g>
     <g id="line2d_4">
      <g>
       <use xlink:href="#med94805163" x="172.189675" y="560.866875" style="stroke: #000000; stroke-width: 2"/>
      </g>
     </g>
     <g id="text_2">
      <!-- 25 -->
      <g transform="translate(152.189675 592.141875) scale(0.4 -0.4)">
       <defs>
        <path id="TimesNewRomanPSMT-35" d="M 2778 4238 
L 2534 3706 
L 1259 3706 
L 981 3138 
Q 1809 3016 2294 2522 
Q 2709 2097 2709 1522 
Q 2709 1188 2573 903 
Q 2438 619 2231 419 
Q 2025 219 1772 97 
Q 1413 -75 1034 -75 
Q 653 -75 479 54 
Q 306 184 306 341 
Q 306 428 378 495 
Q 450 563 559 563 
Q 641 563 702 538 
Q 763 513 909 409 
Q 1144 247 1384 247 
Q 1750 247 2026 523 
Q 2303 800 2303 1197 
Q 2303 1581 2056 1914 
Q 1809 2247 1375 2428 
Q 1034 2569 447 2591 
L 1259 4238 
L 2778 4238 
z
" transform="scale(0.015625)"/>
       </defs>
       <use xlink:href="#TimesNewRomanPSMT-32"/>
       <use xlink:href="#TimesNewRomanPSMT-35" x="50"/>
      </g>
     </g>
    </g>
    <g id="xtick_3">
     <g id="line2d_5">
      <path d="M 236.413618 560.866875 
L 236.413618 53.446875 
" clip-path="url(#pd7f3a5e839)" style="fill: none; stroke: #000000; stroke-width: 0.7; stroke-linecap: square"/>
     </g>
     <g id="line2d_6">
      <g>
       <use xlink:href="#med94805163" x="236.413618" y="560.866875" style="stroke: #000000; stroke-width: 2"/>
      </g>
     </g>
     <g id="text_3">
      <!-- 30 -->
      <g transform="translate(216.413618 592.141875) scale(0.4 -0.4)">
       <defs>
        <path id="TimesNewRomanPSMT-33" d="M 325 3431 
Q 506 3859 782 4092 
Q 1059 4325 1472 4325 
Q 1981 4325 2253 3994 
Q 2459 3747 2459 3466 
Q 2459 3003 1878 2509 
Q 2269 2356 2469 2072 
Q 2669 1788 2669 1403 
Q 2669 853 2319 450 
Q 1863 -75 997 -75 
Q 569 -75 414 31 
Q 259 138 259 259 
Q 259 350 332 419 
Q 406 488 509 488 
Q 588 488 669 463 
Q 722 447 909 348 
Q 1097 250 1169 231 
Q 1284 197 1416 197 
Q 1734 197 1970 444 
Q 2206 691 2206 1028 
Q 2206 1275 2097 1509 
Q 2016 1684 1919 1775 
Q 1784 1900 1550 2001 
Q 1316 2103 1072 2103 
L 972 2103 
L 972 2197 
Q 1219 2228 1467 2375 
Q 1716 2522 1828 2728 
Q 1941 2934 1941 3181 
Q 1941 3503 1739 3701 
Q 1538 3900 1238 3900 
Q 753 3900 428 3381 
L 325 3431 
z
" transform="scale(0.015625)"/>
       </defs>
       <use xlink:href="#TimesNewRomanPSMT-33"/>
       <use xlink:href="#TimesNewRomanPSMT-30" x="50"/>
      </g>
     </g>
    </g>
    <g id="xtick_4">
     <g id="line2d_7">
      <path d="M 300.637562 560.866875 
L 300.637562 53.446875 
" clip-path="url(#pd7f3a5e839)" style="fill: none; stroke: #000000; stroke-width: 0.7; stroke-linecap: square"/>
     </g>
     <g id="line2d_8">
      <g>
       <use xlink:href="#med94805163" x="300.637562" y="560.866875" style="stroke: #000000; stroke-width: 2"/>
      </g>
     </g>
     <g id="text_4">
      <!-- 35 -->
      <g transform="translate(280.637562 592.141875) scale(0.4 -0.4)">
       <use xlink:href="#TimesNewRomanPSMT-33"/>
       <use xlink:href="#TimesNewRomanPSMT-35" x="50"/>
      </g>
     </g>
    </g>
    <g id="xtick_5">
     <g id="line2d_9">
      <path d="M 364.861505 560.866875 
L 364.861505 53.446875 
" clip-path="url(#pd7f3a5e839)" style="fill: none; stroke: #000000; stroke-width: 0.7; stroke-linecap: square"/>
     </g>
     <g id="line2d_10">
      <g>
       <use xlink:href="#med94805163" x="364.861505" y="560.866875" style="stroke: #000000; stroke-width: 2"/>
      </g>
     </g>
     <g id="text_5">
      <!-- 40 -->
      <g transform="translate(344.861505 592.141875) scale(0.4 -0.4)">
       <defs>
        <path id="TimesNewRomanPSMT-34" d="M 2978 1563 
L 2978 1119 
L 2409 1119 
L 2409 0 
L 1894 0 
L 1894 1119 
L 100 1119 
L 100 1519 
L 2066 4325 
L 2409 4325 
L 2409 1563 
L 2978 1563 
z
M 1894 1563 
L 1894 3666 
L 406 1563 
L 1894 1563 
z
" transform="scale(0.015625)"/>
       </defs>
       <use xlink:href="#TimesNewRomanPSMT-34"/>
       <use xlink:href="#TimesNewRomanPSMT-30" x="50"/>
      </g>
     </g>
    </g>
    <g id="xtick_6">
     <g id="line2d_11">
      <path d="M 429.085449 560.866875 
L 429.085449 53.446875 
" clip-path="url(#pd7f3a5e839)" style="fill: none; stroke: #000000; stroke-width: 0.7; stroke-linecap: square"/>
     </g>
     <g id="line2d_12">
      <g>
       <use xlink:href="#med94805163" x="429.085449" y="560.866875" style="stroke: #000000; stroke-width: 2"/>
      </g>
     </g>
     <g id="text_6">
      <!-- 45 -->
      <g transform="translate(409.085449 592.141875) scale(0.4 -0.4)">
       <use xlink:href="#TimesNewRomanPSMT-34"/>
       <use xlink:href="#TimesNewRomanPSMT-35" x="50"/>
      </g>
     </g>
    </g>
    <g id="xtick_7">
     <g id="line2d_13">
      <path d="M 493.309392 560.866875 
L 493.309392 53.446875 
" clip-path="url(#pd7f3a5e839)" style="fill: none; stroke: #000000; stroke-width: 0.7; stroke-linecap: square"/>
     </g>
     <g id="line2d_14">
      <g>
       <use xlink:href="#med94805163" x="493.309392" y="560.866875" style="stroke: #000000; stroke-width: 2"/>
      </g>
     </g>
     <g id="text_7">
      <!-- 50 -->
      <g transform="translate(473.309392 592.141875) scale(0.4 -0.4)">
       <use xlink:href="#TimesNewRomanPSMT-35"/>
       <use xlink:href="#TimesNewRomanPSMT-30" x="50"/>
      </g>
     </g>
    </g>
    <g id="xtick_8">
     <g id="line2d_15">
      <path d="M 557.533335 560.866875 
L 557.533335 53.446875 
" clip-path="url(#pd7f3a5e839)" style="fill: none; stroke: #000000; stroke-width: 0.7; stroke-linecap: square"/>
     </g>
     <g id="line2d_16">
      <g>
       <use xlink:href="#med94805163" x="557.533335" y="560.866875" style="stroke: #000000; stroke-width: 2"/>
      </g>
     </g>
     <g id="text_8">
      <!-- 55 -->
      <g transform="translate(537.533335 592.141875) scale(0.4 -0.4)">
       <use xlink:href="#TimesNewRomanPSMT-35"/>
       <use xlink:href="#TimesNewRomanPSMT-35" x="50"/>
      </g>
     </g>
    </g>
    <g id="text_9">
     <!-- True data -->
     <g transform="translate(269.40071 644.861875) scale(0.42 -0.42)">
      <defs>
       <path id="TimesNewRomanPSMT-54" d="M 3703 4238 
L 3750 3244 
L 3631 3244 
Q 3597 3506 3538 3619 
Q 3441 3800 3280 3886 
Q 3119 3972 2856 3972 
L 2259 3972 
L 2259 734 
Q 2259 344 2344 247 
Q 2463 116 2709 116 
L 2856 116 
L 2856 0 
L 1059 0 
L 1059 116 
L 1209 116 
Q 1478 116 1591 278 
Q 1659 378 1659 734 
L 1659 3972 
L 1150 3972 
Q 853 3972 728 3928 
Q 566 3869 450 3700 
Q 334 3531 313 3244 
L 194 3244 
L 244 4238 
L 3703 4238 
z
" transform="scale(0.015625)"/>
       <path id="TimesNewRomanPSMT-72" d="M 1038 2947 
L 1038 2303 
Q 1397 2947 1775 2947 
Q 1947 2947 2059 2842 
Q 2172 2738 2172 2600 
Q 2172 2478 2090 2393 
Q 2009 2309 1897 2309 
Q 1788 2309 1652 2417 
Q 1516 2525 1450 2525 
Q 1394 2525 1328 2463 
Q 1188 2334 1038 2041 
L 1038 669 
Q 1038 431 1097 309 
Q 1138 225 1241 169 
Q 1344 113 1538 113 
L 1538 0 
L 72 0 
L 72 113 
Q 291 113 397 181 
Q 475 231 506 341 
Q 522 394 522 644 
L 522 1753 
Q 522 2253 501 2348 
Q 481 2444 426 2487 
Q 372 2531 291 2531 
Q 194 2531 72 2484 
L 41 2597 
L 906 2947 
L 1038 2947 
z
" transform="scale(0.015625)"/>
       <path id="TimesNewRomanPSMT-75" d="M 2709 2863 
L 2709 1128 
Q 2709 631 2732 520 
Q 2756 409 2807 365 
Q 2859 322 2928 322 
Q 3025 322 3147 375 
L 3191 266 
L 2334 -88 
L 2194 -88 
L 2194 519 
Q 1825 119 1631 15 
Q 1438 -88 1222 -88 
Q 981 -88 804 51 
Q 628 191 559 409 
Q 491 628 491 1028 
L 491 2306 
Q 491 2509 447 2587 
Q 403 2666 317 2708 
Q 231 2750 6 2747 
L 6 2863 
L 1009 2863 
L 1009 947 
Q 1009 547 1148 422 
Q 1288 297 1484 297 
Q 1619 297 1789 381 
Q 1959 466 2194 703 
L 2194 2325 
Q 2194 2569 2105 2655 
Q 2016 2741 1734 2747 
L 1734 2863 
L 2709 2863 
z
" transform="scale(0.015625)"/>
       <path id="TimesNewRomanPSMT-65" d="M 681 1784 
Q 678 1147 991 784 
Q 1303 422 1725 422 
Q 2006 422 2214 576 
Q 2422 731 2563 1106 
L 2659 1044 
Q 2594 616 2278 264 
Q 1963 -88 1488 -88 
Q 972 -88 605 314 
Q 238 716 238 1394 
Q 238 2128 614 2539 
Q 991 2950 1559 2950 
Q 2041 2950 2350 2633 
Q 2659 2316 2659 1784 
L 681 1784 
z
M 681 1966 
L 2006 1966 
Q 1991 2241 1941 2353 
Q 1863 2528 1708 2628 
Q 1553 2728 1384 2728 
Q 1125 2728 920 2526 
Q 716 2325 681 1966 
z
" transform="scale(0.015625)"/>
       <path id="TimesNewRomanPSMT-20" transform="scale(0.015625)"/>
       <path id="TimesNewRomanPSMT-64" d="M 2222 322 
Q 2013 103 1813 7 
Q 1613 -88 1381 -88 
Q 913 -88 563 304 
Q 213 697 213 1313 
Q 213 1928 600 2439 
Q 988 2950 1597 2950 
Q 1975 2950 2222 2709 
L 2222 3238 
Q 2222 3728 2198 3840 
Q 2175 3953 2125 3993 
Q 2075 4034 2000 4034 
Q 1919 4034 1784 3984 
L 1744 4094 
L 2597 4444 
L 2738 4444 
L 2738 1134 
Q 2738 631 2761 520 
Q 2784 409 2836 365 
Q 2888 322 2956 322 
Q 3041 322 3181 375 
L 3216 266 
L 2366 -88 
L 2222 -88 
L 2222 322 
z
M 2222 541 
L 2222 2016 
Q 2203 2228 2109 2403 
Q 2016 2578 1861 2667 
Q 1706 2756 1559 2756 
Q 1284 2756 1069 2509 
Q 784 2184 784 1559 
Q 784 928 1059 592 
Q 1334 256 1672 256 
Q 1956 256 2222 541 
z
" transform="scale(0.015625)"/>
       <path id="TimesNewRomanPSMT-61" d="M 1822 413 
Q 1381 72 1269 19 
Q 1100 -59 909 -59 
Q 613 -59 420 144 
Q 228 347 228 678 
Q 228 888 322 1041 
Q 450 1253 767 1440 
Q 1084 1628 1822 1897 
L 1822 2009 
Q 1822 2438 1686 2597 
Q 1550 2756 1291 2756 
Q 1094 2756 978 2650 
Q 859 2544 859 2406 
L 866 2225 
Q 866 2081 792 2003 
Q 719 1925 600 1925 
Q 484 1925 411 2006 
Q 338 2088 338 2228 
Q 338 2497 613 2722 
Q 888 2947 1384 2947 
Q 1766 2947 2009 2819 
Q 2194 2722 2281 2516 
Q 2338 2381 2338 1966 
L 2338 994 
Q 2338 584 2353 492 
Q 2369 400 2405 369 
Q 2441 338 2488 338 
Q 2538 338 2575 359 
Q 2641 400 2828 588 
L 2828 413 
Q 2478 -56 2159 -56 
Q 2006 -56 1915 50 
Q 1825 156 1822 413 
z
M 1822 616 
L 1822 1706 
Q 1350 1519 1213 1441 
Q 966 1303 859 1153 
Q 753 1003 753 825 
Q 753 600 887 451 
Q 1022 303 1197 303 
Q 1434 303 1822 616 
z
" transform="scale(0.015625)"/>
       <path id="TimesNewRomanPSMT-74" d="M 1031 3803 
L 1031 2863 
L 1700 2863 
L 1700 2644 
L 1031 2644 
L 1031 788 
Q 1031 509 1111 412 
Q 1191 316 1316 316 
Q 1419 316 1516 380 
Q 1613 444 1666 569 
L 1788 569 
Q 1678 263 1478 108 
Q 1278 -47 1066 -47 
Q 922 -47 784 33 
Q 647 113 581 261 
Q 516 409 516 719 
L 516 2644 
L 63 2644 
L 63 2747 
Q 234 2816 414 2980 
Q 594 3144 734 3369 
Q 806 3488 934 3803 
L 1031 3803 
z
" transform="scale(0.015625)"/>
      </defs>
      <use xlink:href="#TimesNewRomanPSMT-54"/>
      <use xlink:href="#TimesNewRomanPSMT-72" x="57.583984"/>
      <use xlink:href="#TimesNewRomanPSMT-75" x="90.884766"/>
      <use xlink:href="#TimesNewRomanPSMT-65" x="140.884766"/>
      <use xlink:href="#TimesNewRomanPSMT-20" x="185.269531"/>
      <use xlink:href="#TimesNewRomanPSMT-64" x="210.269531"/>
      <use xlink:href="#TimesNewRomanPSMT-61" x="260.269531"/>
      <use xlink:href="#TimesNewRomanPSMT-74" x="304.654297"/>
      <use xlink:href="#TimesNewRomanPSMT-61" x="332.4375"/>
     </g>
    </g>
   </g>
   <g id="matplotlib.axis_2">
    <g id="ytick_1">
     <g id="line2d_17">
      <path d="M 103.847813 555.437166 
L 593.22142 555.437166 
" clip-path="url(#pd7f3a5e839)" style="fill: none; stroke: #000000; stroke-width: 0.7; stroke-linecap: square"/>
     </g>
     <g id="line2d_18">
      <defs>
       <path id="m15e979c525" d="M 0 0 
L 10 0 
" style="stroke: #000000; stroke-width: 2"/>
      </defs>
      <g>
       <use xlink:href="#m15e979c525" x="103.847813" y="555.437166" style="stroke: #000000; stroke-width: 2"/>
      </g>
     </g>
     <g id="text_10">
      <!-- 20 -->
      <g transform="translate(60.347813 569.324666) scale(0.4 -0.4)">
       <use xlink:href="#TimesNewRomanPSMT-32"/>
       <use xlink:href="#TimesNewRomanPSMT-30" x="50"/>
      </g>
     </g>
    </g>
    <g id="ytick_2">
     <g id="line2d_19">
      <path d="M 103.847813 492.954667 
L 593.22142 492.954667 
" clip-path="url(#pd7f3a5e839)" style="fill: none; stroke: #000000; stroke-width: 0.7; stroke-linecap: square"/>
     </g>
     <g id="line2d_20">
      <g>
       <use xlink:href="#m15e979c525" x="103.847813" y="492.954667" style="stroke: #000000; stroke-width: 2"/>
      </g>
     </g>
     <g id="text_11">
      <!-- 25 -->
      <g transform="translate(60.347813 506.842167) scale(0.4 -0.4)">
       <use xlink:href="#TimesNewRomanPSMT-32"/>
       <use xlink:href="#TimesNewRomanPSMT-35" x="50"/>
      </g>
     </g>
    </g>
    <g id="ytick_3">
     <g id="line2d_21">
      <path d="M 103.847813 430.472168 
L 593.22142 430.472168 
" clip-path="url(#pd7f3a5e839)" style="fill: none; stroke: #000000; stroke-width: 0.7; stroke-linecap: square"/>
     </g>
     <g id="line2d_22">
      <g>
       <use xlink:href="#m15e979c525" x="103.847813" y="430.472168" style="stroke: #000000; stroke-width: 2"/>
      </g>
     </g>
     <g id="text_12">
      <!-- 30 -->
      <g transform="translate(60.347813 444.359668) scale(0.4 -0.4)">
       <use xlink:href="#TimesNewRomanPSMT-33"/>
       <use xlink:href="#TimesNewRomanPSMT-30" x="50"/>
      </g>
     </g>
    </g>
    <g id="ytick_4">
     <g id="line2d_23">
      <path d="M 103.847813 367.989668 
L 593.22142 367.989668 
" clip-path="url(#pd7f3a5e839)" style="fill: none; stroke: #000000; stroke-width: 0.7; stroke-linecap: square"/>
     </g>
     <g id="line2d_24">
      <g>
       <use xlink:href="#m15e979c525" x="103.847813" y="367.989668" style="stroke: #000000; stroke-width: 2"/>
      </g>
     </g>
     <g id="text_13">
      <!-- 35 -->
      <g transform="translate(60.347813 381.877168) scale(0.4 -0.4)">
       <use xlink:href="#TimesNewRomanPSMT-33"/>
       <use xlink:href="#TimesNewRomanPSMT-35" x="50"/>
      </g>
     </g>
    </g>
    <g id="ytick_5">
     <g id="line2d_25">
      <path d="M 103.847813 305.507169 
L 593.22142 305.507169 
" clip-path="url(#pd7f3a5e839)" style="fill: none; stroke: #000000; stroke-width: 0.7; stroke-linecap: square"/>
     </g>
     <g id="line2d_26">
      <g>
       <use xlink:href="#m15e979c525" x="103.847813" y="305.507169" style="stroke: #000000; stroke-width: 2"/>
      </g>
     </g>
     <g id="text_14">
      <!-- 40 -->
      <g transform="translate(60.347813 319.394669) scale(0.4 -0.4)">
       <use xlink:href="#TimesNewRomanPSMT-34"/>
       <use xlink:href="#TimesNewRomanPSMT-30" x="50"/>
      </g>
     </g>
    </g>
    <g id="ytick_6">
     <g id="line2d_27">
      <path d="M 103.847813 243.024669 
L 593.22142 243.024669 
" clip-path="url(#pd7f3a5e839)" style="fill: none; stroke: #000000; stroke-width: 0.7; stroke-linecap: square"/>
     </g>
     <g id="line2d_28">
      <g>
       <use xlink:href="#m15e979c525" x="103.847813" y="243.024669" style="stroke: #000000; stroke-width: 2"/>
      </g>
     </g>
     <g id="text_15">
      <!-- 45 -->
      <g transform="translate(60.347813 256.912169) scale(0.4 -0.4)">
       <use xlink:href="#TimesNewRomanPSMT-34"/>
       <use xlink:href="#TimesNewRomanPSMT-35" x="50"/>
      </g>
     </g>
    </g>
    <g id="ytick_7">
     <g id="line2d_29">
      <path d="M 103.847813 180.54217 
L 593.22142 180.54217 
" clip-path="url(#pd7f3a5e839)" style="fill: none; stroke: #000000; stroke-width: 0.7; stroke-linecap: square"/>
     </g>
     <g id="line2d_30">
      <g>
       <use xlink:href="#m15e979c525" x="103.847813" y="180.54217" style="stroke: #000000; stroke-width: 2"/>
      </g>
     </g>
     <g id="text_16">
      <!-- 50 -->
      <g transform="translate(60.347813 194.42967) scale(0.4 -0.4)">
       <use xlink:href="#TimesNewRomanPSMT-35"/>
       <use xlink:href="#TimesNewRomanPSMT-30" x="50"/>
      </g>
     </g>
    </g>
    <g id="ytick_8">
     <g id="line2d_31">
      <path d="M 103.847813 118.05967 
L 593.22142 118.05967 
" clip-path="url(#pd7f3a5e839)" style="fill: none; stroke: #000000; stroke-width: 0.7; stroke-linecap: square"/>
     </g>
     <g id="line2d_32">
      <g>
       <use xlink:href="#m15e979c525" x="103.847813" y="118.05967" style="stroke: #000000; stroke-width: 2"/>
      </g>
     </g>
     <g id="text_17">
      <!-- 55 -->
      <g transform="translate(60.347813 131.94717) scale(0.4 -0.4)">
       <use xlink:href="#TimesNewRomanPSMT-35"/>
       <use xlink:href="#TimesNewRomanPSMT-35" x="50"/>
      </g>
     </g>
    </g>
    <g id="ytick_9">
     <g id="line2d_33">
      <path d="M 103.847813 55.577171 
L 593.22142 55.577171 
" clip-path="url(#pd7f3a5e839)" style="fill: none; stroke: #000000; stroke-width: 0.7; stroke-linecap: square"/>
     </g>
     <g id="line2d_34">
      <g>
       <use xlink:href="#m15e979c525" x="103.847813" y="55.577171" style="stroke: #000000; stroke-width: 2"/>
      </g>
     </g>
     <g id="text_18">
      <!-- 60 -->
      <g transform="translate(60.347813 69.464671) scale(0.4 -0.4)">
       <defs>
        <path id="TimesNewRomanPSMT-36" d="M 2869 4325 
L 2869 4209 
Q 2456 4169 2195 4045 
Q 1934 3922 1679 3669 
Q 1425 3416 1258 3105 
Q 1091 2794 978 2366 
Q 1428 2675 1881 2675 
Q 2316 2675 2634 2325 
Q 2953 1975 2953 1425 
Q 2953 894 2631 456 
Q 2244 -75 1606 -75 
Q 1172 -75 869 213 
Q 275 772 275 1663 
Q 275 2231 503 2743 
Q 731 3256 1154 3653 
Q 1578 4050 1965 4187 
Q 2353 4325 2688 4325 
L 2869 4325 
z
M 925 2138 
Q 869 1716 869 1456 
Q 869 1156 980 804 
Q 1091 453 1309 247 
Q 1469 100 1697 100 
Q 1969 100 2183 356 
Q 2397 613 2397 1088 
Q 2397 1622 2184 2012 
Q 1972 2403 1581 2403 
Q 1463 2403 1327 2353 
Q 1191 2303 925 2138 
z
" transform="scale(0.015625)"/>
       </defs>
       <use xlink:href="#TimesNewRomanPSMT-36"/>
       <use xlink:href="#TimesNewRomanPSMT-30" x="50"/>
      </g>
     </g>
    </g>
    <g id="text_19">
     <!-- Predicted data -->
     <g transform="translate(36.36375 426.689531) rotate(-90) scale(0.42 -0.42)">
      <defs>
       <path id="TimesNewRomanPSMT-50" d="M 1313 1984 
L 1313 750 
Q 1313 350 1400 253 
Q 1519 116 1759 116 
L 1922 116 
L 1922 0 
L 106 0 
L 106 116 
L 266 116 
Q 534 116 650 291 
Q 713 388 713 750 
L 713 3488 
Q 713 3888 628 3984 
Q 506 4122 266 4122 
L 106 4122 
L 106 4238 
L 1659 4238 
Q 2228 4238 2556 4120 
Q 2884 4003 3109 3725 
Q 3334 3447 3334 3066 
Q 3334 2547 2992 2222 
Q 2650 1897 2025 1897 
Q 1872 1897 1694 1919 
Q 1516 1941 1313 1984 
z
M 1313 2163 
Q 1478 2131 1606 2115 
Q 1734 2100 1825 2100 
Q 2150 2100 2386 2351 
Q 2622 2603 2622 3003 
Q 2622 3278 2509 3514 
Q 2397 3750 2190 3867 
Q 1984 3984 1722 3984 
Q 1563 3984 1313 3925 
L 1313 2163 
z
" transform="scale(0.015625)"/>
       <path id="TimesNewRomanPSMT-69" d="M 928 4444 
Q 1059 4444 1151 4351 
Q 1244 4259 1244 4128 
Q 1244 3997 1151 3903 
Q 1059 3809 928 3809 
Q 797 3809 703 3903 
Q 609 3997 609 4128 
Q 609 4259 701 4351 
Q 794 4444 928 4444 
z
M 1188 2947 
L 1188 647 
Q 1188 378 1227 289 
Q 1266 200 1342 156 
Q 1419 113 1622 113 
L 1622 0 
L 231 0 
L 231 113 
Q 441 113 512 153 
Q 584 194 626 287 
Q 669 381 669 647 
L 669 1750 
Q 669 2216 641 2353 
Q 619 2453 572 2492 
Q 525 2531 444 2531 
Q 356 2531 231 2484 
L 188 2597 
L 1050 2947 
L 1188 2947 
z
" transform="scale(0.015625)"/>
       <path id="TimesNewRomanPSMT-63" d="M 2631 1088 
Q 2516 522 2178 217 
Q 1841 -88 1431 -88 
Q 944 -88 581 321 
Q 219 731 219 1428 
Q 219 2103 620 2525 
Q 1022 2947 1584 2947 
Q 2006 2947 2278 2723 
Q 2550 2500 2550 2259 
Q 2550 2141 2473 2067 
Q 2397 1994 2259 1994 
Q 2075 1994 1981 2113 
Q 1928 2178 1911 2362 
Q 1894 2547 1784 2644 
Q 1675 2738 1481 2738 
Q 1169 2738 978 2506 
Q 725 2200 725 1697 
Q 725 1184 976 792 
Q 1228 400 1656 400 
Q 1963 400 2206 609 
Q 2378 753 2541 1131 
L 2631 1088 
z
" transform="scale(0.015625)"/>
      </defs>
      <use xlink:href="#TimesNewRomanPSMT-50"/>
      <use xlink:href="#TimesNewRomanPSMT-72" x="55.615234"/>
      <use xlink:href="#TimesNewRomanPSMT-65" x="88.916016"/>
      <use xlink:href="#TimesNewRomanPSMT-64" x="133.300781"/>
      <use xlink:href="#TimesNewRomanPSMT-69" x="183.300781"/>
      <use xlink:href="#TimesNewRomanPSMT-63" x="211.083984"/>
      <use xlink:href="#TimesNewRomanPSMT-74" x="255.46875"/>
      <use xlink:href="#TimesNewRomanPSMT-65" x="283.251953"/>
      <use xlink:href="#TimesNewRomanPSMT-64" x="327.636719"/>
      <use xlink:href="#TimesNewRomanPSMT-20" x="377.636719"/>
      <use xlink:href="#TimesNewRomanPSMT-64" x="402.636719"/>
      <use xlink:href="#TimesNewRomanPSMT-61" x="452.636719"/>
      <use xlink:href="#TimesNewRomanPSMT-74" x="497.021484"/>
      <use xlink:href="#TimesNewRomanPSMT-61" x="524.804688"/>
     </g>
    </g>
   </g>
   <g id="line2d_35">
    <path d="M 434.824387 237.441344 
L 541.040216 134.105576 
L 362.77536 307.536747 
L 254.53333 412.843775 
L 396.262243 274.957868 
L 319.647067 349.495609 
L 314.928067 354.086652 
L 416.874341 254.90467 
L 305.192394 363.558341 
L 460.450372 212.510211 
L 462.190761 210.817014 
L 347.170158 322.718812 
L 423.264588 248.687696 
L 309.942723 358.936818 
L 552.917741 122.550112 
L 485.727705 187.918278 
L 187.570985 477.990424 
L 316.388201 352.666111 
L 406.899127 264.609404 
L 288.697988 379.605498 
L 290.272943 378.073249 
L 279.341536 388.708248 
L 378.217523 292.513302 
L 467.571732 205.581949 
L 392.448288 278.668407 
L 290.907175 377.456214 
L 325.160318 344.131851 
L 213.08593 453.167321 
L 126.092067 537.80233 
L 446.067794 226.502804 
L 421.375191 250.525862 
L 363.600413 306.734066 
L 570.977165 104.980373 
L 305.760254 363.005878 
L 309.574882 359.294685 
" clip-path="url(#pd7f3a5e839)" style="fill: none; stroke: #0000ff; stroke-width: 3; stroke-linecap: square"/>
   </g>
   <g id="line2d_36">
    <defs>
     <path id="m448a8d7a59" d="M 0 5 
C 1.326016 5 2.597899 4.473168 3.535534 3.535534 
C 4.473168 2.597899 5 1.326016 5 0 
C 5 -1.326016 4.473168 -2.597899 3.535534 -3.535534 
C 2.597899 -4.473168 1.326016 -5 0 -5 
C -1.326016 -5 -2.597899 -4.473168 -3.535534 -3.535534 
C -4.473168 -2.597899 -5 -1.326016 -5 0 
C -5 1.326016 -4.473168 2.597899 -3.535534 3.535534 
C -2.597899 4.473168 -1.326016 5 0 5 
z
" style="stroke: #ff0000"/>
    </defs>
    <g clip-path="url(#pd7f3a5e839)">
     <use xlink:href="#m448a8d7a59" x="434.824387" y="189.324595" style="fill: #ff0000; stroke: #ff0000"/>
     <use xlink:href="#m448a8d7a59" x="541.040216" y="166.904805" style="fill: #ff0000; stroke: #ff0000"/>
     <use xlink:href="#m448a8d7a59" x="362.77536" y="377.949418" style="fill: #ff0000; stroke: #ff0000"/>
     <use xlink:href="#m448a8d7a59" x="254.53333" y="359.848574" style="fill: #ff0000; stroke: #ff0000"/>
     <use xlink:href="#m448a8d7a59" x="396.262243" y="300.757622" style="fill: #ff0000; stroke: #ff0000"/>
     <use xlink:href="#m448a8d7a59" x="319.647067" y="396.668052" style="fill: #ff0000; stroke: #ff0000"/>
     <use xlink:href="#m448a8d7a59" x="314.928067" y="362.756981" style="fill: #ff0000; stroke: #ff0000"/>
     <use xlink:href="#m448a8d7a59" x="416.874341" y="185.595418" style="fill: #ff0000; stroke: #ff0000"/>
     <use xlink:href="#m448a8d7a59" x="305.192394" y="401.025749" style="fill: #ff0000; stroke: #ff0000"/>
     <use xlink:href="#m448a8d7a59" x="460.450372" y="330.450232" style="fill: #ff0000; stroke: #ff0000"/>
     <use xlink:href="#m448a8d7a59" x="462.190761" y="235.303684" style="fill: #ff0000; stroke: #ff0000"/>
     <use xlink:href="#m448a8d7a59" x="347.170158" y="265.357167" style="fill: #ff0000; stroke: #ff0000"/>
     <use xlink:href="#m448a8d7a59" x="423.264588" y="286.542855" style="fill: #ff0000; stroke: #ff0000"/>
     <use xlink:href="#m448a8d7a59" x="309.942723" y="310.943277" style="fill: #ff0000; stroke: #ff0000"/>
     <use xlink:href="#m448a8d7a59" x="552.917741" y="76.51142" style="fill: #ff0000; stroke: #ff0000"/>
     <use xlink:href="#m448a8d7a59" x="485.727705" y="246.642767" style="fill: #ff0000; stroke: #ff0000"/>
     <use xlink:href="#m448a8d7a59" x="187.570985" y="453.359736" style="fill: #ff0000; stroke: #ff0000"/>
     <use xlink:href="#m448a8d7a59" x="316.388201" y="371.0989" style="fill: #ff0000; stroke: #ff0000"/>
     <use xlink:href="#m448a8d7a59" x="406.899127" y="215.135373" style="fill: #ff0000; stroke: #ff0000"/>
     <use xlink:href="#m448a8d7a59" x="288.697988" y="450.433947" style="fill: #ff0000; stroke: #ff0000"/>
     <use xlink:href="#m448a8d7a59" x="290.272943" y="331.971028" style="fill: #ff0000; stroke: #ff0000"/>
     <use xlink:href="#m448a8d7a59" x="279.341536" y="379.669746" style="fill: #ff0000; stroke: #ff0000"/>
     <use xlink:href="#m448a8d7a59" x="378.217523" y="404.309124" style="fill: #ff0000; stroke: #ff0000"/>
     <use xlink:href="#m448a8d7a59" x="467.571732" y="223.943114" style="fill: #ff0000; stroke: #ff0000"/>
     <use xlink:href="#m448a8d7a59" x="392.448288" y="237.09344" style="fill: #ff0000; stroke: #ff0000"/>
     <use xlink:href="#m448a8d7a59" x="290.907175" y="355.732973" style="fill: #ff0000; stroke: #ff0000"/>
     <use xlink:href="#m448a8d7a59" x="325.160318" y="322.400673" style="fill: #ff0000; stroke: #ff0000"/>
     <use xlink:href="#m448a8d7a59" x="213.08593" y="393.030397" style="fill: #ff0000; stroke: #ff0000"/>
     <use xlink:href="#m448a8d7a59" x="126.092067" y="444.818775" style="fill: #ff0000; stroke: #ff0000"/>
     <use xlink:href="#m448a8d7a59" x="446.067794" y="192.825871" style="fill: #ff0000; stroke: #ff0000"/>
     <use xlink:href="#m448a8d7a59" x="421.375191" y="235.410997" style="fill: #ff0000; stroke: #ff0000"/>
     <use xlink:href="#m448a8d7a59" x="363.600413" y="295.218354" style="fill: #ff0000; stroke: #ff0000"/>
     <use xlink:href="#m448a8d7a59" x="570.977165" y="148.328288" style="fill: #ff0000; stroke: #ff0000"/>
     <use xlink:href="#m448a8d7a59" x="305.760254" y="392.588123" style="fill: #ff0000; stroke: #ff0000"/>
     <use xlink:href="#m448a8d7a59" x="309.574882" y="340.401901" style="fill: #ff0000; stroke: #ff0000"/>
    </g>
   </g>
   <g id="patch_3">
    <path d="M 103.847813 560.866875 
L 103.847813 53.446875 
" style="fill: none; stroke: #000000; stroke-width: 0.8; stroke-linejoin: miter; stroke-linecap: square"/>
   </g>
   <g id="patch_4">
    <path d="M 593.22142 560.866875 
L 593.22142 53.446875 
" style="fill: none; stroke: #000000; stroke-width: 0.8; stroke-linejoin: miter; stroke-linecap: square"/>
   </g>
   <g id="patch_5">
    <path d="M 103.847812 560.866875 
L 593.22142 560.866875 
" style="fill: none; stroke: #000000; stroke-width: 0.8; stroke-linejoin: miter; stroke-linecap: square"/>
   </g>
   <g id="patch_6">
    <path d="M 103.847812 53.446875 
L 593.22142 53.446875 
" style="fill: none; stroke: #000000; stroke-width: 0.8; stroke-linejoin: miter; stroke-linecap: square"/>
   </g>
   <g id="text_20">
    <g id="patch_7">
     <path d="M 153.594278 221.959782 
L 597.114278 221.959782 
Q 609.714278 221.959782 609.714278 209.359782 
L 609.714278 145.099782 
Q 609.714278 132.499782 597.114278 132.499782 
L 153.594278 132.499782 
Q 140.994278 132.499782 140.994278 145.099782 
L 140.994278 209.359782 
Q 140.994278 221.959782 153.594278 221.959782 
z
" style="fill: #ffffff; stroke: #000000; stroke-linejoin: miter"/>
    </g>
    <!-- $\frac {RMSE}{concentration\ range}$=0.1174 -->
    <g transform="translate(153.594278 185.839782) scale(0.42 -0.42)">
     <defs>
      <path id="DejaVuSans-Oblique-52" d="M 1613 4147 
L 1294 2491 
L 2106 2491 
Q 2584 2491 2879 2755 
Q 3175 3019 3175 3444 
Q 3175 3784 2976 3965 
Q 2778 4147 2406 4147 
L 1613 4147 
z
M 2772 2241 
Q 2972 2194 3105 2009 
Q 3238 1825 3413 1275 
L 3809 0 
L 3144 0 
L 2778 1197 
Q 2638 1659 2453 1815 
Q 2269 1972 1888 1972 
L 1191 1972 
L 806 0 
L 172 0 
L 1081 4666 
L 2503 4666 
Q 3150 4666 3495 4373 
Q 3841 4081 3841 3531 
Q 3841 3044 3547 2687 
Q 3253 2331 2772 2241 
z
" transform="scale(0.015625)"/>
      <path id="DejaVuSans-Oblique-4d" d="M 1081 4666 
L 2028 4666 
L 2572 1522 
L 4378 4666 
L 5350 4666 
L 4441 0 
L 3828 0 
L 4622 4091 
L 2791 897 
L 2175 897 
L 1581 4103 
L 788 0 
L 172 0 
L 1081 4666 
z
" transform="scale(0.015625)"/>
      <path id="DejaVuSans-Oblique-53" d="M 3859 4513 
L 3738 3897 
Q 3422 4066 3111 4152 
Q 2800 4238 2509 4238 
Q 1944 4238 1609 3991 
Q 1275 3744 1275 3334 
Q 1275 3109 1398 2989 
Q 1522 2869 2034 2731 
L 2413 2638 
Q 3053 2472 3303 2217 
Q 3553 1963 3553 1503 
Q 3553 797 2998 353 
Q 2444 -91 1538 -91 
Q 1166 -91 791 -17 
Q 416 56 38 206 
L 166 856 
Q 513 641 861 531 
Q 1209 422 1556 422 
Q 2147 422 2503 684 
Q 2859 947 2859 1369 
Q 2859 1650 2717 1795 
Q 2575 1941 2106 2059 
L 1728 2156 
Q 1081 2325 845 2545 
Q 609 2766 609 3163 
Q 609 3859 1145 4304 
Q 1681 4750 2541 4750 
Q 2875 4750 3203 4690 
Q 3531 4631 3859 4513 
z
" transform="scale(0.015625)"/>
      <path id="DejaVuSans-Oblique-45" d="M 1081 4666 
L 4031 4666 
L 3928 4134 
L 1606 4134 
L 1338 2753 
L 3566 2753 
L 3463 2222 
L 1234 2222 
L 909 531 
L 3284 531 
L 3181 0 
L 172 0 
L 1081 4666 
z
" transform="scale(0.015625)"/>
      <path id="DejaVuSans-Oblique-63" d="M 3431 3366 
L 3316 2797 
Q 3109 2947 2876 3022 
Q 2644 3097 2394 3097 
Q 2119 3097 1870 3000 
Q 1622 2903 1453 2725 
Q 1184 2453 1037 2087 
Q 891 1722 891 1331 
Q 891 859 1127 628 
Q 1363 397 1844 397 
Q 2081 397 2348 469 
Q 2616 541 2906 684 
L 2797 116 
Q 2547 13 2283 -39 
Q 2019 -91 1741 -91 
Q 1044 -91 669 257 
Q 294 606 294 1253 
Q 294 1797 489 2255 
Q 684 2713 1069 3078 
Q 1331 3328 1684 3456 
Q 2038 3584 2456 3584 
Q 2700 3584 2940 3529 
Q 3181 3475 3431 3366 
z
" transform="scale(0.015625)"/>
      <path id="DejaVuSans-Oblique-6f" d="M 1625 -91 
Q 1009 -91 651 289 
Q 294 669 294 1325 
Q 294 1706 417 2101 
Q 541 2497 738 2766 
Q 1047 3184 1428 3384 
Q 1809 3584 2291 3584 
Q 2888 3584 3255 3212 
Q 3622 2841 3622 2241 
Q 3622 1825 3500 1412 
Q 3378 1000 3181 728 
Q 2875 309 2494 109 
Q 2113 -91 1625 -91 
z
M 891 1344 
Q 891 869 1089 633 
Q 1288 397 1691 397 
Q 2269 397 2648 901 
Q 3028 1406 3028 2181 
Q 3028 2634 2825 2865 
Q 2622 3097 2228 3097 
Q 1903 3097 1650 2945 
Q 1397 2794 1197 2484 
Q 1050 2253 970 1956 
Q 891 1659 891 1344 
z
" transform="scale(0.015625)"/>
      <path id="DejaVuSans-Oblique-6e" d="M 3566 2113 
L 3156 0 
L 2578 0 
L 2988 2091 
Q 3016 2238 3031 2350 
Q 3047 2463 3047 2528 
Q 3047 2791 2881 2937 
Q 2716 3084 2419 3084 
Q 1956 3084 1622 2776 
Q 1288 2469 1184 1941 
L 800 0 
L 225 0 
L 903 3500 
L 1478 3500 
L 1363 2950 
Q 1603 3253 1940 3418 
Q 2278 3584 2650 3584 
Q 3113 3584 3367 3334 
Q 3622 3084 3622 2631 
Q 3622 2519 3608 2391 
Q 3594 2263 3566 2113 
z
" transform="scale(0.015625)"/>
      <path id="DejaVuSans-Oblique-65" d="M 3078 2063 
Q 3088 2113 3092 2166 
Q 3097 2219 3097 2272 
Q 3097 2653 2873 2875 
Q 2650 3097 2266 3097 
Q 1838 3097 1509 2826 
Q 1181 2556 1013 2059 
L 3078 2063 
z
M 3578 1613 
L 903 1613 
Q 884 1494 878 1425 
Q 872 1356 872 1306 
Q 872 872 1139 634 
Q 1406 397 1894 397 
Q 2269 397 2603 481 
Q 2938 566 3225 728 
L 3116 159 
Q 2806 34 2476 -28 
Q 2147 -91 1806 -91 
Q 1078 -91 686 257 
Q 294 606 294 1247 
Q 294 1794 489 2264 
Q 684 2734 1063 3103 
Q 1306 3334 1642 3459 
Q 1978 3584 2356 3584 
Q 2950 3584 3301 3228 
Q 3653 2872 3653 2272 
Q 3653 2128 3634 1964 
Q 3616 1800 3578 1613 
z
" transform="scale(0.015625)"/>
      <path id="DejaVuSans-Oblique-74" d="M 2706 3500 
L 2619 3053 
L 1472 3053 
L 1100 1153 
Q 1081 1047 1072 975 
Q 1063 903 1063 863 
Q 1063 663 1183 572 
Q 1303 481 1569 481 
L 2150 481 
L 2053 0 
L 1503 0 
Q 991 0 739 200 
Q 488 400 488 806 
Q 488 878 497 964 
Q 506 1050 525 1153 
L 897 3053 
L 409 3053 
L 500 3500 
L 978 3500 
L 1172 4494 
L 1747 4494 
L 1556 3500 
L 2706 3500 
z
" transform="scale(0.015625)"/>
      <path id="DejaVuSans-Oblique-72" d="M 2853 2969 
Q 2766 3016 2653 3041 
Q 2541 3066 2413 3066 
Q 1953 3066 1609 2717 
Q 1266 2369 1153 1784 
L 800 0 
L 225 0 
L 909 3500 
L 1484 3500 
L 1375 2956 
Q 1603 3259 1920 3421 
Q 2238 3584 2597 3584 
Q 2691 3584 2781 3573 
Q 2872 3563 2963 3538 
L 2853 2969 
z
" transform="scale(0.015625)"/>
      <path id="DejaVuSans-Oblique-61" d="M 3438 1997 
L 3047 0 
L 2472 0 
L 2578 531 
Q 2325 219 2001 64 
Q 1678 -91 1281 -91 
Q 834 -91 548 182 
Q 263 456 263 884 
Q 263 1497 752 1853 
Q 1241 2209 2100 2209 
L 2900 2209 
L 2931 2363 
Q 2938 2388 2941 2417 
Q 2944 2447 2944 2509 
Q 2944 2788 2717 2942 
Q 2491 3097 2081 3097 
Q 1800 3097 1504 3025 
Q 1209 2953 897 2809 
L 997 3341 
Q 1322 3463 1633 3523 
Q 1944 3584 2234 3584 
Q 2853 3584 3176 3315 
Q 3500 3047 3500 2534 
Q 3500 2431 3484 2292 
Q 3469 2153 3438 1997 
z
M 2816 1759 
L 2241 1759 
Q 1534 1759 1195 1570 
Q 856 1381 856 984 
Q 856 709 1029 553 
Q 1203 397 1509 397 
Q 1978 397 2328 733 
Q 2678 1069 2791 1631 
L 2816 1759 
z
" transform="scale(0.015625)"/>
      <path id="DejaVuSans-Oblique-69" d="M 1172 4863 
L 1747 4863 
L 1606 4134 
L 1031 4134 
L 1172 4863 
z
M 909 3500 
L 1484 3500 
L 800 0 
L 225 0 
L 909 3500 
z
" transform="scale(0.015625)"/>
      <path id="DejaVuSans-Oblique-67" d="M 3816 3500 
L 3219 434 
Q 3047 -456 2561 -893 
Q 2075 -1331 1253 -1331 
Q 950 -1331 690 -1286 
Q 431 -1241 206 -1147 
L 313 -588 
Q 525 -725 762 -790 
Q 1000 -856 1269 -856 
Q 1816 -856 2167 -557 
Q 2519 -259 2631 300 
L 2681 563 
Q 2441 288 2122 144 
Q 1803 0 1434 0 
Q 903 0 598 351 
Q 294 703 294 1319 
Q 294 1803 478 2267 
Q 663 2731 997 3091 
Q 1219 3328 1514 3456 
Q 1809 3584 2131 3584 
Q 2484 3584 2746 3420 
Q 3009 3256 3138 2956 
L 3238 3500 
L 3816 3500 
z
M 2950 2216 
Q 2950 2641 2750 2872 
Q 2550 3103 2181 3103 
Q 1953 3103 1747 3012 
Q 1541 2922 1394 2759 
Q 1156 2491 1023 2127 
Q 891 1763 891 1375 
Q 891 944 1092 712 
Q 1294 481 1672 481 
Q 2219 481 2584 976 
Q 2950 1472 2950 2216 
z
" transform="scale(0.015625)"/>
      <path id="TimesNewRomanPS-BoldMT-3d" d="M 125 2825 
L 3544 2825 
L 3544 2419 
L 125 2419 
L 125 2825 
z
M 125 1803 
L 3544 1803 
L 3544 1397 
L 125 1397 
L 125 1803 
z
" transform="scale(0.015625)"/>
      <path id="TimesNewRomanPS-BoldMT-30" d="M 2966 2119 
Q 2966 1484 2788 934 
Q 2681 597 2501 381 
Q 2322 166 2094 39 
Q 1866 -88 1597 -88 
Q 1291 -88 1044 68 
Q 797 225 606 516 
Q 469 728 366 1081 
Q 231 1559 231 2069 
Q 231 2759 425 3338 
Q 584 3816 909 4070 
Q 1234 4325 1597 4325 
Q 1966 4325 2286 4073 
Q 2606 3822 2756 3397 
Q 2966 2813 2966 2119 
z
M 2003 2125 
Q 2003 3238 1991 3422 
Q 1959 3856 1841 4009 
Q 1763 4109 1588 4109 
Q 1453 4109 1375 4034 
Q 1259 3925 1218 3648 
Q 1178 3372 1178 1719 
Q 1178 819 1241 513 
Q 1288 291 1375 216 
Q 1463 141 1606 141 
Q 1763 141 1841 241 
Q 1972 416 1991 781 
L 2003 2125 
z
" transform="scale(0.015625)"/>
      <path id="TimesNewRomanPS-BoldMT-2e" d="M 800 963 
Q 1019 963 1170 809 
Q 1322 656 1322 441 
Q 1322 225 1169 73 
Q 1016 -78 800 -78 
Q 584 -78 432 73 
Q 281 225 281 441 
Q 281 656 432 809 
Q 584 963 800 963 
z
" transform="scale(0.015625)"/>
      <path id="TimesNewRomanPS-BoldMT-31" d="M 2084 4325 
L 2084 859 
Q 2084 469 2118 361 
Q 2153 253 2262 184 
Q 2372 116 2613 116 
L 2709 116 
L 2709 0 
L 478 0 
L 478 116 
L 591 116 
Q 863 116 978 178 
Q 1094 241 1134 350 
Q 1175 459 1175 859 
L 1175 3056 
Q 1175 3350 1147 3423 
Q 1119 3497 1042 3548 
Q 966 3600 866 3600 
Q 706 3600 478 3500 
L 422 3613 
L 1981 4325 
L 2084 4325 
z
" transform="scale(0.015625)"/>
      <path id="TimesNewRomanPS-BoldMT-37" d="M 1134 -88 
L 2288 3409 
L 1409 3409 
Q 894 3409 634 3275 
Q 453 3181 334 2922 
L 216 2922 
L 522 4238 
L 3047 4238 
L 1625 -88 
L 1134 -88 
z
" transform="scale(0.015625)"/>
      <path id="TimesNewRomanPS-BoldMT-34" d="M 159 1597 
L 2172 4325 
L 2553 4325 
L 2553 1597 
L 2941 1597 
L 2941 950 
L 2553 950 
L 2553 0 
L 1694 0 
L 1694 950 
L 159 950 
L 159 1597 
z
M 463 1597 
L 1694 1597 
L 1694 3269 
L 463 1597 
z
" transform="scale(0.015625)"/>
     </defs>
     <use xlink:href="#DejaVuSans-Oblique-52" transform="translate(257 45.046875) scale(0.7)"/>
     <use xlink:href="#DejaVuSans-Oblique-4d" transform="translate(305.637695 45.046875) scale(0.7)"/>
     <use xlink:href="#DejaVuSans-Oblique-53" transform="translate(366.033203 45.046875) scale(0.7)"/>
     <use xlink:href="#DejaVuSans-Oblique-45" transform="translate(410.466797 45.046875) scale(0.7)"/>
     <use xlink:href="#DejaVuSans-Oblique-63" transform="translate(0 -40.3875) scale(0.7)"/>
     <use xlink:href="#DejaVuSans-Oblique-6f" transform="translate(38.486328 -40.3875) scale(0.7)"/>
     <use xlink:href="#DejaVuSans-Oblique-6e" transform="translate(81.313477 -40.3875) scale(0.7)"/>
     <use xlink:href="#DejaVuSans-Oblique-63" transform="translate(125.678711 -40.3875) scale(0.7)"/>
     <use xlink:href="#DejaVuSans-Oblique-65" transform="translate(164.165039 -40.3875) scale(0.7)"/>
     <use xlink:href="#DejaVuSans-Oblique-6e" transform="translate(207.231445 -40.3875) scale(0.7)"/>
     <use xlink:href="#DejaVuSans-Oblique-74" transform="translate(251.59668 -40.3875) scale(0.7)"/>
     <use xlink:href="#DejaVuSans-Oblique-72" transform="translate(279.042969 -40.3875) scale(0.7)"/>
     <use xlink:href="#DejaVuSans-Oblique-61" transform="translate(307.822266 -40.3875) scale(0.7)"/>
     <use xlink:href="#DejaVuSans-Oblique-74" transform="translate(350.717773 -40.3875) scale(0.7)"/>
     <use xlink:href="#DejaVuSans-Oblique-69" transform="translate(378.164062 -40.3875) scale(0.7)"/>
     <use xlink:href="#DejaVuSans-Oblique-6f" transform="translate(397.612305 -40.3875) scale(0.7)"/>
     <use xlink:href="#DejaVuSans-Oblique-6e" transform="translate(440.439453 -40.3875) scale(0.7)"/>
     <use xlink:href="#DejaVuSans-Oblique-72" transform="translate(507.533952 -40.3875) scale(0.7)"/>
     <use xlink:href="#DejaVuSans-Oblique-61" transform="translate(536.313249 -40.3875) scale(0.7)"/>
     <use xlink:href="#DejaVuSans-Oblique-6e" transform="translate(579.208757 -40.3875) scale(0.7)"/>
     <use xlink:href="#DejaVuSans-Oblique-67" transform="translate(623.573991 -40.3875) scale(0.7)"/>
     <use xlink:href="#DejaVuSans-Oblique-65" transform="translate(668.007585 -40.3875) scale(0.7)"/>
     <use xlink:href="#TimesNewRomanPS-BoldMT-3d" transform="translate(723.573991 0.254688)"/>
     <use xlink:href="#TimesNewRomanPS-BoldMT-30" transform="translate(780.556413 0.254688)"/>
     <use xlink:href="#TimesNewRomanPS-BoldMT-2e" transform="translate(830.556413 0.254688)"/>
     <use xlink:href="#TimesNewRomanPS-BoldMT-31" transform="translate(855.556413 0.254688)"/>
     <use xlink:href="#TimesNewRomanPS-BoldMT-31" transform="translate(905.556413 0.254688)"/>
     <use xlink:href="#TimesNewRomanPS-BoldMT-37" transform="translate(955.556413 0.254688)"/>
     <use xlink:href="#TimesNewRomanPS-BoldMT-34" transform="translate(1005.556413 0.254688)"/>
     <path d="M 0 19.051563 
L 0 25.301563 
L 711.073991 25.301563 
L 711.073991 19.051563 
L 0 19.051563 
z
"/>
    </g>
   </g>
   <g id="text_21">
    <!-- humic -->
    <g transform="translate(292.295163 38.446875) scale(0.45 -0.45)">
     <defs>
      <path id="TimesNewRomanPSMT-68" d="M 1041 4444 
L 1041 2350 
Q 1388 2731 1591 2839 
Q 1794 2947 1997 2947 
Q 2241 2947 2416 2812 
Q 2591 2678 2675 2391 
Q 2734 2191 2734 1659 
L 2734 647 
Q 2734 375 2778 275 
Q 2809 200 2884 156 
Q 2959 113 3159 113 
L 3159 0 
L 1753 0 
L 1753 113 
L 1819 113 
Q 2019 113 2097 173 
Q 2175 234 2206 353 
Q 2216 403 2216 647 
L 2216 1659 
Q 2216 2128 2167 2275 
Q 2119 2422 2012 2495 
Q 1906 2569 1756 2569 
Q 1603 2569 1437 2487 
Q 1272 2406 1041 2159 
L 1041 647 
Q 1041 353 1073 281 
Q 1106 209 1195 161 
Q 1284 113 1503 113 
L 1503 0 
L 84 0 
L 84 113 
Q 275 113 384 172 
Q 447 203 484 290 
Q 522 378 522 647 
L 522 3238 
Q 522 3728 498 3840 
Q 475 3953 426 3993 
Q 378 4034 297 4034 
Q 231 4034 84 3984 
L 41 4094 
L 897 4444 
L 1041 4444 
z
" transform="scale(0.015625)"/>
      <path id="TimesNewRomanPSMT-6d" d="M 1050 2338 
Q 1363 2650 1419 2697 
Q 1559 2816 1721 2881 
Q 1884 2947 2044 2947 
Q 2313 2947 2506 2790 
Q 2700 2634 2766 2338 
Q 3088 2713 3309 2830 
Q 3531 2947 3766 2947 
Q 3994 2947 4170 2830 
Q 4347 2713 4450 2447 
Q 4519 2266 4519 1878 
L 4519 647 
Q 4519 378 4559 278 
Q 4591 209 4675 161 
Q 4759 113 4950 113 
L 4950 0 
L 3538 0 
L 3538 113 
L 3597 113 
Q 3781 113 3884 184 
Q 3956 234 3988 344 
Q 4000 397 4000 647 
L 4000 1878 
Q 4000 2228 3916 2372 
Q 3794 2572 3525 2572 
Q 3359 2572 3192 2489 
Q 3025 2406 2788 2181 
L 2781 2147 
L 2788 2013 
L 2788 647 
Q 2788 353 2820 281 
Q 2853 209 2943 161 
Q 3034 113 3253 113 
L 3253 0 
L 1806 0 
L 1806 113 
Q 2044 113 2133 169 
Q 2222 225 2256 338 
Q 2272 391 2272 647 
L 2272 1878 
Q 2272 2228 2169 2381 
Q 2031 2581 1784 2581 
Q 1616 2581 1450 2491 
Q 1191 2353 1050 2181 
L 1050 647 
Q 1050 366 1089 281 
Q 1128 197 1204 155 
Q 1281 113 1516 113 
L 1516 0 
L 100 0 
L 100 113 
Q 297 113 375 155 
Q 453 197 493 289 
Q 534 381 534 647 
L 534 1741 
Q 534 2213 506 2350 
Q 484 2453 437 2492 
Q 391 2531 309 2531 
Q 222 2531 100 2484 
L 53 2597 
L 916 2947 
L 1050 2947 
L 1050 2338 
z
" transform="scale(0.015625)"/>
     </defs>
     <use xlink:href="#TimesNewRomanPSMT-68"/>
     <use xlink:href="#TimesNewRomanPSMT-75" x="50"/>
     <use xlink:href="#TimesNewRomanPSMT-6d" x="100"/>
     <use xlink:href="#TimesNewRomanPSMT-69" x="177.783203"/>
     <use xlink:href="#TimesNewRomanPSMT-63" x="205.566406"/>
    </g>
   </g>
  </g>
  <g id="axes_2">
   <g id="patch_8">
    <path d="M 773.84695 560.866875 
L 1263.220558 560.866875 
L 1263.220558 53.446875 
L 773.84695 53.446875 
z
" style="fill: #ffffff"/>
   </g>
   <g id="matplotlib.axis_3">
    <g id="xtick_9">
     <g id="line2d_37">
      <path d="M 774.830748 560.866875 
L 774.830748 53.446875 
" clip-path="url(#pcd5b01d10d)" style="fill: none; stroke: #000000; stroke-width: 0.7; stroke-linecap: square"/>
     </g>
     <g id="line2d_38">
      <g>
       <use xlink:href="#med94805163" x="774.830748" y="560.866875" style="stroke: #000000; stroke-width: 2"/>
      </g>
     </g>
     <g id="text_22">
      <!-- 5 -->
      <g transform="translate(764.830748 592.141875) scale(0.4 -0.4)">
       <use xlink:href="#TimesNewRomanPSMT-35"/>
      </g>
     </g>
    </g>
    <g id="xtick_10">
     <g id="line2d_39">
      <path d="M 835.572273 560.866875 
L 835.572273 53.446875 
" clip-path="url(#pcd5b01d10d)" style="fill: none; stroke: #000000; stroke-width: 0.7; stroke-linecap: square"/>
     </g>
     <g id="line2d_40">
      <g>
       <use xlink:href="#med94805163" x="835.572273" y="560.866875" style="stroke: #000000; stroke-width: 2"/>
      </g>
     </g>
     <g id="text_23">
      <!-- 10 -->
      <g transform="translate(815.572273 592.141875) scale(0.4 -0.4)">
       <defs>
        <path id="TimesNewRomanPSMT-31" d="M 750 3822 
L 1781 4325 
L 1884 4325 
L 1884 747 
Q 1884 391 1914 303 
Q 1944 216 2037 169 
Q 2131 122 2419 116 
L 2419 0 
L 825 0 
L 825 116 
Q 1125 122 1212 167 
Q 1300 213 1334 289 
Q 1369 366 1369 747 
L 1369 3034 
Q 1369 3497 1338 3628 
Q 1316 3728 1258 3775 
Q 1200 3822 1119 3822 
Q 1003 3822 797 3725 
L 750 3822 
z
" transform="scale(0.015625)"/>
       </defs>
       <use xlink:href="#TimesNewRomanPSMT-31"/>
       <use xlink:href="#TimesNewRomanPSMT-30" x="50"/>
      </g>
     </g>
    </g>
    <g id="xtick_11">
     <g id="line2d_41">
      <path d="M 896.313799 560.866875 
L 896.313799 53.446875 
" clip-path="url(#pcd5b01d10d)" style="fill: none; stroke: #000000; stroke-width: 0.7; stroke-linecap: square"/>
     </g>
     <g id="line2d_42">
      <g>
       <use xlink:href="#med94805163" x="896.313799" y="560.866875" style="stroke: #000000; stroke-width: 2"/>
      </g>
     </g>
     <g id="text_24">
      <!-- 15 -->
      <g transform="translate(876.313799 592.141875) scale(0.4 -0.4)">
       <use xlink:href="#TimesNewRomanPSMT-31"/>
       <use xlink:href="#TimesNewRomanPSMT-35" x="50"/>
      </g>
     </g>
    </g>
    <g id="xtick_12">
     <g id="line2d_43">
      <path d="M 957.055324 560.866875 
L 957.055324 53.446875 
" clip-path="url(#pcd5b01d10d)" style="fill: none; stroke: #000000; stroke-width: 0.7; stroke-linecap: square"/>
     </g>
     <g id="line2d_44">
      <g>
       <use xlink:href="#med94805163" x="957.055324" y="560.866875" style="stroke: #000000; stroke-width: 2"/>
      </g>
     </g>
     <g id="text_25">
      <!-- 20 -->
      <g transform="translate(937.055324 592.141875) scale(0.4 -0.4)">
       <use xlink:href="#TimesNewRomanPSMT-32"/>
       <use xlink:href="#TimesNewRomanPSMT-30" x="50"/>
      </g>
     </g>
    </g>
    <g id="xtick_13">
     <g id="line2d_45">
      <path d="M 1017.796849 560.866875 
L 1017.796849 53.446875 
" clip-path="url(#pcd5b01d10d)" style="fill: none; stroke: #000000; stroke-width: 0.7; stroke-linecap: square"/>
     </g>
     <g id="line2d_46">
      <g>
       <use xlink:href="#med94805163" x="1017.796849" y="560.866875" style="stroke: #000000; stroke-width: 2"/>
      </g>
     </g>
     <g id="text_26">
      <!-- 25 -->
      <g transform="translate(997.796849 592.141875) scale(0.4 -0.4)">
       <use xlink:href="#TimesNewRomanPSMT-32"/>
       <use xlink:href="#TimesNewRomanPSMT-35" x="50"/>
      </g>
     </g>
    </g>
    <g id="xtick_14">
     <g id="line2d_47">
      <path d="M 1078.538375 560.866875 
L 1078.538375 53.446875 
" clip-path="url(#pcd5b01d10d)" style="fill: none; stroke: #000000; stroke-width: 0.7; stroke-linecap: square"/>
     </g>
     <g id="line2d_48">
      <g>
       <use xlink:href="#med94805163" x="1078.538375" y="560.866875" style="stroke: #000000; stroke-width: 2"/>
      </g>
     </g>
     <g id="text_27">
      <!-- 30 -->
      <g transform="translate(1058.538375 592.141875) scale(0.4 -0.4)">
       <use xlink:href="#TimesNewRomanPSMT-33"/>
       <use xlink:href="#TimesNewRomanPSMT-30" x="50"/>
      </g>
     </g>
    </g>
    <g id="xtick_15">
     <g id="line2d_49">
      <path d="M 1139.2799 560.866875 
L 1139.2799 53.446875 
" clip-path="url(#pcd5b01d10d)" style="fill: none; stroke: #000000; stroke-width: 0.7; stroke-linecap: square"/>
     </g>
     <g id="line2d_50">
      <g>
       <use xlink:href="#med94805163" x="1139.2799" y="560.866875" style="stroke: #000000; stroke-width: 2"/>
      </g>
     </g>
     <g id="text_28">
      <!-- 35 -->
      <g transform="translate(1119.2799 592.141875) scale(0.4 -0.4)">
       <use xlink:href="#TimesNewRomanPSMT-33"/>
       <use xlink:href="#TimesNewRomanPSMT-35" x="50"/>
      </g>
     </g>
    </g>
    <g id="xtick_16">
     <g id="line2d_51">
      <path d="M 1200.021426 560.866875 
L 1200.021426 53.446875 
" clip-path="url(#pcd5b01d10d)" style="fill: none; stroke: #000000; stroke-width: 0.7; stroke-linecap: square"/>
     </g>
     <g id="line2d_52">
      <g>
       <use xlink:href="#med94805163" x="1200.021426" y="560.866875" style="stroke: #000000; stroke-width: 2"/>
      </g>
     </g>
     <g id="text_29">
      <!-- 40 -->
      <g transform="translate(1180.021426 592.141875) scale(0.4 -0.4)">
       <use xlink:href="#TimesNewRomanPSMT-34"/>
       <use xlink:href="#TimesNewRomanPSMT-30" x="50"/>
      </g>
     </g>
    </g>
    <g id="xtick_17">
     <g id="line2d_53">
      <path d="M 1260.762951 560.866875 
L 1260.762951 53.446875 
" clip-path="url(#pcd5b01d10d)" style="fill: none; stroke: #000000; stroke-width: 0.7; stroke-linecap: square"/>
     </g>
     <g id="line2d_54">
      <g>
       <use xlink:href="#med94805163" x="1260.762951" y="560.866875" style="stroke: #000000; stroke-width: 2"/>
      </g>
     </g>
     <g id="text_30">
      <!-- 45 -->
      <g transform="translate(1240.762951 592.141875) scale(0.4 -0.4)">
       <use xlink:href="#TimesNewRomanPSMT-34"/>
       <use xlink:href="#TimesNewRomanPSMT-35" x="50"/>
      </g>
     </g>
    </g>
    <g id="text_31">
     <!-- True data -->
     <g transform="translate(939.399848 644.861875) scale(0.42 -0.42)">
      <use xlink:href="#TimesNewRomanPSMT-54"/>
      <use xlink:href="#TimesNewRomanPSMT-72" x="57.583984"/>
      <use xlink:href="#TimesNewRomanPSMT-75" x="90.884766"/>
      <use xlink:href="#TimesNewRomanPSMT-65" x="140.884766"/>
      <use xlink:href="#TimesNewRomanPSMT-20" x="185.269531"/>
      <use xlink:href="#TimesNewRomanPSMT-64" x="210.269531"/>
      <use xlink:href="#TimesNewRomanPSMT-61" x="260.269531"/>
      <use xlink:href="#TimesNewRomanPSMT-74" x="304.654297"/>
      <use xlink:href="#TimesNewRomanPSMT-61" x="332.4375"/>
     </g>
    </g>
   </g>
   <g id="matplotlib.axis_4">
    <g id="ytick_10">
     <g id="line2d_55">
      <path d="M 773.84695 559.074054 
L 1263.220558 559.074054 
" clip-path="url(#pcd5b01d10d)" style="fill: none; stroke: #000000; stroke-width: 0.7; stroke-linecap: square"/>
     </g>
     <g id="line2d_56">
      <g>
       <use xlink:href="#m15e979c525" x="773.84695" y="559.074054" style="stroke: #000000; stroke-width: 2"/>
      </g>
     </g>
     <g id="text_32">
      <!-- 5 -->
      <g transform="translate(750.34695 572.961554) scale(0.4 -0.4)">
       <use xlink:href="#TimesNewRomanPSMT-35"/>
      </g>
     </g>
    </g>
    <g id="ytick_11">
     <g id="line2d_57">
      <path d="M 773.84695 498.300339 
L 1263.220558 498.300339 
" clip-path="url(#pcd5b01d10d)" style="fill: none; stroke: #000000; stroke-width: 0.7; stroke-linecap: square"/>
     </g>
     <g id="line2d_58">
      <g>
       <use xlink:href="#m15e979c525" x="773.84695" y="498.300339" style="stroke: #000000; stroke-width: 2"/>
      </g>
     </g>
     <g id="text_33">
      <!-- 10 -->
      <g transform="translate(730.34695 512.187839) scale(0.4 -0.4)">
       <use xlink:href="#TimesNewRomanPSMT-31"/>
       <use xlink:href="#TimesNewRomanPSMT-30" x="50"/>
      </g>
     </g>
    </g>
    <g id="ytick_12">
     <g id="line2d_59">
      <path d="M 773.84695 437.526624 
L 1263.220558 437.526624 
" clip-path="url(#pcd5b01d10d)" style="fill: none; stroke: #000000; stroke-width: 0.7; stroke-linecap: square"/>
     </g>
     <g id="line2d_60">
      <g>
       <use xlink:href="#m15e979c525" x="773.84695" y="437.526624" style="stroke: #000000; stroke-width: 2"/>
      </g>
     </g>
     <g id="text_34">
      <!-- 15 -->
      <g transform="translate(730.34695 451.414124) scale(0.4 -0.4)">
       <use xlink:href="#TimesNewRomanPSMT-31"/>
       <use xlink:href="#TimesNewRomanPSMT-35" x="50"/>
      </g>
     </g>
    </g>
    <g id="ytick_13">
     <g id="line2d_61">
      <path d="M 773.84695 376.752909 
L 1263.220558 376.752909 
" clip-path="url(#pcd5b01d10d)" style="fill: none; stroke: #000000; stroke-width: 0.7; stroke-linecap: square"/>
     </g>
     <g id="line2d_62">
      <g>
       <use xlink:href="#m15e979c525" x="773.84695" y="376.752909" style="stroke: #000000; stroke-width: 2"/>
      </g>
     </g>
     <g id="text_35">
      <!-- 20 -->
      <g transform="translate(730.34695 390.640409) scale(0.4 -0.4)">
       <use xlink:href="#TimesNewRomanPSMT-32"/>
       <use xlink:href="#TimesNewRomanPSMT-30" x="50"/>
      </g>
     </g>
    </g>
    <g id="ytick_14">
     <g id="line2d_63">
      <path d="M 773.84695 315.979194 
L 1263.220558 315.979194 
" clip-path="url(#pcd5b01d10d)" style="fill: none; stroke: #000000; stroke-width: 0.7; stroke-linecap: square"/>
     </g>
     <g id="line2d_64">
      <g>
       <use xlink:href="#m15e979c525" x="773.84695" y="315.979194" style="stroke: #000000; stroke-width: 2"/>
      </g>
     </g>
     <g id="text_36">
      <!-- 25 -->
      <g transform="translate(730.34695 329.866694) scale(0.4 -0.4)">
       <use xlink:href="#TimesNewRomanPSMT-32"/>
       <use xlink:href="#TimesNewRomanPSMT-35" x="50"/>
      </g>
     </g>
    </g>
    <g id="ytick_15">
     <g id="line2d_65">
      <path d="M 773.84695 255.205479 
L 1263.220558 255.205479 
" clip-path="url(#pcd5b01d10d)" style="fill: none; stroke: #000000; stroke-width: 0.7; stroke-linecap: square"/>
     </g>
     <g id="line2d_66">
      <g>
       <use xlink:href="#m15e979c525" x="773.84695" y="255.205479" style="stroke: #000000; stroke-width: 2"/>
      </g>
     </g>
     <g id="text_37">
      <!-- 30 -->
      <g transform="translate(730.34695 269.092979) scale(0.4 -0.4)">
       <use xlink:href="#TimesNewRomanPSMT-33"/>
       <use xlink:href="#TimesNewRomanPSMT-30" x="50"/>
      </g>
     </g>
    </g>
    <g id="ytick_16">
     <g id="line2d_67">
      <path d="M 773.84695 194.431764 
L 1263.220558 194.431764 
" clip-path="url(#pcd5b01d10d)" style="fill: none; stroke: #000000; stroke-width: 0.7; stroke-linecap: square"/>
     </g>
     <g id="line2d_68">
      <g>
       <use xlink:href="#m15e979c525" x="773.84695" y="194.431764" style="stroke: #000000; stroke-width: 2"/>
      </g>
     </g>
     <g id="text_38">
      <!-- 35 -->
      <g transform="translate(730.34695 208.319264) scale(0.4 -0.4)">
       <use xlink:href="#TimesNewRomanPSMT-33"/>
       <use xlink:href="#TimesNewRomanPSMT-35" x="50"/>
      </g>
     </g>
    </g>
    <g id="ytick_17">
     <g id="line2d_69">
      <path d="M 773.84695 133.658049 
L 1263.220558 133.658049 
" clip-path="url(#pcd5b01d10d)" style="fill: none; stroke: #000000; stroke-width: 0.7; stroke-linecap: square"/>
     </g>
     <g id="line2d_70">
      <g>
       <use xlink:href="#m15e979c525" x="773.84695" y="133.658049" style="stroke: #000000; stroke-width: 2"/>
      </g>
     </g>
     <g id="text_39">
      <!-- 40 -->
      <g transform="translate(730.34695 147.545549) scale(0.4 -0.4)">
       <use xlink:href="#TimesNewRomanPSMT-34"/>
       <use xlink:href="#TimesNewRomanPSMT-30" x="50"/>
      </g>
     </g>
    </g>
    <g id="ytick_18">
     <g id="line2d_71">
      <path d="M 773.84695 72.884334 
L 1263.220558 72.884334 
" clip-path="url(#pcd5b01d10d)" style="fill: none; stroke: #000000; stroke-width: 0.7; stroke-linecap: square"/>
     </g>
     <g id="line2d_72">
      <g>
       <use xlink:href="#m15e979c525" x="773.84695" y="72.884334" style="stroke: #000000; stroke-width: 2"/>
      </g>
     </g>
     <g id="text_40">
      <!-- 45 -->
      <g transform="translate(730.34695 86.771834) scale(0.4 -0.4)">
       <use xlink:href="#TimesNewRomanPSMT-34"/>
       <use xlink:href="#TimesNewRomanPSMT-35" x="50"/>
      </g>
     </g>
    </g>
    <g id="text_41">
     <!-- Predicted data -->
     <g transform="translate(706.362888 426.689531) rotate(-90) scale(0.42 -0.42)">
      <use xlink:href="#TimesNewRomanPSMT-50"/>
      <use xlink:href="#TimesNewRomanPSMT-72" x="55.615234"/>
      <use xlink:href="#TimesNewRomanPSMT-65" x="88.916016"/>
      <use xlink:href="#TimesNewRomanPSMT-64" x="133.300781"/>
      <use xlink:href="#TimesNewRomanPSMT-69" x="183.300781"/>
      <use xlink:href="#TimesNewRomanPSMT-63" x="211.083984"/>
      <use xlink:href="#TimesNewRomanPSMT-74" x="255.46875"/>
      <use xlink:href="#TimesNewRomanPSMT-65" x="283.251953"/>
      <use xlink:href="#TimesNewRomanPSMT-64" x="327.636719"/>
      <use xlink:href="#TimesNewRomanPSMT-20" x="377.636719"/>
      <use xlink:href="#TimesNewRomanPSMT-64" x="402.636719"/>
      <use xlink:href="#TimesNewRomanPSMT-61" x="452.636719"/>
      <use xlink:href="#TimesNewRomanPSMT-74" x="497.021484"/>
      <use xlink:href="#TimesNewRomanPSMT-61" x="524.804688"/>
     </g>
    </g>
   </g>
   <g id="line2d_73">
    <path d="M 1165.841529 167.856059 
L 898.652767 435.186416 
L 1141.020237 192.690505 
L 1213.118291 120.554243 
L 1005.381494 328.401129 
L 929.259014 404.56395 
L 966.866639 366.936395 
L 1195.048691 138.633419 
L 856.507785 477.353732 
L 1084.139214 249.601672 
L 1120.508635 213.212977 
L 1021.558788 312.215262 
L 815.984686 517.898307 
L 1231.757971 101.904685 
L 1027.238341 306.532699 
L 876.428703 457.422257 
L 977.066408 356.73122 
L 1144.968669 188.73998 
L 938.287336 395.530843 
L 1193.027111 140.65607 
L 891.279611 442.563479 
L 1097.050821 236.683222 
L 1180.109677 153.58035 
L 1073.603341 260.143128 
L 915.866779 417.963282 
L 833.016136 500.85783 
L 796.091205 537.80233 
L 1109.440791 224.286687 
L 954.09422 379.715582 
L 1240.976303 92.681468 
L 825.501636 508.376313 
L 988.13634 345.655422 
L 1040.086235 293.677996 
L 1063.33643 270.41548 
L 847.710406 486.155773 
" clip-path="url(#pcd5b01d10d)" style="fill: none; stroke: #0000ff; stroke-width: 3; stroke-linecap: square"/>
   </g>
   <g id="line2d_74">
    <g clip-path="url(#pcd5b01d10d)">
     <use xlink:href="#m448a8d7a59" x="1165.841529" y="262.162754" style="fill: #ff0000; stroke: #ff0000"/>
     <use xlink:href="#m448a8d7a59" x="898.652767" y="426.144421" style="fill: #ff0000; stroke: #ff0000"/>
     <use xlink:href="#m448a8d7a59" x="1141.020237" y="238.713902" style="fill: #ff0000; stroke: #ff0000"/>
     <use xlink:href="#m448a8d7a59" x="1213.118291" y="76.51142" style="fill: #ff0000; stroke: #ff0000"/>
     <use xlink:href="#m448a8d7a59" x="1005.381494" y="317.146615" style="fill: #ff0000; stroke: #ff0000"/>
     <use xlink:href="#m448a8d7a59" x="929.259014" y="420.963744" style="fill: #ff0000; stroke: #ff0000"/>
     <use xlink:href="#m448a8d7a59" x="966.866639" y="358.467758" style="fill: #ff0000; stroke: #ff0000"/>
     <use xlink:href="#m448a8d7a59" x="1195.048691" y="172.812373" style="fill: #ff0000; stroke: #ff0000"/>
     <use xlink:href="#m448a8d7a59" x="856.507785" y="440.243671" style="fill: #ff0000; stroke: #ff0000"/>
     <use xlink:href="#m448a8d7a59" x="1084.139214" y="355.071167" style="fill: #ff0000; stroke: #ff0000"/>
     <use xlink:href="#m448a8d7a59" x="1120.508635" y="155.484335" style="fill: #ff0000; stroke: #ff0000"/>
     <use xlink:href="#m448a8d7a59" x="1021.558788" y="258.461129" style="fill: #ff0000; stroke: #ff0000"/>
     <use xlink:href="#m448a8d7a59" x="815.984686" y="463.555624" style="fill: #ff0000; stroke: #ff0000"/>
     <use xlink:href="#m448a8d7a59" x="1231.757971" y="80.190594" style="fill: #ff0000; stroke: #ff0000"/>
     <use xlink:href="#m448a8d7a59" x="1027.238341" y="388.185566" style="fill: #ff0000; stroke: #ff0000"/>
     <use xlink:href="#m448a8d7a59" x="876.428703" y="397.451751" style="fill: #ff0000; stroke: #ff0000"/>
     <use xlink:href="#m448a8d7a59" x="977.066408" y="340.556232" style="fill: #ff0000; stroke: #ff0000"/>
     <use xlink:href="#m448a8d7a59" x="1144.968669" y="138.19216" style="fill: #ff0000; stroke: #ff0000"/>
     <use xlink:href="#m448a8d7a59" x="938.287336" y="333.97982" style="fill: #ff0000; stroke: #ff0000"/>
     <use xlink:href="#m448a8d7a59" x="1193.027111" y="235.570901" style="fill: #ff0000; stroke: #ff0000"/>
     <use xlink:href="#m448a8d7a59" x="891.279611" y="407.650938" style="fill: #ff0000; stroke: #ff0000"/>
     <use xlink:href="#m448a8d7a59" x="1097.050821" y="223.906713" style="fill: #ff0000; stroke: #ff0000"/>
     <use xlink:href="#m448a8d7a59" x="1180.109677" y="171.904338" style="fill: #ff0000; stroke: #ff0000"/>
     <use xlink:href="#m448a8d7a59" x="1073.603341" y="186.476054" style="fill: #ff0000; stroke: #ff0000"/>
     <use xlink:href="#m448a8d7a59" x="915.866779" y="385.386154" style="fill: #ff0000; stroke: #ff0000"/>
     <use xlink:href="#m448a8d7a59" x="833.016136" y="461.182948" style="fill: #ff0000; stroke: #ff0000"/>
     <use xlink:href="#m448a8d7a59" x="796.091205" y="464.309798" style="fill: #ff0000; stroke: #ff0000"/>
     <use xlink:href="#m448a8d7a59" x="1109.440791" y="228.642165" style="fill: #ff0000; stroke: #ff0000"/>
     <use xlink:href="#m448a8d7a59" x="954.09422" y="391.736092" style="fill: #ff0000; stroke: #ff0000"/>
     <use xlink:href="#m448a8d7a59" x="1240.976303" y="146.030882" style="fill: #ff0000; stroke: #ff0000"/>
     <use xlink:href="#m448a8d7a59" x="825.501636" y="476.996489" style="fill: #ff0000; stroke: #ff0000"/>
     <use xlink:href="#m448a8d7a59" x="988.13634" y="407.672121" style="fill: #ff0000; stroke: #ff0000"/>
     <use xlink:href="#m448a8d7a59" x="1040.086235" y="325.254297" style="fill: #ff0000; stroke: #ff0000"/>
     <use xlink:href="#m448a8d7a59" x="1063.33643" y="423.141192" style="fill: #ff0000; stroke: #ff0000"/>
     <use xlink:href="#m448a8d7a59" x="847.710406" y="497.02102" style="fill: #ff0000; stroke: #ff0000"/>
    </g>
   </g>
   <g id="patch_9">
    <path d="M 773.84695 560.866875 
L 773.84695 53.446875 
" style="fill: none; stroke: #000000; stroke-width: 0.8; stroke-linejoin: miter; stroke-linecap: square"/>
   </g>
   <g id="patch_10">
    <path d="M 1263.220558 560.866875 
L 1263.220558 53.446875 
" style="fill: none; stroke: #000000; stroke-width: 0.8; stroke-linejoin: miter; stroke-linecap: square"/>
   </g>
   <g id="patch_11">
    <path d="M 773.84695 560.866875 
L 1263.220558 560.866875 
" style="fill: none; stroke: #000000; stroke-width: 0.8; stroke-linejoin: miter; stroke-linecap: square"/>
   </g>
   <g id="patch_12">
    <path d="M 773.84695 53.446875 
L 1263.220558 53.446875 
" style="fill: none; stroke: #000000; stroke-width: 0.8; stroke-linejoin: miter; stroke-linecap: square"/>
   </g>
   <g id="text_42">
    <g id="patch_13">
     <path d="M 804.291403 194.131873 
L 1226.811403 194.131873 
Q 1239.411403 194.131873 1239.411403 181.531873 
L 1239.411403 117.271873 
Q 1239.411403 104.671873 1226.811403 104.671873 
L 804.291403 104.671873 
Q 791.691403 104.671873 791.691403 117.271873 
L 791.691403 181.531873 
Q 791.691403 194.131873 804.291403 194.131873 
z
" style="fill: #ffffff; stroke: #000000; stroke-linejoin: miter"/>
    </g>
    <!-- $\frac {RMSE}{concentration\ range}$=0.126 -->
    <g transform="translate(804.291403 158.011873) scale(0.42 -0.42)">
     <defs>
      <path id="TimesNewRomanPS-BoldMT-32" d="M 2650 0 
L 156 0 
L 156 69 
Q 1303 1434 1548 1906 
Q 1794 2378 1794 2828 
Q 1794 3156 1591 3373 
Q 1388 3591 1094 3591 
Q 613 3591 347 3109 
L 231 3150 
Q 400 3750 744 4037 
Q 1088 4325 1538 4325 
Q 1859 4325 2125 4175 
Q 2391 4025 2541 3764 
Q 2691 3503 2691 3275 
Q 2691 2859 2459 2431 
Q 2144 1853 1081 819 
L 1997 819 
Q 2334 819 2436 847 
Q 2538 875 2603 942 
Q 2669 1009 2775 1225 
L 2888 1225 
L 2650 0 
z
" transform="scale(0.015625)"/>
      <path id="TimesNewRomanPS-BoldMT-36" d="M 3006 4325 
L 3006 4238 
Q 2441 4094 2098 3867 
Q 1756 3641 1557 3317 
Q 1359 2994 1250 2516 
Q 1388 2609 1478 2638 
Q 1681 2700 1888 2700 
Q 2363 2700 2680 2354 
Q 2997 2009 2997 1413 
Q 2997 994 2825 644 
Q 2653 294 2337 103 
Q 2022 -88 1663 -88 
Q 1272 -88 940 126 
Q 609 341 423 753 
Q 238 1166 238 1650 
Q 238 2363 580 2977 
Q 922 3591 1551 3955 
Q 2181 4319 3006 4325 
z
M 1209 2263 
Q 1184 1831 1184 1631 
Q 1184 1200 1267 797 
Q 1350 394 1494 231 
Q 1597 116 1738 116 
Q 1881 116 1993 283 
Q 2106 450 2106 963 
Q 2106 1825 1897 2153 
Q 1763 2366 1534 2366 
Q 1409 2366 1209 2263 
z
" transform="scale(0.015625)"/>
     </defs>
     <use xlink:href="#DejaVuSans-Oblique-52" transform="translate(257 45.046875) scale(0.7)"/>
     <use xlink:href="#DejaVuSans-Oblique-4d" transform="translate(305.637695 45.046875) scale(0.7)"/>
     <use xlink:href="#DejaVuSans-Oblique-53" transform="translate(366.033203 45.046875) scale(0.7)"/>
     <use xlink:href="#DejaVuSans-Oblique-45" transform="translate(410.466797 45.046875) scale(0.7)"/>
     <use xlink:href="#DejaVuSans-Oblique-63" transform="translate(0 -40.3875) scale(0.7)"/>
     <use xlink:href="#DejaVuSans-Oblique-6f" transform="translate(38.486328 -40.3875) scale(0.7)"/>
     <use xlink:href="#DejaVuSans-Oblique-6e" transform="translate(81.313477 -40.3875) scale(0.7)"/>
     <use xlink:href="#DejaVuSans-Oblique-63" transform="translate(125.678711 -40.3875) scale(0.7)"/>
     <use xlink:href="#DejaVuSans-Oblique-65" transform="translate(164.165039 -40.3875) scale(0.7)"/>
     <use xlink:href="#DejaVuSans-Oblique-6e" transform="translate(207.231445 -40.3875) scale(0.7)"/>
     <use xlink:href="#DejaVuSans-Oblique-74" transform="translate(251.59668 -40.3875) scale(0.7)"/>
     <use xlink:href="#DejaVuSans-Oblique-72" transform="translate(279.042969 -40.3875) scale(0.7)"/>
     <use xlink:href="#DejaVuSans-Oblique-61" transform="translate(307.822266 -40.3875) scale(0.7)"/>
     <use xlink:href="#DejaVuSans-Oblique-74" transform="translate(350.717773 -40.3875) scale(0.7)"/>
     <use xlink:href="#DejaVuSans-Oblique-69" transform="translate(378.164062 -40.3875) scale(0.7)"/>
     <use xlink:href="#DejaVuSans-Oblique-6f" transform="translate(397.612305 -40.3875) scale(0.7)"/>
     <use xlink:href="#DejaVuSans-Oblique-6e" transform="translate(440.439453 -40.3875) scale(0.7)"/>
     <use xlink:href="#DejaVuSans-Oblique-72" transform="translate(507.533952 -40.3875) scale(0.7)"/>
     <use xlink:href="#DejaVuSans-Oblique-61" transform="translate(536.313249 -40.3875) scale(0.7)"/>
     <use xlink:href="#DejaVuSans-Oblique-6e" transform="translate(579.208757 -40.3875) scale(0.7)"/>
     <use xlink:href="#DejaVuSans-Oblique-67" transform="translate(623.573991 -40.3875) scale(0.7)"/>
     <use xlink:href="#DejaVuSans-Oblique-65" transform="translate(668.007585 -40.3875) scale(0.7)"/>
     <use xlink:href="#TimesNewRomanPS-BoldMT-3d" transform="translate(723.573991 0.254688)"/>
     <use xlink:href="#TimesNewRomanPS-BoldMT-30" transform="translate(780.556413 0.254688)"/>
     <use xlink:href="#TimesNewRomanPS-BoldMT-2e" transform="translate(830.556413 0.254688)"/>
     <use xlink:href="#TimesNewRomanPS-BoldMT-31" transform="translate(855.556413 0.254688)"/>
     <use xlink:href="#TimesNewRomanPS-BoldMT-32" transform="translate(905.556413 0.254688)"/>
     <use xlink:href="#TimesNewRomanPS-BoldMT-36" transform="translate(955.556413 0.254688)"/>
     <path d="M 0 19.051563 
L 0 25.301563 
L 711.073991 25.301563 
L 711.073991 19.051563 
L 0 19.051563 
z
"/>
    </g>
   </g>
   <g id="text_43">
    <!-- tyrosine -->
    <g transform="translate(946.045082 38.446875) scale(0.45 -0.45)">
     <defs>
      <path id="TimesNewRomanPSMT-79" d="M 38 2863 
L 1372 2863 
L 1372 2747 
L 1306 2747 
Q 1166 2747 1095 2686 
Q 1025 2625 1025 2534 
Q 1025 2413 1128 2197 
L 1825 753 
L 2466 2334 
Q 2519 2463 2519 2588 
Q 2519 2644 2497 2672 
Q 2472 2706 2419 2726 
Q 2366 2747 2231 2747 
L 2231 2863 
L 3163 2863 
L 3163 2747 
Q 3047 2734 2984 2696 
Q 2922 2659 2847 2556 
Q 2819 2513 2741 2316 
L 1575 -541 
Q 1406 -956 1132 -1168 
Q 859 -1381 606 -1381 
Q 422 -1381 303 -1275 
Q 184 -1169 184 -1031 
Q 184 -900 270 -820 
Q 356 -741 506 -741 
Q 609 -741 788 -809 
Q 913 -856 944 -856 
Q 1038 -856 1148 -759 
Q 1259 -663 1372 -384 
L 1575 113 
L 547 2272 
Q 500 2369 397 2513 
Q 319 2622 269 2659 
Q 197 2709 38 2747 
L 38 2863 
z
" transform="scale(0.015625)"/>
      <path id="TimesNewRomanPSMT-6f" d="M 1600 2947 
Q 2250 2947 2644 2453 
Q 2978 2031 2978 1484 
Q 2978 1100 2793 706 
Q 2609 313 2286 112 
Q 1963 -88 1566 -88 
Q 919 -88 538 428 
Q 216 863 216 1403 
Q 216 1797 411 2186 
Q 606 2575 925 2761 
Q 1244 2947 1600 2947 
z
M 1503 2744 
Q 1338 2744 1170 2645 
Q 1003 2547 900 2300 
Q 797 2053 797 1666 
Q 797 1041 1045 587 
Q 1294 134 1700 134 
Q 2003 134 2200 384 
Q 2397 634 2397 1244 
Q 2397 2006 2069 2444 
Q 1847 2744 1503 2744 
z
" transform="scale(0.015625)"/>
      <path id="TimesNewRomanPSMT-73" d="M 2050 2947 
L 2050 1972 
L 1947 1972 
Q 1828 2431 1642 2597 
Q 1456 2763 1169 2763 
Q 950 2763 815 2647 
Q 681 2531 681 2391 
Q 681 2216 781 2091 
Q 878 1963 1175 1819 
L 1631 1597 
Q 2266 1288 2266 781 
Q 2266 391 1970 151 
Q 1675 -88 1309 -88 
Q 1047 -88 709 6 
Q 606 38 541 38 
Q 469 38 428 -44 
L 325 -44 
L 325 978 
L 428 978 
Q 516 541 762 319 
Q 1009 97 1316 97 
Q 1531 97 1667 223 
Q 1803 350 1803 528 
Q 1803 744 1651 891 
Q 1500 1038 1047 1263 
Q 594 1488 453 1669 
Q 313 1847 313 2119 
Q 313 2472 555 2709 
Q 797 2947 1181 2947 
Q 1350 2947 1591 2875 
Q 1750 2828 1803 2828 
Q 1853 2828 1881 2850 
Q 1909 2872 1947 2947 
L 2050 2947 
z
" transform="scale(0.015625)"/>
      <path id="TimesNewRomanPSMT-6e" d="M 1034 2341 
Q 1538 2947 1994 2947 
Q 2228 2947 2397 2830 
Q 2566 2713 2666 2444 
Q 2734 2256 2734 1869 
L 2734 647 
Q 2734 375 2778 278 
Q 2813 200 2889 156 
Q 2966 113 3172 113 
L 3172 0 
L 1756 0 
L 1756 113 
L 1816 113 
Q 2016 113 2095 173 
Q 2175 234 2206 353 
Q 2219 400 2219 647 
L 2219 1819 
Q 2219 2209 2117 2386 
Q 2016 2563 1775 2563 
Q 1403 2563 1034 2156 
L 1034 647 
Q 1034 356 1069 288 
Q 1113 197 1189 155 
Q 1266 113 1500 113 
L 1500 0 
L 84 0 
L 84 113 
L 147 113 
Q 366 113 442 223 
Q 519 334 519 647 
L 519 1709 
Q 519 2225 495 2337 
Q 472 2450 423 2490 
Q 375 2531 294 2531 
Q 206 2531 84 2484 
L 38 2597 
L 900 2947 
L 1034 2947 
L 1034 2341 
z
" transform="scale(0.015625)"/>
     </defs>
     <use xlink:href="#TimesNewRomanPSMT-74"/>
     <use xlink:href="#TimesNewRomanPSMT-79" x="27.783203"/>
     <use xlink:href="#TimesNewRomanPSMT-72" x="77.783203"/>
     <use xlink:href="#TimesNewRomanPSMT-6f" x="111.083984"/>
     <use xlink:href="#TimesNewRomanPSMT-73" x="161.083984"/>
     <use xlink:href="#TimesNewRomanPSMT-69" x="200"/>
     <use xlink:href="#TimesNewRomanPSMT-6e" x="227.783203"/>
     <use xlink:href="#TimesNewRomanPSMT-65" x="277.783203"/>
    </g>
   </g>
  </g>
  <g id="axes_3">
   <g id="patch_14">
    <path d="M 103.847813 1259.066875 
L 593.22142 1259.066875 
L 593.22142 751.646875 
L 103.847813 751.646875 
z
" style="fill: #ffffff"/>
   </g>
   <g id="matplotlib.axis_5">
    <g id="xtick_18">
     <g id="line2d_75">
      <path d="M 162.947531 1259.066875 
L 162.947531 751.646875 
" clip-path="url(#p15f8c032de)" style="fill: none; stroke: #000000; stroke-width: 0.7; stroke-linecap: square"/>
     </g>
     <g id="line2d_76">
      <g>
       <use xlink:href="#med94805163" x="162.947531" y="1259.066875" style="stroke: #000000; stroke-width: 2"/>
      </g>
     </g>
     <g id="text_44">
      <!-- 10 -->
      <g transform="translate(142.947531 1290.341875) scale(0.4 -0.4)">
       <use xlink:href="#TimesNewRomanPSMT-31"/>
       <use xlink:href="#TimesNewRomanPSMT-30" x="50"/>
      </g>
     </g>
    </g>
    <g id="xtick_19">
     <g id="line2d_77">
      <path d="M 224.515663 1259.066875 
L 224.515663 751.646875 
" clip-path="url(#p15f8c032de)" style="fill: none; stroke: #000000; stroke-width: 0.7; stroke-linecap: square"/>
     </g>
     <g id="line2d_78">
      <g>
       <use xlink:href="#med94805163" x="224.515663" y="1259.066875" style="stroke: #000000; stroke-width: 2"/>
      </g>
     </g>
     <g id="text_45">
      <!-- 15 -->
      <g transform="translate(204.515663 1290.341875) scale(0.4 -0.4)">
       <use xlink:href="#TimesNewRomanPSMT-31"/>
       <use xlink:href="#TimesNewRomanPSMT-35" x="50"/>
      </g>
     </g>
    </g>
    <g id="xtick_20">
     <g id="line2d_79">
      <path d="M 286.083796 1259.066875 
L 286.083796 751.646875 
" clip-path="url(#p15f8c032de)" style="fill: none; stroke: #000000; stroke-width: 0.7; stroke-linecap: square"/>
     </g>
     <g id="line2d_80">
      <g>
       <use xlink:href="#med94805163" x="286.083796" y="1259.066875" style="stroke: #000000; stroke-width: 2"/>
      </g>
     </g>
     <g id="text_46">
      <!-- 20 -->
      <g transform="translate(266.083796 1290.341875) scale(0.4 -0.4)">
       <use xlink:href="#TimesNewRomanPSMT-32"/>
       <use xlink:href="#TimesNewRomanPSMT-30" x="50"/>
      </g>
     </g>
    </g>
    <g id="xtick_21">
     <g id="line2d_81">
      <path d="M 347.651928 1259.066875 
L 347.651928 751.646875 
" clip-path="url(#p15f8c032de)" style="fill: none; stroke: #000000; stroke-width: 0.7; stroke-linecap: square"/>
     </g>
     <g id="line2d_82">
      <g>
       <use xlink:href="#med94805163" x="347.651928" y="1259.066875" style="stroke: #000000; stroke-width: 2"/>
      </g>
     </g>
     <g id="text_47">
      <!-- 25 -->
      <g transform="translate(327.651928 1290.341875) scale(0.4 -0.4)">
       <use xlink:href="#TimesNewRomanPSMT-32"/>
       <use xlink:href="#TimesNewRomanPSMT-35" x="50"/>
      </g>
     </g>
    </g>
    <g id="xtick_22">
     <g id="line2d_83">
      <path d="M 409.220061 1259.066875 
L 409.220061 751.646875 
" clip-path="url(#p15f8c032de)" style="fill: none; stroke: #000000; stroke-width: 0.7; stroke-linecap: square"/>
     </g>
     <g id="line2d_84">
      <g>
       <use xlink:href="#med94805163" x="409.220061" y="1259.066875" style="stroke: #000000; stroke-width: 2"/>
      </g>
     </g>
     <g id="text_48">
      <!-- 30 -->
      <g transform="translate(389.220061 1290.341875) scale(0.4 -0.4)">
       <use xlink:href="#TimesNewRomanPSMT-33"/>
       <use xlink:href="#TimesNewRomanPSMT-30" x="50"/>
      </g>
     </g>
    </g>
    <g id="xtick_23">
     <g id="line2d_85">
      <path d="M 470.788193 1259.066875 
L 470.788193 751.646875 
" clip-path="url(#p15f8c032de)" style="fill: none; stroke: #000000; stroke-width: 0.7; stroke-linecap: square"/>
     </g>
     <g id="line2d_86">
      <g>
       <use xlink:href="#med94805163" x="470.788193" y="1259.066875" style="stroke: #000000; stroke-width: 2"/>
      </g>
     </g>
     <g id="text_49">
      <!-- 35 -->
      <g transform="translate(450.788193 1290.341875) scale(0.4 -0.4)">
       <use xlink:href="#TimesNewRomanPSMT-33"/>
       <use xlink:href="#TimesNewRomanPSMT-35" x="50"/>
      </g>
     </g>
    </g>
    <g id="xtick_24">
     <g id="line2d_87">
      <path d="M 532.356325 1259.066875 
L 532.356325 751.646875 
" clip-path="url(#p15f8c032de)" style="fill: none; stroke: #000000; stroke-width: 0.7; stroke-linecap: square"/>
     </g>
     <g id="line2d_88">
      <g>
       <use xlink:href="#med94805163" x="532.356325" y="1259.066875" style="stroke: #000000; stroke-width: 2"/>
      </g>
     </g>
     <g id="text_50">
      <!-- 40 -->
      <g transform="translate(512.356325 1290.341875) scale(0.4 -0.4)">
       <use xlink:href="#TimesNewRomanPSMT-34"/>
       <use xlink:href="#TimesNewRomanPSMT-30" x="50"/>
      </g>
     </g>
    </g>
    <g id="text_51">
     <!-- True data -->
     <g transform="translate(269.40071 1343.061875) scale(0.42 -0.42)">
      <use xlink:href="#TimesNewRomanPSMT-54"/>
      <use xlink:href="#TimesNewRomanPSMT-72" x="57.583984"/>
      <use xlink:href="#TimesNewRomanPSMT-75" x="90.884766"/>
      <use xlink:href="#TimesNewRomanPSMT-65" x="140.884766"/>
      <use xlink:href="#TimesNewRomanPSMT-20" x="185.269531"/>
      <use xlink:href="#TimesNewRomanPSMT-64" x="210.269531"/>
      <use xlink:href="#TimesNewRomanPSMT-61" x="260.269531"/>
      <use xlink:href="#TimesNewRomanPSMT-74" x="304.654297"/>
      <use xlink:href="#TimesNewRomanPSMT-61" x="332.4375"/>
     </g>
    </g>
   </g>
   <g id="matplotlib.axis_6">
    <g id="ytick_19">
     <g id="line2d_89">
      <path d="M 103.847813 1200.19123 
L 593.22142 1200.19123 
" clip-path="url(#p15f8c032de)" style="fill: none; stroke: #000000; stroke-width: 0.7; stroke-linecap: square"/>
     </g>
     <g id="line2d_90">
      <g>
       <use xlink:href="#m15e979c525" x="103.847813" y="1200.19123" style="stroke: #000000; stroke-width: 2"/>
      </g>
     </g>
     <g id="text_52">
      <!-- 10 -->
      <g transform="translate(60.347813 1214.07873) scale(0.4 -0.4)">
       <use xlink:href="#TimesNewRomanPSMT-31"/>
       <use xlink:href="#TimesNewRomanPSMT-30" x="50"/>
      </g>
     </g>
    </g>
    <g id="ytick_20">
     <g id="line2d_91">
      <path d="M 103.847813 1140.367739 
L 593.22142 1140.367739 
" clip-path="url(#p15f8c032de)" style="fill: none; stroke: #000000; stroke-width: 0.7; stroke-linecap: square"/>
     </g>
     <g id="line2d_92">
      <g>
       <use xlink:href="#m15e979c525" x="103.847813" y="1140.367739" style="stroke: #000000; stroke-width: 2"/>
      </g>
     </g>
     <g id="text_53">
      <!-- 15 -->
      <g transform="translate(60.347813 1154.255239) scale(0.4 -0.4)">
       <use xlink:href="#TimesNewRomanPSMT-31"/>
       <use xlink:href="#TimesNewRomanPSMT-35" x="50"/>
      </g>
     </g>
    </g>
    <g id="ytick_21">
     <g id="line2d_93">
      <path d="M 103.847813 1080.544247 
L 593.22142 1080.544247 
" clip-path="url(#p15f8c032de)" style="fill: none; stroke: #000000; stroke-width: 0.7; stroke-linecap: square"/>
     </g>
     <g id="line2d_94">
      <g>
       <use xlink:href="#m15e979c525" x="103.847813" y="1080.544247" style="stroke: #000000; stroke-width: 2"/>
      </g>
     </g>
     <g id="text_54">
      <!-- 20 -->
      <g transform="translate(60.347813 1094.431747) scale(0.4 -0.4)">
       <use xlink:href="#TimesNewRomanPSMT-32"/>
       <use xlink:href="#TimesNewRomanPSMT-30" x="50"/>
      </g>
     </g>
    </g>
    <g id="ytick_22">
     <g id="line2d_95">
      <path d="M 103.847813 1020.720756 
L 593.22142 1020.720756 
" clip-path="url(#p15f8c032de)" style="fill: none; stroke: #000000; stroke-width: 0.7; stroke-linecap: square"/>
     </g>
     <g id="line2d_96">
      <g>
       <use xlink:href="#m15e979c525" x="103.847813" y="1020.720756" style="stroke: #000000; stroke-width: 2"/>
      </g>
     </g>
     <g id="text_55">
      <!-- 25 -->
      <g transform="translate(60.347813 1034.608256) scale(0.4 -0.4)">
       <use xlink:href="#TimesNewRomanPSMT-32"/>
       <use xlink:href="#TimesNewRomanPSMT-35" x="50"/>
      </g>
     </g>
    </g>
    <g id="ytick_23">
     <g id="line2d_97">
      <path d="M 103.847813 960.897265 
L 593.22142 960.897265 
" clip-path="url(#p15f8c032de)" style="fill: none; stroke: #000000; stroke-width: 0.7; stroke-linecap: square"/>
     </g>
     <g id="line2d_98">
      <g>
       <use xlink:href="#m15e979c525" x="103.847813" y="960.897265" style="stroke: #000000; stroke-width: 2"/>
      </g>
     </g>
     <g id="text_56">
      <!-- 30 -->
      <g transform="translate(60.347813 974.784765) scale(0.4 -0.4)">
       <use xlink:href="#TimesNewRomanPSMT-33"/>
       <use xlink:href="#TimesNewRomanPSMT-30" x="50"/>
      </g>
     </g>
    </g>
    <g id="ytick_24">
     <g id="line2d_99">
      <path d="M 103.847813 901.073773 
L 593.22142 901.073773 
" clip-path="url(#p15f8c032de)" style="fill: none; stroke: #000000; stroke-width: 0.7; stroke-linecap: square"/>
     </g>
     <g id="line2d_100">
      <g>
       <use xlink:href="#m15e979c525" x="103.847813" y="901.073773" style="stroke: #000000; stroke-width: 2"/>
      </g>
     </g>
     <g id="text_57">
      <!-- 35 -->
      <g transform="translate(60.347813 914.961273) scale(0.4 -0.4)">
       <use xlink:href="#TimesNewRomanPSMT-33"/>
       <use xlink:href="#TimesNewRomanPSMT-35" x="50"/>
      </g>
     </g>
    </g>
    <g id="ytick_25">
     <g id="line2d_101">
      <path d="M 103.847813 841.250282 
L 593.22142 841.250282 
" clip-path="url(#p15f8c032de)" style="fill: none; stroke: #000000; stroke-width: 0.7; stroke-linecap: square"/>
     </g>
     <g id="line2d_102">
      <g>
       <use xlink:href="#m15e979c525" x="103.847813" y="841.250282" style="stroke: #000000; stroke-width: 2"/>
      </g>
     </g>
     <g id="text_58">
      <!-- 40 -->
      <g transform="translate(60.347813 855.137782) scale(0.4 -0.4)">
       <use xlink:href="#TimesNewRomanPSMT-34"/>
       <use xlink:href="#TimesNewRomanPSMT-30" x="50"/>
      </g>
     </g>
    </g>
    <g id="ytick_26">
     <g id="line2d_103">
      <path d="M 103.847813 781.42679 
L 593.22142 781.42679 
" clip-path="url(#p15f8c032de)" style="fill: none; stroke: #000000; stroke-width: 0.7; stroke-linecap: square"/>
     </g>
     <g id="line2d_104">
      <g>
       <use xlink:href="#m15e979c525" x="103.847813" y="781.42679" style="stroke: #000000; stroke-width: 2"/>
      </g>
     </g>
     <g id="text_59">
      <!-- 45 -->
      <g transform="translate(60.347813 795.31429) scale(0.4 -0.4)">
       <use xlink:href="#TimesNewRomanPSMT-34"/>
       <use xlink:href="#TimesNewRomanPSMT-35" x="50"/>
      </g>
     </g>
    </g>
    <g id="text_60">
     <!-- Predicted data -->
     <g transform="translate(36.36375 1124.889531) rotate(-90) scale(0.42 -0.42)">
      <use xlink:href="#TimesNewRomanPSMT-50"/>
      <use xlink:href="#TimesNewRomanPSMT-72" x="55.615234"/>
      <use xlink:href="#TimesNewRomanPSMT-65" x="88.916016"/>
      <use xlink:href="#TimesNewRomanPSMT-64" x="133.300781"/>
      <use xlink:href="#TimesNewRomanPSMT-69" x="183.300781"/>
      <use xlink:href="#TimesNewRomanPSMT-63" x="211.083984"/>
      <use xlink:href="#TimesNewRomanPSMT-74" x="255.46875"/>
      <use xlink:href="#TimesNewRomanPSMT-65" x="283.251953"/>
      <use xlink:href="#TimesNewRomanPSMT-64" x="327.636719"/>
      <use xlink:href="#TimesNewRomanPSMT-20" x="377.636719"/>
      <use xlink:href="#TimesNewRomanPSMT-64" x="402.636719"/>
      <use xlink:href="#TimesNewRomanPSMT-61" x="452.636719"/>
      <use xlink:href="#TimesNewRomanPSMT-74" x="497.021484"/>
      <use xlink:href="#TimesNewRomanPSMT-61" x="524.804688"/>
     </g>
    </g>
   </g>
   <g id="line2d_105">
    <path d="M 244.089261 1121.348793 
L 397.995347 971.803906 
L 174.482893 1188.982743 
L 336.985815 1031.084626 
L 387.322509 982.17431 
L 511.012856 861.988947 
L 126.092067 1236.00233 
L 429.368218 941.320041 
L 310.128405 1057.180984 
L 533.774975 839.871832 
L 163.970194 1199.197546 
L 474.921843 897.057258 
L 558.84187 815.515251 
L 550.916161 823.216372 
L 492.83264 879.653994 
L 144.136955 1218.468775 
L 570.977165 803.723831 
L 273.66239 1092.613671 
L 203.157676 1161.12051 
L 284.357932 1082.221205 
L 459.654323 911.892145 
L 471.333075 900.544332 
L 512.838677 860.214864 
L 442.098641 928.950357 
L 131.328859 1230.913931 
L 322.447182 1045.211281 
L 359.146479 1009.551924 
L 189.344079 1174.542675 
L 256.74508 1109.051599 
L 217.85516 1146.839505 
L 225.414482 1139.494389 
L 376.950938 992.251985 
L 291.428948 1075.350559 
L 346.949972 1021.402821 
L 418.255217 952.118135 
" clip-path="url(#p15f8c032de)" style="fill: none; stroke: #0000ff; stroke-width: 3; stroke-linecap: square"/>
   </g>
   <g id="line2d_106">
    <g clip-path="url(#p15f8c032de)">
     <use xlink:href="#m448a8d7a59" x="244.089261" y="1082.901489" style="fill: #ff0000; stroke: #ff0000"/>
     <use xlink:href="#m448a8d7a59" x="397.995347" y="1029.669476" style="fill: #ff0000; stroke: #ff0000"/>
     <use xlink:href="#m448a8d7a59" x="174.482893" y="1195.633746" style="fill: #ff0000; stroke: #ff0000"/>
     <use xlink:href="#m448a8d7a59" x="336.985815" y="1003.557137" style="fill: #ff0000; stroke: #ff0000"/>
     <use xlink:href="#m448a8d7a59" x="387.322509" y="996.380671" style="fill: #ff0000; stroke: #ff0000"/>
     <use xlink:href="#m448a8d7a59" x="511.012856" y="962.822804" style="fill: #ff0000; stroke: #ff0000"/>
     <use xlink:href="#m448a8d7a59" x="126.092067" y="1233.023922" style="fill: #ff0000; stroke: #ff0000"/>
     <use xlink:href="#m448a8d7a59" x="429.368218" y="896.063853" style="fill: #ff0000; stroke: #ff0000"/>
     <use xlink:href="#m448a8d7a59" x="310.128405" y="1004.428566" style="fill: #ff0000; stroke: #ff0000"/>
     <use xlink:href="#m448a8d7a59" x="533.774975" y="895.940302" style="fill: #ff0000; stroke: #ff0000"/>
     <use xlink:href="#m448a8d7a59" x="163.970194" y="1217.055503" style="fill: #ff0000; stroke: #ff0000"/>
     <use xlink:href="#m448a8d7a59" x="474.921843" y="912.692176" style="fill: #ff0000; stroke: #ff0000"/>
     <use xlink:href="#m448a8d7a59" x="558.84187" y="802.789593" style="fill: #ff0000; stroke: #ff0000"/>
     <use xlink:href="#m448a8d7a59" x="550.916161" y="808.380557" style="fill: #ff0000; stroke: #ff0000"/>
     <use xlink:href="#m448a8d7a59" x="492.83264" y="852.806352" style="fill: #ff0000; stroke: #ff0000"/>
     <use xlink:href="#m448a8d7a59" x="144.136955" y="1196.516724" style="fill: #ff0000; stroke: #ff0000"/>
     <use xlink:href="#m448a8d7a59" x="570.977165" y="774.71142" style="fill: #ff0000; stroke: #ff0000"/>
     <use xlink:href="#m448a8d7a59" x="273.66239" y="1074.272881" style="fill: #ff0000; stroke: #ff0000"/>
     <use xlink:href="#m448a8d7a59" x="203.157676" y="1147.640815" style="fill: #ff0000; stroke: #ff0000"/>
     <use xlink:href="#m448a8d7a59" x="284.357932" y="1105.469716" style="fill: #ff0000; stroke: #ff0000"/>
     <use xlink:href="#m448a8d7a59" x="459.654323" y="923.900072" style="fill: #ff0000; stroke: #ff0000"/>
     <use xlink:href="#m448a8d7a59" x="471.333075" y="932.312843" style="fill: #ff0000; stroke: #ff0000"/>
     <use xlink:href="#m448a8d7a59" x="512.838677" y="842.920888" style="fill: #ff0000; stroke: #ff0000"/>
     <use xlink:href="#m448a8d7a59" x="442.098641" y="973.52453" style="fill: #ff0000; stroke: #ff0000"/>
     <use xlink:href="#m448a8d7a59" x="131.328859" y="1217.67411" style="fill: #ff0000; stroke: #ff0000"/>
     <use xlink:href="#m448a8d7a59" x="322.447182" y="1027.621421" style="fill: #ff0000; stroke: #ff0000"/>
     <use xlink:href="#m448a8d7a59" x="359.146479" y="939.807501" style="fill: #ff0000; stroke: #ff0000"/>
     <use xlink:href="#m448a8d7a59" x="189.344079" y="1169.202603" style="fill: #ff0000; stroke: #ff0000"/>
     <use xlink:href="#m448a8d7a59" x="256.74508" y="1094.787047" style="fill: #ff0000; stroke: #ff0000"/>
     <use xlink:href="#m448a8d7a59" x="217.85516" y="1164.126892" style="fill: #ff0000; stroke: #ff0000"/>
     <use xlink:href="#m448a8d7a59" x="225.414482" y="1115.171691" style="fill: #ff0000; stroke: #ff0000"/>
     <use xlink:href="#m448a8d7a59" x="376.950938" y="995.485282" style="fill: #ff0000; stroke: #ff0000"/>
     <use xlink:href="#m448a8d7a59" x="291.428948" y="1081.730588" style="fill: #ff0000; stroke: #ff0000"/>
     <use xlink:href="#m448a8d7a59" x="346.949972" y="1060.217041" style="fill: #ff0000; stroke: #ff0000"/>
     <use xlink:href="#m448a8d7a59" x="418.255217" y="961.779023" style="fill: #ff0000; stroke: #ff0000"/>
    </g>
   </g>
   <g id="patch_15">
    <path d="M 103.847813 1259.066875 
L 103.847813 751.646875 
" style="fill: none; stroke: #000000; stroke-width: 0.8; stroke-linejoin: miter; stroke-linecap: square"/>
   </g>
   <g id="patch_16">
    <path d="M 593.22142 1259.066875 
L 593.22142 751.646875 
" style="fill: none; stroke: #000000; stroke-width: 0.8; stroke-linejoin: miter; stroke-linecap: square"/>
   </g>
   <g id="patch_17">
    <path d="M 103.847813 1259.066875 
L 593.22142 1259.066875 
" style="fill: none; stroke: #000000; stroke-width: 0.8; stroke-linejoin: miter; stroke-linecap: square"/>
   </g>
   <g id="patch_18">
    <path d="M 103.847813 751.646875 
L 593.22142 751.646875 
" style="fill: none; stroke: #000000; stroke-width: 0.8; stroke-linejoin: miter; stroke-linecap: square"/>
   </g>
   <g id="text_61">
    <g id="patch_19">
     <path d="M 134.720148 892.600439 
L 578.240148 892.600439 
Q 590.840148 892.600439 590.840148 880.000439 
L 590.840148 815.740439 
Q 590.840148 803.140439 578.240148 803.140439 
L 134.720148 803.140439 
Q 122.120148 803.140439 122.120148 815.740439 
L 122.120148 880.000439 
Q 122.120148 892.600439 134.720148 892.600439 
z
" style="fill: #ffffff; stroke: #000000; stroke-linejoin: miter"/>
    </g>
    <!-- $\frac {RMSE}{concentration\ range}$=0.0778 -->
    <g transform="translate(134.720148 856.480439) scale(0.42 -0.42)">
     <defs>
      <path id="TimesNewRomanPS-BoldMT-38" d="M 2181 2394 
Q 2628 2066 2801 1783 
Q 2975 1500 2975 1134 
Q 2975 622 2589 267 
Q 2203 -88 1541 -88 
Q 913 -88 569 221 
Q 225 531 225 978 
Q 225 1319 423 1575 
Q 622 1831 1084 2044 
Q 581 2428 439 2672 
Q 297 2916 297 3238 
Q 297 3663 658 3986 
Q 1019 4309 1647 4309 
Q 2253 4309 2579 4023 
Q 2906 3738 2906 3338 
Q 2906 3038 2729 2808 
Q 2553 2578 2181 2394 
z
M 1944 2553 
Q 2059 2709 2115 2903 
Q 2172 3097 2172 3328 
Q 2172 3734 1997 3950 
Q 1866 4116 1634 4116 
Q 1425 4116 1278 3964 
Q 1131 3813 1131 3588 
Q 1131 3359 1295 3114 
Q 1459 2869 1944 2553 
z
M 1319 1894 
Q 1222 1806 1181 1734 
Q 1119 1625 1069 1415 
Q 1019 1206 1019 978 
Q 1019 684 1094 486 
Q 1169 288 1308 200 
Q 1447 113 1594 113 
Q 1822 113 1978 280 
Q 2134 447 2134 738 
Q 2134 1344 1319 1894 
z
" transform="scale(0.015625)"/>
     </defs>
     <use xlink:href="#DejaVuSans-Oblique-52" transform="translate(257 45.046875) scale(0.7)"/>
     <use xlink:href="#DejaVuSans-Oblique-4d" transform="translate(305.637695 45.046875) scale(0.7)"/>
     <use xlink:href="#DejaVuSans-Oblique-53" transform="translate(366.033203 45.046875) scale(0.7)"/>
     <use xlink:href="#DejaVuSans-Oblique-45" transform="translate(410.466797 45.046875) scale(0.7)"/>
     <use xlink:href="#DejaVuSans-Oblique-63" transform="translate(0 -40.3875) scale(0.7)"/>
     <use xlink:href="#DejaVuSans-Oblique-6f" transform="translate(38.486328 -40.3875) scale(0.7)"/>
     <use xlink:href="#DejaVuSans-Oblique-6e" transform="translate(81.313477 -40.3875) scale(0.7)"/>
     <use xlink:href="#DejaVuSans-Oblique-63" transform="translate(125.678711 -40.3875) scale(0.7)"/>
     <use xlink:href="#DejaVuSans-Oblique-65" transform="translate(164.165039 -40.3875) scale(0.7)"/>
     <use xlink:href="#DejaVuSans-Oblique-6e" transform="translate(207.231445 -40.3875) scale(0.7)"/>
     <use xlink:href="#DejaVuSans-Oblique-74" transform="translate(251.59668 -40.3875) scale(0.7)"/>
     <use xlink:href="#DejaVuSans-Oblique-72" transform="translate(279.042969 -40.3875) scale(0.7)"/>
     <use xlink:href="#DejaVuSans-Oblique-61" transform="translate(307.822266 -40.3875) scale(0.7)"/>
     <use xlink:href="#DejaVuSans-Oblique-74" transform="translate(350.717773 -40.3875) scale(0.7)"/>
     <use xlink:href="#DejaVuSans-Oblique-69" transform="translate(378.164062 -40.3875) scale(0.7)"/>
     <use xlink:href="#DejaVuSans-Oblique-6f" transform="translate(397.612305 -40.3875) scale(0.7)"/>
     <use xlink:href="#DejaVuSans-Oblique-6e" transform="translate(440.439453 -40.3875) scale(0.7)"/>
     <use xlink:href="#DejaVuSans-Oblique-72" transform="translate(507.533952 -40.3875) scale(0.7)"/>
     <use xlink:href="#DejaVuSans-Oblique-61" transform="translate(536.313249 -40.3875) scale(0.7)"/>
     <use xlink:href="#DejaVuSans-Oblique-6e" transform="translate(579.208757 -40.3875) scale(0.7)"/>
     <use xlink:href="#DejaVuSans-Oblique-67" transform="translate(623.573991 -40.3875) scale(0.7)"/>
     <use xlink:href="#DejaVuSans-Oblique-65" transform="translate(668.007585 -40.3875) scale(0.7)"/>
     <use xlink:href="#TimesNewRomanPS-BoldMT-3d" transform="translate(723.573991 0.254688)"/>
     <use xlink:href="#TimesNewRomanPS-BoldMT-30" transform="translate(780.556413 0.254688)"/>
     <use xlink:href="#TimesNewRomanPS-BoldMT-2e" transform="translate(830.556413 0.254688)"/>
     <use xlink:href="#TimesNewRomanPS-BoldMT-30" transform="translate(855.556413 0.254688)"/>
     <use xlink:href="#TimesNewRomanPS-BoldMT-37" transform="translate(905.556413 0.254688)"/>
     <use xlink:href="#TimesNewRomanPS-BoldMT-37" transform="translate(955.556413 0.254688)"/>
     <use xlink:href="#TimesNewRomanPS-BoldMT-38" transform="translate(1005.556413 0.254688)"/>
     <path d="M 0 19.051563 
L 0 25.301563 
L 711.073991 25.301563 
L 711.073991 19.051563 
L 0 19.051563 
z
"/>
    </g>
   </g>
   <g id="text_62">
    <!-- tryptophane -->
    <g transform="translate(241.065476 736.646875) scale(0.45 -0.45)">
     <defs>
      <path id="TimesNewRomanPSMT-70" d="M -6 2578 
L 875 2934 
L 994 2934 
L 994 2266 
Q 1216 2644 1439 2795 
Q 1663 2947 1909 2947 
Q 2341 2947 2628 2609 
Q 2981 2197 2981 1534 
Q 2981 794 2556 309 
Q 2206 -88 1675 -88 
Q 1444 -88 1275 -22 
Q 1150 25 994 166 
L 994 -706 
Q 994 -1000 1030 -1079 
Q 1066 -1159 1155 -1206 
Q 1244 -1253 1478 -1253 
L 1478 -1369 
L -22 -1369 
L -22 -1253 
L 56 -1253 
Q 228 -1256 350 -1188 
Q 409 -1153 442 -1076 
Q 475 -1000 475 -688 
L 475 2019 
Q 475 2297 450 2372 
Q 425 2447 370 2484 
Q 316 2522 222 2522 
Q 147 2522 31 2478 
L -6 2578 
z
M 994 2081 
L 994 1013 
Q 994 666 1022 556 
Q 1066 375 1236 237 
Q 1406 100 1666 100 
Q 1978 100 2172 344 
Q 2425 663 2425 1241 
Q 2425 1897 2138 2250 
Q 1938 2494 1663 2494 
Q 1513 2494 1366 2419 
Q 1253 2363 994 2081 
z
" transform="scale(0.015625)"/>
     </defs>
     <use xlink:href="#TimesNewRomanPSMT-74"/>
     <use xlink:href="#TimesNewRomanPSMT-72" x="27.783203"/>
     <use xlink:href="#TimesNewRomanPSMT-79" x="61.083984"/>
     <use xlink:href="#TimesNewRomanPSMT-70" x="111.083984"/>
     <use xlink:href="#TimesNewRomanPSMT-74" x="161.083984"/>
     <use xlink:href="#TimesNewRomanPSMT-6f" x="188.867188"/>
     <use xlink:href="#TimesNewRomanPSMT-70" x="238.867188"/>
     <use xlink:href="#TimesNewRomanPSMT-68" x="288.867188"/>
     <use xlink:href="#TimesNewRomanPSMT-61" x="338.867188"/>
     <use xlink:href="#TimesNewRomanPSMT-6e" x="383.251953"/>
     <use xlink:href="#TimesNewRomanPSMT-65" x="433.251953"/>
    </g>
   </g>
  </g>
 </g>
 <defs>
  <clipPath id="pd7f3a5e839">
   <rect x="103.847813" y="53.446875" width="489.373608" height="507.42"/>
  </clipPath>
  <clipPath id="pcd5b01d10d">
   <rect x="773.84695" y="53.446875" width="489.373608" height="507.42"/>
  </clipPath>
  <clipPath id="p15f8c032de">
   <rect x="103.847813" y="751.646875" width="489.373608" height="507.42"/>
  </clipPath>
 </defs>
</svg>
