<?xml version="1.0" encoding="utf-8" standalone="no"?>
<!DOCTYPE svg PUBLIC "-//W3C//DTD SVG 1.1//EN"
  "http://www.w3.org/Graphics/SVG/1.1/DTD/svg11.dtd">
<svg xmlns:xlink="http://www.w3.org/1999/xlink" width="1720.90625pt" height="1045.435781pt" viewBox="0 0 1720.90625 1045.435781" xmlns="http://www.w3.org/2000/svg" version="1.1">
 <metadata>
  <rdf:RDF xmlns:dc="http://purl.org/dc/elements/1.1/" xmlns:cc="http://creativecommons.org/ns#" xmlns:rdf="http://www.w3.org/1999/02/22-rdf-syntax-ns#">
   <cc:Work>
    <dc:type rdf:resource="http://purl.org/dc/dcmitype/StillImage"/>
    <dc:date>2024-05-21T05:50:33.392632</dc:date>
    <dc:format>image/svg+xml</dc:format>
    <dc:creator>
     <cc:Agent>
      <dc:title>Matplotlib v3.6.3, https://matplotlib.org/</dc:title>
     </cc:Agent>
    </dc:creator>
   </cc:Work>
  </rdf:RDF>
 </metadata>
 <defs>
  <style type="text/css">*{stroke-linejoin: round; stroke-linecap: butt}</style>
 </defs>
 <g id="figure_1">
  <g id="patch_1">
   <path d="M 0 1045.435781 
L 1720.90625 1045.435781 
L 1720.90625 0 
L 0 0 
z
" style="fill: #ffffff"/>
  </g>
  <g id="axes_1">
   <g id="patch_2">
    <path d="M 83.25625 747.9 
L 835.50625 747.9 
L 835.50625 7.2 
L 83.25625 7.2 
z
" style="fill: #ffffff"/>
   </g>
   <g id="matplotlib.axis_1">
    <g id="xtick_1">
     <g id="line2d_1">
      <path d="M 143.094318 747.9 
L 143.094318 7.2 
" clip-path="url(#p7d3a3a6561)" style="fill: none; stroke: #000000; stroke-width: 0.7; stroke-linecap: square"/>
     </g>
     <g id="line2d_2">
      <defs>
       <path id="me385926d3a" d="M 0 0 
L 0 -10 
" style="stroke: #000000; stroke-width: 2"/>
      </defs>
      <g>
       <use xlink:href="#me385926d3a" x="143.094318" y="747.9" style="stroke: #000000; stroke-width: 2"/>
      </g>
     </g>
     <g id="text_1">
      <!-- 250 -->
      <g transform="translate(113.094318 790.675) scale(0.4 -0.4)">
       <defs>
        <path id="TimesNewRomanPSMT-32" d="M 2934 816 
L 2638 0 
L 138 0 
L 138 116 
Q 1241 1122 1691 1759 
Q 2141 2397 2141 2925 
Q 2141 3328 1894 3587 
Q 1647 3847 1303 3847 
Q 991 3847 742 3664 
Q 494 3481 375 3128 
L 259 3128 
Q 338 3706 661 4015 
Q 984 4325 1469 4325 
Q 1984 4325 2329 3994 
Q 2675 3663 2675 3213 
Q 2675 2891 2525 2569 
Q 2294 2063 1775 1497 
Q 997 647 803 472 
L 1909 472 
Q 2247 472 2383 497 
Q 2519 522 2628 598 
Q 2738 675 2819 816 
L 2934 816 
z
" transform="scale(0.015625)"/>
        <path id="TimesNewRomanPSMT-35" d="M 2778 4238 
L 2534 3706 
L 1259 3706 
L 981 3138 
Q 1809 3016 2294 2522 
Q 2709 2097 2709 1522 
Q 2709 1188 2573 903 
Q 2438 619 2231 419 
Q 2025 219 1772 97 
Q 1413 -75 1034 -75 
Q 653 -75 479 54 
Q 306 184 306 341 
Q 306 428 378 495 
Q 450 563 559 563 
Q 641 563 702 538 
Q 763 513 909 409 
Q 1144 247 1384 247 
Q 1750 247 2026 523 
Q 2303 800 2303 1197 
Q 2303 1581 2056 1914 
Q 1809 2247 1375 2428 
Q 1034 2569 447 2591 
L 1259 4238 
L 2778 4238 
z
" transform="scale(0.015625)"/>
        <path id="TimesNewRomanPSMT-30" d="M 231 2094 
Q 231 2819 450 3342 
Q 669 3866 1031 4122 
Q 1313 4325 1613 4325 
Q 2100 4325 2488 3828 
Q 2972 3213 2972 2159 
Q 2972 1422 2759 906 
Q 2547 391 2217 158 
Q 1888 -75 1581 -75 
Q 975 -75 572 641 
Q 231 1244 231 2094 
z
M 844 2016 
Q 844 1141 1059 588 
Q 1238 122 1591 122 
Q 1759 122 1940 273 
Q 2122 425 2216 781 
Q 2359 1319 2359 2297 
Q 2359 3022 2209 3506 
Q 2097 3866 1919 4016 
Q 1791 4119 1609 4119 
Q 1397 4119 1231 3928 
Q 1006 3669 925 3112 
Q 844 2556 844 2016 
z
" transform="scale(0.015625)"/>
       </defs>
       <use xlink:href="#TimesNewRomanPSMT-32"/>
       <use xlink:href="#TimesNewRomanPSMT-35" x="50"/>
       <use xlink:href="#TimesNewRomanPSMT-30" x="100"/>
      </g>
     </g>
    </g>
    <g id="xtick_2">
     <g id="line2d_3">
      <path d="M 285.565909 747.9 
L 285.565909 7.2 
" clip-path="url(#p7d3a3a6561)" style="fill: none; stroke: #000000; stroke-width: 0.7; stroke-linecap: square"/>
     </g>
     <g id="line2d_4">
      <g>
       <use xlink:href="#me385926d3a" x="285.565909" y="747.9" style="stroke: #000000; stroke-width: 2"/>
      </g>
     </g>
     <g id="text_2">
      <!-- 300 -->
      <g transform="translate(255.565909 790.675) scale(0.4 -0.4)">
       <defs>
        <path id="TimesNewRomanPSMT-33" d="M 325 3431 
Q 506 3859 782 4092 
Q 1059 4325 1472 4325 
Q 1981 4325 2253 3994 
Q 2459 3747 2459 3466 
Q 2459 3003 1878 2509 
Q 2269 2356 2469 2072 
Q 2669 1788 2669 1403 
Q 2669 853 2319 450 
Q 1863 -75 997 -75 
Q 569 -75 414 31 
Q 259 138 259 259 
Q 259 350 332 419 
Q 406 488 509 488 
Q 588 488 669 463 
Q 722 447 909 348 
Q 1097 250 1169 231 
Q 1284 197 1416 197 
Q 1734 197 1970 444 
Q 2206 691 2206 1028 
Q 2206 1275 2097 1509 
Q 2016 1684 1919 1775 
Q 1784 1900 1550 2001 
Q 1316 2103 1072 2103 
L 972 2103 
L 972 2197 
Q 1219 2228 1467 2375 
Q 1716 2522 1828 2728 
Q 1941 2934 1941 3181 
Q 1941 3503 1739 3701 
Q 1538 3900 1238 3900 
Q 753 3900 428 3381 
L 325 3431 
z
" transform="scale(0.015625)"/>
       </defs>
       <use xlink:href="#TimesNewRomanPSMT-33"/>
       <use xlink:href="#TimesNewRomanPSMT-30" x="50"/>
       <use xlink:href="#TimesNewRomanPSMT-30" x="100"/>
      </g>
     </g>
    </g>
    <g id="xtick_3">
     <g id="line2d_5">
      <path d="M 428.0375 747.9 
L 428.0375 7.2 
" clip-path="url(#p7d3a3a6561)" style="fill: none; stroke: #000000; stroke-width: 0.7; stroke-linecap: square"/>
     </g>
     <g id="line2d_6">
      <g>
       <use xlink:href="#me385926d3a" x="428.0375" y="747.9" style="stroke: #000000; stroke-width: 2"/>
      </g>
     </g>
     <g id="text_3">
      <!-- 350 -->
      <g transform="translate(398.0375 790.675) scale(0.4 -0.4)">
       <use xlink:href="#TimesNewRomanPSMT-33"/>
       <use xlink:href="#TimesNewRomanPSMT-35" x="50"/>
       <use xlink:href="#TimesNewRomanPSMT-30" x="100"/>
      </g>
     </g>
    </g>
    <g id="xtick_4">
     <g id="line2d_7">
      <path d="M 570.509091 747.9 
L 570.509091 7.2 
" clip-path="url(#p7d3a3a6561)" style="fill: none; stroke: #000000; stroke-width: 0.7; stroke-linecap: square"/>
     </g>
     <g id="line2d_8">
      <g>
       <use xlink:href="#me385926d3a" x="570.509091" y="747.9" style="stroke: #000000; stroke-width: 2"/>
      </g>
     </g>
     <g id="text_4">
      <!-- 400 -->
      <g transform="translate(540.509091 790.675) scale(0.4 -0.4)">
       <defs>
        <path id="TimesNewRomanPSMT-34" d="M 2978 1563 
L 2978 1119 
L 2409 1119 
L 2409 0 
L 1894 0 
L 1894 1119 
L 100 1119 
L 100 1519 
L 2066 4325 
L 2409 4325 
L 2409 1563 
L 2978 1563 
z
M 1894 1563 
L 1894 3666 
L 406 1563 
L 1894 1563 
z
" transform="scale(0.015625)"/>
       </defs>
       <use xlink:href="#TimesNewRomanPSMT-34"/>
       <use xlink:href="#TimesNewRomanPSMT-30" x="50"/>
       <use xlink:href="#TimesNewRomanPSMT-30" x="100"/>
      </g>
     </g>
    </g>
    <g id="xtick_5">
     <g id="line2d_9">
      <path d="M 712.980682 747.9 
L 712.980682 7.2 
" clip-path="url(#p7d3a3a6561)" style="fill: none; stroke: #000000; stroke-width: 0.7; stroke-linecap: square"/>
     </g>
     <g id="line2d_10">
      <g>
       <use xlink:href="#me385926d3a" x="712.980682" y="747.9" style="stroke: #000000; stroke-width: 2"/>
      </g>
     </g>
     <g id="text_5">
      <!-- 450 -->
      <g transform="translate(682.980682 790.675) scale(0.4 -0.4)">
       <use xlink:href="#TimesNewRomanPSMT-34"/>
       <use xlink:href="#TimesNewRomanPSMT-35" x="50"/>
       <use xlink:href="#TimesNewRomanPSMT-30" x="100"/>
      </g>
     </g>
    </g>
    <g id="text_6">
     <!-- длина волны  -->
     <g transform="translate(340.094688 843.395) scale(0.42 -0.42)">
      <defs>
       <path id="TimesNewRomanPSMT-434" d="M 591 2863 
L 3116 2863 
L 3116 2744 
Q 2903 2744 2833 2701 
Q 2763 2659 2722 2596 
Q 2681 2534 2681 2191 
L 2681 775 
Q 2681 328 2757 226 
Q 2834 125 3116 116 
L 3116 -794 
L 2997 -794 
Q 2984 -538 2870 -347 
Q 2756 -156 2553 -78 
Q 2350 0 1953 0 
L 1216 0 
Q 872 0 678 -61 
Q 484 -122 354 -315 
Q 225 -509 197 -794 
L 81 -794 
L 81 116 
Q 338 125 547 319 
Q 756 513 915 1078 
Q 1075 1644 1075 2191 
Q 1075 2728 591 2744 
L 591 2863 
z
M 1281 2659 
L 1281 2488 
Q 1281 953 725 203 
L 1788 203 
Q 2075 203 2119 251 
Q 2163 300 2163 609 
L 2163 2659 
L 1281 2659 
z
" transform="scale(0.015625)"/>
       <path id="TimesNewRomanPSMT-43b" d="M 494 2863 
L 3053 2863 
L 3053 2744 
Q 2841 2744 2770 2701 
Q 2700 2659 2659 2596 
Q 2619 2534 2619 2191 
L 2619 672 
Q 2619 341 2653 277 
Q 2688 213 2761 164 
Q 2834 116 3053 116 
L 3053 0 
L 1572 0 
L 1572 116 
Q 1813 116 1905 141 
Q 1997 166 2050 261 
Q 2103 356 2103 672 
L 2103 2659 
L 1150 2659 
L 1150 1453 
Q 1150 769 1089 492 
Q 1028 216 848 83 
Q 669 -50 438 -50 
Q 38 -50 38 281 
Q 38 394 102 466 
Q 166 538 269 538 
Q 378 538 472 447 
Q 594 328 656 328 
Q 797 328 861 564 
Q 925 800 925 1391 
L 925 2022 
Q 925 2509 854 2615 
Q 784 2722 494 2744 
L 494 2863 
z
" transform="scale(0.015625)"/>
       <path id="TimesNewRomanPSMT-438" d="M 1094 881 
L 2331 2313 
Q 2325 2553 2240 2647 
Q 2156 2741 1950 2744 
L 1950 2863 
L 3281 2863 
L 3281 2744 
Q 3072 2744 3000 2701 
Q 2928 2659 2887 2596 
Q 2847 2534 2847 2191 
L 2847 672 
Q 2847 341 2881 277 
Q 2916 213 2989 164 
Q 3063 116 3281 116 
L 3281 0 
L 1897 0 
L 1897 116 
Q 2156 116 2243 211 
Q 2331 306 2331 672 
L 2331 2019 
L 1094 584 
Q 1100 319 1169 219 
Q 1238 119 1466 116 
L 1466 0 
L 144 0 
L 144 116 
Q 422 116 500 217 
Q 578 319 578 672 
L 578 2191 
Q 578 2525 543 2586 
Q 509 2647 437 2695 
Q 366 2744 144 2744 
L 144 2863 
L 1528 2863 
L 1528 2744 
Q 1319 2744 1247 2701 
Q 1175 2659 1134 2596 
Q 1094 2534 1094 2191 
L 1094 881 
z
" transform="scale(0.015625)"/>
       <path id="TimesNewRomanPSMT-43d" d="M 1094 1584 
L 2331 1584 
L 2331 2191 
Q 2331 2463 2309 2545 
Q 2288 2628 2202 2686 
Q 2116 2744 1897 2744 
L 1897 2863 
L 3281 2863 
L 3281 2744 
Q 3088 2744 2998 2700 
Q 2909 2656 2878 2573 
Q 2847 2491 2847 2191 
L 2847 672 
Q 2847 400 2870 312 
Q 2894 225 2984 170 
Q 3075 116 3281 116 
L 3281 0 
L 1897 0 
L 1897 116 
Q 2156 116 2243 211 
Q 2331 306 2331 672 
L 2331 1381 
L 1094 1381 
L 1094 672 
Q 1094 400 1117 312 
Q 1141 225 1231 170 
Q 1322 116 1528 116 
L 1528 0 
L 144 0 
L 144 116 
Q 422 116 500 217 
Q 578 319 578 672 
L 578 2191 
Q 578 2463 554 2550 
Q 531 2638 440 2691 
Q 350 2744 144 2744 
L 144 2863 
L 1528 2863 
L 1528 2744 
Q 1334 2744 1245 2700 
Q 1156 2656 1125 2573 
Q 1094 2491 1094 2191 
L 1094 1584 
z
" transform="scale(0.015625)"/>
       <path id="TimesNewRomanPSMT-430" d="M 1822 413 
Q 1381 72 1269 19 
Q 1100 -59 909 -59 
Q 613 -59 420 144 
Q 228 347 228 678 
Q 228 888 322 1041 
Q 450 1253 767 1440 
Q 1084 1628 1822 1897 
L 1822 2009 
Q 1822 2438 1686 2597 
Q 1550 2756 1291 2756 
Q 1094 2756 978 2650 
Q 859 2544 859 2406 
L 866 2225 
Q 866 2081 792 2003 
Q 719 1925 600 1925 
Q 484 1925 411 2006 
Q 338 2088 338 2228 
Q 338 2497 613 2722 
Q 888 2947 1384 2947 
Q 1766 2947 2009 2819 
Q 2194 2722 2281 2516 
Q 2338 2381 2338 1966 
L 2338 994 
Q 2338 584 2353 492 
Q 2369 400 2405 369 
Q 2441 338 2488 338 
Q 2538 338 2575 359 
Q 2641 400 2828 588 
L 2828 413 
Q 2478 -56 2159 -56 
Q 2006 -56 1915 50 
Q 1825 156 1822 413 
z
M 1822 616 
L 1822 1706 
Q 1350 1519 1213 1441 
Q 966 1303 859 1153 
Q 753 1003 753 825 
Q 753 600 887 451 
Q 1022 303 1197 303 
Q 1434 303 1822 616 
z
" transform="scale(0.015625)"/>
       <path id="TimesNewRomanPSMT-20" transform="scale(0.015625)"/>
       <path id="TimesNewRomanPSMT-432" d="M 2016 1513 
Q 2800 1350 2800 778 
Q 2800 388 2473 194 
Q 2147 0 1563 0 
L 150 0 
L 150 116 
Q 428 116 501 220 
Q 575 325 575 672 
L 575 2191 
Q 575 2528 542 2587 
Q 509 2647 439 2695 
Q 369 2744 150 2744 
L 150 2863 
L 1469 2863 
Q 1850 2863 2086 2803 
Q 2322 2744 2473 2569 
Q 2625 2394 2625 2144 
Q 2625 1656 2016 1513 
z
M 1094 1584 
Q 1231 1581 1259 1581 
Q 1688 1581 1878 1745 
Q 2069 1909 2069 2144 
Q 2069 2416 1875 2537 
Q 1681 2659 1256 2659 
L 1094 2659 
L 1094 1584 
z
M 1094 253 
Q 1250 203 1466 203 
Q 1838 203 2019 365 
Q 2200 528 2200 784 
Q 2200 1072 1965 1225 
Q 1731 1378 1316 1378 
Q 1213 1378 1094 1372 
L 1094 253 
z
" transform="scale(0.015625)"/>
       <path id="TimesNewRomanPSMT-43e" d="M 1600 2947 
Q 2250 2947 2644 2453 
Q 2978 2031 2978 1484 
Q 2978 1100 2793 706 
Q 2609 313 2286 112 
Q 1963 -88 1566 -88 
Q 919 -88 538 428 
Q 216 863 216 1403 
Q 216 1797 411 2186 
Q 606 2575 925 2761 
Q 1244 2947 1600 2947 
z
M 1503 2744 
Q 1338 2744 1170 2645 
Q 1003 2547 900 2300 
Q 797 2053 797 1666 
Q 797 1041 1045 587 
Q 1294 134 1700 134 
Q 2003 134 2200 384 
Q 2397 634 2397 1244 
Q 2397 2006 2069 2444 
Q 1847 2744 1503 2744 
z
" transform="scale(0.015625)"/>
       <path id="TimesNewRomanPSMT-44b" d="M 2716 2744 
L 2716 2863 
L 4156 2863 
L 4156 2744 
Q 3966 2744 3878 2703 
Q 3791 2663 3758 2578 
Q 3725 2494 3725 2191 
L 3725 672 
Q 3725 378 3753 292 
Q 3781 206 3873 161 
Q 3966 116 4156 116 
L 4156 0 
L 2716 0 
L 2716 116 
Q 2959 125 3032 148 
Q 3106 172 3156 269 
Q 3206 366 3206 672 
L 3206 2191 
Q 3206 2494 3172 2581 
Q 3138 2669 3052 2705 
Q 2966 2741 2716 2744 
z
M 1091 1588 
L 1447 1594 
Q 2722 1594 2722 806 
Q 2722 441 2411 220 
Q 2100 0 1516 0 
L 141 0 
L 141 116 
Q 419 116 497 217 
Q 575 319 575 672 
L 575 2191 
Q 575 2525 540 2586 
Q 506 2647 434 2695 
Q 363 2744 141 2744 
L 141 2863 
L 1638 2863 
L 1638 2744 
Q 1328 2744 1256 2708 
Q 1184 2672 1137 2614 
Q 1091 2556 1091 2191 
L 1091 1588 
z
M 1091 247 
Q 1256 203 1422 203 
Q 1734 203 1929 368 
Q 2125 534 2125 788 
Q 2125 1388 1291 1388 
Q 1219 1388 1091 1384 
L 1091 247 
z
" transform="scale(0.015625)"/>
      </defs>
      <use xlink:href="#TimesNewRomanPSMT-434"/>
      <use xlink:href="#TimesNewRomanPSMT-43b" x="50.878906"/>
      <use xlink:href="#TimesNewRomanPSMT-438" x="100.78125"/>
      <use xlink:href="#TimesNewRomanPSMT-43d" x="154.296875"/>
      <use xlink:href="#TimesNewRomanPSMT-430" x="207.8125"/>
      <use xlink:href="#TimesNewRomanPSMT-20" x="252.197266"/>
      <use xlink:href="#TimesNewRomanPSMT-432" x="277.197266"/>
      <use xlink:href="#TimesNewRomanPSMT-43e" x="323.789062"/>
      <use xlink:href="#TimesNewRomanPSMT-43b" x="372.414062"/>
      <use xlink:href="#TimesNewRomanPSMT-43d" x="422.316406"/>
      <use xlink:href="#TimesNewRomanPSMT-44b" x="475.832031"/>
      <use xlink:href="#TimesNewRomanPSMT-20" x="543.019531"/>
     </g>
     <!-- регистрации, нм -->
     <g transform="translate(312.38125 887.375562) scale(0.42 -0.42)">
      <defs>
       <path id="TimesNewRomanPSMT-440" d="M -6 2578 
L 875 2934 
L 994 2934 
L 994 2266 
Q 1216 2644 1439 2795 
Q 1663 2947 1909 2947 
Q 2341 2947 2628 2609 
Q 2981 2197 2981 1534 
Q 2981 794 2556 309 
Q 2206 -88 1675 -88 
Q 1444 -88 1275 -22 
Q 1150 25 994 166 
L 994 -706 
Q 994 -1000 1030 -1079 
Q 1066 -1159 1155 -1206 
Q 1244 -1253 1478 -1253 
L 1478 -1369 
L -22 -1369 
L -22 -1253 
L 56 -1253 
Q 228 -1256 350 -1188 
Q 409 -1153 442 -1076 
Q 475 -1000 475 -688 
L 475 2019 
Q 475 2297 450 2372 
Q 425 2447 370 2484 
Q 316 2522 222 2522 
Q 147 2522 31 2478 
L -6 2578 
z
M 994 2081 
L 994 1013 
Q 994 666 1022 556 
Q 1066 375 1236 237 
Q 1406 100 1666 100 
Q 1978 100 2172 344 
Q 2425 663 2425 1241 
Q 2425 1897 2138 2250 
Q 1938 2494 1663 2494 
Q 1513 2494 1366 2419 
Q 1253 2363 994 2081 
z
" transform="scale(0.015625)"/>
       <path id="TimesNewRomanPSMT-435" d="M 681 1784 
Q 678 1147 991 784 
Q 1303 422 1725 422 
Q 2006 422 2214 576 
Q 2422 731 2563 1106 
L 2659 1044 
Q 2594 616 2278 264 
Q 1963 -88 1488 -88 
Q 972 -88 605 314 
Q 238 716 238 1394 
Q 238 2128 614 2539 
Q 991 2950 1559 2950 
Q 2041 2950 2350 2633 
Q 2659 2316 2659 1784 
L 681 1784 
z
M 681 1966 
L 2006 1966 
Q 1991 2241 1941 2353 
Q 1863 2528 1708 2628 
Q 1553 2728 1384 2728 
Q 1125 2728 920 2526 
Q 716 2325 681 1966 
z
" transform="scale(0.015625)"/>
       <path id="TimesNewRomanPSMT-433" d="M 2469 2863 
L 2584 2081 
L 2447 2081 
Q 2328 2469 2208 2564 
Q 2088 2659 1700 2659 
L 1094 2659 
L 1094 672 
Q 1094 341 1128 277 
Q 1163 213 1236 164 
Q 1309 116 1528 116 
L 1528 0 
L 97 0 
L 97 116 
Q 403 122 490 211 
Q 578 300 578 672 
L 578 2191 
Q 578 2494 543 2580 
Q 509 2666 423 2703 
Q 338 2741 97 2744 
L 97 2863 
L 2469 2863 
z
" transform="scale(0.015625)"/>
       <path id="TimesNewRomanPSMT-441" d="M 2631 1088 
Q 2516 522 2178 217 
Q 1841 -88 1431 -88 
Q 944 -88 581 321 
Q 219 731 219 1428 
Q 219 2103 620 2525 
Q 1022 2947 1584 2947 
Q 2006 2947 2278 2723 
Q 2550 2500 2550 2259 
Q 2550 2141 2473 2067 
Q 2397 1994 2259 1994 
Q 2075 1994 1981 2113 
Q 1928 2178 1911 2362 
Q 1894 2547 1784 2644 
Q 1675 2738 1481 2738 
Q 1169 2738 978 2506 
Q 725 2200 725 1697 
Q 725 1184 976 792 
Q 1228 400 1656 400 
Q 1963 400 2206 609 
Q 2378 753 2541 1131 
L 2631 1088 
z
" transform="scale(0.015625)"/>
       <path id="TimesNewRomanPSMT-442" d="M 156 2863 
L 2631 2863 
L 2756 2088 
L 2616 2088 
Q 2578 2322 2490 2450 
Q 2403 2578 2290 2618 
Q 2178 2659 1906 2659 
L 1656 2659 
L 1656 672 
Q 1656 353 1695 267 
Q 1734 181 1821 153 
Q 1909 125 2222 116 
L 2222 0 
L 666 0 
L 666 116 
Q 966 122 1052 212 
Q 1138 303 1138 672 
L 1138 2659 
L 881 2659 
Q 613 2659 516 2626 
Q 419 2594 330 2470 
Q 241 2347 178 2088 
L 38 2088 
L 156 2863 
z
" transform="scale(0.015625)"/>
       <path id="TimesNewRomanPSMT-446" d="M 3281 116 
L 3281 -794 
L 3166 -794 
Q 3156 -428 2926 -214 
Q 2697 0 2094 0 
L 144 0 
L 144 116 
Q 422 116 500 217 
Q 578 319 578 672 
L 578 2191 
Q 578 2525 543 2586 
Q 509 2647 437 2695 
Q 366 2744 144 2744 
L 144 2863 
L 1528 2863 
L 1528 2744 
Q 1319 2744 1247 2701 
Q 1175 2659 1134 2596 
Q 1094 2534 1094 2191 
L 1094 575 
Q 1094 303 1142 253 
Q 1191 203 1453 203 
L 1959 203 
Q 2250 203 2290 256 
Q 2331 309 2331 600 
L 2331 2191 
Q 2331 2488 2300 2573 
Q 2269 2659 2178 2701 
Q 2088 2744 1897 2744 
L 1897 2863 
L 3281 2863 
L 3281 2744 
Q 3072 2744 3000 2701 
Q 2928 2659 2887 2596 
Q 2847 2534 2847 2191 
L 2847 719 
Q 2847 316 2919 222 
Q 2991 128 3281 116 
z
" transform="scale(0.015625)"/>
       <path id="TimesNewRomanPSMT-2c" d="M 344 -1066 
L 344 -928 
Q 666 -822 842 -598 
Q 1019 -375 1019 -125 
Q 1019 -66 991 -25 
Q 969 3 947 3 
Q 913 3 797 -59 
Q 741 -88 678 -88 
Q 525 -88 434 3 
Q 344 94 344 253 
Q 344 406 461 515 
Q 578 625 747 625 
Q 953 625 1114 445 
Q 1275 266 1275 -31 
Q 1275 -353 1051 -629 
Q 828 -906 344 -1066 
z
" transform="scale(0.015625)"/>
       <path id="TimesNewRomanPSMT-43c" d="M 2050 747 
L 2944 2863 
L 3909 2863 
L 3909 2744 
Q 3697 2744 3626 2701 
Q 3556 2659 3515 2596 
Q 3475 2534 3475 2191 
L 3475 672 
Q 3475 375 3504 289 
Q 3534 203 3626 159 
Q 3719 116 3909 116 
L 3909 0 
L 2525 0 
L 2525 116 
Q 2781 116 2868 211 
Q 2956 306 2956 672 
L 2956 2394 
L 1944 0 
L 1834 0 
L 803 2394 
L 803 672 
Q 803 375 834 289 
Q 866 203 956 159 
Q 1047 116 1238 116 
L 1238 0 
L 144 0 
L 144 116 
Q 422 116 500 217 
Q 578 319 578 672 
L 578 2191 
Q 578 2525 543 2586 
Q 509 2647 437 2695 
Q 366 2744 144 2744 
L 144 2863 
L 1150 2863 
L 2050 747 
z
" transform="scale(0.015625)"/>
      </defs>
      <use xlink:href="#TimesNewRomanPSMT-440"/>
      <use xlink:href="#TimesNewRomanPSMT-435" x="50"/>
      <use xlink:href="#TimesNewRomanPSMT-433" x="94.384766"/>
      <use xlink:href="#TimesNewRomanPSMT-438" x="135.400391"/>
      <use xlink:href="#TimesNewRomanPSMT-441" x="188.916016"/>
      <use xlink:href="#TimesNewRomanPSMT-442" x="233.300781"/>
      <use xlink:href="#TimesNewRomanPSMT-440" x="278.251953"/>
      <use xlink:href="#TimesNewRomanPSMT-430" x="328.251953"/>
      <use xlink:href="#TimesNewRomanPSMT-446" x="372.636719"/>
      <use xlink:href="#TimesNewRomanPSMT-438" x="426.152344"/>
      <use xlink:href="#TimesNewRomanPSMT-438" x="479.667969"/>
      <use xlink:href="#TimesNewRomanPSMT-2c" x="533.183594"/>
      <use xlink:href="#TimesNewRomanPSMT-20" x="558.183594"/>
      <use xlink:href="#TimesNewRomanPSMT-43d" x="583.183594"/>
      <use xlink:href="#TimesNewRomanPSMT-43c" x="636.699219"/>
     </g>
    </g>
   </g>
   <g id="matplotlib.axis_2">
    <g id="ytick_1">
     <g id="line2d_11">
      <path d="M 83.25625 687.872751 
L 835.50625 687.872751 
" clip-path="url(#p7d3a3a6561)" style="fill: none; stroke: #000000; stroke-width: 0.7; stroke-linecap: square"/>
     </g>
     <g id="line2d_12">
      <defs>
       <path id="m2e1e288097" d="M 0 0 
L 10 0 
" style="stroke: #000000; stroke-width: 2"/>
      </defs>
      <g>
       <use xlink:href="#m2e1e288097" x="83.25625" y="687.872751" style="stroke: #000000; stroke-width: 2"/>
      </g>
     </g>
     <g id="text_7">
      <!-- −0.3 -->
      <g transform="translate(7.2 701.760251) scale(0.4 -0.4)">
       <defs>
        <path id="TimesNewRomanPSMT-2212" d="M 3484 2000 
L 116 2000 
L 116 2256 
L 3484 2256 
L 3484 2000 
z
" transform="scale(0.015625)"/>
        <path id="TimesNewRomanPSMT-2e" d="M 800 606 
Q 947 606 1047 504 
Q 1147 403 1147 259 
Q 1147 116 1045 14 
Q 944 -88 800 -88 
Q 656 -88 554 14 
Q 453 116 453 259 
Q 453 406 554 506 
Q 656 606 800 606 
z
" transform="scale(0.015625)"/>
       </defs>
       <use xlink:href="#TimesNewRomanPSMT-2212"/>
       <use xlink:href="#TimesNewRomanPSMT-30" x="56.396484"/>
       <use xlink:href="#TimesNewRomanPSMT-2e" x="106.396484"/>
       <use xlink:href="#TimesNewRomanPSMT-33" x="131.396484"/>
      </g>
     </g>
    </g>
    <g id="ytick_2">
     <g id="line2d_13">
      <path d="M 83.25625 582.770211 
L 835.50625 582.770211 
" clip-path="url(#p7d3a3a6561)" style="fill: none; stroke: #000000; stroke-width: 0.7; stroke-linecap: square"/>
     </g>
     <g id="line2d_14">
      <g>
       <use xlink:href="#m2e1e288097" x="83.25625" y="582.770211" style="stroke: #000000; stroke-width: 2"/>
      </g>
     </g>
     <g id="text_8">
      <!-- −0.2 -->
      <g transform="translate(7.2 596.657711) scale(0.4 -0.4)">
       <use xlink:href="#TimesNewRomanPSMT-2212"/>
       <use xlink:href="#TimesNewRomanPSMT-30" x="56.396484"/>
       <use xlink:href="#TimesNewRomanPSMT-2e" x="106.396484"/>
       <use xlink:href="#TimesNewRomanPSMT-32" x="131.396484"/>
      </g>
     </g>
    </g>
    <g id="ytick_3">
     <g id="line2d_15">
      <path d="M 83.25625 477.667672 
L 835.50625 477.667672 
" clip-path="url(#p7d3a3a6561)" style="fill: none; stroke: #000000; stroke-width: 0.7; stroke-linecap: square"/>
     </g>
     <g id="line2d_16">
      <g>
       <use xlink:href="#m2e1e288097" x="83.25625" y="477.667672" style="stroke: #000000; stroke-width: 2"/>
      </g>
     </g>
     <g id="text_9">
      <!-- −0.1 -->
      <g transform="translate(7.2 491.555172) scale(0.4 -0.4)">
       <defs>
        <path id="TimesNewRomanPSMT-31" d="M 750 3822 
L 1781 4325 
L 1884 4325 
L 1884 747 
Q 1884 391 1914 303 
Q 1944 216 2037 169 
Q 2131 122 2419 116 
L 2419 0 
L 825 0 
L 825 116 
Q 1125 122 1212 167 
Q 1300 213 1334 289 
Q 1369 366 1369 747 
L 1369 3034 
Q 1369 3497 1338 3628 
Q 1316 3728 1258 3775 
Q 1200 3822 1119 3822 
Q 1003 3822 797 3725 
L 750 3822 
z
" transform="scale(0.015625)"/>
       </defs>
       <use xlink:href="#TimesNewRomanPSMT-2212"/>
       <use xlink:href="#TimesNewRomanPSMT-30" x="56.396484"/>
       <use xlink:href="#TimesNewRomanPSMT-2e" x="106.396484"/>
       <use xlink:href="#TimesNewRomanPSMT-31" x="131.396484"/>
      </g>
     </g>
    </g>
    <g id="ytick_4">
     <g id="line2d_17">
      <path d="M 83.25625 372.565132 
L 835.50625 372.565132 
" clip-path="url(#p7d3a3a6561)" style="fill: none; stroke: #000000; stroke-width: 0.7; stroke-linecap: square"/>
     </g>
     <g id="line2d_18">
      <g>
       <use xlink:href="#m2e1e288097" x="83.25625" y="372.565132" style="stroke: #000000; stroke-width: 2"/>
      </g>
     </g>
     <g id="text_10">
      <!-- 0.0 -->
      <g transform="translate(29.75625 386.452632) scale(0.4 -0.4)">
       <use xlink:href="#TimesNewRomanPSMT-30"/>
       <use xlink:href="#TimesNewRomanPSMT-2e" x="50"/>
       <use xlink:href="#TimesNewRomanPSMT-30" x="75"/>
      </g>
     </g>
    </g>
    <g id="ytick_5">
     <g id="line2d_19">
      <path d="M 83.25625 267.462593 
L 835.50625 267.462593 
" clip-path="url(#p7d3a3a6561)" style="fill: none; stroke: #000000; stroke-width: 0.7; stroke-linecap: square"/>
     </g>
     <g id="line2d_20">
      <g>
       <use xlink:href="#m2e1e288097" x="83.25625" y="267.462593" style="stroke: #000000; stroke-width: 2"/>
      </g>
     </g>
     <g id="text_11">
      <!-- 0.1 -->
      <g transform="translate(29.75625 281.350093) scale(0.4 -0.4)">
       <use xlink:href="#TimesNewRomanPSMT-30"/>
       <use xlink:href="#TimesNewRomanPSMT-2e" x="50"/>
       <use xlink:href="#TimesNewRomanPSMT-31" x="75"/>
      </g>
     </g>
    </g>
    <g id="ytick_6">
     <g id="line2d_21">
      <path d="M 83.25625 162.360053 
L 835.50625 162.360053 
" clip-path="url(#p7d3a3a6561)" style="fill: none; stroke: #000000; stroke-width: 0.7; stroke-linecap: square"/>
     </g>
     <g id="line2d_22">
      <g>
       <use xlink:href="#m2e1e288097" x="83.25625" y="162.360053" style="stroke: #000000; stroke-width: 2"/>
      </g>
     </g>
     <g id="text_12">
      <!-- 0.2 -->
      <g transform="translate(29.75625 176.247553) scale(0.4 -0.4)">
       <use xlink:href="#TimesNewRomanPSMT-30"/>
       <use xlink:href="#TimesNewRomanPSMT-2e" x="50"/>
       <use xlink:href="#TimesNewRomanPSMT-32" x="75"/>
      </g>
     </g>
    </g>
    <g id="ytick_7">
     <g id="line2d_23">
      <path d="M 83.25625 57.257514 
L 835.50625 57.257514 
" clip-path="url(#p7d3a3a6561)" style="fill: none; stroke: #000000; stroke-width: 0.7; stroke-linecap: square"/>
     </g>
     <g id="line2d_24">
      <g>
       <use xlink:href="#m2e1e288097" x="83.25625" y="57.257514" style="stroke: #000000; stroke-width: 2"/>
      </g>
     </g>
     <g id="text_13">
      <!-- 0.3 -->
      <g transform="translate(29.75625 71.145014) scale(0.4 -0.4)">
       <use xlink:href="#TimesNewRomanPSMT-30"/>
       <use xlink:href="#TimesNewRomanPSMT-2e" x="50"/>
       <use xlink:href="#TimesNewRomanPSMT-33" x="75"/>
      </g>
     </g>
    </g>
   </g>
   <g id="line2d_25">
    <path d="M 117.449432 372.137381 
L 123.148295 372.12913 
L 128.847159 372.062148 
L 134.546023 372.069617 
L 140.244886 372.043912 
L 145.94375 371.944885 
L 151.642614 371.928583 
L 157.341477 371.815921 
L 163.040341 371.57612 
L 168.739205 371.265293 
L 174.438068 370.882988 
L 180.136932 370.347562 
L 185.835795 369.6398 
L 191.534659 368.663224 
L 197.233523 367.368362 
L 202.932386 365.655977 
L 208.63125 363.466951 
L 214.330114 360.724415 
L 220.028977 357.144888 
L 225.727841 352.852443 
L 231.426705 347.62717 
L 237.125568 341.560333 
L 242.824432 334.60858 
L 248.523295 326.675719 
L 254.222159 317.843734 
L 259.921023 308.148128 
L 265.619886 297.512892 
L 271.31875 286.216666 
L 277.017614 274.147157 
L 282.716477 261.727666 
L 288.415341 249.061889 
L 294.114205 236.423269 
L 299.813068 223.520717 
L 305.511932 212.301228 
L 311.210795 202.033208 
L 316.909659 192.691331 
L 322.608523 183.72219 
L 328.307386 175.172183 
L 334.00625 168.574112 
L 339.705114 162.769868 
L 345.403977 158.554376 
L 351.102841 155.6121 
L 356.801705 153.872591 
L 362.500568 154.067828 
L 368.199432 154.691275 
L 373.898295 158.162741 
L 379.597159 163.802544 
L 385.296023 171.444353 
L 390.994886 178.854467 
L 396.69375 184.738724 
L 402.392614 193.712311 
L 408.091477 200.867872 
L 413.790341 206.888538 
L 419.489205 214.944308 
L 425.188068 223.085288 
L 430.886932 230.619282 
L 436.585795 236.725112 
L 442.284659 243.918623 
L 447.983523 249.882206 
L 453.682386 256.565063 
L 459.38125 263.640756 
L 465.080114 269.914431 
L 470.778977 276.063765 
L 476.477841 282.789365 
L 482.176705 287.914809 
L 487.875568 294.080873 
L 493.574432 299.248855 
L 499.273295 303.883023 
L 504.972159 307.582924 
L 510.671023 312.389851 
L 516.369886 316.198547 
L 522.06875 320.83455 
L 527.767614 323.890376 
L 533.466477 326.990667 
L 539.165341 330.111595 
L 544.864205 333.526859 
L 550.563068 335.721883 
L 556.261932 338.052458 
L 561.960795 340.449641 
L 567.659659 342.616377 
L 573.358523 344.849292 
L 579.057386 346.80407 
L 584.75625 348.741579 
L 590.455114 350.479932 
L 596.153977 352.126592 
L 601.852841 353.78512 
L 607.551705 354.928135 
L 613.250568 356.141408 
L 618.949432 357.357224 
L 624.648295 358.367068 
L 630.347159 359.515669 
L 636.046023 360.781627 
L 641.744886 361.482226 
L 647.44375 362.436907 
L 653.142614 363.304581 
L 658.841477 363.993797 
L 664.540341 364.776071 
L 670.239205 365.406194 
L 675.938068 366.09503 
L 681.636932 366.475862 
L 687.335795 366.840528 
L 693.034659 367.291603 
L 698.733523 367.738927 
L 704.432386 368.072141 
L 710.13125 368.390111 
L 715.830114 368.68258 
L 721.528977 369.061173 
L 727.227841 369.376159 
L 732.926705 369.532717 
L 738.625568 369.816105 
L 744.324432 369.985683 
L 750.023295 370.122479 
L 755.722159 370.280477 
L 761.421023 370.394767 
L 767.119886 370.569238 
L 772.81875 370.573836 
L 778.517614 370.771463 
L 784.216477 370.770028 
L 789.915341 370.924631 
L 795.614205 371.062777 
L 801.313068 371.095537 
" clip-path="url(#p7d3a3a6561)" style="fill: none; stroke: #ff0000; stroke-width: 4; stroke-linecap: square"/>
   </g>
   <g id="line2d_26">
    <path d="M 117.449432 372.265135 
L 123.148295 372.244179 
L 128.847159 372.219997 
L 134.546023 372.343128 
L 140.244886 372.334653 
L 145.94375 372.573588 
L 151.642614 372.928782 
L 157.341477 373.312963 
L 163.040341 373.900493 
L 168.739205 374.612769 
L 174.438068 375.320273 
L 180.136932 376.151683 
L 185.835795 377.067791 
L 191.534659 377.870878 
L 197.233523 378.816067 
L 202.932386 379.714156 
L 208.63125 380.639002 
L 214.330114 381.601253 
L 220.028977 383.417096 
L 225.727841 385.495358 
L 231.426705 389.123725 
L 237.125568 393.216406 
L 242.824432 397.861646 
L 248.523295 404.271386 
L 254.222159 409.877206 
L 259.921023 413.919325 
L 265.619886 415.075513 
L 271.31875 413.252774 
L 277.017614 406.317991 
L 282.716477 395.156049 
L 288.415341 378.969756 
L 294.114205 357.43989 
L 299.813068 332.394857 
L 305.511932 295.719147 
L 311.210795 260.532711 
L 316.909659 226.058474 
L 322.608523 204.934236 
L 328.307386 186.008977 
L 334.00625 172.769341 
L 339.705114 161.106034 
L 345.403977 165.816563 
L 351.102841 168.152679 
L 356.801705 173.598202 
L 362.500568 178.253347 
L 368.199432 180.529709 
L 373.898295 180.607531 
L 379.597159 174.92541 
L 385.296023 168.942216 
L 390.994886 159.309461 
L 396.69375 156.214386 
L 402.392614 150.633151 
L 408.091477 146.571726 
L 413.790341 150.00372 
L 419.489205 151.619811 
L 425.188068 158.220528 
L 430.886932 164.912453 
L 436.585795 173.599905 
L 442.284659 187.992483 
L 447.983523 204.260376 
L 453.682386 221.15574 
L 459.38125 234.175367 
L 465.080114 252.896129 
L 470.778977 265.475847 
L 476.477841 279.216555 
L 482.176705 288.979559 
L 487.875568 298.775435 
L 493.574432 308.180501 
L 499.273295 314.777639 
L 504.972159 321.955215 
L 510.671023 329.253766 
L 516.369886 335.097139 
L 522.06875 341.791298 
L 527.767614 345.923355 
L 533.466477 349.395992 
L 539.165341 353.054386 
L 544.864205 355.954138 
L 550.563068 357.66445 
L 556.261932 359.453336 
L 561.960795 361.649661 
L 567.659659 363.157175 
L 573.358523 364.360812 
L 579.057386 365.336864 
L 584.75625 366.930563 
L 590.455114 367.59709 
L 596.153977 368.508462 
L 601.852841 368.739204 
L 607.551705 369.709447 
L 613.250568 370.232602 
L 618.949432 370.690258 
L 624.648295 370.818228 
L 630.347159 370.960732 
L 636.046023 371.342403 
L 641.744886 371.560623 
L 647.44375 371.724872 
L 653.142614 371.957037 
L 658.841477 371.821248 
L 664.540341 371.709624 
L 670.239205 372.168666 
L 675.938068 372.079473 
L 681.636932 372.305896 
L 687.335795 372.411323 
L 693.034659 372.215647 
L 698.733523 372.294133 
L 704.432386 372.307012 
L 710.13125 372.308765 
L 715.830114 372.277677 
L 721.528977 372.337721 
L 727.227841 372.382497 
L 732.926705 372.293484 
L 738.625568 372.259106 
L 744.324432 372.363721 
L 750.023295 372.312953 
L 755.722159 372.424307 
L 761.421023 372.495879 
L 767.119886 372.346179 
L 772.81875 372.424788 
L 778.517614 372.156859 
L 784.216477 372.280167 
L 789.915341 372.209398 
L 795.614205 372.313582 
L 801.313068 372.387869 
" clip-path="url(#p7d3a3a6561)" style="fill: none; stroke: #008000; stroke-width: 4; stroke-linecap: square"/>
   </g>
   <g id="line2d_27">
    <path d="M 117.449432 372.684655 
L 123.148295 372.904631 
L 128.847159 372.553294 
L 134.546023 372.384812 
L 140.244886 372.655968 
L 145.94375 372.101836 
L 151.642614 372.430065 
L 157.341477 372.052377 
L 163.040341 371.48717 
L 168.739205 371.768962 
L 174.438068 371.458295 
L 180.136932 370.991024 
L 185.835795 370.079322 
L 191.534659 368.613394 
L 197.233523 366.549651 
L 202.932386 363.37036 
L 208.63125 359.093801 
L 214.330114 353.796881 
L 220.028977 347.85392 
L 225.727841 341.268113 
L 231.426705 334.864676 
L 237.125568 328.60216 
L 242.824432 323.242791 
L 248.523295 319.899267 
L 254.222159 317.758533 
L 259.921023 322.623957 
L 265.619886 327.655242 
L 271.31875 338.972087 
L 277.017614 351.851277 
L 282.716477 364.998376 
L 288.415341 391.441869 
L 294.114205 414.000504 
L 299.813068 451.377883 
L 305.511932 479.504578 
L 311.210795 516.149205 
L 316.909659 544.768661 
L 322.608523 563.313221 
L 328.307386 590.649536 
L 334.00625 590.839615 
L 339.705114 599.118672 
L 345.403977 582.260475 
L 351.102841 559.401057 
L 356.801705 551.461904 
L 362.500568 524.956269 
L 368.199432 529.363693 
L 373.898295 522.739454 
L 379.597159 538.495729 
L 385.296023 531.102675 
L 390.994886 527.404189 
L 396.69375 535.037723 
L 402.392614 556.898173 
L 408.091477 560.075595 
L 413.790341 564.912224 
L 419.489205 563.235823 
L 425.188068 564.045331 
L 430.886932 549.367611 
L 436.585795 556.745504 
L 442.284659 550.941152 
L 447.983523 544.532629 
L 453.682386 530.359256 
L 459.38125 534.917685 
L 465.080114 522.880861 
L 470.778977 517.182921 
L 476.477841 513.072081 
L 482.176705 507.986223 
L 487.875568 495.827901 
L 493.574432 490.886858 
L 499.273295 485.345661 
L 504.972159 480.982005 
L 510.671023 469.413863 
L 516.369886 458.912718 
L 522.06875 453.85614 
L 527.767614 447.546393 
L 533.466477 443.781172 
L 539.165341 431.939582 
L 544.864205 424.754946 
L 550.563068 416.049661 
L 556.261932 413.908844 
L 561.960795 414.129451 
L 567.659659 408.088218 
L 573.358523 406.189681 
L 579.057386 404.001095 
L 584.75625 401.481558 
L 590.455114 401.68722 
L 596.153977 396.025394 
L 601.852841 397.299325 
L 607.551705 395.046377 
L 613.250568 391.70717 
L 618.949432 393.531053 
L 624.648295 391.152968 
L 630.347159 390.084315 
L 636.046023 385.71704 
L 641.744886 386.780803 
L 647.44375 385.682638 
L 653.142614 383.986484 
L 658.841477 384.787001 
L 664.540341 383.118467 
L 670.239205 379.465621 
L 675.938068 380.253245 
L 681.636932 379.15363 
L 687.335795 377.610997 
L 693.034659 379.174995 
L 698.733523 380.210002 
L 704.432386 375.920432 
L 710.13125 376.76329 
L 715.830114 375.47398 
L 721.528977 376.844066 
L 727.227841 376.250365 
L 732.926705 375.884776 
L 738.625568 376.05595 
L 744.324432 375.596854 
L 750.023295 375.776953 
L 755.722159 374.679635 
L 761.421023 375.285174 
L 767.119886 374.198025 
L 772.81875 373.073314 
L 778.517614 373.455743 
L 784.216477 374.667869 
L 789.915341 373.496645 
L 795.614205 373.514743 
L 801.313068 373.668336 
" clip-path="url(#p7d3a3a6561)" style="fill: none; stroke: #0000ff; stroke-width: 4; stroke-linecap: square"/>
   </g>
   <g id="line2d_28">
    <path d="M 117.449432 371.924687 
L 123.148295 371.724979 
L 128.847159 372.289429 
L 134.546023 372.420065 
L 140.244886 372.101643 
L 145.94375 372.989861 
L 151.642614 373.02025 
L 157.341477 372.992829 
L 163.040341 374.66072 
L 168.739205 375.27944 
L 174.438068 376.944751 
L 180.136932 377.260861 
L 185.835795 379.184046 
L 191.534659 380.296343 
L 197.233523 380.350126 
L 202.932386 380.666506 
L 208.63125 381.065058 
L 214.330114 381.249712 
L 220.028977 381.618512 
L 225.727841 382.157365 
L 231.426705 383.028326 
L 237.125568 384.46397 
L 242.824432 386.37995 
L 248.523295 388.249224 
L 254.222159 389.722794 
L 259.921023 389.599679 
L 265.619886 389.387817 
L 271.31875 389.32958 
L 277.017614 391.193831 
L 282.716477 394.568434 
L 288.415341 397.98541 
L 294.114205 402.127173 
L 299.813068 410.582047 
L 305.511932 407.338377 
L 311.210795 415.12818 
L 316.909659 423.119533 
L 322.608523 453.062337 
L 328.307386 475.68223 
L 334.00625 522.630217 
L 339.705114 556.288469 
L 345.403977 577.698941 
L 351.102841 605.714382 
L 356.801705 650.591992 
L 362.500568 681.770194 
L 368.199432 691.146917 
L 373.898295 714.231818 
L 379.597159 703.777664 
L 385.296023 686.783163 
L 390.994886 670.645324 
L 396.69375 648.489389 
L 402.392614 605.655106 
L 408.091477 577.957229 
L 413.790341 540.597167 
L 419.489205 503.37352 
L 425.188068 457.345649 
L 430.886932 436.833858 
L 436.585795 395.171928 
L 442.284659 372.258634 
L 447.983523 348.958357 
L 453.682386 351.082576 
L 459.38125 340.505229 
L 465.080114 358.563441 
L 470.778977 358.071653 
L 476.477841 350.62542 
L 482.176705 351.058597 
L 487.875568 355.498957 
L 493.574432 357.75957 
L 499.273295 360.945295 
L 504.972159 373.592178 
L 510.671023 370.018085 
L 516.369886 373.599386 
L 522.06875 372.401833 
L 527.767614 379.047656 
L 533.466477 379.393146 
L 539.165341 382.844088 
L 544.864205 380.505978 
L 550.563068 376.170278 
L 556.261932 379.844604 
L 561.960795 376.000773 
L 567.659659 379.488606 
L 573.358523 381.65709 
L 579.057386 375.847488 
L 584.75625 379.656828 
L 590.455114 373.993257 
L 596.153977 378.756383 
L 601.852841 375.733985 
L 607.551705 373.957455 
L 613.250568 377.377017 
L 618.949432 379.513211 
L 624.648295 375.097339 
L 630.347159 372.997928 
L 636.046023 374.542704 
L 641.744886 374.642025 
L 647.44375 376.056489 
L 653.142614 373.300997 
L 658.841477 373.710499 
L 664.540341 374.14924 
L 670.239205 373.111282 
L 675.938068 373.836491 
L 681.636932 373.949681 
L 687.335795 374.822216 
L 693.034659 374.865334 
L 698.733523 374.553275 
L 704.432386 372.854845 
L 710.13125 374.517919 
L 715.830114 372.943283 
L 721.528977 373.610417 
L 727.227841 372.952084 
L 732.926705 372.574148 
L 738.625568 373.439926 
L 744.324432 372.892639 
L 750.023295 373.117838 
L 755.722159 373.55764 
L 761.421023 372.644423 
L 767.119886 372.31477 
L 772.81875 374.722868 
L 778.517614 372.502098 
L 784.216477 372.393582 
L 789.915341 372.178282 
L 795.614205 372.971299 
L 801.313068 372.762211 
" clip-path="url(#p7d3a3a6561)" style="fill: none; stroke: #a020f0; stroke-width: 4; stroke-linecap: square"/>
   </g>
   <g id="line2d_29">
    <path d="M 117.449432 372.112217 
L 123.148295 375.371577 
L 128.847159 387.123754 
L 134.546023 369.108162 
L 140.244886 372.436803 
L 145.94375 374.508974 
L 151.642614 376.769248 
L 157.341477 378.370556 
L 163.040341 393.493277 
L 168.739205 395.4587 
L 174.438068 414.698654 
L 180.136932 427.451597 
L 185.835795 432.095763 
L 191.534659 434.944793 
L 197.233523 428.162562 
L 202.932386 424.134333 
L 208.63125 419.453057 
L 214.330114 415.961305 
L 220.028977 411.49362 
L 225.727841 405.820748 
L 231.426705 397.919564 
L 237.125568 387.361633 
L 242.824432 374.256614 
L 248.523295 359.054458 
L 254.222159 342.521424 
L 259.921023 327.508501 
L 265.619886 313.331162 
L 271.31875 312.879992 
L 277.017614 306.868453 
L 282.716477 353.79492 
L 288.415341 365.883817 
L 294.114205 394.794962 
L 299.813068 432.750937 
L 305.511932 383.24744 
L 311.210795 406.626886 
L 316.909659 207.177016 
L 322.608523 391.174683 
L 328.307386 42.394812 
L 334.00625 337.35748 
L 339.705114 517.783122 
L 345.403977 414.051585 
L 351.102841 251.865583 
L 356.801705 117.94856 
L 362.500568 215.598422 
L 368.199432 273.337549 
L 373.898295 633.097805 
L 379.597159 612.756684 
L 385.296023 440.990656 
L 390.994886 302.776164 
L 396.69375 397.70539 
L 402.392614 282.484342 
L 408.091477 413.984969 
L 413.790341 449.701605 
L 419.489205 299.512739 
L 425.188068 260.562331 
L 430.886932 468.98244 
L 436.585795 123.390173 
L 442.284659 264.238979 
L 447.983523 118.211362 
L 453.682386 241.334757 
L 459.38125 368.759303 
L 465.080114 194.381044 
L 470.778977 40.868182 
L 476.477841 226.057662 
L 482.176705 120.20672 
L 487.875568 211.295922 
L 493.574432 201.120546 
L 499.273295 271.309843 
L 504.972159 311.23944 
L 510.671023 386.148302 
L 516.369886 327.285224 
L 522.06875 355.567043 
L 527.767614 448.834544 
L 533.466477 325.231646 
L 539.165341 471.705521 
L 544.864205 484.263348 
L 550.563068 346.869756 
L 556.261932 401.915382 
L 561.960795 502.795776 
L 567.659659 452.125725 
L 573.358523 462.166093 
L 579.057386 455.545165 
L 584.75625 366.455149 
L 590.455114 480.859983 
L 596.153977 452.710234 
L 601.852841 423.32164 
L 607.551705 470.268294 
L 613.250568 402.339599 
L 618.949432 446.323153 
L 624.648295 400.109042 
L 630.347159 440.838064 
L 636.046023 450.065432 
L 641.744886 444.165103 
L 647.44375 406.861734 
L 653.142614 440.73934 
L 658.841477 432.566739 
L 664.540341 437.389417 
L 670.239205 409.277806 
L 675.938068 402.090144 
L 681.636932 371.23903 
L 687.335795 381.000107 
L 693.034659 417.810071 
L 698.733523 366.861331 
L 704.432386 399.104124 
L 710.13125 371.163314 
L 715.830114 378.719411 
L 721.528977 414.816703 
L 727.227841 393.941417 
L 732.926705 390.15475 
L 738.625568 412.157719 
L 744.324432 397.908739 
L 750.023295 394.388459 
L 755.722159 394.260904 
L 761.421023 374.813476 
L 767.119886 395.913613 
L 772.81875 394.053724 
L 778.517614 386.269203 
L 784.216477 358.182527 
L 789.915341 382.97747 
L 795.614205 391.381395 
L 801.313068 370.097056 
" clip-path="url(#p7d3a3a6561)" style="fill: none; stroke: #a63600; stroke-width: 4; stroke-linecap: square"/>
   </g>
   <g id="patch_3">
    <path d="M 83.25625 747.9 
L 83.25625 7.2 
" style="fill: none; stroke: #000000; stroke-width: 0.8; stroke-linejoin: miter; stroke-linecap: square"/>
   </g>
   <g id="patch_4">
    <path d="M 835.50625 747.9 
L 835.50625 7.2 
" style="fill: none; stroke: #000000; stroke-width: 0.8; stroke-linejoin: miter; stroke-linecap: square"/>
   </g>
   <g id="patch_5">
    <path d="M 83.25625 747.9 
L 835.50625 747.9 
" style="fill: none; stroke: #000000; stroke-width: 0.8; stroke-linejoin: miter; stroke-linecap: square"/>
   </g>
   <g id="patch_6">
    <path d="M 83.25625 7.2 
L 835.50625 7.2 
" style="fill: none; stroke: #000000; stroke-width: 0.8; stroke-linejoin: miter; stroke-linecap: square"/>
   </g>
   <g id="legend_1">
    <g id="patch_7">
     <path d="M 204.775 1038.235781 
L 713.9875 1038.235781 
Q 719.9875 1038.235781 719.9875 1032.235781 
L 719.9875 907.984219 
Q 719.9875 901.984219 713.9875 901.984219 
L 204.775 901.984219 
Q 198.775 901.984219 198.775 907.984219 
L 198.775 1032.235781 
Q 198.775 1038.235781 204.775 1038.235781 
z
" style="fill: #ffffff; stroke: #000000; stroke-linejoin: miter"/>
    </g>
    <g id="line2d_30">
     <path d="M 210.775 924.484219 
L 240.775 924.484219 
L 270.775 924.484219 
" style="fill: none; stroke: #ff0000; stroke-width: 4; stroke-linecap: square"/>
    </g>
    <g id="text_14">
     <!-- 1-ая 648.2 -->
     <g style="fill: #ff0000" transform="translate(294.775 934.984219) scale(0.3 -0.3)">
      <defs>
       <path id="TimesNewRomanPSMT-2d" d="M 259 1672 
L 1875 1672 
L 1875 1200 
L 259 1200 
L 259 1672 
z
" transform="scale(0.015625)"/>
       <path id="TimesNewRomanPSMT-44f" d="M 2800 2863 
L 2800 2744 
Q 2606 2744 2514 2691 
Q 2422 2638 2394 2556 
Q 2366 2475 2366 2191 
L 2366 672 
Q 2366 400 2391 314 
Q 2416 228 2511 172 
Q 2606 116 2800 116 
L 2800 0 
L 1416 0 
L 1416 116 
Q 1675 116 1762 211 
Q 1850 306 1850 672 
L 1850 1294 
L 1722 1291 
Q 1694 1291 1622 1294 
L 709 0 
L -3 0 
L -3 116 
Q 153 116 214 158 
Q 275 200 441 434 
L 1109 1378 
Q 391 1628 391 2144 
Q 391 2434 648 2648 
Q 906 2863 1528 2863 
L 2800 2863 
z
M 1850 2625 
Q 1728 2659 1619 2659 
Q 1303 2659 1147 2503 
Q 991 2347 991 2131 
Q 991 1856 1212 1675 
Q 1434 1494 1772 1494 
Q 1806 1494 1850 1500 
L 1850 2625 
z
" transform="scale(0.015625)"/>
       <path id="TimesNewRomanPSMT-36" d="M 2869 4325 
L 2869 4209 
Q 2456 4169 2195 4045 
Q 1934 3922 1679 3669 
Q 1425 3416 1258 3105 
Q 1091 2794 978 2366 
Q 1428 2675 1881 2675 
Q 2316 2675 2634 2325 
Q 2953 1975 2953 1425 
Q 2953 894 2631 456 
Q 2244 -75 1606 -75 
Q 1172 -75 869 213 
Q 275 772 275 1663 
Q 275 2231 503 2743 
Q 731 3256 1154 3653 
Q 1578 4050 1965 4187 
Q 2353 4325 2688 4325 
L 2869 4325 
z
M 925 2138 
Q 869 1716 869 1456 
Q 869 1156 980 804 
Q 1091 453 1309 247 
Q 1469 100 1697 100 
Q 1969 100 2183 356 
Q 2397 613 2397 1088 
Q 2397 1622 2184 2012 
Q 1972 2403 1581 2403 
Q 1463 2403 1327 2353 
Q 1191 2303 925 2138 
z
" transform="scale(0.015625)"/>
       <path id="TimesNewRomanPSMT-38" d="M 1228 2134 
Q 725 2547 579 2797 
Q 434 3047 434 3316 
Q 434 3728 753 4026 
Q 1072 4325 1600 4325 
Q 2113 4325 2425 4047 
Q 2738 3769 2738 3413 
Q 2738 3175 2569 2928 
Q 2400 2681 1866 2347 
Q 2416 1922 2594 1678 
Q 2831 1359 2831 1006 
Q 2831 559 2490 242 
Q 2150 -75 1597 -75 
Q 994 -75 656 303 
Q 388 606 388 966 
Q 388 1247 577 1523 
Q 766 1800 1228 2134 
z
M 1719 2469 
Q 2094 2806 2194 3001 
Q 2294 3197 2294 3444 
Q 2294 3772 2109 3958 
Q 1925 4144 1606 4144 
Q 1288 4144 1088 3959 
Q 888 3775 888 3528 
Q 888 3366 970 3203 
Q 1053 3041 1206 2894 
L 1719 2469 
z
M 1375 2016 
Q 1116 1797 991 1539 
Q 866 1281 866 981 
Q 866 578 1086 336 
Q 1306 94 1647 94 
Q 1984 94 2187 284 
Q 2391 475 2391 747 
Q 2391 972 2272 1150 
Q 2050 1481 1375 2016 
z
" transform="scale(0.015625)"/>
      </defs>
      <use xlink:href="#TimesNewRomanPSMT-31"/>
      <use xlink:href="#TimesNewRomanPSMT-2d" x="50"/>
      <use xlink:href="#TimesNewRomanPSMT-430" x="83.300781"/>
      <use xlink:href="#TimesNewRomanPSMT-44f" x="127.685547"/>
      <use xlink:href="#TimesNewRomanPSMT-20" x="173.681641"/>
      <use xlink:href="#TimesNewRomanPSMT-36" x="198.681641"/>
      <use xlink:href="#TimesNewRomanPSMT-34" x="248.681641"/>
      <use xlink:href="#TimesNewRomanPSMT-38" x="298.681641"/>
      <use xlink:href="#TimesNewRomanPSMT-2e" x="348.681641"/>
      <use xlink:href="#TimesNewRomanPSMT-32" x="373.681641"/>
     </g>
    </g>
    <g id="line2d_31">
     <path d="M 210.775 966.901406 
L 240.775 966.901406 
L 270.775 966.901406 
" style="fill: none; stroke: #008000; stroke-width: 4; stroke-linecap: square"/>
    </g>
    <g id="text_15">
     <!-- 3-я 180.75 -->
     <g style="fill: #008000" transform="translate(294.775 977.401406) scale(0.3 -0.3)">
      <defs>
       <path id="TimesNewRomanPSMT-37" d="M 644 4238 
L 2916 4238 
L 2916 4119 
L 1503 -88 
L 1153 -88 
L 2419 3728 
L 1253 3728 
Q 900 3728 750 3644 
Q 488 3500 328 3200 
L 238 3234 
L 644 4238 
z
" transform="scale(0.015625)"/>
      </defs>
      <use xlink:href="#TimesNewRomanPSMT-33"/>
      <use xlink:href="#TimesNewRomanPSMT-2d" x="50"/>
      <use xlink:href="#TimesNewRomanPSMT-44f" x="83.300781"/>
      <use xlink:href="#TimesNewRomanPSMT-20" x="129.296875"/>
      <use xlink:href="#TimesNewRomanPSMT-31" x="154.296875"/>
      <use xlink:href="#TimesNewRomanPSMT-38" x="204.296875"/>
      <use xlink:href="#TimesNewRomanPSMT-30" x="254.296875"/>
      <use xlink:href="#TimesNewRomanPSMT-2e" x="304.296875"/>
      <use xlink:href="#TimesNewRomanPSMT-37" x="329.296875"/>
      <use xlink:href="#TimesNewRomanPSMT-35" x="379.296875"/>
     </g>
    </g>
    <g id="line2d_32">
     <path d="M 210.775 1009.318594 
L 240.775 1009.318594 
L 270.775 1009.318594 
" style="fill: none; stroke: #0000ff; stroke-width: 4; stroke-linecap: square"/>
    </g>
    <g id="text_16">
     <!-- 5-ая 127.14 -->
     <g style="fill: #0000ff" transform="translate(294.775 1019.818594) scale(0.3 -0.3)">
      <use xlink:href="#TimesNewRomanPSMT-35"/>
      <use xlink:href="#TimesNewRomanPSMT-2d" x="50"/>
      <use xlink:href="#TimesNewRomanPSMT-430" x="83.300781"/>
      <use xlink:href="#TimesNewRomanPSMT-44f" x="127.685547"/>
      <use xlink:href="#TimesNewRomanPSMT-20" x="173.681641"/>
      <use xlink:href="#TimesNewRomanPSMT-31" x="198.681641"/>
      <use xlink:href="#TimesNewRomanPSMT-32" x="248.681641"/>
      <use xlink:href="#TimesNewRomanPSMT-37" x="298.681641"/>
      <use xlink:href="#TimesNewRomanPSMT-2e" x="348.681641"/>
      <use xlink:href="#TimesNewRomanPSMT-31" x="373.681641"/>
      <use xlink:href="#TimesNewRomanPSMT-34" x="423.681641"/>
     </g>
    </g>
    <g id="line2d_33">
     <path d="M 496.88125 924.484219 
L 526.88125 924.484219 
L 556.88125 924.484219 
" style="fill: none; stroke: #a020f0; stroke-width: 4; stroke-linecap: square"/>
    </g>
    <g id="text_17">
     <!-- 7-ая 102.9 -->
     <g style="fill: #a020f0" transform="translate(580.88125 934.984219) scale(0.3 -0.3)">
      <defs>
       <path id="TimesNewRomanPSMT-39" d="M 338 -88 
L 338 28 
Q 744 34 1094 217 
Q 1444 400 1770 856 
Q 2097 1313 2225 1859 
Q 1734 1544 1338 1544 
Q 891 1544 572 1889 
Q 253 2234 253 2806 
Q 253 3363 572 3797 
Q 956 4325 1575 4325 
Q 2097 4325 2469 3894 
Q 2925 3359 2925 2575 
Q 2925 1869 2578 1258 
Q 2231 647 1613 244 
Q 1109 -88 516 -88 
L 338 -88 
z
M 2275 2091 
Q 2331 2497 2331 2741 
Q 2331 3044 2228 3395 
Q 2125 3747 1936 3934 
Q 1747 4122 1506 4122 
Q 1228 4122 1018 3872 
Q 809 3622 809 3128 
Q 809 2469 1088 2097 
Q 1291 1828 1588 1828 
Q 1731 1828 1928 1897 
Q 2125 1966 2275 2091 
z
" transform="scale(0.015625)"/>
      </defs>
      <use xlink:href="#TimesNewRomanPSMT-37"/>
      <use xlink:href="#TimesNewRomanPSMT-2d" x="50"/>
      <use xlink:href="#TimesNewRomanPSMT-430" x="83.300781"/>
      <use xlink:href="#TimesNewRomanPSMT-44f" x="127.685547"/>
      <use xlink:href="#TimesNewRomanPSMT-20" x="173.681641"/>
      <use xlink:href="#TimesNewRomanPSMT-31" x="198.681641"/>
      <use xlink:href="#TimesNewRomanPSMT-30" x="248.681641"/>
      <use xlink:href="#TimesNewRomanPSMT-32" x="298.681641"/>
      <use xlink:href="#TimesNewRomanPSMT-2e" x="348.681641"/>
      <use xlink:href="#TimesNewRomanPSMT-39" x="373.681641"/>
     </g>
    </g>
    <g id="line2d_34">
     <path d="M 496.88125 966.901406 
L 526.88125 966.901406 
L 556.88125 966.901406 
" style="fill: none; stroke: #a63600; stroke-width: 4; stroke-linecap: square"/>
    </g>
    <g id="text_18">
     <!-- 9-ая 8.39 -->
     <g style="fill: #a63600" transform="translate(580.88125 977.401406) scale(0.3 -0.3)">
      <use xlink:href="#TimesNewRomanPSMT-39"/>
      <use xlink:href="#TimesNewRomanPSMT-2d" x="50"/>
      <use xlink:href="#TimesNewRomanPSMT-430" x="83.300781"/>
      <use xlink:href="#TimesNewRomanPSMT-44f" x="127.685547"/>
      <use xlink:href="#TimesNewRomanPSMT-20" x="173.681641"/>
      <use xlink:href="#TimesNewRomanPSMT-38" x="198.681641"/>
      <use xlink:href="#TimesNewRomanPSMT-2e" x="248.681641"/>
      <use xlink:href="#TimesNewRomanPSMT-33" x="273.681641"/>
      <use xlink:href="#TimesNewRomanPSMT-39" x="323.681641"/>
     </g>
    </g>
   </g>
  </g>
  <g id="axes_2">
   <g id="patch_8">
    <path d="M 961.45625 747.9 
L 1713.70625 747.9 
L 1713.70625 7.2 
L 961.45625 7.2 
z
" style="fill: #ffffff"/>
   </g>
   <g id="matplotlib.axis_3">
    <g id="xtick_6">
     <g id="line2d_35">
      <path d="M 1100.859222 747.9 
L 1100.859222 7.2 
" clip-path="url(#p2e745a1798)" style="fill: none; stroke: #000000; stroke-width: 0.7; stroke-linecap: square"/>
     </g>
     <g id="line2d_36">
      <g>
       <use xlink:href="#me385926d3a" x="1100.859222" y="747.9" style="stroke: #000000; stroke-width: 2"/>
      </g>
     </g>
     <g id="text_19">
      <!-- 260 -->
      <g transform="translate(1070.859222 790.675) scale(0.4 -0.4)">
       <use xlink:href="#TimesNewRomanPSMT-32"/>
       <use xlink:href="#TimesNewRomanPSMT-36" x="50"/>
       <use xlink:href="#TimesNewRomanPSMT-30" x="100"/>
      </g>
     </g>
    </g>
    <g id="xtick_7">
     <g id="line2d_37">
      <path d="M 1311.278802 747.9 
L 1311.278802 7.2 
" clip-path="url(#p2e745a1798)" style="fill: none; stroke: #000000; stroke-width: 0.7; stroke-linecap: square"/>
     </g>
     <g id="line2d_38">
      <g>
       <use xlink:href="#me385926d3a" x="1311.278802" y="747.9" style="stroke: #000000; stroke-width: 2"/>
      </g>
     </g>
     <g id="text_20">
      <!-- 280 -->
      <g transform="translate(1281.278802 790.675) scale(0.4 -0.4)">
       <use xlink:href="#TimesNewRomanPSMT-32"/>
       <use xlink:href="#TimesNewRomanPSMT-38" x="50"/>
       <use xlink:href="#TimesNewRomanPSMT-30" x="100"/>
      </g>
     </g>
    </g>
    <g id="xtick_8">
     <g id="line2d_39">
      <path d="M 1521.698383 747.9 
L 1521.698383 7.2 
" clip-path="url(#p2e745a1798)" style="fill: none; stroke: #000000; stroke-width: 0.7; stroke-linecap: square"/>
     </g>
     <g id="line2d_40">
      <g>
       <use xlink:href="#me385926d3a" x="1521.698383" y="747.9" style="stroke: #000000; stroke-width: 2"/>
      </g>
     </g>
     <g id="text_21">
      <!-- 300 -->
      <g transform="translate(1491.698383 790.675) scale(0.4 -0.4)">
       <use xlink:href="#TimesNewRomanPSMT-33"/>
       <use xlink:href="#TimesNewRomanPSMT-30" x="50"/>
       <use xlink:href="#TimesNewRomanPSMT-30" x="100"/>
      </g>
     </g>
    </g>
    <g id="text_22">
     <!-- длина волны  -->
     <g transform="translate(1218.294688 843.395) scale(0.42 -0.42)">
      <use xlink:href="#TimesNewRomanPSMT-434"/>
      <use xlink:href="#TimesNewRomanPSMT-43b" x="50.878906"/>
      <use xlink:href="#TimesNewRomanPSMT-438" x="100.78125"/>
      <use xlink:href="#TimesNewRomanPSMT-43d" x="154.296875"/>
      <use xlink:href="#TimesNewRomanPSMT-430" x="207.8125"/>
      <use xlink:href="#TimesNewRomanPSMT-20" x="252.197266"/>
      <use xlink:href="#TimesNewRomanPSMT-432" x="277.197266"/>
      <use xlink:href="#TimesNewRomanPSMT-43e" x="323.789062"/>
      <use xlink:href="#TimesNewRomanPSMT-43b" x="372.414062"/>
      <use xlink:href="#TimesNewRomanPSMT-43d" x="422.316406"/>
      <use xlink:href="#TimesNewRomanPSMT-44b" x="475.832031"/>
      <use xlink:href="#TimesNewRomanPSMT-20" x="543.019531"/>
     </g>
     <!-- возбуждения, нм -->
     <g transform="translate(1187.214687 887.375562) scale(0.42 -0.42)">
      <defs>
       <path id="TimesNewRomanPSMT-437" d="M 263 1966 
L 263 2863 
L 394 2863 
Q 450 2813 519 2813 
Q 572 2813 750 2863 
Q 1047 2947 1234 2947 
Q 1647 2947 1923 2756 
Q 2200 2566 2200 2250 
Q 2200 1766 1466 1547 
Q 2322 1369 2322 744 
Q 2322 416 2047 164 
Q 1772 -88 1247 -88 
Q 903 -88 642 35 
Q 381 159 75 453 
L 156 534 
Q 669 138 1128 138 
Q 1391 138 1559 316 
Q 1728 494 1728 778 
Q 1728 1400 925 1438 
L 925 1619 
Q 1303 1619 1473 1820 
Q 1644 2022 1644 2253 
Q 1644 2456 1498 2609 
Q 1353 2763 1113 2763 
Q 556 2763 375 1966 
L 263 1966 
z
" transform="scale(0.015625)"/>
       <path id="TimesNewRomanPSMT-431" d="M 469 2044 
Q 828 2947 1681 2947 
Q 2278 2947 2658 2500 
Q 3038 2053 3038 1478 
Q 3038 884 2653 398 
Q 2269 -88 1613 -88 
Q 944 -88 594 467 
Q 244 1022 244 1819 
Q 244 2438 425 2973 
Q 606 3509 806 3775 
Q 1006 4041 1268 4162 
Q 1531 4284 2197 4291 
Q 2675 4297 2775 4319 
Q 2875 4341 2966 4444 
L 3088 4444 
Q 2984 4138 2837 4006 
Q 2691 3875 2522 3829 
Q 2353 3784 1919 3772 
Q 1450 3759 1270 3701 
Q 1091 3644 897 3420 
Q 703 3197 595 2834 
Q 488 2472 469 2044 
z
M 1575 2734 
Q 1263 2734 1063 2475 
Q 863 2216 863 1659 
Q 863 906 1131 518 
Q 1400 131 1753 131 
Q 2078 131 2264 401 
Q 2450 672 2450 1266 
Q 2450 1897 2206 2315 
Q 1963 2734 1575 2734 
z
" transform="scale(0.015625)"/>
       <path id="TimesNewRomanPSMT-443" d="M 38 2863 
L 1372 2863 
L 1372 2747 
L 1306 2747 
Q 1166 2747 1095 2686 
Q 1025 2625 1025 2534 
Q 1025 2413 1128 2197 
L 1825 753 
L 2466 2334 
Q 2519 2463 2519 2588 
Q 2519 2644 2497 2672 
Q 2472 2706 2419 2726 
Q 2366 2747 2231 2747 
L 2231 2863 
L 3163 2863 
L 3163 2747 
Q 3047 2734 2984 2696 
Q 2922 2659 2847 2556 
Q 2819 2513 2741 2316 
L 1575 -541 
Q 1406 -956 1132 -1168 
Q 859 -1381 606 -1381 
Q 422 -1381 303 -1275 
Q 184 -1169 184 -1031 
Q 184 -900 270 -820 
Q 356 -741 506 -741 
Q 609 -741 788 -809 
Q 913 -856 944 -856 
Q 1038 -856 1148 -759 
Q 1259 -663 1372 -384 
L 1575 113 
L 547 2272 
Q 500 2369 397 2513 
Q 319 2622 269 2659 
Q 197 2709 38 2747 
L 38 2863 
z
" transform="scale(0.015625)"/>
       <path id="TimesNewRomanPSMT-436" d="M 1506 0 
L 1506 116 
Q 1797 144 1875 270 
Q 1953 397 1953 788 
L 1953 1438 
Q 1747 1438 1680 1391 
Q 1613 1344 1453 1038 
L 916 0 
L 72 0 
L 72 116 
Q 291 131 403 239 
Q 516 347 706 731 
Q 997 1316 1131 1439 
Q 1266 1563 1422 1575 
Q 1231 1656 1063 2088 
Q 981 2291 934 2355 
Q 888 2419 806 2419 
Q 744 2419 647 2381 
Q 506 2325 428 2325 
Q 303 2325 231 2409 
Q 159 2494 159 2613 
Q 159 2750 268 2823 
Q 378 2897 525 2897 
Q 781 2897 936 2745 
Q 1091 2594 1231 2203 
Q 1366 1831 1534 1718 
Q 1703 1606 1953 1606 
L 1953 2075 
Q 1953 2478 1870 2597 
Q 1788 2716 1506 2744 
L 1506 2863 
L 2919 2863 
L 2919 2744 
Q 2634 2713 2553 2594 
Q 2472 2475 2472 2075 
L 2472 1606 
Q 2719 1606 2887 1718 
Q 3056 1831 3191 2203 
Q 3359 2684 3542 2790 
Q 3725 2897 3891 2897 
Q 4075 2897 4170 2812 
Q 4266 2728 4266 2613 
Q 4266 2494 4194 2409 
Q 4122 2325 3997 2325 
Q 3919 2325 3778 2381 
Q 3681 2419 3628 2419 
Q 3538 2419 3491 2355 
Q 3444 2291 3363 2088 
Q 3194 1656 3003 1575 
Q 3166 1563 3300 1431 
Q 3434 1300 3713 741 
Q 3909 347 4021 239 
Q 4134 131 4353 116 
L 4353 0 
L 3509 0 
L 2972 1038 
Q 2813 1344 2745 1391 
Q 2678 1438 2472 1438 
L 2472 788 
Q 2472 341 2564 245 
Q 2656 150 2919 116 
L 2919 0 
L 1506 0 
z
" transform="scale(0.015625)"/>
      </defs>
      <use xlink:href="#TimesNewRomanPSMT-432"/>
      <use xlink:href="#TimesNewRomanPSMT-43e" x="46.591797"/>
      <use xlink:href="#TimesNewRomanPSMT-437" x="96.591797"/>
      <use xlink:href="#TimesNewRomanPSMT-431" x="136.09375"/>
      <use xlink:href="#TimesNewRomanPSMT-443" x="183.222656"/>
      <use xlink:href="#TimesNewRomanPSMT-436" x="231.847656"/>
      <use xlink:href="#TimesNewRomanPSMT-434" x="300.939453"/>
      <use xlink:href="#TimesNewRomanPSMT-435" x="351.818359"/>
      <use xlink:href="#TimesNewRomanPSMT-43d" x="396.203125"/>
      <use xlink:href="#TimesNewRomanPSMT-438" x="449.71875"/>
      <use xlink:href="#TimesNewRomanPSMT-44f" x="503.234375"/>
      <use xlink:href="#TimesNewRomanPSMT-2c" x="549.230469"/>
      <use xlink:href="#TimesNewRomanPSMT-20" x="574.230469"/>
      <use xlink:href="#TimesNewRomanPSMT-43d" x="599.230469"/>
      <use xlink:href="#TimesNewRomanPSMT-43c" x="652.746094"/>
     </g>
    </g>
   </g>
   <g id="matplotlib.axis_4">
    <g id="ytick_8">
     <g id="line2d_41">
      <path d="M 961.45625 736.147099 
L 1713.70625 736.147099 
" clip-path="url(#p2e745a1798)" style="fill: none; stroke: #000000; stroke-width: 0.7; stroke-linecap: square"/>
     </g>
     <g id="line2d_42">
      <g>
       <use xlink:href="#m2e1e288097" x="961.45625" y="736.147099" style="stroke: #000000; stroke-width: 2"/>
      </g>
     </g>
     <g id="text_23">
      <!-- −0.6 -->
      <g transform="translate(885.4 750.034599) scale(0.4 -0.4)">
       <use xlink:href="#TimesNewRomanPSMT-2212"/>
       <use xlink:href="#TimesNewRomanPSMT-30" x="56.396484"/>
       <use xlink:href="#TimesNewRomanPSMT-2e" x="106.396484"/>
       <use xlink:href="#TimesNewRomanPSMT-36" x="131.396484"/>
      </g>
     </g>
    </g>
    <g id="ytick_9">
     <g id="line2d_43">
      <path d="M 961.45625 629.676324 
L 1713.70625 629.676324 
" clip-path="url(#p2e745a1798)" style="fill: none; stroke: #000000; stroke-width: 0.7; stroke-linecap: square"/>
     </g>
     <g id="line2d_44">
      <g>
       <use xlink:href="#m2e1e288097" x="961.45625" y="629.676324" style="stroke: #000000; stroke-width: 2"/>
      </g>
     </g>
     <g id="text_24">
      <!-- −0.4 -->
      <g transform="translate(885.4 643.563824) scale(0.4 -0.4)">
       <use xlink:href="#TimesNewRomanPSMT-2212"/>
       <use xlink:href="#TimesNewRomanPSMT-30" x="56.396484"/>
       <use xlink:href="#TimesNewRomanPSMT-2e" x="106.396484"/>
       <use xlink:href="#TimesNewRomanPSMT-34" x="131.396484"/>
      </g>
     </g>
    </g>
    <g id="ytick_10">
     <g id="line2d_45">
      <path d="M 961.45625 523.205548 
L 1713.70625 523.205548 
" clip-path="url(#p2e745a1798)" style="fill: none; stroke: #000000; stroke-width: 0.7; stroke-linecap: square"/>
     </g>
     <g id="line2d_46">
      <g>
       <use xlink:href="#m2e1e288097" x="961.45625" y="523.205548" style="stroke: #000000; stroke-width: 2"/>
      </g>
     </g>
     <g id="text_25">
      <!-- −0.2 -->
      <g transform="translate(885.4 537.093048) scale(0.4 -0.4)">
       <use xlink:href="#TimesNewRomanPSMT-2212"/>
       <use xlink:href="#TimesNewRomanPSMT-30" x="56.396484"/>
       <use xlink:href="#TimesNewRomanPSMT-2e" x="106.396484"/>
       <use xlink:href="#TimesNewRomanPSMT-32" x="131.396484"/>
      </g>
     </g>
    </g>
    <g id="ytick_11">
     <g id="line2d_47">
      <path d="M 961.45625 416.734773 
L 1713.70625 416.734773 
" clip-path="url(#p2e745a1798)" style="fill: none; stroke: #000000; stroke-width: 0.7; stroke-linecap: square"/>
     </g>
     <g id="line2d_48">
      <g>
       <use xlink:href="#m2e1e288097" x="961.45625" y="416.734773" style="stroke: #000000; stroke-width: 2"/>
      </g>
     </g>
     <g id="text_26">
      <!-- 0.0 -->
      <g transform="translate(907.95625 430.622273) scale(0.4 -0.4)">
       <use xlink:href="#TimesNewRomanPSMT-30"/>
       <use xlink:href="#TimesNewRomanPSMT-2e" x="50"/>
       <use xlink:href="#TimesNewRomanPSMT-30" x="75"/>
      </g>
     </g>
    </g>
    <g id="ytick_12">
     <g id="line2d_49">
      <path d="M 961.45625 310.263997 
L 1713.70625 310.263997 
" clip-path="url(#p2e745a1798)" style="fill: none; stroke: #000000; stroke-width: 0.7; stroke-linecap: square"/>
     </g>
     <g id="line2d_50">
      <g>
       <use xlink:href="#m2e1e288097" x="961.45625" y="310.263997" style="stroke: #000000; stroke-width: 2"/>
      </g>
     </g>
     <g id="text_27">
      <!-- 0.2 -->
      <g transform="translate(907.95625 324.151497) scale(0.4 -0.4)">
       <use xlink:href="#TimesNewRomanPSMT-30"/>
       <use xlink:href="#TimesNewRomanPSMT-2e" x="50"/>
       <use xlink:href="#TimesNewRomanPSMT-32" x="75"/>
      </g>
     </g>
    </g>
    <g id="ytick_13">
     <g id="line2d_51">
      <path d="M 961.45625 203.793222 
L 1713.70625 203.793222 
" clip-path="url(#p2e745a1798)" style="fill: none; stroke: #000000; stroke-width: 0.7; stroke-linecap: square"/>
     </g>
     <g id="line2d_52">
      <g>
       <use xlink:href="#m2e1e288097" x="961.45625" y="203.793222" style="stroke: #000000; stroke-width: 2"/>
      </g>
     </g>
     <g id="text_28">
      <!-- 0.4 -->
      <g transform="translate(907.95625 217.680722) scale(0.4 -0.4)">
       <use xlink:href="#TimesNewRomanPSMT-30"/>
       <use xlink:href="#TimesNewRomanPSMT-2e" x="50"/>
       <use xlink:href="#TimesNewRomanPSMT-34" x="75"/>
      </g>
     </g>
    </g>
    <g id="ytick_14">
     <g id="line2d_53">
      <path d="M 961.45625 97.322447 
L 1713.70625 97.322447 
" clip-path="url(#p2e745a1798)" style="fill: none; stroke: #000000; stroke-width: 0.7; stroke-linecap: square"/>
     </g>
     <g id="line2d_54">
      <g>
       <use xlink:href="#m2e1e288097" x="961.45625" y="97.322447" style="stroke: #000000; stroke-width: 2"/>
      </g>
     </g>
     <g id="text_29">
      <!-- 0.6 -->
      <g transform="translate(907.95625 111.209947) scale(0.4 -0.4)">
       <use xlink:href="#TimesNewRomanPSMT-30"/>
       <use xlink:href="#TimesNewRomanPSMT-2e" x="50"/>
       <use xlink:href="#TimesNewRomanPSMT-36" x="75"/>
      </g>
     </g>
    </g>
   </g>
   <g id="line2d_55">
    <path d="M 995.649432 360.663784 
L 1048.254327 329.935898 
L 1100.859222 300.573469 
L 1153.464117 245.567883 
L 1206.069012 198.982604 
L 1258.673907 175.213574 
L 1311.278802 178.096781 
L 1363.883698 211.703658 
L 1416.488593 277.59537 
L 1469.093488 346.137664 
L 1521.698383 388.665876 
L 1574.303278 408.833992 
L 1626.908173 415.086899 
L 1679.513068 416.574155 
" clip-path="url(#p2e745a1798)" style="fill: none; stroke: #ff0000; stroke-width: 4; stroke-linecap: square"/>
   </g>
   <g id="line2d_56">
    <path d="M 995.649432 345.637051 
L 1048.254327 329.081569 
L 1100.859222 322.96324 
L 1153.464117 328.242853 
L 1206.069012 364.460367 
L 1258.673907 411.360155 
L 1311.278802 474.26944 
L 1363.883698 550.357155 
L 1416.488593 647.070514 
L 1469.093488 704.995068 
L 1521.698383 672.655016 
L 1574.303278 572.364573 
L 1626.908173 481.897542 
L 1679.513068 417.974811 
" clip-path="url(#p2e745a1798)" style="fill: none; stroke: #008000; stroke-width: 4; stroke-linecap: square"/>
   </g>
   <g id="line2d_57">
    <path d="M 995.649432 649.865404 
L 1048.254327 625.790222 
L 1100.859222 602.298491 
L 1153.464117 514.282108 
L 1206.069012 301.860332 
L 1258.673907 176.447092 
L 1311.278802 211.791598 
L 1363.883698 349.311862 
L 1416.488593 490.294028 
L 1469.093488 545.333889 
L 1521.698383 460.572981 
L 1574.303278 421.985427 
L 1626.908173 412.769478 
L 1679.513068 415.484348 
" clip-path="url(#p2e745a1798)" style="fill: none; stroke: #0000ff; stroke-width: 4; stroke-linecap: square"/>
   </g>
   <g id="line2d_58">
    <path d="M 995.649432 425.850073 
L 1048.254327 386.591555 
L 1100.859222 317.803419 
L 1153.464117 243.276133 
L 1206.069012 254.221629 
L 1258.673907 377.374383 
L 1311.278802 599.805521 
L 1363.883698 714.231818 
L 1416.488593 657.493341 
L 1469.093488 481.875915 
L 1521.698383 328.306808 
L 1574.303278 289.172978 
L 1626.908173 337.800379 
L 1679.513068 411.808228 
" clip-path="url(#p2e745a1798)" style="fill: none; stroke: #a020f0; stroke-width: 4; stroke-linecap: square"/>
   </g>
   <g id="line2d_59">
    <path d="M 995.649432 406.461644 
L 1048.254327 288.333606 
L 1100.859222 387.270005 
L 1153.464117 141.592355 
L 1206.069012 40.868182 
L 1258.673907 389.376834 
L 1311.278802 268.002271 
L 1363.883698 268.85894 
L 1416.488593 374.688004 
L 1469.093488 435.997925 
L 1521.698383 424.423388 
L 1574.303278 449.465703 
L 1626.908173 447.005901 
L 1679.513068 422.914692 
" clip-path="url(#p2e745a1798)" style="fill: none; stroke: #a63600; stroke-width: 4; stroke-linecap: square"/>
   </g>
   <g id="patch_9">
    <path d="M 961.45625 747.9 
L 961.45625 7.2 
" style="fill: none; stroke: #000000; stroke-width: 0.8; stroke-linejoin: miter; stroke-linecap: square"/>
   </g>
   <g id="patch_10">
    <path d="M 1713.70625 747.9 
L 1713.70625 7.2 
" style="fill: none; stroke: #000000; stroke-width: 0.8; stroke-linejoin: miter; stroke-linecap: square"/>
   </g>
   <g id="patch_11">
    <path d="M 961.45625 747.9 
L 1713.70625 747.9 
" style="fill: none; stroke: #000000; stroke-width: 0.8; stroke-linejoin: miter; stroke-linecap: square"/>
   </g>
   <g id="patch_12">
    <path d="M 961.45625 7.2 
L 1713.70625 7.2 
" style="fill: none; stroke: #000000; stroke-width: 0.8; stroke-linejoin: miter; stroke-linecap: square"/>
   </g>
   <g id="legend_2">
    <g id="patch_13">
     <path d="M 1089.633594 1038.235781 
L 1585.528906 1038.235781 
Q 1591.528906 1038.235781 1591.528906 1032.235781 
L 1591.528906 907.984219 
Q 1591.528906 901.984219 1585.528906 901.984219 
L 1089.633594 901.984219 
Q 1083.633594 901.984219 1083.633594 907.984219 
L 1083.633594 1032.235781 
Q 1083.633594 1038.235781 1089.633594 1038.235781 
z
" style="fill: #ffffff; stroke: #000000; stroke-linejoin: miter"/>
    </g>
    <g id="line2d_60">
     <path d="M 1095.633594 924.484219 
L 1125.633594 924.484219 
L 1155.633594 924.484219 
" style="fill: none; stroke: #ff0000; stroke-width: 4; stroke-linecap: square"/>
    </g>
    <g id="text_30">
     <!-- 1-ая 216.3 -->
     <g style="fill: #ff0000" transform="translate(1179.633594 934.984219) scale(0.3 -0.3)">
      <use xlink:href="#TimesNewRomanPSMT-31"/>
      <use xlink:href="#TimesNewRomanPSMT-2d" x="50"/>
      <use xlink:href="#TimesNewRomanPSMT-430" x="83.300781"/>
      <use xlink:href="#TimesNewRomanPSMT-44f" x="127.685547"/>
      <use xlink:href="#TimesNewRomanPSMT-20" x="173.681641"/>
      <use xlink:href="#TimesNewRomanPSMT-32" x="198.681641"/>
      <use xlink:href="#TimesNewRomanPSMT-31" x="248.681641"/>
      <use xlink:href="#TimesNewRomanPSMT-36" x="298.681641"/>
      <use xlink:href="#TimesNewRomanPSMT-2e" x="348.681641"/>
      <use xlink:href="#TimesNewRomanPSMT-33" x="373.681641"/>
     </g>
    </g>
    <g id="line2d_61">
     <path d="M 1095.633594 966.901406 
L 1125.633594 966.901406 
L 1155.633594 966.901406 
" style="fill: none; stroke: #008000; stroke-width: 4; stroke-linecap: square"/>
    </g>
    <g id="text_31">
     <!-- 3-я 124.48 -->
     <g style="fill: #008000" transform="translate(1179.633594 977.401406) scale(0.3 -0.3)">
      <use xlink:href="#TimesNewRomanPSMT-33"/>
      <use xlink:href="#TimesNewRomanPSMT-2d" x="50"/>
      <use xlink:href="#TimesNewRomanPSMT-44f" x="83.300781"/>
      <use xlink:href="#TimesNewRomanPSMT-20" x="129.296875"/>
      <use xlink:href="#TimesNewRomanPSMT-31" x="154.296875"/>
      <use xlink:href="#TimesNewRomanPSMT-32" x="204.296875"/>
      <use xlink:href="#TimesNewRomanPSMT-34" x="254.296875"/>
      <use xlink:href="#TimesNewRomanPSMT-2e" x="304.296875"/>
      <use xlink:href="#TimesNewRomanPSMT-34" x="329.296875"/>
      <use xlink:href="#TimesNewRomanPSMT-38" x="379.296875"/>
     </g>
    </g>
    <g id="line2d_62">
     <path d="M 1095.633594 1009.318594 
L 1125.633594 1009.318594 
L 1155.633594 1009.318594 
" style="fill: none; stroke: #0000ff; stroke-width: 4; stroke-linecap: square"/>
    </g>
    <g id="text_32">
     <!-- 5-ая 60.47 -->
     <g style="fill: #0000ff" transform="translate(1179.633594 1019.818594) scale(0.3 -0.3)">
      <use xlink:href="#TimesNewRomanPSMT-35"/>
      <use xlink:href="#TimesNewRomanPSMT-2d" x="50"/>
      <use xlink:href="#TimesNewRomanPSMT-430" x="83.300781"/>
      <use xlink:href="#TimesNewRomanPSMT-44f" x="127.685547"/>
      <use xlink:href="#TimesNewRomanPSMT-20" x="173.681641"/>
      <use xlink:href="#TimesNewRomanPSMT-36" x="198.681641"/>
      <use xlink:href="#TimesNewRomanPSMT-30" x="248.681641"/>
      <use xlink:href="#TimesNewRomanPSMT-2e" x="298.681641"/>
      <use xlink:href="#TimesNewRomanPSMT-34" x="323.681641"/>
      <use xlink:href="#TimesNewRomanPSMT-37" x="373.681641"/>
     </g>
    </g>
    <g id="line2d_63">
     <path d="M 1368.422656 924.484219 
L 1398.422656 924.484219 
L 1428.422656 924.484219 
" style="fill: none; stroke: #a020f0; stroke-width: 4; stroke-linecap: square"/>
    </g>
    <g id="text_33">
     <!-- 7-ая 51.01 -->
     <g style="fill: #a020f0" transform="translate(1452.422656 934.984219) scale(0.3 -0.3)">
      <use xlink:href="#TimesNewRomanPSMT-37"/>
      <use xlink:href="#TimesNewRomanPSMT-2d" x="50"/>
      <use xlink:href="#TimesNewRomanPSMT-430" x="83.300781"/>
      <use xlink:href="#TimesNewRomanPSMT-44f" x="127.685547"/>
      <use xlink:href="#TimesNewRomanPSMT-20" x="173.681641"/>
      <use xlink:href="#TimesNewRomanPSMT-35" x="198.681641"/>
      <use xlink:href="#TimesNewRomanPSMT-31" x="248.681641"/>
      <use xlink:href="#TimesNewRomanPSMT-2e" x="298.681641"/>
      <use xlink:href="#TimesNewRomanPSMT-30" x="323.681641"/>
      <use xlink:href="#TimesNewRomanPSMT-31" x="373.681641"/>
     </g>
    </g>
    <g id="line2d_64">
     <path d="M 1368.422656 966.901406 
L 1398.422656 966.901406 
L 1428.422656 966.901406 
" style="fill: none; stroke: #a63600; stroke-width: 4; stroke-linecap: square"/>
    </g>
    <g id="text_34">
     <!-- 9-ая 51.78 -->
     <g style="fill: #a63600" transform="translate(1452.422656 977.401406) scale(0.3 -0.3)">
      <use xlink:href="#TimesNewRomanPSMT-39"/>
      <use xlink:href="#TimesNewRomanPSMT-2d" x="50"/>
      <use xlink:href="#TimesNewRomanPSMT-430" x="83.300781"/>
      <use xlink:href="#TimesNewRomanPSMT-44f" x="127.685547"/>
      <use xlink:href="#TimesNewRomanPSMT-20" x="173.681641"/>
      <use xlink:href="#TimesNewRomanPSMT-35" x="198.681641"/>
      <use xlink:href="#TimesNewRomanPSMT-31" x="248.681641"/>
      <use xlink:href="#TimesNewRomanPSMT-2e" x="298.681641"/>
      <use xlink:href="#TimesNewRomanPSMT-37" x="323.681641"/>
      <use xlink:href="#TimesNewRomanPSMT-38" x="373.681641"/>
     </g>
    </g>
   </g>
  </g>
 </g>
 <defs>
  <clipPath id="p7d3a3a6561">
   <rect x="83.25625" y="7.2" width="752.25" height="740.7"/>
  </clipPath>
  <clipPath id="p2e745a1798">
   <rect x="961.45625" y="7.2" width="752.25" height="740.7"/>
  </clipPath>
 </defs>
</svg>
