<?xml version="1.0" encoding="utf-8" standalone="no"?>
<!DOCTYPE svg PUBLIC "-//W3C//DTD SVG 1.1//EN"
  "http://www.w3.org/Graphics/SVG/1.1/DTD/svg11.dtd">
<svg xmlns:xlink="http://www.w3.org/1999/xlink" width="1232.39952pt" height="764.39952pt" viewBox="0 0 1232.39952 764.39952" xmlns="http://www.w3.org/2000/svg" version="1.1">
 <metadata>
  <rdf:RDF xmlns:dc="http://purl.org/dc/elements/1.1/" xmlns:cc="http://creativecommons.org/ns#" xmlns:rdf="http://www.w3.org/1999/02/22-rdf-syntax-ns#">
   <cc:Work>
    <dc:type rdf:resource="http://purl.org/dc/dcmitype/StillImage"/>
    <dc:date>2023-10-12T12:18:33.624488</dc:date>
    <dc:format>image/svg+xml</dc:format>
    <dc:creator>
     <cc:Agent>
      <dc:title>Matplotlib v3.8.0, https://matplotlib.org/</dc:title>
     </cc:Agent>
    </dc:creator>
   </cc:Work>
  </rdf:RDF>
 </metadata>
 <defs>
  <style type="text/css">*{stroke-linejoin: round; stroke-linecap: butt}</style>
 </defs>
 <g id="figure_1">
  <g id="patch_1">
   <path d="M 0 764.39952 
L 1232.39952 764.39952 
L 1232.39952 0 
L 0 0 
z
" style="fill: #ffffff"/>
  </g>
  <g id="axes_1">
   <g id="patch_2">
    <path d="M 30.103125 740.521395 
L 1217.247957 740.521395 
L 1217.247957 22.318125 
L 30.103125 22.318125 
z
" style="fill: #ffffff"/>
   </g>
   <g id="matplotlib.axis_1">
    <g id="xtick_1">
     <g id="line2d_1">
      <defs>
       <path id="m5b2bfe5c92" d="M 0 0 
L 0 3.5 
" style="stroke: #000000; stroke-width: 0.8"/>
      </defs>
      <g>
       <use xlink:href="#m5b2bfe5c92" x="30.103125" y="740.521395" style="stroke: #000000; stroke-width: 0.8"/>
      </g>
     </g>
     <g id="text_1">
      <!-- 0.0 -->
      <g transform="translate(22.151563 755.119832) scale(0.1 -0.1)">
       <defs>
        <path id="DejaVuSans-30" d="M 2034 4250 
Q 1547 4250 1301 3770 
Q 1056 3291 1056 2328 
Q 1056 1369 1301 889 
Q 1547 409 2034 409 
Q 2525 409 2770 889 
Q 3016 1369 3016 2328 
Q 3016 3291 2770 3770 
Q 2525 4250 2034 4250 
z
M 2034 4750 
Q 2819 4750 3233 4129 
Q 3647 3509 3647 2328 
Q 3647 1150 3233 529 
Q 2819 -91 2034 -91 
Q 1250 -91 836 529 
Q 422 1150 422 2328 
Q 422 3509 836 4129 
Q 1250 4750 2034 4750 
z
" transform="scale(0.015625)"/>
        <path id="DejaVuSans-2e" d="M 684 794 
L 1344 794 
L 1344 0 
L 684 0 
L 684 794 
z
" transform="scale(0.015625)"/>
       </defs>
       <use xlink:href="#DejaVuSans-30"/>
       <use xlink:href="#DejaVuSans-2e" x="63.623047"/>
       <use xlink:href="#DejaVuSans-30" x="95.410156"/>
      </g>
     </g>
    </g>
    <g id="xtick_2">
     <g id="line2d_2">
      <g>
       <use xlink:href="#m5b2bfe5c92" x="267.532091" y="740.521395" style="stroke: #000000; stroke-width: 0.8"/>
      </g>
     </g>
     <g id="text_2">
      <!-- 0.2 -->
      <g transform="translate(259.580529 755.119832) scale(0.1 -0.1)">
       <defs>
        <path id="DejaVuSans-32" d="M 1228 531 
L 3431 531 
L 3431 0 
L 469 0 
L 469 531 
Q 828 903 1448 1529 
Q 2069 2156 2228 2338 
Q 2531 2678 2651 2914 
Q 2772 3150 2772 3378 
Q 2772 3750 2511 3984 
Q 2250 4219 1831 4219 
Q 1534 4219 1204 4116 
Q 875 4013 500 3803 
L 500 4441 
Q 881 4594 1212 4672 
Q 1544 4750 1819 4750 
Q 2544 4750 2975 4387 
Q 3406 4025 3406 3419 
Q 3406 3131 3298 2873 
Q 3191 2616 2906 2266 
Q 2828 2175 2409 1742 
Q 1991 1309 1228 531 
z
" transform="scale(0.015625)"/>
       </defs>
       <use xlink:href="#DejaVuSans-30"/>
       <use xlink:href="#DejaVuSans-2e" x="63.623047"/>
       <use xlink:href="#DejaVuSans-32" x="95.410156"/>
      </g>
     </g>
    </g>
    <g id="xtick_3">
     <g id="line2d_3">
      <g>
       <use xlink:href="#m5b2bfe5c92" x="504.961058" y="740.521395" style="stroke: #000000; stroke-width: 0.8"/>
      </g>
     </g>
     <g id="text_3">
      <!-- 0.4 -->
      <g transform="translate(497.009495 755.119832) scale(0.1 -0.1)">
       <defs>
        <path id="DejaVuSans-34" d="M 2419 4116 
L 825 1625 
L 2419 1625 
L 2419 4116 
z
M 2253 4666 
L 3047 4666 
L 3047 1625 
L 3713 1625 
L 3713 1100 
L 3047 1100 
L 3047 0 
L 2419 0 
L 2419 1100 
L 313 1100 
L 313 1709 
L 2253 4666 
z
" transform="scale(0.015625)"/>
       </defs>
       <use xlink:href="#DejaVuSans-30"/>
       <use xlink:href="#DejaVuSans-2e" x="63.623047"/>
       <use xlink:href="#DejaVuSans-34" x="95.410156"/>
      </g>
     </g>
    </g>
    <g id="xtick_4">
     <g id="line2d_4">
      <g>
       <use xlink:href="#m5b2bfe5c92" x="742.390024" y="740.521395" style="stroke: #000000; stroke-width: 0.8"/>
      </g>
     </g>
     <g id="text_4">
      <!-- 0.6 -->
      <g transform="translate(734.438462 755.119832) scale(0.1 -0.1)">
       <defs>
        <path id="DejaVuSans-36" d="M 2113 2584 
Q 1688 2584 1439 2293 
Q 1191 2003 1191 1497 
Q 1191 994 1439 701 
Q 1688 409 2113 409 
Q 2538 409 2786 701 
Q 3034 994 3034 1497 
Q 3034 2003 2786 2293 
Q 2538 2584 2113 2584 
z
M 3366 4563 
L 3366 3988 
Q 3128 4100 2886 4159 
Q 2644 4219 2406 4219 
Q 1781 4219 1451 3797 
Q 1122 3375 1075 2522 
Q 1259 2794 1537 2939 
Q 1816 3084 2150 3084 
Q 2853 3084 3261 2657 
Q 3669 2231 3669 1497 
Q 3669 778 3244 343 
Q 2819 -91 2113 -91 
Q 1303 -91 875 529 
Q 447 1150 447 2328 
Q 447 3434 972 4092 
Q 1497 4750 2381 4750 
Q 2619 4750 2861 4703 
Q 3103 4656 3366 4563 
z
" transform="scale(0.015625)"/>
       </defs>
       <use xlink:href="#DejaVuSans-30"/>
       <use xlink:href="#DejaVuSans-2e" x="63.623047"/>
       <use xlink:href="#DejaVuSans-36" x="95.410156"/>
      </g>
     </g>
    </g>
    <g id="xtick_5">
     <g id="line2d_5">
      <g>
       <use xlink:href="#m5b2bfe5c92" x="979.818991" y="740.521395" style="stroke: #000000; stroke-width: 0.8"/>
      </g>
     </g>
     <g id="text_5">
      <!-- 0.8 -->
      <g transform="translate(971.867428 755.119832) scale(0.1 -0.1)">
       <defs>
        <path id="DejaVuSans-38" d="M 2034 2216 
Q 1584 2216 1326 1975 
Q 1069 1734 1069 1313 
Q 1069 891 1326 650 
Q 1584 409 2034 409 
Q 2484 409 2743 651 
Q 3003 894 3003 1313 
Q 3003 1734 2745 1975 
Q 2488 2216 2034 2216 
z
M 1403 2484 
Q 997 2584 770 2862 
Q 544 3141 544 3541 
Q 544 4100 942 4425 
Q 1341 4750 2034 4750 
Q 2731 4750 3128 4425 
Q 3525 4100 3525 3541 
Q 3525 3141 3298 2862 
Q 3072 2584 2669 2484 
Q 3125 2378 3379 2068 
Q 3634 1759 3634 1313 
Q 3634 634 3220 271 
Q 2806 -91 2034 -91 
Q 1263 -91 848 271 
Q 434 634 434 1313 
Q 434 1759 690 2068 
Q 947 2378 1403 2484 
z
M 1172 3481 
Q 1172 3119 1398 2916 
Q 1625 2713 2034 2713 
Q 2441 2713 2670 2916 
Q 2900 3119 2900 3481 
Q 2900 3844 2670 4047 
Q 2441 4250 2034 4250 
Q 1625 4250 1398 4047 
Q 1172 3844 1172 3481 
z
" transform="scale(0.015625)"/>
       </defs>
       <use xlink:href="#DejaVuSans-30"/>
       <use xlink:href="#DejaVuSans-2e" x="63.623047"/>
       <use xlink:href="#DejaVuSans-38" x="95.410156"/>
      </g>
     </g>
    </g>
    <g id="xtick_6">
     <g id="line2d_6">
      <g>
       <use xlink:href="#m5b2bfe5c92" x="1217.247957" y="740.521395" style="stroke: #000000; stroke-width: 0.8"/>
      </g>
     </g>
     <g id="text_6">
      <!-- 1.0 -->
      <g transform="translate(1209.296395 755.119832) scale(0.1 -0.1)">
       <defs>
        <path id="DejaVuSans-31" d="M 794 531 
L 1825 531 
L 1825 4091 
L 703 3866 
L 703 4441 
L 1819 4666 
L 2450 4666 
L 2450 531 
L 3481 531 
L 3481 0 
L 794 0 
L 794 531 
z
" transform="scale(0.015625)"/>
       </defs>
       <use xlink:href="#DejaVuSans-31"/>
       <use xlink:href="#DejaVuSans-2e" x="63.623047"/>
       <use xlink:href="#DejaVuSans-30" x="95.410156"/>
      </g>
     </g>
    </g>
   </g>
   <g id="matplotlib.axis_2">
    <g id="ytick_1">
     <g id="line2d_7">
      <defs>
       <path id="mf1f2ad8ed1" d="M 0 0 
L -3.5 0 
" style="stroke: #000000; stroke-width: 0.8"/>
      </defs>
      <g>
       <use xlink:href="#mf1f2ad8ed1" x="30.103125" y="740.521395" style="stroke: #000000; stroke-width: 0.8"/>
      </g>
     </g>
     <g id="text_7">
      <!-- 0.0 -->
      <g transform="translate(7.2 744.320614) scale(0.1 -0.1)">
       <use xlink:href="#DejaVuSans-30"/>
       <use xlink:href="#DejaVuSans-2e" x="63.623047"/>
       <use xlink:href="#DejaVuSans-30" x="95.410156"/>
      </g>
     </g>
    </g>
    <g id="ytick_2">
     <g id="line2d_8">
      <g>
       <use xlink:href="#mf1f2ad8ed1" x="30.103125" y="596.880741" style="stroke: #000000; stroke-width: 0.8"/>
      </g>
     </g>
     <g id="text_8">
      <!-- 0.2 -->
      <g transform="translate(7.2 600.67996) scale(0.1 -0.1)">
       <use xlink:href="#DejaVuSans-30"/>
       <use xlink:href="#DejaVuSans-2e" x="63.623047"/>
       <use xlink:href="#DejaVuSans-32" x="95.410156"/>
      </g>
     </g>
    </g>
    <g id="ytick_3">
     <g id="line2d_9">
      <g>
       <use xlink:href="#mf1f2ad8ed1" x="30.103125" y="453.240087" style="stroke: #000000; stroke-width: 0.8"/>
      </g>
     </g>
     <g id="text_9">
      <!-- 0.4 -->
      <g transform="translate(7.2 457.039306) scale(0.1 -0.1)">
       <use xlink:href="#DejaVuSans-30"/>
       <use xlink:href="#DejaVuSans-2e" x="63.623047"/>
       <use xlink:href="#DejaVuSans-34" x="95.410156"/>
      </g>
     </g>
    </g>
    <g id="ytick_4">
     <g id="line2d_10">
      <g>
       <use xlink:href="#mf1f2ad8ed1" x="30.103125" y="309.599433" style="stroke: #000000; stroke-width: 0.8"/>
      </g>
     </g>
     <g id="text_10">
      <!-- 0.6 -->
      <g transform="translate(7.2 313.398652) scale(0.1 -0.1)">
       <use xlink:href="#DejaVuSans-30"/>
       <use xlink:href="#DejaVuSans-2e" x="63.623047"/>
       <use xlink:href="#DejaVuSans-36" x="95.410156"/>
      </g>
     </g>
    </g>
    <g id="ytick_5">
     <g id="line2d_11">
      <g>
       <use xlink:href="#mf1f2ad8ed1" x="30.103125" y="165.958779" style="stroke: #000000; stroke-width: 0.8"/>
      </g>
     </g>
     <g id="text_11">
      <!-- 0.8 -->
      <g transform="translate(7.2 169.757998) scale(0.1 -0.1)">
       <use xlink:href="#DejaVuSans-30"/>
       <use xlink:href="#DejaVuSans-2e" x="63.623047"/>
       <use xlink:href="#DejaVuSans-38" x="95.410156"/>
      </g>
     </g>
    </g>
    <g id="ytick_6">
     <g id="line2d_12">
      <g>
       <use xlink:href="#mf1f2ad8ed1" x="30.103125" y="22.318125" style="stroke: #000000; stroke-width: 0.8"/>
      </g>
     </g>
     <g id="text_12">
      <!-- 1.0 -->
      <g transform="translate(7.2 26.117344) scale(0.1 -0.1)">
       <use xlink:href="#DejaVuSans-31"/>
       <use xlink:href="#DejaVuSans-2e" x="63.623047"/>
       <use xlink:href="#DejaVuSans-30" x="95.410156"/>
      </g>
     </g>
    </g>
   </g>
   <g id="patch_3">
    <path d="M 30.103125 740.521395 
L 30.103125 22.318125 
" style="fill: none; stroke: #000000; stroke-width: 0.8; stroke-linejoin: miter; stroke-linecap: square"/>
   </g>
   <g id="patch_4">
    <path d="M 1217.247957 740.521395 
L 1217.247957 22.318125 
" style="fill: none; stroke: #000000; stroke-width: 0.8; stroke-linejoin: miter; stroke-linecap: square"/>
   </g>
   <g id="patch_5">
    <path d="M 30.103125 740.521395 
L 1217.247957 740.521395 
" style="fill: none; stroke: #000000; stroke-width: 0.8; stroke-linejoin: miter; stroke-linecap: square"/>
   </g>
   <g id="patch_6">
    <path d="M 30.103125 22.318125 
L 1217.247957 22.318125 
" style="fill: none; stroke: #000000; stroke-width: 0.8; stroke-linejoin: miter; stroke-linecap: square"/>
   </g>
   <g id="text_13">
    <!-- marat tyrosine -->
    <g transform="translate(579.558666 16.318125) scale(0.12 -0.12)">
     <defs>
      <path id="DejaVuSans-6d" d="M 3328 2828 
Q 3544 3216 3844 3400 
Q 4144 3584 4550 3584 
Q 5097 3584 5394 3201 
Q 5691 2819 5691 2113 
L 5691 0 
L 5113 0 
L 5113 2094 
Q 5113 2597 4934 2840 
Q 4756 3084 4391 3084 
Q 3944 3084 3684 2787 
Q 3425 2491 3425 1978 
L 3425 0 
L 2847 0 
L 2847 2094 
Q 2847 2600 2669 2842 
Q 2491 3084 2119 3084 
Q 1678 3084 1418 2786 
Q 1159 2488 1159 1978 
L 1159 0 
L 581 0 
L 581 3500 
L 1159 3500 
L 1159 2956 
Q 1356 3278 1631 3431 
Q 1906 3584 2284 3584 
Q 2666 3584 2933 3390 
Q 3200 3197 3328 2828 
z
" transform="scale(0.015625)"/>
      <path id="DejaVuSans-61" d="M 2194 1759 
Q 1497 1759 1228 1600 
Q 959 1441 959 1056 
Q 959 750 1161 570 
Q 1363 391 1709 391 
Q 2188 391 2477 730 
Q 2766 1069 2766 1631 
L 2766 1759 
L 2194 1759 
z
M 3341 1997 
L 3341 0 
L 2766 0 
L 2766 531 
Q 2569 213 2275 61 
Q 1981 -91 1556 -91 
Q 1019 -91 701 211 
Q 384 513 384 1019 
Q 384 1609 779 1909 
Q 1175 2209 1959 2209 
L 2766 2209 
L 2766 2266 
Q 2766 2663 2505 2880 
Q 2244 3097 1772 3097 
Q 1472 3097 1187 3025 
Q 903 2953 641 2809 
L 641 3341 
Q 956 3463 1253 3523 
Q 1550 3584 1831 3584 
Q 2591 3584 2966 3190 
Q 3341 2797 3341 1997 
z
" transform="scale(0.015625)"/>
      <path id="DejaVuSans-72" d="M 2631 2963 
Q 2534 3019 2420 3045 
Q 2306 3072 2169 3072 
Q 1681 3072 1420 2755 
Q 1159 2438 1159 1844 
L 1159 0 
L 581 0 
L 581 3500 
L 1159 3500 
L 1159 2956 
Q 1341 3275 1631 3429 
Q 1922 3584 2338 3584 
Q 2397 3584 2469 3576 
Q 2541 3569 2628 3553 
L 2631 2963 
z
" transform="scale(0.015625)"/>
      <path id="DejaVuSans-74" d="M 1172 4494 
L 1172 3500 
L 2356 3500 
L 2356 3053 
L 1172 3053 
L 1172 1153 
Q 1172 725 1289 603 
Q 1406 481 1766 481 
L 2356 481 
L 2356 0 
L 1766 0 
Q 1100 0 847 248 
Q 594 497 594 1153 
L 594 3053 
L 172 3053 
L 172 3500 
L 594 3500 
L 594 4494 
L 1172 4494 
z
" transform="scale(0.015625)"/>
      <path id="DejaVuSans-20" transform="scale(0.015625)"/>
      <path id="DejaVuSans-79" d="M 2059 -325 
Q 1816 -950 1584 -1140 
Q 1353 -1331 966 -1331 
L 506 -1331 
L 506 -850 
L 844 -850 
Q 1081 -850 1212 -737 
Q 1344 -625 1503 -206 
L 1606 56 
L 191 3500 
L 800 3500 
L 1894 763 
L 2988 3500 
L 3597 3500 
L 2059 -325 
z
" transform="scale(0.015625)"/>
      <path id="DejaVuSans-6f" d="M 1959 3097 
Q 1497 3097 1228 2736 
Q 959 2375 959 1747 
Q 959 1119 1226 758 
Q 1494 397 1959 397 
Q 2419 397 2687 759 
Q 2956 1122 2956 1747 
Q 2956 2369 2687 2733 
Q 2419 3097 1959 3097 
z
M 1959 3584 
Q 2709 3584 3137 3096 
Q 3566 2609 3566 1747 
Q 3566 888 3137 398 
Q 2709 -91 1959 -91 
Q 1206 -91 779 398 
Q 353 888 353 1747 
Q 353 2609 779 3096 
Q 1206 3584 1959 3584 
z
" transform="scale(0.015625)"/>
      <path id="DejaVuSans-73" d="M 2834 3397 
L 2834 2853 
Q 2591 2978 2328 3040 
Q 2066 3103 1784 3103 
Q 1356 3103 1142 2972 
Q 928 2841 928 2578 
Q 928 2378 1081 2264 
Q 1234 2150 1697 2047 
L 1894 2003 
Q 2506 1872 2764 1633 
Q 3022 1394 3022 966 
Q 3022 478 2636 193 
Q 2250 -91 1575 -91 
Q 1294 -91 989 -36 
Q 684 19 347 128 
L 347 722 
Q 666 556 975 473 
Q 1284 391 1588 391 
Q 1994 391 2212 530 
Q 2431 669 2431 922 
Q 2431 1156 2273 1281 
Q 2116 1406 1581 1522 
L 1381 1569 
Q 847 1681 609 1914 
Q 372 2147 372 2553 
Q 372 3047 722 3315 
Q 1072 3584 1716 3584 
Q 2034 3584 2315 3537 
Q 2597 3491 2834 3397 
z
" transform="scale(0.015625)"/>
      <path id="DejaVuSans-69" d="M 603 3500 
L 1178 3500 
L 1178 0 
L 603 0 
L 603 3500 
z
M 603 4863 
L 1178 4863 
L 1178 4134 
L 603 4134 
L 603 4863 
z
" transform="scale(0.015625)"/>
      <path id="DejaVuSans-6e" d="M 3513 2113 
L 3513 0 
L 2938 0 
L 2938 2094 
Q 2938 2591 2744 2837 
Q 2550 3084 2163 3084 
Q 1697 3084 1428 2787 
Q 1159 2491 1159 1978 
L 1159 0 
L 581 0 
L 581 3500 
L 1159 3500 
L 1159 2956 
Q 1366 3272 1645 3428 
Q 1925 3584 2291 3584 
Q 2894 3584 3203 3211 
Q 3513 2838 3513 2113 
z
" transform="scale(0.015625)"/>
      <path id="DejaVuSans-65" d="M 3597 1894 
L 3597 1613 
L 953 1613 
Q 991 1019 1311 708 
Q 1631 397 2203 397 
Q 2534 397 2845 478 
Q 3156 559 3463 722 
L 3463 178 
Q 3153 47 2828 -22 
Q 2503 -91 2169 -91 
Q 1331 -91 842 396 
Q 353 884 353 1716 
Q 353 2575 817 3079 
Q 1281 3584 2069 3584 
Q 2775 3584 3186 3129 
Q 3597 2675 3597 1894 
z
M 3022 2063 
Q 3016 2534 2758 2815 
Q 2500 3097 2075 3097 
Q 1594 3097 1305 2825 
Q 1016 2553 972 2059 
L 3022 2063 
z
" transform="scale(0.015625)"/>
     </defs>
     <use xlink:href="#DejaVuSans-6d"/>
     <use xlink:href="#DejaVuSans-61" x="97.412109"/>
     <use xlink:href="#DejaVuSans-72" x="158.691406"/>
     <use xlink:href="#DejaVuSans-61" x="199.804688"/>
     <use xlink:href="#DejaVuSans-74" x="261.083984"/>
     <use xlink:href="#DejaVuSans-20" x="300.292969"/>
     <use xlink:href="#DejaVuSans-74" x="332.080078"/>
     <use xlink:href="#DejaVuSans-79" x="371.289062"/>
     <use xlink:href="#DejaVuSans-72" x="430.46875"/>
     <use xlink:href="#DejaVuSans-6f" x="469.332031"/>
     <use xlink:href="#DejaVuSans-73" x="530.513672"/>
     <use xlink:href="#DejaVuSans-69" x="582.613281"/>
     <use xlink:href="#DejaVuSans-6e" x="610.396484"/>
     <use xlink:href="#DejaVuSans-65" x="673.775391"/>
    </g>
   </g>
  </g>
  <g id="axes_2">
   <g id="patch_7">
    <path d="M 38.482813 740.521395 
L 610.07976 740.521395 
L 610.07976 22.318125 
L 38.482813 22.318125 
z
" style="fill: #ffffff"/>
   </g>
   <g id="matplotlib.axis_3">
    <g id="xtick_7">
     <g id="line2d_13">
      <g>
       <use xlink:href="#m5b2bfe5c92" x="64.464492" y="740.521395" style="stroke: #000000; stroke-width: 0.8"/>
      </g>
     </g>
     <g id="text_14">
      <!-- 0 -->
      <g transform="translate(61.283242 755.119832) scale(0.1 -0.1)">
       <use xlink:href="#DejaVuSans-30"/>
      </g>
     </g>
    </g>
    <g id="xtick_8">
     <g id="line2d_14">
      <g>
       <use xlink:href="#m5b2bfe5c92" x="166.353431" y="740.521395" style="stroke: #000000; stroke-width: 0.8"/>
      </g>
     </g>
     <g id="text_15">
      <!-- 10 -->
      <g transform="translate(159.990931 755.119832) scale(0.1 -0.1)">
       <use xlink:href="#DejaVuSans-31"/>
       <use xlink:href="#DejaVuSans-30" x="63.623047"/>
      </g>
     </g>
    </g>
    <g id="xtick_9">
     <g id="line2d_15">
      <g>
       <use xlink:href="#m5b2bfe5c92" x="268.24237" y="740.521395" style="stroke: #000000; stroke-width: 0.8"/>
      </g>
     </g>
     <g id="text_16">
      <!-- 20 -->
      <g transform="translate(261.87987 755.119832) scale(0.1 -0.1)">
       <use xlink:href="#DejaVuSans-32"/>
       <use xlink:href="#DejaVuSans-30" x="63.623047"/>
      </g>
     </g>
    </g>
    <g id="xtick_10">
     <g id="line2d_16">
      <g>
       <use xlink:href="#m5b2bfe5c92" x="370.131309" y="740.521395" style="stroke: #000000; stroke-width: 0.8"/>
      </g>
     </g>
     <g id="text_17">
      <!-- 30 -->
      <g transform="translate(363.768809 755.119832) scale(0.1 -0.1)">
       <defs>
        <path id="DejaVuSans-33" d="M 2597 2516 
Q 3050 2419 3304 2112 
Q 3559 1806 3559 1356 
Q 3559 666 3084 287 
Q 2609 -91 1734 -91 
Q 1441 -91 1130 -33 
Q 819 25 488 141 
L 488 750 
Q 750 597 1062 519 
Q 1375 441 1716 441 
Q 2309 441 2620 675 
Q 2931 909 2931 1356 
Q 2931 1769 2642 2001 
Q 2353 2234 1838 2234 
L 1294 2234 
L 1294 2753 
L 1863 2753 
Q 2328 2753 2575 2939 
Q 2822 3125 2822 3475 
Q 2822 3834 2567 4026 
Q 2313 4219 1838 4219 
Q 1578 4219 1281 4162 
Q 984 4106 628 3988 
L 628 4550 
Q 988 4650 1302 4700 
Q 1616 4750 1894 4750 
Q 2613 4750 3031 4423 
Q 3450 4097 3450 3541 
Q 3450 3153 3228 2886 
Q 3006 2619 2597 2516 
z
" transform="scale(0.015625)"/>
       </defs>
       <use xlink:href="#DejaVuSans-33"/>
       <use xlink:href="#DejaVuSans-30" x="63.623047"/>
      </g>
     </g>
    </g>
    <g id="xtick_11">
     <g id="line2d_17">
      <g>
       <use xlink:href="#m5b2bfe5c92" x="472.020248" y="740.521395" style="stroke: #000000; stroke-width: 0.8"/>
      </g>
     </g>
     <g id="text_18">
      <!-- 40 -->
      <g transform="translate(465.657748 755.119832) scale(0.1 -0.1)">
       <use xlink:href="#DejaVuSans-34"/>
       <use xlink:href="#DejaVuSans-30" x="63.623047"/>
      </g>
     </g>
    </g>
    <g id="xtick_12">
     <g id="line2d_18">
      <g>
       <use xlink:href="#m5b2bfe5c92" x="573.909187" y="740.521395" style="stroke: #000000; stroke-width: 0.8"/>
      </g>
     </g>
     <g id="text_19">
      <!-- 50 -->
      <g transform="translate(567.546687 755.119832) scale(0.1 -0.1)">
       <defs>
        <path id="DejaVuSans-35" d="M 691 4666 
L 3169 4666 
L 3169 4134 
L 1269 4134 
L 1269 2991 
Q 1406 3038 1543 3061 
Q 1681 3084 1819 3084 
Q 2600 3084 3056 2656 
Q 3513 2228 3513 1497 
Q 3513 744 3044 326 
Q 2575 -91 1722 -91 
Q 1428 -91 1123 -41 
Q 819 9 494 109 
L 494 744 
Q 775 591 1075 516 
Q 1375 441 1709 441 
Q 2250 441 2565 725 
Q 2881 1009 2881 1497 
Q 2881 1984 2565 2268 
Q 2250 2553 1709 2553 
Q 1456 2553 1204 2497 
Q 953 2441 691 2322 
L 691 4666 
z
" transform="scale(0.015625)"/>
       </defs>
       <use xlink:href="#DejaVuSans-35"/>
       <use xlink:href="#DejaVuSans-30" x="63.623047"/>
      </g>
     </g>
    </g>
   </g>
   <g id="matplotlib.axis_4">
    <g id="ytick_7">
     <g id="line2d_19">
      <g>
       <use xlink:href="#mf1f2ad8ed1" x="38.482813" y="609.655197" style="stroke: #000000; stroke-width: 0.8"/>
      </g>
     </g>
     <g id="text_20">
      <!-- −0.4 -->
      <g transform="translate(7.2 613.454415) scale(0.1 -0.1)">
       <defs>
        <path id="DejaVuSans-2212" d="M 678 2272 
L 4684 2272 
L 4684 1741 
L 678 1741 
L 678 2272 
z
" transform="scale(0.015625)"/>
       </defs>
       <use xlink:href="#DejaVuSans-2212"/>
       <use xlink:href="#DejaVuSans-30" x="83.789062"/>
       <use xlink:href="#DejaVuSans-2e" x="147.412109"/>
       <use xlink:href="#DejaVuSans-34" x="179.199219"/>
      </g>
     </g>
    </g>
    <g id="ytick_8">
     <g id="line2d_20">
      <g>
       <use xlink:href="#mf1f2ad8ed1" x="38.482813" y="473.99179" style="stroke: #000000; stroke-width: 0.8"/>
      </g>
     </g>
     <g id="text_21">
      <!-- −0.2 -->
      <g transform="translate(7.2 477.791008) scale(0.1 -0.1)">
       <use xlink:href="#DejaVuSans-2212"/>
       <use xlink:href="#DejaVuSans-30" x="83.789062"/>
       <use xlink:href="#DejaVuSans-2e" x="147.412109"/>
       <use xlink:href="#DejaVuSans-32" x="179.199219"/>
      </g>
     </g>
    </g>
    <g id="ytick_9">
     <g id="line2d_21">
      <g>
       <use xlink:href="#mf1f2ad8ed1" x="38.482813" y="338.328382" style="stroke: #000000; stroke-width: 0.8"/>
      </g>
     </g>
     <g id="text_22">
      <!-- 0.0 -->
      <g transform="translate(15.579688 342.127601) scale(0.1 -0.1)">
       <use xlink:href="#DejaVuSans-30"/>
       <use xlink:href="#DejaVuSans-2e" x="63.623047"/>
       <use xlink:href="#DejaVuSans-30" x="95.410156"/>
      </g>
     </g>
    </g>
    <g id="ytick_10">
     <g id="line2d_22">
      <g>
       <use xlink:href="#mf1f2ad8ed1" x="38.482813" y="202.664975" style="stroke: #000000; stroke-width: 0.8"/>
      </g>
     </g>
     <g id="text_23">
      <!-- 0.2 -->
      <g transform="translate(15.579688 206.464194) scale(0.1 -0.1)">
       <use xlink:href="#DejaVuSans-30"/>
       <use xlink:href="#DejaVuSans-2e" x="63.623047"/>
       <use xlink:href="#DejaVuSans-32" x="95.410156"/>
      </g>
     </g>
    </g>
    <g id="ytick_11">
     <g id="line2d_23">
      <g>
       <use xlink:href="#mf1f2ad8ed1" x="38.482813" y="67.001568" style="stroke: #000000; stroke-width: 0.8"/>
      </g>
     </g>
     <g id="text_24">
      <!-- 0.4 -->
      <g transform="translate(15.579688 70.800787) scale(0.1 -0.1)">
       <use xlink:href="#DejaVuSans-30"/>
       <use xlink:href="#DejaVuSans-2e" x="63.623047"/>
       <use xlink:href="#DejaVuSans-34" x="95.410156"/>
      </g>
     </g>
    </g>
   </g>
   <g id="line2d_24">
    <path d="M 64.464492 429.818376 
L 74.653386 479.79879 
L 84.84228 536.613682 
L 95.031174 595.056167 
L 105.220068 668.632495 
L 115.408961 707.875792 
L 125.597855 604.039696 
L 135.786749 428.072187 
L 145.975643 383.416615 
L 156.164537 349.419836 
L 166.353431 341.795939 
L 176.542325 340.060242 
L 186.731219 338.961353 
L 196.920113 338.683214 
L 207.109006 338.548658 
L 217.2979 338.522682 
L 227.486794 338.485665 
L 237.675688 338.464812 
L 247.864582 338.44728 
L 258.053476 338.418123 
L 268.24237 338.440652 
L 278.431264 338.477809 
L 288.620158 338.485025 
L 298.809052 338.475037 
L 308.997945 338.484308 
L 319.186839 338.490203 
L 329.375733 338.4691 
L 339.564627 338.461232 
L 349.753521 338.473696 
L 359.942415 338.456335 
L 370.131309 338.449549 
L 380.320203 338.457725 
L 390.509097 338.477107 
L 400.69799 338.54097 
L 410.886884 338.567931 
L 421.075778 338.603571 
L 431.264672 338.629685 
L 441.453566 338.689809 
L 451.64246 338.817721 
L 461.831354 339.011633 
L 472.020248 339.317175 
L 482.209142 339.627397 
L 492.398036 339.75288 
L 502.586929 339.628527 
L 512.775823 339.312654 
L 522.964717 338.872423 
L 533.153611 338.602259 
L 543.342505 338.505561 
L 553.531399 338.504908 
L 563.720293 338.515682 
L 573.909187 338.500482 
L 584.098081 338.562101 
" clip-path="url(#p3c0088cbac)" style="fill: none; stroke: #1f77b4; stroke-width: 1.5; stroke-linecap: square"/>
   </g>
   <g id="line2d_25">
    <path d="M 64.464492 183.599844 
L 74.653386 153.656971 
L 84.84228 121.029946 
L 95.031174 95.435832 
L 105.220068 67.464219 
L 115.408961 54.963728 
L 125.597855 80.301682 
L 135.786749 127.224982 
L 145.975643 193.851664 
L 156.164537 253.020501 
L 166.353431 292.913787 
L 176.542325 312.79704 
L 186.731219 327.028498 
L 196.920113 333.396143 
L 207.109006 335.548709 
L 217.2979 336.302095 
L 227.486794 336.540444 
L 237.675688 336.769751 
L 247.864582 336.833456 
L 258.053476 336.943577 
L 268.24237 336.990379 
L 278.431264 337.202744 
L 288.620158 337.308821 
L 298.809052 337.432503 
L 308.997945 337.493421 
L 319.186839 337.562713 
L 329.375733 337.667377 
L 339.564627 337.702845 
L 349.753521 337.787466 
L 359.942415 337.790055 
L 370.131309 337.874364 
L 380.320203 337.873673 
L 390.509097 337.940656 
L 400.69799 337.965979 
L 410.886884 337.972262 
L 421.075778 337.983458 
L 431.264672 338.013035 
L 441.453566 338.018363 
L 451.64246 338.00989 
L 461.831354 338.022112 
L 472.020248 338.00183 
L 482.209142 337.97549 
L 492.398036 337.9651 
L 502.586929 337.987943 
L 512.775823 338.010416 
L 522.964717 338.03623 
L 533.153611 338.069711 
L 543.342505 338.096934 
L 553.531399 338.106807 
L 563.720293 338.108435 
L 573.909187 338.145153 
L 584.098081 338.119524 
" clip-path="url(#p3c0088cbac)" style="fill: none; stroke: #ff7f0e; stroke-width: 1.5; stroke-linecap: square"/>
   </g>
   <g id="line2d_26">
    <path d="M 64.464492 589.018002 
L 74.653386 550.045143 
L 84.84228 559.294389 
L 95.031174 539.711299 
L 105.220068 567.44577 
L 115.408961 571.050901 
L 125.597855 555.10948 
L 135.786749 520.282956 
L 145.975643 470.32361 
L 156.164537 452.972098 
L 166.353431 416.261392 
L 176.542325 419.522684 
L 186.731219 408.945462 
L 196.920113 399.676208 
L 207.109006 390.115598 
L 217.2979 384.918969 
L 227.486794 379.239701 
L 237.675688 376.277449 
L 247.864582 373.274587 
L 258.053476 372.452842 
L 268.24237 370.567038 
L 278.431264 369.968277 
L 288.620158 368.836407 
L 298.809052 367.102885 
L 308.997945 366.936377 
L 319.186839 366.005481 
L 329.375733 364.228324 
L 339.564627 363.778924 
L 349.753521 361.694931 
L 359.942415 361.540114 
L 370.131309 359.866434 
L 380.320203 359.08689 
L 390.509097 357.74271 
L 400.69799 356.946811 
L 410.886884 356.729672 
L 421.075778 356.827859 
L 431.264672 355.804517 
L 441.453566 355.371656 
L 451.64246 355.592222 
L 461.831354 354.771747 
L 472.020248 355.516836 
L 482.209142 356.662245 
L 492.398036 356.912216 
L 502.586929 355.432103 
L 512.775823 354.802398 
L 522.964717 354.701792 
L 533.153611 353.831443 
L 543.342505 352.267784 
L 553.531399 350.777936 
L 563.720293 350.721141 
L 573.909187 345.925332 
L 584.098081 348.950403 
" clip-path="url(#p3c0088cbac)" style="fill: none; stroke: #2ca02c; stroke-width: 1.5; stroke-linecap: square"/>
   </g>
   <g id="patch_8">
    <path d="M 38.482813 740.521395 
L 38.482813 22.318125 
" style="fill: none; stroke: #000000; stroke-width: 0.8; stroke-linejoin: miter; stroke-linecap: square"/>
   </g>
   <g id="patch_9">
    <path d="M 610.07976 740.521395 
L 610.07976 22.318125 
" style="fill: none; stroke: #000000; stroke-width: 0.8; stroke-linejoin: miter; stroke-linecap: square"/>
   </g>
   <g id="patch_10">
    <path d="M 38.482813 740.521395 
L 610.07976 740.521395 
" style="fill: none; stroke: #000000; stroke-width: 0.8; stroke-linejoin: miter; stroke-linecap: square"/>
   </g>
   <g id="patch_11">
    <path d="M 38.482813 22.318125 
L 610.07976 22.318125 
" style="fill: none; stroke: #000000; stroke-width: 0.8; stroke-linejoin: miter; stroke-linecap: square"/>
   </g>
   <g id="text_25">
    <!-- Excitation -->
    <g transform="translate(294.555974 16.318125) scale(0.12 -0.12)">
     <defs>
      <path id="DejaVuSans-45" d="M 628 4666 
L 3578 4666 
L 3578 4134 
L 1259 4134 
L 1259 2753 
L 3481 2753 
L 3481 2222 
L 1259 2222 
L 1259 531 
L 3634 531 
L 3634 0 
L 628 0 
L 628 4666 
z
" transform="scale(0.015625)"/>
      <path id="DejaVuSans-78" d="M 3513 3500 
L 2247 1797 
L 3578 0 
L 2900 0 
L 1881 1375 
L 863 0 
L 184 0 
L 1544 1831 
L 300 3500 
L 978 3500 
L 1906 2253 
L 2834 3500 
L 3513 3500 
z
" transform="scale(0.015625)"/>
      <path id="DejaVuSans-63" d="M 3122 3366 
L 3122 2828 
Q 2878 2963 2633 3030 
Q 2388 3097 2138 3097 
Q 1578 3097 1268 2742 
Q 959 2388 959 1747 
Q 959 1106 1268 751 
Q 1578 397 2138 397 
Q 2388 397 2633 464 
Q 2878 531 3122 666 
L 3122 134 
Q 2881 22 2623 -34 
Q 2366 -91 2075 -91 
Q 1284 -91 818 406 
Q 353 903 353 1747 
Q 353 2603 823 3093 
Q 1294 3584 2113 3584 
Q 2378 3584 2631 3529 
Q 2884 3475 3122 3366 
z
" transform="scale(0.015625)"/>
     </defs>
     <use xlink:href="#DejaVuSans-45"/>
     <use xlink:href="#DejaVuSans-78" x="63.183594"/>
     <use xlink:href="#DejaVuSans-63" x="120.613281"/>
     <use xlink:href="#DejaVuSans-69" x="175.59375"/>
     <use xlink:href="#DejaVuSans-74" x="203.376953"/>
     <use xlink:href="#DejaVuSans-61" x="242.585938"/>
     <use xlink:href="#DejaVuSans-74" x="303.865234"/>
     <use xlink:href="#DejaVuSans-69" x="343.074219"/>
     <use xlink:href="#DejaVuSans-6f" x="370.857422"/>
     <use xlink:href="#DejaVuSans-6e" x="432.039062"/>
    </g>
   </g>
   <g id="legend_1">
    <g id="patch_12">
     <path d="M 564.71726 74.3525 
L 603.07976 74.3525 
Q 605.07976 74.3525 605.07976 72.3525 
L 605.07976 29.318125 
Q 605.07976 27.318125 603.07976 27.318125 
L 564.71726 27.318125 
Q 562.71726 27.318125 562.71726 29.318125 
L 562.71726 72.3525 
Q 562.71726 74.3525 564.71726 74.3525 
z
" style="fill: #ffffff; opacity: 0.8; stroke: #cccccc; stroke-linejoin: miter"/>
    </g>
    <g id="line2d_27">
     <path d="M 566.71726 35.416562 
L 576.71726 35.416562 
L 586.71726 35.416562 
" style="fill: none; stroke: #1f77b4; stroke-width: 1.5; stroke-linecap: square"/>
    </g>
    <g id="text_26">
     <!-- 0 -->
     <g transform="translate(594.71726 38.916562) scale(0.1 -0.1)">
      <use xlink:href="#DejaVuSans-30"/>
     </g>
    </g>
    <g id="line2d_28">
     <path d="M 566.71726 50.094687 
L 576.71726 50.094687 
L 586.71726 50.094687 
" style="fill: none; stroke: #ff7f0e; stroke-width: 1.5; stroke-linecap: square"/>
    </g>
    <g id="text_27">
     <!-- 1 -->
     <g transform="translate(594.71726 53.594687) scale(0.1 -0.1)">
      <use xlink:href="#DejaVuSans-31"/>
     </g>
    </g>
    <g id="line2d_29">
     <path d="M 566.71726 64.772812 
L 576.71726 64.772812 
L 586.71726 64.772812 
" style="fill: none; stroke: #2ca02c; stroke-width: 1.5; stroke-linecap: square"/>
    </g>
    <g id="text_28">
     <!-- 2 -->
     <g transform="translate(594.71726 68.272812) scale(0.1 -0.1)">
      <use xlink:href="#DejaVuSans-32"/>
     </g>
    </g>
   </g>
  </g>
  <g id="axes_3">
   <g id="patch_13">
    <path d="M 653.602572 740.521395 
L 1225.19952 740.521395 
L 1225.19952 22.318125 
L 653.602572 22.318125 
z
" style="fill: #ffffff"/>
   </g>
   <g id="matplotlib.axis_5">
    <g id="xtick_13">
     <g id="line2d_30">
      <g>
       <use xlink:href="#m5b2bfe5c92" x="679.584252" y="740.521395" style="stroke: #000000; stroke-width: 0.8"/>
      </g>
     </g>
     <g id="text_29">
      <!-- 0 -->
      <g transform="translate(676.403002 755.119832) scale(0.1 -0.1)">
       <use xlink:href="#DejaVuSans-30"/>
      </g>
     </g>
    </g>
    <g id="xtick_14">
     <g id="line2d_31">
      <g>
       <use xlink:href="#m5b2bfe5c92" x="806.324152" y="740.521395" style="stroke: #000000; stroke-width: 0.8"/>
      </g>
     </g>
     <g id="text_30">
      <!-- 50 -->
      <g transform="translate(799.961652 755.119832) scale(0.1 -0.1)">
       <use xlink:href="#DejaVuSans-35"/>
       <use xlink:href="#DejaVuSans-30" x="63.623047"/>
      </g>
     </g>
    </g>
    <g id="xtick_15">
     <g id="line2d_32">
      <g>
       <use xlink:href="#m5b2bfe5c92" x="933.064051" y="740.521395" style="stroke: #000000; stroke-width: 0.8"/>
      </g>
     </g>
     <g id="text_31">
      <!-- 100 -->
      <g transform="translate(923.520301 755.119832) scale(0.1 -0.1)">
       <use xlink:href="#DejaVuSans-31"/>
       <use xlink:href="#DejaVuSans-30" x="63.623047"/>
       <use xlink:href="#DejaVuSans-30" x="127.246094"/>
      </g>
     </g>
    </g>
    <g id="xtick_16">
     <g id="line2d_33">
      <g>
       <use xlink:href="#m5b2bfe5c92" x="1059.803951" y="740.521395" style="stroke: #000000; stroke-width: 0.8"/>
      </g>
     </g>
     <g id="text_32">
      <!-- 150 -->
      <g transform="translate(1050.260201 755.119832) scale(0.1 -0.1)">
       <use xlink:href="#DejaVuSans-31"/>
       <use xlink:href="#DejaVuSans-35" x="63.623047"/>
       <use xlink:href="#DejaVuSans-30" x="127.246094"/>
      </g>
     </g>
    </g>
    <g id="xtick_17">
     <g id="line2d_34">
      <g>
       <use xlink:href="#m5b2bfe5c92" x="1186.543851" y="740.521395" style="stroke: #000000; stroke-width: 0.8"/>
      </g>
     </g>
     <g id="text_33">
      <!-- 200 -->
      <g transform="translate(1177.000101 755.119832) scale(0.1 -0.1)">
       <use xlink:href="#DejaVuSans-32"/>
       <use xlink:href="#DejaVuSans-30" x="63.623047"/>
       <use xlink:href="#DejaVuSans-30" x="127.246094"/>
      </g>
     </g>
    </g>
   </g>
   <g id="matplotlib.axis_6">
    <g id="ytick_12">
     <g id="line2d_35">
      <g>
       <use xlink:href="#mf1f2ad8ed1" x="653.602572" y="604.15183" style="stroke: #000000; stroke-width: 0.8"/>
      </g>
     </g>
     <g id="text_34">
      <!-- −0.2 -->
      <g transform="translate(622.31976 607.951048) scale(0.1 -0.1)">
       <use xlink:href="#DejaVuSans-2212"/>
       <use xlink:href="#DejaVuSans-30" x="83.789062"/>
       <use xlink:href="#DejaVuSans-2e" x="147.412109"/>
       <use xlink:href="#DejaVuSans-32" x="179.199219"/>
      </g>
     </g>
    </g>
    <g id="ytick_13">
     <g id="line2d_36">
      <g>
       <use xlink:href="#mf1f2ad8ed1" x="653.602572" y="466.295069" style="stroke: #000000; stroke-width: 0.8"/>
      </g>
     </g>
     <g id="text_35">
      <!-- −0.1 -->
      <g transform="translate(622.31976 470.094288) scale(0.1 -0.1)">
       <use xlink:href="#DejaVuSans-2212"/>
       <use xlink:href="#DejaVuSans-30" x="83.789062"/>
       <use xlink:href="#DejaVuSans-2e" x="147.412109"/>
       <use xlink:href="#DejaVuSans-31" x="179.199219"/>
      </g>
     </g>
    </g>
    <g id="ytick_14">
     <g id="line2d_37">
      <g>
       <use xlink:href="#mf1f2ad8ed1" x="653.602572" y="328.438309" style="stroke: #000000; stroke-width: 0.8"/>
      </g>
     </g>
     <g id="text_36">
      <!-- 0.0 -->
      <g transform="translate(630.699447 332.237528) scale(0.1 -0.1)">
       <use xlink:href="#DejaVuSans-30"/>
       <use xlink:href="#DejaVuSans-2e" x="63.623047"/>
       <use xlink:href="#DejaVuSans-30" x="95.410156"/>
      </g>
     </g>
    </g>
    <g id="ytick_15">
     <g id="line2d_38">
      <g>
       <use xlink:href="#mf1f2ad8ed1" x="653.602572" y="190.581549" style="stroke: #000000; stroke-width: 0.8"/>
      </g>
     </g>
     <g id="text_37">
      <!-- 0.1 -->
      <g transform="translate(630.699447 194.380768) scale(0.1 -0.1)">
       <use xlink:href="#DejaVuSans-30"/>
       <use xlink:href="#DejaVuSans-2e" x="63.623047"/>
       <use xlink:href="#DejaVuSans-31" x="95.410156"/>
      </g>
     </g>
    </g>
    <g id="ytick_16">
     <g id="line2d_39">
      <g>
       <use xlink:href="#mf1f2ad8ed1" x="653.602572" y="52.724789" style="stroke: #000000; stroke-width: 0.8"/>
      </g>
     </g>
     <g id="text_38">
      <!-- 0.2 -->
      <g transform="translate(630.699447 56.524007) scale(0.1 -0.1)">
       <use xlink:href="#DejaVuSans-30"/>
       <use xlink:href="#DejaVuSans-2e" x="63.623047"/>
       <use xlink:href="#DejaVuSans-32" x="95.410156"/>
      </g>
     </g>
    </g>
   </g>
   <g id="line2d_40">
    <path d="M 679.584252 328.438309 
L 697.327838 328.438309 
L 702.397434 329.232908 
L 707.46703 330.804724 
L 710.001828 331.454259 
L 712.536626 332.514856 
L 715.071424 333.426678 
L 717.606222 336.781907 
L 720.14102 339.380494 
L 722.675818 341.286143 
L 725.210616 357.289961 
L 727.745414 367.777046 
L 730.280212 401.0903 
L 732.81501 424.189838 
L 735.349808 445.701023 
L 737.884606 502.533724 
L 740.419404 552.363875 
L 742.954202 590.977756 
L 748.023798 660.248643 
L 750.558596 685.244379 
L 753.093394 700.203829 
L 755.628192 707.875792 
L 758.16299 706.196146 
L 760.697788 698.020698 
L 763.232586 683.922116 
L 765.767384 664.704009 
L 768.302182 640.251529 
L 775.906576 560.371519 
L 780.976172 501.90108 
L 783.51097 476.360328 
L 786.045768 448.492236 
L 788.580566 422.793993 
L 791.115364 398.95487 
L 798.719758 335.777357 
L 801.254556 323.361145 
L 806.324152 294.860316 
L 808.85895 285.083455 
L 811.393748 274.490531 
L 813.928546 269.087658 
L 816.463344 260.995531 
L 818.998142 256.444629 
L 821.53294 250.696805 
L 824.067738 248.810024 
L 826.602536 244.760954 
L 829.137334 244.858802 
L 831.672132 242.846189 
L 834.20693 246.656283 
L 836.741728 244.168166 
L 839.276526 249.348314 
L 841.811324 249.794106 
L 844.346121 252.803675 
L 846.880919 259.314611 
L 849.415717 259.106149 
L 851.950515 263.613803 
L 854.485313 270.48912 
L 857.020111 270.076507 
L 859.554909 273.626679 
L 862.089707 276.821639 
L 864.624505 281.988884 
L 867.159303 285.623854 
L 869.694101 287.772965 
L 872.228899 290.088023 
L 874.763697 293.888581 
L 877.298495 294.864014 
L 879.833293 299.11595 
L 882.368091 303.008662 
L 889.972485 307.077447 
L 892.507283 310.596229 
L 895.042081 312.696116 
L 897.576879 313.041459 
L 900.111677 316.325646 
L 902.646475 317.080721 
L 905.181273 318.895523 
L 907.716071 320.322822 
L 910.250869 321.183233 
L 912.785667 322.18321 
L 915.320465 324.235652 
L 917.855263 324.394296 
L 920.390061 324.762948 
L 925.459657 327.494732 
L 927.994455 328.416132 
L 930.529253 328.944191 
L 933.064051 328.71188 
L 935.598849 329.613178 
L 938.133647 329.817495 
L 940.668445 330.907738 
L 943.203243 330.735326 
L 945.738041 332.063205 
L 948.272839 331.80304 
L 950.807637 332.902623 
L 953.342435 333.45929 
L 958.412031 333.418611 
L 960.946829 334.968202 
L 963.481627 333.602829 
L 966.016425 334.233613 
L 968.551223 333.677335 
L 971.086021 334.866173 
L 976.155617 334.575389 
L 978.690415 333.996638 
L 981.225213 334.688531 
L 983.760011 334.286196 
L 986.294809 334.619431 
L 988.829607 334.679338 
L 991.364405 335.216973 
L 993.899203 335.285572 
L 998.968799 336.051377 
L 1001.503597 335.863225 
L 1004.038395 335.95554 
L 1006.573193 336.419819 
L 1009.107991 336.3222 
L 1011.642789 336.747022 
L 1014.177587 336.595923 
L 1016.712385 336.945937 
L 1024.316779 337.302564 
L 1052.199557 339.750036 
L 1054.734355 340.018559 
L 1057.269153 340.054997 
L 1059.803951 340.402947 
L 1062.338749 340.452323 
L 1064.873547 340.986945 
L 1067.408345 341.297501 
L 1069.943143 341.417201 
L 1072.477941 342.048227 
L 1075.012739 342.488122 
L 1077.547537 343.079982 
L 1082.617133 344.069622 
L 1085.151931 344.761641 
L 1087.686729 345.299636 
L 1092.756325 346.946504 
L 1095.291123 348.755032 
L 1097.825921 350.087436 
L 1100.360719 351.724769 
L 1102.895517 353.793553 
L 1105.430315 354.786505 
L 1107.965113 356.753414 
L 1110.499911 357.810745 
L 1113.034709 359.965519 
L 1115.569507 360.120353 
L 1118.104305 361.681961 
L 1120.639103 361.737857 
L 1123.173901 362.437674 
L 1125.708699 363.999017 
L 1128.243497 362.928252 
L 1130.778295 364.026666 
L 1133.313093 364.512178 
L 1135.847891 364.834564 
L 1138.382689 365.65285 
L 1140.917487 365.384665 
L 1143.452285 365.627447 
L 1145.987083 366.054891 
L 1148.521881 365.705289 
L 1151.056679 365.651531 
L 1153.591477 364.915727 
L 1161.195871 363.754915 
L 1163.730669 362.417318 
L 1166.265467 361.448848 
L 1168.800265 359.144197 
L 1173.869861 356.610866 
L 1176.404659 354.958539 
L 1178.939457 352.930973 
L 1181.474255 352.48054 
L 1184.009053 349.630522 
L 1186.543851 347.940307 
L 1189.078649 346.658523 
L 1191.613447 344.853518 
L 1194.148245 343.845328 
L 1196.683043 342.516891 
L 1199.217841 340.851118 
L 1199.217841 340.851118 
" clip-path="url(#p3b9ce4ad76)" style="fill: none; stroke: #1f77b4; stroke-width: 1.5; stroke-linecap: square"/>
   </g>
   <g id="line2d_41">
    <path d="M 679.584252 328.438309 
L 697.327838 328.438309 
L 702.397434 328.113229 
L 707.46703 327.488991 
L 715.071424 326.796005 
L 717.606222 325.936015 
L 720.14102 325.414555 
L 722.675818 325.163965 
L 725.210616 322.166454 
L 727.745414 320.914829 
L 730.280212 319.527135 
L 735.349808 314.124151 
L 737.884606 314.246063 
L 740.419404 310.200959 
L 742.954202 302.602034 
L 745.489 294.359067 
L 748.023798 287.349963 
L 753.093394 276.001707 
L 755.628192 271.918374 
L 758.16299 268.896299 
L 763.232586 262.109755 
L 765.767384 259.104267 
L 768.302182 255.481022 
L 770.83698 250.684085 
L 778.441374 231.372274 
L 780.976172 222.364171 
L 783.51097 212.802782 
L 786.045768 201.535289 
L 788.580566 189.412329 
L 791.115364 176.698151 
L 793.650162 158.981413 
L 796.18496 144.668146 
L 798.719758 132.567005 
L 801.254556 121.49415 
L 803.789354 108.543972 
L 806.324152 97.706565 
L 808.85895 89.378664 
L 811.393748 80.361265 
L 813.928546 72.576209 
L 816.463344 65.186955 
L 818.998142 62.035553 
L 821.53294 56.994535 
L 824.067738 54.963728 
L 826.602536 55.695525 
L 829.137334 59.629563 
L 831.672132 61.749104 
L 834.20693 64.444991 
L 836.741728 72.086444 
L 839.276526 77.984556 
L 841.811324 86.487912 
L 844.346121 94.232672 
L 846.880919 101.376989 
L 849.415717 115.654606 
L 851.950515 125.662185 
L 854.485313 131.775825 
L 857.020111 144.126664 
L 859.554909 152.370324 
L 862.089707 161.912712 
L 864.624505 170.03656 
L 874.763697 205.169423 
L 877.298495 212.727367 
L 879.833293 218.646142 
L 882.368091 223.922431 
L 884.902889 232.033415 
L 887.437687 238.516072 
L 892.507283 249.871825 
L 895.042081 254.596234 
L 897.576879 259.97243 
L 900.111677 264.681471 
L 902.646475 268.701005 
L 905.181273 272.441409 
L 907.716071 275.034636 
L 910.250869 278.91022 
L 912.785667 282.229051 
L 915.320465 284.381647 
L 917.855263 286.96813 
L 920.390061 290.020486 
L 922.924859 291.883288 
L 925.459657 293.16107 
L 933.064051 298.500566 
L 935.598849 299.994608 
L 938.133647 301.722796 
L 940.668445 301.899649 
L 943.203243 303.426425 
L 948.272839 305.315586 
L 950.807637 305.454185 
L 953.342435 306.343657 
L 955.877233 307.676541 
L 958.412031 307.680187 
L 960.946829 307.8105 
L 963.481627 308.18911 
L 966.016425 309.169773 
L 968.551223 309.693714 
L 971.086021 309.186786 
L 973.620819 309.612309 
L 976.155617 310.3889 
L 978.690415 310.100762 
L 981.225213 310.510226 
L 983.760011 311.330252 
L 988.829607 311.311025 
L 991.364405 311.631467 
L 993.899203 311.670307 
L 996.434001 311.27431 
L 998.968799 311.370258 
L 1001.503597 311.730807 
L 1004.038395 311.566389 
L 1006.573193 311.766684 
L 1011.642789 311.739304 
L 1014.177587 311.947567 
L 1016.712385 311.833815 
L 1021.781981 311.830098 
L 1024.316779 311.99739 
L 1031.921173 311.948494 
L 1036.990769 312.070286 
L 1044.595163 312.11857 
L 1052.199557 312.281294 
L 1057.269153 312.402037 
L 1059.803951 312.64763 
L 1062.338749 312.755319 
L 1064.873547 312.596747 
L 1069.943143 312.869191 
L 1072.477941 312.608031 
L 1075.012739 313.014292 
L 1080.082335 313.11401 
L 1082.617133 312.989417 
L 1085.151931 313.169321 
L 1087.686729 312.855183 
L 1090.221527 313.082126 
L 1092.756325 313.18272 
L 1095.291123 312.846317 
L 1100.360719 313.343168 
L 1102.895517 313.021878 
L 1105.430315 313.237334 
L 1107.965113 312.683976 
L 1110.499911 313.026448 
L 1113.034709 312.511559 
L 1115.569507 312.939483 
L 1118.104305 312.964167 
L 1120.639103 313.837635 
L 1123.173901 312.95373 
L 1125.708699 312.774659 
L 1128.243497 313.564615 
L 1130.778295 313.387971 
L 1133.313093 313.631755 
L 1135.847891 313.729962 
L 1140.917487 313.44155 
L 1143.452285 313.754255 
L 1145.987083 314.350174 
L 1148.521881 314.464669 
L 1151.056679 315.075064 
L 1156.126275 315.416517 
L 1161.195871 315.445042 
L 1163.730669 315.257733 
L 1166.265467 315.360194 
L 1168.800265 316.385258 
L 1171.335063 315.963045 
L 1173.869861 316.365338 
L 1176.404659 315.741115 
L 1178.939457 315.490395 
L 1181.474255 315.449085 
L 1184.009053 316.144417 
L 1186.543851 315.770148 
L 1191.613447 315.724051 
L 1194.148245 315.39122 
L 1196.683043 314.791938 
L 1199.217841 315.184796 
L 1199.217841 315.184796 
" clip-path="url(#p3b9ce4ad76)" style="fill: none; stroke: #ff7f0e; stroke-width: 1.5; stroke-linecap: square"/>
   </g>
   <g id="line2d_42">
    <path d="M 679.584252 328.438309 
L 697.327838 328.438309 
L 702.397434 328.84784 
L 710.001828 330.58469 
L 715.071424 330.058663 
L 717.606222 333.47544 
L 720.14102 335.171307 
L 722.675818 335.458358 
L 725.210616 345.936001 
L 727.745414 348.806629 
L 730.280212 333.224256 
L 732.81501 334.023378 
L 735.349808 339.869572 
L 737.884606 301.33683 
L 740.419404 294.631757 
L 742.954202 306.677632 
L 745.489 322.245145 
L 748.023798 334.536052 
L 750.558596 327.780088 
L 753.093394 331.811397 
L 755.628192 333.385948 
L 758.16299 336.338983 
L 760.697788 329.890155 
L 763.232586 331.590573 
L 765.767384 314.33314 
L 768.302182 304.481579 
L 770.83698 292.3856 
L 773.371778 288.105213 
L 775.906576 265.850281 
L 778.441374 246.905512 
L 780.976172 229.595206 
L 783.51097 219.957881 
L 786.045768 195.600549 
L 788.580566 176.570658 
L 791.115364 161.549615 
L 793.650162 188.38206 
L 796.18496 182.462149 
L 798.719758 173.566017 
L 801.254556 160.096301 
L 803.789354 164.465558 
L 806.324152 177.612248 
L 808.85895 175.231192 
L 811.393748 189.208025 
L 813.928546 205.909719 
L 816.463344 234.280051 
L 818.998142 235.659389 
L 821.53294 254.948312 
L 824.067738 275.407318 
L 826.602536 297.172223 
L 829.137334 300.062288 
L 834.20693 342.475566 
L 836.741728 343.557964 
L 839.276526 363.864004 
L 841.811324 375.996222 
L 844.346121 401.650703 
L 846.880919 417.277081 
L 849.415717 402.815942 
L 851.950515 411.03081 
L 854.485313 440.812665 
L 857.020111 428.534044 
L 859.554909 438.286523 
L 862.089707 451.311021 
L 864.624505 450.990515 
L 867.159303 457.892996 
L 869.694101 459.357481 
L 872.228899 456.221419 
L 874.763697 451.66358 
L 877.298495 446.746285 
L 882.368091 467.784166 
L 884.902889 457.093503 
L 887.437687 444.664225 
L 889.972485 451.174442 
L 892.507283 444.533828 
L 895.042081 445.459239 
L 897.576879 448.743294 
L 900.111677 445.787613 
L 902.646475 437.201204 
L 905.181273 441.949394 
L 907.716071 444.82014 
L 910.250869 438.022484 
L 912.785667 433.642481 
L 915.320465 438.066162 
L 917.855263 435.606451 
L 920.390061 428.715395 
L 922.924859 430.526961 
L 925.459657 433.543407 
L 927.994455 430.532524 
L 930.529253 429.68215 
L 933.064051 431.331375 
L 935.598849 428.849498 
L 938.133647 425.085769 
L 940.668445 431.486687 
L 943.203243 435.352625 
L 945.738041 431.120533 
L 948.272839 430.304604 
L 950.807637 433.701372 
L 953.342435 436.027264 
L 955.877233 428.832433 
L 958.412031 432.290125 
L 960.946829 438.393389 
L 963.481627 438.73126 
L 966.016425 435.401372 
L 968.551223 434.486501 
L 971.086021 439.885991 
L 973.620819 441.882058 
L 976.155617 437.786852 
L 978.690415 441.184422 
L 981.225213 441.626158 
L 983.760011 436.979146 
L 986.294809 439.412403 
L 988.829607 439.371227 
L 991.364405 439.562649 
L 993.899203 440.645017 
L 996.434001 444.55079 
L 998.968799 445.993981 
L 1001.503597 444.438739 
L 1004.038395 446.422486 
L 1006.573193 446.083932 
L 1009.107991 446.872145 
L 1014.177587 446.738387 
L 1016.712385 448.502999 
L 1021.781981 450.181426 
L 1024.316779 449.872754 
L 1026.851577 450.46429 
L 1029.386375 451.569746 
L 1031.921173 451.690539 
L 1034.455971 451.145261 
L 1036.990769 451.798065 
L 1039.525567 451.613301 
L 1042.060365 451.893988 
L 1047.129961 451.688917 
L 1049.664759 450.784726 
L 1052.199557 451.356926 
L 1054.734355 451.774146 
L 1057.269153 451.09229 
L 1059.803951 447.512459 
L 1062.338749 447.763871 
L 1064.873547 449.804874 
L 1067.408345 448.790228 
L 1069.943143 448.426848 
L 1072.477941 451.258683 
L 1075.012739 447.94455 
L 1077.547537 449.3241 
L 1080.082335 447.984234 
L 1082.617133 448.772632 
L 1085.151931 445.562929 
L 1087.686729 446.741157 
L 1090.221527 445.344009 
L 1092.756325 444.551929 
L 1095.291123 446.430706 
L 1097.825921 440.877834 
L 1100.360719 434.356696 
L 1102.895517 440.501949 
L 1105.430315 433.969626 
L 1107.965113 436.545553 
L 1110.499911 435.916456 
L 1113.034709 437.019113 
L 1115.569507 433.540756 
L 1118.104305 433.218255 
L 1120.639103 423.303464 
L 1123.173901 428.423606 
L 1125.708699 431.521508 
L 1128.243497 421.547461 
L 1130.778295 422.629335 
L 1133.313093 419.913795 
L 1135.847891 417.82393 
L 1138.382689 420.19961 
L 1140.917487 418.294176 
L 1145.987083 409.104011 
L 1148.521881 407.279759 
L 1151.056679 400.618497 
L 1153.591477 397.641144 
L 1156.126275 392.808453 
L 1158.661073 392.679616 
L 1161.195871 389.48211 
L 1163.730669 389.032149 
L 1166.265467 385.140398 
L 1168.800265 375.396186 
L 1171.335063 376.455963 
L 1173.869861 371.400462 
L 1176.404659 372.26874 
L 1178.939457 370.45402 
L 1181.474255 367.784099 
L 1184.009053 361.879644 
L 1186.543851 361.029673 
L 1189.078649 356.19292 
L 1191.613447 350.813432 
L 1194.148245 352.657314 
L 1196.683043 352.602594 
L 1199.217841 339.668726 
L 1199.217841 339.668726 
" clip-path="url(#p3b9ce4ad76)" style="fill: none; stroke: #2ca02c; stroke-width: 1.5; stroke-linecap: square"/>
   </g>
   <g id="patch_14">
    <path d="M 653.602572 740.521395 
L 653.602572 22.318125 
" style="fill: none; stroke: #000000; stroke-width: 0.8; stroke-linejoin: miter; stroke-linecap: square"/>
   </g>
   <g id="patch_15">
    <path d="M 1225.19952 740.521395 
L 1225.19952 22.318125 
" style="fill: none; stroke: #000000; stroke-width: 0.8; stroke-linejoin: miter; stroke-linecap: square"/>
   </g>
   <g id="patch_16">
    <path d="M 653.602572 740.521395 
L 1225.19952 740.521395 
" style="fill: none; stroke: #000000; stroke-width: 0.8; stroke-linejoin: miter; stroke-linecap: square"/>
   </g>
   <g id="patch_17">
    <path d="M 653.602572 22.318125 
L 1225.19952 22.318125 
" style="fill: none; stroke: #000000; stroke-width: 0.8; stroke-linejoin: miter; stroke-linecap: square"/>
   </g>
   <g id="text_39">
    <!-- Emission -->
    <g transform="translate(912.706671 16.318125) scale(0.12 -0.12)">
     <use xlink:href="#DejaVuSans-45"/>
     <use xlink:href="#DejaVuSans-6d" x="63.183594"/>
     <use xlink:href="#DejaVuSans-69" x="160.595703"/>
     <use xlink:href="#DejaVuSans-73" x="188.378906"/>
     <use xlink:href="#DejaVuSans-73" x="240.478516"/>
     <use xlink:href="#DejaVuSans-69" x="292.578125"/>
     <use xlink:href="#DejaVuSans-6f" x="320.361328"/>
     <use xlink:href="#DejaVuSans-6e" x="381.542969"/>
    </g>
   </g>
   <g id="legend_2">
    <g id="patch_18">
     <path d="M 1179.83702 74.3525 
L 1218.19952 74.3525 
Q 1220.19952 74.3525 1220.19952 72.3525 
L 1220.19952 29.318125 
Q 1220.19952 27.318125 1218.19952 27.318125 
L 1179.83702 27.318125 
Q 1177.83702 27.318125 1177.83702 29.318125 
L 1177.83702 72.3525 
Q 1177.83702 74.3525 1179.83702 74.3525 
z
" style="fill: #ffffff; opacity: 0.8; stroke: #cccccc; stroke-linejoin: miter"/>
    </g>
    <g id="line2d_43">
     <path d="M 1181.83702 35.416562 
L 1191.83702 35.416562 
L 1201.83702 35.416562 
" style="fill: none; stroke: #1f77b4; stroke-width: 1.5; stroke-linecap: square"/>
    </g>
    <g id="text_40">
     <!-- 0 -->
     <g transform="translate(1209.83702 38.916562) scale(0.1 -0.1)">
      <use xlink:href="#DejaVuSans-30"/>
     </g>
    </g>
    <g id="line2d_44">
     <path d="M 1181.83702 50.094687 
L 1191.83702 50.094687 
L 1201.83702 50.094687 
" style="fill: none; stroke: #ff7f0e; stroke-width: 1.5; stroke-linecap: square"/>
    </g>
    <g id="text_41">
     <!-- 1 -->
     <g transform="translate(1209.83702 53.594687) scale(0.1 -0.1)">
      <use xlink:href="#DejaVuSans-31"/>
     </g>
    </g>
    <g id="line2d_45">
     <path d="M 1181.83702 64.772812 
L 1191.83702 64.772812 
L 1201.83702 64.772812 
" style="fill: none; stroke: #2ca02c; stroke-width: 1.5; stroke-linecap: square"/>
    </g>
    <g id="text_42">
     <!-- 2 -->
     <g transform="translate(1209.83702 68.272812) scale(0.1 -0.1)">
      <use xlink:href="#DejaVuSans-32"/>
     </g>
    </g>
   </g>
  </g>
 </g>
 <defs>
  <clipPath id="p3c0088cbac">
   <rect x="38.482813" y="22.318125" width="571.596947" height="718.20327"/>
  </clipPath>
  <clipPath id="p3b9ce4ad76">
   <rect x="653.602572" y="22.318125" width="571.596947" height="718.20327"/>
  </clipPath>
 </defs>
</svg>
