<?xml version="1.0" encoding="utf-8" standalone="no"?>
<!DOCTYPE svg PUBLIC "-//W3C//DTD SVG 1.1//EN"
  "http://www.w3.org/Graphics/SVG/1.1/DTD/svg11.dtd">
<svg xmlns:xlink="http://www.w3.org/1999/xlink" width="1232.39952pt" height="764.39952pt" viewBox="0 0 1232.39952 764.39952" xmlns="http://www.w3.org/2000/svg" version="1.1">
 <metadata>
  <rdf:RDF xmlns:dc="http://purl.org/dc/elements/1.1/" xmlns:cc="http://creativecommons.org/ns#" xmlns:rdf="http://www.w3.org/1999/02/22-rdf-syntax-ns#">
   <cc:Work>
    <dc:type rdf:resource="http://purl.org/dc/dcmitype/StillImage"/>
    <dc:date>2023-10-12T12:14:09.846488</dc:date>
    <dc:format>image/svg+xml</dc:format>
    <dc:creator>
     <cc:Agent>
      <dc:title>Matplotlib v3.8.0, https://matplotlib.org/</dc:title>
     </cc:Agent>
    </dc:creator>
   </cc:Work>
  </rdf:RDF>
 </metadata>
 <defs>
  <style type="text/css">*{stroke-linejoin: round; stroke-linecap: butt}</style>
 </defs>
 <g id="figure_1">
  <g id="patch_1">
   <path d="M 0 764.39952 
L 1232.39952 764.39952 
L 1232.39952 0 
L 0 0 
z
" style="fill: #ffffff"/>
  </g>
  <g id="axes_1">
   <g id="patch_2">
    <path d="M 30.103125 740.521395 
L 1217.247957 740.521395 
L 1217.247957 22.318125 
L 30.103125 22.318125 
z
" style="fill: #ffffff"/>
   </g>
   <g id="matplotlib.axis_1">
    <g id="xtick_1">
     <g id="line2d_1">
      <defs>
       <path id="m690e7d4f23" d="M 0 0 
L 0 3.5 
" style="stroke: #000000; stroke-width: 0.8"/>
      </defs>
      <g>
       <use xlink:href="#m690e7d4f23" x="30.103125" y="740.521395" style="stroke: #000000; stroke-width: 0.8"/>
      </g>
     </g>
     <g id="text_1">
      <!-- 0.0 -->
      <g transform="translate(22.151563 755.119832) scale(0.1 -0.1)">
       <defs>
        <path id="DejaVuSans-30" d="M 2034 4250 
Q 1547 4250 1301 3770 
Q 1056 3291 1056 2328 
Q 1056 1369 1301 889 
Q 1547 409 2034 409 
Q 2525 409 2770 889 
Q 3016 1369 3016 2328 
Q 3016 3291 2770 3770 
Q 2525 4250 2034 4250 
z
M 2034 4750 
Q 2819 4750 3233 4129 
Q 3647 3509 3647 2328 
Q 3647 1150 3233 529 
Q 2819 -91 2034 -91 
Q 1250 -91 836 529 
Q 422 1150 422 2328 
Q 422 3509 836 4129 
Q 1250 4750 2034 4750 
z
" transform="scale(0.015625)"/>
        <path id="DejaVuSans-2e" d="M 684 794 
L 1344 794 
L 1344 0 
L 684 0 
L 684 794 
z
" transform="scale(0.015625)"/>
       </defs>
       <use xlink:href="#DejaVuSans-30"/>
       <use xlink:href="#DejaVuSans-2e" x="63.623047"/>
       <use xlink:href="#DejaVuSans-30" x="95.410156"/>
      </g>
     </g>
    </g>
    <g id="xtick_2">
     <g id="line2d_2">
      <g>
       <use xlink:href="#m690e7d4f23" x="267.532091" y="740.521395" style="stroke: #000000; stroke-width: 0.8"/>
      </g>
     </g>
     <g id="text_2">
      <!-- 0.2 -->
      <g transform="translate(259.580529 755.119832) scale(0.1 -0.1)">
       <defs>
        <path id="DejaVuSans-32" d="M 1228 531 
L 3431 531 
L 3431 0 
L 469 0 
L 469 531 
Q 828 903 1448 1529 
Q 2069 2156 2228 2338 
Q 2531 2678 2651 2914 
Q 2772 3150 2772 3378 
Q 2772 3750 2511 3984 
Q 2250 4219 1831 4219 
Q 1534 4219 1204 4116 
Q 875 4013 500 3803 
L 500 4441 
Q 881 4594 1212 4672 
Q 1544 4750 1819 4750 
Q 2544 4750 2975 4387 
Q 3406 4025 3406 3419 
Q 3406 3131 3298 2873 
Q 3191 2616 2906 2266 
Q 2828 2175 2409 1742 
Q 1991 1309 1228 531 
z
" transform="scale(0.015625)"/>
       </defs>
       <use xlink:href="#DejaVuSans-30"/>
       <use xlink:href="#DejaVuSans-2e" x="63.623047"/>
       <use xlink:href="#DejaVuSans-32" x="95.410156"/>
      </g>
     </g>
    </g>
    <g id="xtick_3">
     <g id="line2d_3">
      <g>
       <use xlink:href="#m690e7d4f23" x="504.961058" y="740.521395" style="stroke: #000000; stroke-width: 0.8"/>
      </g>
     </g>
     <g id="text_3">
      <!-- 0.4 -->
      <g transform="translate(497.009495 755.119832) scale(0.1 -0.1)">
       <defs>
        <path id="DejaVuSans-34" d="M 2419 4116 
L 825 1625 
L 2419 1625 
L 2419 4116 
z
M 2253 4666 
L 3047 4666 
L 3047 1625 
L 3713 1625 
L 3713 1100 
L 3047 1100 
L 3047 0 
L 2419 0 
L 2419 1100 
L 313 1100 
L 313 1709 
L 2253 4666 
z
" transform="scale(0.015625)"/>
       </defs>
       <use xlink:href="#DejaVuSans-30"/>
       <use xlink:href="#DejaVuSans-2e" x="63.623047"/>
       <use xlink:href="#DejaVuSans-34" x="95.410156"/>
      </g>
     </g>
    </g>
    <g id="xtick_4">
     <g id="line2d_4">
      <g>
       <use xlink:href="#m690e7d4f23" x="742.390024" y="740.521395" style="stroke: #000000; stroke-width: 0.8"/>
      </g>
     </g>
     <g id="text_4">
      <!-- 0.6 -->
      <g transform="translate(734.438462 755.119832) scale(0.1 -0.1)">
       <defs>
        <path id="DejaVuSans-36" d="M 2113 2584 
Q 1688 2584 1439 2293 
Q 1191 2003 1191 1497 
Q 1191 994 1439 701 
Q 1688 409 2113 409 
Q 2538 409 2786 701 
Q 3034 994 3034 1497 
Q 3034 2003 2786 2293 
Q 2538 2584 2113 2584 
z
M 3366 4563 
L 3366 3988 
Q 3128 4100 2886 4159 
Q 2644 4219 2406 4219 
Q 1781 4219 1451 3797 
Q 1122 3375 1075 2522 
Q 1259 2794 1537 2939 
Q 1816 3084 2150 3084 
Q 2853 3084 3261 2657 
Q 3669 2231 3669 1497 
Q 3669 778 3244 343 
Q 2819 -91 2113 -91 
Q 1303 -91 875 529 
Q 447 1150 447 2328 
Q 447 3434 972 4092 
Q 1497 4750 2381 4750 
Q 2619 4750 2861 4703 
Q 3103 4656 3366 4563 
z
" transform="scale(0.015625)"/>
       </defs>
       <use xlink:href="#DejaVuSans-30"/>
       <use xlink:href="#DejaVuSans-2e" x="63.623047"/>
       <use xlink:href="#DejaVuSans-36" x="95.410156"/>
      </g>
     </g>
    </g>
    <g id="xtick_5">
     <g id="line2d_5">
      <g>
       <use xlink:href="#m690e7d4f23" x="979.818991" y="740.521395" style="stroke: #000000; stroke-width: 0.8"/>
      </g>
     </g>
     <g id="text_5">
      <!-- 0.8 -->
      <g transform="translate(971.867428 755.119832) scale(0.1 -0.1)">
       <defs>
        <path id="DejaVuSans-38" d="M 2034 2216 
Q 1584 2216 1326 1975 
Q 1069 1734 1069 1313 
Q 1069 891 1326 650 
Q 1584 409 2034 409 
Q 2484 409 2743 651 
Q 3003 894 3003 1313 
Q 3003 1734 2745 1975 
Q 2488 2216 2034 2216 
z
M 1403 2484 
Q 997 2584 770 2862 
Q 544 3141 544 3541 
Q 544 4100 942 4425 
Q 1341 4750 2034 4750 
Q 2731 4750 3128 4425 
Q 3525 4100 3525 3541 
Q 3525 3141 3298 2862 
Q 3072 2584 2669 2484 
Q 3125 2378 3379 2068 
Q 3634 1759 3634 1313 
Q 3634 634 3220 271 
Q 2806 -91 2034 -91 
Q 1263 -91 848 271 
Q 434 634 434 1313 
Q 434 1759 690 2068 
Q 947 2378 1403 2484 
z
M 1172 3481 
Q 1172 3119 1398 2916 
Q 1625 2713 2034 2713 
Q 2441 2713 2670 2916 
Q 2900 3119 2900 3481 
Q 2900 3844 2670 4047 
Q 2441 4250 2034 4250 
Q 1625 4250 1398 4047 
Q 1172 3844 1172 3481 
z
" transform="scale(0.015625)"/>
       </defs>
       <use xlink:href="#DejaVuSans-30"/>
       <use xlink:href="#DejaVuSans-2e" x="63.623047"/>
       <use xlink:href="#DejaVuSans-38" x="95.410156"/>
      </g>
     </g>
    </g>
    <g id="xtick_6">
     <g id="line2d_6">
      <g>
       <use xlink:href="#m690e7d4f23" x="1217.247957" y="740.521395" style="stroke: #000000; stroke-width: 0.8"/>
      </g>
     </g>
     <g id="text_6">
      <!-- 1.0 -->
      <g transform="translate(1209.296395 755.119832) scale(0.1 -0.1)">
       <defs>
        <path id="DejaVuSans-31" d="M 794 531 
L 1825 531 
L 1825 4091 
L 703 3866 
L 703 4441 
L 1819 4666 
L 2450 4666 
L 2450 531 
L 3481 531 
L 3481 0 
L 794 0 
L 794 531 
z
" transform="scale(0.015625)"/>
       </defs>
       <use xlink:href="#DejaVuSans-31"/>
       <use xlink:href="#DejaVuSans-2e" x="63.623047"/>
       <use xlink:href="#DejaVuSans-30" x="95.410156"/>
      </g>
     </g>
    </g>
   </g>
   <g id="matplotlib.axis_2">
    <g id="ytick_1">
     <g id="line2d_7">
      <defs>
       <path id="m696ccf48ae" d="M 0 0 
L -3.5 0 
" style="stroke: #000000; stroke-width: 0.8"/>
      </defs>
      <g>
       <use xlink:href="#m696ccf48ae" x="30.103125" y="740.521395" style="stroke: #000000; stroke-width: 0.8"/>
      </g>
     </g>
     <g id="text_7">
      <!-- 0.0 -->
      <g transform="translate(7.2 744.320614) scale(0.1 -0.1)">
       <use xlink:href="#DejaVuSans-30"/>
       <use xlink:href="#DejaVuSans-2e" x="63.623047"/>
       <use xlink:href="#DejaVuSans-30" x="95.410156"/>
      </g>
     </g>
    </g>
    <g id="ytick_2">
     <g id="line2d_8">
      <g>
       <use xlink:href="#m696ccf48ae" x="30.103125" y="596.880741" style="stroke: #000000; stroke-width: 0.8"/>
      </g>
     </g>
     <g id="text_8">
      <!-- 0.2 -->
      <g transform="translate(7.2 600.67996) scale(0.1 -0.1)">
       <use xlink:href="#DejaVuSans-30"/>
       <use xlink:href="#DejaVuSans-2e" x="63.623047"/>
       <use xlink:href="#DejaVuSans-32" x="95.410156"/>
      </g>
     </g>
    </g>
    <g id="ytick_3">
     <g id="line2d_9">
      <g>
       <use xlink:href="#m696ccf48ae" x="30.103125" y="453.240087" style="stroke: #000000; stroke-width: 0.8"/>
      </g>
     </g>
     <g id="text_9">
      <!-- 0.4 -->
      <g transform="translate(7.2 457.039306) scale(0.1 -0.1)">
       <use xlink:href="#DejaVuSans-30"/>
       <use xlink:href="#DejaVuSans-2e" x="63.623047"/>
       <use xlink:href="#DejaVuSans-34" x="95.410156"/>
      </g>
     </g>
    </g>
    <g id="ytick_4">
     <g id="line2d_10">
      <g>
       <use xlink:href="#m696ccf48ae" x="30.103125" y="309.599433" style="stroke: #000000; stroke-width: 0.8"/>
      </g>
     </g>
     <g id="text_10">
      <!-- 0.6 -->
      <g transform="translate(7.2 313.398652) scale(0.1 -0.1)">
       <use xlink:href="#DejaVuSans-30"/>
       <use xlink:href="#DejaVuSans-2e" x="63.623047"/>
       <use xlink:href="#DejaVuSans-36" x="95.410156"/>
      </g>
     </g>
    </g>
    <g id="ytick_5">
     <g id="line2d_11">
      <g>
       <use xlink:href="#m696ccf48ae" x="30.103125" y="165.958779" style="stroke: #000000; stroke-width: 0.8"/>
      </g>
     </g>
     <g id="text_11">
      <!-- 0.8 -->
      <g transform="translate(7.2 169.757998) scale(0.1 -0.1)">
       <use xlink:href="#DejaVuSans-30"/>
       <use xlink:href="#DejaVuSans-2e" x="63.623047"/>
       <use xlink:href="#DejaVuSans-38" x="95.410156"/>
      </g>
     </g>
    </g>
    <g id="ytick_6">
     <g id="line2d_12">
      <g>
       <use xlink:href="#m696ccf48ae" x="30.103125" y="22.318125" style="stroke: #000000; stroke-width: 0.8"/>
      </g>
     </g>
     <g id="text_12">
      <!-- 1.0 -->
      <g transform="translate(7.2 26.117344) scale(0.1 -0.1)">
       <use xlink:href="#DejaVuSans-31"/>
       <use xlink:href="#DejaVuSans-2e" x="63.623047"/>
       <use xlink:href="#DejaVuSans-30" x="95.410156"/>
      </g>
     </g>
    </g>
   </g>
   <g id="patch_3">
    <path d="M 30.103125 740.521395 
L 30.103125 22.318125 
" style="fill: none; stroke: #000000; stroke-width: 0.8; stroke-linejoin: miter; stroke-linecap: square"/>
   </g>
   <g id="patch_4">
    <path d="M 1217.247957 740.521395 
L 1217.247957 22.318125 
" style="fill: none; stroke: #000000; stroke-width: 0.8; stroke-linejoin: miter; stroke-linecap: square"/>
   </g>
   <g id="patch_5">
    <path d="M 30.103125 740.521395 
L 1217.247957 740.521395 
" style="fill: none; stroke: #000000; stroke-width: 0.8; stroke-linejoin: miter; stroke-linecap: square"/>
   </g>
   <g id="patch_6">
    <path d="M 30.103125 22.318125 
L 1217.247957 22.318125 
" style="fill: none; stroke: #000000; stroke-width: 0.8; stroke-linejoin: miter; stroke-linecap: square"/>
   </g>
   <g id="text_13">
    <!-- dorrit hydroquinone -->
    <g transform="translate(564.028979 16.318125) scale(0.12 -0.12)">
     <defs>
      <path id="DejaVuSans-64" d="M 2906 2969 
L 2906 4863 
L 3481 4863 
L 3481 0 
L 2906 0 
L 2906 525 
Q 2725 213 2448 61 
Q 2172 -91 1784 -91 
Q 1150 -91 751 415 
Q 353 922 353 1747 
Q 353 2572 751 3078 
Q 1150 3584 1784 3584 
Q 2172 3584 2448 3432 
Q 2725 3281 2906 2969 
z
M 947 1747 
Q 947 1113 1208 752 
Q 1469 391 1925 391 
Q 2381 391 2643 752 
Q 2906 1113 2906 1747 
Q 2906 2381 2643 2742 
Q 2381 3103 1925 3103 
Q 1469 3103 1208 2742 
Q 947 2381 947 1747 
z
" transform="scale(0.015625)"/>
      <path id="DejaVuSans-6f" d="M 1959 3097 
Q 1497 3097 1228 2736 
Q 959 2375 959 1747 
Q 959 1119 1226 758 
Q 1494 397 1959 397 
Q 2419 397 2687 759 
Q 2956 1122 2956 1747 
Q 2956 2369 2687 2733 
Q 2419 3097 1959 3097 
z
M 1959 3584 
Q 2709 3584 3137 3096 
Q 3566 2609 3566 1747 
Q 3566 888 3137 398 
Q 2709 -91 1959 -91 
Q 1206 -91 779 398 
Q 353 888 353 1747 
Q 353 2609 779 3096 
Q 1206 3584 1959 3584 
z
" transform="scale(0.015625)"/>
      <path id="DejaVuSans-72" d="M 2631 2963 
Q 2534 3019 2420 3045 
Q 2306 3072 2169 3072 
Q 1681 3072 1420 2755 
Q 1159 2438 1159 1844 
L 1159 0 
L 581 0 
L 581 3500 
L 1159 3500 
L 1159 2956 
Q 1341 3275 1631 3429 
Q 1922 3584 2338 3584 
Q 2397 3584 2469 3576 
Q 2541 3569 2628 3553 
L 2631 2963 
z
" transform="scale(0.015625)"/>
      <path id="DejaVuSans-69" d="M 603 3500 
L 1178 3500 
L 1178 0 
L 603 0 
L 603 3500 
z
M 603 4863 
L 1178 4863 
L 1178 4134 
L 603 4134 
L 603 4863 
z
" transform="scale(0.015625)"/>
      <path id="DejaVuSans-74" d="M 1172 4494 
L 1172 3500 
L 2356 3500 
L 2356 3053 
L 1172 3053 
L 1172 1153 
Q 1172 725 1289 603 
Q 1406 481 1766 481 
L 2356 481 
L 2356 0 
L 1766 0 
Q 1100 0 847 248 
Q 594 497 594 1153 
L 594 3053 
L 172 3053 
L 172 3500 
L 594 3500 
L 594 4494 
L 1172 4494 
z
" transform="scale(0.015625)"/>
      <path id="DejaVuSans-20" transform="scale(0.015625)"/>
      <path id="DejaVuSans-68" d="M 3513 2113 
L 3513 0 
L 2938 0 
L 2938 2094 
Q 2938 2591 2744 2837 
Q 2550 3084 2163 3084 
Q 1697 3084 1428 2787 
Q 1159 2491 1159 1978 
L 1159 0 
L 581 0 
L 581 4863 
L 1159 4863 
L 1159 2956 
Q 1366 3272 1645 3428 
Q 1925 3584 2291 3584 
Q 2894 3584 3203 3211 
Q 3513 2838 3513 2113 
z
" transform="scale(0.015625)"/>
      <path id="DejaVuSans-79" d="M 2059 -325 
Q 1816 -950 1584 -1140 
Q 1353 -1331 966 -1331 
L 506 -1331 
L 506 -850 
L 844 -850 
Q 1081 -850 1212 -737 
Q 1344 -625 1503 -206 
L 1606 56 
L 191 3500 
L 800 3500 
L 1894 763 
L 2988 3500 
L 3597 3500 
L 2059 -325 
z
" transform="scale(0.015625)"/>
      <path id="DejaVuSans-71" d="M 947 1747 
Q 947 1113 1208 752 
Q 1469 391 1925 391 
Q 2381 391 2643 752 
Q 2906 1113 2906 1747 
Q 2906 2381 2643 2742 
Q 2381 3103 1925 3103 
Q 1469 3103 1208 2742 
Q 947 2381 947 1747 
z
M 2906 525 
Q 2725 213 2448 61 
Q 2172 -91 1784 -91 
Q 1150 -91 751 415 
Q 353 922 353 1747 
Q 353 2572 751 3078 
Q 1150 3584 1784 3584 
Q 2172 3584 2448 3432 
Q 2725 3281 2906 2969 
L 2906 3500 
L 3481 3500 
L 3481 -1331 
L 2906 -1331 
L 2906 525 
z
" transform="scale(0.015625)"/>
      <path id="DejaVuSans-75" d="M 544 1381 
L 544 3500 
L 1119 3500 
L 1119 1403 
Q 1119 906 1312 657 
Q 1506 409 1894 409 
Q 2359 409 2629 706 
Q 2900 1003 2900 1516 
L 2900 3500 
L 3475 3500 
L 3475 0 
L 2900 0 
L 2900 538 
Q 2691 219 2414 64 
Q 2138 -91 1772 -91 
Q 1169 -91 856 284 
Q 544 659 544 1381 
z
M 1991 3584 
L 1991 3584 
z
" transform="scale(0.015625)"/>
      <path id="DejaVuSans-6e" d="M 3513 2113 
L 3513 0 
L 2938 0 
L 2938 2094 
Q 2938 2591 2744 2837 
Q 2550 3084 2163 3084 
Q 1697 3084 1428 2787 
Q 1159 2491 1159 1978 
L 1159 0 
L 581 0 
L 581 3500 
L 1159 3500 
L 1159 2956 
Q 1366 3272 1645 3428 
Q 1925 3584 2291 3584 
Q 2894 3584 3203 3211 
Q 3513 2838 3513 2113 
z
" transform="scale(0.015625)"/>
      <path id="DejaVuSans-65" d="M 3597 1894 
L 3597 1613 
L 953 1613 
Q 991 1019 1311 708 
Q 1631 397 2203 397 
Q 2534 397 2845 478 
Q 3156 559 3463 722 
L 3463 178 
Q 3153 47 2828 -22 
Q 2503 -91 2169 -91 
Q 1331 -91 842 396 
Q 353 884 353 1716 
Q 353 2575 817 3079 
Q 1281 3584 2069 3584 
Q 2775 3584 3186 3129 
Q 3597 2675 3597 1894 
z
M 3022 2063 
Q 3016 2534 2758 2815 
Q 2500 3097 2075 3097 
Q 1594 3097 1305 2825 
Q 1016 2553 972 2059 
L 3022 2063 
z
" transform="scale(0.015625)"/>
     </defs>
     <use xlink:href="#DejaVuSans-64"/>
     <use xlink:href="#DejaVuSans-6f" x="63.476562"/>
     <use xlink:href="#DejaVuSans-72" x="124.658203"/>
     <use xlink:href="#DejaVuSans-72" x="164.021484"/>
     <use xlink:href="#DejaVuSans-69" x="205.134766"/>
     <use xlink:href="#DejaVuSans-74" x="232.917969"/>
     <use xlink:href="#DejaVuSans-20" x="272.126953"/>
     <use xlink:href="#DejaVuSans-68" x="303.914062"/>
     <use xlink:href="#DejaVuSans-79" x="367.292969"/>
     <use xlink:href="#DejaVuSans-64" x="426.472656"/>
     <use xlink:href="#DejaVuSans-72" x="489.949219"/>
     <use xlink:href="#DejaVuSans-6f" x="528.8125"/>
     <use xlink:href="#DejaVuSans-71" x="589.994141"/>
     <use xlink:href="#DejaVuSans-75" x="653.470703"/>
     <use xlink:href="#DejaVuSans-69" x="716.849609"/>
     <use xlink:href="#DejaVuSans-6e" x="744.632812"/>
     <use xlink:href="#DejaVuSans-6f" x="808.011719"/>
     <use xlink:href="#DejaVuSans-6e" x="869.193359"/>
     <use xlink:href="#DejaVuSans-65" x="932.572266"/>
    </g>
   </g>
  </g>
  <g id="axes_2">
   <g id="patch_7">
    <path d="M 38.482813 740.521395 
L 610.07976 740.521395 
L 610.07976 22.318125 
L 38.482813 22.318125 
z
" style="fill: #ffffff"/>
   </g>
   <g id="matplotlib.axis_3">
    <g id="xtick_7">
     <g id="line2d_13">
      <g>
       <use xlink:href="#m690e7d4f23" x="64.464492" y="740.521395" style="stroke: #000000; stroke-width: 0.8"/>
      </g>
     </g>
     <g id="text_14">
      <!-- 0 -->
      <g transform="translate(61.283242 755.119832) scale(0.1 -0.1)">
       <use xlink:href="#DejaVuSans-30"/>
      </g>
     </g>
    </g>
    <g id="xtick_8">
     <g id="line2d_14">
      <g>
       <use xlink:href="#m690e7d4f23" x="144.408121" y="740.521395" style="stroke: #000000; stroke-width: 0.8"/>
      </g>
     </g>
     <g id="text_15">
      <!-- 2 -->
      <g transform="translate(141.226871 755.119832) scale(0.1 -0.1)">
       <use xlink:href="#DejaVuSans-32"/>
      </g>
     </g>
    </g>
    <g id="xtick_9">
     <g id="line2d_15">
      <g>
       <use xlink:href="#m690e7d4f23" x="224.35175" y="740.521395" style="stroke: #000000; stroke-width: 0.8"/>
      </g>
     </g>
     <g id="text_16">
      <!-- 4 -->
      <g transform="translate(221.1705 755.119832) scale(0.1 -0.1)">
       <use xlink:href="#DejaVuSans-34"/>
      </g>
     </g>
    </g>
    <g id="xtick_10">
     <g id="line2d_16">
      <g>
       <use xlink:href="#m690e7d4f23" x="304.295379" y="740.521395" style="stroke: #000000; stroke-width: 0.8"/>
      </g>
     </g>
     <g id="text_17">
      <!-- 6 -->
      <g transform="translate(301.114129 755.119832) scale(0.1 -0.1)">
       <use xlink:href="#DejaVuSans-36"/>
      </g>
     </g>
    </g>
    <g id="xtick_11">
     <g id="line2d_17">
      <g>
       <use xlink:href="#m690e7d4f23" x="384.239008" y="740.521395" style="stroke: #000000; stroke-width: 0.8"/>
      </g>
     </g>
     <g id="text_18">
      <!-- 8 -->
      <g transform="translate(381.057758 755.119832) scale(0.1 -0.1)">
       <use xlink:href="#DejaVuSans-38"/>
      </g>
     </g>
    </g>
    <g id="xtick_12">
     <g id="line2d_18">
      <g>
       <use xlink:href="#m690e7d4f23" x="464.182637" y="740.521395" style="stroke: #000000; stroke-width: 0.8"/>
      </g>
     </g>
     <g id="text_19">
      <!-- 10 -->
      <g transform="translate(457.820137 755.119832) scale(0.1 -0.1)">
       <use xlink:href="#DejaVuSans-31"/>
       <use xlink:href="#DejaVuSans-30" x="63.623047"/>
      </g>
     </g>
    </g>
    <g id="xtick_13">
     <g id="line2d_19">
      <g>
       <use xlink:href="#m690e7d4f23" x="544.126266" y="740.521395" style="stroke: #000000; stroke-width: 0.8"/>
      </g>
     </g>
     <g id="text_20">
      <!-- 12 -->
      <g transform="translate(537.763766 755.119832) scale(0.1 -0.1)">
       <use xlink:href="#DejaVuSans-31"/>
       <use xlink:href="#DejaVuSans-32" x="63.623047"/>
      </g>
     </g>
    </g>
   </g>
   <g id="matplotlib.axis_4">
    <g id="ytick_7">
     <g id="line2d_20">
      <g>
       <use xlink:href="#m696ccf48ae" x="38.482813" y="626.658036" style="stroke: #000000; stroke-width: 0.8"/>
      </g>
     </g>
     <g id="text_21">
      <!-- −0.4 -->
      <g transform="translate(7.2 630.457255) scale(0.1 -0.1)">
       <defs>
        <path id="DejaVuSans-2212" d="M 678 2272 
L 4684 2272 
L 4684 1741 
L 678 1741 
L 678 2272 
z
" transform="scale(0.015625)"/>
       </defs>
       <use xlink:href="#DejaVuSans-2212"/>
       <use xlink:href="#DejaVuSans-30" x="83.789062"/>
       <use xlink:href="#DejaVuSans-2e" x="147.412109"/>
       <use xlink:href="#DejaVuSans-34" x="179.199219"/>
      </g>
     </g>
    </g>
    <g id="ytick_8">
     <g id="line2d_21">
      <g>
       <use xlink:href="#m696ccf48ae" x="38.482813" y="490.227299" style="stroke: #000000; stroke-width: 0.8"/>
      </g>
     </g>
     <g id="text_22">
      <!-- −0.2 -->
      <g transform="translate(7.2 494.026518) scale(0.1 -0.1)">
       <use xlink:href="#DejaVuSans-2212"/>
       <use xlink:href="#DejaVuSans-30" x="83.789062"/>
       <use xlink:href="#DejaVuSans-2e" x="147.412109"/>
       <use xlink:href="#DejaVuSans-32" x="179.199219"/>
      </g>
     </g>
    </g>
    <g id="ytick_9">
     <g id="line2d_22">
      <g>
       <use xlink:href="#m696ccf48ae" x="38.482813" y="353.796562" style="stroke: #000000; stroke-width: 0.8"/>
      </g>
     </g>
     <g id="text_23">
      <!-- 0.0 -->
      <g transform="translate(15.579688 357.595781) scale(0.1 -0.1)">
       <use xlink:href="#DejaVuSans-30"/>
       <use xlink:href="#DejaVuSans-2e" x="63.623047"/>
       <use xlink:href="#DejaVuSans-30" x="95.410156"/>
      </g>
     </g>
    </g>
    <g id="ytick_10">
     <g id="line2d_23">
      <g>
       <use xlink:href="#m696ccf48ae" x="38.482813" y="217.365825" style="stroke: #000000; stroke-width: 0.8"/>
      </g>
     </g>
     <g id="text_24">
      <!-- 0.2 -->
      <g transform="translate(15.579688 221.165044) scale(0.1 -0.1)">
       <use xlink:href="#DejaVuSans-30"/>
       <use xlink:href="#DejaVuSans-2e" x="63.623047"/>
       <use xlink:href="#DejaVuSans-32" x="95.410156"/>
      </g>
     </g>
    </g>
    <g id="ytick_11">
     <g id="line2d_24">
      <g>
       <use xlink:href="#m696ccf48ae" x="38.482813" y="80.935088" style="stroke: #000000; stroke-width: 0.8"/>
      </g>
     </g>
     <g id="text_25">
      <!-- 0.4 -->
      <g transform="translate(15.579688 84.734307) scale(0.1 -0.1)">
       <use xlink:href="#DejaVuSans-30"/>
       <use xlink:href="#DejaVuSans-2e" x="63.623047"/>
       <use xlink:href="#DejaVuSans-34" x="95.410156"/>
      </g>
     </g>
    </g>
   </g>
   <g id="line2d_25">
    <path d="M 64.464492 385.100375 
L 104.436306 404.646344 
L 144.408121 430.541844 
L 184.379935 484.613749 
L 224.35175 541.846723 
L 264.323564 582.215239 
L 304.295379 611.227359 
L 344.267194 628.633341 
L 384.239008 635.829591 
L 424.210823 619.473631 
L 464.182637 560.271573 
L 504.154452 473.334939 
L 544.126266 402.498347 
L 584.098081 354.8302 
" clip-path="url(#p54f980b76e)" style="fill: none; stroke: #1f77b4; stroke-width: 1.5; stroke-linecap: square"/>
   </g>
   <g id="line2d_26">
    <path d="M 64.464492 574.1675 
L 104.436306 610.880813 
L 144.408121 629.688622 
L 184.379935 633.906639 
L 224.35175 618.793427 
L 264.323564 591.93597 
L 304.295379 549.874564 
L 344.267194 495.946946 
L 384.239008 416.934445 
L 424.210823 329.456414 
L 464.182637 293.702381 
L 504.154452 310.191052 
L 544.126266 333.274607 
L 584.098081 353.428307 
" clip-path="url(#p54f980b76e)" style="fill: none; stroke: #ff7f0e; stroke-width: 1.5; stroke-linecap: square"/>
   </g>
   <g id="line2d_27">
    <path d="M 64.464492 412.909522 
L 104.436306 461.978021 
L 144.408121 518.96051 
L 184.379935 613.483185 
L 224.35175 659.595829 
L 264.323564 671.304865 
L 304.295379 642.188137 
L 344.267194 568.226194 
L 384.239008 452.172293 
L 424.210823 316.975569 
L 464.182637 248.662872 
L 504.154452 263.871942 
L 544.126266 311.703253 
L 584.098081 353.180851 
" clip-path="url(#p54f980b76e)" style="fill: none; stroke: #2ca02c; stroke-width: 1.5; stroke-linecap: square"/>
   </g>
   <g id="line2d_28">
    <path d="M 64.464492 54.963728 
L 104.436306 92.73698 
L 144.408121 131.904444 
L 184.379935 199.45565 
L 224.35175 283.314605 
L 264.323564 412.085237 
L 304.295379 558.289356 
L 344.267194 583.753329 
L 384.239008 428.528333 
L 424.210823 193.451953 
L 464.182637 113.005261 
L 504.154452 166.5856 
L 544.126266 267.621183 
L 584.098081 350.520003 
" clip-path="url(#p54f980b76e)" style="fill: none; stroke: #d62728; stroke-width: 1.5; stroke-linecap: square"/>
   </g>
   <g id="line2d_29">
    <path d="M 64.464492 337.241578 
L 104.436306 442.854781 
L 144.408121 536.230154 
L 184.379935 686.420782 
L 224.35175 707.875792 
L 264.323564 572.495494 
L 304.295379 333.683747 
L 344.267194 164.490415 
L 384.239008 97.876332 
L 424.210823 170.85508 
L 464.182637 326.156546 
L 504.154452 396.341408 
L 544.126266 400.828849 
L 584.098081 357.776606 
" clip-path="url(#p54f980b76e)" style="fill: none; stroke: #9467bd; stroke-width: 1.5; stroke-linecap: square"/>
   </g>
   <g id="patch_8">
    <path d="M 38.482813 740.521395 
L 38.482813 22.318125 
" style="fill: none; stroke: #000000; stroke-width: 0.8; stroke-linejoin: miter; stroke-linecap: square"/>
   </g>
   <g id="patch_9">
    <path d="M 610.07976 740.521395 
L 610.07976 22.318125 
" style="fill: none; stroke: #000000; stroke-width: 0.8; stroke-linejoin: miter; stroke-linecap: square"/>
   </g>
   <g id="patch_10">
    <path d="M 38.482813 740.521395 
L 610.07976 740.521395 
" style="fill: none; stroke: #000000; stroke-width: 0.8; stroke-linejoin: miter; stroke-linecap: square"/>
   </g>
   <g id="patch_11">
    <path d="M 38.482813 22.318125 
L 610.07976 22.318125 
" style="fill: none; stroke: #000000; stroke-width: 0.8; stroke-linejoin: miter; stroke-linecap: square"/>
   </g>
   <g id="text_26">
    <!-- Excitation -->
    <g transform="translate(294.555974 16.318125) scale(0.12 -0.12)">
     <defs>
      <path id="DejaVuSans-45" d="M 628 4666 
L 3578 4666 
L 3578 4134 
L 1259 4134 
L 1259 2753 
L 3481 2753 
L 3481 2222 
L 1259 2222 
L 1259 531 
L 3634 531 
L 3634 0 
L 628 0 
L 628 4666 
z
" transform="scale(0.015625)"/>
      <path id="DejaVuSans-78" d="M 3513 3500 
L 2247 1797 
L 3578 0 
L 2900 0 
L 1881 1375 
L 863 0 
L 184 0 
L 1544 1831 
L 300 3500 
L 978 3500 
L 1906 2253 
L 2834 3500 
L 3513 3500 
z
" transform="scale(0.015625)"/>
      <path id="DejaVuSans-63" d="M 3122 3366 
L 3122 2828 
Q 2878 2963 2633 3030 
Q 2388 3097 2138 3097 
Q 1578 3097 1268 2742 
Q 959 2388 959 1747 
Q 959 1106 1268 751 
Q 1578 397 2138 397 
Q 2388 397 2633 464 
Q 2878 531 3122 666 
L 3122 134 
Q 2881 22 2623 -34 
Q 2366 -91 2075 -91 
Q 1284 -91 818 406 
Q 353 903 353 1747 
Q 353 2603 823 3093 
Q 1294 3584 2113 3584 
Q 2378 3584 2631 3529 
Q 2884 3475 3122 3366 
z
" transform="scale(0.015625)"/>
      <path id="DejaVuSans-61" d="M 2194 1759 
Q 1497 1759 1228 1600 
Q 959 1441 959 1056 
Q 959 750 1161 570 
Q 1363 391 1709 391 
Q 2188 391 2477 730 
Q 2766 1069 2766 1631 
L 2766 1759 
L 2194 1759 
z
M 3341 1997 
L 3341 0 
L 2766 0 
L 2766 531 
Q 2569 213 2275 61 
Q 1981 -91 1556 -91 
Q 1019 -91 701 211 
Q 384 513 384 1019 
Q 384 1609 779 1909 
Q 1175 2209 1959 2209 
L 2766 2209 
L 2766 2266 
Q 2766 2663 2505 2880 
Q 2244 3097 1772 3097 
Q 1472 3097 1187 3025 
Q 903 2953 641 2809 
L 641 3341 
Q 956 3463 1253 3523 
Q 1550 3584 1831 3584 
Q 2591 3584 2966 3190 
Q 3341 2797 3341 1997 
z
" transform="scale(0.015625)"/>
     </defs>
     <use xlink:href="#DejaVuSans-45"/>
     <use xlink:href="#DejaVuSans-78" x="63.183594"/>
     <use xlink:href="#DejaVuSans-63" x="120.613281"/>
     <use xlink:href="#DejaVuSans-69" x="175.59375"/>
     <use xlink:href="#DejaVuSans-74" x="203.376953"/>
     <use xlink:href="#DejaVuSans-61" x="242.585938"/>
     <use xlink:href="#DejaVuSans-74" x="303.865234"/>
     <use xlink:href="#DejaVuSans-69" x="343.074219"/>
     <use xlink:href="#DejaVuSans-6f" x="370.857422"/>
     <use xlink:href="#DejaVuSans-6e" x="432.039062"/>
    </g>
   </g>
   <g id="legend_1">
    <g id="patch_12">
     <path d="M 564.71726 103.70875 
L 603.07976 103.70875 
Q 605.07976 103.70875 605.07976 101.70875 
L 605.07976 29.318125 
Q 605.07976 27.318125 603.07976 27.318125 
L 564.71726 27.318125 
Q 562.71726 27.318125 562.71726 29.318125 
L 562.71726 101.70875 
Q 562.71726 103.70875 564.71726 103.70875 
z
" style="fill: #ffffff; opacity: 0.8; stroke: #cccccc; stroke-linejoin: miter"/>
    </g>
    <g id="line2d_30">
     <path d="M 566.71726 35.416562 
L 576.71726 35.416562 
L 586.71726 35.416562 
" style="fill: none; stroke: #1f77b4; stroke-width: 1.5; stroke-linecap: square"/>
    </g>
    <g id="text_27">
     <!-- 0 -->
     <g transform="translate(594.71726 38.916562) scale(0.1 -0.1)">
      <use xlink:href="#DejaVuSans-30"/>
     </g>
    </g>
    <g id="line2d_31">
     <path d="M 566.71726 50.094687 
L 576.71726 50.094687 
L 586.71726 50.094687 
" style="fill: none; stroke: #ff7f0e; stroke-width: 1.5; stroke-linecap: square"/>
    </g>
    <g id="text_28">
     <!-- 1 -->
     <g transform="translate(594.71726 53.594687) scale(0.1 -0.1)">
      <use xlink:href="#DejaVuSans-31"/>
     </g>
    </g>
    <g id="line2d_32">
     <path d="M 566.71726 64.772812 
L 576.71726 64.772812 
L 586.71726 64.772812 
" style="fill: none; stroke: #2ca02c; stroke-width: 1.5; stroke-linecap: square"/>
    </g>
    <g id="text_29">
     <!-- 2 -->
     <g transform="translate(594.71726 68.272812) scale(0.1 -0.1)">
      <use xlink:href="#DejaVuSans-32"/>
     </g>
    </g>
    <g id="line2d_33">
     <path d="M 566.71726 79.450937 
L 576.71726 79.450937 
L 586.71726 79.450937 
" style="fill: none; stroke: #d62728; stroke-width: 1.5; stroke-linecap: square"/>
    </g>
    <g id="text_30">
     <!-- 3 -->
     <g transform="translate(594.71726 82.950937) scale(0.1 -0.1)">
      <defs>
       <path id="DejaVuSans-33" d="M 2597 2516 
Q 3050 2419 3304 2112 
Q 3559 1806 3559 1356 
Q 3559 666 3084 287 
Q 2609 -91 1734 -91 
Q 1441 -91 1130 -33 
Q 819 25 488 141 
L 488 750 
Q 750 597 1062 519 
Q 1375 441 1716 441 
Q 2309 441 2620 675 
Q 2931 909 2931 1356 
Q 2931 1769 2642 2001 
Q 2353 2234 1838 2234 
L 1294 2234 
L 1294 2753 
L 1863 2753 
Q 2328 2753 2575 2939 
Q 2822 3125 2822 3475 
Q 2822 3834 2567 4026 
Q 2313 4219 1838 4219 
Q 1578 4219 1281 4162 
Q 984 4106 628 3988 
L 628 4550 
Q 988 4650 1302 4700 
Q 1616 4750 1894 4750 
Q 2613 4750 3031 4423 
Q 3450 4097 3450 3541 
Q 3450 3153 3228 2886 
Q 3006 2619 2597 2516 
z
" transform="scale(0.015625)"/>
      </defs>
      <use xlink:href="#DejaVuSans-33"/>
     </g>
    </g>
    <g id="line2d_34">
     <path d="M 566.71726 94.129062 
L 576.71726 94.129062 
L 586.71726 94.129062 
" style="fill: none; stroke: #9467bd; stroke-width: 1.5; stroke-linecap: square"/>
    </g>
    <g id="text_31">
     <!-- 4 -->
     <g transform="translate(594.71726 97.629062) scale(0.1 -0.1)">
      <use xlink:href="#DejaVuSans-34"/>
     </g>
    </g>
   </g>
  </g>
  <g id="axes_3">
   <g id="patch_13">
    <path d="M 653.602572 740.521395 
L 1225.19952 740.521395 
L 1225.19952 22.318125 
L 653.602572 22.318125 
z
" style="fill: #ffffff"/>
   </g>
   <g id="matplotlib.axis_5">
    <g id="xtick_14">
     <g id="line2d_35">
      <g>
       <use xlink:href="#m690e7d4f23" x="679.584252" y="740.521395" style="stroke: #000000; stroke-width: 0.8"/>
      </g>
     </g>
     <g id="text_32">
      <!-- 0 -->
      <g transform="translate(676.403002 755.119832) scale(0.1 -0.1)">
       <use xlink:href="#DejaVuSans-30"/>
      </g>
     </g>
    </g>
    <g id="xtick_15">
     <g id="line2d_36">
      <g>
       <use xlink:href="#m690e7d4f23" x="766.18985" y="740.521395" style="stroke: #000000; stroke-width: 0.8"/>
      </g>
     </g>
     <g id="text_33">
      <!-- 20 -->
      <g transform="translate(759.82735 755.119832) scale(0.1 -0.1)">
       <use xlink:href="#DejaVuSans-32"/>
       <use xlink:href="#DejaVuSans-30" x="63.623047"/>
      </g>
     </g>
    </g>
    <g id="xtick_16">
     <g id="line2d_37">
      <g>
       <use xlink:href="#m690e7d4f23" x="852.795448" y="740.521395" style="stroke: #000000; stroke-width: 0.8"/>
      </g>
     </g>
     <g id="text_34">
      <!-- 40 -->
      <g transform="translate(846.432948 755.119832) scale(0.1 -0.1)">
       <use xlink:href="#DejaVuSans-34"/>
       <use xlink:href="#DejaVuSans-30" x="63.623047"/>
      </g>
     </g>
    </g>
    <g id="xtick_17">
     <g id="line2d_38">
      <g>
       <use xlink:href="#m690e7d4f23" x="939.401046" y="740.521395" style="stroke: #000000; stroke-width: 0.8"/>
      </g>
     </g>
     <g id="text_35">
      <!-- 60 -->
      <g transform="translate(933.038546 755.119832) scale(0.1 -0.1)">
       <use xlink:href="#DejaVuSans-36"/>
       <use xlink:href="#DejaVuSans-30" x="63.623047"/>
      </g>
     </g>
    </g>
    <g id="xtick_18">
     <g id="line2d_39">
      <g>
       <use xlink:href="#m690e7d4f23" x="1026.006644" y="740.521395" style="stroke: #000000; stroke-width: 0.8"/>
      </g>
     </g>
     <g id="text_36">
      <!-- 80 -->
      <g transform="translate(1019.644144 755.119832) scale(0.1 -0.1)">
       <use xlink:href="#DejaVuSans-38"/>
       <use xlink:href="#DejaVuSans-30" x="63.623047"/>
      </g>
     </g>
    </g>
    <g id="xtick_19">
     <g id="line2d_40">
      <g>
       <use xlink:href="#m690e7d4f23" x="1112.612242" y="740.521395" style="stroke: #000000; stroke-width: 0.8"/>
      </g>
     </g>
     <g id="text_37">
      <!-- 100 -->
      <g transform="translate(1103.068492 755.119832) scale(0.1 -0.1)">
       <use xlink:href="#DejaVuSans-31"/>
       <use xlink:href="#DejaVuSans-30" x="63.623047"/>
       <use xlink:href="#DejaVuSans-30" x="127.246094"/>
      </g>
     </g>
    </g>
    <g id="xtick_20">
     <g id="line2d_41">
      <g>
       <use xlink:href="#m690e7d4f23" x="1199.217841" y="740.521395" style="stroke: #000000; stroke-width: 0.8"/>
      </g>
     </g>
     <g id="text_38">
      <!-- 120 -->
      <g transform="translate(1189.674091 755.119832) scale(0.1 -0.1)">
       <use xlink:href="#DejaVuSans-31"/>
       <use xlink:href="#DejaVuSans-32" x="63.623047"/>
       <use xlink:href="#DejaVuSans-30" x="127.246094"/>
      </g>
     </g>
    </g>
   </g>
   <g id="matplotlib.axis_6">
    <g id="ytick_12">
     <g id="line2d_42">
      <g>
       <use xlink:href="#m696ccf48ae" x="653.602572" y="635.458463" style="stroke: #000000; stroke-width: 0.8"/>
      </g>
     </g>
     <g id="text_39">
      <!-- −0.2 -->
      <g transform="translate(622.31976 639.257682) scale(0.1 -0.1)">
       <use xlink:href="#DejaVuSans-2212"/>
       <use xlink:href="#DejaVuSans-30" x="83.789062"/>
       <use xlink:href="#DejaVuSans-2e" x="147.412109"/>
       <use xlink:href="#DejaVuSans-32" x="179.199219"/>
      </g>
     </g>
    </g>
    <g id="ytick_13">
     <g id="line2d_43">
      <g>
       <use xlink:href="#m696ccf48ae" x="653.602572" y="510.485351" style="stroke: #000000; stroke-width: 0.8"/>
      </g>
     </g>
     <g id="text_40">
      <!-- −0.1 -->
      <g transform="translate(622.31976 514.284569) scale(0.1 -0.1)">
       <use xlink:href="#DejaVuSans-2212"/>
       <use xlink:href="#DejaVuSans-30" x="83.789062"/>
       <use xlink:href="#DejaVuSans-2e" x="147.412109"/>
       <use xlink:href="#DejaVuSans-31" x="179.199219"/>
      </g>
     </g>
    </g>
    <g id="ytick_14">
     <g id="line2d_44">
      <g>
       <use xlink:href="#m696ccf48ae" x="653.602572" y="385.512239" style="stroke: #000000; stroke-width: 0.8"/>
      </g>
     </g>
     <g id="text_41">
      <!-- 0.0 -->
      <g transform="translate(630.699447 389.311457) scale(0.1 -0.1)">
       <use xlink:href="#DejaVuSans-30"/>
       <use xlink:href="#DejaVuSans-2e" x="63.623047"/>
       <use xlink:href="#DejaVuSans-30" x="95.410156"/>
      </g>
     </g>
    </g>
    <g id="ytick_15">
     <g id="line2d_45">
      <g>
       <use xlink:href="#m696ccf48ae" x="653.602572" y="260.539126" style="stroke: #000000; stroke-width: 0.8"/>
      </g>
     </g>
     <g id="text_42">
      <!-- 0.1 -->
      <g transform="translate(630.699447 264.338345) scale(0.1 -0.1)">
       <use xlink:href="#DejaVuSans-30"/>
       <use xlink:href="#DejaVuSans-2e" x="63.623047"/>
       <use xlink:href="#DejaVuSans-31" x="95.410156"/>
      </g>
     </g>
    </g>
    <g id="ytick_16">
     <g id="line2d_46">
      <g>
       <use xlink:href="#m696ccf48ae" x="653.602572" y="135.566014" style="stroke: #000000; stroke-width: 0.8"/>
      </g>
     </g>
     <g id="text_43">
      <!-- 0.2 -->
      <g transform="translate(630.699447 139.365233) scale(0.1 -0.1)">
       <use xlink:href="#DejaVuSans-30"/>
       <use xlink:href="#DejaVuSans-2e" x="63.623047"/>
       <use xlink:href="#DejaVuSans-32" x="95.410156"/>
      </g>
     </g>
    </g>
   </g>
   <g id="line2d_47">
    <path d="M 679.584252 385.914016 
L 683.914532 385.937297 
L 688.244812 385.920302 
L 692.575092 385.910765 
L 696.905372 385.955766 
L 701.235651 385.902179 
L 705.565931 385.838375 
L 709.896211 385.780386 
L 714.226491 385.598712 
L 718.556771 385.498294 
L 722.887051 385.193172 
L 727.217331 384.937155 
L 731.547611 384.614106 
L 735.877891 384.102972 
L 740.208171 383.57087 
L 744.538451 382.909044 
L 748.86873 382.174823 
L 753.19901 381.45519 
L 757.52929 380.428082 
L 761.85957 379.357978 
L 766.18985 378.011975 
L 770.52013 376.544412 
L 774.85041 374.917642 
L 779.18069 373.192489 
L 783.51097 371.961314 
L 787.84125 372.135079 
L 792.171529 374.38161 
L 796.501809 379.242639 
L 800.832089 387.16468 
L 805.162369 398.183791 
L 809.492649 412.530222 
L 813.822929 430.498364 
L 818.153209 451.162288 
L 822.483489 478.034646 
L 826.813769 506.218514 
L 831.144049 536.045297 
L 835.474329 563.104887 
L 839.804608 588.710989 
L 844.134888 611.549765 
L 848.465168 628.826166 
L 852.795448 637.461001 
L 857.125728 645.221029 
L 861.456008 650.86781 
L 865.786288 653.511867 
L 870.116568 654.87707 
L 874.446848 655.39619 
L 878.777128 655.181179 
L 883.107407 655.375108 
L 887.437687 654.253837 
L 891.767967 652.31148 
L 896.098247 649.439421 
L 900.428527 645.101298 
L 904.758807 639.343288 
L 909.089087 630.932386 
L 913.419367 621.784894 
L 917.749647 611.557286 
L 922.079927 599.354931 
L 926.410207 584.851466 
L 930.740486 569.449558 
L 935.070766 551.821379 
L 939.401046 534.339511 
L 943.731326 516.517855 
L 948.061606 501.602421 
L 952.391886 487.226187 
L 956.722166 476.556758 
L 961.052446 464.068237 
L 965.382726 456.481228 
L 969.713006 447.820504 
L 974.043285 442.186295 
L 978.373565 434.453941 
L 982.703845 429.393838 
L 987.034125 423.824604 
L 991.364405 420.462509 
L 995.694685 417.324529 
L 1000.024965 413.421096 
L 1004.355245 410.660923 
L 1008.685525 407.989165 
L 1013.015805 405.654843 
L 1017.346085 403.378521 
L 1021.676364 401.691066 
L 1026.006644 399.412872 
L 1030.336924 397.935096 
L 1034.667204 396.397088 
L 1038.997484 395.09206 
L 1043.327764 394.248972 
L 1047.658044 392.856641 
L 1051.988324 392.159593 
L 1056.318604 391.263328 
L 1060.648884 390.726415 
L 1064.979164 390.054006 
L 1069.309443 389.980405 
L 1073.639723 389.194877 
L 1077.970003 388.887104 
L 1082.300283 388.496028 
L 1086.630563 388.143724 
L 1090.960843 387.986434 
L 1095.291123 387.762311 
L 1099.621403 387.449637 
L 1103.951683 387.238651 
L 1108.281963 387.018153 
L 1112.612242 386.802908 
L 1116.942522 386.821577 
L 1121.272802 386.679982 
L 1125.603082 386.756873 
L 1129.933362 386.557406 
L 1134.263642 386.51074 
L 1138.593922 386.322507 
L 1142.924202 386.410187 
L 1147.254482 386.370658 
L 1151.584762 386.276938 
L 1155.915042 386.245756 
L 1160.245321 386.095624 
L 1164.575601 386.228799 
L 1168.905881 386.253082 
L 1173.236161 386.249049 
L 1177.566441 386.132063 
L 1181.896721 386.115694 
L 1186.227001 386.072841 
L 1190.557281 386.114664 
L 1194.887561 386.099856 
L 1199.217841 386.003394 
" clip-path="url(#pbd5a6a6159)" style="fill: none; stroke: #1f77b4; stroke-width: 1.5; stroke-linecap: square"/>
   </g>
   <g id="line2d_48">
    <path d="M 679.584252 385.189023 
L 683.914532 385.158112 
L 688.244812 385.185193 
L 692.575092 385.262306 
L 696.905372 385.263825 
L 701.235651 385.372554 
L 705.565931 385.46845 
L 709.896211 385.658802 
L 714.226491 385.87199 
L 718.556771 386.156481 
L 722.887051 386.44096 
L 727.217331 386.754937 
L 731.547611 386.988122 
L 735.877891 387.198252 
L 740.208171 387.280828 
L 744.538451 387.220048 
L 748.86873 386.935315 
L 753.19901 386.385055 
L 757.52929 385.469939 
L 761.85957 384.185595 
L 766.18985 382.494353 
L 770.52013 380.332909 
L 774.85041 377.63168 
L 779.18069 374.359486 
L 783.51097 370.346979 
L 787.84125 365.519104 
L 792.171529 360.497752 
L 796.501809 355.96811 
L 800.832089 351.305648 
L 805.162369 347.649762 
L 809.492649 344.577374 
L 813.822929 342.908413 
L 818.153209 341.663527 
L 822.483489 343.52816 
L 826.813769 345.883668 
L 831.144049 350.676938 
L 835.474329 356.31628 
L 839.804608 361.149782 
L 844.134888 363.828871 
L 848.465168 359.128845 
L 852.795448 355.55729 
L 857.125728 349.318038 
L 861.456008 343.102026 
L 865.786288 335.589911 
L 870.116568 326.708883 
L 874.446848 316.950886 
L 878.777128 305.94433 
L 883.107407 297.678262 
L 887.437687 285.705965 
L 891.767967 276.394532 
L 896.098247 265.769762 
L 900.428527 254.505758 
L 904.758807 243.835412 
L 909.089087 230.533477 
L 913.419367 220.973094 
L 917.749647 210.72943 
L 922.079927 199.901255 
L 926.410207 191.050618 
L 930.740486 182.329628 
L 935.070766 173.482916 
L 939.401046 163.647017 
L 943.731326 156.488335 
L 948.061606 149.930902 
L 952.391886 145.249108 
L 956.722166 143.875267 
L 961.052446 140.545876 
L 965.382726 142.367172 
L 969.713006 141.712985 
L 974.043285 143.908717 
L 978.373565 145.839325 
L 982.703845 149.144665 
L 987.034125 153.543739 
L 991.364405 159.151071 
L 995.694685 163.900956 
L 1000.024965 170.582455 
L 1004.355245 178.825605 
L 1008.685525 186.459738 
L 1013.015805 194.578026 
L 1017.346085 204.285347 
L 1021.676364 213.748492 
L 1026.006644 224.480803 
L 1030.336924 233.197304 
L 1034.667204 243.118259 
L 1038.997484 251.386186 
L 1043.327764 260.810492 
L 1047.658044 269.454878 
L 1051.988324 277.006337 
L 1056.318604 284.079943 
L 1060.648884 291.141675 
L 1064.979164 298.205667 
L 1069.309443 304.015003 
L 1073.639723 311.625901 
L 1077.970003 316.276329 
L 1082.300283 321.770645 
L 1086.630563 327.277613 
L 1090.960843 332.031532 
L 1095.291123 336.394907 
L 1099.621403 341.478737 
L 1103.951683 345.053521 
L 1108.281963 347.841319 
L 1112.612242 350.852238 
L 1116.942522 353.710079 
L 1121.272802 355.93286 
L 1125.603082 358.561984 
L 1129.933362 360.953748 
L 1134.263642 363.124552 
L 1138.593922 364.980662 
L 1142.924202 367.116595 
L 1147.254482 368.541859 
L 1151.584762 369.83951 
L 1155.915042 371.558978 
L 1160.245321 372.512907 
L 1164.575601 373.64423 
L 1168.905881 374.429095 
L 1173.236161 375.432034 
L 1177.566441 375.972716 
L 1181.896721 376.599822 
L 1186.227001 376.970873 
L 1190.557281 378.131171 
L 1194.887561 378.523832 
L 1199.217841 379.057359 
" clip-path="url(#pbd5a6a6159)" style="fill: none; stroke: #ff7f0e; stroke-width: 1.5; stroke-linecap: square"/>
   </g>
   <g id="line2d_49">
    <path d="M 679.584252 385.103952 
L 683.914532 385.213368 
L 688.244812 384.958604 
L 692.575092 385.054049 
L 696.905372 385.15438 
L 701.235651 385.0026 
L 705.565931 385.416207 
L 709.896211 385.531717 
L 714.226491 385.629233 
L 718.556771 385.851294 
L 722.887051 386.00211 
L 727.217331 386.036533 
L 731.547611 385.717734 
L 735.877891 384.869265 
L 740.208171 383.251649 
L 744.538451 380.505802 
L 748.86873 376.369874 
L 753.19901 370.592325 
L 757.52929 362.478228 
L 761.85957 352.161503 
L 766.18985 339.504496 
L 770.52013 324.218838 
L 774.85041 306.182759 
L 779.18069 286.123965 
L 783.51097 263.34812 
L 787.84125 238.795587 
L 792.171529 212.860696 
L 796.501809 186.756911 
L 800.832089 159.753409 
L 805.162369 133.849789 
L 809.492649 109.577555 
L 813.822929 88.106589 
L 818.153209 69.087822 
L 822.483489 58.211908 
L 826.813769 54.963728 
L 831.144049 58.910409 
L 835.474329 69.530706 
L 839.804608 81.822205 
L 844.134888 99.199184 
L 848.465168 111.738012 
L 852.795448 128.764846 
L 857.125728 144.103812 
L 861.456008 163.055229 
L 865.786288 180.289743 
L 870.116568 195.764015 
L 874.446848 215.554351 
L 878.777128 235.462969 
L 883.107407 262.82087 
L 887.437687 282.496838 
L 891.767967 301.771014 
L 896.098247 327.280583 
L 900.428527 343.699151 
L 904.758807 360.259442 
L 909.089087 376.187233 
L 913.419367 392.772731 
L 917.749647 408.01465 
L 922.079927 415.545581 
L 926.410207 426.352978 
L 930.740486 432.144147 
L 935.070766 435.605554 
L 939.401046 435.409218 
L 943.731326 435.529201 
L 948.061606 433.480749 
L 952.391886 434.052107 
L 956.722166 433.110695 
L 961.052446 428.818184 
L 965.382726 432.412386 
L 969.713006 428.458024 
L 974.043285 428.726575 
L 978.373565 423.502944 
L 982.703845 421.745088 
L 987.034125 419.489387 
L 991.364405 417.297625 
L 995.694685 415.808203 
L 1000.024965 412.283712 
L 1004.355245 411.807878 
L 1008.685525 409.344512 
L 1013.015805 407.463 
L 1017.346085 406.788273 
L 1021.676364 406.252269 
L 1026.006644 404.318106 
L 1030.336924 403.07479 
L 1034.667204 401.971371 
L 1038.997484 401.112218 
L 1043.327764 400.366199 
L 1047.658044 398.875684 
L 1051.988324 397.791026 
L 1056.318604 396.601964 
L 1060.648884 396.339946 
L 1064.979164 394.994566 
L 1069.309443 394.560301 
L 1073.639723 393.842594 
L 1077.970003 392.64119 
L 1082.300283 392.415184 
L 1086.630563 391.988132 
L 1090.960843 390.906262 
L 1095.291123 390.730948 
L 1099.621403 390.092504 
L 1103.951683 389.923086 
L 1108.281963 389.535423 
L 1112.612242 389.033697 
L 1116.942522 388.562675 
L 1121.272802 388.625113 
L 1125.603082 388.473016 
L 1129.933362 387.936859 
L 1134.263642 387.217966 
L 1138.593922 387.27742 
L 1142.924202 387.35175 
L 1147.254482 386.989809 
L 1151.584762 386.983071 
L 1155.915042 386.825312 
L 1160.245321 386.358425 
L 1164.575601 386.481341 
L 1168.905881 386.627462 
L 1173.236161 386.547374 
L 1177.566441 385.848129 
L 1181.896721 385.937749 
L 1186.227001 385.598108 
L 1190.557281 385.850035 
L 1194.887561 385.861917 
L 1199.217841 385.79693 
" clip-path="url(#pbd5a6a6159)" style="fill: none; stroke: #2ca02c; stroke-width: 1.5; stroke-linecap: square"/>
   </g>
   <g id="line2d_50">
    <path d="M 679.584252 385.880608 
L 683.914532 386.288423 
L 688.244812 386.089648 
L 692.575092 384.841685 
L 696.905372 383.612893 
L 701.235651 380.113273 
L 705.565931 376.083411 
L 709.896211 370.27226 
L 714.226491 363.029774 
L 718.556771 354.77242 
L 722.887051 344.639662 
L 727.217331 333.81002 
L 731.547611 321.556165 
L 735.877891 309.64985 
L 740.208171 297.308639 
L 744.538451 284.608562 
L 748.86873 271.56457 
L 753.19901 258.515345 
L 757.52929 245.824018 
L 761.85957 233.318206 
L 766.18985 221.96053 
L 770.52013 211.600092 
L 774.85041 203.056594 
L 779.18069 198.232422 
L 783.51097 195.530553 
L 787.84125 200.766719 
L 792.171529 208.226946 
L 796.501809 217.62948 
L 800.832089 231.918688 
L 805.162369 242.241027 
L 809.492649 250.773758 
L 813.822929 259.588473 
L 818.153209 260.239876 
L 822.483489 260.403779 
L 826.813769 258.692783 
L 831.144049 242.808928 
L 835.474329 221.827199 
L 839.804608 209.346084 
L 844.134888 183.258788 
L 848.465168 151.386924 
L 852.795448 155.957564 
L 857.125728 146.856296 
L 861.456008 125.948193 
L 865.786288 132.480187 
L 870.116568 138.341654 
L 874.446848 136.380553 
L 878.777128 143.229743 
L 883.107407 154.022313 
L 887.437687 159.361217 
L 891.767967 168.776687 
L 896.098247 179.720209 
L 900.428527 179.640181 
L 904.758807 194.300809 
L 909.089087 209.461448 
L 913.419367 212.513032 
L 917.749647 247.058936 
L 922.079927 258.055945 
L 926.410207 268.466575 
L 930.740486 290.19631 
L 935.070766 300.883958 
L 939.401046 303.931203 
L 943.731326 306.892126 
L 948.061606 316.449836 
L 952.391886 319.725607 
L 956.722166 313.394377 
L 961.052446 319.076679 
L 965.382726 324.154992 
L 969.713006 318.787323 
L 974.043285 320.771758 
L 978.373565 323.701924 
L 982.703845 334.147267 
L 987.034125 327.579494 
L 991.364405 333.941567 
L 995.694685 334.536802 
L 1000.024965 337.75096 
L 1004.355245 339.913677 
L 1008.685525 342.684668 
L 1013.015805 343.122607 
L 1017.346085 346.154761 
L 1021.676364 351.825393 
L 1026.006644 349.77716 
L 1030.336924 355.323942 
L 1034.667204 355.76559 
L 1038.997484 355.044398 
L 1043.327764 361.197566 
L 1047.658044 358.46188 
L 1051.988324 360.839781 
L 1056.318604 365.033583 
L 1060.648884 362.717135 
L 1064.979164 364.021761 
L 1069.309443 368.816148 
L 1073.639723 369.876007 
L 1077.970003 368.78771 
L 1082.300283 369.733028 
L 1086.630563 372.392687 
L 1090.960843 373.1312 
L 1095.291123 373.063579 
L 1099.621403 376.140582 
L 1103.951683 376.476217 
L 1108.281963 377.857382 
L 1112.612242 377.956997 
L 1116.942522 378.360544 
L 1121.272802 377.696183 
L 1125.603082 379.770055 
L 1129.933362 380.388588 
L 1134.263642 381.103564 
L 1138.593922 380.002786 
L 1142.924202 381.40381 
L 1147.254482 380.966462 
L 1151.584762 380.051129 
L 1155.915042 381.180399 
L 1160.245321 382.957851 
L 1164.575601 381.538296 
L 1168.905881 382.636166 
L 1173.236161 383.03933 
L 1177.566441 383.706807 
L 1181.896721 383.741118 
L 1186.227001 383.314866 
L 1190.557281 383.736608 
L 1194.887561 383.740192 
L 1199.217841 384.504162 
" clip-path="url(#pbd5a6a6159)" style="fill: none; stroke: #d62728; stroke-width: 1.5; stroke-linecap: square"/>
   </g>
   <g id="line2d_51">
    <path d="M 679.584252 384.330169 
L 683.914532 384.706327 
L 688.244812 385.191597 
L 692.575092 385.438762 
L 696.905372 384.633038 
L 701.235651 384.214525 
L 705.565931 383.034535 
L 709.896211 380.131196 
L 714.226491 377.231804 
L 718.556771 372.699268 
L 722.887051 367.313582 
L 727.217331 360.316244 
L 731.547611 353.347463 
L 735.877891 345.536335 
L 740.208171 337.203027 
L 744.538451 329.314658 
L 748.86873 321.690309 
L 753.19901 314.613732 
L 757.52929 308.02165 
L 761.85957 302.045031 
L 766.18985 296.618631 
L 770.52013 292.265638 
L 774.85041 289.23677 
L 779.18069 287.601717 
L 783.51097 287.146037 
L 787.84125 287.482826 
L 792.171529 290.133939 
L 796.501809 295.359555 
L 800.832089 305.34689 
L 805.162369 319.170216 
L 809.492649 336.581021 
L 813.822929 356.043541 
L 818.153209 382.230079 
L 822.483489 407.174357 
L 826.813769 432.75304 
L 831.144049 460.569711 
L 835.474329 496.881084 
L 839.804608 522.851202 
L 844.134888 553.64274 
L 848.465168 559.184034 
L 852.795448 575.68148 
L 857.125728 581.68879 
L 861.456008 609.757778 
L 865.786288 634.42807 
L 870.116568 656.22595 
L 874.446848 681.049751 
L 878.777128 690.088602 
L 883.107407 701.492965 
L 887.437687 707.875792 
L 891.767967 705.591305 
L 896.098247 698.110607 
L 900.428527 694.686473 
L 904.758807 670.170466 
L 909.089087 644.672382 
L 913.419367 607.597126 
L 917.749647 581.534326 
L 922.079927 556.012534 
L 926.410207 539.503722 
L 930.740486 522.972684 
L 935.070766 509.606661 
L 939.401046 491.388165 
L 943.731326 492.246243 
L 948.061606 472.255344 
L 952.391886 451.825485 
L 956.722166 444.536737 
L 961.052446 423.943512 
L 965.382726 410.180948 
L 969.713006 394.352269 
L 974.043285 400.736755 
L 978.373565 379.687535 
L 982.703845 368.663845 
L 987.034125 362.523492 
L 991.364405 350.782331 
L 995.694685 351.20829 
L 1000.024965 347.041557 
L 1004.355245 335.916606 
L 1008.685525 330.02251 
L 1013.015805 328.63896 
L 1017.346085 331.764764 
L 1021.676364 335.047332 
L 1026.006644 330.374261 
L 1030.336924 332.468267 
L 1034.667204 338.635139 
L 1038.997484 337.92337 
L 1043.327764 342.068235 
L 1047.658044 343.689197 
L 1051.988324 347.600175 
L 1056.318604 349.689271 
L 1060.648884 356.473682 
L 1064.979164 353.884979 
L 1069.309443 354.646113 
L 1073.639723 358.043257 
L 1077.970003 360.033998 
L 1082.300283 362.225389 
L 1086.630563 363.11276 
L 1090.960843 365.096762 
L 1095.291123 367.588467 
L 1099.621403 370.866161 
L 1103.951683 370.251876 
L 1108.281963 372.43104 
L 1112.612242 374.607689 
L 1116.942522 374.316653 
L 1121.272802 375.171739 
L 1125.603082 376.539415 
L 1129.933362 377.745521 
L 1134.263642 377.99076 
L 1138.593922 378.289548 
L 1142.924202 378.887229 
L 1147.254482 379.129796 
L 1151.584762 379.842462 
L 1155.915042 381.237513 
L 1160.245321 380.78799 
L 1164.575601 380.988883 
L 1168.905881 381.523492 
L 1173.236161 381.618223 
L 1177.566441 381.863013 
L 1181.896721 382.090609 
L 1186.227001 380.878176 
L 1190.557281 383.460365 
L 1194.887561 382.120422 
L 1199.217841 383.174313 
" clip-path="url(#pbd5a6a6159)" style="fill: none; stroke: #9467bd; stroke-width: 1.5; stroke-linecap: square"/>
   </g>
   <g id="patch_14">
    <path d="M 653.602572 740.521395 
L 653.602572 22.318125 
" style="fill: none; stroke: #000000; stroke-width: 0.8; stroke-linejoin: miter; stroke-linecap: square"/>
   </g>
   <g id="patch_15">
    <path d="M 1225.19952 740.521395 
L 1225.19952 22.318125 
" style="fill: none; stroke: #000000; stroke-width: 0.8; stroke-linejoin: miter; stroke-linecap: square"/>
   </g>
   <g id="patch_16">
    <path d="M 653.602572 740.521395 
L 1225.19952 740.521395 
" style="fill: none; stroke: #000000; stroke-width: 0.8; stroke-linejoin: miter; stroke-linecap: square"/>
   </g>
   <g id="patch_17">
    <path d="M 653.602572 22.318125 
L 1225.19952 22.318125 
" style="fill: none; stroke: #000000; stroke-width: 0.8; stroke-linejoin: miter; stroke-linecap: square"/>
   </g>
   <g id="text_44">
    <!-- Emission -->
    <g transform="translate(912.706671 16.318125) scale(0.12 -0.12)">
     <defs>
      <path id="DejaVuSans-6d" d="M 3328 2828 
Q 3544 3216 3844 3400 
Q 4144 3584 4550 3584 
Q 5097 3584 5394 3201 
Q 5691 2819 5691 2113 
L 5691 0 
L 5113 0 
L 5113 2094 
Q 5113 2597 4934 2840 
Q 4756 3084 4391 3084 
Q 3944 3084 3684 2787 
Q 3425 2491 3425 1978 
L 3425 0 
L 2847 0 
L 2847 2094 
Q 2847 2600 2669 2842 
Q 2491 3084 2119 3084 
Q 1678 3084 1418 2786 
Q 1159 2488 1159 1978 
L 1159 0 
L 581 0 
L 581 3500 
L 1159 3500 
L 1159 2956 
Q 1356 3278 1631 3431 
Q 1906 3584 2284 3584 
Q 2666 3584 2933 3390 
Q 3200 3197 3328 2828 
z
" transform="scale(0.015625)"/>
      <path id="DejaVuSans-73" d="M 2834 3397 
L 2834 2853 
Q 2591 2978 2328 3040 
Q 2066 3103 1784 3103 
Q 1356 3103 1142 2972 
Q 928 2841 928 2578 
Q 928 2378 1081 2264 
Q 1234 2150 1697 2047 
L 1894 2003 
Q 2506 1872 2764 1633 
Q 3022 1394 3022 966 
Q 3022 478 2636 193 
Q 2250 -91 1575 -91 
Q 1294 -91 989 -36 
Q 684 19 347 128 
L 347 722 
Q 666 556 975 473 
Q 1284 391 1588 391 
Q 1994 391 2212 530 
Q 2431 669 2431 922 
Q 2431 1156 2273 1281 
Q 2116 1406 1581 1522 
L 1381 1569 
Q 847 1681 609 1914 
Q 372 2147 372 2553 
Q 372 3047 722 3315 
Q 1072 3584 1716 3584 
Q 2034 3584 2315 3537 
Q 2597 3491 2834 3397 
z
" transform="scale(0.015625)"/>
     </defs>
     <use xlink:href="#DejaVuSans-45"/>
     <use xlink:href="#DejaVuSans-6d" x="63.183594"/>
     <use xlink:href="#DejaVuSans-69" x="160.595703"/>
     <use xlink:href="#DejaVuSans-73" x="188.378906"/>
     <use xlink:href="#DejaVuSans-73" x="240.478516"/>
     <use xlink:href="#DejaVuSans-69" x="292.578125"/>
     <use xlink:href="#DejaVuSans-6f" x="320.361328"/>
     <use xlink:href="#DejaVuSans-6e" x="381.542969"/>
    </g>
   </g>
   <g id="legend_2">
    <g id="patch_18">
     <path d="M 1179.83702 103.70875 
L 1218.19952 103.70875 
Q 1220.19952 103.70875 1220.19952 101.70875 
L 1220.19952 29.318125 
Q 1220.19952 27.318125 1218.19952 27.318125 
L 1179.83702 27.318125 
Q 1177.83702 27.318125 1177.83702 29.318125 
L 1177.83702 101.70875 
Q 1177.83702 103.70875 1179.83702 103.70875 
z
" style="fill: #ffffff; opacity: 0.8; stroke: #cccccc; stroke-linejoin: miter"/>
    </g>
    <g id="line2d_52">
     <path d="M 1181.83702 35.416562 
L 1191.83702 35.416562 
L 1201.83702 35.416562 
" style="fill: none; stroke: #1f77b4; stroke-width: 1.5; stroke-linecap: square"/>
    </g>
    <g id="text_45">
     <!-- 0 -->
     <g transform="translate(1209.83702 38.916562) scale(0.1 -0.1)">
      <use xlink:href="#DejaVuSans-30"/>
     </g>
    </g>
    <g id="line2d_53">
     <path d="M 1181.83702 50.094687 
L 1191.83702 50.094687 
L 1201.83702 50.094687 
" style="fill: none; stroke: #ff7f0e; stroke-width: 1.5; stroke-linecap: square"/>
    </g>
    <g id="text_46">
     <!-- 1 -->
     <g transform="translate(1209.83702 53.594687) scale(0.1 -0.1)">
      <use xlink:href="#DejaVuSans-31"/>
     </g>
    </g>
    <g id="line2d_54">
     <path d="M 1181.83702 64.772812 
L 1191.83702 64.772812 
L 1201.83702 64.772812 
" style="fill: none; stroke: #2ca02c; stroke-width: 1.5; stroke-linecap: square"/>
    </g>
    <g id="text_47">
     <!-- 2 -->
     <g transform="translate(1209.83702 68.272812) scale(0.1 -0.1)">
      <use xlink:href="#DejaVuSans-32"/>
     </g>
    </g>
    <g id="line2d_55">
     <path d="M 1181.83702 79.450937 
L 1191.83702 79.450937 
L 1201.83702 79.450937 
" style="fill: none; stroke: #d62728; stroke-width: 1.5; stroke-linecap: square"/>
    </g>
    <g id="text_48">
     <!-- 3 -->
     <g transform="translate(1209.83702 82.950937) scale(0.1 -0.1)">
      <use xlink:href="#DejaVuSans-33"/>
     </g>
    </g>
    <g id="line2d_56">
     <path d="M 1181.83702 94.129062 
L 1191.83702 94.129062 
L 1201.83702 94.129062 
" style="fill: none; stroke: #9467bd; stroke-width: 1.5; stroke-linecap: square"/>
    </g>
    <g id="text_49">
     <!-- 4 -->
     <g transform="translate(1209.83702 97.629062) scale(0.1 -0.1)">
      <use xlink:href="#DejaVuSans-34"/>
     </g>
    </g>
   </g>
  </g>
 </g>
 <defs>
  <clipPath id="p54f980b76e">
   <rect x="38.482813" y="22.318125" width="571.596947" height="718.20327"/>
  </clipPath>
  <clipPath id="pbd5a6a6159">
   <rect x="653.602572" y="22.318125" width="571.596947" height="718.20327"/>
  </clipPath>
 </defs>
</svg>
