<?xml version="1.0" encoding="utf-8" standalone="no"?>
<!DOCTYPE svg PUBLIC "-//W3C//DTD SVG 1.1//EN"
  "http://www.w3.org/Graphics/SVG/1.1/DTD/svg11.dtd">
<svg xmlns:xlink="http://www.w3.org/1999/xlink" width="1232.39952pt" height="764.39952pt" viewBox="0 0 1232.39952 764.39952" xmlns="http://www.w3.org/2000/svg" version="1.1">
 <metadata>
  <rdf:RDF xmlns:dc="http://purl.org/dc/elements/1.1/" xmlns:cc="http://creativecommons.org/ns#" xmlns:rdf="http://www.w3.org/1999/02/22-rdf-syntax-ns#">
   <cc:Work>
    <dc:type rdf:resource="http://purl.org/dc/dcmitype/StillImage"/>
    <dc:date>2023-10-12T11:39:47.658167</dc:date>
    <dc:format>image/svg+xml</dc:format>
    <dc:creator>
     <cc:Agent>
      <dc:title>Matplotlib v3.8.0, https://matplotlib.org/</dc:title>
     </cc:Agent>
    </dc:creator>
   </cc:Work>
  </rdf:RDF>
 </metadata>
 <defs>
  <style type="text/css">*{stroke-linejoin: round; stroke-linecap: butt}</style>
 </defs>
 <g id="figure_1">
  <g id="patch_1">
   <path d="M 0 764.39952 
L 1232.39952 764.39952 
L 1232.39952 0 
L 0 0 
z
" style="fill: #ffffff"/>
  </g>
  <g id="axes_1">
   <g id="patch_2">
    <path d="M 30.103125 740.521395 
L 1217.247957 740.521395 
L 1217.247957 22.318125 
L 30.103125 22.318125 
z
" style="fill: #ffffff"/>
   </g>
   <g id="matplotlib.axis_1">
    <g id="xtick_1">
     <g id="line2d_1">
      <defs>
       <path id="m075c0cf8c5" d="M 0 0 
L 0 3.5 
" style="stroke: #000000; stroke-width: 0.8"/>
      </defs>
      <g>
       <use xlink:href="#m075c0cf8c5" x="30.103125" y="740.521395" style="stroke: #000000; stroke-width: 0.8"/>
      </g>
     </g>
     <g id="text_1">
      <!-- 0.0 -->
      <g transform="translate(22.151563 755.119832) scale(0.1 -0.1)">
       <defs>
        <path id="DejaVuSans-30" d="M 2034 4250 
Q 1547 4250 1301 3770 
Q 1056 3291 1056 2328 
Q 1056 1369 1301 889 
Q 1547 409 2034 409 
Q 2525 409 2770 889 
Q 3016 1369 3016 2328 
Q 3016 3291 2770 3770 
Q 2525 4250 2034 4250 
z
M 2034 4750 
Q 2819 4750 3233 4129 
Q 3647 3509 3647 2328 
Q 3647 1150 3233 529 
Q 2819 -91 2034 -91 
Q 1250 -91 836 529 
Q 422 1150 422 2328 
Q 422 3509 836 4129 
Q 1250 4750 2034 4750 
z
" transform="scale(0.015625)"/>
        <path id="DejaVuSans-2e" d="M 684 794 
L 1344 794 
L 1344 0 
L 684 0 
L 684 794 
z
" transform="scale(0.015625)"/>
       </defs>
       <use xlink:href="#DejaVuSans-30"/>
       <use xlink:href="#DejaVuSans-2e" x="63.623047"/>
       <use xlink:href="#DejaVuSans-30" x="95.410156"/>
      </g>
     </g>
    </g>
    <g id="xtick_2">
     <g id="line2d_2">
      <g>
       <use xlink:href="#m075c0cf8c5" x="267.532091" y="740.521395" style="stroke: #000000; stroke-width: 0.8"/>
      </g>
     </g>
     <g id="text_2">
      <!-- 0.2 -->
      <g transform="translate(259.580529 755.119832) scale(0.1 -0.1)">
       <defs>
        <path id="DejaVuSans-32" d="M 1228 531 
L 3431 531 
L 3431 0 
L 469 0 
L 469 531 
Q 828 903 1448 1529 
Q 2069 2156 2228 2338 
Q 2531 2678 2651 2914 
Q 2772 3150 2772 3378 
Q 2772 3750 2511 3984 
Q 2250 4219 1831 4219 
Q 1534 4219 1204 4116 
Q 875 4013 500 3803 
L 500 4441 
Q 881 4594 1212 4672 
Q 1544 4750 1819 4750 
Q 2544 4750 2975 4387 
Q 3406 4025 3406 3419 
Q 3406 3131 3298 2873 
Q 3191 2616 2906 2266 
Q 2828 2175 2409 1742 
Q 1991 1309 1228 531 
z
" transform="scale(0.015625)"/>
       </defs>
       <use xlink:href="#DejaVuSans-30"/>
       <use xlink:href="#DejaVuSans-2e" x="63.623047"/>
       <use xlink:href="#DejaVuSans-32" x="95.410156"/>
      </g>
     </g>
    </g>
    <g id="xtick_3">
     <g id="line2d_3">
      <g>
       <use xlink:href="#m075c0cf8c5" x="504.961058" y="740.521395" style="stroke: #000000; stroke-width: 0.8"/>
      </g>
     </g>
     <g id="text_3">
      <!-- 0.4 -->
      <g transform="translate(497.009495 755.119832) scale(0.1 -0.1)">
       <defs>
        <path id="DejaVuSans-34" d="M 2419 4116 
L 825 1625 
L 2419 1625 
L 2419 4116 
z
M 2253 4666 
L 3047 4666 
L 3047 1625 
L 3713 1625 
L 3713 1100 
L 3047 1100 
L 3047 0 
L 2419 0 
L 2419 1100 
L 313 1100 
L 313 1709 
L 2253 4666 
z
" transform="scale(0.015625)"/>
       </defs>
       <use xlink:href="#DejaVuSans-30"/>
       <use xlink:href="#DejaVuSans-2e" x="63.623047"/>
       <use xlink:href="#DejaVuSans-34" x="95.410156"/>
      </g>
     </g>
    </g>
    <g id="xtick_4">
     <g id="line2d_4">
      <g>
       <use xlink:href="#m075c0cf8c5" x="742.390024" y="740.521395" style="stroke: #000000; stroke-width: 0.8"/>
      </g>
     </g>
     <g id="text_4">
      <!-- 0.6 -->
      <g transform="translate(734.438462 755.119832) scale(0.1 -0.1)">
       <defs>
        <path id="DejaVuSans-36" d="M 2113 2584 
Q 1688 2584 1439 2293 
Q 1191 2003 1191 1497 
Q 1191 994 1439 701 
Q 1688 409 2113 409 
Q 2538 409 2786 701 
Q 3034 994 3034 1497 
Q 3034 2003 2786 2293 
Q 2538 2584 2113 2584 
z
M 3366 4563 
L 3366 3988 
Q 3128 4100 2886 4159 
Q 2644 4219 2406 4219 
Q 1781 4219 1451 3797 
Q 1122 3375 1075 2522 
Q 1259 2794 1537 2939 
Q 1816 3084 2150 3084 
Q 2853 3084 3261 2657 
Q 3669 2231 3669 1497 
Q 3669 778 3244 343 
Q 2819 -91 2113 -91 
Q 1303 -91 875 529 
Q 447 1150 447 2328 
Q 447 3434 972 4092 
Q 1497 4750 2381 4750 
Q 2619 4750 2861 4703 
Q 3103 4656 3366 4563 
z
" transform="scale(0.015625)"/>
       </defs>
       <use xlink:href="#DejaVuSans-30"/>
       <use xlink:href="#DejaVuSans-2e" x="63.623047"/>
       <use xlink:href="#DejaVuSans-36" x="95.410156"/>
      </g>
     </g>
    </g>
    <g id="xtick_5">
     <g id="line2d_5">
      <g>
       <use xlink:href="#m075c0cf8c5" x="979.818991" y="740.521395" style="stroke: #000000; stroke-width: 0.8"/>
      </g>
     </g>
     <g id="text_5">
      <!-- 0.8 -->
      <g transform="translate(971.867428 755.119832) scale(0.1 -0.1)">
       <defs>
        <path id="DejaVuSans-38" d="M 2034 2216 
Q 1584 2216 1326 1975 
Q 1069 1734 1069 1313 
Q 1069 891 1326 650 
Q 1584 409 2034 409 
Q 2484 409 2743 651 
Q 3003 894 3003 1313 
Q 3003 1734 2745 1975 
Q 2488 2216 2034 2216 
z
M 1403 2484 
Q 997 2584 770 2862 
Q 544 3141 544 3541 
Q 544 4100 942 4425 
Q 1341 4750 2034 4750 
Q 2731 4750 3128 4425 
Q 3525 4100 3525 3541 
Q 3525 3141 3298 2862 
Q 3072 2584 2669 2484 
Q 3125 2378 3379 2068 
Q 3634 1759 3634 1313 
Q 3634 634 3220 271 
Q 2806 -91 2034 -91 
Q 1263 -91 848 271 
Q 434 634 434 1313 
Q 434 1759 690 2068 
Q 947 2378 1403 2484 
z
M 1172 3481 
Q 1172 3119 1398 2916 
Q 1625 2713 2034 2713 
Q 2441 2713 2670 2916 
Q 2900 3119 2900 3481 
Q 2900 3844 2670 4047 
Q 2441 4250 2034 4250 
Q 1625 4250 1398 4047 
Q 1172 3844 1172 3481 
z
" transform="scale(0.015625)"/>
       </defs>
       <use xlink:href="#DejaVuSans-30"/>
       <use xlink:href="#DejaVuSans-2e" x="63.623047"/>
       <use xlink:href="#DejaVuSans-38" x="95.410156"/>
      </g>
     </g>
    </g>
    <g id="xtick_6">
     <g id="line2d_6">
      <g>
       <use xlink:href="#m075c0cf8c5" x="1217.247957" y="740.521395" style="stroke: #000000; stroke-width: 0.8"/>
      </g>
     </g>
     <g id="text_6">
      <!-- 1.0 -->
      <g transform="translate(1209.296395 755.119832) scale(0.1 -0.1)">
       <defs>
        <path id="DejaVuSans-31" d="M 794 531 
L 1825 531 
L 1825 4091 
L 703 3866 
L 703 4441 
L 1819 4666 
L 2450 4666 
L 2450 531 
L 3481 531 
L 3481 0 
L 794 0 
L 794 531 
z
" transform="scale(0.015625)"/>
       </defs>
       <use xlink:href="#DejaVuSans-31"/>
       <use xlink:href="#DejaVuSans-2e" x="63.623047"/>
       <use xlink:href="#DejaVuSans-30" x="95.410156"/>
      </g>
     </g>
    </g>
   </g>
   <g id="matplotlib.axis_2">
    <g id="ytick_1">
     <g id="line2d_7">
      <defs>
       <path id="m5a24abe813" d="M 0 0 
L -3.5 0 
" style="stroke: #000000; stroke-width: 0.8"/>
      </defs>
      <g>
       <use xlink:href="#m5a24abe813" x="30.103125" y="740.521395" style="stroke: #000000; stroke-width: 0.8"/>
      </g>
     </g>
     <g id="text_7">
      <!-- 0.0 -->
      <g transform="translate(7.2 744.320614) scale(0.1 -0.1)">
       <use xlink:href="#DejaVuSans-30"/>
       <use xlink:href="#DejaVuSans-2e" x="63.623047"/>
       <use xlink:href="#DejaVuSans-30" x="95.410156"/>
      </g>
     </g>
    </g>
    <g id="ytick_2">
     <g id="line2d_8">
      <g>
       <use xlink:href="#m5a24abe813" x="30.103125" y="596.880741" style="stroke: #000000; stroke-width: 0.8"/>
      </g>
     </g>
     <g id="text_8">
      <!-- 0.2 -->
      <g transform="translate(7.2 600.67996) scale(0.1 -0.1)">
       <use xlink:href="#DejaVuSans-30"/>
       <use xlink:href="#DejaVuSans-2e" x="63.623047"/>
       <use xlink:href="#DejaVuSans-32" x="95.410156"/>
      </g>
     </g>
    </g>
    <g id="ytick_3">
     <g id="line2d_9">
      <g>
       <use xlink:href="#m5a24abe813" x="30.103125" y="453.240087" style="stroke: #000000; stroke-width: 0.8"/>
      </g>
     </g>
     <g id="text_9">
      <!-- 0.4 -->
      <g transform="translate(7.2 457.039306) scale(0.1 -0.1)">
       <use xlink:href="#DejaVuSans-30"/>
       <use xlink:href="#DejaVuSans-2e" x="63.623047"/>
       <use xlink:href="#DejaVuSans-34" x="95.410156"/>
      </g>
     </g>
    </g>
    <g id="ytick_4">
     <g id="line2d_10">
      <g>
       <use xlink:href="#m5a24abe813" x="30.103125" y="309.599433" style="stroke: #000000; stroke-width: 0.8"/>
      </g>
     </g>
     <g id="text_10">
      <!-- 0.6 -->
      <g transform="translate(7.2 313.398652) scale(0.1 -0.1)">
       <use xlink:href="#DejaVuSans-30"/>
       <use xlink:href="#DejaVuSans-2e" x="63.623047"/>
       <use xlink:href="#DejaVuSans-36" x="95.410156"/>
      </g>
     </g>
    </g>
    <g id="ytick_5">
     <g id="line2d_11">
      <g>
       <use xlink:href="#m5a24abe813" x="30.103125" y="165.958779" style="stroke: #000000; stroke-width: 0.8"/>
      </g>
     </g>
     <g id="text_11">
      <!-- 0.8 -->
      <g transform="translate(7.2 169.757998) scale(0.1 -0.1)">
       <use xlink:href="#DejaVuSans-30"/>
       <use xlink:href="#DejaVuSans-2e" x="63.623047"/>
       <use xlink:href="#DejaVuSans-38" x="95.410156"/>
      </g>
     </g>
    </g>
    <g id="ytick_6">
     <g id="line2d_12">
      <g>
       <use xlink:href="#m5a24abe813" x="30.103125" y="22.318125" style="stroke: #000000; stroke-width: 0.8"/>
      </g>
     </g>
     <g id="text_12">
      <!-- 1.0 -->
      <g transform="translate(7.2 26.117344) scale(0.1 -0.1)">
       <use xlink:href="#DejaVuSans-31"/>
       <use xlink:href="#DejaVuSans-2e" x="63.623047"/>
       <use xlink:href="#DejaVuSans-30" x="95.410156"/>
      </g>
     </g>
    </g>
   </g>
   <g id="patch_3">
    <path d="M 30.103125 740.521395 
L 30.103125 22.318125 
" style="fill: none; stroke: #000000; stroke-width: 0.8; stroke-linejoin: miter; stroke-linecap: square"/>
   </g>
   <g id="patch_4">
    <path d="M 1217.247957 740.521395 
L 1217.247957 22.318125 
" style="fill: none; stroke: #000000; stroke-width: 0.8; stroke-linejoin: miter; stroke-linecap: square"/>
   </g>
   <g id="patch_5">
    <path d="M 30.103125 740.521395 
L 1217.247957 740.521395 
" style="fill: none; stroke: #000000; stroke-width: 0.8; stroke-linejoin: miter; stroke-linecap: square"/>
   </g>
   <g id="patch_6">
    <path d="M 30.103125 22.318125 
L 1217.247957 22.318125 
" style="fill: none; stroke: #000000; stroke-width: 0.8; stroke-linejoin: miter; stroke-linecap: square"/>
   </g>
   <g id="text_13">
    <!-- syn third -->
    <g transform="translate(597.297104 16.318125) scale(0.12 -0.12)">
     <defs>
      <path id="DejaVuSans-73" d="M 2834 3397 
L 2834 2853 
Q 2591 2978 2328 3040 
Q 2066 3103 1784 3103 
Q 1356 3103 1142 2972 
Q 928 2841 928 2578 
Q 928 2378 1081 2264 
Q 1234 2150 1697 2047 
L 1894 2003 
Q 2506 1872 2764 1633 
Q 3022 1394 3022 966 
Q 3022 478 2636 193 
Q 2250 -91 1575 -91 
Q 1294 -91 989 -36 
Q 684 19 347 128 
L 347 722 
Q 666 556 975 473 
Q 1284 391 1588 391 
Q 1994 391 2212 530 
Q 2431 669 2431 922 
Q 2431 1156 2273 1281 
Q 2116 1406 1581 1522 
L 1381 1569 
Q 847 1681 609 1914 
Q 372 2147 372 2553 
Q 372 3047 722 3315 
Q 1072 3584 1716 3584 
Q 2034 3584 2315 3537 
Q 2597 3491 2834 3397 
z
" transform="scale(0.015625)"/>
      <path id="DejaVuSans-79" d="M 2059 -325 
Q 1816 -950 1584 -1140 
Q 1353 -1331 966 -1331 
L 506 -1331 
L 506 -850 
L 844 -850 
Q 1081 -850 1212 -737 
Q 1344 -625 1503 -206 
L 1606 56 
L 191 3500 
L 800 3500 
L 1894 763 
L 2988 3500 
L 3597 3500 
L 2059 -325 
z
" transform="scale(0.015625)"/>
      <path id="DejaVuSans-6e" d="M 3513 2113 
L 3513 0 
L 2938 0 
L 2938 2094 
Q 2938 2591 2744 2837 
Q 2550 3084 2163 3084 
Q 1697 3084 1428 2787 
Q 1159 2491 1159 1978 
L 1159 0 
L 581 0 
L 581 3500 
L 1159 3500 
L 1159 2956 
Q 1366 3272 1645 3428 
Q 1925 3584 2291 3584 
Q 2894 3584 3203 3211 
Q 3513 2838 3513 2113 
z
" transform="scale(0.015625)"/>
      <path id="DejaVuSans-20" transform="scale(0.015625)"/>
      <path id="DejaVuSans-74" d="M 1172 4494 
L 1172 3500 
L 2356 3500 
L 2356 3053 
L 1172 3053 
L 1172 1153 
Q 1172 725 1289 603 
Q 1406 481 1766 481 
L 2356 481 
L 2356 0 
L 1766 0 
Q 1100 0 847 248 
Q 594 497 594 1153 
L 594 3053 
L 172 3053 
L 172 3500 
L 594 3500 
L 594 4494 
L 1172 4494 
z
" transform="scale(0.015625)"/>
      <path id="DejaVuSans-68" d="M 3513 2113 
L 3513 0 
L 2938 0 
L 2938 2094 
Q 2938 2591 2744 2837 
Q 2550 3084 2163 3084 
Q 1697 3084 1428 2787 
Q 1159 2491 1159 1978 
L 1159 0 
L 581 0 
L 581 4863 
L 1159 4863 
L 1159 2956 
Q 1366 3272 1645 3428 
Q 1925 3584 2291 3584 
Q 2894 3584 3203 3211 
Q 3513 2838 3513 2113 
z
" transform="scale(0.015625)"/>
      <path id="DejaVuSans-69" d="M 603 3500 
L 1178 3500 
L 1178 0 
L 603 0 
L 603 3500 
z
M 603 4863 
L 1178 4863 
L 1178 4134 
L 603 4134 
L 603 4863 
z
" transform="scale(0.015625)"/>
      <path id="DejaVuSans-72" d="M 2631 2963 
Q 2534 3019 2420 3045 
Q 2306 3072 2169 3072 
Q 1681 3072 1420 2755 
Q 1159 2438 1159 1844 
L 1159 0 
L 581 0 
L 581 3500 
L 1159 3500 
L 1159 2956 
Q 1341 3275 1631 3429 
Q 1922 3584 2338 3584 
Q 2397 3584 2469 3576 
Q 2541 3569 2628 3553 
L 2631 2963 
z
" transform="scale(0.015625)"/>
      <path id="DejaVuSans-64" d="M 2906 2969 
L 2906 4863 
L 3481 4863 
L 3481 0 
L 2906 0 
L 2906 525 
Q 2725 213 2448 61 
Q 2172 -91 1784 -91 
Q 1150 -91 751 415 
Q 353 922 353 1747 
Q 353 2572 751 3078 
Q 1150 3584 1784 3584 
Q 2172 3584 2448 3432 
Q 2725 3281 2906 2969 
z
M 947 1747 
Q 947 1113 1208 752 
Q 1469 391 1925 391 
Q 2381 391 2643 752 
Q 2906 1113 2906 1747 
Q 2906 2381 2643 2742 
Q 2381 3103 1925 3103 
Q 1469 3103 1208 2742 
Q 947 2381 947 1747 
z
" transform="scale(0.015625)"/>
     </defs>
     <use xlink:href="#DejaVuSans-73"/>
     <use xlink:href="#DejaVuSans-79" x="52.099609"/>
     <use xlink:href="#DejaVuSans-6e" x="111.279297"/>
     <use xlink:href="#DejaVuSans-20" x="174.658203"/>
     <use xlink:href="#DejaVuSans-74" x="206.445312"/>
     <use xlink:href="#DejaVuSans-68" x="245.654297"/>
     <use xlink:href="#DejaVuSans-69" x="309.033203"/>
     <use xlink:href="#DejaVuSans-72" x="336.816406"/>
     <use xlink:href="#DejaVuSans-64" x="376.179688"/>
    </g>
   </g>
  </g>
  <g id="axes_2">
   <g id="patch_7">
    <path d="M 38.482813 740.521395 
L 606.89851 740.521395 
L 606.89851 22.318125 
L 38.482813 22.318125 
z
" style="fill: #ffffff"/>
   </g>
   <g id="matplotlib.axis_3">
    <g id="xtick_7">
     <g id="line2d_13">
      <g>
       <use xlink:href="#m075c0cf8c5" x="64.31989" y="740.521395" style="stroke: #000000; stroke-width: 0.8"/>
      </g>
     </g>
     <g id="text_14">
      <!-- 0 -->
      <g transform="translate(61.13864 755.119832) scale(0.1 -0.1)">
       <use xlink:href="#DejaVuSans-30"/>
      </g>
     </g>
    </g>
    <g id="xtick_8">
     <g id="line2d_14">
      <g>
       <use xlink:href="#m075c0cf8c5" x="140.311293" y="740.521395" style="stroke: #000000; stroke-width: 0.8"/>
      </g>
     </g>
     <g id="text_15">
      <!-- 5 -->
      <g transform="translate(137.130043 755.119832) scale(0.1 -0.1)">
       <defs>
        <path id="DejaVuSans-35" d="M 691 4666 
L 3169 4666 
L 3169 4134 
L 1269 4134 
L 1269 2991 
Q 1406 3038 1543 3061 
Q 1681 3084 1819 3084 
Q 2600 3084 3056 2656 
Q 3513 2228 3513 1497 
Q 3513 744 3044 326 
Q 2575 -91 1722 -91 
Q 1428 -91 1123 -41 
Q 819 9 494 109 
L 494 744 
Q 775 591 1075 516 
Q 1375 441 1709 441 
Q 2250 441 2565 725 
Q 2881 1009 2881 1497 
Q 2881 1984 2565 2268 
Q 2250 2553 1709 2553 
Q 1456 2553 1204 2497 
Q 953 2441 691 2322 
L 691 4666 
z
" transform="scale(0.015625)"/>
       </defs>
       <use xlink:href="#DejaVuSans-35"/>
      </g>
     </g>
    </g>
    <g id="xtick_9">
     <g id="line2d_15">
      <g>
       <use xlink:href="#m075c0cf8c5" x="216.302696" y="740.521395" style="stroke: #000000; stroke-width: 0.8"/>
      </g>
     </g>
     <g id="text_16">
      <!-- 10 -->
      <g transform="translate(209.940196 755.119832) scale(0.1 -0.1)">
       <use xlink:href="#DejaVuSans-31"/>
       <use xlink:href="#DejaVuSans-30" x="63.623047"/>
      </g>
     </g>
    </g>
    <g id="xtick_10">
     <g id="line2d_16">
      <g>
       <use xlink:href="#m075c0cf8c5" x="292.2941" y="740.521395" style="stroke: #000000; stroke-width: 0.8"/>
      </g>
     </g>
     <g id="text_17">
      <!-- 15 -->
      <g transform="translate(285.9316 755.119832) scale(0.1 -0.1)">
       <use xlink:href="#DejaVuSans-31"/>
       <use xlink:href="#DejaVuSans-35" x="63.623047"/>
      </g>
     </g>
    </g>
    <g id="xtick_11">
     <g id="line2d_17">
      <g>
       <use xlink:href="#m075c0cf8c5" x="368.285503" y="740.521395" style="stroke: #000000; stroke-width: 0.8"/>
      </g>
     </g>
     <g id="text_18">
      <!-- 20 -->
      <g transform="translate(361.923003 755.119832) scale(0.1 -0.1)">
       <use xlink:href="#DejaVuSans-32"/>
       <use xlink:href="#DejaVuSans-30" x="63.623047"/>
      </g>
     </g>
    </g>
    <g id="xtick_12">
     <g id="line2d_18">
      <g>
       <use xlink:href="#m075c0cf8c5" x="444.276907" y="740.521395" style="stroke: #000000; stroke-width: 0.8"/>
      </g>
     </g>
     <g id="text_19">
      <!-- 25 -->
      <g transform="translate(437.914407 755.119832) scale(0.1 -0.1)">
       <use xlink:href="#DejaVuSans-32"/>
       <use xlink:href="#DejaVuSans-35" x="63.623047"/>
      </g>
     </g>
    </g>
    <g id="xtick_13">
     <g id="line2d_19">
      <g>
       <use xlink:href="#m075c0cf8c5" x="520.26831" y="740.521395" style="stroke: #000000; stroke-width: 0.8"/>
      </g>
     </g>
     <g id="text_20">
      <!-- 30 -->
      <g transform="translate(513.90581 755.119832) scale(0.1 -0.1)">
       <defs>
        <path id="DejaVuSans-33" d="M 2597 2516 
Q 3050 2419 3304 2112 
Q 3559 1806 3559 1356 
Q 3559 666 3084 287 
Q 2609 -91 1734 -91 
Q 1441 -91 1130 -33 
Q 819 25 488 141 
L 488 750 
Q 750 597 1062 519 
Q 1375 441 1716 441 
Q 2309 441 2620 675 
Q 2931 909 2931 1356 
Q 2931 1769 2642 2001 
Q 2353 2234 1838 2234 
L 1294 2234 
L 1294 2753 
L 1863 2753 
Q 2328 2753 2575 2939 
Q 2822 3125 2822 3475 
Q 2822 3834 2567 4026 
Q 2313 4219 1838 4219 
Q 1578 4219 1281 4162 
Q 984 4106 628 3988 
L 628 4550 
Q 988 4650 1302 4700 
Q 1616 4750 1894 4750 
Q 2613 4750 3031 4423 
Q 3450 4097 3450 3541 
Q 3450 3153 3228 2886 
Q 3006 2619 2597 2516 
z
" transform="scale(0.015625)"/>
       </defs>
       <use xlink:href="#DejaVuSans-33"/>
       <use xlink:href="#DejaVuSans-30" x="63.623047"/>
      </g>
     </g>
    </g>
    <g id="xtick_14">
     <g id="line2d_20">
      <g>
       <use xlink:href="#m075c0cf8c5" x="596.259714" y="740.521395" style="stroke: #000000; stroke-width: 0.8"/>
      </g>
     </g>
     <g id="text_21">
      <!-- 35 -->
      <g transform="translate(589.897214 755.119832) scale(0.1 -0.1)">
       <use xlink:href="#DejaVuSans-33"/>
       <use xlink:href="#DejaVuSans-35" x="63.623047"/>
      </g>
     </g>
    </g>
   </g>
   <g id="matplotlib.axis_4">
    <g id="ytick_7">
     <g id="line2d_21">
      <g>
       <use xlink:href="#m5a24abe813" x="38.482813" y="689.059421" style="stroke: #000000; stroke-width: 0.8"/>
      </g>
     </g>
     <g id="text_22">
      <!-- −0.4 -->
      <g transform="translate(7.2 692.858639) scale(0.1 -0.1)">
       <defs>
        <path id="DejaVuSans-2212" d="M 678 2272 
L 4684 2272 
L 4684 1741 
L 678 1741 
L 678 2272 
z
" transform="scale(0.015625)"/>
       </defs>
       <use xlink:href="#DejaVuSans-2212"/>
       <use xlink:href="#DejaVuSans-30" x="83.789062"/>
       <use xlink:href="#DejaVuSans-2e" x="147.412109"/>
       <use xlink:href="#DejaVuSans-34" x="179.199219"/>
      </g>
     </g>
    </g>
    <g id="ytick_8">
     <g id="line2d_22">
      <g>
       <use xlink:href="#m5a24abe813" x="38.482813" y="607.215933" style="stroke: #000000; stroke-width: 0.8"/>
      </g>
     </g>
     <g id="text_23">
      <!-- −0.3 -->
      <g transform="translate(7.2 611.015152) scale(0.1 -0.1)">
       <use xlink:href="#DejaVuSans-2212"/>
       <use xlink:href="#DejaVuSans-30" x="83.789062"/>
       <use xlink:href="#DejaVuSans-2e" x="147.412109"/>
       <use xlink:href="#DejaVuSans-33" x="179.199219"/>
      </g>
     </g>
    </g>
    <g id="ytick_9">
     <g id="line2d_23">
      <g>
       <use xlink:href="#m5a24abe813" x="38.482813" y="525.372445" style="stroke: #000000; stroke-width: 0.8"/>
      </g>
     </g>
     <g id="text_24">
      <!-- −0.2 -->
      <g transform="translate(7.2 529.171664) scale(0.1 -0.1)">
       <use xlink:href="#DejaVuSans-2212"/>
       <use xlink:href="#DejaVuSans-30" x="83.789062"/>
       <use xlink:href="#DejaVuSans-2e" x="147.412109"/>
       <use xlink:href="#DejaVuSans-32" x="179.199219"/>
      </g>
     </g>
    </g>
    <g id="ytick_10">
     <g id="line2d_24">
      <g>
       <use xlink:href="#m5a24abe813" x="38.482813" y="443.528958" style="stroke: #000000; stroke-width: 0.8"/>
      </g>
     </g>
     <g id="text_25">
      <!-- −0.1 -->
      <g transform="translate(7.2 447.328177) scale(0.1 -0.1)">
       <use xlink:href="#DejaVuSans-2212"/>
       <use xlink:href="#DejaVuSans-30" x="83.789062"/>
       <use xlink:href="#DejaVuSans-2e" x="147.412109"/>
       <use xlink:href="#DejaVuSans-31" x="179.199219"/>
      </g>
     </g>
    </g>
    <g id="ytick_11">
     <g id="line2d_25">
      <g>
       <use xlink:href="#m5a24abe813" x="38.482813" y="361.68547" style="stroke: #000000; stroke-width: 0.8"/>
      </g>
     </g>
     <g id="text_26">
      <!-- 0.0 -->
      <g transform="translate(15.579688 365.484689) scale(0.1 -0.1)">
       <use xlink:href="#DejaVuSans-30"/>
       <use xlink:href="#DejaVuSans-2e" x="63.623047"/>
       <use xlink:href="#DejaVuSans-30" x="95.410156"/>
      </g>
     </g>
    </g>
    <g id="ytick_12">
     <g id="line2d_26">
      <g>
       <use xlink:href="#m5a24abe813" x="38.482813" y="279.841983" style="stroke: #000000; stroke-width: 0.8"/>
      </g>
     </g>
     <g id="text_27">
      <!-- 0.1 -->
      <g transform="translate(15.579688 283.641201) scale(0.1 -0.1)">
       <use xlink:href="#DejaVuSans-30"/>
       <use xlink:href="#DejaVuSans-2e" x="63.623047"/>
       <use xlink:href="#DejaVuSans-31" x="95.410156"/>
      </g>
     </g>
    </g>
    <g id="ytick_13">
     <g id="line2d_27">
      <g>
       <use xlink:href="#m5a24abe813" x="38.482813" y="197.998495" style="stroke: #000000; stroke-width: 0.8"/>
      </g>
     </g>
     <g id="text_28">
      <!-- 0.2 -->
      <g transform="translate(15.579688 201.797714) scale(0.1 -0.1)">
       <use xlink:href="#DejaVuSans-30"/>
       <use xlink:href="#DejaVuSans-2e" x="63.623047"/>
       <use xlink:href="#DejaVuSans-32" x="95.410156"/>
      </g>
     </g>
    </g>
    <g id="ytick_14">
     <g id="line2d_28">
      <g>
       <use xlink:href="#m5a24abe813" x="38.482813" y="116.155007" style="stroke: #000000; stroke-width: 0.8"/>
      </g>
     </g>
     <g id="text_29">
      <!-- 0.3 -->
      <g transform="translate(15.579688 119.954226) scale(0.1 -0.1)">
       <use xlink:href="#DejaVuSans-30"/>
       <use xlink:href="#DejaVuSans-2e" x="63.623047"/>
       <use xlink:href="#DejaVuSans-33" x="95.410156"/>
      </g>
     </g>
    </g>
    <g id="ytick_15">
     <g id="line2d_29">
      <g>
       <use xlink:href="#m5a24abe813" x="38.482813" y="34.31152" style="stroke: #000000; stroke-width: 0.8"/>
      </g>
     </g>
     <g id="text_30">
      <!-- 0.4 -->
      <g transform="translate(15.579688 38.110739) scale(0.1 -0.1)">
       <use xlink:href="#DejaVuSans-30"/>
       <use xlink:href="#DejaVuSans-2e" x="63.623047"/>
       <use xlink:href="#DejaVuSans-34" x="95.410156"/>
      </g>
     </g>
    </g>
   </g>
   <g id="line2d_30">
    <path d="M 64.31989 339.982702 
L 79.51817 341.121762 
L 94.716451 342.599994 
L 109.914732 344.334374 
L 125.113012 346.233139 
L 140.311293 348.20311 
L 155.509574 350.15528 
L 170.707854 352.006529 
L 185.906135 353.67429 
L 201.104416 355.059392 
L 216.302696 356.010608 
L 231.500977 356.264442 
L 246.699258 355.358486 
L 261.897539 352.530283 
L 277.095819 346.637563 
L 292.2941 336.164513 
L 307.492381 319.395911 
L 322.690661 294.821273 
L 337.888942 261.754841 
L 353.087223 221.031096 
L 368.285503 175.509551 
L 383.483784 130.07932 
L 398.682065 90.963574 
L 413.880345 64.385104 
L 429.078626 54.963728 
L 444.276907 64.408982 
L 459.475187 91.016474 
L 474.673468 130.172171 
L 489.871749 175.660356 
L 505.070029 221.266838 
L 520.26831 262.113972 
L 535.466591 295.356648 
L 550.664871 320.177993 
L 565.863152 337.284497 
L 581.061433 348.209978 
" clip-path="url(#p82f6f3be74)" style="fill: none; stroke: #1f77b4; stroke-width: 1.5; stroke-linecap: square"/>
   </g>
   <g id="line2d_31">
    <path d="M 64.31989 119.733008 
L 79.51817 103.7983 
L 94.716451 92.980362 
L 109.914732 88.200006 
L 125.113012 89.968041 
L 140.311293 98.306399 
L 155.509574 112.731554 
L 170.707854 132.304974 
L 185.906135 155.742859 
L 201.104416 181.566647 
L 216.302696 208.269263 
L 231.500977 234.471091 
L 246.699258 259.043919 
L 261.897539 281.188846 
L 277.095819 300.462975 
L 292.2941 316.757475 
L 307.492381 330.235174 
L 322.690661 341.239607 
L 337.888942 350.190473 
L 353.087223 357.483303 
L 368.285503 363.412783 
L 383.483784 368.136883 
L 398.682065 371.690302 
L 413.880345 374.041285 
L 429.078626 375.170321 
L 444.276907 375.140312 
L 459.475187 374.131058 
L 474.673468 372.426238 
L 489.871749 370.361206 
L 505.070029 368.255012 
L 520.26831 366.353145 
L 535.466591 364.798712 
L 550.664871 363.635275 
L 565.863152 362.832315 
L 581.061433 362.319041 
" clip-path="url(#p82f6f3be74)" style="fill: none; stroke: #ff7f0e; stroke-width: 1.5; stroke-linecap: square"/>
   </g>
   <g id="line2d_32">
    <path d="M 64.31989 707.875792 
L 79.51817 694.567599 
L 94.716451 675.651175 
L 109.914732 652.136988 
L 125.113012 625.220721 
L 140.311293 596.185078 
L 155.509574 566.301805 
L 170.707854 536.743815 
L 185.906135 508.515234 
L 201.104416 482.404325 
L 216.302696 458.961062 
L 231.500977 438.498104 
L 246.699258 421.111409 
L 261.897539 406.715133 
L 277.095819 395.084838 
L 292.2941 385.903407 
L 307.492381 378.805087 
L 322.690661 373.414412 
L 337.888942 369.377852 
L 353.087223 366.3868 
L 368.285503 364.190895 
L 383.483784 362.601232 
L 398.682065 361.484047 
L 413.880345 360.747148 
L 429.078626 360.323067 
L 444.276907 360.153726 
L 459.475187 360.180672 
L 474.673468 360.342621 
L 489.871749 360.579194 
L 505.070029 360.837593 
L 520.26831 361.078515 
L 535.466591 361.278781 
L 550.664871 361.430104 
L 565.863152 361.535112 
L 581.061433 361.602432 
" clip-path="url(#p82f6f3be74)" style="fill: none; stroke: #2ca02c; stroke-width: 1.5; stroke-linecap: square"/>
   </g>
   <g id="line2d_33">
    <path d="M 64.31989 659.511146 
L 79.51817 657.165597 
L 94.716451 650.256717 
L 109.914732 639.099262 
L 125.113012 624.194651 
L 140.311293 606.193978 
L 155.509574 585.851138 
L 170.707854 563.970718 
L 185.906135 541.355659 
L 201.104416 518.759399 
L 216.302696 496.846416 
L 231.500977 476.163842 
L 246.699258 457.125379 
L 261.897539 440.007324 
L 277.095819 424.955257 
L 292.2941 411.999072 
L 307.492381 401.073559 
L 322.690661 392.041688 
L 337.888942 384.718036 
L 353.087223 378.890339 
L 368.285503 374.337761 
L 383.483784 370.845172 
L 398.682065 368.213253 
L 413.880345 366.26474 
L 429.078626 364.847382 
L 444.276907 363.834369 
L 459.475187 363.122967 
L 474.673468 362.632069 
L 489.871749 362.299189 
L 505.070029 362.077321 
L 520.26831 361.931924 
L 535.466591 361.838198 
L 550.664871 361.778741 
L 565.863152 361.741606 
L 581.061433 361.718764 
" clip-path="url(#p82f6f3be74)" style="fill: none; stroke: #d62728; stroke-width: 1.5; stroke-linecap: square"/>
   </g>
   <g id="patch_8">
    <path d="M 38.482813 740.521395 
L 38.482813 22.318125 
" style="fill: none; stroke: #000000; stroke-width: 0.8; stroke-linejoin: miter; stroke-linecap: square"/>
   </g>
   <g id="patch_9">
    <path d="M 606.89851 740.521395 
L 606.89851 22.318125 
" style="fill: none; stroke: #000000; stroke-width: 0.8; stroke-linejoin: miter; stroke-linecap: square"/>
   </g>
   <g id="patch_10">
    <path d="M 38.482813 740.521395 
L 606.89851 740.521395 
" style="fill: none; stroke: #000000; stroke-width: 0.8; stroke-linejoin: miter; stroke-linecap: square"/>
   </g>
   <g id="patch_11">
    <path d="M 38.482813 22.318125 
L 606.89851 22.318125 
" style="fill: none; stroke: #000000; stroke-width: 0.8; stroke-linejoin: miter; stroke-linecap: square"/>
   </g>
   <g id="text_31">
    <!-- Excitation -->
    <g transform="translate(292.965349 16.318125) scale(0.12 -0.12)">
     <defs>
      <path id="DejaVuSans-45" d="M 628 4666 
L 3578 4666 
L 3578 4134 
L 1259 4134 
L 1259 2753 
L 3481 2753 
L 3481 2222 
L 1259 2222 
L 1259 531 
L 3634 531 
L 3634 0 
L 628 0 
L 628 4666 
z
" transform="scale(0.015625)"/>
      <path id="DejaVuSans-78" d="M 3513 3500 
L 2247 1797 
L 3578 0 
L 2900 0 
L 1881 1375 
L 863 0 
L 184 0 
L 1544 1831 
L 300 3500 
L 978 3500 
L 1906 2253 
L 2834 3500 
L 3513 3500 
z
" transform="scale(0.015625)"/>
      <path id="DejaVuSans-63" d="M 3122 3366 
L 3122 2828 
Q 2878 2963 2633 3030 
Q 2388 3097 2138 3097 
Q 1578 3097 1268 2742 
Q 959 2388 959 1747 
Q 959 1106 1268 751 
Q 1578 397 2138 397 
Q 2388 397 2633 464 
Q 2878 531 3122 666 
L 3122 134 
Q 2881 22 2623 -34 
Q 2366 -91 2075 -91 
Q 1284 -91 818 406 
Q 353 903 353 1747 
Q 353 2603 823 3093 
Q 1294 3584 2113 3584 
Q 2378 3584 2631 3529 
Q 2884 3475 3122 3366 
z
" transform="scale(0.015625)"/>
      <path id="DejaVuSans-61" d="M 2194 1759 
Q 1497 1759 1228 1600 
Q 959 1441 959 1056 
Q 959 750 1161 570 
Q 1363 391 1709 391 
Q 2188 391 2477 730 
Q 2766 1069 2766 1631 
L 2766 1759 
L 2194 1759 
z
M 3341 1997 
L 3341 0 
L 2766 0 
L 2766 531 
Q 2569 213 2275 61 
Q 1981 -91 1556 -91 
Q 1019 -91 701 211 
Q 384 513 384 1019 
Q 384 1609 779 1909 
Q 1175 2209 1959 2209 
L 2766 2209 
L 2766 2266 
Q 2766 2663 2505 2880 
Q 2244 3097 1772 3097 
Q 1472 3097 1187 3025 
Q 903 2953 641 2809 
L 641 3341 
Q 956 3463 1253 3523 
Q 1550 3584 1831 3584 
Q 2591 3584 2966 3190 
Q 3341 2797 3341 1997 
z
" transform="scale(0.015625)"/>
      <path id="DejaVuSans-6f" d="M 1959 3097 
Q 1497 3097 1228 2736 
Q 959 2375 959 1747 
Q 959 1119 1226 758 
Q 1494 397 1959 397 
Q 2419 397 2687 759 
Q 2956 1122 2956 1747 
Q 2956 2369 2687 2733 
Q 2419 3097 1959 3097 
z
M 1959 3584 
Q 2709 3584 3137 3096 
Q 3566 2609 3566 1747 
Q 3566 888 3137 398 
Q 2709 -91 1959 -91 
Q 1206 -91 779 398 
Q 353 888 353 1747 
Q 353 2609 779 3096 
Q 1206 3584 1959 3584 
z
" transform="scale(0.015625)"/>
     </defs>
     <use xlink:href="#DejaVuSans-45"/>
     <use xlink:href="#DejaVuSans-78" x="63.183594"/>
     <use xlink:href="#DejaVuSans-63" x="120.613281"/>
     <use xlink:href="#DejaVuSans-69" x="175.59375"/>
     <use xlink:href="#DejaVuSans-74" x="203.376953"/>
     <use xlink:href="#DejaVuSans-61" x="242.585938"/>
     <use xlink:href="#DejaVuSans-74" x="303.865234"/>
     <use xlink:href="#DejaVuSans-69" x="343.074219"/>
     <use xlink:href="#DejaVuSans-6f" x="370.857422"/>
     <use xlink:href="#DejaVuSans-6e" x="432.039062"/>
    </g>
   </g>
   <g id="legend_1">
    <g id="patch_12">
     <path d="M 561.53601 89.030625 
L 599.89851 89.030625 
Q 601.89851 89.030625 601.89851 87.030625 
L 601.89851 29.318125 
Q 601.89851 27.318125 599.89851 27.318125 
L 561.53601 27.318125 
Q 559.53601 27.318125 559.53601 29.318125 
L 559.53601 87.030625 
Q 559.53601 89.030625 561.53601 89.030625 
z
" style="fill: #ffffff; opacity: 0.8; stroke: #cccccc; stroke-linejoin: miter"/>
    </g>
    <g id="line2d_34">
     <path d="M 563.53601 35.416562 
L 573.53601 35.416562 
L 583.53601 35.416562 
" style="fill: none; stroke: #1f77b4; stroke-width: 1.5; stroke-linecap: square"/>
    </g>
    <g id="text_32">
     <!-- 0 -->
     <g transform="translate(591.53601 38.916562) scale(0.1 -0.1)">
      <use xlink:href="#DejaVuSans-30"/>
     </g>
    </g>
    <g id="line2d_35">
     <path d="M 563.53601 50.094687 
L 573.53601 50.094687 
L 583.53601 50.094687 
" style="fill: none; stroke: #ff7f0e; stroke-width: 1.5; stroke-linecap: square"/>
    </g>
    <g id="text_33">
     <!-- 1 -->
     <g transform="translate(591.53601 53.594687) scale(0.1 -0.1)">
      <use xlink:href="#DejaVuSans-31"/>
     </g>
    </g>
    <g id="line2d_36">
     <path d="M 563.53601 64.772812 
L 573.53601 64.772812 
L 583.53601 64.772812 
" style="fill: none; stroke: #2ca02c; stroke-width: 1.5; stroke-linecap: square"/>
    </g>
    <g id="text_34">
     <!-- 2 -->
     <g transform="translate(591.53601 68.272812) scale(0.1 -0.1)">
      <use xlink:href="#DejaVuSans-32"/>
     </g>
    </g>
    <g id="line2d_37">
     <path d="M 563.53601 79.450937 
L 573.53601 79.450937 
L 583.53601 79.450937 
" style="fill: none; stroke: #d62728; stroke-width: 1.5; stroke-linecap: square"/>
    </g>
    <g id="text_35">
     <!-- 3 -->
     <g transform="translate(591.53601 82.950937) scale(0.1 -0.1)">
      <use xlink:href="#DejaVuSans-33"/>
     </g>
    </g>
   </g>
  </g>
  <g id="axes_3">
   <g id="patch_13">
    <path d="M 656.783822 740.521395 
L 1225.19952 740.521395 
L 1225.19952 22.318125 
L 656.783822 22.318125 
z
" style="fill: #ffffff"/>
   </g>
   <g id="matplotlib.axis_5">
    <g id="xtick_15">
     <g id="line2d_38">
      <g>
       <use xlink:href="#m075c0cf8c5" x="682.6209" y="740.521395" style="stroke: #000000; stroke-width: 0.8"/>
      </g>
     </g>
     <g id="text_36">
      <!-- 0 -->
      <g transform="translate(679.43965 755.119832) scale(0.1 -0.1)">
       <use xlink:href="#DejaVuSans-30"/>
      </g>
     </g>
    </g>
    <g id="xtick_16">
     <g id="line2d_39">
      <g>
       <use xlink:href="#m075c0cf8c5" x="756.44112" y="740.521395" style="stroke: #000000; stroke-width: 0.8"/>
      </g>
     </g>
     <g id="text_37">
      <!-- 50 -->
      <g transform="translate(750.07862 755.119832) scale(0.1 -0.1)">
       <use xlink:href="#DejaVuSans-35"/>
       <use xlink:href="#DejaVuSans-30" x="63.623047"/>
      </g>
     </g>
    </g>
    <g id="xtick_17">
     <g id="line2d_40">
      <g>
       <use xlink:href="#m075c0cf8c5" x="830.261341" y="740.521395" style="stroke: #000000; stroke-width: 0.8"/>
      </g>
     </g>
     <g id="text_38">
      <!-- 100 -->
      <g transform="translate(820.717591 755.119832) scale(0.1 -0.1)">
       <use xlink:href="#DejaVuSans-31"/>
       <use xlink:href="#DejaVuSans-30" x="63.623047"/>
       <use xlink:href="#DejaVuSans-30" x="127.246094"/>
      </g>
     </g>
    </g>
    <g id="xtick_18">
     <g id="line2d_41">
      <g>
       <use xlink:href="#m075c0cf8c5" x="904.081561" y="740.521395" style="stroke: #000000; stroke-width: 0.8"/>
      </g>
     </g>
     <g id="text_39">
      <!-- 150 -->
      <g transform="translate(894.537811 755.119832) scale(0.1 -0.1)">
       <use xlink:href="#DejaVuSans-31"/>
       <use xlink:href="#DejaVuSans-35" x="63.623047"/>
       <use xlink:href="#DejaVuSans-30" x="127.246094"/>
      </g>
     </g>
    </g>
    <g id="xtick_19">
     <g id="line2d_42">
      <g>
       <use xlink:href="#m075c0cf8c5" x="977.901781" y="740.521395" style="stroke: #000000; stroke-width: 0.8"/>
      </g>
     </g>
     <g id="text_40">
      <!-- 200 -->
      <g transform="translate(968.358031 755.119832) scale(0.1 -0.1)">
       <use xlink:href="#DejaVuSans-32"/>
       <use xlink:href="#DejaVuSans-30" x="63.623047"/>
       <use xlink:href="#DejaVuSans-30" x="127.246094"/>
      </g>
     </g>
    </g>
    <g id="xtick_20">
     <g id="line2d_43">
      <g>
       <use xlink:href="#m075c0cf8c5" x="1051.722002" y="740.521395" style="stroke: #000000; stroke-width: 0.8"/>
      </g>
     </g>
     <g id="text_41">
      <!-- 250 -->
      <g transform="translate(1042.178252 755.119832) scale(0.1 -0.1)">
       <use xlink:href="#DejaVuSans-32"/>
       <use xlink:href="#DejaVuSans-35" x="63.623047"/>
       <use xlink:href="#DejaVuSans-30" x="127.246094"/>
      </g>
     </g>
    </g>
    <g id="xtick_21">
     <g id="line2d_44">
      <g>
       <use xlink:href="#m075c0cf8c5" x="1125.542222" y="740.521395" style="stroke: #000000; stroke-width: 0.8"/>
      </g>
     </g>
     <g id="text_42">
      <!-- 300 -->
      <g transform="translate(1115.998472 755.119832) scale(0.1 -0.1)">
       <use xlink:href="#DejaVuSans-33"/>
       <use xlink:href="#DejaVuSans-30" x="63.623047"/>
       <use xlink:href="#DejaVuSans-30" x="127.246094"/>
      </g>
     </g>
    </g>
    <g id="xtick_22">
     <g id="line2d_45">
      <g>
       <use xlink:href="#m075c0cf8c5" x="1199.362443" y="740.521395" style="stroke: #000000; stroke-width: 0.8"/>
      </g>
     </g>
     <g id="text_43">
      <!-- 350 -->
      <g transform="translate(1189.818693 755.119832) scale(0.1 -0.1)">
       <use xlink:href="#DejaVuSans-33"/>
       <use xlink:href="#DejaVuSans-35" x="63.623047"/>
       <use xlink:href="#DejaVuSans-30" x="127.246094"/>
      </g>
     </g>
    </g>
   </g>
   <g id="matplotlib.axis_6">
    <g id="ytick_16">
     <g id="line2d_46">
      <g>
       <use xlink:href="#m5a24abe813" x="656.783822" y="675.860471" style="stroke: #000000; stroke-width: 0.8"/>
      </g>
     </g>
     <g id="text_44">
      <!-- −0.15 -->
      <g transform="translate(619.13851 679.65969) scale(0.1 -0.1)">
       <use xlink:href="#DejaVuSans-2212"/>
       <use xlink:href="#DejaVuSans-30" x="83.789062"/>
       <use xlink:href="#DejaVuSans-2e" x="147.412109"/>
       <use xlink:href="#DejaVuSans-31" x="179.199219"/>
       <use xlink:href="#DejaVuSans-35" x="242.822266"/>
      </g>
     </g>
    </g>
    <g id="ytick_17">
     <g id="line2d_47">
      <g>
       <use xlink:href="#m5a24abe813" x="656.783822" y="563.715006" style="stroke: #000000; stroke-width: 0.8"/>
      </g>
     </g>
     <g id="text_45">
      <!-- −0.10 -->
      <g transform="translate(619.13851 567.514225) scale(0.1 -0.1)">
       <use xlink:href="#DejaVuSans-2212"/>
       <use xlink:href="#DejaVuSans-30" x="83.789062"/>
       <use xlink:href="#DejaVuSans-2e" x="147.412109"/>
       <use xlink:href="#DejaVuSans-31" x="179.199219"/>
       <use xlink:href="#DejaVuSans-30" x="242.822266"/>
      </g>
     </g>
    </g>
    <g id="ytick_18">
     <g id="line2d_48">
      <g>
       <use xlink:href="#m5a24abe813" x="656.783822" y="451.569541" style="stroke: #000000; stroke-width: 0.8"/>
      </g>
     </g>
     <g id="text_46">
      <!-- −0.05 -->
      <g transform="translate(619.13851 455.36876) scale(0.1 -0.1)">
       <use xlink:href="#DejaVuSans-2212"/>
       <use xlink:href="#DejaVuSans-30" x="83.789062"/>
       <use xlink:href="#DejaVuSans-2e" x="147.412109"/>
       <use xlink:href="#DejaVuSans-30" x="179.199219"/>
       <use xlink:href="#DejaVuSans-35" x="242.822266"/>
      </g>
     </g>
    </g>
    <g id="ytick_19">
     <g id="line2d_49">
      <g>
       <use xlink:href="#m5a24abe813" x="656.783822" y="339.424077" style="stroke: #000000; stroke-width: 0.8"/>
      </g>
     </g>
     <g id="text_47">
      <!-- 0.00 -->
      <g transform="translate(627.518197 343.223295) scale(0.1 -0.1)">
       <use xlink:href="#DejaVuSans-30"/>
       <use xlink:href="#DejaVuSans-2e" x="63.623047"/>
       <use xlink:href="#DejaVuSans-30" x="95.410156"/>
       <use xlink:href="#DejaVuSans-30" x="159.033203"/>
      </g>
     </g>
    </g>
    <g id="ytick_20">
     <g id="line2d_50">
      <g>
       <use xlink:href="#m5a24abe813" x="656.783822" y="227.278612" style="stroke: #000000; stroke-width: 0.8"/>
      </g>
     </g>
     <g id="text_48">
      <!-- 0.05 -->
      <g transform="translate(627.518197 231.077831) scale(0.1 -0.1)">
       <use xlink:href="#DejaVuSans-30"/>
       <use xlink:href="#DejaVuSans-2e" x="63.623047"/>
       <use xlink:href="#DejaVuSans-30" x="95.410156"/>
       <use xlink:href="#DejaVuSans-35" x="159.033203"/>
      </g>
     </g>
    </g>
    <g id="ytick_21">
     <g id="line2d_51">
      <g>
       <use xlink:href="#m5a24abe813" x="656.783822" y="115.133147" style="stroke: #000000; stroke-width: 0.8"/>
      </g>
     </g>
     <g id="text_49">
      <!-- 0.10 -->
      <g transform="translate(627.518197 118.932366) scale(0.1 -0.1)">
       <use xlink:href="#DejaVuSans-30"/>
       <use xlink:href="#DejaVuSans-2e" x="63.623047"/>
       <use xlink:href="#DejaVuSans-31" x="95.410156"/>
       <use xlink:href="#DejaVuSans-30" x="159.033203"/>
      </g>
     </g>
    </g>
   </g>
   <g id="line2d_52">
    <path d="M 682.6209 339.506501 
L 700.337753 339.760014 
L 715.101797 340.208491 
L 749.059098 341.417901 
L 757.917525 341.423318 
L 766.775951 341.207396 
L 777.110782 340.701217 
L 788.922017 339.871638 
L 800.733252 338.824012 
L 809.591679 337.833486 
L 816.973701 336.770768 
L 822.879319 335.6789 
L 827.308532 334.666441 
L 831.737745 333.443255 
L 836.166958 331.963414 
L 840.596171 330.175979 
L 843.54898 328.78616 
L 846.501789 327.217406 
L 849.454598 325.451389 
L 852.407407 323.469143 
L 855.360216 321.251205 
L 858.313024 318.777798 
L 861.265833 316.029036 
L 864.218642 312.985174 
L 867.171451 309.626886 
L 870.12426 305.93558 
L 873.077068 301.893741 
L 876.029877 297.485303 
L 878.982686 292.696053 
L 881.935495 287.514038 
L 884.888304 281.929999 
L 887.841113 275.937797 
L 890.793921 269.534844 
L 893.74673 262.722514 
L 896.699539 255.506531 
L 901.128752 243.949879 
L 905.557965 231.566249 
L 909.987179 218.439332 
L 914.416392 204.680864 
L 920.32201 185.599331 
L 938.038862 127.531167 
L 942.468076 113.996102 
L 946.897289 101.336658 
L 949.850098 93.502545 
L 952.802907 86.233048 
L 955.755715 79.593152 
L 958.708524 73.643441 
L 961.661333 68.439179 
L 964.614142 64.029458 
L 966.090546 62.136012 
L 967.566951 60.456429 
L 969.043355 58.994783 
L 970.519759 57.754638 
L 971.996164 56.739031 
L 973.472568 55.950463 
L 974.948973 55.390887 
L 976.425377 55.061697 
L 977.901781 54.963728 
L 979.378186 55.09725 
L 980.85459 55.461964 
L 982.330995 56.057009 
L 983.807399 56.880959 
L 985.283804 57.931835 
L 986.760208 59.207108 
L 988.236612 60.703712 
L 989.713017 62.418056 
L 991.189421 64.346038 
L 992.665826 66.48306 
L 995.618634 71.363477 
L 998.571443 77.013385 
L 1001.524252 83.380299 
L 1004.477061 90.405987 
L 1007.42987 98.027357 
L 1010.382678 106.177401 
L 1014.811892 119.240163 
L 1019.241105 133.091384 
L 1025.146723 152.362204 
L 1039.910767 201.155028 
L 1045.816384 219.668244 
L 1050.245598 232.825165 
L 1054.674811 245.231359 
L 1059.104024 256.803227 
L 1062.056833 264.025348 
L 1065.009642 270.84068 
L 1067.96245 277.243572 
L 1070.915259 283.23273 
L 1073.868068 288.810833 
L 1076.820877 293.984111 
L 1079.773686 298.761921 
L 1082.726495 303.156314 
L 1085.679303 307.181598 
L 1088.632112 310.853922 
L 1091.584921 314.190875 
L 1094.53773 317.211104 
L 1097.490539 319.933964 
L 1100.443347 322.379197 
L 1103.396156 324.566643 
L 1106.348965 326.515984 
L 1109.301774 328.246529 
L 1112.254583 329.777026 
L 1115.207392 331.125508 
L 1119.636605 332.844328 
L 1124.065818 334.246171 
L 1128.495031 335.380003 
L 1132.924244 336.289489 
L 1138.829862 337.218765 
L 1144.73548 337.893924 
L 1152.117502 338.47428 
L 1160.975928 338.904302 
L 1172.787163 339.20423 
L 1189.027612 339.365023 
L 1199.362443 339.401381 
L 1199.362443 339.401381 
" clip-path="url(#p9bbef47319)" style="fill: none; stroke: #1f77b4; stroke-width: 1.5; stroke-linecap: square"/>
   </g>
   <g id="line2d_53">
    <path d="M 682.6209 340.844017 
L 688.526517 341.481355 
L 694.432135 342.365232 
L 698.861348 343.223183 
L 703.290561 344.270288 
L 707.719775 345.519446 
L 712.148988 346.973862 
L 716.578201 348.624216 
L 722.483819 351.085988 
L 731.342245 355.121618 
L 740.200672 359.118235 
L 744.629885 360.925493 
L 749.059098 362.521237 
L 753.488311 363.860494 
L 757.917525 364.919368 
L 762.346738 365.698083 
L 766.775951 366.221352 
L 771.205164 366.536016 
L 778.587186 366.776439 
L 787.445613 367.034508 
L 793.35123 367.460575 
L 797.780444 368.011681 
L 802.209657 368.8036 
L 806.63887 369.856735 
L 811.068083 371.176348 
L 815.497296 372.75497 
L 819.92651 374.575465 
L 824.355723 376.614275 
L 830.261341 379.625513 
L 836.166958 382.911391 
L 843.54898 387.313166 
L 852.407407 392.900533 
L 862.742238 399.69376 
L 876.029877 408.718588 
L 887.841113 417.000437 
L 898.175943 424.523689 
L 907.03437 431.27009 
L 914.416392 437.172405 
L 921.798414 443.389462 
L 927.704032 448.624919 
L 933.609649 454.117081 
L 939.515267 459.881017 
L 945.420884 465.9228 
L 951.326502 472.237461 
L 958.708524 480.486099 
L 966.090546 489.066178 
L 977.901781 503.212909 
L 989.713017 517.318383 
L 997.095039 525.756692 
L 1003.000656 532.114505 
L 1007.42987 536.573648 
L 1011.859083 540.709982 
L 1016.288296 544.472259 
L 1019.241105 546.748063 
L 1022.193914 548.821467 
L 1025.146723 550.679038 
L 1028.099531 552.308103 
L 1031.05234 553.696861 
L 1034.005149 554.834486 
L 1036.957958 555.711232 
L 1039.910767 556.318518 
L 1042.863575 556.649011 
L 1045.816384 556.696695 
L 1048.769193 556.456933 
L 1051.722002 555.926511 
L 1054.674811 555.103673 
L 1057.62762 553.988145 
L 1060.580428 552.581141 
L 1063.533237 550.885363 
L 1066.486046 548.904979 
L 1069.438855 546.645597 
L 1072.391664 544.11422 
L 1075.344472 541.319196 
L 1078.297281 538.270149 
L 1081.25009 534.977907 
L 1085.679303 529.609968 
L 1090.108517 523.766496 
L 1094.53773 517.496438 
L 1098.966943 510.85232 
L 1104.872561 501.507344 
L 1110.778178 491.731202 
L 1119.636605 476.558646 
L 1137.353458 446.006908 
L 1144.73548 433.79236 
L 1150.641097 424.430453 
L 1156.546715 415.514208 
L 1160.975928 409.155639 
L 1165.405141 403.100711 
L 1169.834355 397.364138 
L 1174.263568 391.956161 
L 1178.692781 386.882792 
L 1183.121994 382.146114 
L 1187.551208 377.744617 
L 1191.980421 373.673574 
L 1196.409634 369.925418 
L 1199.362443 367.601178 
L 1199.362443 367.601178 
" clip-path="url(#p9bbef47319)" style="fill: none; stroke: #ff7f0e; stroke-width: 1.5; stroke-linecap: square"/>
   </g>
   <g id="line2d_54">
    <path d="M 682.6209 341.587981 
L 685.573708 342.613077 
L 688.526517 343.901404 
L 691.479326 345.49161 
L 694.432135 347.421451 
L 697.384944 349.725766 
L 700.337753 352.434118 
L 703.290561 355.56816 
L 706.24337 359.138848 
L 709.196179 363.143642 
L 712.148988 367.563882 
L 715.101797 372.362541 
L 719.53101 380.139559 
L 726.913032 393.888754 
L 731.342245 401.939998 
L 734.295054 406.919487 
L 737.247863 411.402209 
L 740.200672 415.227332 
L 741.677076 416.844496 
L 743.15348 418.240028 
L 744.629885 419.39658 
L 746.106289 420.297985 
L 747.582694 420.929432 
L 749.059098 421.277644 
L 750.535502 421.331025 
L 752.011907 421.079797 
L 753.488311 420.516113 
L 754.964716 419.634151 
L 756.44112 418.430178 
L 757.917525 416.902592 
L 759.393929 415.051937 
L 760.870333 412.880895 
L 762.346738 410.394243 
L 763.823142 407.598795 
L 765.299547 404.503312 
L 768.252355 397.456348 
L 771.205164 389.357723 
L 774.157973 380.333976 
L 777.110782 370.527968 
L 781.539995 354.687798 
L 787.445613 332.270259 
L 797.780444 292.577557 
L 802.209657 276.309522 
L 806.63887 260.807324 
L 811.068083 246.170428 
L 815.497296 232.424568 
L 819.92651 219.541722 
L 824.355723 207.460937 
L 828.784936 196.107346 
L 833.214149 185.407627 
L 837.643363 175.30108 
L 842.072576 165.746293 
L 846.501789 156.723942 
L 850.931002 148.236551 
L 855.360216 140.306176 
L 859.789429 132.970863 
L 862.742238 128.435558 
L 865.695046 124.203684 
L 868.647855 120.293186 
L 871.600664 116.722576 
L 874.553473 113.510506 
L 877.506282 110.675386 
L 880.45909 108.23505 
L 883.411899 106.20646 
L 886.364708 104.605448 
L 889.317517 103.446501 
L 892.270326 102.742567 
L 893.74673 102.564817 
L 895.223135 102.504899 
L 896.699539 102.563934 
L 898.175943 102.742919 
L 899.652348 103.042727 
L 901.128752 103.464104 
L 902.605157 104.007668 
L 904.081561 104.673902 
L 907.03437 106.375659 
L 909.987179 108.570566 
L 912.939987 111.257631 
L 915.892796 114.433657 
L 918.845605 118.093249 
L 921.798414 122.228826 
L 924.751223 126.830653 
L 927.704032 131.886889 
L 930.65684 137.383646 
L 933.609649 143.305066 
L 936.562458 149.633401 
L 939.515267 156.349119 
L 943.94448 167.1022 
L 948.373693 178.600745 
L 952.802907 190.759786 
L 957.23212 203.4885 
L 963.137737 221.180568 
L 970.519759 244.120352 
L 994.14223 318.402701 
L 1000.047848 335.971102 
L 1005.953465 352.717841 
L 1010.382678 364.630492 
L 1014.811892 375.913182 
L 1019.241105 386.506758 
L 1023.670318 396.360235 
L 1026.623127 402.4967 
L 1029.575936 408.274685 
L 1032.528745 413.685442 
L 1035.481553 418.721946 
L 1038.434362 423.37889 
L 1041.387171 427.65267 
L 1044.33998 431.541356 
L 1047.292789 435.044668 
L 1050.245598 438.163925 
L 1053.198406 440.902006 
L 1056.151215 443.263286 
L 1059.104024 445.253578 
L 1062.056833 446.88006 
L 1065.009642 448.151203 
L 1067.96245 449.076689 
L 1070.915259 449.667325 
L 1073.868068 449.934952 
L 1076.820877 449.892354 
L 1079.773686 449.553162 
L 1082.726495 448.931752 
L 1085.679303 448.043149 
L 1088.632112 446.902924 
L 1091.584921 445.527093 
L 1094.53773 443.932016 
L 1097.490539 442.1343 
L 1101.919752 439.094443 
L 1106.348965 435.693023 
L 1110.778178 431.986282 
L 1116.683796 426.664148 
L 1122.589414 421.023031 
L 1131.44784 412.219897 
L 1146.211884 397.490394 
L 1153.593906 390.444192 
L 1159.499524 385.075723 
L 1165.405141 379.996841 
L 1171.310759 375.241944 
L 1177.216377 370.834367 
L 1181.64559 367.764938 
L 1186.074803 364.900751 
L 1190.504016 362.241497 
L 1194.93323 359.784617 
L 1199.362443 357.525608 
L 1199.362443 357.525608 
" clip-path="url(#p9bbef47319)" style="fill: none; stroke: #2ca02c; stroke-width: 1.5; stroke-linecap: square"/>
   </g>
   <g id="line2d_55">
    <path d="M 682.6209 355.777791 
L 684.097304 357.907277 
L 685.573708 360.26443 
L 687.050113 362.86609 
L 688.526517 365.729304 
L 690.002922 368.871168 
L 691.479326 372.308655 
L 692.955731 376.058421 
L 694.432135 380.136592 
L 695.908539 384.558531 
L 698.861348 394.489878 
L 701.814157 405.950466 
L 704.766966 419.009141 
L 707.719775 433.696522 
L 710.672583 449.996173 
L 713.625392 467.836655 
L 716.578201 487.085105 
L 719.53101 507.543051 
L 723.960223 539.899259 
L 734.295054 616.558495 
L 737.247863 636.704626 
L 740.200672 655.16603 
L 743.15348 671.464263 
L 744.629885 678.663005 
L 746.106289 685.160685 
L 747.582694 690.91196 
L 749.059098 695.87636 
L 750.535502 700.018771 
L 752.011907 703.309865 
L 753.488311 705.72646 
L 754.964716 707.251805 
L 756.44112 707.875792 
L 757.917525 707.595079 
L 759.393929 706.413136 
L 760.870333 704.340197 
L 762.346738 701.393138 
L 763.823142 697.595267 
L 765.299547 692.976033 
L 766.775951 687.570669 
L 768.252355 681.419762 
L 769.72876 674.568768 
L 771.205164 667.067466 
L 774.157973 650.331164 
L 777.110782 631.672735 
L 780.063591 611.583401 
L 785.969208 569.100129 
L 791.874826 526.64245 
L 796.304039 496.709244 
L 799.256848 478.221112 
L 802.209657 461.147662 
L 805.162466 445.621094 
L 808.115274 431.711993 
L 811.068083 419.435741 
L 814.020892 408.760467 
L 816.973701 399.615872 
L 818.450105 395.58734 
L 819.92651 391.902302 
L 821.402914 388.545158 
L 822.879319 385.499533 
L 824.355723 382.748512 
L 825.832127 380.27485 
L 827.308532 378.061168 
L 828.784936 376.090125 
L 830.261341 374.344578 
L 831.737745 372.807709 
L 833.214149 371.463148 
L 834.690554 370.295065 
L 836.166958 369.288252 
L 837.643363 368.428181 
L 840.596171 367.093831 
L 843.54898 366.190853 
L 846.501789 365.630589 
L 849.454598 365.336681 
L 852.407407 365.244399 
L 856.83662 365.368298 
L 862.742238 365.810106 
L 877.506282 367.047466 
L 883.411899 367.297183 
L 889.317517 367.316018 
L 895.223135 367.071757 
L 901.128752 366.54335 
L 905.557965 365.95247 
L 909.987179 365.191207 
L 914.416392 364.258359 
L 920.32201 362.748934 
L 926.227627 360.941996 
L 932.133245 358.84926 
L 938.038862 356.487742 
L 943.94448 353.879531 
L 949.850098 351.051464 
L 957.23212 347.255035 
L 966.090546 342.408182 
L 979.378186 334.822829 
L 992.665826 327.291156 
L 1001.524252 322.540847 
L 1008.906274 318.863482 
L 1014.811892 316.156854 
L 1020.717509 313.69404 
L 1026.623127 311.502373 
L 1032.528745 309.604231 
L 1036.957958 308.383697 
L 1041.387171 307.34307 
L 1045.816384 306.485636 
L 1050.245598 305.812851 
L 1054.674811 305.324351 
L 1059.104024 305.017996 
L 1063.533237 304.889927 
L 1067.96245 304.934662 
L 1073.868068 305.250814 
L 1079.773686 305.841209 
L 1085.679303 306.681741 
L 1091.584921 307.745266 
L 1098.966943 309.343271 
L 1106.348965 311.183069 
L 1115.207392 313.623002 
L 1128.495031 317.54206 
L 1147.688289 323.187353 
L 1158.023119 325.99332 
L 1166.881546 328.190437 
L 1175.739972 330.165175 
L 1184.598399 331.90361 
L 1193.456825 333.404057 
L 1199.362443 334.275855 
L 1199.362443 334.275855 
" clip-path="url(#p9bbef47319)" style="fill: none; stroke: #d62728; stroke-width: 1.5; stroke-linecap: square"/>
   </g>
   <g id="patch_14">
    <path d="M 656.783822 740.521395 
L 656.783822 22.318125 
" style="fill: none; stroke: #000000; stroke-width: 0.8; stroke-linejoin: miter; stroke-linecap: square"/>
   </g>
   <g id="patch_15">
    <path d="M 1225.19952 740.521395 
L 1225.19952 22.318125 
" style="fill: none; stroke: #000000; stroke-width: 0.8; stroke-linejoin: miter; stroke-linecap: square"/>
   </g>
   <g id="patch_16">
    <path d="M 656.783822 740.521395 
L 1225.19952 740.521395 
" style="fill: none; stroke: #000000; stroke-width: 0.8; stroke-linejoin: miter; stroke-linecap: square"/>
   </g>
   <g id="patch_17">
    <path d="M 656.783822 22.318125 
L 1225.19952 22.318125 
" style="fill: none; stroke: #000000; stroke-width: 0.8; stroke-linejoin: miter; stroke-linecap: square"/>
   </g>
   <g id="text_50">
    <!-- Emission -->
    <g transform="translate(914.297296 16.318125) scale(0.12 -0.12)">
     <defs>
      <path id="DejaVuSans-6d" d="M 3328 2828 
Q 3544 3216 3844 3400 
Q 4144 3584 4550 3584 
Q 5097 3584 5394 3201 
Q 5691 2819 5691 2113 
L 5691 0 
L 5113 0 
L 5113 2094 
Q 5113 2597 4934 2840 
Q 4756 3084 4391 3084 
Q 3944 3084 3684 2787 
Q 3425 2491 3425 1978 
L 3425 0 
L 2847 0 
L 2847 2094 
Q 2847 2600 2669 2842 
Q 2491 3084 2119 3084 
Q 1678 3084 1418 2786 
Q 1159 2488 1159 1978 
L 1159 0 
L 581 0 
L 581 3500 
L 1159 3500 
L 1159 2956 
Q 1356 3278 1631 3431 
Q 1906 3584 2284 3584 
Q 2666 3584 2933 3390 
Q 3200 3197 3328 2828 
z
" transform="scale(0.015625)"/>
     </defs>
     <use xlink:href="#DejaVuSans-45"/>
     <use xlink:href="#DejaVuSans-6d" x="63.183594"/>
     <use xlink:href="#DejaVuSans-69" x="160.595703"/>
     <use xlink:href="#DejaVuSans-73" x="188.378906"/>
     <use xlink:href="#DejaVuSans-73" x="240.478516"/>
     <use xlink:href="#DejaVuSans-69" x="292.578125"/>
     <use xlink:href="#DejaVuSans-6f" x="320.361328"/>
     <use xlink:href="#DejaVuSans-6e" x="381.542969"/>
    </g>
   </g>
   <g id="legend_2">
    <g id="patch_18">
     <path d="M 1179.83702 89.030625 
L 1218.19952 89.030625 
Q 1220.19952 89.030625 1220.19952 87.030625 
L 1220.19952 29.318125 
Q 1220.19952 27.318125 1218.19952 27.318125 
L 1179.83702 27.318125 
Q 1177.83702 27.318125 1177.83702 29.318125 
L 1177.83702 87.030625 
Q 1177.83702 89.030625 1179.83702 89.030625 
z
" style="fill: #ffffff; opacity: 0.8; stroke: #cccccc; stroke-linejoin: miter"/>
    </g>
    <g id="line2d_56">
     <path d="M 1181.83702 35.416562 
L 1191.83702 35.416562 
L 1201.83702 35.416562 
" style="fill: none; stroke: #1f77b4; stroke-width: 1.5; stroke-linecap: square"/>
    </g>
    <g id="text_51">
     <!-- 0 -->
     <g transform="translate(1209.83702 38.916562) scale(0.1 -0.1)">
      <use xlink:href="#DejaVuSans-30"/>
     </g>
    </g>
    <g id="line2d_57">
     <path d="M 1181.83702 50.094687 
L 1191.83702 50.094687 
L 1201.83702 50.094687 
" style="fill: none; stroke: #ff7f0e; stroke-width: 1.5; stroke-linecap: square"/>
    </g>
    <g id="text_52">
     <!-- 1 -->
     <g transform="translate(1209.83702 53.594687) scale(0.1 -0.1)">
      <use xlink:href="#DejaVuSans-31"/>
     </g>
    </g>
    <g id="line2d_58">
     <path d="M 1181.83702 64.772812 
L 1191.83702 64.772812 
L 1201.83702 64.772812 
" style="fill: none; stroke: #2ca02c; stroke-width: 1.5; stroke-linecap: square"/>
    </g>
    <g id="text_53">
     <!-- 2 -->
     <g transform="translate(1209.83702 68.272812) scale(0.1 -0.1)">
      <use xlink:href="#DejaVuSans-32"/>
     </g>
    </g>
    <g id="line2d_59">
     <path d="M 1181.83702 79.450937 
L 1191.83702 79.450937 
L 1201.83702 79.450937 
" style="fill: none; stroke: #d62728; stroke-width: 1.5; stroke-linecap: square"/>
    </g>
    <g id="text_54">
     <!-- 3 -->
     <g transform="translate(1209.83702 82.950937) scale(0.1 -0.1)">
      <use xlink:href="#DejaVuSans-33"/>
     </g>
    </g>
   </g>
  </g>
 </g>
 <defs>
  <clipPath id="p82f6f3be74">
   <rect x="38.482813" y="22.318125" width="568.415697" height="718.20327"/>
  </clipPath>
  <clipPath id="p9bbef47319">
   <rect x="656.783822" y="22.318125" width="568.415697" height="718.20327"/>
  </clipPath>
 </defs>
</svg>
