<?xml version="1.0" encoding="utf-8" standalone="no"?>
<!DOCTYPE svg PUBLIC "-//W3C//DTD SVG 1.1//EN"
  "http://www.w3.org/Graphics/SVG/1.1/DTD/svg11.dtd">
<svg xmlns:xlink="http://www.w3.org/1999/xlink" width="1232.39952pt" height="764.39952pt" viewBox="0 0 1232.39952 764.39952" xmlns="http://www.w3.org/2000/svg" version="1.1">
 <metadata>
  <rdf:RDF xmlns:dc="http://purl.org/dc/elements/1.1/" xmlns:cc="http://creativecommons.org/ns#" xmlns:rdf="http://www.w3.org/1999/02/22-rdf-syntax-ns#">
   <cc:Work>
    <dc:type rdf:resource="http://purl.org/dc/dcmitype/StillImage"/>
    <dc:date>2023-10-12T12:16:15.843967</dc:date>
    <dc:format>image/svg+xml</dc:format>
    <dc:creator>
     <cc:Agent>
      <dc:title>Matplotlib v3.8.0, https://matplotlib.org/</dc:title>
     </cc:Agent>
    </dc:creator>
   </cc:Work>
  </rdf:RDF>
 </metadata>
 <defs>
  <style type="text/css">*{stroke-linejoin: round; stroke-linecap: butt}</style>
 </defs>
 <g id="figure_1">
  <g id="patch_1">
   <path d="M 0 764.39952 
L 1232.39952 764.39952 
L 1232.39952 0 
L 0 0 
z
" style="fill: #ffffff"/>
  </g>
  <g id="axes_1">
   <g id="patch_2">
    <path d="M 30.103125 740.521395 
L 1217.247957 740.521395 
L 1217.247957 22.318125 
L 30.103125 22.318125 
z
" style="fill: #ffffff"/>
   </g>
   <g id="matplotlib.axis_1">
    <g id="xtick_1">
     <g id="line2d_1">
      <defs>
       <path id="m66fa4b18f1" d="M 0 0 
L 0 3.5 
" style="stroke: #000000; stroke-width: 0.8"/>
      </defs>
      <g>
       <use xlink:href="#m66fa4b18f1" x="30.103125" y="740.521395" style="stroke: #000000; stroke-width: 0.8"/>
      </g>
     </g>
     <g id="text_1">
      <!-- 0.0 -->
      <g transform="translate(22.151563 755.119832) scale(0.1 -0.1)">
       <defs>
        <path id="DejaVuSans-30" d="M 2034 4250 
Q 1547 4250 1301 3770 
Q 1056 3291 1056 2328 
Q 1056 1369 1301 889 
Q 1547 409 2034 409 
Q 2525 409 2770 889 
Q 3016 1369 3016 2328 
Q 3016 3291 2770 3770 
Q 2525 4250 2034 4250 
z
M 2034 4750 
Q 2819 4750 3233 4129 
Q 3647 3509 3647 2328 
Q 3647 1150 3233 529 
Q 2819 -91 2034 -91 
Q 1250 -91 836 529 
Q 422 1150 422 2328 
Q 422 3509 836 4129 
Q 1250 4750 2034 4750 
z
" transform="scale(0.015625)"/>
        <path id="DejaVuSans-2e" d="M 684 794 
L 1344 794 
L 1344 0 
L 684 0 
L 684 794 
z
" transform="scale(0.015625)"/>
       </defs>
       <use xlink:href="#DejaVuSans-30"/>
       <use xlink:href="#DejaVuSans-2e" x="63.623047"/>
       <use xlink:href="#DejaVuSans-30" x="95.410156"/>
      </g>
     </g>
    </g>
    <g id="xtick_2">
     <g id="line2d_2">
      <g>
       <use xlink:href="#m66fa4b18f1" x="267.532091" y="740.521395" style="stroke: #000000; stroke-width: 0.8"/>
      </g>
     </g>
     <g id="text_2">
      <!-- 0.2 -->
      <g transform="translate(259.580529 755.119832) scale(0.1 -0.1)">
       <defs>
        <path id="DejaVuSans-32" d="M 1228 531 
L 3431 531 
L 3431 0 
L 469 0 
L 469 531 
Q 828 903 1448 1529 
Q 2069 2156 2228 2338 
Q 2531 2678 2651 2914 
Q 2772 3150 2772 3378 
Q 2772 3750 2511 3984 
Q 2250 4219 1831 4219 
Q 1534 4219 1204 4116 
Q 875 4013 500 3803 
L 500 4441 
Q 881 4594 1212 4672 
Q 1544 4750 1819 4750 
Q 2544 4750 2975 4387 
Q 3406 4025 3406 3419 
Q 3406 3131 3298 2873 
Q 3191 2616 2906 2266 
Q 2828 2175 2409 1742 
Q 1991 1309 1228 531 
z
" transform="scale(0.015625)"/>
       </defs>
       <use xlink:href="#DejaVuSans-30"/>
       <use xlink:href="#DejaVuSans-2e" x="63.623047"/>
       <use xlink:href="#DejaVuSans-32" x="95.410156"/>
      </g>
     </g>
    </g>
    <g id="xtick_3">
     <g id="line2d_3">
      <g>
       <use xlink:href="#m66fa4b18f1" x="504.961058" y="740.521395" style="stroke: #000000; stroke-width: 0.8"/>
      </g>
     </g>
     <g id="text_3">
      <!-- 0.4 -->
      <g transform="translate(497.009495 755.119832) scale(0.1 -0.1)">
       <defs>
        <path id="DejaVuSans-34" d="M 2419 4116 
L 825 1625 
L 2419 1625 
L 2419 4116 
z
M 2253 4666 
L 3047 4666 
L 3047 1625 
L 3713 1625 
L 3713 1100 
L 3047 1100 
L 3047 0 
L 2419 0 
L 2419 1100 
L 313 1100 
L 313 1709 
L 2253 4666 
z
" transform="scale(0.015625)"/>
       </defs>
       <use xlink:href="#DejaVuSans-30"/>
       <use xlink:href="#DejaVuSans-2e" x="63.623047"/>
       <use xlink:href="#DejaVuSans-34" x="95.410156"/>
      </g>
     </g>
    </g>
    <g id="xtick_4">
     <g id="line2d_4">
      <g>
       <use xlink:href="#m66fa4b18f1" x="742.390024" y="740.521395" style="stroke: #000000; stroke-width: 0.8"/>
      </g>
     </g>
     <g id="text_4">
      <!-- 0.6 -->
      <g transform="translate(734.438462 755.119832) scale(0.1 -0.1)">
       <defs>
        <path id="DejaVuSans-36" d="M 2113 2584 
Q 1688 2584 1439 2293 
Q 1191 2003 1191 1497 
Q 1191 994 1439 701 
Q 1688 409 2113 409 
Q 2538 409 2786 701 
Q 3034 994 3034 1497 
Q 3034 2003 2786 2293 
Q 2538 2584 2113 2584 
z
M 3366 4563 
L 3366 3988 
Q 3128 4100 2886 4159 
Q 2644 4219 2406 4219 
Q 1781 4219 1451 3797 
Q 1122 3375 1075 2522 
Q 1259 2794 1537 2939 
Q 1816 3084 2150 3084 
Q 2853 3084 3261 2657 
Q 3669 2231 3669 1497 
Q 3669 778 3244 343 
Q 2819 -91 2113 -91 
Q 1303 -91 875 529 
Q 447 1150 447 2328 
Q 447 3434 972 4092 
Q 1497 4750 2381 4750 
Q 2619 4750 2861 4703 
Q 3103 4656 3366 4563 
z
" transform="scale(0.015625)"/>
       </defs>
       <use xlink:href="#DejaVuSans-30"/>
       <use xlink:href="#DejaVuSans-2e" x="63.623047"/>
       <use xlink:href="#DejaVuSans-36" x="95.410156"/>
      </g>
     </g>
    </g>
    <g id="xtick_5">
     <g id="line2d_5">
      <g>
       <use xlink:href="#m66fa4b18f1" x="979.818991" y="740.521395" style="stroke: #000000; stroke-width: 0.8"/>
      </g>
     </g>
     <g id="text_5">
      <!-- 0.8 -->
      <g transform="translate(971.867428 755.119832) scale(0.1 -0.1)">
       <defs>
        <path id="DejaVuSans-38" d="M 2034 2216 
Q 1584 2216 1326 1975 
Q 1069 1734 1069 1313 
Q 1069 891 1326 650 
Q 1584 409 2034 409 
Q 2484 409 2743 651 
Q 3003 894 3003 1313 
Q 3003 1734 2745 1975 
Q 2488 2216 2034 2216 
z
M 1403 2484 
Q 997 2584 770 2862 
Q 544 3141 544 3541 
Q 544 4100 942 4425 
Q 1341 4750 2034 4750 
Q 2731 4750 3128 4425 
Q 3525 4100 3525 3541 
Q 3525 3141 3298 2862 
Q 3072 2584 2669 2484 
Q 3125 2378 3379 2068 
Q 3634 1759 3634 1313 
Q 3634 634 3220 271 
Q 2806 -91 2034 -91 
Q 1263 -91 848 271 
Q 434 634 434 1313 
Q 434 1759 690 2068 
Q 947 2378 1403 2484 
z
M 1172 3481 
Q 1172 3119 1398 2916 
Q 1625 2713 2034 2713 
Q 2441 2713 2670 2916 
Q 2900 3119 2900 3481 
Q 2900 3844 2670 4047 
Q 2441 4250 2034 4250 
Q 1625 4250 1398 4047 
Q 1172 3844 1172 3481 
z
" transform="scale(0.015625)"/>
       </defs>
       <use xlink:href="#DejaVuSans-30"/>
       <use xlink:href="#DejaVuSans-2e" x="63.623047"/>
       <use xlink:href="#DejaVuSans-38" x="95.410156"/>
      </g>
     </g>
    </g>
    <g id="xtick_6">
     <g id="line2d_6">
      <g>
       <use xlink:href="#m66fa4b18f1" x="1217.247957" y="740.521395" style="stroke: #000000; stroke-width: 0.8"/>
      </g>
     </g>
     <g id="text_6">
      <!-- 1.0 -->
      <g transform="translate(1209.296395 755.119832) scale(0.1 -0.1)">
       <defs>
        <path id="DejaVuSans-31" d="M 794 531 
L 1825 531 
L 1825 4091 
L 703 3866 
L 703 4441 
L 1819 4666 
L 2450 4666 
L 2450 531 
L 3481 531 
L 3481 0 
L 794 0 
L 794 531 
z
" transform="scale(0.015625)"/>
       </defs>
       <use xlink:href="#DejaVuSans-31"/>
       <use xlink:href="#DejaVuSans-2e" x="63.623047"/>
       <use xlink:href="#DejaVuSans-30" x="95.410156"/>
      </g>
     </g>
    </g>
   </g>
   <g id="matplotlib.axis_2">
    <g id="ytick_1">
     <g id="line2d_7">
      <defs>
       <path id="mdd6ffa77b9" d="M 0 0 
L -3.5 0 
" style="stroke: #000000; stroke-width: 0.8"/>
      </defs>
      <g>
       <use xlink:href="#mdd6ffa77b9" x="30.103125" y="740.521395" style="stroke: #000000; stroke-width: 0.8"/>
      </g>
     </g>
     <g id="text_7">
      <!-- 0.0 -->
      <g transform="translate(7.2 744.320614) scale(0.1 -0.1)">
       <use xlink:href="#DejaVuSans-30"/>
       <use xlink:href="#DejaVuSans-2e" x="63.623047"/>
       <use xlink:href="#DejaVuSans-30" x="95.410156"/>
      </g>
     </g>
    </g>
    <g id="ytick_2">
     <g id="line2d_8">
      <g>
       <use xlink:href="#mdd6ffa77b9" x="30.103125" y="596.880741" style="stroke: #000000; stroke-width: 0.8"/>
      </g>
     </g>
     <g id="text_8">
      <!-- 0.2 -->
      <g transform="translate(7.2 600.67996) scale(0.1 -0.1)">
       <use xlink:href="#DejaVuSans-30"/>
       <use xlink:href="#DejaVuSans-2e" x="63.623047"/>
       <use xlink:href="#DejaVuSans-32" x="95.410156"/>
      </g>
     </g>
    </g>
    <g id="ytick_3">
     <g id="line2d_9">
      <g>
       <use xlink:href="#mdd6ffa77b9" x="30.103125" y="453.240087" style="stroke: #000000; stroke-width: 0.8"/>
      </g>
     </g>
     <g id="text_9">
      <!-- 0.4 -->
      <g transform="translate(7.2 457.039306) scale(0.1 -0.1)">
       <use xlink:href="#DejaVuSans-30"/>
       <use xlink:href="#DejaVuSans-2e" x="63.623047"/>
       <use xlink:href="#DejaVuSans-34" x="95.410156"/>
      </g>
     </g>
    </g>
    <g id="ytick_4">
     <g id="line2d_10">
      <g>
       <use xlink:href="#mdd6ffa77b9" x="30.103125" y="309.599433" style="stroke: #000000; stroke-width: 0.8"/>
      </g>
     </g>
     <g id="text_10">
      <!-- 0.6 -->
      <g transform="translate(7.2 313.398652) scale(0.1 -0.1)">
       <use xlink:href="#DejaVuSans-30"/>
       <use xlink:href="#DejaVuSans-2e" x="63.623047"/>
       <use xlink:href="#DejaVuSans-36" x="95.410156"/>
      </g>
     </g>
    </g>
    <g id="ytick_5">
     <g id="line2d_11">
      <g>
       <use xlink:href="#mdd6ffa77b9" x="30.103125" y="165.958779" style="stroke: #000000; stroke-width: 0.8"/>
      </g>
     </g>
     <g id="text_11">
      <!-- 0.8 -->
      <g transform="translate(7.2 169.757998) scale(0.1 -0.1)">
       <use xlink:href="#DejaVuSans-30"/>
       <use xlink:href="#DejaVuSans-2e" x="63.623047"/>
       <use xlink:href="#DejaVuSans-38" x="95.410156"/>
      </g>
     </g>
    </g>
    <g id="ytick_6">
     <g id="line2d_12">
      <g>
       <use xlink:href="#mdd6ffa77b9" x="30.103125" y="22.318125" style="stroke: #000000; stroke-width: 0.8"/>
      </g>
     </g>
     <g id="text_12">
      <!-- 1.0 -->
      <g transform="translate(7.2 26.117344) scale(0.1 -0.1)">
       <use xlink:href="#DejaVuSans-31"/>
       <use xlink:href="#DejaVuSans-2e" x="63.623047"/>
       <use xlink:href="#DejaVuSans-30" x="95.410156"/>
      </g>
     </g>
    </g>
   </g>
   <g id="patch_3">
    <path d="M 30.103125 740.521395 
L 30.103125 22.318125 
" style="fill: none; stroke: #000000; stroke-width: 0.8; stroke-linejoin: miter; stroke-linecap: square"/>
   </g>
   <g id="patch_4">
    <path d="M 1217.247957 740.521395 
L 1217.247957 22.318125 
" style="fill: none; stroke: #000000; stroke-width: 0.8; stroke-linejoin: miter; stroke-linecap: square"/>
   </g>
   <g id="patch_5">
    <path d="M 30.103125 740.521395 
L 1217.247957 740.521395 
" style="fill: none; stroke: #000000; stroke-width: 0.8; stroke-linejoin: miter; stroke-linecap: square"/>
   </g>
   <g id="patch_6">
    <path d="M 30.103125 22.318125 
L 1217.247957 22.318125 
" style="fill: none; stroke: #000000; stroke-width: 0.8; stroke-linejoin: miter; stroke-linecap: square"/>
   </g>
   <g id="text_13">
    <!-- dorrit DOPA -->
    <g transform="translate(588.758354 16.318125) scale(0.12 -0.12)">
     <defs>
      <path id="DejaVuSans-64" d="M 2906 2969 
L 2906 4863 
L 3481 4863 
L 3481 0 
L 2906 0 
L 2906 525 
Q 2725 213 2448 61 
Q 2172 -91 1784 -91 
Q 1150 -91 751 415 
Q 353 922 353 1747 
Q 353 2572 751 3078 
Q 1150 3584 1784 3584 
Q 2172 3584 2448 3432 
Q 2725 3281 2906 2969 
z
M 947 1747 
Q 947 1113 1208 752 
Q 1469 391 1925 391 
Q 2381 391 2643 752 
Q 2906 1113 2906 1747 
Q 2906 2381 2643 2742 
Q 2381 3103 1925 3103 
Q 1469 3103 1208 2742 
Q 947 2381 947 1747 
z
" transform="scale(0.015625)"/>
      <path id="DejaVuSans-6f" d="M 1959 3097 
Q 1497 3097 1228 2736 
Q 959 2375 959 1747 
Q 959 1119 1226 758 
Q 1494 397 1959 397 
Q 2419 397 2687 759 
Q 2956 1122 2956 1747 
Q 2956 2369 2687 2733 
Q 2419 3097 1959 3097 
z
M 1959 3584 
Q 2709 3584 3137 3096 
Q 3566 2609 3566 1747 
Q 3566 888 3137 398 
Q 2709 -91 1959 -91 
Q 1206 -91 779 398 
Q 353 888 353 1747 
Q 353 2609 779 3096 
Q 1206 3584 1959 3584 
z
" transform="scale(0.015625)"/>
      <path id="DejaVuSans-72" d="M 2631 2963 
Q 2534 3019 2420 3045 
Q 2306 3072 2169 3072 
Q 1681 3072 1420 2755 
Q 1159 2438 1159 1844 
L 1159 0 
L 581 0 
L 581 3500 
L 1159 3500 
L 1159 2956 
Q 1341 3275 1631 3429 
Q 1922 3584 2338 3584 
Q 2397 3584 2469 3576 
Q 2541 3569 2628 3553 
L 2631 2963 
z
" transform="scale(0.015625)"/>
      <path id="DejaVuSans-69" d="M 603 3500 
L 1178 3500 
L 1178 0 
L 603 0 
L 603 3500 
z
M 603 4863 
L 1178 4863 
L 1178 4134 
L 603 4134 
L 603 4863 
z
" transform="scale(0.015625)"/>
      <path id="DejaVuSans-74" d="M 1172 4494 
L 1172 3500 
L 2356 3500 
L 2356 3053 
L 1172 3053 
L 1172 1153 
Q 1172 725 1289 603 
Q 1406 481 1766 481 
L 2356 481 
L 2356 0 
L 1766 0 
Q 1100 0 847 248 
Q 594 497 594 1153 
L 594 3053 
L 172 3053 
L 172 3500 
L 594 3500 
L 594 4494 
L 1172 4494 
z
" transform="scale(0.015625)"/>
      <path id="DejaVuSans-20" transform="scale(0.015625)"/>
      <path id="DejaVuSans-44" d="M 1259 4147 
L 1259 519 
L 2022 519 
Q 2988 519 3436 956 
Q 3884 1394 3884 2338 
Q 3884 3275 3436 3711 
Q 2988 4147 2022 4147 
L 1259 4147 
z
M 628 4666 
L 1925 4666 
Q 3281 4666 3915 4102 
Q 4550 3538 4550 2338 
Q 4550 1131 3912 565 
Q 3275 0 1925 0 
L 628 0 
L 628 4666 
z
" transform="scale(0.015625)"/>
      <path id="DejaVuSans-4f" d="M 2522 4238 
Q 1834 4238 1429 3725 
Q 1025 3213 1025 2328 
Q 1025 1447 1429 934 
Q 1834 422 2522 422 
Q 3209 422 3611 934 
Q 4013 1447 4013 2328 
Q 4013 3213 3611 3725 
Q 3209 4238 2522 4238 
z
M 2522 4750 
Q 3503 4750 4090 4092 
Q 4678 3434 4678 2328 
Q 4678 1225 4090 567 
Q 3503 -91 2522 -91 
Q 1538 -91 948 565 
Q 359 1222 359 2328 
Q 359 3434 948 4092 
Q 1538 4750 2522 4750 
z
" transform="scale(0.015625)"/>
      <path id="DejaVuSans-50" d="M 1259 4147 
L 1259 2394 
L 2053 2394 
Q 2494 2394 2734 2622 
Q 2975 2850 2975 3272 
Q 2975 3691 2734 3919 
Q 2494 4147 2053 4147 
L 1259 4147 
z
M 628 4666 
L 2053 4666 
Q 2838 4666 3239 4311 
Q 3641 3956 3641 3272 
Q 3641 2581 3239 2228 
Q 2838 1875 2053 1875 
L 1259 1875 
L 1259 0 
L 628 0 
L 628 4666 
z
" transform="scale(0.015625)"/>
      <path id="DejaVuSans-41" d="M 2188 4044 
L 1331 1722 
L 3047 1722 
L 2188 4044 
z
M 1831 4666 
L 2547 4666 
L 4325 0 
L 3669 0 
L 3244 1197 
L 1141 1197 
L 716 0 
L 50 0 
L 1831 4666 
z
" transform="scale(0.015625)"/>
     </defs>
     <use xlink:href="#DejaVuSans-64"/>
     <use xlink:href="#DejaVuSans-6f" x="63.476562"/>
     <use xlink:href="#DejaVuSans-72" x="124.658203"/>
     <use xlink:href="#DejaVuSans-72" x="164.021484"/>
     <use xlink:href="#DejaVuSans-69" x="205.134766"/>
     <use xlink:href="#DejaVuSans-74" x="232.917969"/>
     <use xlink:href="#DejaVuSans-20" x="272.126953"/>
     <use xlink:href="#DejaVuSans-44" x="303.914062"/>
     <use xlink:href="#DejaVuSans-4f" x="380.916016"/>
     <use xlink:href="#DejaVuSans-50" x="459.626953"/>
     <use xlink:href="#DejaVuSans-41" x="513.554688"/>
    </g>
   </g>
  </g>
  <g id="axes_2">
   <g id="patch_7">
    <path d="M 38.482813 740.521395 
L 610.07976 740.521395 
L 610.07976 22.318125 
L 38.482813 22.318125 
z
" style="fill: #ffffff"/>
   </g>
   <g id="matplotlib.axis_3">
    <g id="xtick_7">
     <g id="line2d_13">
      <g>
       <use xlink:href="#m66fa4b18f1" x="64.464492" y="740.521395" style="stroke: #000000; stroke-width: 0.8"/>
      </g>
     </g>
     <g id="text_14">
      <!-- 0 -->
      <g transform="translate(61.283242 755.119832) scale(0.1 -0.1)">
       <use xlink:href="#DejaVuSans-30"/>
      </g>
     </g>
    </g>
    <g id="xtick_8">
     <g id="line2d_14">
      <g>
       <use xlink:href="#m66fa4b18f1" x="144.408121" y="740.521395" style="stroke: #000000; stroke-width: 0.8"/>
      </g>
     </g>
     <g id="text_15">
      <!-- 2 -->
      <g transform="translate(141.226871 755.119832) scale(0.1 -0.1)">
       <use xlink:href="#DejaVuSans-32"/>
      </g>
     </g>
    </g>
    <g id="xtick_9">
     <g id="line2d_15">
      <g>
       <use xlink:href="#m66fa4b18f1" x="224.35175" y="740.521395" style="stroke: #000000; stroke-width: 0.8"/>
      </g>
     </g>
     <g id="text_16">
      <!-- 4 -->
      <g transform="translate(221.1705 755.119832) scale(0.1 -0.1)">
       <use xlink:href="#DejaVuSans-34"/>
      </g>
     </g>
    </g>
    <g id="xtick_10">
     <g id="line2d_16">
      <g>
       <use xlink:href="#m66fa4b18f1" x="304.295379" y="740.521395" style="stroke: #000000; stroke-width: 0.8"/>
      </g>
     </g>
     <g id="text_17">
      <!-- 6 -->
      <g transform="translate(301.114129 755.119832) scale(0.1 -0.1)">
       <use xlink:href="#DejaVuSans-36"/>
      </g>
     </g>
    </g>
    <g id="xtick_11">
     <g id="line2d_17">
      <g>
       <use xlink:href="#m66fa4b18f1" x="384.239008" y="740.521395" style="stroke: #000000; stroke-width: 0.8"/>
      </g>
     </g>
     <g id="text_18">
      <!-- 8 -->
      <g transform="translate(381.057758 755.119832) scale(0.1 -0.1)">
       <use xlink:href="#DejaVuSans-38"/>
      </g>
     </g>
    </g>
    <g id="xtick_12">
     <g id="line2d_18">
      <g>
       <use xlink:href="#m66fa4b18f1" x="464.182637" y="740.521395" style="stroke: #000000; stroke-width: 0.8"/>
      </g>
     </g>
     <g id="text_19">
      <!-- 10 -->
      <g transform="translate(457.820137 755.119832) scale(0.1 -0.1)">
       <use xlink:href="#DejaVuSans-31"/>
       <use xlink:href="#DejaVuSans-30" x="63.623047"/>
      </g>
     </g>
    </g>
    <g id="xtick_13">
     <g id="line2d_19">
      <g>
       <use xlink:href="#m66fa4b18f1" x="544.126266" y="740.521395" style="stroke: #000000; stroke-width: 0.8"/>
      </g>
     </g>
     <g id="text_20">
      <!-- 12 -->
      <g transform="translate(537.763766 755.119832) scale(0.1 -0.1)">
       <use xlink:href="#DejaVuSans-31"/>
       <use xlink:href="#DejaVuSans-32" x="63.623047"/>
      </g>
     </g>
    </g>
   </g>
   <g id="matplotlib.axis_4">
    <g id="ytick_7">
     <g id="line2d_20">
      <g>
       <use xlink:href="#mdd6ffa77b9" x="38.482813" y="631.927068" style="stroke: #000000; stroke-width: 0.8"/>
      </g>
     </g>
     <g id="text_21">
      <!-- −0.4 -->
      <g transform="translate(7.2 635.726287) scale(0.1 -0.1)">
       <defs>
        <path id="DejaVuSans-2212" d="M 678 2272 
L 4684 2272 
L 4684 1741 
L 678 1741 
L 678 2272 
z
" transform="scale(0.015625)"/>
       </defs>
       <use xlink:href="#DejaVuSans-2212"/>
       <use xlink:href="#DejaVuSans-30" x="83.789062"/>
       <use xlink:href="#DejaVuSans-2e" x="147.412109"/>
       <use xlink:href="#DejaVuSans-34" x="179.199219"/>
      </g>
     </g>
    </g>
    <g id="ytick_8">
     <g id="line2d_21">
      <g>
       <use xlink:href="#mdd6ffa77b9" x="38.482813" y="500.08462" style="stroke: #000000; stroke-width: 0.8"/>
      </g>
     </g>
     <g id="text_22">
      <!-- −0.2 -->
      <g transform="translate(7.2 503.883838) scale(0.1 -0.1)">
       <use xlink:href="#DejaVuSans-2212"/>
       <use xlink:href="#DejaVuSans-30" x="83.789062"/>
       <use xlink:href="#DejaVuSans-2e" x="147.412109"/>
       <use xlink:href="#DejaVuSans-32" x="179.199219"/>
      </g>
     </g>
    </g>
    <g id="ytick_9">
     <g id="line2d_22">
      <g>
       <use xlink:href="#mdd6ffa77b9" x="38.482813" y="368.242172" style="stroke: #000000; stroke-width: 0.8"/>
      </g>
     </g>
     <g id="text_23">
      <!-- 0.0 -->
      <g transform="translate(15.579688 372.04139) scale(0.1 -0.1)">
       <use xlink:href="#DejaVuSans-30"/>
       <use xlink:href="#DejaVuSans-2e" x="63.623047"/>
       <use xlink:href="#DejaVuSans-30" x="95.410156"/>
      </g>
     </g>
    </g>
    <g id="ytick_10">
     <g id="line2d_23">
      <g>
       <use xlink:href="#mdd6ffa77b9" x="38.482813" y="236.399724" style="stroke: #000000; stroke-width: 0.8"/>
      </g>
     </g>
     <g id="text_24">
      <!-- 0.2 -->
      <g transform="translate(15.579688 240.198942) scale(0.1 -0.1)">
       <use xlink:href="#DejaVuSans-30"/>
       <use xlink:href="#DejaVuSans-2e" x="63.623047"/>
       <use xlink:href="#DejaVuSans-32" x="95.410156"/>
      </g>
     </g>
    </g>
    <g id="ytick_11">
     <g id="line2d_24">
      <g>
       <use xlink:href="#mdd6ffa77b9" x="38.482813" y="104.557276" style="stroke: #000000; stroke-width: 0.8"/>
      </g>
     </g>
     <g id="text_25">
      <!-- 0.4 -->
      <g transform="translate(15.579688 108.356494) scale(0.1 -0.1)">
       <use xlink:href="#DejaVuSans-30"/>
       <use xlink:href="#DejaVuSans-2e" x="63.623047"/>
       <use xlink:href="#DejaVuSans-34" x="95.410156"/>
      </g>
     </g>
    </g>
   </g>
   <g id="line2d_25">
    <path d="M 64.464492 324.843218 
L 104.436306 279.48241 
L 144.408121 225.917183 
L 184.379935 130.957495 
L 224.35175 72.265609 
L 264.323564 54.963728 
L 304.295379 76.53075 
L 344.267194 133.882864 
L 384.239008 227.047884 
L 424.210823 325.444068 
L 464.182637 380.42426 
L 504.154452 389.530812 
L 544.126266 378.444978 
L 584.098081 368.42754 
" clip-path="url(#p8d38c159fa)" style="fill: none; stroke: #1f77b4; stroke-width: 1.5; stroke-linecap: square"/>
   </g>
   <g id="line2d_26">
    <path d="M 64.464492 240.825021 
L 104.436306 221.081826 
L 144.408121 204.555698 
L 184.379935 185.69549 
L 224.35175 169.814053 
L 264.323564 155.762412 
L 304.295379 142.479376 
L 344.267194 128.986948 
L 384.239008 116.716305 
L 424.210823 143.855898 
L 464.182637 215.464775 
L 504.154452 290.364021 
L 544.126266 339.981172 
L 584.098081 367.484425 
" clip-path="url(#p8d38c159fa)" style="fill: none; stroke: #ff7f0e; stroke-width: 1.5; stroke-linecap: square"/>
   </g>
   <g id="line2d_27">
    <path d="M 64.464492 222.069508 
L 104.436306 189.35447 
L 144.408121 176.240128 
L 184.379935 182.244212 
L 224.35175 230.841451 
L 264.323564 292.046868 
L 304.295379 373.113865 
L 344.267194 469.328164 
L 384.239008 593.640018 
L 424.210823 684.097738 
L 464.182637 660.644059 
L 504.154452 549.353629 
L 544.126266 445.284667 
L 584.098081 369.657843 
" clip-path="url(#p8d38c159fa)" style="fill: none; stroke: #2ca02c; stroke-width: 1.5; stroke-linecap: square"/>
   </g>
   <g id="line2d_28">
    <path d="M 64.464492 705.506071 
L 104.436306 707.875792 
L 144.408121 667.361267 
L 184.379935 604.680821 
L 224.35175 549.501878 
L 264.323564 495.750688 
L 304.295379 451.927693 
L 344.267194 420.176158 
L 384.239008 399.949753 
L 424.210823 384.053002 
L 464.182637 372.416 
L 504.154452 368.336256 
L 544.126266 368.446705 
L 584.098081 369.044084 
" clip-path="url(#p8d38c159fa)" style="fill: none; stroke: #d62728; stroke-width: 1.5; stroke-linecap: square"/>
   </g>
   <g id="patch_8">
    <path d="M 38.482813 740.521395 
L 38.482813 22.318125 
" style="fill: none; stroke: #000000; stroke-width: 0.8; stroke-linejoin: miter; stroke-linecap: square"/>
   </g>
   <g id="patch_9">
    <path d="M 610.07976 740.521395 
L 610.07976 22.318125 
" style="fill: none; stroke: #000000; stroke-width: 0.8; stroke-linejoin: miter; stroke-linecap: square"/>
   </g>
   <g id="patch_10">
    <path d="M 38.482813 740.521395 
L 610.07976 740.521395 
" style="fill: none; stroke: #000000; stroke-width: 0.8; stroke-linejoin: miter; stroke-linecap: square"/>
   </g>
   <g id="patch_11">
    <path d="M 38.482813 22.318125 
L 610.07976 22.318125 
" style="fill: none; stroke: #000000; stroke-width: 0.8; stroke-linejoin: miter; stroke-linecap: square"/>
   </g>
   <g id="text_26">
    <!-- Excitation -->
    <g transform="translate(294.555974 16.318125) scale(0.12 -0.12)">
     <defs>
      <path id="DejaVuSans-45" d="M 628 4666 
L 3578 4666 
L 3578 4134 
L 1259 4134 
L 1259 2753 
L 3481 2753 
L 3481 2222 
L 1259 2222 
L 1259 531 
L 3634 531 
L 3634 0 
L 628 0 
L 628 4666 
z
" transform="scale(0.015625)"/>
      <path id="DejaVuSans-78" d="M 3513 3500 
L 2247 1797 
L 3578 0 
L 2900 0 
L 1881 1375 
L 863 0 
L 184 0 
L 1544 1831 
L 300 3500 
L 978 3500 
L 1906 2253 
L 2834 3500 
L 3513 3500 
z
" transform="scale(0.015625)"/>
      <path id="DejaVuSans-63" d="M 3122 3366 
L 3122 2828 
Q 2878 2963 2633 3030 
Q 2388 3097 2138 3097 
Q 1578 3097 1268 2742 
Q 959 2388 959 1747 
Q 959 1106 1268 751 
Q 1578 397 2138 397 
Q 2388 397 2633 464 
Q 2878 531 3122 666 
L 3122 134 
Q 2881 22 2623 -34 
Q 2366 -91 2075 -91 
Q 1284 -91 818 406 
Q 353 903 353 1747 
Q 353 2603 823 3093 
Q 1294 3584 2113 3584 
Q 2378 3584 2631 3529 
Q 2884 3475 3122 3366 
z
" transform="scale(0.015625)"/>
      <path id="DejaVuSans-61" d="M 2194 1759 
Q 1497 1759 1228 1600 
Q 959 1441 959 1056 
Q 959 750 1161 570 
Q 1363 391 1709 391 
Q 2188 391 2477 730 
Q 2766 1069 2766 1631 
L 2766 1759 
L 2194 1759 
z
M 3341 1997 
L 3341 0 
L 2766 0 
L 2766 531 
Q 2569 213 2275 61 
Q 1981 -91 1556 -91 
Q 1019 -91 701 211 
Q 384 513 384 1019 
Q 384 1609 779 1909 
Q 1175 2209 1959 2209 
L 2766 2209 
L 2766 2266 
Q 2766 2663 2505 2880 
Q 2244 3097 1772 3097 
Q 1472 3097 1187 3025 
Q 903 2953 641 2809 
L 641 3341 
Q 956 3463 1253 3523 
Q 1550 3584 1831 3584 
Q 2591 3584 2966 3190 
Q 3341 2797 3341 1997 
z
" transform="scale(0.015625)"/>
      <path id="DejaVuSans-6e" d="M 3513 2113 
L 3513 0 
L 2938 0 
L 2938 2094 
Q 2938 2591 2744 2837 
Q 2550 3084 2163 3084 
Q 1697 3084 1428 2787 
Q 1159 2491 1159 1978 
L 1159 0 
L 581 0 
L 581 3500 
L 1159 3500 
L 1159 2956 
Q 1366 3272 1645 3428 
Q 1925 3584 2291 3584 
Q 2894 3584 3203 3211 
Q 3513 2838 3513 2113 
z
" transform="scale(0.015625)"/>
     </defs>
     <use xlink:href="#DejaVuSans-45"/>
     <use xlink:href="#DejaVuSans-78" x="63.183594"/>
     <use xlink:href="#DejaVuSans-63" x="120.613281"/>
     <use xlink:href="#DejaVuSans-69" x="175.59375"/>
     <use xlink:href="#DejaVuSans-74" x="203.376953"/>
     <use xlink:href="#DejaVuSans-61" x="242.585938"/>
     <use xlink:href="#DejaVuSans-74" x="303.865234"/>
     <use xlink:href="#DejaVuSans-69" x="343.074219"/>
     <use xlink:href="#DejaVuSans-6f" x="370.857422"/>
     <use xlink:href="#DejaVuSans-6e" x="432.039062"/>
    </g>
   </g>
   <g id="legend_1">
    <g id="patch_12">
     <path d="M 564.71726 89.030625 
L 603.07976 89.030625 
Q 605.07976 89.030625 605.07976 87.030625 
L 605.07976 29.318125 
Q 605.07976 27.318125 603.07976 27.318125 
L 564.71726 27.318125 
Q 562.71726 27.318125 562.71726 29.318125 
L 562.71726 87.030625 
Q 562.71726 89.030625 564.71726 89.030625 
z
" style="fill: #ffffff; opacity: 0.8; stroke: #cccccc; stroke-linejoin: miter"/>
    </g>
    <g id="line2d_29">
     <path d="M 566.71726 35.416562 
L 576.71726 35.416562 
L 586.71726 35.416562 
" style="fill: none; stroke: #1f77b4; stroke-width: 1.5; stroke-linecap: square"/>
    </g>
    <g id="text_27">
     <!-- 0 -->
     <g transform="translate(594.71726 38.916562) scale(0.1 -0.1)">
      <use xlink:href="#DejaVuSans-30"/>
     </g>
    </g>
    <g id="line2d_30">
     <path d="M 566.71726 50.094687 
L 576.71726 50.094687 
L 586.71726 50.094687 
" style="fill: none; stroke: #ff7f0e; stroke-width: 1.5; stroke-linecap: square"/>
    </g>
    <g id="text_28">
     <!-- 1 -->
     <g transform="translate(594.71726 53.594687) scale(0.1 -0.1)">
      <use xlink:href="#DejaVuSans-31"/>
     </g>
    </g>
    <g id="line2d_31">
     <path d="M 566.71726 64.772812 
L 576.71726 64.772812 
L 586.71726 64.772812 
" style="fill: none; stroke: #2ca02c; stroke-width: 1.5; stroke-linecap: square"/>
    </g>
    <g id="text_29">
     <!-- 2 -->
     <g transform="translate(594.71726 68.272812) scale(0.1 -0.1)">
      <use xlink:href="#DejaVuSans-32"/>
     </g>
    </g>
    <g id="line2d_32">
     <path d="M 566.71726 79.450937 
L 576.71726 79.450937 
L 586.71726 79.450937 
" style="fill: none; stroke: #d62728; stroke-width: 1.5; stroke-linecap: square"/>
    </g>
    <g id="text_30">
     <!-- 3 -->
     <g transform="translate(594.71726 82.950937) scale(0.1 -0.1)">
      <defs>
       <path id="DejaVuSans-33" d="M 2597 2516 
Q 3050 2419 3304 2112 
Q 3559 1806 3559 1356 
Q 3559 666 3084 287 
Q 2609 -91 1734 -91 
Q 1441 -91 1130 -33 
Q 819 25 488 141 
L 488 750 
Q 750 597 1062 519 
Q 1375 441 1716 441 
Q 2309 441 2620 675 
Q 2931 909 2931 1356 
Q 2931 1769 2642 2001 
Q 2353 2234 1838 2234 
L 1294 2234 
L 1294 2753 
L 1863 2753 
Q 2328 2753 2575 2939 
Q 2822 3125 2822 3475 
Q 2822 3834 2567 4026 
Q 2313 4219 1838 4219 
Q 1578 4219 1281 4162 
Q 984 4106 628 3988 
L 628 4550 
Q 988 4650 1302 4700 
Q 1616 4750 1894 4750 
Q 2613 4750 3031 4423 
Q 3450 4097 3450 3541 
Q 3450 3153 3228 2886 
Q 3006 2619 2597 2516 
z
" transform="scale(0.015625)"/>
      </defs>
      <use xlink:href="#DejaVuSans-33"/>
     </g>
    </g>
   </g>
  </g>
  <g id="axes_3">
   <g id="patch_13">
    <path d="M 653.602572 740.521395 
L 1225.19952 740.521395 
L 1225.19952 22.318125 
L 653.602572 22.318125 
z
" style="fill: #ffffff"/>
   </g>
   <g id="matplotlib.axis_5">
    <g id="xtick_14">
     <g id="line2d_33">
      <g>
       <use xlink:href="#m66fa4b18f1" x="679.584252" y="740.521395" style="stroke: #000000; stroke-width: 0.8"/>
      </g>
     </g>
     <g id="text_31">
      <!-- 0 -->
      <g transform="translate(676.403002 755.119832) scale(0.1 -0.1)">
       <use xlink:href="#DejaVuSans-30"/>
      </g>
     </g>
    </g>
    <g id="xtick_15">
     <g id="line2d_34">
      <g>
       <use xlink:href="#m66fa4b18f1" x="766.18985" y="740.521395" style="stroke: #000000; stroke-width: 0.8"/>
      </g>
     </g>
     <g id="text_32">
      <!-- 20 -->
      <g transform="translate(759.82735 755.119832) scale(0.1 -0.1)">
       <use xlink:href="#DejaVuSans-32"/>
       <use xlink:href="#DejaVuSans-30" x="63.623047"/>
      </g>
     </g>
    </g>
    <g id="xtick_16">
     <g id="line2d_35">
      <g>
       <use xlink:href="#m66fa4b18f1" x="852.795448" y="740.521395" style="stroke: #000000; stroke-width: 0.8"/>
      </g>
     </g>
     <g id="text_33">
      <!-- 40 -->
      <g transform="translate(846.432948 755.119832) scale(0.1 -0.1)">
       <use xlink:href="#DejaVuSans-34"/>
       <use xlink:href="#DejaVuSans-30" x="63.623047"/>
      </g>
     </g>
    </g>
    <g id="xtick_17">
     <g id="line2d_36">
      <g>
       <use xlink:href="#m66fa4b18f1" x="939.401046" y="740.521395" style="stroke: #000000; stroke-width: 0.8"/>
      </g>
     </g>
     <g id="text_34">
      <!-- 60 -->
      <g transform="translate(933.038546 755.119832) scale(0.1 -0.1)">
       <use xlink:href="#DejaVuSans-36"/>
       <use xlink:href="#DejaVuSans-30" x="63.623047"/>
      </g>
     </g>
    </g>
    <g id="xtick_18">
     <g id="line2d_37">
      <g>
       <use xlink:href="#m66fa4b18f1" x="1026.006644" y="740.521395" style="stroke: #000000; stroke-width: 0.8"/>
      </g>
     </g>
     <g id="text_35">
      <!-- 80 -->
      <g transform="translate(1019.644144 755.119832) scale(0.1 -0.1)">
       <use xlink:href="#DejaVuSans-38"/>
       <use xlink:href="#DejaVuSans-30" x="63.623047"/>
      </g>
     </g>
    </g>
    <g id="xtick_19">
     <g id="line2d_38">
      <g>
       <use xlink:href="#m66fa4b18f1" x="1112.612242" y="740.521395" style="stroke: #000000; stroke-width: 0.8"/>
      </g>
     </g>
     <g id="text_36">
      <!-- 100 -->
      <g transform="translate(1103.068492 755.119832) scale(0.1 -0.1)">
       <use xlink:href="#DejaVuSans-31"/>
       <use xlink:href="#DejaVuSans-30" x="63.623047"/>
       <use xlink:href="#DejaVuSans-30" x="127.246094"/>
      </g>
     </g>
    </g>
    <g id="xtick_20">
     <g id="line2d_39">
      <g>
       <use xlink:href="#m66fa4b18f1" x="1199.217841" y="740.521395" style="stroke: #000000; stroke-width: 0.8"/>
      </g>
     </g>
     <g id="text_37">
      <!-- 120 -->
      <g transform="translate(1189.674091 755.119832) scale(0.1 -0.1)">
       <use xlink:href="#DejaVuSans-31"/>
       <use xlink:href="#DejaVuSans-32" x="63.623047"/>
       <use xlink:href="#DejaVuSans-30" x="127.246094"/>
      </g>
     </g>
    </g>
   </g>
   <g id="matplotlib.axis_6">
    <g id="ytick_12">
     <g id="line2d_40">
      <g>
       <use xlink:href="#mdd6ffa77b9" x="653.602572" y="703.65211" style="stroke: #000000; stroke-width: 0.8"/>
      </g>
     </g>
     <g id="text_38">
      <!-- −0.2 -->
      <g transform="translate(622.31976 707.451329) scale(0.1 -0.1)">
       <use xlink:href="#DejaVuSans-2212"/>
       <use xlink:href="#DejaVuSans-30" x="83.789062"/>
       <use xlink:href="#DejaVuSans-2e" x="147.412109"/>
       <use xlink:href="#DejaVuSans-32" x="179.199219"/>
      </g>
     </g>
    </g>
    <g id="ytick_13">
     <g id="line2d_41">
      <g>
       <use xlink:href="#mdd6ffa77b9" x="653.602572" y="561.788423" style="stroke: #000000; stroke-width: 0.8"/>
      </g>
     </g>
     <g id="text_39">
      <!-- −0.1 -->
      <g transform="translate(622.31976 565.587642) scale(0.1 -0.1)">
       <use xlink:href="#DejaVuSans-2212"/>
       <use xlink:href="#DejaVuSans-30" x="83.789062"/>
       <use xlink:href="#DejaVuSans-2e" x="147.412109"/>
       <use xlink:href="#DejaVuSans-31" x="179.199219"/>
      </g>
     </g>
    </g>
    <g id="ytick_14">
     <g id="line2d_42">
      <g>
       <use xlink:href="#mdd6ffa77b9" x="653.602572" y="419.924736" style="stroke: #000000; stroke-width: 0.8"/>
      </g>
     </g>
     <g id="text_40">
      <!-- 0.0 -->
      <g transform="translate(630.699447 423.723955) scale(0.1 -0.1)">
       <use xlink:href="#DejaVuSans-30"/>
       <use xlink:href="#DejaVuSans-2e" x="63.623047"/>
       <use xlink:href="#DejaVuSans-30" x="95.410156"/>
      </g>
     </g>
    </g>
    <g id="ytick_15">
     <g id="line2d_43">
      <g>
       <use xlink:href="#mdd6ffa77b9" x="653.602572" y="278.061049" style="stroke: #000000; stroke-width: 0.8"/>
      </g>
     </g>
     <g id="text_41">
      <!-- 0.1 -->
      <g transform="translate(630.699447 281.860268) scale(0.1 -0.1)">
       <use xlink:href="#DejaVuSans-30"/>
       <use xlink:href="#DejaVuSans-2e" x="63.623047"/>
       <use xlink:href="#DejaVuSans-31" x="95.410156"/>
      </g>
     </g>
    </g>
    <g id="ytick_16">
     <g id="line2d_44">
      <g>
       <use xlink:href="#mdd6ffa77b9" x="653.602572" y="136.197363" style="stroke: #000000; stroke-width: 0.8"/>
      </g>
     </g>
     <g id="text_42">
      <!-- 0.2 -->
      <g transform="translate(630.699447 139.996581) scale(0.1 -0.1)">
       <use xlink:href="#DejaVuSans-30"/>
       <use xlink:href="#DejaVuSans-2e" x="63.623047"/>
       <use xlink:href="#DejaVuSans-32" x="95.410156"/>
      </g>
     </g>
    </g>
   </g>
   <g id="line2d_45">
    <path d="M 679.584252 419.485737 
L 683.914532 419.52263 
L 688.244812 419.282655 
L 692.575092 419.354562 
L 696.905372 419.456387 
L 701.235651 419.407263 
L 705.565931 419.881893 
L 709.896211 420.120624 
L 714.226491 420.421932 
L 718.556771 420.784232 
L 722.887051 421.384016 
L 727.217331 421.815351 
L 731.547611 422.052619 
L 735.877891 421.981201 
L 740.208171 421.196915 
L 744.538451 419.522544 
L 748.86873 416.637843 
L 753.19901 412.284886 
L 757.52929 405.728936 
L 761.85957 397.168156 
L 766.18985 386.14146 
L 770.52013 372.697134 
L 774.85041 356.711848 
L 779.18069 338.258561 
L 783.51097 317.379987 
L 787.84125 294.365824 
L 792.171529 269.486086 
L 796.501809 243.504914 
L 800.832089 216.261181 
L 805.162369 189.142958 
L 809.492649 162.966508 
L 813.822929 138.646935 
L 818.153209 115.520311 
L 822.483489 98.925343 
L 826.813769 88.012316 
L 831.144049 82.116743 
L 835.474329 79.245244 
L 839.804608 78.434952 
L 844.134888 83.320904 
L 848.465168 88.998114 
L 852.795448 95.630976 
L 857.125728 104.763722 
L 861.456008 117.01245 
L 865.786288 129.196238 
L 870.116568 141.979727 
L 874.446848 160.595675 
L 878.777128 182.355915 
L 883.107407 209.772033 
L 887.437687 233.973591 
L 891.767967 254.01659 
L 896.098247 282.785375 
L 900.428527 303.973349 
L 904.758807 322.758316 
L 909.089087 344.502079 
L 913.419367 365.974485 
L 917.749647 384.350104 
L 922.079927 397.810288 
L 926.410207 413.371267 
L 930.740486 424.143455 
L 935.070766 436.288561 
L 939.401046 445.736544 
L 943.731326 453.047609 
L 948.061606 458.716301 
L 952.391886 466.209765 
L 956.722166 469.691704 
L 961.052446 472.34373 
L 965.382726 476.766091 
L 969.713006 477.710454 
L 974.043285 478.968471 
L 978.373565 477.377304 
L 982.703845 477.059604 
L 987.034125 476.408449 
L 991.364405 474.633702 
L 995.694685 473.40956 
L 1000.024965 471.124605 
L 1004.355245 470.344828 
L 1008.685525 467.550812 
L 1013.015805 465.626675 
L 1017.346085 463.732495 
L 1021.676364 462.088334 
L 1026.006644 459.917978 
L 1030.336924 457.547932 
L 1034.667204 455.27206 
L 1038.997484 453.779935 
L 1043.327764 451.295952 
L 1047.658044 449.582945 
L 1051.988324 447.23706 
L 1056.318604 445.57241 
L 1060.648884 444.040644 
L 1064.979164 442.257377 
L 1069.309443 440.735699 
L 1073.639723 438.954849 
L 1077.970003 437.099062 
L 1082.300283 436.107434 
L 1086.630563 434.913333 
L 1090.960843 433.152734 
L 1095.291123 432.349529 
L 1099.621403 430.971172 
L 1103.951683 430.333251 
L 1108.281963 429.445646 
L 1112.612242 428.552622 
L 1116.942522 427.784976 
L 1121.272802 427.51142 
L 1125.603082 426.677072 
L 1129.933362 425.98567 
L 1134.263642 425.049706 
L 1138.593922 424.797416 
L 1142.924202 424.433453 
L 1147.254482 423.96509 
L 1151.584762 423.72566 
L 1155.915042 423.202437 
L 1160.245321 422.800125 
L 1164.575601 422.551602 
L 1168.905881 422.475693 
L 1173.236161 422.313759 
L 1177.566441 421.709538 
L 1181.896721 421.711998 
L 1186.227001 421.377075 
L 1190.557281 421.218864 
L 1194.887561 421.283566 
L 1199.217841 421.094682 
" clip-path="url(#p56d83793e7)" style="fill: none; stroke: #1f77b4; stroke-width: 1.5; stroke-linecap: square"/>
   </g>
   <g id="line2d_46">
    <path d="M 679.584252 420.27519 
L 683.914532 420.334409 
L 688.244812 420.189616 
L 692.575092 420.193933 
L 696.905372 420.237762 
L 701.235651 420.164709 
L 705.565931 420.2882 
L 709.896211 420.271128 
L 714.226491 420.18225 
L 718.556771 420.152778 
L 722.887051 420.039321 
L 727.217331 419.874169 
L 731.547611 419.61279 
L 735.877891 419.039052 
L 740.208171 418.183609 
L 744.538451 416.872715 
L 748.86873 415.014193 
L 753.19901 412.599219 
L 757.52929 408.824445 
L 761.85957 404.174793 
L 766.18985 397.833944 
L 770.52013 390.282627 
L 774.85041 381.41877 
L 779.18069 370.888667 
L 783.51097 359.817128 
L 787.84125 349.020311 
L 792.171529 339.159184 
L 796.501809 331.409543 
L 800.832089 326.020238 
L 805.162369 323.988402 
L 809.492649 326.112784 
L 813.822929 333.213827 
L 818.153209 343.9867 
L 822.483489 364.852569 
L 826.813769 389.338404 
L 831.144049 418.864235 
L 835.474329 446.558464 
L 839.804608 473.429931 
L 844.134888 501.239981 
L 848.465168 524.703704 
L 852.795448 539.677315 
L 857.125728 555.575057 
L 861.456008 571.908853 
L 865.786288 584.797511 
L 870.116568 597.275219 
L 874.446848 611.248961 
L 878.777128 626.398278 
L 883.107407 644.987289 
L 887.437687 660.306006 
L 891.767967 671.971108 
L 896.098247 685.921622 
L 900.428527 695.454083 
L 904.758807 700.585043 
L 909.089087 704.657141 
L 913.419367 707.875792 
L 917.749647 707.836833 
L 922.079927 704.986241 
L 926.410207 701.167266 
L 930.740486 694.633243 
L 935.070766 686.705677 
L 939.401046 677.372495 
L 943.731326 666.717688 
L 948.061606 656.617973 
L 952.391886 647.815982 
L 956.722166 639.400781 
L 961.052446 629.590701 
L 965.382726 623.769339 
L 969.713006 615.829346 
L 974.043285 610.158967 
L 978.373565 602.037376 
L 982.703845 595.555846 
L 987.034125 588.972063 
L 991.364405 582.94431 
L 995.694685 577.882032 
L 1000.024965 569.819183 
L 1004.355245 563.328544 
L 1008.685525 555.367141 
L 1013.015805 548.709162 
L 1017.346085 541.207308 
L 1021.676364 534.196793 
L 1026.006644 525.727786 
L 1030.336924 519.13462 
L 1034.667204 512.278402 
L 1038.997484 506.31367 
L 1043.327764 500.097982 
L 1047.658044 493.725398 
L 1051.988324 488.696307 
L 1056.318604 483.818902 
L 1060.648884 479.414481 
L 1064.979164 474.498303 
L 1069.309443 471.309857 
L 1073.639723 466.078022 
L 1077.970003 462.792988 
L 1082.300283 459.379837 
L 1086.630563 456.012354 
L 1090.960843 452.932216 
L 1095.291123 450.198388 
L 1099.621403 447.114895 
L 1103.951683 444.904336 
L 1108.281963 442.984488 
L 1112.612242 440.954365 
L 1116.942522 439.263216 
L 1121.272802 437.963217 
L 1125.603082 436.588234 
L 1129.933362 434.96597 
L 1134.263642 433.477429 
L 1138.593922 432.257972 
L 1142.924202 431.305334 
L 1147.254482 430.429705 
L 1151.584762 429.505627 
L 1155.915042 428.605411 
L 1160.245321 427.724668 
L 1164.575601 427.32195 
L 1168.905881 426.939832 
L 1173.236161 426.395178 
L 1177.566441 425.770561 
L 1181.896721 425.392985 
L 1186.227001 425.018686 
L 1190.557281 424.496234 
L 1194.887561 424.336179 
L 1199.217841 423.841132 
" clip-path="url(#p56d83793e7)" style="fill: none; stroke: #ff7f0e; stroke-width: 1.5; stroke-linecap: square"/>
   </g>
   <g id="line2d_47">
    <path d="M 679.584252 419.494834 
L 683.914532 419.467154 
L 688.244812 419.397876 
L 692.575092 419.570407 
L 696.905372 419.535319 
L 701.235651 419.83332 
L 705.565931 420.303865 
L 709.896211 420.808502 
L 714.226491 421.532971 
L 718.556771 422.428001 
L 722.887051 423.351056 
L 727.217331 424.382698 
L 731.547611 425.460907 
L 735.877891 426.385603 
L 740.208171 427.317561 
L 744.538451 428.055596 
L 748.86873 428.568957 
L 753.19901 428.819006 
L 757.52929 429.485789 
L 761.85957 429.991104 
L 766.18985 431.502703 
L 770.52013 432.918088 
L 774.85041 434.27708 
L 779.18069 436.704576 
L 783.51097 437.578548 
L 787.84125 436.029702 
L 792.171529 431.142804 
L 796.501809 423.129717 
L 800.832089 409.707319 
L 805.162369 392.286452 
L 809.492649 370.424914 
L 813.822929 344.433348 
L 818.153209 315.076488 
L 822.483489 276.645783 
L 826.813769 241.012273 
L 831.144049 208.76883 
L 835.474329 192.043441 
L 839.804608 177.263135 
L 844.134888 168.786023 
L 848.465168 157.894101 
L 852.795448 164.85698 
L 857.125728 168.713587 
L 861.456008 176.361968 
L 865.786288 181.788623 
L 870.116568 183.944111 
L 874.446848 183.522527 
L 878.777128 176.375483 
L 883.107407 171.124695 
L 887.437687 159.229032 
L 891.767967 154.571325 
L 896.098247 147.349709 
L 900.428527 140.25427 
L 904.758807 141.04775 
L 909.089087 138.330706 
L 913.419367 143.773151 
L 917.749647 147.819957 
L 922.079927 153.491685 
L 926.410207 166.973027 
L 930.740486 182.121635 
L 935.070766 198.109926 
L 939.401046 208.744322 
L 943.731326 226.909122 
L 948.061606 238.023756 
L 952.391886 251.630794 
L 956.722166 261.902088 
L 961.052446 271.237254 
L 965.382726 282.718197 
L 969.713006 289.437588 
L 974.043285 298.074829 
L 978.373565 306.967717 
L 982.703845 314.31101 
L 987.034125 323.639568 
L 991.364405 330.088494 
L 995.694685 335.604662 
L 1000.024965 341.184879 
L 1004.355245 347.086022 
L 1008.685525 350.566265 
L 1013.015805 354.806784 
L 1017.346085 359.95696 
L 1021.676364 363.87839 
L 1026.006644 368.023244 
L 1030.336924 371.202577 
L 1034.667204 375.721951 
L 1038.997484 378.702191 
L 1043.327764 382.033995 
L 1047.658044 384.50346 
L 1051.988324 387.75153 
L 1056.318604 390.170017 
L 1060.648884 392.642366 
L 1064.979164 394.583355 
L 1069.309443 396.456757 
L 1073.639723 398.810401 
L 1077.970003 400.197822 
L 1082.300283 401.866104 
L 1086.630563 403.695444 
L 1090.960843 404.779063 
L 1095.291123 405.759446 
L 1099.621403 407.648817 
L 1103.951683 408.517556 
L 1108.281963 409.469398 
L 1112.612242 410.37446 
L 1116.942522 410.928593 
L 1121.272802 411.618172 
L 1125.603082 412.425136 
L 1129.933362 412.982243 
L 1134.263642 413.51246 
L 1138.593922 414.051949 
L 1142.924202 414.766588 
L 1147.254482 415.116334 
L 1151.584762 415.319541 
L 1155.915042 415.990166 
L 1160.245321 416.08244 
L 1164.575601 416.560906 
L 1168.905881 416.937085 
L 1173.236161 417.05922 
L 1177.566441 417.198935 
L 1181.896721 417.035243 
L 1186.227001 417.26254 
L 1190.557281 417.520324 
L 1194.887561 417.787905 
L 1199.217841 417.971657 
" clip-path="url(#p56d83793e7)" style="fill: none; stroke: #2ca02c; stroke-width: 1.5; stroke-linecap: square"/>
   </g>
   <g id="line2d_48">
    <path d="M 679.584252 420.079335 
L 683.914532 420.312701 
L 688.244812 420.166525 
L 692.575092 419.045745 
L 696.905372 416.547716 
L 701.235651 411.650286 
L 705.565931 404.575464 
L 709.896211 395.32572 
L 714.226491 382.636698 
L 718.556771 367.319776 
L 722.887051 348.837948 
L 727.217331 327.950934 
L 731.547611 304.833359 
L 735.877891 279.409162 
L 740.208171 252.713319 
L 744.538451 225.038248 
L 748.86873 197.118526 
L 753.19901 169.654927 
L 757.52929 143.346133 
L 761.85957 119.095109 
L 766.18985 97.627507 
L 770.52013 79.888652 
L 774.85041 66.657413 
L 779.18069 58.49898 
L 783.51097 54.963728 
L 787.84125 62.223618 
L 792.171529 74.216971 
L 796.501809 94.646905 
L 800.832089 122.044886 
L 805.162369 156.987036 
L 809.492649 189.115925 
L 813.822929 222.755017 
L 818.153209 264.267978 
L 822.483489 300.383369 
L 826.813769 330.459467 
L 831.144049 356.575423 
L 835.474329 374.127096 
L 839.804608 399.893275 
L 844.134888 404.024386 
L 848.465168 413.821382 
L 852.795448 428.56863 
L 857.125728 429.807533 
L 861.456008 432.020101 
L 865.786288 434.968875 
L 870.116568 440.032797 
L 874.446848 447.05044 
L 878.777128 446.251384 
L 883.107407 448.485452 
L 887.437687 449.714433 
L 891.767967 448.065754 
L 896.098247 450.636474 
L 900.428527 450.200623 
L 904.758807 450.230447 
L 909.089087 451.39352 
L 913.419367 440.488312 
L 917.749647 442.353236 
L 922.079927 438.318624 
L 926.410207 427.571238 
L 930.740486 427.230803 
L 935.070766 413.313647 
L 939.401046 407.236605 
L 943.731326 396.458354 
L 948.061606 382.174117 
L 952.391886 371.324476 
L 956.722166 358.508781 
L 961.052446 349.258847 
L 965.382726 335.91718 
L 969.713006 325.966187 
L 974.043285 319.173404 
L 978.373565 308.367553 
L 982.703845 300.680737 
L 987.034125 290.77159 
L 991.364405 284.195501 
L 995.694685 278.666039 
L 1000.024965 281.469143 
L 1004.355245 279.422358 
L 1008.685525 280.049584 
L 1013.015805 283.325168 
L 1017.346085 285.687081 
L 1021.676364 296.749557 
L 1026.006644 301.82517 
L 1030.336924 308.545082 
L 1034.667204 315.228104 
L 1038.997484 320.23984 
L 1043.327764 329.300131 
L 1047.658044 334.612023 
L 1051.988324 338.123292 
L 1056.318604 344.97273 
L 1060.648884 348.398722 
L 1064.979164 354.488298 
L 1069.309443 357.730608 
L 1073.639723 365.129922 
L 1077.970003 366.643292 
L 1082.300283 371.320166 
L 1086.630563 374.249318 
L 1090.960843 378.166038 
L 1095.291123 381.079009 
L 1099.621403 386.297525 
L 1103.951683 389.55932 
L 1108.281963 390.393984 
L 1112.612242 392.888045 
L 1116.942522 394.430703 
L 1121.272802 396.708965 
L 1125.603082 398.514519 
L 1129.933362 401.406912 
L 1134.263642 401.51079 
L 1138.593922 403.747041 
L 1142.924202 405.341439 
L 1147.254482 405.657628 
L 1151.584762 406.725741 
L 1155.915042 407.442264 
L 1160.245321 409.547039 
L 1164.575601 409.430505 
L 1168.905881 409.940017 
L 1173.236161 410.549479 
L 1177.566441 411.583263 
L 1181.896721 412.383154 
L 1186.227001 411.773154 
L 1190.557281 412.881715 
L 1194.887561 412.987623 
L 1199.217841 413.552244 
" clip-path="url(#p56d83793e7)" style="fill: none; stroke: #d62728; stroke-width: 1.5; stroke-linecap: square"/>
   </g>
   <g id="patch_14">
    <path d="M 653.602572 740.521395 
L 653.602572 22.318125 
" style="fill: none; stroke: #000000; stroke-width: 0.8; stroke-linejoin: miter; stroke-linecap: square"/>
   </g>
   <g id="patch_15">
    <path d="M 1225.19952 740.521395 
L 1225.19952 22.318125 
" style="fill: none; stroke: #000000; stroke-width: 0.8; stroke-linejoin: miter; stroke-linecap: square"/>
   </g>
   <g id="patch_16">
    <path d="M 653.602572 740.521395 
L 1225.19952 740.521395 
" style="fill: none; stroke: #000000; stroke-width: 0.8; stroke-linejoin: miter; stroke-linecap: square"/>
   </g>
   <g id="patch_17">
    <path d="M 653.602572 22.318125 
L 1225.19952 22.318125 
" style="fill: none; stroke: #000000; stroke-width: 0.8; stroke-linejoin: miter; stroke-linecap: square"/>
   </g>
   <g id="text_43">
    <!-- Emission -->
    <g transform="translate(912.706671 16.318125) scale(0.12 -0.12)">
     <defs>
      <path id="DejaVuSans-6d" d="M 3328 2828 
Q 3544 3216 3844 3400 
Q 4144 3584 4550 3584 
Q 5097 3584 5394 3201 
Q 5691 2819 5691 2113 
L 5691 0 
L 5113 0 
L 5113 2094 
Q 5113 2597 4934 2840 
Q 4756 3084 4391 3084 
Q 3944 3084 3684 2787 
Q 3425 2491 3425 1978 
L 3425 0 
L 2847 0 
L 2847 2094 
Q 2847 2600 2669 2842 
Q 2491 3084 2119 3084 
Q 1678 3084 1418 2786 
Q 1159 2488 1159 1978 
L 1159 0 
L 581 0 
L 581 3500 
L 1159 3500 
L 1159 2956 
Q 1356 3278 1631 3431 
Q 1906 3584 2284 3584 
Q 2666 3584 2933 3390 
Q 3200 3197 3328 2828 
z
" transform="scale(0.015625)"/>
      <path id="DejaVuSans-73" d="M 2834 3397 
L 2834 2853 
Q 2591 2978 2328 3040 
Q 2066 3103 1784 3103 
Q 1356 3103 1142 2972 
Q 928 2841 928 2578 
Q 928 2378 1081 2264 
Q 1234 2150 1697 2047 
L 1894 2003 
Q 2506 1872 2764 1633 
Q 3022 1394 3022 966 
Q 3022 478 2636 193 
Q 2250 -91 1575 -91 
Q 1294 -91 989 -36 
Q 684 19 347 128 
L 347 722 
Q 666 556 975 473 
Q 1284 391 1588 391 
Q 1994 391 2212 530 
Q 2431 669 2431 922 
Q 2431 1156 2273 1281 
Q 2116 1406 1581 1522 
L 1381 1569 
Q 847 1681 609 1914 
Q 372 2147 372 2553 
Q 372 3047 722 3315 
Q 1072 3584 1716 3584 
Q 2034 3584 2315 3537 
Q 2597 3491 2834 3397 
z
" transform="scale(0.015625)"/>
     </defs>
     <use xlink:href="#DejaVuSans-45"/>
     <use xlink:href="#DejaVuSans-6d" x="63.183594"/>
     <use xlink:href="#DejaVuSans-69" x="160.595703"/>
     <use xlink:href="#DejaVuSans-73" x="188.378906"/>
     <use xlink:href="#DejaVuSans-73" x="240.478516"/>
     <use xlink:href="#DejaVuSans-69" x="292.578125"/>
     <use xlink:href="#DejaVuSans-6f" x="320.361328"/>
     <use xlink:href="#DejaVuSans-6e" x="381.542969"/>
    </g>
   </g>
   <g id="legend_2">
    <g id="patch_18">
     <path d="M 1179.83702 89.030625 
L 1218.19952 89.030625 
Q 1220.19952 89.030625 1220.19952 87.030625 
L 1220.19952 29.318125 
Q 1220.19952 27.318125 1218.19952 27.318125 
L 1179.83702 27.318125 
Q 1177.83702 27.318125 1177.83702 29.318125 
L 1177.83702 87.030625 
Q 1177.83702 89.030625 1179.83702 89.030625 
z
" style="fill: #ffffff; opacity: 0.8; stroke: #cccccc; stroke-linejoin: miter"/>
    </g>
    <g id="line2d_49">
     <path d="M 1181.83702 35.416562 
L 1191.83702 35.416562 
L 1201.83702 35.416562 
" style="fill: none; stroke: #1f77b4; stroke-width: 1.5; stroke-linecap: square"/>
    </g>
    <g id="text_44">
     <!-- 0 -->
     <g transform="translate(1209.83702 38.916562) scale(0.1 -0.1)">
      <use xlink:href="#DejaVuSans-30"/>
     </g>
    </g>
    <g id="line2d_50">
     <path d="M 1181.83702 50.094687 
L 1191.83702 50.094687 
L 1201.83702 50.094687 
" style="fill: none; stroke: #ff7f0e; stroke-width: 1.5; stroke-linecap: square"/>
    </g>
    <g id="text_45">
     <!-- 1 -->
     <g transform="translate(1209.83702 53.594687) scale(0.1 -0.1)">
      <use xlink:href="#DejaVuSans-31"/>
     </g>
    </g>
    <g id="line2d_51">
     <path d="M 1181.83702 64.772812 
L 1191.83702 64.772812 
L 1201.83702 64.772812 
" style="fill: none; stroke: #2ca02c; stroke-width: 1.5; stroke-linecap: square"/>
    </g>
    <g id="text_46">
     <!-- 2 -->
     <g transform="translate(1209.83702 68.272812) scale(0.1 -0.1)">
      <use xlink:href="#DejaVuSans-32"/>
     </g>
    </g>
    <g id="line2d_52">
     <path d="M 1181.83702 79.450937 
L 1191.83702 79.450937 
L 1201.83702 79.450937 
" style="fill: none; stroke: #d62728; stroke-width: 1.5; stroke-linecap: square"/>
    </g>
    <g id="text_47">
     <!-- 3 -->
     <g transform="translate(1209.83702 82.950937) scale(0.1 -0.1)">
      <use xlink:href="#DejaVuSans-33"/>
     </g>
    </g>
   </g>
  </g>
 </g>
 <defs>
  <clipPath id="p8d38c159fa">
   <rect x="38.482813" y="22.318125" width="571.596947" height="718.20327"/>
  </clipPath>
  <clipPath id="p56d83793e7">
   <rect x="653.602572" y="22.318125" width="571.596947" height="718.20327"/>
  </clipPath>
 </defs>
</svg>
