<?xml version="1.0" encoding="utf-8" standalone="no"?>
<!DOCTYPE svg PUBLIC "-//W3C//DTD SVG 1.1//EN"
  "http://www.w3.org/Graphics/SVG/1.1/DTD/svg11.dtd">
<svg xmlns:xlink="http://www.w3.org/1999/xlink" width="1287.879372pt" height="1359.245937pt" viewBox="0 0 1287.879372 1359.245937" xmlns="http://www.w3.org/2000/svg" version="1.1">
 <metadata>
  <rdf:RDF xmlns:dc="http://purl.org/dc/elements/1.1/" xmlns:cc="http://creativecommons.org/ns#" xmlns:rdf="http://www.w3.org/1999/02/22-rdf-syntax-ns#">
   <cc:Work>
    <dc:type rdf:resource="http://purl.org/dc/dcmitype/StillImage"/>
    <dc:date>2024-04-15T10:44:09.585804</dc:date>
    <dc:format>image/svg+xml</dc:format>
    <dc:creator>
     <cc:Agent>
      <dc:title>Matplotlib v3.8.0, https://matplotlib.org/</dc:title>
     </cc:Agent>
    </dc:creator>
   </cc:Work>
  </rdf:RDF>
 </metadata>
 <defs>
  <style type="text/css">*{stroke-linejoin: round; stroke-linecap: butt}</style>
 </defs>
 <g id="figure_1">
  <g id="patch_1">
   <path d="M 0 1359.245937 
L 1287.879372 1359.245937 
L 1287.879372 0 
L 0 0 
z
" style="fill: #ffffff"/>
  </g>
  <g id="axes_1">
   <g id="patch_2">
    <path d="M 103.847813 560.866875 
L 609.864185 560.866875 
L 609.864185 53.446875 
L 103.847813 53.446875 
z
" style="fill: #ffffff"/>
   </g>
   <g id="matplotlib.axis_1">
    <g id="xtick_1">
     <g id="line2d_1">
      <path d="M 108.105775 560.866875 
L 108.105775 53.446875 
" clip-path="url(#pd4d1657c9c)" style="fill: none; stroke: #000000; stroke-width: 0.7; stroke-linecap: square"/>
     </g>
     <g id="line2d_2">
      <defs>
       <path id="md30ee708c0" d="M 0 0 
L 0 -10 
" style="stroke: #000000; stroke-width: 2"/>
      </defs>
      <g>
       <use xlink:href="#md30ee708c0" x="108.105775" y="560.866875" style="stroke: #000000; stroke-width: 2"/>
      </g>
     </g>
     <g id="text_1">
      <!-- 20 -->
      <g transform="translate(88.105775 592.141875) scale(0.4 -0.4)">
       <defs>
        <path id="TimesNewRomanPSMT-32" d="M 2934 816 
L 2638 0 
L 138 0 
L 138 116 
Q 1241 1122 1691 1759 
Q 2141 2397 2141 2925 
Q 2141 3328 1894 3587 
Q 1647 3847 1303 3847 
Q 991 3847 742 3664 
Q 494 3481 375 3128 
L 259 3128 
Q 338 3706 661 4015 
Q 984 4325 1469 4325 
Q 1984 4325 2329 3994 
Q 2675 3663 2675 3213 
Q 2675 2891 2525 2569 
Q 2294 2063 1775 1497 
Q 997 647 803 472 
L 1909 472 
Q 2247 472 2383 497 
Q 2519 522 2628 598 
Q 2738 675 2819 816 
L 2934 816 
z
" transform="scale(0.015625)"/>
        <path id="TimesNewRomanPSMT-30" d="M 231 2094 
Q 231 2819 450 3342 
Q 669 3866 1031 4122 
Q 1313 4325 1613 4325 
Q 2100 4325 2488 3828 
Q 2972 3213 2972 2159 
Q 2972 1422 2759 906 
Q 2547 391 2217 158 
Q 1888 -75 1581 -75 
Q 975 -75 572 641 
Q 231 1244 231 2094 
z
M 844 2016 
Q 844 1141 1059 588 
Q 1238 122 1591 122 
Q 1759 122 1940 273 
Q 2122 425 2216 781 
Q 2359 1319 2359 2297 
Q 2359 3022 2209 3506 
Q 2097 3866 1919 4016 
Q 1791 4119 1609 4119 
Q 1397 4119 1231 3928 
Q 1006 3669 925 3112 
Q 844 2556 844 2016 
z
" transform="scale(0.015625)"/>
       </defs>
       <use xlink:href="#TimesNewRomanPSMT-32"/>
       <use xlink:href="#TimesNewRomanPSMT-30" x="50"/>
      </g>
     </g>
    </g>
    <g id="xtick_2">
     <g id="line2d_3">
      <path d="M 174.513866 560.866875 
L 174.513866 53.446875 
" clip-path="url(#pd4d1657c9c)" style="fill: none; stroke: #000000; stroke-width: 0.7; stroke-linecap: square"/>
     </g>
     <g id="line2d_4">
      <g>
       <use xlink:href="#md30ee708c0" x="174.513866" y="560.866875" style="stroke: #000000; stroke-width: 2"/>
      </g>
     </g>
     <g id="text_2">
      <!-- 25 -->
      <g transform="translate(154.513866 592.141875) scale(0.4 -0.4)">
       <defs>
        <path id="TimesNewRomanPSMT-35" d="M 2778 4238 
L 2534 3706 
L 1259 3706 
L 981 3138 
Q 1809 3016 2294 2522 
Q 2709 2097 2709 1522 
Q 2709 1188 2573 903 
Q 2438 619 2231 419 
Q 2025 219 1772 97 
Q 1413 -75 1034 -75 
Q 653 -75 479 54 
Q 306 184 306 341 
Q 306 428 378 495 
Q 450 563 559 563 
Q 641 563 702 538 
Q 763 513 909 409 
Q 1144 247 1384 247 
Q 1750 247 2026 523 
Q 2303 800 2303 1197 
Q 2303 1581 2056 1914 
Q 1809 2247 1375 2428 
Q 1034 2569 447 2591 
L 1259 4238 
L 2778 4238 
z
" transform="scale(0.015625)"/>
       </defs>
       <use xlink:href="#TimesNewRomanPSMT-32"/>
       <use xlink:href="#TimesNewRomanPSMT-35" x="50"/>
      </g>
     </g>
    </g>
    <g id="xtick_3">
     <g id="line2d_5">
      <path d="M 240.921956 560.866875 
L 240.921956 53.446875 
" clip-path="url(#pd4d1657c9c)" style="fill: none; stroke: #000000; stroke-width: 0.7; stroke-linecap: square"/>
     </g>
     <g id="line2d_6">
      <g>
       <use xlink:href="#md30ee708c0" x="240.921956" y="560.866875" style="stroke: #000000; stroke-width: 2"/>
      </g>
     </g>
     <g id="text_3">
      <!-- 30 -->
      <g transform="translate(220.921956 592.141875) scale(0.4 -0.4)">
       <defs>
        <path id="TimesNewRomanPSMT-33" d="M 325 3431 
Q 506 3859 782 4092 
Q 1059 4325 1472 4325 
Q 1981 4325 2253 3994 
Q 2459 3747 2459 3466 
Q 2459 3003 1878 2509 
Q 2269 2356 2469 2072 
Q 2669 1788 2669 1403 
Q 2669 853 2319 450 
Q 1863 -75 997 -75 
Q 569 -75 414 31 
Q 259 138 259 259 
Q 259 350 332 419 
Q 406 488 509 488 
Q 588 488 669 463 
Q 722 447 909 348 
Q 1097 250 1169 231 
Q 1284 197 1416 197 
Q 1734 197 1970 444 
Q 2206 691 2206 1028 
Q 2206 1275 2097 1509 
Q 2016 1684 1919 1775 
Q 1784 1900 1550 2001 
Q 1316 2103 1072 2103 
L 972 2103 
L 972 2197 
Q 1219 2228 1467 2375 
Q 1716 2522 1828 2728 
Q 1941 2934 1941 3181 
Q 1941 3503 1739 3701 
Q 1538 3900 1238 3900 
Q 753 3900 428 3381 
L 325 3431 
z
" transform="scale(0.015625)"/>
       </defs>
       <use xlink:href="#TimesNewRomanPSMT-33"/>
       <use xlink:href="#TimesNewRomanPSMT-30" x="50"/>
      </g>
     </g>
    </g>
    <g id="xtick_4">
     <g id="line2d_7">
      <path d="M 307.330047 560.866875 
L 307.330047 53.446875 
" clip-path="url(#pd4d1657c9c)" style="fill: none; stroke: #000000; stroke-width: 0.7; stroke-linecap: square"/>
     </g>
     <g id="line2d_8">
      <g>
       <use xlink:href="#md30ee708c0" x="307.330047" y="560.866875" style="stroke: #000000; stroke-width: 2"/>
      </g>
     </g>
     <g id="text_4">
      <!-- 35 -->
      <g transform="translate(287.330047 592.141875) scale(0.4 -0.4)">
       <use xlink:href="#TimesNewRomanPSMT-33"/>
       <use xlink:href="#TimesNewRomanPSMT-35" x="50"/>
      </g>
     </g>
    </g>
    <g id="xtick_5">
     <g id="line2d_9">
      <path d="M 373.738138 560.866875 
L 373.738138 53.446875 
" clip-path="url(#pd4d1657c9c)" style="fill: none; stroke: #000000; stroke-width: 0.7; stroke-linecap: square"/>
     </g>
     <g id="line2d_10">
      <g>
       <use xlink:href="#md30ee708c0" x="373.738138" y="560.866875" style="stroke: #000000; stroke-width: 2"/>
      </g>
     </g>
     <g id="text_5">
      <!-- 40 -->
      <g transform="translate(353.738138 592.141875) scale(0.4 -0.4)">
       <defs>
        <path id="TimesNewRomanPSMT-34" d="M 2978 1563 
L 2978 1119 
L 2409 1119 
L 2409 0 
L 1894 0 
L 1894 1119 
L 100 1119 
L 100 1519 
L 2066 4325 
L 2409 4325 
L 2409 1563 
L 2978 1563 
z
M 1894 1563 
L 1894 3666 
L 406 1563 
L 1894 1563 
z
" transform="scale(0.015625)"/>
       </defs>
       <use xlink:href="#TimesNewRomanPSMT-34"/>
       <use xlink:href="#TimesNewRomanPSMT-30" x="50"/>
      </g>
     </g>
    </g>
    <g id="xtick_6">
     <g id="line2d_11">
      <path d="M 440.146228 560.866875 
L 440.146228 53.446875 
" clip-path="url(#pd4d1657c9c)" style="fill: none; stroke: #000000; stroke-width: 0.7; stroke-linecap: square"/>
     </g>
     <g id="line2d_12">
      <g>
       <use xlink:href="#md30ee708c0" x="440.146228" y="560.866875" style="stroke: #000000; stroke-width: 2"/>
      </g>
     </g>
     <g id="text_6">
      <!-- 45 -->
      <g transform="translate(420.146228 592.141875) scale(0.4 -0.4)">
       <use xlink:href="#TimesNewRomanPSMT-34"/>
       <use xlink:href="#TimesNewRomanPSMT-35" x="50"/>
      </g>
     </g>
    </g>
    <g id="xtick_7">
     <g id="line2d_13">
      <path d="M 506.554319 560.866875 
L 506.554319 53.446875 
" clip-path="url(#pd4d1657c9c)" style="fill: none; stroke: #000000; stroke-width: 0.7; stroke-linecap: square"/>
     </g>
     <g id="line2d_14">
      <g>
       <use xlink:href="#md30ee708c0" x="506.554319" y="560.866875" style="stroke: #000000; stroke-width: 2"/>
      </g>
     </g>
     <g id="text_7">
      <!-- 50 -->
      <g transform="translate(486.554319 592.141875) scale(0.4 -0.4)">
       <use xlink:href="#TimesNewRomanPSMT-35"/>
       <use xlink:href="#TimesNewRomanPSMT-30" x="50"/>
      </g>
     </g>
    </g>
    <g id="xtick_8">
     <g id="line2d_15">
      <path d="M 572.962409 560.866875 
L 572.962409 53.446875 
" clip-path="url(#pd4d1657c9c)" style="fill: none; stroke: #000000; stroke-width: 0.7; stroke-linecap: square"/>
     </g>
     <g id="line2d_16">
      <g>
       <use xlink:href="#md30ee708c0" x="572.962409" y="560.866875" style="stroke: #000000; stroke-width: 2"/>
      </g>
     </g>
     <g id="text_8">
      <!-- 55 -->
      <g transform="translate(552.962409 592.141875) scale(0.4 -0.4)">
       <use xlink:href="#TimesNewRomanPSMT-35"/>
       <use xlink:href="#TimesNewRomanPSMT-35" x="50"/>
      </g>
     </g>
    </g>
    <g id="text_9">
     <!-- Введено -->
     <g transform="translate(282.286311 644.861875) scale(0.42 -0.42)">
      <defs>
       <path id="TimesNewRomanPSMT-412" d="M 2956 2163 
Q 3397 2069 3616 1863 
Q 3919 1575 3919 1159 
Q 3919 844 3719 555 
Q 3519 266 3170 133 
Q 2822 0 2106 0 
L 106 0 
L 106 116 
L 266 116 
Q 531 116 647 284 
Q 719 394 719 750 
L 719 3488 
Q 719 3881 628 3984 
Q 506 4122 266 4122 
L 106 4122 
L 106 4238 
L 1938 4238 
Q 2450 4238 2759 4163 
Q 3228 4050 3475 3764 
Q 3722 3478 3722 3106 
Q 3722 2788 3528 2536 
Q 3334 2284 2956 2163 
z
M 1319 2331 
Q 1434 2309 1582 2298 
Q 1731 2288 1909 2288 
Q 2366 2288 2595 2386 
Q 2825 2484 2947 2687 
Q 3069 2891 3069 3131 
Q 3069 3503 2766 3765 
Q 2463 4028 1881 4028 
Q 1569 4028 1319 3959 
L 1319 2331 
z
M 1319 306 
Q 1681 222 2034 222 
Q 2600 222 2897 476 
Q 3194 731 3194 1106 
Q 3194 1353 3059 1581 
Q 2925 1809 2622 1940 
Q 2319 2072 1872 2072 
Q 1678 2072 1540 2065 
Q 1403 2059 1319 2044 
L 1319 306 
z
" transform="scale(0.015625)"/>
       <path id="TimesNewRomanPSMT-432" d="M 2016 1513 
Q 2800 1350 2800 778 
Q 2800 388 2473 194 
Q 2147 0 1563 0 
L 150 0 
L 150 116 
Q 428 116 501 220 
Q 575 325 575 672 
L 575 2191 
Q 575 2528 542 2587 
Q 509 2647 439 2695 
Q 369 2744 150 2744 
L 150 2863 
L 1469 2863 
Q 1850 2863 2086 2803 
Q 2322 2744 2473 2569 
Q 2625 2394 2625 2144 
Q 2625 1656 2016 1513 
z
M 1094 1584 
Q 1231 1581 1259 1581 
Q 1688 1581 1878 1745 
Q 2069 1909 2069 2144 
Q 2069 2416 1875 2537 
Q 1681 2659 1256 2659 
L 1094 2659 
L 1094 1584 
z
M 1094 253 
Q 1250 203 1466 203 
Q 1838 203 2019 365 
Q 2200 528 2200 784 
Q 2200 1072 1965 1225 
Q 1731 1378 1316 1378 
Q 1213 1378 1094 1372 
L 1094 253 
z
" transform="scale(0.015625)"/>
       <path id="TimesNewRomanPSMT-435" d="M 681 1784 
Q 678 1147 991 784 
Q 1303 422 1725 422 
Q 2006 422 2214 576 
Q 2422 731 2563 1106 
L 2659 1044 
Q 2594 616 2278 264 
Q 1963 -88 1488 -88 
Q 972 -88 605 314 
Q 238 716 238 1394 
Q 238 2128 614 2539 
Q 991 2950 1559 2950 
Q 2041 2950 2350 2633 
Q 2659 2316 2659 1784 
L 681 1784 
z
M 681 1966 
L 2006 1966 
Q 1991 2241 1941 2353 
Q 1863 2528 1708 2628 
Q 1553 2728 1384 2728 
Q 1125 2728 920 2526 
Q 716 2325 681 1966 
z
" transform="scale(0.015625)"/>
       <path id="TimesNewRomanPSMT-434" d="M 591 2863 
L 3116 2863 
L 3116 2744 
Q 2903 2744 2833 2701 
Q 2763 2659 2722 2596 
Q 2681 2534 2681 2191 
L 2681 775 
Q 2681 328 2757 226 
Q 2834 125 3116 116 
L 3116 -794 
L 2997 -794 
Q 2984 -538 2870 -347 
Q 2756 -156 2553 -78 
Q 2350 0 1953 0 
L 1216 0 
Q 872 0 678 -61 
Q 484 -122 354 -315 
Q 225 -509 197 -794 
L 81 -794 
L 81 116 
Q 338 125 547 319 
Q 756 513 915 1078 
Q 1075 1644 1075 2191 
Q 1075 2728 591 2744 
L 591 2863 
z
M 1281 2659 
L 1281 2488 
Q 1281 953 725 203 
L 1788 203 
Q 2075 203 2119 251 
Q 2163 300 2163 609 
L 2163 2659 
L 1281 2659 
z
" transform="scale(0.015625)"/>
       <path id="TimesNewRomanPSMT-43d" d="M 1094 1584 
L 2331 1584 
L 2331 2191 
Q 2331 2463 2309 2545 
Q 2288 2628 2202 2686 
Q 2116 2744 1897 2744 
L 1897 2863 
L 3281 2863 
L 3281 2744 
Q 3088 2744 2998 2700 
Q 2909 2656 2878 2573 
Q 2847 2491 2847 2191 
L 2847 672 
Q 2847 400 2870 312 
Q 2894 225 2984 170 
Q 3075 116 3281 116 
L 3281 0 
L 1897 0 
L 1897 116 
Q 2156 116 2243 211 
Q 2331 306 2331 672 
L 2331 1381 
L 1094 1381 
L 1094 672 
Q 1094 400 1117 312 
Q 1141 225 1231 170 
Q 1322 116 1528 116 
L 1528 0 
L 144 0 
L 144 116 
Q 422 116 500 217 
Q 578 319 578 672 
L 578 2191 
Q 578 2463 554 2550 
Q 531 2638 440 2691 
Q 350 2744 144 2744 
L 144 2863 
L 1528 2863 
L 1528 2744 
Q 1334 2744 1245 2700 
Q 1156 2656 1125 2573 
Q 1094 2491 1094 2191 
L 1094 1584 
z
" transform="scale(0.015625)"/>
       <path id="TimesNewRomanPSMT-43e" d="M 1600 2947 
Q 2250 2947 2644 2453 
Q 2978 2031 2978 1484 
Q 2978 1100 2793 706 
Q 2609 313 2286 112 
Q 1963 -88 1566 -88 
Q 919 -88 538 428 
Q 216 863 216 1403 
Q 216 1797 411 2186 
Q 606 2575 925 2761 
Q 1244 2947 1600 2947 
z
M 1503 2744 
Q 1338 2744 1170 2645 
Q 1003 2547 900 2300 
Q 797 2053 797 1666 
Q 797 1041 1045 587 
Q 1294 134 1700 134 
Q 2003 134 2200 384 
Q 2397 634 2397 1244 
Q 2397 2006 2069 2444 
Q 1847 2744 1503 2744 
z
" transform="scale(0.015625)"/>
      </defs>
      <use xlink:href="#TimesNewRomanPSMT-412"/>
      <use xlink:href="#TimesNewRomanPSMT-432" x="66.699219"/>
      <use xlink:href="#TimesNewRomanPSMT-435" x="113.291016"/>
      <use xlink:href="#TimesNewRomanPSMT-434" x="156.300781"/>
      <use xlink:href="#TimesNewRomanPSMT-435" x="207.179688"/>
      <use xlink:href="#TimesNewRomanPSMT-43d" x="251.564453"/>
      <use xlink:href="#TimesNewRomanPSMT-43e" x="305.080078"/>
     </g>
    </g>
   </g>
   <g id="matplotlib.axis_2">
    <g id="ytick_1">
     <g id="line2d_17">
      <path d="M 103.847813 556.165462 
L 609.864185 556.165462 
" clip-path="url(#pd4d1657c9c)" style="fill: none; stroke: #000000; stroke-width: 0.7; stroke-linecap: square"/>
     </g>
     <g id="line2d_18">
      <defs>
       <path id="m09ed8bd343" d="M 0 0 
L 10 0 
" style="stroke: #000000; stroke-width: 2"/>
      </defs>
      <g>
       <use xlink:href="#m09ed8bd343" x="103.847813" y="556.165462" style="stroke: #000000; stroke-width: 2"/>
      </g>
     </g>
     <g id="text_10">
      <!-- 20 -->
      <g transform="translate(60.347813 570.052962) scale(0.4 -0.4)">
       <use xlink:href="#TimesNewRomanPSMT-32"/>
       <use xlink:href="#TimesNewRomanPSMT-30" x="50"/>
      </g>
     </g>
    </g>
    <g id="ytick_2">
     <g id="line2d_19">
      <path d="M 103.847813 491.102517 
L 609.864185 491.102517 
" clip-path="url(#pd4d1657c9c)" style="fill: none; stroke: #000000; stroke-width: 0.7; stroke-linecap: square"/>
     </g>
     <g id="line2d_20">
      <g>
       <use xlink:href="#m09ed8bd343" x="103.847813" y="491.102517" style="stroke: #000000; stroke-width: 2"/>
      </g>
     </g>
     <g id="text_11">
      <!-- 25 -->
      <g transform="translate(60.347813 504.990017) scale(0.4 -0.4)">
       <use xlink:href="#TimesNewRomanPSMT-32"/>
       <use xlink:href="#TimesNewRomanPSMT-35" x="50"/>
      </g>
     </g>
    </g>
    <g id="ytick_3">
     <g id="line2d_21">
      <path d="M 103.847813 426.039572 
L 609.864185 426.039572 
" clip-path="url(#pd4d1657c9c)" style="fill: none; stroke: #000000; stroke-width: 0.7; stroke-linecap: square"/>
     </g>
     <g id="line2d_22">
      <g>
       <use xlink:href="#m09ed8bd343" x="103.847813" y="426.039572" style="stroke: #000000; stroke-width: 2"/>
      </g>
     </g>
     <g id="text_12">
      <!-- 30 -->
      <g transform="translate(60.347813 439.927072) scale(0.4 -0.4)">
       <use xlink:href="#TimesNewRomanPSMT-33"/>
       <use xlink:href="#TimesNewRomanPSMT-30" x="50"/>
      </g>
     </g>
    </g>
    <g id="ytick_4">
     <g id="line2d_23">
      <path d="M 103.847813 360.976627 
L 609.864185 360.976627 
" clip-path="url(#pd4d1657c9c)" style="fill: none; stroke: #000000; stroke-width: 0.7; stroke-linecap: square"/>
     </g>
     <g id="line2d_24">
      <g>
       <use xlink:href="#m09ed8bd343" x="103.847813" y="360.976627" style="stroke: #000000; stroke-width: 2"/>
      </g>
     </g>
     <g id="text_13">
      <!-- 35 -->
      <g transform="translate(60.347813 374.864127) scale(0.4 -0.4)">
       <use xlink:href="#TimesNewRomanPSMT-33"/>
       <use xlink:href="#TimesNewRomanPSMT-35" x="50"/>
      </g>
     </g>
    </g>
    <g id="ytick_5">
     <g id="line2d_25">
      <path d="M 103.847813 295.913682 
L 609.864185 295.913682 
" clip-path="url(#pd4d1657c9c)" style="fill: none; stroke: #000000; stroke-width: 0.7; stroke-linecap: square"/>
     </g>
     <g id="line2d_26">
      <g>
       <use xlink:href="#m09ed8bd343" x="103.847813" y="295.913682" style="stroke: #000000; stroke-width: 2"/>
      </g>
     </g>
     <g id="text_14">
      <!-- 40 -->
      <g transform="translate(60.347813 309.801182) scale(0.4 -0.4)">
       <use xlink:href="#TimesNewRomanPSMT-34"/>
       <use xlink:href="#TimesNewRomanPSMT-30" x="50"/>
      </g>
     </g>
    </g>
    <g id="ytick_6">
     <g id="line2d_27">
      <path d="M 103.847813 230.850737 
L 609.864185 230.850737 
" clip-path="url(#pd4d1657c9c)" style="fill: none; stroke: #000000; stroke-width: 0.7; stroke-linecap: square"/>
     </g>
     <g id="line2d_28">
      <g>
       <use xlink:href="#m09ed8bd343" x="103.847813" y="230.850737" style="stroke: #000000; stroke-width: 2"/>
      </g>
     </g>
     <g id="text_15">
      <!-- 45 -->
      <g transform="translate(60.347813 244.738237) scale(0.4 -0.4)">
       <use xlink:href="#TimesNewRomanPSMT-34"/>
       <use xlink:href="#TimesNewRomanPSMT-35" x="50"/>
      </g>
     </g>
    </g>
    <g id="ytick_7">
     <g id="line2d_29">
      <path d="M 103.847813 165.787792 
L 609.864185 165.787792 
" clip-path="url(#pd4d1657c9c)" style="fill: none; stroke: #000000; stroke-width: 0.7; stroke-linecap: square"/>
     </g>
     <g id="line2d_30">
      <g>
       <use xlink:href="#m09ed8bd343" x="103.847813" y="165.787792" style="stroke: #000000; stroke-width: 2"/>
      </g>
     </g>
     <g id="text_16">
      <!-- 50 -->
      <g transform="translate(60.347813 179.675292) scale(0.4 -0.4)">
       <use xlink:href="#TimesNewRomanPSMT-35"/>
       <use xlink:href="#TimesNewRomanPSMT-30" x="50"/>
      </g>
     </g>
    </g>
    <g id="ytick_8">
     <g id="line2d_31">
      <path d="M 103.847813 100.724847 
L 609.864185 100.724847 
" clip-path="url(#pd4d1657c9c)" style="fill: none; stroke: #000000; stroke-width: 0.7; stroke-linecap: square"/>
     </g>
     <g id="line2d_32">
      <g>
       <use xlink:href="#m09ed8bd343" x="103.847813" y="100.724847" style="stroke: #000000; stroke-width: 2"/>
      </g>
     </g>
     <g id="text_17">
      <!-- 55 -->
      <g transform="translate(60.347813 114.612347) scale(0.4 -0.4)">
       <use xlink:href="#TimesNewRomanPSMT-35"/>
       <use xlink:href="#TimesNewRomanPSMT-35" x="50"/>
      </g>
     </g>
    </g>
    <g id="text_18">
     <!-- Найдено -->
     <g transform="translate(36.36375 384.627188) rotate(-90) scale(0.42 -0.42)">
      <defs>
       <path id="TimesNewRomanPSMT-41d" d="M 1316 2272 
L 3284 2272 
L 3284 3484 
Q 3284 3809 3244 3913 
Q 3213 3991 3113 4047 
Q 2978 4122 2828 4122 
L 2678 4122 
L 2678 4238 
L 4491 4238 
L 4491 4122 
L 4341 4122 
Q 4191 4122 4056 4050 
Q 3956 4000 3920 3898 
Q 3884 3797 3884 3484 
L 3884 750 
Q 3884 428 3925 325 
Q 3956 247 4053 191 
Q 4191 116 4341 116 
L 4491 116 
L 4491 0 
L 2678 0 
L 2678 116 
L 2828 116 
Q 3088 116 3206 269 
Q 3284 369 3284 750 
L 3284 2041 
L 1316 2041 
L 1316 750 
Q 1316 428 1356 325 
Q 1388 247 1488 191 
Q 1622 116 1772 116 
L 1925 116 
L 1925 0 
L 109 0 
L 109 116 
L 259 116 
Q 522 116 641 269 
Q 716 369 716 750 
L 716 3484 
Q 716 3809 675 3913 
Q 644 3991 547 4047 
Q 409 4122 259 4122 
L 109 4122 
L 109 4238 
L 1925 4238 
L 1925 4122 
L 1772 4122 
Q 1622 4122 1488 4050 
Q 1391 4000 1353 3898 
Q 1316 3797 1316 3484 
L 1316 2272 
z
" transform="scale(0.015625)"/>
       <path id="TimesNewRomanPSMT-430" d="M 1822 413 
Q 1381 72 1269 19 
Q 1100 -59 909 -59 
Q 613 -59 420 144 
Q 228 347 228 678 
Q 228 888 322 1041 
Q 450 1253 767 1440 
Q 1084 1628 1822 1897 
L 1822 2009 
Q 1822 2438 1686 2597 
Q 1550 2756 1291 2756 
Q 1094 2756 978 2650 
Q 859 2544 859 2406 
L 866 2225 
Q 866 2081 792 2003 
Q 719 1925 600 1925 
Q 484 1925 411 2006 
Q 338 2088 338 2228 
Q 338 2497 613 2722 
Q 888 2947 1384 2947 
Q 1766 2947 2009 2819 
Q 2194 2722 2281 2516 
Q 2338 2381 2338 1966 
L 2338 994 
Q 2338 584 2353 492 
Q 2369 400 2405 369 
Q 2441 338 2488 338 
Q 2538 338 2575 359 
Q 2641 400 2828 588 
L 2828 413 
Q 2478 -56 2159 -56 
Q 2006 -56 1915 50 
Q 1825 156 1822 413 
z
M 1822 616 
L 1822 1706 
Q 1350 1519 1213 1441 
Q 966 1303 859 1153 
Q 753 1003 753 825 
Q 753 600 887 451 
Q 1022 303 1197 303 
Q 1434 303 1822 616 
z
" transform="scale(0.015625)"/>
       <path id="TimesNewRomanPSMT-439" d="M 688 4009 
Q 688 4119 748 4186 
Q 809 4253 903 4253 
Q 1109 4253 1269 3866 
Q 1359 3647 1476 3592 
Q 1594 3538 1706 3538 
Q 1903 3538 2003 3622 
Q 2103 3706 2191 3925 
Q 2322 4250 2513 4250 
Q 2606 4250 2672 4183 
Q 2738 4116 2738 4016 
Q 2738 3775 2422 3569 
Q 2106 3363 1713 3363 
Q 1197 3363 942 3550 
Q 688 3738 688 4009 
z
M 1094 881 
L 2331 2313 
Q 2325 2553 2240 2647 
Q 2156 2741 1950 2744 
L 1950 2863 
L 3281 2863 
L 3281 2744 
Q 3072 2744 3000 2701 
Q 2928 2659 2887 2596 
Q 2847 2534 2847 2191 
L 2847 672 
Q 2847 341 2881 277 
Q 2916 213 2989 164 
Q 3063 116 3281 116 
L 3281 0 
L 1897 0 
L 1897 116 
Q 2156 116 2243 211 
Q 2331 306 2331 672 
L 2331 2019 
L 1094 584 
Q 1100 319 1169 219 
Q 1238 119 1466 116 
L 1466 0 
L 144 0 
L 144 116 
Q 422 116 500 217 
Q 578 319 578 672 
L 578 2191 
Q 578 2525 543 2586 
Q 509 2647 437 2695 
Q 366 2744 144 2744 
L 144 2863 
L 1528 2863 
L 1528 2744 
Q 1319 2744 1247 2701 
Q 1175 2659 1134 2596 
Q 1094 2534 1094 2191 
L 1094 881 
z
" transform="scale(0.015625)"/>
      </defs>
      <use xlink:href="#TimesNewRomanPSMT-41d"/>
      <use xlink:href="#TimesNewRomanPSMT-430" x="72.216797"/>
      <use xlink:href="#TimesNewRomanPSMT-439" x="116.601562"/>
      <use xlink:href="#TimesNewRomanPSMT-434" x="170.117188"/>
      <use xlink:href="#TimesNewRomanPSMT-435" x="220.996094"/>
      <use xlink:href="#TimesNewRomanPSMT-43d" x="265.380859"/>
      <use xlink:href="#TimesNewRomanPSMT-43e" x="318.896484"/>
     </g>
    </g>
   </g>
   <g id="line2d_33">
    <path d="M 446.080338 225.036827 
L 555.908387 117.433427 
L 371.581046 298.02708 
L 259.657888 407.68315 
L 406.206761 264.102735 
L 326.986033 341.718788 
L 322.106548 346.499435 
L 427.519842 243.221366 
L 312.039781 356.362292 
L 472.577819 199.076072 
L 474.377396 197.312947 
L 355.445137 313.836144 
L 434.12741 236.74764 
L 316.951661 351.549906 
L 568.189847 105.400737 
L 498.714791 173.468524 
L 190.418267 475.520271 
L 323.616338 345.020227 
L 417.205388 253.326893 
L 294.984428 373.072176 
L 296.612944 371.476646 
L 285.30978 382.550857 
L 387.548371 282.383185 
L 479.941364 191.861681 
L 402.263099 267.966514 
L 297.268746 370.834129 
L 332.68678 336.133513 
L 216.800933 449.672006 
L 126.848557 537.80233 
L 457.706114 213.64654 
L 432.173758 238.661719 
L 372.434158 297.191249 
L 586.863441 87.105391 
L 312.626954 355.787013 
L 316.57131 351.922552 
" clip-path="url(#pd4d1657c9c)" style="fill: none; stroke: #0000ff; stroke-width: 3; stroke-linecap: square"/>
   </g>
   <g id="line2d_34">
    <defs>
     <path id="m5313e555c2" d="M 0 5 
C 1.326016 5 2.597899 4.473168 3.535534 3.535534 
C 4.473168 2.597899 5 1.326016 5 0 
C 5 -1.326016 4.473168 -2.597899 3.535534 -3.535534 
C 2.597899 -4.473168 1.326016 -5 0 -5 
C -1.326016 -5 -2.597899 -4.473168 -3.535534 -3.535534 
C -4.473168 -2.597899 -5 -1.326016 -5 0 
C -5 1.326016 -4.473168 2.597899 -3.535534 3.535534 
C -2.597899 4.473168 -1.326016 5 0 5 
z
" style="stroke: #ff0000"/>
    </defs>
    <g clip-path="url(#pd4d1657c9c)">
     <use xlink:href="#m5313e555c2" x="446.080338" y="198.450049" style="fill: #ff0000; stroke: #ff0000"/>
     <use xlink:href="#m5313e555c2" x="555.908387" y="161.821885" style="fill: #ff0000; stroke: #ff0000"/>
     <use xlink:href="#m5313e555c2" x="371.581046" y="396.368996" style="fill: #ff0000; stroke: #ff0000"/>
     <use xlink:href="#m5313e555c2" x="259.657888" y="362.25021" style="fill: #ff0000; stroke: #ff0000"/>
     <use xlink:href="#m5313e555c2" x="406.206761" y="336.855212" style="fill: #ff0000; stroke: #ff0000"/>
     <use xlink:href="#m5313e555c2" x="326.986033" y="410.252493" style="fill: #ff0000; stroke: #ff0000"/>
     <use xlink:href="#m5313e555c2" x="322.106548" y="347.936379" style="fill: #ff0000; stroke: #ff0000"/>
     <use xlink:href="#m5313e555c2" x="427.519842" y="198.292285" style="fill: #ff0000; stroke: #ff0000"/>
     <use xlink:href="#m5313e555c2" x="312.039781" y="347.620611" style="fill: #ff0000; stroke: #ff0000"/>
     <use xlink:href="#m5313e555c2" x="472.577819" y="292.657337" style="fill: #ff0000; stroke: #ff0000"/>
     <use xlink:href="#m5313e555c2" x="474.377396" y="200.063431" style="fill: #ff0000; stroke: #ff0000"/>
     <use xlink:href="#m5313e555c2" x="355.445137" y="280.394781" style="fill: #ff0000; stroke: #ff0000"/>
     <use xlink:href="#m5313e555c2" x="434.12741" y="256.534401" style="fill: #ff0000; stroke: #ff0000"/>
     <use xlink:href="#m5313e555c2" x="316.951661" y="336.413753" style="fill: #ff0000; stroke: #ff0000"/>
     <use xlink:href="#m5313e555c2" x="568.189847" y="77.410727" style="fill: #ff0000; stroke: #ff0000"/>
     <use xlink:href="#m5313e555c2" x="498.714791" y="239.24038" style="fill: #ff0000; stroke: #ff0000"/>
     <use xlink:href="#m5313e555c2" x="190.418267" y="416.20264" style="fill: #ff0000; stroke: #ff0000"/>
     <use xlink:href="#m5313e555c2" x="323.616338" y="330.798378" style="fill: #ff0000; stroke: #ff0000"/>
     <use xlink:href="#m5313e555c2" x="417.205388" y="262.480404" style="fill: #ff0000; stroke: #ff0000"/>
     <use xlink:href="#m5313e555c2" x="294.984428" y="447.396323" style="fill: #ff0000; stroke: #ff0000"/>
     <use xlink:href="#m5313e555c2" x="296.612944" y="332.159197" style="fill: #ff0000; stroke: #ff0000"/>
     <use xlink:href="#m5313e555c2" x="285.30978" y="367.537594" style="fill: #ff0000; stroke: #ff0000"/>
     <use xlink:href="#m5313e555c2" x="387.548371" y="360.259895" style="fill: #ff0000; stroke: #ff0000"/>
     <use xlink:href="#m5313e555c2" x="479.941364" y="208.608583" style="fill: #ff0000; stroke: #ff0000"/>
     <use xlink:href="#m5313e555c2" x="402.263099" y="271.093483" style="fill: #ff0000; stroke: #ff0000"/>
     <use xlink:href="#m5313e555c2" x="297.268746" y="346.153403" style="fill: #ff0000; stroke: #ff0000"/>
     <use xlink:href="#m5313e555c2" x="332.68678" y="312.975686" style="fill: #ff0000; stroke: #ff0000"/>
     <use xlink:href="#m5313e555c2" x="216.800933" y="424.00361" style="fill: #ff0000; stroke: #ff0000"/>
     <use xlink:href="#m5313e555c2" x="126.848557" y="437.681444" style="fill: #ff0000; stroke: #ff0000"/>
     <use xlink:href="#m5313e555c2" x="457.706114" y="206.930225" style="fill: #ff0000; stroke: #ff0000"/>
     <use xlink:href="#m5313e555c2" x="432.173758" y="184.114861" style="fill: #ff0000; stroke: #ff0000"/>
     <use xlink:href="#m5313e555c2" x="372.434158" y="265.67659" style="fill: #ff0000; stroke: #ff0000"/>
     <use xlink:href="#m5313e555c2" x="586.863441" y="76.51142" style="fill: #ff0000; stroke: #ff0000"/>
     <use xlink:href="#m5313e555c2" x="312.626954" y="397.517026" style="fill: #ff0000; stroke: #ff0000"/>
     <use xlink:href="#m5313e555c2" x="316.57131" y="303.440515" style="fill: #ff0000; stroke: #ff0000"/>
    </g>
   </g>
   <g id="patch_3">
    <path d="M 103.847813 560.866875 
L 103.847813 53.446875 
" style="fill: none; stroke: #000000; stroke-width: 0.8; stroke-linejoin: miter; stroke-linecap: square"/>
   </g>
   <g id="patch_4">
    <path d="M 609.864185 560.866875 
L 609.864185 53.446875 
" style="fill: none; stroke: #000000; stroke-width: 0.8; stroke-linejoin: miter; stroke-linecap: square"/>
   </g>
   <g id="patch_5">
    <path d="M 103.847813 560.866875 
L 609.864185 560.866875 
" style="fill: none; stroke: #000000; stroke-width: 0.8; stroke-linejoin: miter; stroke-linecap: square"/>
   </g>
   <g id="patch_6">
    <path d="M 103.847813 53.446875 
L 609.864185 53.446875 
" style="fill: none; stroke: #000000; stroke-width: 0.8; stroke-linejoin: miter; stroke-linecap: square"/>
   </g>
   <g id="text_19">
    <g id="patch_7">
     <path d="M 155.286071 221.097294 
L 383.346071 221.097294 
Q 395.946071 221.097294 395.946071 208.497294 
L 395.946071 146.757294 
Q 395.946071 134.157294 383.346071 134.157294 
L 155.286071 134.157294 
Q 142.686071 134.157294 142.686071 146.757294 
L 142.686071 208.497294 
Q 142.686071 221.097294 155.286071 221.097294 
z
" style="fill: #ffffff; stroke: #000000; stroke-linejoin: miter"/>
    </g>
    <!-- $\frac {RMSE}{ДК}$=0.1058 -->
    <g transform="translate(155.286071 187.497294) scale(0.42 -0.42)">
     <defs>
      <path id="DejaVuSans-Oblique-52" d="M 1613 4147 
L 1294 2491 
L 2106 2491 
Q 2584 2491 2879 2755 
Q 3175 3019 3175 3444 
Q 3175 3784 2976 3965 
Q 2778 4147 2406 4147 
L 1613 4147 
z
M 2772 2241 
Q 2972 2194 3105 2009 
Q 3238 1825 3413 1275 
L 3809 0 
L 3144 0 
L 2778 1197 
Q 2638 1659 2453 1815 
Q 2269 1972 1888 1972 
L 1191 1972 
L 806 0 
L 172 0 
L 1081 4666 
L 2503 4666 
Q 3150 4666 3495 4373 
Q 3841 4081 3841 3531 
Q 3841 3044 3547 2687 
Q 3253 2331 2772 2241 
z
" transform="scale(0.015625)"/>
      <path id="DejaVuSans-Oblique-4d" d="M 1081 4666 
L 2028 4666 
L 2572 1522 
L 4378 4666 
L 5350 4666 
L 4441 0 
L 3828 0 
L 4622 4091 
L 2791 897 
L 2175 897 
L 1581 4103 
L 788 0 
L 172 0 
L 1081 4666 
z
" transform="scale(0.015625)"/>
      <path id="DejaVuSans-Oblique-53" d="M 3859 4513 
L 3738 3897 
Q 3422 4066 3111 4152 
Q 2800 4238 2509 4238 
Q 1944 4238 1609 3991 
Q 1275 3744 1275 3334 
Q 1275 3109 1398 2989 
Q 1522 2869 2034 2731 
L 2413 2638 
Q 3053 2472 3303 2217 
Q 3553 1963 3553 1503 
Q 3553 797 2998 353 
Q 2444 -91 1538 -91 
Q 1166 -91 791 -17 
Q 416 56 38 206 
L 166 856 
Q 513 641 861 531 
Q 1209 422 1556 422 
Q 2147 422 2503 684 
Q 2859 947 2859 1369 
Q 2859 1650 2717 1795 
Q 2575 1941 2106 2059 
L 1728 2156 
Q 1081 2325 845 2545 
Q 609 2766 609 3163 
Q 609 3859 1145 4304 
Q 1681 4750 2541 4750 
Q 2875 4750 3203 4690 
Q 3531 4631 3859 4513 
z
" transform="scale(0.015625)"/>
      <path id="DejaVuSans-Oblique-45" d="M 1081 4666 
L 4031 4666 
L 3928 4134 
L 1606 4134 
L 1338 2753 
L 3566 2753 
L 3463 2222 
L 1234 2222 
L 909 531 
L 3284 531 
L 3181 0 
L 172 0 
L 1081 4666 
z
" transform="scale(0.015625)"/>
      <path id="DejaVuSans-Oblique-414" d="M 1206 531 
L 3269 531 
L 3969 4134 
L 2453 4134 
L 2325 3472 
Q 2022 1913 1472 878 
Q 1356 666 1206 531 
z
M 284 531 
Q 741 728 934 1103 
Q 1425 2066 1756 3784 
L 1928 4666 
L 4703 4666 
L 3900 531 
L 4431 531 
L 4134 -1003 
L 3603 -1003 
L 3797 0 
L 491 0 
L 297 -1003 
L -234 -1003 
L 63 531 
L 284 531 
z
" transform="scale(0.015625)"/>
      <path id="DejaVuSans-Oblique-41a" d="M 1081 4666 
L 1713 4666 
L 1266 2359 
L 3969 4666 
L 4778 4666 
L 2616 2822 
L 3966 0 
L 3278 0 
L 2125 2403 
L 1103 1531 
L 806 0 
L 175 0 
L 1081 4666 
z
" transform="scale(0.015625)"/>
      <path id="TimesNewRomanPS-BoldMT-3d" d="M 125 2825 
L 3544 2825 
L 3544 2419 
L 125 2419 
L 125 2825 
z
M 125 1803 
L 3544 1803 
L 3544 1397 
L 125 1397 
L 125 1803 
z
" transform="scale(0.015625)"/>
      <path id="TimesNewRomanPS-BoldMT-30" d="M 2966 2119 
Q 2966 1484 2788 934 
Q 2681 597 2501 381 
Q 2322 166 2094 39 
Q 1866 -88 1597 -88 
Q 1291 -88 1044 68 
Q 797 225 606 516 
Q 469 728 366 1081 
Q 231 1559 231 2069 
Q 231 2759 425 3338 
Q 584 3816 909 4070 
Q 1234 4325 1597 4325 
Q 1966 4325 2286 4073 
Q 2606 3822 2756 3397 
Q 2966 2813 2966 2119 
z
M 2003 2125 
Q 2003 3238 1991 3422 
Q 1959 3856 1841 4009 
Q 1763 4109 1588 4109 
Q 1453 4109 1375 4034 
Q 1259 3925 1218 3648 
Q 1178 3372 1178 1719 
Q 1178 819 1241 513 
Q 1288 291 1375 216 
Q 1463 141 1606 141 
Q 1763 141 1841 241 
Q 1972 416 1991 781 
L 2003 2125 
z
" transform="scale(0.015625)"/>
      <path id="TimesNewRomanPS-BoldMT-2e" d="M 800 963 
Q 1019 963 1170 809 
Q 1322 656 1322 441 
Q 1322 225 1169 73 
Q 1016 -78 800 -78 
Q 584 -78 432 73 
Q 281 225 281 441 
Q 281 656 432 809 
Q 584 963 800 963 
z
" transform="scale(0.015625)"/>
      <path id="TimesNewRomanPS-BoldMT-31" d="M 2084 4325 
L 2084 859 
Q 2084 469 2118 361 
Q 2153 253 2262 184 
Q 2372 116 2613 116 
L 2709 116 
L 2709 0 
L 478 0 
L 478 116 
L 591 116 
Q 863 116 978 178 
Q 1094 241 1134 350 
Q 1175 459 1175 859 
L 1175 3056 
Q 1175 3350 1147 3423 
Q 1119 3497 1042 3548 
Q 966 3600 866 3600 
Q 706 3600 478 3500 
L 422 3613 
L 1981 4325 
L 2084 4325 
z
" transform="scale(0.015625)"/>
      <path id="TimesNewRomanPS-BoldMT-35" d="M 975 4238 
L 2959 4238 
L 2644 3431 
L 975 3431 
L 816 3009 
Q 1894 2969 2475 2472 
Q 2953 2063 2953 1453 
Q 2953 1063 2731 689 
Q 2509 316 2106 114 
Q 1703 -88 1222 -88 
Q 703 -88 425 106 
Q 231 244 231 419 
Q 231 553 332 656 
Q 434 759 569 759 
Q 691 759 816 709 
Q 941 659 1244 447 
Q 1434 316 1572 266 
Q 1669 228 1791 228 
Q 2047 228 2226 415 
Q 2406 603 2406 866 
Q 2406 1416 1856 1759 
Q 1306 2103 469 2103 
Q 384 2103 216 2100 
L 975 4238 
z
" transform="scale(0.015625)"/>
      <path id="TimesNewRomanPS-BoldMT-38" d="M 2181 2394 
Q 2628 2066 2801 1783 
Q 2975 1500 2975 1134 
Q 2975 622 2589 267 
Q 2203 -88 1541 -88 
Q 913 -88 569 221 
Q 225 531 225 978 
Q 225 1319 423 1575 
Q 622 1831 1084 2044 
Q 581 2428 439 2672 
Q 297 2916 297 3238 
Q 297 3663 658 3986 
Q 1019 4309 1647 4309 
Q 2253 4309 2579 4023 
Q 2906 3738 2906 3338 
Q 2906 3038 2729 2808 
Q 2553 2578 2181 2394 
z
M 1944 2553 
Q 2059 2709 2115 2903 
Q 2172 3097 2172 3328 
Q 2172 3734 1997 3950 
Q 1866 4116 1634 4116 
Q 1425 4116 1278 3964 
Q 1131 3813 1131 3588 
Q 1131 3359 1295 3114 
Q 1459 2869 1944 2553 
z
M 1319 1894 
Q 1222 1806 1181 1734 
Q 1119 1625 1069 1415 
Q 1019 1206 1019 978 
Q 1019 684 1094 486 
Q 1169 288 1308 200 
Q 1447 113 1594 113 
Q 1822 113 1978 280 
Q 2134 447 2134 738 
Q 2134 1344 1319 1894 
z
" transform="scale(0.015625)"/>
     </defs>
     <use xlink:href="#DejaVuSans-Oblique-52" transform="translate(0 45.046875) scale(0.7)"/>
     <use xlink:href="#DejaVuSans-Oblique-4d" transform="translate(48.637695 45.046875) scale(0.7)"/>
     <use xlink:href="#DejaVuSans-Oblique-53" transform="translate(109.033203 45.046875) scale(0.7)"/>
     <use xlink:href="#DejaVuSans-Oblique-45" transform="translate(153.466797 45.046875) scale(0.7)"/>
     <use xlink:href="#DejaVuSans-Oblique-414" transform="translate(47 -38.232812) scale(0.7)"/>
     <use xlink:href="#DejaVuSans-Oblique-41a" transform="translate(101.6875 -38.232812) scale(0.7)"/>
     <use xlink:href="#TimesNewRomanPS-BoldMT-3d" transform="translate(210.195312 0.254688)"/>
     <use xlink:href="#TimesNewRomanPS-BoldMT-30" transform="translate(267.177734 0.254688)"/>
     <use xlink:href="#TimesNewRomanPS-BoldMT-2e" transform="translate(317.177734 0.254688)"/>
     <use xlink:href="#TimesNewRomanPS-BoldMT-31" transform="translate(342.177734 0.254688)"/>
     <use xlink:href="#TimesNewRomanPS-BoldMT-30" transform="translate(392.177734 0.254688)"/>
     <use xlink:href="#TimesNewRomanPS-BoldMT-35" transform="translate(442.177734 0.254688)"/>
     <use xlink:href="#TimesNewRomanPS-BoldMT-38" transform="translate(492.177734 0.254688)"/>
     <path d="M 0 19.051563 
L 0 25.301563 
L 197.695312 25.301563 
L 197.695312 19.051563 
L 0 19.051563 
z
"/>
    </g>
   </g>
   <g id="text_20">
    <!-- гумины -->
    <g transform="translate(283.249358 38.446875) scale(0.45 -0.45)">
     <defs>
      <path id="TimesNewRomanPSMT-433" d="M 2469 2863 
L 2584 2081 
L 2447 2081 
Q 2328 2469 2208 2564 
Q 2088 2659 1700 2659 
L 1094 2659 
L 1094 672 
Q 1094 341 1128 277 
Q 1163 213 1236 164 
Q 1309 116 1528 116 
L 1528 0 
L 97 0 
L 97 116 
Q 403 122 490 211 
Q 578 300 578 672 
L 578 2191 
Q 578 2494 543 2580 
Q 509 2666 423 2703 
Q 338 2741 97 2744 
L 97 2863 
L 2469 2863 
z
" transform="scale(0.015625)"/>
      <path id="TimesNewRomanPSMT-443" d="M 38 2863 
L 1372 2863 
L 1372 2747 
L 1306 2747 
Q 1166 2747 1095 2686 
Q 1025 2625 1025 2534 
Q 1025 2413 1128 2197 
L 1825 753 
L 2466 2334 
Q 2519 2463 2519 2588 
Q 2519 2644 2497 2672 
Q 2472 2706 2419 2726 
Q 2366 2747 2231 2747 
L 2231 2863 
L 3163 2863 
L 3163 2747 
Q 3047 2734 2984 2696 
Q 2922 2659 2847 2556 
Q 2819 2513 2741 2316 
L 1575 -541 
Q 1406 -956 1132 -1168 
Q 859 -1381 606 -1381 
Q 422 -1381 303 -1275 
Q 184 -1169 184 -1031 
Q 184 -900 270 -820 
Q 356 -741 506 -741 
Q 609 -741 788 -809 
Q 913 -856 944 -856 
Q 1038 -856 1148 -759 
Q 1259 -663 1372 -384 
L 1575 113 
L 547 2272 
Q 500 2369 397 2513 
Q 319 2622 269 2659 
Q 197 2709 38 2747 
L 38 2863 
z
" transform="scale(0.015625)"/>
      <path id="TimesNewRomanPSMT-43c" d="M 2050 747 
L 2944 2863 
L 3909 2863 
L 3909 2744 
Q 3697 2744 3626 2701 
Q 3556 2659 3515 2596 
Q 3475 2534 3475 2191 
L 3475 672 
Q 3475 375 3504 289 
Q 3534 203 3626 159 
Q 3719 116 3909 116 
L 3909 0 
L 2525 0 
L 2525 116 
Q 2781 116 2868 211 
Q 2956 306 2956 672 
L 2956 2394 
L 1944 0 
L 1834 0 
L 803 2394 
L 803 672 
Q 803 375 834 289 
Q 866 203 956 159 
Q 1047 116 1238 116 
L 1238 0 
L 144 0 
L 144 116 
Q 422 116 500 217 
Q 578 319 578 672 
L 578 2191 
Q 578 2525 543 2586 
Q 509 2647 437 2695 
Q 366 2744 144 2744 
L 144 2863 
L 1150 2863 
L 2050 747 
z
" transform="scale(0.015625)"/>
      <path id="TimesNewRomanPSMT-438" d="M 1094 881 
L 2331 2313 
Q 2325 2553 2240 2647 
Q 2156 2741 1950 2744 
L 1950 2863 
L 3281 2863 
L 3281 2744 
Q 3072 2744 3000 2701 
Q 2928 2659 2887 2596 
Q 2847 2534 2847 2191 
L 2847 672 
Q 2847 341 2881 277 
Q 2916 213 2989 164 
Q 3063 116 3281 116 
L 3281 0 
L 1897 0 
L 1897 116 
Q 2156 116 2243 211 
Q 2331 306 2331 672 
L 2331 2019 
L 1094 584 
Q 1100 319 1169 219 
Q 1238 119 1466 116 
L 1466 0 
L 144 0 
L 144 116 
Q 422 116 500 217 
Q 578 319 578 672 
L 578 2191 
Q 578 2525 543 2586 
Q 509 2647 437 2695 
Q 366 2744 144 2744 
L 144 2863 
L 1528 2863 
L 1528 2744 
Q 1319 2744 1247 2701 
Q 1175 2659 1134 2596 
Q 1094 2534 1094 2191 
L 1094 881 
z
" transform="scale(0.015625)"/>
      <path id="TimesNewRomanPSMT-44b" d="M 2716 2744 
L 2716 2863 
L 4156 2863 
L 4156 2744 
Q 3966 2744 3878 2703 
Q 3791 2663 3758 2578 
Q 3725 2494 3725 2191 
L 3725 672 
Q 3725 378 3753 292 
Q 3781 206 3873 161 
Q 3966 116 4156 116 
L 4156 0 
L 2716 0 
L 2716 116 
Q 2959 125 3032 148 
Q 3106 172 3156 269 
Q 3206 366 3206 672 
L 3206 2191 
Q 3206 2494 3172 2581 
Q 3138 2669 3052 2705 
Q 2966 2741 2716 2744 
z
M 1091 1588 
L 1447 1594 
Q 2722 1594 2722 806 
Q 2722 441 2411 220 
Q 2100 0 1516 0 
L 141 0 
L 141 116 
Q 419 116 497 217 
Q 575 319 575 672 
L 575 2191 
Q 575 2525 540 2586 
Q 506 2647 434 2695 
Q 363 2744 141 2744 
L 141 2863 
L 1638 2863 
L 1638 2744 
Q 1328 2744 1256 2708 
Q 1184 2672 1137 2614 
Q 1091 2556 1091 2191 
L 1091 1588 
z
M 1091 247 
Q 1256 203 1422 203 
Q 1734 203 1929 368 
Q 2125 534 2125 788 
Q 2125 1388 1291 1388 
Q 1219 1388 1091 1384 
L 1091 247 
z
" transform="scale(0.015625)"/>
     </defs>
     <use xlink:href="#TimesNewRomanPSMT-433"/>
     <use xlink:href="#TimesNewRomanPSMT-443" x="41.015625"/>
     <use xlink:href="#TimesNewRomanPSMT-43c" x="89.640625"/>
     <use xlink:href="#TimesNewRomanPSMT-438" x="152.921875"/>
     <use xlink:href="#TimesNewRomanPSMT-43d" x="206.4375"/>
     <use xlink:href="#TimesNewRomanPSMT-44b" x="259.953125"/>
    </g>
   </g>
  </g>
  <g id="axes_2">
   <g id="patch_8">
    <path d="M 757.204185 560.866875 
L 1263.220558 560.866875 
L 1263.220558 53.446875 
L 757.204185 53.446875 
z
" style="fill: #ffffff"/>
   </g>
   <g id="matplotlib.axis_3">
    <g id="xtick_9">
     <g id="line2d_35">
      <path d="M 758.22144 560.866875 
L 758.22144 53.446875 
" clip-path="url(#p45bc251db4)" style="fill: none; stroke: #000000; stroke-width: 0.7; stroke-linecap: square"/>
     </g>
     <g id="line2d_36">
      <g>
       <use xlink:href="#md30ee708c0" x="758.22144" y="560.866875" style="stroke: #000000; stroke-width: 2"/>
      </g>
     </g>
     <g id="text_21">
      <!-- 5 -->
      <g transform="translate(748.22144 592.141875) scale(0.4 -0.4)">
       <use xlink:href="#TimesNewRomanPSMT-35"/>
      </g>
     </g>
    </g>
    <g id="xtick_10">
     <g id="line2d_37">
      <path d="M 821.028681 560.866875 
L 821.028681 53.446875 
" clip-path="url(#p45bc251db4)" style="fill: none; stroke: #000000; stroke-width: 0.7; stroke-linecap: square"/>
     </g>
     <g id="line2d_38">
      <g>
       <use xlink:href="#md30ee708c0" x="821.028681" y="560.866875" style="stroke: #000000; stroke-width: 2"/>
      </g>
     </g>
     <g id="text_22">
      <!-- 10 -->
      <g transform="translate(801.028681 592.141875) scale(0.4 -0.4)">
       <defs>
        <path id="TimesNewRomanPSMT-31" d="M 750 3822 
L 1781 4325 
L 1884 4325 
L 1884 747 
Q 1884 391 1914 303 
Q 1944 216 2037 169 
Q 2131 122 2419 116 
L 2419 0 
L 825 0 
L 825 116 
Q 1125 122 1212 167 
Q 1300 213 1334 289 
Q 1369 366 1369 747 
L 1369 3034 
Q 1369 3497 1338 3628 
Q 1316 3728 1258 3775 
Q 1200 3822 1119 3822 
Q 1003 3822 797 3725 
L 750 3822 
z
" transform="scale(0.015625)"/>
       </defs>
       <use xlink:href="#TimesNewRomanPSMT-31"/>
       <use xlink:href="#TimesNewRomanPSMT-30" x="50"/>
      </g>
     </g>
    </g>
    <g id="xtick_11">
     <g id="line2d_39">
      <path d="M 883.835923 560.866875 
L 883.835923 53.446875 
" clip-path="url(#p45bc251db4)" style="fill: none; stroke: #000000; stroke-width: 0.7; stroke-linecap: square"/>
     </g>
     <g id="line2d_40">
      <g>
       <use xlink:href="#md30ee708c0" x="883.835923" y="560.866875" style="stroke: #000000; stroke-width: 2"/>
      </g>
     </g>
     <g id="text_23">
      <!-- 15 -->
      <g transform="translate(863.835923 592.141875) scale(0.4 -0.4)">
       <use xlink:href="#TimesNewRomanPSMT-31"/>
       <use xlink:href="#TimesNewRomanPSMT-35" x="50"/>
      </g>
     </g>
    </g>
    <g id="xtick_12">
     <g id="line2d_41">
      <path d="M 946.643165 560.866875 
L 946.643165 53.446875 
" clip-path="url(#p45bc251db4)" style="fill: none; stroke: #000000; stroke-width: 0.7; stroke-linecap: square"/>
     </g>
     <g id="line2d_42">
      <g>
       <use xlink:href="#md30ee708c0" x="946.643165" y="560.866875" style="stroke: #000000; stroke-width: 2"/>
      </g>
     </g>
     <g id="text_24">
      <!-- 20 -->
      <g transform="translate(926.643165 592.141875) scale(0.4 -0.4)">
       <use xlink:href="#TimesNewRomanPSMT-32"/>
       <use xlink:href="#TimesNewRomanPSMT-30" x="50"/>
      </g>
     </g>
    </g>
    <g id="xtick_13">
     <g id="line2d_43">
      <path d="M 1009.450406 560.866875 
L 1009.450406 53.446875 
" clip-path="url(#p45bc251db4)" style="fill: none; stroke: #000000; stroke-width: 0.7; stroke-linecap: square"/>
     </g>
     <g id="line2d_44">
      <g>
       <use xlink:href="#md30ee708c0" x="1009.450406" y="560.866875" style="stroke: #000000; stroke-width: 2"/>
      </g>
     </g>
     <g id="text_25">
      <!-- 25 -->
      <g transform="translate(989.450406 592.141875) scale(0.4 -0.4)">
       <use xlink:href="#TimesNewRomanPSMT-32"/>
       <use xlink:href="#TimesNewRomanPSMT-35" x="50"/>
      </g>
     </g>
    </g>
    <g id="xtick_14">
     <g id="line2d_45">
      <path d="M 1072.257648 560.866875 
L 1072.257648 53.446875 
" clip-path="url(#p45bc251db4)" style="fill: none; stroke: #000000; stroke-width: 0.7; stroke-linecap: square"/>
     </g>
     <g id="line2d_46">
      <g>
       <use xlink:href="#md30ee708c0" x="1072.257648" y="560.866875" style="stroke: #000000; stroke-width: 2"/>
      </g>
     </g>
     <g id="text_26">
      <!-- 30 -->
      <g transform="translate(1052.257648 592.141875) scale(0.4 -0.4)">
       <use xlink:href="#TimesNewRomanPSMT-33"/>
       <use xlink:href="#TimesNewRomanPSMT-30" x="50"/>
      </g>
     </g>
    </g>
    <g id="xtick_15">
     <g id="line2d_47">
      <path d="M 1135.064889 560.866875 
L 1135.064889 53.446875 
" clip-path="url(#p45bc251db4)" style="fill: none; stroke: #000000; stroke-width: 0.7; stroke-linecap: square"/>
     </g>
     <g id="line2d_48">
      <g>
       <use xlink:href="#md30ee708c0" x="1135.064889" y="560.866875" style="stroke: #000000; stroke-width: 2"/>
      </g>
     </g>
     <g id="text_27">
      <!-- 35 -->
      <g transform="translate(1115.064889 592.141875) scale(0.4 -0.4)">
       <use xlink:href="#TimesNewRomanPSMT-33"/>
       <use xlink:href="#TimesNewRomanPSMT-35" x="50"/>
      </g>
     </g>
    </g>
    <g id="xtick_16">
     <g id="line2d_49">
      <path d="M 1197.872131 560.866875 
L 1197.872131 53.446875 
" clip-path="url(#p45bc251db4)" style="fill: none; stroke: #000000; stroke-width: 0.7; stroke-linecap: square"/>
     </g>
     <g id="line2d_50">
      <g>
       <use xlink:href="#md30ee708c0" x="1197.872131" y="560.866875" style="stroke: #000000; stroke-width: 2"/>
      </g>
     </g>
     <g id="text_28">
      <!-- 40 -->
      <g transform="translate(1177.872131 592.141875) scale(0.4 -0.4)">
       <use xlink:href="#TimesNewRomanPSMT-34"/>
       <use xlink:href="#TimesNewRomanPSMT-30" x="50"/>
      </g>
     </g>
    </g>
    <g id="xtick_17">
     <g id="line2d_51">
      <path d="M 1260.679372 560.866875 
L 1260.679372 53.446875 
" clip-path="url(#p45bc251db4)" style="fill: none; stroke: #000000; stroke-width: 0.7; stroke-linecap: square"/>
     </g>
     <g id="line2d_52">
      <g>
       <use xlink:href="#md30ee708c0" x="1260.679372" y="560.866875" style="stroke: #000000; stroke-width: 2"/>
      </g>
     </g>
     <g id="text_29">
      <!-- 45 -->
      <g transform="translate(1240.679372 592.141875) scale(0.4 -0.4)">
       <use xlink:href="#TimesNewRomanPSMT-34"/>
       <use xlink:href="#TimesNewRomanPSMT-35" x="50"/>
      </g>
     </g>
    </g>
    <g id="text_30">
     <!-- Введено -->
     <g transform="translate(935.642684 644.861875) scale(0.42 -0.42)">
      <use xlink:href="#TimesNewRomanPSMT-412"/>
      <use xlink:href="#TimesNewRomanPSMT-432" x="66.699219"/>
      <use xlink:href="#TimesNewRomanPSMT-435" x="113.291016"/>
      <use xlink:href="#TimesNewRomanPSMT-434" x="156.300781"/>
      <use xlink:href="#TimesNewRomanPSMT-435" x="207.179688"/>
      <use xlink:href="#TimesNewRomanPSMT-43d" x="251.564453"/>
      <use xlink:href="#TimesNewRomanPSMT-43e" x="305.080078"/>
     </g>
    </g>
   </g>
   <g id="matplotlib.axis_4">
    <g id="ytick_9">
     <g id="line2d_53">
      <path d="M 757.204185 558.559653 
L 1263.220558 558.559653 
" clip-path="url(#p45bc251db4)" style="fill: none; stroke: #000000; stroke-width: 0.7; stroke-linecap: square"/>
     </g>
     <g id="line2d_54">
      <g>
       <use xlink:href="#m09ed8bd343" x="757.204185" y="558.559653" style="stroke: #000000; stroke-width: 2"/>
      </g>
     </g>
     <g id="text_31">
      <!-- 5 -->
      <g transform="translate(733.704185 572.447153) scale(0.4 -0.4)">
       <use xlink:href="#TimesNewRomanPSMT-35"/>
      </g>
     </g>
    </g>
    <g id="ytick_10">
     <g id="line2d_55">
      <path d="M 757.204185 499.255592 
L 1263.220558 499.255592 
" clip-path="url(#p45bc251db4)" style="fill: none; stroke: #000000; stroke-width: 0.7; stroke-linecap: square"/>
     </g>
     <g id="line2d_56">
      <g>
       <use xlink:href="#m09ed8bd343" x="757.204185" y="499.255592" style="stroke: #000000; stroke-width: 2"/>
      </g>
     </g>
     <g id="text_32">
      <!-- 10 -->
      <g transform="translate(713.704185 513.143092) scale(0.4 -0.4)">
       <use xlink:href="#TimesNewRomanPSMT-31"/>
       <use xlink:href="#TimesNewRomanPSMT-30" x="50"/>
      </g>
     </g>
    </g>
    <g id="ytick_11">
     <g id="line2d_57">
      <path d="M 757.204185 439.951531 
L 1263.220558 439.951531 
" clip-path="url(#p45bc251db4)" style="fill: none; stroke: #000000; stroke-width: 0.7; stroke-linecap: square"/>
     </g>
     <g id="line2d_58">
      <g>
       <use xlink:href="#m09ed8bd343" x="757.204185" y="439.951531" style="stroke: #000000; stroke-width: 2"/>
      </g>
     </g>
     <g id="text_33">
      <!-- 15 -->
      <g transform="translate(713.704185 453.839031) scale(0.4 -0.4)">
       <use xlink:href="#TimesNewRomanPSMT-31"/>
       <use xlink:href="#TimesNewRomanPSMT-35" x="50"/>
      </g>
     </g>
    </g>
    <g id="ytick_12">
     <g id="line2d_59">
      <path d="M 757.204185 380.64747 
L 1263.220558 380.64747 
" clip-path="url(#p45bc251db4)" style="fill: none; stroke: #000000; stroke-width: 0.7; stroke-linecap: square"/>
     </g>
     <g id="line2d_60">
      <g>
       <use xlink:href="#m09ed8bd343" x="757.204185" y="380.64747" style="stroke: #000000; stroke-width: 2"/>
      </g>
     </g>
     <g id="text_34">
      <!-- 20 -->
      <g transform="translate(713.704185 394.53497) scale(0.4 -0.4)">
       <use xlink:href="#TimesNewRomanPSMT-32"/>
       <use xlink:href="#TimesNewRomanPSMT-30" x="50"/>
      </g>
     </g>
    </g>
    <g id="ytick_13">
     <g id="line2d_61">
      <path d="M 757.204185 321.343409 
L 1263.220558 321.343409 
" clip-path="url(#p45bc251db4)" style="fill: none; stroke: #000000; stroke-width: 0.7; stroke-linecap: square"/>
     </g>
     <g id="line2d_62">
      <g>
       <use xlink:href="#m09ed8bd343" x="757.204185" y="321.343409" style="stroke: #000000; stroke-width: 2"/>
      </g>
     </g>
     <g id="text_35">
      <!-- 25 -->
      <g transform="translate(713.704185 335.230909) scale(0.4 -0.4)">
       <use xlink:href="#TimesNewRomanPSMT-32"/>
       <use xlink:href="#TimesNewRomanPSMT-35" x="50"/>
      </g>
     </g>
    </g>
    <g id="ytick_14">
     <g id="line2d_63">
      <path d="M 757.204185 262.039348 
L 1263.220558 262.039348 
" clip-path="url(#p45bc251db4)" style="fill: none; stroke: #000000; stroke-width: 0.7; stroke-linecap: square"/>
     </g>
     <g id="line2d_64">
      <g>
       <use xlink:href="#m09ed8bd343" x="757.204185" y="262.039348" style="stroke: #000000; stroke-width: 2"/>
      </g>
     </g>
     <g id="text_36">
      <!-- 30 -->
      <g transform="translate(713.704185 275.926848) scale(0.4 -0.4)">
       <use xlink:href="#TimesNewRomanPSMT-33"/>
       <use xlink:href="#TimesNewRomanPSMT-30" x="50"/>
      </g>
     </g>
    </g>
    <g id="ytick_15">
     <g id="line2d_65">
      <path d="M 757.204185 202.735287 
L 1263.220558 202.735287 
" clip-path="url(#p45bc251db4)" style="fill: none; stroke: #000000; stroke-width: 0.7; stroke-linecap: square"/>
     </g>
     <g id="line2d_66">
      <g>
       <use xlink:href="#m09ed8bd343" x="757.204185" y="202.735287" style="stroke: #000000; stroke-width: 2"/>
      </g>
     </g>
     <g id="text_37">
      <!-- 35 -->
      <g transform="translate(713.704185 216.622787) scale(0.4 -0.4)">
       <use xlink:href="#TimesNewRomanPSMT-33"/>
       <use xlink:href="#TimesNewRomanPSMT-35" x="50"/>
      </g>
     </g>
    </g>
    <g id="ytick_16">
     <g id="line2d_67">
      <path d="M 757.204185 143.431226 
L 1263.220558 143.431226 
" clip-path="url(#p45bc251db4)" style="fill: none; stroke: #000000; stroke-width: 0.7; stroke-linecap: square"/>
     </g>
     <g id="line2d_68">
      <g>
       <use xlink:href="#m09ed8bd343" x="757.204185" y="143.431226" style="stroke: #000000; stroke-width: 2"/>
      </g>
     </g>
     <g id="text_38">
      <!-- 40 -->
      <g transform="translate(713.704185 157.318726) scale(0.4 -0.4)">
       <use xlink:href="#TimesNewRomanPSMT-34"/>
       <use xlink:href="#TimesNewRomanPSMT-30" x="50"/>
      </g>
     </g>
    </g>
    <g id="ytick_17">
     <g id="line2d_69">
      <path d="M 757.204185 84.127165 
L 1263.220558 84.127165 
" clip-path="url(#p45bc251db4)" style="fill: none; stroke: #000000; stroke-width: 0.7; stroke-linecap: square"/>
     </g>
     <g id="line2d_70">
      <g>
       <use xlink:href="#m09ed8bd343" x="757.204185" y="84.127165" style="stroke: #000000; stroke-width: 2"/>
      </g>
     </g>
     <g id="text_39">
      <!-- 45 -->
      <g transform="translate(713.704185 98.014665) scale(0.4 -0.4)">
       <use xlink:href="#TimesNewRomanPSMT-34"/>
       <use xlink:href="#TimesNewRomanPSMT-35" x="50"/>
      </g>
     </g>
    </g>
    <g id="text_40">
     <!-- Найдено -->
     <g transform="translate(689.720123 384.627188) rotate(-90) scale(0.42 -0.42)">
      <use xlink:href="#TimesNewRomanPSMT-41d"/>
      <use xlink:href="#TimesNewRomanPSMT-430" x="72.216797"/>
      <use xlink:href="#TimesNewRomanPSMT-439" x="116.601562"/>
      <use xlink:href="#TimesNewRomanPSMT-434" x="170.117188"/>
      <use xlink:href="#TimesNewRomanPSMT-435" x="220.996094"/>
      <use xlink:href="#TimesNewRomanPSMT-43d" x="265.380859"/>
      <use xlink:href="#TimesNewRomanPSMT-43e" x="318.896484"/>
     </g>
    </g>
   </g>
   <g id="line2d_71">
    <path d="M 1162.529834 176.802246 
L 886.254436 437.667914 
L 1136.864412 201.036135 
L 1211.414398 130.644301 
L 996.612826 333.464951 
L 917.901549 407.785973 
L 956.788146 371.068342 
L 1192.730282 148.286279 
L 842.676175 478.815524 
L 1078.048962 256.571054 
L 1115.655245 221.062325 
L 1013.340282 317.670497 
L 800.774953 518.379634 
L 1230.687982 112.445735 
L 1019.212986 312.125353 
L 863.27457 459.36604 
L 967.334792 361.109953 
L 1140.947123 197.181144 
L 927.236909 398.971308 
L 1190.639951 150.260018 
L 878.630531 444.866583 
L 1091.39967 243.965004 
L 1177.283217 162.871758 
L 1067.154782 266.857592 
L 904.053867 420.861277 
L 818.385615 501.751237 
L 780.204929 537.80233 
L 1104.211002 231.868246 
L 943.581358 383.538499 
L 1240.219814 103.445557 
L 810.615559 509.087905 
L 978.781193 350.301995 
L 1032.497816 299.581507 
L 1056.53871 276.881535 
L 833.579612 487.404711 
" clip-path="url(#p45bc251db4)" style="fill: none; stroke: #0000ff; stroke-width: 3; stroke-linecap: square"/>
   </g>
   <g id="line2d_72">
    <g clip-path="url(#p45bc251db4)">
     <use xlink:href="#m5313e555c2" x="1162.529834" y="258.192996" style="fill: #ff0000; stroke: #ff0000"/>
     <use xlink:href="#m5313e555c2" x="886.254436" y="455.072955" style="fill: #ff0000; stroke: #ff0000"/>
     <use xlink:href="#m5313e555c2" x="1136.864412" y="226.392548" style="fill: #ff0000; stroke: #ff0000"/>
     <use xlink:href="#m5313e555c2" x="1211.414398" y="143.641335" style="fill: #ff0000; stroke: #ff0000"/>
     <use xlink:href="#m5313e555c2" x="996.612826" y="325.436666" style="fill: #ff0000; stroke: #ff0000"/>
     <use xlink:href="#m5313e555c2" x="917.901549" y="416.39925" style="fill: #ff0000; stroke: #ff0000"/>
     <use xlink:href="#m5313e555c2" x="956.788146" y="374.994502" style="fill: #ff0000; stroke: #ff0000"/>
     <use xlink:href="#m5313e555c2" x="1192.730282" y="144.559162" style="fill: #ff0000; stroke: #ff0000"/>
     <use xlink:href="#m5313e555c2" x="842.676175" y="457.751651" style="fill: #ff0000; stroke: #ff0000"/>
     <use xlink:href="#m5313e555c2" x="1078.048962" y="372.786469" style="fill: #ff0000; stroke: #ff0000"/>
     <use xlink:href="#m5313e555c2" x="1115.655245" y="187.347546" style="fill: #ff0000; stroke: #ff0000"/>
     <use xlink:href="#m5313e555c2" x="1013.340282" y="255.31562" style="fill: #ff0000; stroke: #ff0000"/>
     <use xlink:href="#m5313e555c2" x="800.774953" y="475.393854" style="fill: #ff0000; stroke: #ff0000"/>
     <use xlink:href="#m5313e555c2" x="1230.687982" y="76.51142" style="fill: #ff0000; stroke: #ff0000"/>
     <use xlink:href="#m5313e555c2" x="1019.212986" y="372.872902" style="fill: #ff0000; stroke: #ff0000"/>
     <use xlink:href="#m5313e555c2" x="863.27457" y="370.707207" style="fill: #ff0000; stroke: #ff0000"/>
     <use xlink:href="#m5313e555c2" x="967.334792" y="324.993863" style="fill: #ff0000; stroke: #ff0000"/>
     <use xlink:href="#m5313e555c2" x="1140.947123" y="180.728725" style="fill: #ff0000; stroke: #ff0000"/>
     <use xlink:href="#m5313e555c2" x="927.236909" y="277.491965" style="fill: #ff0000; stroke: #ff0000"/>
     <use xlink:href="#m5313e555c2" x="1190.639951" y="204.707623" style="fill: #ff0000; stroke: #ff0000"/>
     <use xlink:href="#m5313e555c2" x="878.630531" y="391.846401" style="fill: #ff0000; stroke: #ff0000"/>
     <use xlink:href="#m5313e555c2" x="1091.39967" y="256.080548" style="fill: #ff0000; stroke: #ff0000"/>
     <use xlink:href="#m5313e555c2" x="1177.283217" y="166.045887" style="fill: #ff0000; stroke: #ff0000"/>
     <use xlink:href="#m5313e555c2" x="1067.154782" y="244.703929" style="fill: #ff0000; stroke: #ff0000"/>
     <use xlink:href="#m5313e555c2" x="904.053867" y="360.87672" style="fill: #ff0000; stroke: #ff0000"/>
     <use xlink:href="#m5313e555c2" x="818.385615" y="473.968489" style="fill: #ff0000; stroke: #ff0000"/>
     <use xlink:href="#m5313e555c2" x="780.204929" y="435.026364" style="fill: #ff0000; stroke: #ff0000"/>
     <use xlink:href="#m5313e555c2" x="1104.211002" y="186.882911" style="fill: #ff0000; stroke: #ff0000"/>
     <use xlink:href="#m5313e555c2" x="943.581358" y="401.245351" style="fill: #ff0000; stroke: #ff0000"/>
     <use xlink:href="#m5313e555c2" x="1240.219814" y="156.787866" style="fill: #ff0000; stroke: #ff0000"/>
     <use xlink:href="#m5313e555c2" x="810.615559" y="505.3606" style="fill: #ff0000; stroke: #ff0000"/>
     <use xlink:href="#m5313e555c2" x="978.781193" y="404.814203" style="fill: #ff0000; stroke: #ff0000"/>
     <use xlink:href="#m5313e555c2" x="1032.497816" y="348.130043" style="fill: #ff0000; stroke: #ff0000"/>
     <use xlink:href="#m5313e555c2" x="1056.53871" y="419.457787" style="fill: #ff0000; stroke: #ff0000"/>
     <use xlink:href="#m5313e555c2" x="833.579612" y="517.123994" style="fill: #ff0000; stroke: #ff0000"/>
    </g>
   </g>
   <g id="patch_9">
    <path d="M 757.204185 560.866875 
L 757.204185 53.446875 
" style="fill: none; stroke: #000000; stroke-width: 0.8; stroke-linejoin: miter; stroke-linecap: square"/>
   </g>
   <g id="patch_10">
    <path d="M 1263.220558 560.866875 
L 1263.220558 53.446875 
" style="fill: none; stroke: #000000; stroke-width: 0.8; stroke-linejoin: miter; stroke-linecap: square"/>
   </g>
   <g id="patch_11">
    <path d="M 757.204185 560.866875 
L 1263.220558 560.866875 
" style="fill: none; stroke: #000000; stroke-width: 0.8; stroke-linejoin: miter; stroke-linecap: square"/>
   </g>
   <g id="patch_12">
    <path d="M 757.204185 53.446875 
L 1263.220558 53.446875 
" style="fill: none; stroke: #000000; stroke-width: 0.8; stroke-linejoin: miter; stroke-linecap: square"/>
   </g>
   <g id="text_41">
    <g id="patch_13">
     <path d="M 788.684002 191.314264 
L 1016.744002 191.314264 
Q 1029.344002 191.314264 1029.344002 178.714264 
L 1029.344002 116.974264 
Q 1029.344002 104.374264 1016.744002 104.374264 
L 788.684002 104.374264 
Q 776.084002 104.374264 776.084002 116.974264 
L 776.084002 178.714264 
Q 776.084002 191.314264 788.684002 191.314264 
z
" style="fill: #ffffff; stroke: #000000; stroke-linejoin: miter"/>
    </g>
    <!-- $\frac {RMSE}{ДК}$=0.1297 -->
    <g transform="translate(788.684002 157.714264) scale(0.42 -0.42)">
     <defs>
      <path id="TimesNewRomanPS-BoldMT-32" d="M 2650 0 
L 156 0 
L 156 69 
Q 1303 1434 1548 1906 
Q 1794 2378 1794 2828 
Q 1794 3156 1591 3373 
Q 1388 3591 1094 3591 
Q 613 3591 347 3109 
L 231 3150 
Q 400 3750 744 4037 
Q 1088 4325 1538 4325 
Q 1859 4325 2125 4175 
Q 2391 4025 2541 3764 
Q 2691 3503 2691 3275 
Q 2691 2859 2459 2431 
Q 2144 1853 1081 819 
L 1997 819 
Q 2334 819 2436 847 
Q 2538 875 2603 942 
Q 2669 1009 2775 1225 
L 2888 1225 
L 2650 0 
z
" transform="scale(0.015625)"/>
      <path id="TimesNewRomanPS-BoldMT-39" d="M 197 -88 
L 197 0 
Q 716 119 1077 350 
Q 1438 581 1648 922 
Q 1859 1263 1944 1706 
Q 1750 1606 1614 1567 
Q 1478 1528 1328 1528 
Q 847 1528 526 1875 
Q 206 2222 206 2825 
Q 206 3244 379 3592 
Q 553 3941 875 4133 
Q 1197 4325 1544 4325 
Q 1916 4325 2247 4112 
Q 2578 3900 2775 3497 
Q 2972 3094 2972 2578 
Q 2972 1909 2651 1296 
Q 2331 684 1697 314 
Q 1063 -56 197 -88 
z
M 1991 1969 
Q 2022 2319 2022 2584 
Q 2022 3153 1891 3644 
Q 1816 3916 1669 4044 
Q 1591 4113 1466 4113 
Q 1309 4113 1222 3978 
Q 1100 3794 1100 3275 
Q 1100 2409 1306 2081 
Q 1441 1869 1669 1869 
Q 1791 1869 1991 1969 
z
" transform="scale(0.015625)"/>
      <path id="TimesNewRomanPS-BoldMT-37" d="M 1134 -88 
L 2288 3409 
L 1409 3409 
Q 894 3409 634 3275 
Q 453 3181 334 2922 
L 216 2922 
L 522 4238 
L 3047 4238 
L 1625 -88 
L 1134 -88 
z
" transform="scale(0.015625)"/>
     </defs>
     <use xlink:href="#DejaVuSans-Oblique-52" transform="translate(0 45.046875) scale(0.7)"/>
     <use xlink:href="#DejaVuSans-Oblique-4d" transform="translate(48.637695 45.046875) scale(0.7)"/>
     <use xlink:href="#DejaVuSans-Oblique-53" transform="translate(109.033203 45.046875) scale(0.7)"/>
     <use xlink:href="#DejaVuSans-Oblique-45" transform="translate(153.466797 45.046875) scale(0.7)"/>
     <use xlink:href="#DejaVuSans-Oblique-414" transform="translate(47 -38.232812) scale(0.7)"/>
     <use xlink:href="#DejaVuSans-Oblique-41a" transform="translate(101.6875 -38.232812) scale(0.7)"/>
     <use xlink:href="#TimesNewRomanPS-BoldMT-3d" transform="translate(210.195312 0.254688)"/>
     <use xlink:href="#TimesNewRomanPS-BoldMT-30" transform="translate(267.177734 0.254688)"/>
     <use xlink:href="#TimesNewRomanPS-BoldMT-2e" transform="translate(317.177734 0.254688)"/>
     <use xlink:href="#TimesNewRomanPS-BoldMT-31" transform="translate(342.177734 0.254688)"/>
     <use xlink:href="#TimesNewRomanPS-BoldMT-32" transform="translate(392.177734 0.254688)"/>
     <use xlink:href="#TimesNewRomanPS-BoldMT-39" transform="translate(442.177734 0.254688)"/>
     <use xlink:href="#TimesNewRomanPS-BoldMT-37" transform="translate(492.177734 0.254688)"/>
     <path d="M 0 19.051563 
L 0 25.301563 
L 197.695312 25.301563 
L 197.695312 19.051563 
L 0 19.051563 
z
"/>
    </g>
   </g>
   <g id="text_42">
    <!-- тирозин -->
    <g transform="translate(932.868621 38.446875) scale(0.45 -0.45)">
     <defs>
      <path id="TimesNewRomanPSMT-442" d="M 156 2863 
L 2631 2863 
L 2756 2088 
L 2616 2088 
Q 2578 2322 2490 2450 
Q 2403 2578 2290 2618 
Q 2178 2659 1906 2659 
L 1656 2659 
L 1656 672 
Q 1656 353 1695 267 
Q 1734 181 1821 153 
Q 1909 125 2222 116 
L 2222 0 
L 666 0 
L 666 116 
Q 966 122 1052 212 
Q 1138 303 1138 672 
L 1138 2659 
L 881 2659 
Q 613 2659 516 2626 
Q 419 2594 330 2470 
Q 241 2347 178 2088 
L 38 2088 
L 156 2863 
z
" transform="scale(0.015625)"/>
      <path id="TimesNewRomanPSMT-440" d="M -6 2578 
L 875 2934 
L 994 2934 
L 994 2266 
Q 1216 2644 1439 2795 
Q 1663 2947 1909 2947 
Q 2341 2947 2628 2609 
Q 2981 2197 2981 1534 
Q 2981 794 2556 309 
Q 2206 -88 1675 -88 
Q 1444 -88 1275 -22 
Q 1150 25 994 166 
L 994 -706 
Q 994 -1000 1030 -1079 
Q 1066 -1159 1155 -1206 
Q 1244 -1253 1478 -1253 
L 1478 -1369 
L -22 -1369 
L -22 -1253 
L 56 -1253 
Q 228 -1256 350 -1188 
Q 409 -1153 442 -1076 
Q 475 -1000 475 -688 
L 475 2019 
Q 475 2297 450 2372 
Q 425 2447 370 2484 
Q 316 2522 222 2522 
Q 147 2522 31 2478 
L -6 2578 
z
M 994 2081 
L 994 1013 
Q 994 666 1022 556 
Q 1066 375 1236 237 
Q 1406 100 1666 100 
Q 1978 100 2172 344 
Q 2425 663 2425 1241 
Q 2425 1897 2138 2250 
Q 1938 2494 1663 2494 
Q 1513 2494 1366 2419 
Q 1253 2363 994 2081 
z
" transform="scale(0.015625)"/>
      <path id="TimesNewRomanPSMT-437" d="M 263 1966 
L 263 2863 
L 394 2863 
Q 450 2813 519 2813 
Q 572 2813 750 2863 
Q 1047 2947 1234 2947 
Q 1647 2947 1923 2756 
Q 2200 2566 2200 2250 
Q 2200 1766 1466 1547 
Q 2322 1369 2322 744 
Q 2322 416 2047 164 
Q 1772 -88 1247 -88 
Q 903 -88 642 35 
Q 381 159 75 453 
L 156 534 
Q 669 138 1128 138 
Q 1391 138 1559 316 
Q 1728 494 1728 778 
Q 1728 1400 925 1438 
L 925 1619 
Q 1303 1619 1473 1820 
Q 1644 2022 1644 2253 
Q 1644 2456 1498 2609 
Q 1353 2763 1113 2763 
Q 556 2763 375 1966 
L 263 1966 
z
" transform="scale(0.015625)"/>
     </defs>
     <use xlink:href="#TimesNewRomanPSMT-442"/>
     <use xlink:href="#TimesNewRomanPSMT-438" x="43.701172"/>
     <use xlink:href="#TimesNewRomanPSMT-440" x="97.216797"/>
     <use xlink:href="#TimesNewRomanPSMT-43e" x="147.216797"/>
     <use xlink:href="#TimesNewRomanPSMT-437" x="197.216797"/>
     <use xlink:href="#TimesNewRomanPSMT-438" x="236.71875"/>
     <use xlink:href="#TimesNewRomanPSMT-43d" x="290.234375"/>
    </g>
   </g>
  </g>
  <g id="axes_3">
   <g id="patch_14">
    <path d="M 103.847813 1259.066875 
L 609.864185 1259.066875 
L 609.864185 751.646875 
L 103.847813 751.646875 
z
" style="fill: #ffffff"/>
   </g>
   <g id="matplotlib.axis_5">
    <g id="xtick_18">
     <g id="line2d_73">
      <path d="M 164.957412 1259.066875 
L 164.957412 751.646875 
" clip-path="url(#p823ec0c605)" style="fill: none; stroke: #000000; stroke-width: 0.7; stroke-linecap: square"/>
     </g>
     <g id="line2d_74">
      <g>
       <use xlink:href="#md30ee708c0" x="164.957412" y="1259.066875" style="stroke: #000000; stroke-width: 2"/>
      </g>
     </g>
     <g id="text_43">
      <!-- 10 -->
      <g transform="translate(144.957412 1290.341875) scale(0.4 -0.4)">
       <use xlink:href="#TimesNewRomanPSMT-31"/>
       <use xlink:href="#TimesNewRomanPSMT-30" x="50"/>
      </g>
     </g>
    </g>
    <g id="xtick_19">
     <g id="line2d_75">
      <path d="M 228.619372 1259.066875 
L 228.619372 751.646875 
" clip-path="url(#p823ec0c605)" style="fill: none; stroke: #000000; stroke-width: 0.7; stroke-linecap: square"/>
     </g>
     <g id="line2d_76">
      <g>
       <use xlink:href="#md30ee708c0" x="228.619372" y="1259.066875" style="stroke: #000000; stroke-width: 2"/>
      </g>
     </g>
     <g id="text_44">
      <!-- 15 -->
      <g transform="translate(208.619372 1290.341875) scale(0.4 -0.4)">
       <use xlink:href="#TimesNewRomanPSMT-31"/>
       <use xlink:href="#TimesNewRomanPSMT-35" x="50"/>
      </g>
     </g>
    </g>
    <g id="xtick_20">
     <g id="line2d_77">
      <path d="M 292.281332 1259.066875 
L 292.281332 751.646875 
" clip-path="url(#p823ec0c605)" style="fill: none; stroke: #000000; stroke-width: 0.7; stroke-linecap: square"/>
     </g>
     <g id="line2d_78">
      <g>
       <use xlink:href="#md30ee708c0" x="292.281332" y="1259.066875" style="stroke: #000000; stroke-width: 2"/>
      </g>
     </g>
     <g id="text_45">
      <!-- 20 -->
      <g transform="translate(272.281332 1290.341875) scale(0.4 -0.4)">
       <use xlink:href="#TimesNewRomanPSMT-32"/>
       <use xlink:href="#TimesNewRomanPSMT-30" x="50"/>
      </g>
     </g>
    </g>
    <g id="xtick_21">
     <g id="line2d_79">
      <path d="M 355.943292 1259.066875 
L 355.943292 751.646875 
" clip-path="url(#p823ec0c605)" style="fill: none; stroke: #000000; stroke-width: 0.7; stroke-linecap: square"/>
     </g>
     <g id="line2d_80">
      <g>
       <use xlink:href="#md30ee708c0" x="355.943292" y="1259.066875" style="stroke: #000000; stroke-width: 2"/>
      </g>
     </g>
     <g id="text_46">
      <!-- 25 -->
      <g transform="translate(335.943292 1290.341875) scale(0.4 -0.4)">
       <use xlink:href="#TimesNewRomanPSMT-32"/>
       <use xlink:href="#TimesNewRomanPSMT-35" x="50"/>
      </g>
     </g>
    </g>
    <g id="xtick_22">
     <g id="line2d_81">
      <path d="M 419.605252 1259.066875 
L 419.605252 751.646875 
" clip-path="url(#p823ec0c605)" style="fill: none; stroke: #000000; stroke-width: 0.7; stroke-linecap: square"/>
     </g>
     <g id="line2d_82">
      <g>
       <use xlink:href="#md30ee708c0" x="419.605252" y="1259.066875" style="stroke: #000000; stroke-width: 2"/>
      </g>
     </g>
     <g id="text_47">
      <!-- 30 -->
      <g transform="translate(399.605252 1290.341875) scale(0.4 -0.4)">
       <use xlink:href="#TimesNewRomanPSMT-33"/>
       <use xlink:href="#TimesNewRomanPSMT-30" x="50"/>
      </g>
     </g>
    </g>
    <g id="xtick_23">
     <g id="line2d_83">
      <path d="M 483.267212 1259.066875 
L 483.267212 751.646875 
" clip-path="url(#p823ec0c605)" style="fill: none; stroke: #000000; stroke-width: 0.7; stroke-linecap: square"/>
     </g>
     <g id="line2d_84">
      <g>
       <use xlink:href="#md30ee708c0" x="483.267212" y="1259.066875" style="stroke: #000000; stroke-width: 2"/>
      </g>
     </g>
     <g id="text_48">
      <!-- 35 -->
      <g transform="translate(463.267212 1290.341875) scale(0.4 -0.4)">
       <use xlink:href="#TimesNewRomanPSMT-33"/>
       <use xlink:href="#TimesNewRomanPSMT-35" x="50"/>
      </g>
     </g>
    </g>
    <g id="xtick_24">
     <g id="line2d_85">
      <path d="M 546.929172 1259.066875 
L 546.929172 751.646875 
" clip-path="url(#p823ec0c605)" style="fill: none; stroke: #000000; stroke-width: 0.7; stroke-linecap: square"/>
     </g>
     <g id="line2d_86">
      <g>
       <use xlink:href="#md30ee708c0" x="546.929172" y="1259.066875" style="stroke: #000000; stroke-width: 2"/>
      </g>
     </g>
     <g id="text_49">
      <!-- 40 -->
      <g transform="translate(526.929172 1290.341875) scale(0.4 -0.4)">
       <use xlink:href="#TimesNewRomanPSMT-34"/>
       <use xlink:href="#TimesNewRomanPSMT-30" x="50"/>
      </g>
     </g>
    </g>
    <g id="text_50">
     <!-- Введено -->
     <g transform="translate(282.286311 1343.061875) scale(0.42 -0.42)">
      <use xlink:href="#TimesNewRomanPSMT-412"/>
      <use xlink:href="#TimesNewRomanPSMT-432" x="66.699219"/>
      <use xlink:href="#TimesNewRomanPSMT-435" x="113.291016"/>
      <use xlink:href="#TimesNewRomanPSMT-434" x="156.300781"/>
      <use xlink:href="#TimesNewRomanPSMT-435" x="207.179688"/>
      <use xlink:href="#TimesNewRomanPSMT-43d" x="251.564453"/>
      <use xlink:href="#TimesNewRomanPSMT-43e" x="305.080078"/>
     </g>
    </g>
   </g>
   <g id="matplotlib.axis_6">
    <g id="ytick_18">
     <g id="line2d_87">
      <path d="M 103.847813 1199.171749 
L 609.864185 1199.171749 
" clip-path="url(#p823ec0c605)" style="fill: none; stroke: #000000; stroke-width: 0.7; stroke-linecap: square"/>
     </g>
     <g id="line2d_88">
      <g>
       <use xlink:href="#m09ed8bd343" x="103.847813" y="1199.171749" style="stroke: #000000; stroke-width: 2"/>
      </g>
     </g>
     <g id="text_51">
      <!-- 10 -->
      <g transform="translate(60.347813 1213.059249) scale(0.4 -0.4)">
       <use xlink:href="#TimesNewRomanPSMT-31"/>
       <use xlink:href="#TimesNewRomanPSMT-30" x="50"/>
      </g>
     </g>
    </g>
    <g id="ytick_19">
     <g id="line2d_89">
      <path d="M 103.847813 1137.645184 
L 609.864185 1137.645184 
" clip-path="url(#p823ec0c605)" style="fill: none; stroke: #000000; stroke-width: 0.7; stroke-linecap: square"/>
     </g>
     <g id="line2d_90">
      <g>
       <use xlink:href="#m09ed8bd343" x="103.847813" y="1137.645184" style="stroke: #000000; stroke-width: 2"/>
      </g>
     </g>
     <g id="text_52">
      <!-- 15 -->
      <g transform="translate(60.347813 1151.532684) scale(0.4 -0.4)">
       <use xlink:href="#TimesNewRomanPSMT-31"/>
       <use xlink:href="#TimesNewRomanPSMT-35" x="50"/>
      </g>
     </g>
    </g>
    <g id="ytick_20">
     <g id="line2d_91">
      <path d="M 103.847813 1076.118619 
L 609.864185 1076.118619 
" clip-path="url(#p823ec0c605)" style="fill: none; stroke: #000000; stroke-width: 0.7; stroke-linecap: square"/>
     </g>
     <g id="line2d_92">
      <g>
       <use xlink:href="#m09ed8bd343" x="103.847813" y="1076.118619" style="stroke: #000000; stroke-width: 2"/>
      </g>
     </g>
     <g id="text_53">
      <!-- 20 -->
      <g transform="translate(60.347813 1090.006119) scale(0.4 -0.4)">
       <use xlink:href="#TimesNewRomanPSMT-32"/>
       <use xlink:href="#TimesNewRomanPSMT-30" x="50"/>
      </g>
     </g>
    </g>
    <g id="ytick_21">
     <g id="line2d_93">
      <path d="M 103.847813 1014.592054 
L 609.864185 1014.592054 
" clip-path="url(#p823ec0c605)" style="fill: none; stroke: #000000; stroke-width: 0.7; stroke-linecap: square"/>
     </g>
     <g id="line2d_94">
      <g>
       <use xlink:href="#m09ed8bd343" x="103.847813" y="1014.592054" style="stroke: #000000; stroke-width: 2"/>
      </g>
     </g>
     <g id="text_54">
      <!-- 25 -->
      <g transform="translate(60.347813 1028.479554) scale(0.4 -0.4)">
       <use xlink:href="#TimesNewRomanPSMT-32"/>
       <use xlink:href="#TimesNewRomanPSMT-35" x="50"/>
      </g>
     </g>
    </g>
    <g id="ytick_22">
     <g id="line2d_95">
      <path d="M 103.847813 953.065489 
L 609.864185 953.065489 
" clip-path="url(#p823ec0c605)" style="fill: none; stroke: #000000; stroke-width: 0.7; stroke-linecap: square"/>
     </g>
     <g id="line2d_96">
      <g>
       <use xlink:href="#m09ed8bd343" x="103.847813" y="953.065489" style="stroke: #000000; stroke-width: 2"/>
      </g>
     </g>
     <g id="text_55">
      <!-- 30 -->
      <g transform="translate(60.347813 966.952989) scale(0.4 -0.4)">
       <use xlink:href="#TimesNewRomanPSMT-33"/>
       <use xlink:href="#TimesNewRomanPSMT-30" x="50"/>
      </g>
     </g>
    </g>
    <g id="ytick_23">
     <g id="line2d_97">
      <path d="M 103.847813 891.538924 
L 609.864185 891.538924 
" clip-path="url(#p823ec0c605)" style="fill: none; stroke: #000000; stroke-width: 0.7; stroke-linecap: square"/>
     </g>
     <g id="line2d_98">
      <g>
       <use xlink:href="#m09ed8bd343" x="103.847813" y="891.538924" style="stroke: #000000; stroke-width: 2"/>
      </g>
     </g>
     <g id="text_56">
      <!-- 35 -->
      <g transform="translate(60.347813 905.426424) scale(0.4 -0.4)">
       <use xlink:href="#TimesNewRomanPSMT-33"/>
       <use xlink:href="#TimesNewRomanPSMT-35" x="50"/>
      </g>
     </g>
    </g>
    <g id="ytick_24">
     <g id="line2d_99">
      <path d="M 103.847813 830.012359 
L 609.864185 830.012359 
" clip-path="url(#p823ec0c605)" style="fill: none; stroke: #000000; stroke-width: 0.7; stroke-linecap: square"/>
     </g>
     <g id="line2d_100">
      <g>
       <use xlink:href="#m09ed8bd343" x="103.847813" y="830.012359" style="stroke: #000000; stroke-width: 2"/>
      </g>
     </g>
     <g id="text_57">
      <!-- 40 -->
      <g transform="translate(60.347813 843.899859) scale(0.4 -0.4)">
       <use xlink:href="#TimesNewRomanPSMT-34"/>
       <use xlink:href="#TimesNewRomanPSMT-30" x="50"/>
      </g>
     </g>
    </g>
    <g id="ytick_25">
     <g id="line2d_101">
      <path d="M 103.847813 768.485794 
L 609.864185 768.485794 
" clip-path="url(#p823ec0c605)" style="fill: none; stroke: #000000; stroke-width: 0.7; stroke-linecap: square"/>
     </g>
     <g id="line2d_102">
      <g>
       <use xlink:href="#m09ed8bd343" x="103.847813" y="768.485794" style="stroke: #000000; stroke-width: 2"/>
      </g>
     </g>
     <g id="text_58">
      <!-- 45 -->
      <g transform="translate(60.347813 782.373294) scale(0.4 -0.4)">
       <use xlink:href="#TimesNewRomanPSMT-34"/>
       <use xlink:href="#TimesNewRomanPSMT-35" x="50"/>
      </g>
     </g>
    </g>
    <g id="text_59">
     <!-- Найдено -->
     <g transform="translate(36.36375 1082.827187) rotate(-90) scale(0.42 -0.42)">
      <use xlink:href="#TimesNewRomanPSMT-41d"/>
      <use xlink:href="#TimesNewRomanPSMT-430" x="72.216797"/>
      <use xlink:href="#TimesNewRomanPSMT-439" x="116.601562"/>
      <use xlink:href="#TimesNewRomanPSMT-434" x="170.117188"/>
      <use xlink:href="#TimesNewRomanPSMT-435" x="220.996094"/>
      <use xlink:href="#TimesNewRomanPSMT-43d" x="265.380859"/>
      <use xlink:href="#TimesNewRomanPSMT-43e" x="318.896484"/>
     </g>
    </g>
   </g>
   <g id="line2d_103">
    <path d="M 248.858634 1118.084801 
L 407.998805 964.282624 
L 176.885072 1187.644174 
L 344.914443 1025.250965 
L 396.963002 974.948256 
L 524.859847 851.341418 
L 126.848557 1236.00233 
L 440.438614 932.930935 
L 317.143657 1052.090243 
L 548.396068 828.594666 
L 166.014854 1198.149776 
L 487.54144 887.408065 
L 574.315445 803.544695 
L 566.120196 811.465054 
L 506.061353 869.50936 
L 145.50712 1217.969625 
L 586.863441 791.417593 
L 279.437496 1088.531638 
L 206.535036 1158.988751 
L 290.496775 1077.843317 
L 471.754698 902.665276 
L 483.830624 890.99441 
L 526.747761 849.51683 
L 453.601977 920.209106 
L 132.263443 1230.769073 
L 329.881376 1039.779783 
L 367.828753 1003.105264 
L 192.251662 1172.793022 
L 261.944856 1105.437527 
L 221.732356 1144.30119 
L 229.548758 1136.746972 
L 386.238711 985.312825 
L 297.808264 1070.777075 
L 355.217463 1015.293536 
L 428.947679 944.036432 
" clip-path="url(#p823ec0c605)" style="fill: none; stroke: #0000ff; stroke-width: 3; stroke-linecap: square"/>
   </g>
   <g id="line2d_104">
    <g clip-path="url(#p823ec0c605)">
     <use xlink:href="#m5313e555c2" x="248.858634" y="1084.990848" style="fill: #ff0000; stroke: #ff0000"/>
     <use xlink:href="#m5313e555c2" x="407.998805" y="947.70252" style="fill: #ff0000; stroke: #ff0000"/>
     <use xlink:href="#m5313e555c2" x="176.885072" y="1189.616024" style="fill: #ff0000; stroke: #ff0000"/>
     <use xlink:href="#m5313e555c2" x="344.914443" y="986.369303" style="fill: #ff0000; stroke: #ff0000"/>
     <use xlink:href="#m5313e555c2" x="396.963002" y="945.315476" style="fill: #ff0000; stroke: #ff0000"/>
     <use xlink:href="#m5313e555c2" x="524.859847" y="945.148787" style="fill: #ff0000; stroke: #ff0000"/>
     <use xlink:href="#m5313e555c2" x="126.848557" y="1215.120001" style="fill: #ff0000; stroke: #ff0000"/>
     <use xlink:href="#m5313e555c2" x="440.438614" y="880.667881" style="fill: #ff0000; stroke: #ff0000"/>
     <use xlink:href="#m5313e555c2" x="317.143657" y="1003.587342" style="fill: #ff0000; stroke: #ff0000"/>
     <use xlink:href="#m5313e555c2" x="548.396068" y="913.103837" style="fill: #ff0000; stroke: #ff0000"/>
     <use xlink:href="#m5313e555c2" x="166.014854" y="1200.912152" style="fill: #ff0000; stroke: #ff0000"/>
     <use xlink:href="#m5313e555c2" x="487.54144" y="909.777432" style="fill: #ff0000; stroke: #ff0000"/>
     <use xlink:href="#m5313e555c2" x="574.315445" y="824.009355" style="fill: #ff0000; stroke: #ff0000"/>
     <use xlink:href="#m5313e555c2" x="566.120196" y="805.415141" style="fill: #ff0000; stroke: #ff0000"/>
     <use xlink:href="#m5313e555c2" x="506.061353" y="793.50973" style="fill: #ff0000; stroke: #ff0000"/>
     <use xlink:href="#m5313e555c2" x="145.50712" y="1212.879672" style="fill: #ff0000; stroke: #ff0000"/>
     <use xlink:href="#m5313e555c2" x="586.863441" y="774.71142" style="fill: #ff0000; stroke: #ff0000"/>
     <use xlink:href="#m5313e555c2" x="279.437496" y="1086.742843" style="fill: #ff0000; stroke: #ff0000"/>
     <use xlink:href="#m5313e555c2" x="206.535036" y="1127.361303" style="fill: #ff0000; stroke: #ff0000"/>
     <use xlink:href="#m5313e555c2" x="290.496775" y="1119.657571" style="fill: #ff0000; stroke: #ff0000"/>
     <use xlink:href="#m5313e555c2" x="471.754698" y="920.721556" style="fill: #ff0000; stroke: #ff0000"/>
     <use xlink:href="#m5313e555c2" x="483.830624" y="926.485077" style="fill: #ff0000; stroke: #ff0000"/>
     <use xlink:href="#m5313e555c2" x="526.747761" y="904.498718" style="fill: #ff0000; stroke: #ff0000"/>
     <use xlink:href="#m5313e555c2" x="453.601977" y="986.125555" style="fill: #ff0000; stroke: #ff0000"/>
     <use xlink:href="#m5313e555c2" x="132.263443" y="1201.480387" style="fill: #ff0000; stroke: #ff0000"/>
     <use xlink:href="#m5313e555c2" x="329.881376" y="1014.419884" style="fill: #ff0000; stroke: #ff0000"/>
     <use xlink:href="#m5313e555c2" x="367.828753" y="947.960371" style="fill: #ff0000; stroke: #ff0000"/>
     <use xlink:href="#m5313e555c2" x="192.251662" y="1141.88155" style="fill: #ff0000; stroke: #ff0000"/>
     <use xlink:href="#m5313e555c2" x="261.944856" y="1036.293057" style="fill: #ff0000; stroke: #ff0000"/>
     <use xlink:href="#m5313e555c2" x="221.732356" y="1179.949604" style="fill: #ff0000; stroke: #ff0000"/>
     <use xlink:href="#m5313e555c2" x="229.548758" y="1126.181238" style="fill: #ff0000; stroke: #ff0000"/>
     <use xlink:href="#m5313e555c2" x="386.238711" y="1024.816853" style="fill: #ff0000; stroke: #ff0000"/>
     <use xlink:href="#m5313e555c2" x="297.808264" y="1166.950125" style="fill: #ff0000; stroke: #ff0000"/>
     <use xlink:href="#m5313e555c2" x="355.217463" y="1022.233552" style="fill: #ff0000; stroke: #ff0000"/>
     <use xlink:href="#m5313e555c2" x="428.947679" y="965.677329" style="fill: #ff0000; stroke: #ff0000"/>
    </g>
   </g>
   <g id="patch_15">
    <path d="M 103.847813 1259.066875 
L 103.847813 751.646875 
" style="fill: none; stroke: #000000; stroke-width: 0.8; stroke-linejoin: miter; stroke-linecap: square"/>
   </g>
   <g id="patch_16">
    <path d="M 609.864185 1259.066875 
L 609.864185 751.646875 
" style="fill: none; stroke: #000000; stroke-width: 0.8; stroke-linejoin: miter; stroke-linecap: square"/>
   </g>
   <g id="patch_17">
    <path d="M 103.847813 1259.066875 
L 609.864185 1259.066875 
" style="fill: none; stroke: #000000; stroke-width: 0.8; stroke-linejoin: miter; stroke-linecap: square"/>
   </g>
   <g id="patch_18">
    <path d="M 103.847813 751.646875 
L 609.864185 751.646875 
" style="fill: none; stroke: #000000; stroke-width: 0.8; stroke-linejoin: miter; stroke-linecap: square"/>
   </g>
   <g id="text_60">
    <g id="patch_19">
     <path d="M 135.770063 890.438439 
L 363.830063 890.438439 
Q 376.430063 890.438439 376.430063 877.838439 
L 376.430063 816.098439 
Q 376.430063 803.498439 363.830063 803.498439 
L 135.770063 803.498439 
Q 123.170063 803.498439 123.170063 816.098439 
L 123.170063 877.838439 
Q 123.170063 890.438439 135.770063 890.438439 
z
" style="fill: #ffffff; stroke: #000000; stroke-linejoin: miter"/>
    </g>
    <!-- $\frac {RMSE}{ДК}$=0.0984 -->
    <g transform="translate(135.770063 856.838439) scale(0.42 -0.42)">
     <defs>
      <path id="TimesNewRomanPS-BoldMT-34" d="M 159 1597 
L 2172 4325 
L 2553 4325 
L 2553 1597 
L 2941 1597 
L 2941 950 
L 2553 950 
L 2553 0 
L 1694 0 
L 1694 950 
L 159 950 
L 159 1597 
z
M 463 1597 
L 1694 1597 
L 1694 3269 
L 463 1597 
z
" transform="scale(0.015625)"/>
     </defs>
     <use xlink:href="#DejaVuSans-Oblique-52" transform="translate(0 45.046875) scale(0.7)"/>
     <use xlink:href="#DejaVuSans-Oblique-4d" transform="translate(48.637695 45.046875) scale(0.7)"/>
     <use xlink:href="#DejaVuSans-Oblique-53" transform="translate(109.033203 45.046875) scale(0.7)"/>
     <use xlink:href="#DejaVuSans-Oblique-45" transform="translate(153.466797 45.046875) scale(0.7)"/>
     <use xlink:href="#DejaVuSans-Oblique-414" transform="translate(47 -38.232812) scale(0.7)"/>
     <use xlink:href="#DejaVuSans-Oblique-41a" transform="translate(101.6875 -38.232812) scale(0.7)"/>
     <use xlink:href="#TimesNewRomanPS-BoldMT-3d" transform="translate(210.195312 0.254688)"/>
     <use xlink:href="#TimesNewRomanPS-BoldMT-30" transform="translate(267.177734 0.254688)"/>
     <use xlink:href="#TimesNewRomanPS-BoldMT-2e" transform="translate(317.177734 0.254688)"/>
     <use xlink:href="#TimesNewRomanPS-BoldMT-30" transform="translate(342.177734 0.254688)"/>
     <use xlink:href="#TimesNewRomanPS-BoldMT-39" transform="translate(392.177734 0.254688)"/>
     <use xlink:href="#TimesNewRomanPS-BoldMT-38" transform="translate(442.177734 0.254688)"/>
     <use xlink:href="#TimesNewRomanPS-BoldMT-34" transform="translate(492.177734 0.254688)"/>
     <path d="M 0 19.051563 
L 0 25.301563 
L 197.695312 25.301563 
L 197.695312 19.051563 
L 0 19.051563 
z
"/>
    </g>
   </g>
   <g id="text_61">
    <!-- триптофан -->
    <g transform="translate(254.027483 736.646875) scale(0.45 -0.45)">
     <defs>
      <path id="TimesNewRomanPSMT-43f" d="M 2331 2659 
L 1094 2659 
L 1094 672 
Q 1094 341 1128 277 
Q 1163 213 1236 164 
Q 1309 116 1528 116 
L 1528 0 
L 144 0 
L 144 116 
Q 422 116 500 217 
Q 578 319 578 672 
L 578 2191 
Q 578 2525 543 2586 
Q 509 2647 437 2695 
Q 366 2744 144 2744 
L 144 2863 
L 3281 2863 
L 3281 2744 
Q 3072 2744 3000 2701 
Q 2928 2659 2887 2596 
Q 2847 2534 2847 2191 
L 2847 672 
Q 2847 341 2881 277 
Q 2916 213 2989 164 
Q 3063 116 3281 116 
L 3281 0 
L 1897 0 
L 1897 116 
Q 2156 116 2243 211 
Q 2331 306 2331 672 
L 2331 2659 
z
" transform="scale(0.015625)"/>
      <path id="TimesNewRomanPSMT-444" d="M 1334 4091 
L 2178 4444 
L 2316 4444 
L 2316 2684 
Q 2600 2947 2894 2947 
Q 3297 2947 3586 2503 
Q 3875 2059 3875 1428 
Q 3875 809 3581 360 
Q 3288 -88 2869 -88 
Q 2559 -88 2316 188 
L 2316 -697 
Q 2316 -1009 2352 -1095 
Q 2388 -1181 2481 -1217 
Q 2575 -1253 2875 -1253 
L 2875 -1369 
L 1334 -1369 
L 1334 -1253 
Q 1647 -1253 1739 -1164 
Q 1831 -1075 1831 -697 
L 1831 188 
Q 1597 -88 1281 -88 
Q 847 -88 559 362 
Q 272 813 272 1459 
Q 272 2044 547 2495 
Q 822 2947 1266 2947 
Q 1594 2947 1831 2647 
L 1831 3422 
Q 1831 3822 1781 3931 
Q 1731 4041 1606 4041 
Q 1503 4041 1381 3988 
L 1334 4091 
z
M 1831 2369 
Q 1656 2738 1381 2738 
Q 1116 2738 967 2389 
Q 819 2041 819 1353 
Q 819 747 967 436 
Q 1116 125 1381 125 
Q 1625 125 1831 409 
L 1831 2369 
z
M 2316 463 
Q 2378 300 2512 212 
Q 2647 125 2769 125 
Q 3009 125 3164 428 
Q 3319 731 3319 1375 
Q 3319 2738 2778 2738 
Q 2550 2738 2316 2484 
L 2316 463 
z
" transform="scale(0.015625)"/>
     </defs>
     <use xlink:href="#TimesNewRomanPSMT-442"/>
     <use xlink:href="#TimesNewRomanPSMT-440" x="44.951172"/>
     <use xlink:href="#TimesNewRomanPSMT-438" x="94.951172"/>
     <use xlink:href="#TimesNewRomanPSMT-43f" x="148.466797"/>
     <use xlink:href="#TimesNewRomanPSMT-442" x="201.982422"/>
     <use xlink:href="#TimesNewRomanPSMT-43e" x="244.308594"/>
     <use xlink:href="#TimesNewRomanPSMT-444" x="294.308594"/>
     <use xlink:href="#TimesNewRomanPSMT-430" x="359.103516"/>
     <use xlink:href="#TimesNewRomanPSMT-43d" x="403.488281"/>
    </g>
   </g>
  </g>
 </g>
 <defs>
  <clipPath id="pd4d1657c9c">
   <rect x="103.847813" y="53.446875" width="506.016373" height="507.42"/>
  </clipPath>
  <clipPath id="p45bc251db4">
   <rect x="757.204185" y="53.446875" width="506.016373" height="507.42"/>
  </clipPath>
  <clipPath id="p823ec0c605">
   <rect x="103.847813" y="751.646875" width="506.016373" height="507.42"/>
  </clipPath>
 </defs>
</svg>
