<?xml version="1.0" encoding="utf-8" standalone="no"?>
<!DOCTYPE svg PUBLIC "-//W3C//DTD SVG 1.1//EN"
  "http://www.w3.org/Graphics/SVG/1.1/DTD/svg11.dtd">
<svg xmlns:xlink="http://www.w3.org/1999/xlink" width="1718.625671pt" height="1045.435781pt" viewBox="0 0 1718.625671 1045.435781" xmlns="http://www.w3.org/2000/svg" version="1.1">
 <metadata>
  <rdf:RDF xmlns:dc="http://purl.org/dc/elements/1.1/" xmlns:cc="http://creativecommons.org/ns#" xmlns:rdf="http://www.w3.org/1999/02/22-rdf-syntax-ns#">
   <cc:Work>
    <dc:type rdf:resource="http://purl.org/dc/dcmitype/StillImage"/>
    <dc:date>2024-05-20T16:14:23.660268</dc:date>
    <dc:format>image/svg+xml</dc:format>
    <dc:creator>
     <cc:Agent>
      <dc:title>Matplotlib v3.6.3, https://matplotlib.org/</dc:title>
     </cc:Agent>
    </dc:creator>
   </cc:Work>
  </rdf:RDF>
 </metadata>
 <defs>
  <style type="text/css">*{stroke-linejoin: round; stroke-linecap: butt}</style>
 </defs>
 <g id="figure_1">
  <g id="patch_1">
   <path d="M -0 1045.435781 
L 1718.625671 1045.435781 
L 1718.625671 0 
L -0 0 
z
" style="fill: #ffffff"/>
  </g>
  <g id="axes_1">
   <g id="patch_2">
    <path d="M 103.25625 747.9 
L 843.215671 747.9 
L 843.215671 7.2 
L 103.25625 7.2 
z
" style="fill: #ffffff"/>
   </g>
   <g id="matplotlib.axis_1">
    <g id="xtick_1">
     <g id="line2d_1">
      <path d="M 232.989395 747.9 
L 232.989395 7.2 
" clip-path="url(#p5958442e6e)" style="fill: none; stroke: #000000; stroke-width: 0.7; stroke-linecap: square"/>
     </g>
     <g id="line2d_2">
      <defs>
       <path id="m5aa43a57f6" d="M 0 0 
L 0 -10 
" style="stroke: #000000; stroke-width: 2"/>
      </defs>
      <g>
       <use xlink:href="#m5aa43a57f6" x="232.989395" y="747.9" style="stroke: #000000; stroke-width: 2"/>
      </g>
     </g>
     <g id="text_1">
      <!-- 300 -->
      <g transform="translate(202.989395 790.675) scale(0.4 -0.4)">
       <defs>
        <path id="TimesNewRomanPSMT-33" d="M 325 3431 
Q 506 3859 782 4092 
Q 1059 4325 1472 4325 
Q 1981 4325 2253 3994 
Q 2459 3747 2459 3466 
Q 2459 3003 1878 2509 
Q 2269 2356 2469 2072 
Q 2669 1788 2669 1403 
Q 2669 853 2319 450 
Q 1863 -75 997 -75 
Q 569 -75 414 31 
Q 259 138 259 259 
Q 259 350 332 419 
Q 406 488 509 488 
Q 588 488 669 463 
Q 722 447 909 348 
Q 1097 250 1169 231 
Q 1284 197 1416 197 
Q 1734 197 1970 444 
Q 2206 691 2206 1028 
Q 2206 1275 2097 1509 
Q 2016 1684 1919 1775 
Q 1784 1900 1550 2001 
Q 1316 2103 1072 2103 
L 972 2103 
L 972 2197 
Q 1219 2228 1467 2375 
Q 1716 2522 1828 2728 
Q 1941 2934 1941 3181 
Q 1941 3503 1739 3701 
Q 1538 3900 1238 3900 
Q 753 3900 428 3381 
L 325 3431 
z
" transform="scale(0.015625)"/>
        <path id="TimesNewRomanPSMT-30" d="M 231 2094 
Q 231 2819 450 3342 
Q 669 3866 1031 4122 
Q 1313 4325 1613 4325 
Q 2100 4325 2488 3828 
Q 2972 3213 2972 2159 
Q 2972 1422 2759 906 
Q 2547 391 2217 158 
Q 1888 -75 1581 -75 
Q 975 -75 572 641 
Q 231 1244 231 2094 
z
M 844 2016 
Q 844 1141 1059 588 
Q 1238 122 1591 122 
Q 1759 122 1940 273 
Q 2122 425 2216 781 
Q 2359 1319 2359 2297 
Q 2359 3022 2209 3506 
Q 2097 3866 1919 4016 
Q 1791 4119 1609 4119 
Q 1397 4119 1231 3928 
Q 1006 3669 925 3112 
Q 844 2556 844 2016 
z
" transform="scale(0.015625)"/>
       </defs>
       <use xlink:href="#TimesNewRomanPSMT-33"/>
       <use xlink:href="#TimesNewRomanPSMT-30" x="50"/>
       <use xlink:href="#TimesNewRomanPSMT-30" x="100"/>
      </g>
     </g>
    </g>
    <g id="xtick_2">
     <g id="line2d_3">
      <path d="M 425.186648 747.9 
L 425.186648 7.2 
" clip-path="url(#p5958442e6e)" style="fill: none; stroke: #000000; stroke-width: 0.7; stroke-linecap: square"/>
     </g>
     <g id="line2d_4">
      <g>
       <use xlink:href="#m5aa43a57f6" x="425.186648" y="747.9" style="stroke: #000000; stroke-width: 2"/>
      </g>
     </g>
     <g id="text_2">
      <!-- 400 -->
      <g transform="translate(395.186648 790.675) scale(0.4 -0.4)">
       <defs>
        <path id="TimesNewRomanPSMT-34" d="M 2978 1563 
L 2978 1119 
L 2409 1119 
L 2409 0 
L 1894 0 
L 1894 1119 
L 100 1119 
L 100 1519 
L 2066 4325 
L 2409 4325 
L 2409 1563 
L 2978 1563 
z
M 1894 1563 
L 1894 3666 
L 406 1563 
L 1894 1563 
z
" transform="scale(0.015625)"/>
       </defs>
       <use xlink:href="#TimesNewRomanPSMT-34"/>
       <use xlink:href="#TimesNewRomanPSMT-30" x="50"/>
       <use xlink:href="#TimesNewRomanPSMT-30" x="100"/>
      </g>
     </g>
    </g>
    <g id="xtick_3">
     <g id="line2d_5">
      <path d="M 617.3839 747.9 
L 617.3839 7.2 
" clip-path="url(#p5958442e6e)" style="fill: none; stroke: #000000; stroke-width: 0.7; stroke-linecap: square"/>
     </g>
     <g id="line2d_6">
      <g>
       <use xlink:href="#m5aa43a57f6" x="617.3839" y="747.9" style="stroke: #000000; stroke-width: 2"/>
      </g>
     </g>
     <g id="text_3">
      <!-- 500 -->
      <g transform="translate(587.3839 790.675) scale(0.4 -0.4)">
       <defs>
        <path id="TimesNewRomanPSMT-35" d="M 2778 4238 
L 2534 3706 
L 1259 3706 
L 981 3138 
Q 1809 3016 2294 2522 
Q 2709 2097 2709 1522 
Q 2709 1188 2573 903 
Q 2438 619 2231 419 
Q 2025 219 1772 97 
Q 1413 -75 1034 -75 
Q 653 -75 479 54 
Q 306 184 306 341 
Q 306 428 378 495 
Q 450 563 559 563 
Q 641 563 702 538 
Q 763 513 909 409 
Q 1144 247 1384 247 
Q 1750 247 2026 523 
Q 2303 800 2303 1197 
Q 2303 1581 2056 1914 
Q 1809 2247 1375 2428 
Q 1034 2569 447 2591 
L 1259 4238 
L 2778 4238 
z
" transform="scale(0.015625)"/>
       </defs>
       <use xlink:href="#TimesNewRomanPSMT-35"/>
       <use xlink:href="#TimesNewRomanPSMT-30" x="50"/>
       <use xlink:href="#TimesNewRomanPSMT-30" x="100"/>
      </g>
     </g>
    </g>
    <g id="xtick_4">
     <g id="line2d_7">
      <path d="M 809.581152 747.9 
L 809.581152 7.2 
" clip-path="url(#p5958442e6e)" style="fill: none; stroke: #000000; stroke-width: 0.7; stroke-linecap: square"/>
     </g>
     <g id="line2d_8">
      <g>
       <use xlink:href="#m5aa43a57f6" x="809.581152" y="747.9" style="stroke: #000000; stroke-width: 2"/>
      </g>
     </g>
     <g id="text_4">
      <!-- 600 -->
      <g transform="translate(779.581152 790.675) scale(0.4 -0.4)">
       <defs>
        <path id="TimesNewRomanPSMT-36" d="M 2869 4325 
L 2869 4209 
Q 2456 4169 2195 4045 
Q 1934 3922 1679 3669 
Q 1425 3416 1258 3105 
Q 1091 2794 978 2366 
Q 1428 2675 1881 2675 
Q 2316 2675 2634 2325 
Q 2953 1975 2953 1425 
Q 2953 894 2631 456 
Q 2244 -75 1606 -75 
Q 1172 -75 869 213 
Q 275 772 275 1663 
Q 275 2231 503 2743 
Q 731 3256 1154 3653 
Q 1578 4050 1965 4187 
Q 2353 4325 2688 4325 
L 2869 4325 
z
M 925 2138 
Q 869 1716 869 1456 
Q 869 1156 980 804 
Q 1091 453 1309 247 
Q 1469 100 1697 100 
Q 1969 100 2183 356 
Q 2397 613 2397 1088 
Q 2397 1622 2184 2012 
Q 1972 2403 1581 2403 
Q 1463 2403 1327 2353 
Q 1191 2303 925 2138 
z
" transform="scale(0.015625)"/>
       </defs>
       <use xlink:href="#TimesNewRomanPSMT-36"/>
       <use xlink:href="#TimesNewRomanPSMT-30" x="50"/>
       <use xlink:href="#TimesNewRomanPSMT-30" x="100"/>
      </g>
     </g>
    </g>
    <g id="text_5">
     <!-- длина волны  -->
     <g transform="translate(353.949398 843.395) scale(0.42 -0.42)">
      <defs>
       <path id="TimesNewRomanPSMT-434" d="M 591 2863 
L 3116 2863 
L 3116 2744 
Q 2903 2744 2833 2701 
Q 2763 2659 2722 2596 
Q 2681 2534 2681 2191 
L 2681 775 
Q 2681 328 2757 226 
Q 2834 125 3116 116 
L 3116 -794 
L 2997 -794 
Q 2984 -538 2870 -347 
Q 2756 -156 2553 -78 
Q 2350 0 1953 0 
L 1216 0 
Q 872 0 678 -61 
Q 484 -122 354 -315 
Q 225 -509 197 -794 
L 81 -794 
L 81 116 
Q 338 125 547 319 
Q 756 513 915 1078 
Q 1075 1644 1075 2191 
Q 1075 2728 591 2744 
L 591 2863 
z
M 1281 2659 
L 1281 2488 
Q 1281 953 725 203 
L 1788 203 
Q 2075 203 2119 251 
Q 2163 300 2163 609 
L 2163 2659 
L 1281 2659 
z
" transform="scale(0.015625)"/>
       <path id="TimesNewRomanPSMT-43b" d="M 494 2863 
L 3053 2863 
L 3053 2744 
Q 2841 2744 2770 2701 
Q 2700 2659 2659 2596 
Q 2619 2534 2619 2191 
L 2619 672 
Q 2619 341 2653 277 
Q 2688 213 2761 164 
Q 2834 116 3053 116 
L 3053 0 
L 1572 0 
L 1572 116 
Q 1813 116 1905 141 
Q 1997 166 2050 261 
Q 2103 356 2103 672 
L 2103 2659 
L 1150 2659 
L 1150 1453 
Q 1150 769 1089 492 
Q 1028 216 848 83 
Q 669 -50 438 -50 
Q 38 -50 38 281 
Q 38 394 102 466 
Q 166 538 269 538 
Q 378 538 472 447 
Q 594 328 656 328 
Q 797 328 861 564 
Q 925 800 925 1391 
L 925 2022 
Q 925 2509 854 2615 
Q 784 2722 494 2744 
L 494 2863 
z
" transform="scale(0.015625)"/>
       <path id="TimesNewRomanPSMT-438" d="M 1094 881 
L 2331 2313 
Q 2325 2553 2240 2647 
Q 2156 2741 1950 2744 
L 1950 2863 
L 3281 2863 
L 3281 2744 
Q 3072 2744 3000 2701 
Q 2928 2659 2887 2596 
Q 2847 2534 2847 2191 
L 2847 672 
Q 2847 341 2881 277 
Q 2916 213 2989 164 
Q 3063 116 3281 116 
L 3281 0 
L 1897 0 
L 1897 116 
Q 2156 116 2243 211 
Q 2331 306 2331 672 
L 2331 2019 
L 1094 584 
Q 1100 319 1169 219 
Q 1238 119 1466 116 
L 1466 0 
L 144 0 
L 144 116 
Q 422 116 500 217 
Q 578 319 578 672 
L 578 2191 
Q 578 2525 543 2586 
Q 509 2647 437 2695 
Q 366 2744 144 2744 
L 144 2863 
L 1528 2863 
L 1528 2744 
Q 1319 2744 1247 2701 
Q 1175 2659 1134 2596 
Q 1094 2534 1094 2191 
L 1094 881 
z
" transform="scale(0.015625)"/>
       <path id="TimesNewRomanPSMT-43d" d="M 1094 1584 
L 2331 1584 
L 2331 2191 
Q 2331 2463 2309 2545 
Q 2288 2628 2202 2686 
Q 2116 2744 1897 2744 
L 1897 2863 
L 3281 2863 
L 3281 2744 
Q 3088 2744 2998 2700 
Q 2909 2656 2878 2573 
Q 2847 2491 2847 2191 
L 2847 672 
Q 2847 400 2870 312 
Q 2894 225 2984 170 
Q 3075 116 3281 116 
L 3281 0 
L 1897 0 
L 1897 116 
Q 2156 116 2243 211 
Q 2331 306 2331 672 
L 2331 1381 
L 1094 1381 
L 1094 672 
Q 1094 400 1117 312 
Q 1141 225 1231 170 
Q 1322 116 1528 116 
L 1528 0 
L 144 0 
L 144 116 
Q 422 116 500 217 
Q 578 319 578 672 
L 578 2191 
Q 578 2463 554 2550 
Q 531 2638 440 2691 
Q 350 2744 144 2744 
L 144 2863 
L 1528 2863 
L 1528 2744 
Q 1334 2744 1245 2700 
Q 1156 2656 1125 2573 
Q 1094 2491 1094 2191 
L 1094 1584 
z
" transform="scale(0.015625)"/>
       <path id="TimesNewRomanPSMT-430" d="M 1822 413 
Q 1381 72 1269 19 
Q 1100 -59 909 -59 
Q 613 -59 420 144 
Q 228 347 228 678 
Q 228 888 322 1041 
Q 450 1253 767 1440 
Q 1084 1628 1822 1897 
L 1822 2009 
Q 1822 2438 1686 2597 
Q 1550 2756 1291 2756 
Q 1094 2756 978 2650 
Q 859 2544 859 2406 
L 866 2225 
Q 866 2081 792 2003 
Q 719 1925 600 1925 
Q 484 1925 411 2006 
Q 338 2088 338 2228 
Q 338 2497 613 2722 
Q 888 2947 1384 2947 
Q 1766 2947 2009 2819 
Q 2194 2722 2281 2516 
Q 2338 2381 2338 1966 
L 2338 994 
Q 2338 584 2353 492 
Q 2369 400 2405 369 
Q 2441 338 2488 338 
Q 2538 338 2575 359 
Q 2641 400 2828 588 
L 2828 413 
Q 2478 -56 2159 -56 
Q 2006 -56 1915 50 
Q 1825 156 1822 413 
z
M 1822 616 
L 1822 1706 
Q 1350 1519 1213 1441 
Q 966 1303 859 1153 
Q 753 1003 753 825 
Q 753 600 887 451 
Q 1022 303 1197 303 
Q 1434 303 1822 616 
z
" transform="scale(0.015625)"/>
       <path id="TimesNewRomanPSMT-20" transform="scale(0.015625)"/>
       <path id="TimesNewRomanPSMT-432" d="M 2016 1513 
Q 2800 1350 2800 778 
Q 2800 388 2473 194 
Q 2147 0 1563 0 
L 150 0 
L 150 116 
Q 428 116 501 220 
Q 575 325 575 672 
L 575 2191 
Q 575 2528 542 2587 
Q 509 2647 439 2695 
Q 369 2744 150 2744 
L 150 2863 
L 1469 2863 
Q 1850 2863 2086 2803 
Q 2322 2744 2473 2569 
Q 2625 2394 2625 2144 
Q 2625 1656 2016 1513 
z
M 1094 1584 
Q 1231 1581 1259 1581 
Q 1688 1581 1878 1745 
Q 2069 1909 2069 2144 
Q 2069 2416 1875 2537 
Q 1681 2659 1256 2659 
L 1094 2659 
L 1094 1584 
z
M 1094 253 
Q 1250 203 1466 203 
Q 1838 203 2019 365 
Q 2200 528 2200 784 
Q 2200 1072 1965 1225 
Q 1731 1378 1316 1378 
Q 1213 1378 1094 1372 
L 1094 253 
z
" transform="scale(0.015625)"/>
       <path id="TimesNewRomanPSMT-43e" d="M 1600 2947 
Q 2250 2947 2644 2453 
Q 2978 2031 2978 1484 
Q 2978 1100 2793 706 
Q 2609 313 2286 112 
Q 1963 -88 1566 -88 
Q 919 -88 538 428 
Q 216 863 216 1403 
Q 216 1797 411 2186 
Q 606 2575 925 2761 
Q 1244 2947 1600 2947 
z
M 1503 2744 
Q 1338 2744 1170 2645 
Q 1003 2547 900 2300 
Q 797 2053 797 1666 
Q 797 1041 1045 587 
Q 1294 134 1700 134 
Q 2003 134 2200 384 
Q 2397 634 2397 1244 
Q 2397 2006 2069 2444 
Q 1847 2744 1503 2744 
z
" transform="scale(0.015625)"/>
       <path id="TimesNewRomanPSMT-44b" d="M 2716 2744 
L 2716 2863 
L 4156 2863 
L 4156 2744 
Q 3966 2744 3878 2703 
Q 3791 2663 3758 2578 
Q 3725 2494 3725 2191 
L 3725 672 
Q 3725 378 3753 292 
Q 3781 206 3873 161 
Q 3966 116 4156 116 
L 4156 0 
L 2716 0 
L 2716 116 
Q 2959 125 3032 148 
Q 3106 172 3156 269 
Q 3206 366 3206 672 
L 3206 2191 
Q 3206 2494 3172 2581 
Q 3138 2669 3052 2705 
Q 2966 2741 2716 2744 
z
M 1091 1588 
L 1447 1594 
Q 2722 1594 2722 806 
Q 2722 441 2411 220 
Q 2100 0 1516 0 
L 141 0 
L 141 116 
Q 419 116 497 217 
Q 575 319 575 672 
L 575 2191 
Q 575 2525 540 2586 
Q 506 2647 434 2695 
Q 363 2744 141 2744 
L 141 2863 
L 1638 2863 
L 1638 2744 
Q 1328 2744 1256 2708 
Q 1184 2672 1137 2614 
Q 1091 2556 1091 2191 
L 1091 1588 
z
M 1091 247 
Q 1256 203 1422 203 
Q 1734 203 1929 368 
Q 2125 534 2125 788 
Q 2125 1388 1291 1388 
Q 1219 1388 1091 1384 
L 1091 247 
z
" transform="scale(0.015625)"/>
      </defs>
      <use xlink:href="#TimesNewRomanPSMT-434"/>
      <use xlink:href="#TimesNewRomanPSMT-43b" x="50.878906"/>
      <use xlink:href="#TimesNewRomanPSMT-438" x="100.78125"/>
      <use xlink:href="#TimesNewRomanPSMT-43d" x="154.296875"/>
      <use xlink:href="#TimesNewRomanPSMT-430" x="207.8125"/>
      <use xlink:href="#TimesNewRomanPSMT-20" x="252.197266"/>
      <use xlink:href="#TimesNewRomanPSMT-432" x="277.197266"/>
      <use xlink:href="#TimesNewRomanPSMT-43e" x="323.789062"/>
      <use xlink:href="#TimesNewRomanPSMT-43b" x="372.414062"/>
      <use xlink:href="#TimesNewRomanPSMT-43d" x="422.316406"/>
      <use xlink:href="#TimesNewRomanPSMT-44b" x="475.832031"/>
      <use xlink:href="#TimesNewRomanPSMT-20" x="543.019531"/>
     </g>
     <!-- регистрации, нм -->
     <g transform="translate(326.235961 887.375563) scale(0.42 -0.42)">
      <defs>
       <path id="TimesNewRomanPSMT-440" d="M -6 2578 
L 875 2934 
L 994 2934 
L 994 2266 
Q 1216 2644 1439 2795 
Q 1663 2947 1909 2947 
Q 2341 2947 2628 2609 
Q 2981 2197 2981 1534 
Q 2981 794 2556 309 
Q 2206 -88 1675 -88 
Q 1444 -88 1275 -22 
Q 1150 25 994 166 
L 994 -706 
Q 994 -1000 1030 -1079 
Q 1066 -1159 1155 -1206 
Q 1244 -1253 1478 -1253 
L 1478 -1369 
L -22 -1369 
L -22 -1253 
L 56 -1253 
Q 228 -1256 350 -1188 
Q 409 -1153 442 -1076 
Q 475 -1000 475 -688 
L 475 2019 
Q 475 2297 450 2372 
Q 425 2447 370 2484 
Q 316 2522 222 2522 
Q 147 2522 31 2478 
L -6 2578 
z
M 994 2081 
L 994 1013 
Q 994 666 1022 556 
Q 1066 375 1236 237 
Q 1406 100 1666 100 
Q 1978 100 2172 344 
Q 2425 663 2425 1241 
Q 2425 1897 2138 2250 
Q 1938 2494 1663 2494 
Q 1513 2494 1366 2419 
Q 1253 2363 994 2081 
z
" transform="scale(0.015625)"/>
       <path id="TimesNewRomanPSMT-435" d="M 681 1784 
Q 678 1147 991 784 
Q 1303 422 1725 422 
Q 2006 422 2214 576 
Q 2422 731 2563 1106 
L 2659 1044 
Q 2594 616 2278 264 
Q 1963 -88 1488 -88 
Q 972 -88 605 314 
Q 238 716 238 1394 
Q 238 2128 614 2539 
Q 991 2950 1559 2950 
Q 2041 2950 2350 2633 
Q 2659 2316 2659 1784 
L 681 1784 
z
M 681 1966 
L 2006 1966 
Q 1991 2241 1941 2353 
Q 1863 2528 1708 2628 
Q 1553 2728 1384 2728 
Q 1125 2728 920 2526 
Q 716 2325 681 1966 
z
" transform="scale(0.015625)"/>
       <path id="TimesNewRomanPSMT-433" d="M 2469 2863 
L 2584 2081 
L 2447 2081 
Q 2328 2469 2208 2564 
Q 2088 2659 1700 2659 
L 1094 2659 
L 1094 672 
Q 1094 341 1128 277 
Q 1163 213 1236 164 
Q 1309 116 1528 116 
L 1528 0 
L 97 0 
L 97 116 
Q 403 122 490 211 
Q 578 300 578 672 
L 578 2191 
Q 578 2494 543 2580 
Q 509 2666 423 2703 
Q 338 2741 97 2744 
L 97 2863 
L 2469 2863 
z
" transform="scale(0.015625)"/>
       <path id="TimesNewRomanPSMT-441" d="M 2631 1088 
Q 2516 522 2178 217 
Q 1841 -88 1431 -88 
Q 944 -88 581 321 
Q 219 731 219 1428 
Q 219 2103 620 2525 
Q 1022 2947 1584 2947 
Q 2006 2947 2278 2723 
Q 2550 2500 2550 2259 
Q 2550 2141 2473 2067 
Q 2397 1994 2259 1994 
Q 2075 1994 1981 2113 
Q 1928 2178 1911 2362 
Q 1894 2547 1784 2644 
Q 1675 2738 1481 2738 
Q 1169 2738 978 2506 
Q 725 2200 725 1697 
Q 725 1184 976 792 
Q 1228 400 1656 400 
Q 1963 400 2206 609 
Q 2378 753 2541 1131 
L 2631 1088 
z
" transform="scale(0.015625)"/>
       <path id="TimesNewRomanPSMT-442" d="M 156 2863 
L 2631 2863 
L 2756 2088 
L 2616 2088 
Q 2578 2322 2490 2450 
Q 2403 2578 2290 2618 
Q 2178 2659 1906 2659 
L 1656 2659 
L 1656 672 
Q 1656 353 1695 267 
Q 1734 181 1821 153 
Q 1909 125 2222 116 
L 2222 0 
L 666 0 
L 666 116 
Q 966 122 1052 212 
Q 1138 303 1138 672 
L 1138 2659 
L 881 2659 
Q 613 2659 516 2626 
Q 419 2594 330 2470 
Q 241 2347 178 2088 
L 38 2088 
L 156 2863 
z
" transform="scale(0.015625)"/>
       <path id="TimesNewRomanPSMT-446" d="M 3281 116 
L 3281 -794 
L 3166 -794 
Q 3156 -428 2926 -214 
Q 2697 0 2094 0 
L 144 0 
L 144 116 
Q 422 116 500 217 
Q 578 319 578 672 
L 578 2191 
Q 578 2525 543 2586 
Q 509 2647 437 2695 
Q 366 2744 144 2744 
L 144 2863 
L 1528 2863 
L 1528 2744 
Q 1319 2744 1247 2701 
Q 1175 2659 1134 2596 
Q 1094 2534 1094 2191 
L 1094 575 
Q 1094 303 1142 253 
Q 1191 203 1453 203 
L 1959 203 
Q 2250 203 2290 256 
Q 2331 309 2331 600 
L 2331 2191 
Q 2331 2488 2300 2573 
Q 2269 2659 2178 2701 
Q 2088 2744 1897 2744 
L 1897 2863 
L 3281 2863 
L 3281 2744 
Q 3072 2744 3000 2701 
Q 2928 2659 2887 2596 
Q 2847 2534 2847 2191 
L 2847 719 
Q 2847 316 2919 222 
Q 2991 128 3281 116 
z
" transform="scale(0.015625)"/>
       <path id="TimesNewRomanPSMT-2c" d="M 344 -1066 
L 344 -928 
Q 666 -822 842 -598 
Q 1019 -375 1019 -125 
Q 1019 -66 991 -25 
Q 969 3 947 3 
Q 913 3 797 -59 
Q 741 -88 678 -88 
Q 525 -88 434 3 
Q 344 94 344 253 
Q 344 406 461 515 
Q 578 625 747 625 
Q 953 625 1114 445 
Q 1275 266 1275 -31 
Q 1275 -353 1051 -629 
Q 828 -906 344 -1066 
z
" transform="scale(0.015625)"/>
       <path id="TimesNewRomanPSMT-43c" d="M 2050 747 
L 2944 2863 
L 3909 2863 
L 3909 2744 
Q 3697 2744 3626 2701 
Q 3556 2659 3515 2596 
Q 3475 2534 3475 2191 
L 3475 672 
Q 3475 375 3504 289 
Q 3534 203 3626 159 
Q 3719 116 3909 116 
L 3909 0 
L 2525 0 
L 2525 116 
Q 2781 116 2868 211 
Q 2956 306 2956 672 
L 2956 2394 
L 1944 0 
L 1834 0 
L 803 2394 
L 803 672 
Q 803 375 834 289 
Q 866 203 956 159 
Q 1047 116 1238 116 
L 1238 0 
L 144 0 
L 144 116 
Q 422 116 500 217 
Q 578 319 578 672 
L 578 2191 
Q 578 2525 543 2586 
Q 509 2647 437 2695 
Q 366 2744 144 2744 
L 144 2863 
L 1150 2863 
L 2050 747 
z
" transform="scale(0.015625)"/>
      </defs>
      <use xlink:href="#TimesNewRomanPSMT-440"/>
      <use xlink:href="#TimesNewRomanPSMT-435" x="50"/>
      <use xlink:href="#TimesNewRomanPSMT-433" x="94.384766"/>
      <use xlink:href="#TimesNewRomanPSMT-438" x="135.400391"/>
      <use xlink:href="#TimesNewRomanPSMT-441" x="188.916016"/>
      <use xlink:href="#TimesNewRomanPSMT-442" x="233.300781"/>
      <use xlink:href="#TimesNewRomanPSMT-440" x="278.251953"/>
      <use xlink:href="#TimesNewRomanPSMT-430" x="328.251953"/>
      <use xlink:href="#TimesNewRomanPSMT-446" x="372.636719"/>
      <use xlink:href="#TimesNewRomanPSMT-438" x="426.152344"/>
      <use xlink:href="#TimesNewRomanPSMT-438" x="479.667969"/>
      <use xlink:href="#TimesNewRomanPSMT-2c" x="533.183594"/>
      <use xlink:href="#TimesNewRomanPSMT-20" x="558.183594"/>
      <use xlink:href="#TimesNewRomanPSMT-43d" x="583.183594"/>
      <use xlink:href="#TimesNewRomanPSMT-43c" x="636.699219"/>
     </g>
    </g>
   </g>
   <g id="matplotlib.axis_2">
    <g id="ytick_1">
     <g id="line2d_9">
      <path d="M 103.25625 698.802574 
L 843.215671 698.802574 
" clip-path="url(#p5958442e6e)" style="fill: none; stroke: #000000; stroke-width: 0.7; stroke-linecap: square"/>
     </g>
     <g id="line2d_10">
      <defs>
       <path id="m04286b101e" d="M 0 0 
L 10 0 
" style="stroke: #000000; stroke-width: 2"/>
      </defs>
      <g>
       <use xlink:href="#m04286b101e" x="103.25625" y="698.802574" style="stroke: #000000; stroke-width: 2"/>
      </g>
     </g>
     <g id="text_6">
      <!-- −0.10 -->
      <g transform="translate(7.2 712.690074) scale(0.4 -0.4)">
       <defs>
        <path id="TimesNewRomanPSMT-2212" d="M 3484 2000 
L 116 2000 
L 116 2256 
L 3484 2256 
L 3484 2000 
z
" transform="scale(0.015625)"/>
        <path id="TimesNewRomanPSMT-2e" d="M 800 606 
Q 947 606 1047 504 
Q 1147 403 1147 259 
Q 1147 116 1045 14 
Q 944 -88 800 -88 
Q 656 -88 554 14 
Q 453 116 453 259 
Q 453 406 554 506 
Q 656 606 800 606 
z
" transform="scale(0.015625)"/>
        <path id="TimesNewRomanPSMT-31" d="M 750 3822 
L 1781 4325 
L 1884 4325 
L 1884 747 
Q 1884 391 1914 303 
Q 1944 216 2037 169 
Q 2131 122 2419 116 
L 2419 0 
L 825 0 
L 825 116 
Q 1125 122 1212 167 
Q 1300 213 1334 289 
Q 1369 366 1369 747 
L 1369 3034 
Q 1369 3497 1338 3628 
Q 1316 3728 1258 3775 
Q 1200 3822 1119 3822 
Q 1003 3822 797 3725 
L 750 3822 
z
" transform="scale(0.015625)"/>
       </defs>
       <use xlink:href="#TimesNewRomanPSMT-2212"/>
       <use xlink:href="#TimesNewRomanPSMT-30" x="56.396484"/>
       <use xlink:href="#TimesNewRomanPSMT-2e" x="106.396484"/>
       <use xlink:href="#TimesNewRomanPSMT-31" x="131.396484"/>
       <use xlink:href="#TimesNewRomanPSMT-30" x="181.396484"/>
      </g>
     </g>
    </g>
    <g id="ytick_2">
     <g id="line2d_11">
      <path d="M 103.25625 539.588715 
L 843.215671 539.588715 
" clip-path="url(#p5958442e6e)" style="fill: none; stroke: #000000; stroke-width: 0.7; stroke-linecap: square"/>
     </g>
     <g id="line2d_12">
      <g>
       <use xlink:href="#m04286b101e" x="103.25625" y="539.588715" style="stroke: #000000; stroke-width: 2"/>
      </g>
     </g>
     <g id="text_7">
      <!-- −0.05 -->
      <g transform="translate(7.2 553.476215) scale(0.4 -0.4)">
       <use xlink:href="#TimesNewRomanPSMT-2212"/>
       <use xlink:href="#TimesNewRomanPSMT-30" x="56.396484"/>
       <use xlink:href="#TimesNewRomanPSMT-2e" x="106.396484"/>
       <use xlink:href="#TimesNewRomanPSMT-30" x="131.396484"/>
       <use xlink:href="#TimesNewRomanPSMT-35" x="181.396484"/>
      </g>
     </g>
    </g>
    <g id="ytick_3">
     <g id="line2d_13">
      <path d="M 103.25625 380.374856 
L 843.215671 380.374856 
" clip-path="url(#p5958442e6e)" style="fill: none; stroke: #000000; stroke-width: 0.7; stroke-linecap: square"/>
     </g>
     <g id="line2d_14">
      <g>
       <use xlink:href="#m04286b101e" x="103.25625" y="380.374856" style="stroke: #000000; stroke-width: 2"/>
      </g>
     </g>
     <g id="text_8">
      <!-- 0.00 -->
      <g transform="translate(29.75625 394.262356) scale(0.4 -0.4)">
       <use xlink:href="#TimesNewRomanPSMT-30"/>
       <use xlink:href="#TimesNewRomanPSMT-2e" x="50"/>
       <use xlink:href="#TimesNewRomanPSMT-30" x="75"/>
       <use xlink:href="#TimesNewRomanPSMT-30" x="125"/>
      </g>
     </g>
    </g>
    <g id="ytick_4">
     <g id="line2d_15">
      <path d="M 103.25625 221.160997 
L 843.215671 221.160997 
" clip-path="url(#p5958442e6e)" style="fill: none; stroke: #000000; stroke-width: 0.7; stroke-linecap: square"/>
     </g>
     <g id="line2d_16">
      <g>
       <use xlink:href="#m04286b101e" x="103.25625" y="221.160997" style="stroke: #000000; stroke-width: 2"/>
      </g>
     </g>
     <g id="text_9">
      <!-- 0.05 -->
      <g transform="translate(29.75625 235.048497) scale(0.4 -0.4)">
       <use xlink:href="#TimesNewRomanPSMT-30"/>
       <use xlink:href="#TimesNewRomanPSMT-2e" x="50"/>
       <use xlink:href="#TimesNewRomanPSMT-30" x="75"/>
       <use xlink:href="#TimesNewRomanPSMT-35" x="125"/>
      </g>
     </g>
    </g>
    <g id="ytick_5">
     <g id="line2d_17">
      <path d="M 103.25625 61.947138 
L 843.215671 61.947138 
" clip-path="url(#p5958442e6e)" style="fill: none; stroke: #000000; stroke-width: 0.7; stroke-linecap: square"/>
     </g>
     <g id="line2d_18">
      <g>
       <use xlink:href="#m04286b101e" x="103.25625" y="61.947138" style="stroke: #000000; stroke-width: 2"/>
      </g>
     </g>
     <g id="text_10">
      <!-- 0.10 -->
      <g transform="translate(29.75625 75.834638) scale(0.4 -0.4)">
       <use xlink:href="#TimesNewRomanPSMT-30"/>
       <use xlink:href="#TimesNewRomanPSMT-2e" x="50"/>
       <use xlink:href="#TimesNewRomanPSMT-31" x="75"/>
       <use xlink:href="#TimesNewRomanPSMT-30" x="125"/>
      </g>
     </g>
    </g>
   </g>
   <g id="line2d_19">
    <path d="M 136.890769 391.127774 
L 138.812742 392.455687 
L 140.734714 393.922153 
L 142.656687 395.537322 
L 144.578659 397.311467 
L 146.500632 399.254898 
L 148.422604 401.377859 
L 150.344577 403.690408 
L 152.266549 406.202295 
L 154.188522 408.922824 
L 156.110494 411.860708 
L 158.032467 415.023913 
L 159.954439 418.419496 
L 161.876412 422.053441 
L 165.720357 430.053971 
L 169.564302 439.045475 
L 173.408247 449.020105 
L 177.252192 459.937466 
L 181.096137 471.720815 
L 184.940082 484.254566 
L 190.706 504.112028 
L 204.159807 551.486713 
L 208.003753 564.08161 
L 211.847698 575.726583 
L 213.76967 581.104138 
L 215.691643 586.140249 
L 217.613615 590.803526 
L 219.535588 595.064799 
L 221.45756 598.897464 
L 223.379533 602.277798 
L 225.301505 605.185257 
L 227.223478 607.602719 
L 229.14545 609.516703 
L 231.067423 610.917538 
L 232.989395 611.799486 
L 234.911368 612.160812 
L 236.83334 612.003816 
L 238.755313 611.334803 
L 240.677285 610.164006 
L 242.599258 608.505464 
L 244.52123 606.37685 
L 246.443203 603.799256 
L 248.365176 600.79694 
L 250.287148 597.397034 
L 252.209121 593.629227 
L 254.131093 589.525413 
L 257.975038 580.446185 
L 261.818983 570.444489 
L 267.584901 554.360157 
L 277.194763 527.053851 
L 281.038708 516.701493 
L 284.882653 506.987804 
L 288.726599 498.069427 
L 292.570544 490.062973 
L 294.492516 486.427375 
L 296.414489 483.045832 
L 298.336461 479.922302 
L 300.258434 477.058676 
L 302.180406 474.454931 
L 304.102379 472.109277 
L 306.024351 470.018324 
L 307.946324 468.177253 
L 309.868296 466.57998 
L 311.790269 465.219332 
L 313.712241 464.087212 
L 315.634214 463.174762 
L 317.556186 462.472518 
L 319.478159 461.970558 
L 321.400131 461.658641 
L 323.322104 461.526332 
L 325.244076 461.563121 
L 327.166049 461.758528 
L 329.088021 462.102192 
L 331.009994 462.583958 
L 332.931967 463.193941 
L 336.775912 464.760732 
L 340.619857 466.730917 
L 344.463802 469.039912 
L 348.307747 471.63072 
L 352.151692 474.454024 
L 357.917609 479.035179 
L 363.683527 483.933992 
L 371.371417 490.8203 
L 379.059307 497.995352 
L 388.66917 507.256804 
L 400.201005 518.708058 
L 411.73284 530.48153 
L 425.186648 544.582884 
L 440.562428 561.053654 
L 461.704126 583.68901 
L 471.313988 593.60672 
L 479.001878 601.193585 
L 484.767796 606.610196 
L 490.533713 611.740629 
L 496.299631 616.539154 
L 502.065549 620.96216 
L 505.909494 623.68215 
L 509.753439 626.206372 
L 513.597384 628.524953 
L 517.441329 630.629128 
L 521.285274 632.511334 
L 525.129219 634.165266 
L 528.973164 635.58592 
L 532.817109 636.769607 
L 536.661054 637.713945 
L 540.504999 638.417823 
L 544.348944 638.881352 
L 548.192889 639.105784 
L 552.036834 639.093425 
L 555.880779 638.847526 
L 559.724724 638.37217 
L 563.568669 637.672143 
L 567.412614 636.752806 
L 571.256559 635.61997 
L 575.100504 634.279767 
L 578.94445 632.73853 
L 582.788395 631.002688 
L 586.63234 629.078661 
L 590.476285 626.972784 
L 594.32023 624.691232 
L 600.086147 620.952498 
L 605.852065 616.850953 
L 611.617982 612.404369 
L 617.3839 607.629276 
L 623.149818 602.541203 
L 628.915735 597.155041 
L 634.681653 591.485495 
L 640.44757 585.547587 
L 646.213488 579.357167 
L 653.901378 570.740358 
L 661.589268 561.750854 
L 669.277158 552.440783 
L 678.887021 540.443423 
L 692.340828 523.214503 
L 715.404499 493.598052 
L 725.014361 481.650649 
L 732.702251 472.408552 
L 740.390141 463.519883 
L 748.078032 455.042928 
L 753.843949 448.985046 
L 759.609867 443.203 
L 765.375784 437.710042 
L 771.141702 432.515985 
L 776.907619 427.627254 
L 782.673537 423.047013 
L 788.439455 418.775341 
L 794.205372 414.809459 
L 799.97129 411.143993 
L 805.737207 407.771266 
L 809.581152 405.680712 
L 809.581152 405.680712 
" clip-path="url(#p5958442e6e)" style="fill: none; stroke: #ff0000; stroke-width: 4; stroke-linecap: square"/>
   </g>
   <g id="line2d_20">
    <path d="M 136.890769 376.630568 
L 140.734714 375.284027 
L 144.578659 373.614494 
L 148.422604 371.575509 
L 152.266549 369.121557 
L 156.110494 366.210404 
L 159.954439 362.805851 
L 163.798384 358.880782 
L 167.64233 354.420412 
L 171.486275 349.425537 
L 175.33022 343.915581 
L 179.174165 337.931217 
L 183.01811 331.536294 
L 188.784027 321.373306 
L 200.315862 300.583227 
L 204.159807 294.10035 
L 208.003753 288.14006 
L 209.925725 285.413591 
L 211.847698 282.88643 
L 213.76967 280.580437 
L 215.691643 278.516566 
L 217.613615 276.714628 
L 219.535588 275.193069 
L 221.45756 273.96876 
L 223.379533 273.056798 
L 225.301505 272.470327 
L 227.223478 272.220389 
L 229.14545 272.315783 
L 231.067423 272.762967 
L 232.989395 273.565974 
L 234.911368 274.726373 
L 236.83334 276.243244 
L 238.755313 278.113194 
L 240.677285 280.330402 
L 242.599258 282.886693 
L 244.52123 285.771636 
L 246.443203 288.972674 
L 248.365176 292.475279 
L 250.287148 296.26312 
L 254.131093 304.621371 
L 257.975038 313.888478 
L 261.818983 323.89032 
L 265.662928 334.445033 
L 271.428846 350.916439 
L 282.960681 384.106279 
L 288.726599 399.904619 
L 292.570544 409.914647 
L 296.414489 419.43365 
L 300.258434 428.422203 
L 304.102379 436.859115 
L 307.946324 444.738493 
L 311.790269 452.066513 
L 315.634214 458.858102 
L 319.478159 465.133741 
L 323.322104 470.916535 
L 327.166049 476.229661 
L 331.009994 481.094268 
L 334.853939 485.527844 
L 338.697884 489.543056 
L 342.541829 493.147022 
L 346.385774 496.34098 
L 350.229719 499.120276 
L 354.073664 501.474625 
L 357.917609 503.388573 
L 361.761554 504.842114 
L 363.683527 505.388908 
L 365.605499 505.811401 
L 367.527472 506.106137 
L 369.449444 506.269524 
L 371.371417 506.297852 
L 373.29339 506.187321 
L 375.215362 505.934068 
L 377.137335 505.534188 
L 379.059307 504.983766 
L 380.98128 504.278893 
L 382.903252 503.415697 
L 384.825225 502.390363 
L 386.747197 501.199159 
L 388.66917 499.838456 
L 390.591142 498.304753 
L 392.513115 496.594696 
L 394.435087 494.705105 
L 396.35706 492.632987 
L 398.279032 490.375563 
L 400.201005 487.930285 
L 402.122977 485.294854 
L 405.966922 479.445711 
L 409.810867 472.815453 
L 413.654813 465.396528 
L 417.498758 457.186998 
L 421.342703 448.190972 
L 425.186648 438.418967 
L 429.030593 427.888203 
L 432.874538 416.622811 
L 436.718483 404.653952 
L 440.562428 392.019842 
L 444.406373 378.765677 
L 450.17229 357.837341 
L 455.938208 335.834853 
L 461.704126 312.990246 
L 471.313988 273.752043 
L 484.767796 218.588472 
L 490.533713 195.682074 
L 496.299631 173.632708 
L 502.065549 152.708554 
L 505.909494 139.50605 
L 509.753439 126.978003 
L 513.597384 115.182903 
L 517.441329 104.171964 
L 521.285274 93.98864 
L 525.129219 84.668281 
L 528.973164 76.237907 
L 532.817109 68.716135 
L 534.739081 65.299504 
L 536.661054 62.113226 
L 538.583027 59.157311 
L 540.504999 56.431272 
L 542.426972 53.934148 
L 544.348944 51.664508 
L 546.270917 49.620473 
L 548.192889 47.799731 
L 550.114862 46.199557 
L 552.036834 44.816833 
L 553.958807 43.648066 
L 555.880779 42.689415 
L 557.802752 41.936711 
L 559.724724 41.385481 
L 561.646697 41.030973 
L 563.568669 40.868182 
L 565.490642 40.891871 
L 567.412614 41.096604 
L 569.334587 41.476763 
L 571.256559 42.026579 
L 573.178532 42.740157 
L 575.100504 43.611498 
L 577.022477 44.634526 
L 578.94445 45.803109 
L 582.788395 48.55229 
L 586.63234 51.809783 
L 590.476285 55.526861 
L 594.32023 59.655948 
L 598.164175 64.151144 
L 602.00812 68.968691 
L 605.852065 74.06734 
L 611.617982 82.159095 
L 617.3839 90.680577 
L 625.07179 102.53871 
L 634.681653 117.891891 
L 648.13546 139.897719 
L 682.730966 196.676506 
L 696.184773 218.239435 
L 705.794636 233.285197 
L 715.404499 247.925887 
L 723.092389 259.274763 
L 730.780279 270.238468 
L 738.468169 280.76076 
L 744.234087 288.330944 
L 750.000004 295.603043 
L 755.765922 302.559384 
L 761.531839 309.185081 
L 767.297757 315.468316 
L 773.063674 321.400516 
L 778.829592 326.97643 
L 784.59551 332.194101 
L 790.361427 337.054764 
L 796.127345 341.562664 
L 801.893262 345.724811 
L 807.65918 349.5507 
L 809.581152 350.753231 
L 809.581152 350.753231 
" clip-path="url(#p5958442e6e)" style="fill: none; stroke: #008000; stroke-width: 4; stroke-linecap: square"/>
   </g>
   <g id="line2d_21">
    <path d="M 136.890769 394.173175 
L 138.812742 395.869271 
L 140.734714 397.741942 
L 142.656687 399.80411 
L 144.578659 402.068857 
L 146.500632 404.549311 
L 148.422604 407.258514 
L 150.344577 410.209276 
L 152.266549 413.414015 
L 154.188522 416.884583 
L 156.110494 420.632079 
L 158.032467 424.666655 
L 159.954439 428.997307 
L 161.876412 433.631669 
L 163.798384 438.575793 
L 167.64233 449.408348 
L 171.486275 461.503693 
L 175.33022 474.83207 
L 179.174165 489.319752 
L 183.01811 504.844978 
L 186.862055 521.235797 
L 192.627972 546.946501 
L 202.237835 590.346693 
L 206.08178 606.896735 
L 209.925725 622.429405 
L 213.76967 636.577926 
L 215.691643 643.024134 
L 217.613615 648.99764 
L 219.535588 654.461351 
L 221.45756 659.381431 
L 223.379533 663.727705 
L 225.301505 667.474024 
L 227.223478 670.598592 
L 229.14545 673.084229 
L 231.067423 674.918591 
L 232.989395 676.094322 
L 234.911368 676.609152 
L 236.83334 676.465921 
L 238.755313 675.672554 
L 240.677285 674.241954 
L 242.599258 672.191848 
L 244.52123 669.544568 
L 246.443203 666.326774 
L 248.365176 662.569132 
L 250.287148 658.305945 
L 252.209121 653.574738 
L 254.131093 648.415821 
L 256.053066 642.871823 
L 259.897011 630.807755 
L 263.740956 617.751282 
L 269.506873 597.122635 
L 277.194763 569.523564 
L 281.038708 556.384093 
L 284.882653 544.022169 
L 288.726599 532.628912 
L 292.570544 522.343312 
L 294.492516 517.645238 
L 296.414489 513.253124 
L 298.336461 509.170436 
L 300.258434 505.397912 
L 302.180406 501.933744 
L 304.102379 498.773767 
L 306.024351 495.91167 
L 307.946324 493.339198 
L 309.868296 491.046368 
L 311.790269 489.021682 
L 313.712241 487.252334 
L 315.634214 485.724416 
L 317.556186 484.423107 
L 319.478159 483.332863 
L 321.400131 482.437586 
L 323.322104 481.720786 
L 325.244076 481.165724 
L 327.166049 480.755546 
L 331.009994 480.30253 
L 334.853939 480.228671 
L 338.697884 480.405071 
L 350.229719 481.242565 
L 354.073664 481.263842 
L 357.917609 480.994883 
L 361.761554 480.349837 
L 363.683527 479.861296 
L 365.605499 479.249553 
L 367.527472 478.505691 
L 369.449444 477.621163 
L 371.371417 476.587784 
L 373.29339 475.397725 
L 375.215362 474.043508 
L 377.137335 472.518005 
L 379.059307 470.814438 
L 380.98128 468.926387 
L 382.903252 466.847788 
L 384.825225 464.572951 
L 386.747197 462.096561 
L 388.66917 459.413699 
L 390.591142 456.519849 
L 392.513115 453.410919 
L 396.35706 446.533675 
L 400.201005 438.758384 
L 404.04495 430.069471 
L 407.888895 420.460053 
L 411.73284 409.93264 
L 415.576785 398.4998 
L 419.42073 386.184782 
L 423.264675 373.02205 
L 427.10862 359.05771 
L 430.952565 344.349796 
L 434.79651 328.968406 
L 440.562428 304.8164 
L 446.328345 279.662904 
L 457.860181 227.928219 
L 465.548071 193.839393 
L 471.313988 169.321624 
L 475.157933 153.764239 
L 479.001878 139.016768 
L 482.845823 125.230384 
L 486.689768 112.55139 
L 490.533713 101.119086 
L 492.455686 95.911543 
L 494.377659 91.063678 
L 496.299631 86.590015 
L 498.221604 82.504267 
L 500.143576 78.819276 
L 502.065549 75.546965 
L 503.987521 72.698287 
L 505.909494 70.283178 
L 507.831466 68.310517 
L 509.753439 66.788087 
L 511.675411 65.722541 
L 513.597384 65.11937 
L 515.519356 64.982883 
L 517.441329 65.31618 
L 519.363301 66.121143 
L 521.285274 67.398419 
L 523.207246 69.147418 
L 525.129219 71.366309 
L 527.051191 74.052028 
L 528.973164 77.200281 
L 530.895136 80.805564 
L 532.817109 84.861177 
L 534.739081 89.359252 
L 536.661054 94.290775 
L 538.583027 99.645625 
L 540.504999 105.412605 
L 542.426972 111.579488 
L 546.270917 125.059161 
L 550.114862 139.96797 
L 553.958807 156.175948 
L 557.802752 173.541729 
L 561.646697 191.914571 
L 567.412614 221.015039 
L 573.178532 251.472533 
L 584.710367 314.221117 
L 592.398257 355.676657 
L 598.164175 385.730953 
L 603.930092 414.411278 
L 607.774037 432.580834 
L 611.617982 449.876739 
L 615.461927 466.216593 
L 619.305873 481.531193 
L 623.149818 495.764547 
L 626.993763 508.873688 
L 630.837708 520.828317 
L 634.681653 531.61029 
L 638.525598 541.212977 
L 640.44757 545.57298 
L 642.369543 549.640503 
L 644.291515 553.417602 
L 646.213488 556.906899 
L 648.13546 560.111545 
L 650.057433 563.035197 
L 651.979405 565.681983 
L 653.901378 568.05647 
L 655.82335 570.163639 
L 657.745323 572.008848 
L 659.667296 573.597804 
L 661.589268 574.936533 
L 663.511241 576.031348 
L 665.433213 576.888821 
L 667.355186 577.515756 
L 669.277158 577.919153 
L 671.199131 578.106193 
L 673.121103 578.084198 
L 675.043076 577.860616 
L 676.965048 577.44299 
L 678.887021 576.838938 
L 680.808993 576.056125 
L 682.730966 575.102249 
L 684.652938 573.985014 
L 686.574911 572.712112 
L 688.496883 571.291207 
L 692.340828 568.035794 
L 696.184773 564.278864 
L 700.028718 560.079045 
L 703.872664 555.493107 
L 707.716609 550.575637 
L 713.482526 542.691122 
L 719.248444 534.34187 
L 726.936334 522.74371 
L 750.000004 487.479578 
L 757.687894 476.301011 
L 763.453812 468.269988 
L 769.219729 460.590567 
L 774.985647 453.295556 
L 780.751564 446.408344 
L 786.517482 439.943932 
L 792.2834 433.90993 
L 798.049317 428.307523 
L 803.815235 423.132386 
L 809.581152 418.375545 
L 809.581152 418.375545 
" clip-path="url(#p5958442e6e)" style="fill: none; stroke: #0000ff; stroke-width: 4; stroke-linecap: square"/>
   </g>
   <g id="line2d_22">
    <path d="M 136.890769 384.456263 
L 140.734714 386.029929 
L 144.578659 387.988499 
L 148.422604 390.387667 
L 152.266549 393.281947 
L 156.110494 396.721832 
L 159.954439 400.750466 
L 163.798384 405.399939 
L 167.64233 410.68736 
L 171.486275 416.61092 
L 175.33022 423.14619 
L 179.174165 430.242957 
L 183.01811 437.822881 
L 188.784027 449.855098 
L 200.315862 474.363865 
L 204.159807 481.952496 
L 208.003753 488.886346 
L 209.925725 492.037419 
L 211.847698 494.941133 
L 213.76967 497.570838 
L 215.691643 499.900985 
L 217.613615 501.907405 
L 219.535588 503.567583 
L 221.45756 504.860911 
L 223.379533 505.768928 
L 225.301505 506.275538 
L 227.223478 506.367193 
L 229.14545 506.033059 
L 231.067423 505.265139 
L 232.989395 504.058371 
L 234.911368 502.410681 
L 236.83334 500.323008 
L 238.755313 497.799284 
L 240.677285 494.846386 
L 242.599258 491.474041 
L 244.52123 487.694707 
L 246.443203 483.523419 
L 248.365176 478.977599 
L 250.287148 474.07685 
L 254.131093 463.298456 
L 257.975038 451.379348 
L 261.818983 438.528995 
L 265.662928 424.966228 
L 271.428846 403.764275 
L 284.882653 353.738406 
L 290.648571 333.337082 
L 294.492516 320.352294 
L 298.336461 307.931666 
L 302.180406 296.109272 
L 306.024351 284.898648 
L 309.868296 274.296543 
L 313.712241 264.286888 
L 317.556186 254.844752 
L 321.400131 245.940043 
L 325.244076 237.540812 
L 329.088021 229.61606 
L 332.931967 222.137964 
L 336.775912 215.083542 
L 340.619857 208.43576 
L 344.463802 202.18414 
L 348.307747 196.324931 
L 352.151692 190.860927 
L 355.995637 185.800996 
L 359.839582 181.159399 
L 363.683527 176.954965 
L 367.527472 173.21017 
L 371.371417 169.950167 
L 375.215362 167.201801 
L 377.137335 166.028089 
L 379.059307 164.992621 
L 380.98128 164.098794 
L 382.903252 163.349932 
L 384.825225 162.749256 
L 386.747197 162.299859 
L 388.66917 162.004679 
L 390.591142 161.866471 
L 392.513115 161.887784 
L 394.435087 162.070936 
L 396.35706 162.417989 
L 398.279032 162.930729 
L 400.201005 163.61064 
L 402.122977 164.458889 
L 404.04495 165.476298 
L 405.966922 166.663332 
L 407.888895 168.020076 
L 409.810867 169.546223 
L 411.73284 171.24105 
L 413.654813 173.103414 
L 415.576785 175.131727 
L 419.42073 179.677598 
L 423.264675 184.856775 
L 427.10862 190.639729 
L 430.952565 196.989121 
L 434.79651 203.859763 
L 438.640455 211.198689 
L 442.4844 218.945358 
L 448.250318 231.179759 
L 455.938208 248.231848 
L 467.470043 273.973367 
L 473.235961 286.225554 
L 477.079906 293.940866 
L 480.923851 301.181054 
L 484.767796 307.852212 
L 488.611741 313.864454 
L 490.533713 316.596819 
L 492.455686 319.133243 
L 494.377659 321.464208 
L 496.299631 323.580687 
L 498.221604 325.474182 
L 500.143576 327.136758 
L 502.065549 328.561075 
L 503.987521 329.740419 
L 505.909494 330.668732 
L 507.831466 331.340635 
L 509.753439 331.751454 
L 511.675411 331.897239 
L 513.597384 331.774784 
L 515.519356 331.381643 
L 517.441329 330.71614 
L 519.363301 329.777381 
L 521.285274 328.565257 
L 523.207246 327.080452 
L 525.129219 325.324439 
L 527.051191 323.299482 
L 528.973164 321.008624 
L 530.895136 318.455682 
L 532.817109 315.645235 
L 534.739081 312.582607 
L 536.661054 309.273851 
L 540.504999 301.945674 
L 544.348944 293.722827 
L 548.192889 284.677479 
L 552.036834 274.890834 
L 555.880779 264.45198 
L 559.724724 253.456645 
L 565.490642 236.142381 
L 573.178532 212.081147 
L 586.63234 169.714447 
L 592.398257 152.369037 
L 596.242202 141.316919 
L 600.086147 130.774472 
L 603.930092 120.819749 
L 607.774037 111.522926 
L 611.617982 102.945838 
L 615.461927 95.14164 
L 619.305873 88.154613 
L 621.227845 84.978934 
L 623.149818 82.020107 
L 625.07179 79.281164 
L 626.993763 76.764595 
L 628.915735 74.472352 
L 630.837708 72.40586 
L 632.75968 70.566031 
L 634.681653 68.95327 
L 636.603625 67.567497 
L 638.525598 66.408153 
L 640.44757 65.474223 
L 642.369543 64.764248 
L 644.291515 64.276344 
L 646.213488 64.008221 
L 648.13546 63.957199 
L 650.057433 64.120232 
L 651.979405 64.493923 
L 653.901378 65.074544 
L 655.82335 65.858061 
L 657.745323 66.840149 
L 659.667296 68.016217 
L 661.589268 69.381422 
L 663.511241 70.930696 
L 665.433213 72.658761 
L 667.355186 74.560154 
L 671.199131 78.860238 
L 675.043076 83.784195 
L 678.887021 89.283474 
L 682.730966 95.308279 
L 686.574911 101.808099 
L 690.418856 108.732193 
L 694.262801 116.030034 
L 700.028718 127.568663 
L 705.794636 139.6722 
L 713.482526 156.419433 
L 728.858306 190.746577 
L 738.468169 211.931753 
L 746.156059 228.351593 
L 751.921977 240.235052 
L 757.687894 251.677875 
L 763.453812 262.629101 
L 769.219729 273.048923 
L 774.985647 282.907956 
L 780.751564 292.186437 
L 786.517482 300.873366 
L 790.361427 306.334171 
L 794.205372 311.531364 
L 798.049317 316.467036 
L 801.893262 321.144421 
L 805.737207 325.567777 
L 809.581152 329.742272 
L 809.581152 329.742272 
" clip-path="url(#p5958442e6e)" style="fill: none; stroke: #a020f0; stroke-width: 4; stroke-linecap: square"/>
   </g>
   <g id="line2d_23">
    <path d="M 136.890769 395.414202 
L 138.812742 397.339191 
L 140.734714 399.468406 
L 142.656687 401.81691 
L 144.578659 404.399948 
L 146.500632 407.232812 
L 148.422604 410.330689 
L 150.344577 413.708484 
L 152.266549 417.380633 
L 154.188522 421.360899 
L 156.110494 425.662149 
L 158.032467 430.296127 
L 159.954439 435.273206 
L 161.876412 440.602146 
L 163.798384 446.289833 
L 167.64233 458.758122 
L 171.486275 472.686199 
L 175.33022 488.036689 
L 179.174165 504.72024 
L 183.01811 522.59073 
L 186.862055 541.442738 
L 192.627972 570.967173 
L 202.237835 620.585592 
L 206.08178 639.386326 
L 209.925725 656.930615 
L 213.76967 672.782996 
L 215.691643 679.94529 
L 217.613615 686.534175 
L 219.535588 692.505572 
L 221.45756 697.819251 
L 223.379533 702.439314 
L 225.301505 706.334621 
L 227.223478 709.47918 
L 229.14545 711.852458 
L 231.067423 713.439642 
L 232.989395 714.231818 
L 234.911368 714.226089 
L 236.83334 713.425607 
L 238.755313 711.839536 
L 240.677285 709.482939 
L 242.599258 706.376586 
L 244.52123 702.546706 
L 246.443203 698.024658 
L 248.365176 692.846548 
L 250.287148 687.052801 
L 252.209121 680.687671 
L 254.131093 673.798725 
L 257.975038 658.652904 
L 261.818983 642.040797 
L 265.662928 624.4043 
L 281.038708 552.052821 
L 284.882653 535.321973 
L 288.726599 519.680406 
L 292.570544 505.298381 
L 296.414489 492.286633 
L 300.258434 480.700007 
L 302.180406 475.444324 
L 304.102379 470.543078 
L 306.024351 465.990134 
L 307.946324 461.777136 
L 309.868296 457.893758 
L 311.790269 454.327957 
L 313.712241 451.066219 
L 315.634214 448.093798 
L 317.556186 445.394948 
L 319.478159 442.953142 
L 321.400131 440.75127 
L 323.322104 438.771834 
L 325.244076 436.997116 
L 327.166049 435.409333 
L 329.088021 433.990775 
L 331.009994 432.723925 
L 334.853939 430.576855 
L 338.697884 428.835375 
L 342.541829 427.374824 
L 350.229719 424.844925 
L 355.995637 422.898414 
L 359.839582 421.415473 
L 363.683527 419.697621 
L 367.527472 417.67935 
L 371.371417 415.302193 
L 375.215362 412.514126 
L 379.059307 409.269087 
L 382.903252 405.526667 
L 386.747197 401.251952 
L 390.591142 396.415536 
L 394.435087 390.993662 
L 398.279032 384.968497 
L 402.122977 378.328493 
L 405.966922 371.068823 
L 409.810867 363.19185 
L 413.654813 354.707614 
L 417.498758 345.634288 
L 421.342703 335.998604 
L 425.186648 325.8362 
L 429.030593 315.191874 
L 434.79651 298.442669 
L 440.562428 280.954745 
L 450.17229 250.911814 
L 459.782153 221.064128 
L 465.548071 203.963305 
L 469.392016 193.145089 
L 473.235961 182.933847 
L 477.079906 173.450314 
L 480.923851 164.813194 
L 484.767796 157.137437 
L 486.689768 153.694538 
L 488.611741 150.532506 
L 490.533713 147.663883 
L 492.455686 145.100661 
L 494.377659 142.854222 
L 496.299631 140.935301 
L 498.221604 139.353928 
L 500.143576 138.119394 
L 502.065549 137.240202 
L 503.987521 136.724031 
L 505.909494 136.577701 
L 507.831466 136.807135 
L 509.753439 137.417334 
L 511.675411 138.412349 
L 513.597384 139.795258 
L 515.519356 141.568144 
L 517.441329 143.732085 
L 519.363301 146.28714 
L 521.285274 149.232341 
L 523.207246 152.565692 
L 525.129219 156.284167 
L 527.051191 160.383717 
L 528.973164 164.859281 
L 530.895136 169.704795 
L 532.817109 174.913212 
L 534.739081 180.476524 
L 538.583027 192.631135 
L 542.426972 206.086351 
L 546.270917 220.746468 
L 550.114862 236.503646 
L 553.958807 253.239375 
L 557.802752 270.826084 
L 563.568669 298.505091 
L 569.334587 327.317406 
L 592.398257 444.173816 
L 598.164175 471.493891 
L 602.00812 488.86226 
L 605.852065 505.440225 
L 609.69601 521.14199 
L 613.539955 535.893161 
L 617.3839 549.631022 
L 621.227845 562.304617 
L 625.07179 573.874662 
L 628.915735 584.313311 
L 632.75968 593.603767 
L 634.681653 597.816075 
L 636.603625 601.739783 
L 638.525598 605.375658 
L 640.44757 608.725042 
L 642.369543 611.789835 
L 644.291515 614.572463 
L 646.213488 617.075858 
L 648.13546 619.303431 
L 650.057433 621.259042 
L 651.979405 622.946979 
L 653.901378 624.371927 
L 655.82335 625.538941 
L 657.745323 626.453419 
L 659.667296 627.121079 
L 661.589268 627.547925 
L 663.511241 627.740225 
L 665.433213 627.704484 
L 667.355186 627.447419 
L 669.277158 626.975933 
L 671.199131 626.297088 
L 673.121103 625.418087 
L 675.043076 624.346245 
L 676.965048 623.088971 
L 678.887021 621.653743 
L 680.808993 620.04809 
L 682.730966 618.279571 
L 686.574911 614.284212 
L 690.418856 609.72805 
L 694.262801 604.670846 
L 698.106746 599.171267 
L 701.950691 593.286478 
L 705.794636 587.071795 
L 711.560554 577.246871 
L 717.326471 566.967913 
L 726.936334 549.243902 
L 744.234087 517.182008 
L 751.921977 503.464287 
L 757.687894 493.553852 
L 763.453812 484.031427 
L 769.219729 474.94176 
L 774.985647 466.31863 
L 780.751564 458.185831 
L 786.517482 450.558166 
L 792.2834 443.442455 
L 798.049317 436.838508 
L 801.893262 432.717328 
L 805.737207 428.817773 
L 809.581152 425.135788 
L 809.581152 425.135788 
" clip-path="url(#p5958442e6e)" style="fill: none; stroke: #a63600; stroke-width: 4; stroke-linecap: square"/>
   </g>
   <g id="patch_3">
    <path d="M 103.25625 747.9 
L 103.25625 7.2 
" style="fill: none; stroke: #000000; stroke-width: 0.8; stroke-linejoin: miter; stroke-linecap: square"/>
   </g>
   <g id="patch_4">
    <path d="M 843.215671 747.9 
L 843.215671 7.2 
" style="fill: none; stroke: #000000; stroke-width: 0.8; stroke-linejoin: miter; stroke-linecap: square"/>
   </g>
   <g id="patch_5">
    <path d="M 103.25625 747.9 
L 843.215671 747.9 
" style="fill: none; stroke: #000000; stroke-width: 0.8; stroke-linejoin: miter; stroke-linecap: square"/>
   </g>
   <g id="patch_6">
    <path d="M 103.25625 7.2 
L 843.215671 7.2 
" style="fill: none; stroke: #000000; stroke-width: 0.8; stroke-linejoin: miter; stroke-linecap: square"/>
   </g>
   <g id="legend_1">
    <g id="patch_7">
     <path d="M 199.085179 1038.235781 
L 747.386742 1038.235781 
Q 753.386742 1038.235781 753.386742 1032.235781 
L 753.386742 907.984219 
Q 753.386742 901.984219 747.386742 901.984219 
L 199.085179 901.984219 
Q 193.085179 901.984219 193.085179 907.984219 
L 193.085179 1032.235781 
Q 193.085179 1038.235781 199.085179 1038.235781 
z
" style="fill: #ffffff; stroke: #000000; stroke-linejoin: miter"/>
    </g>
    <g id="line2d_24">
     <path d="M 205.085179 924.484219 
L 235.085179 924.484219 
L 265.085179 924.484219 
" style="fill: none; stroke: #ff0000; stroke-width: 4; stroke-linecap: square"/>
    </g>
    <g id="text_11">
     <!-- 1-st 1146.53 -->
     <g style="fill: #ff0000" transform="translate(289.085179 934.984219) scale(0.3 -0.3)">
      <defs>
       <path id="TimesNewRomanPSMT-2d" d="M 259 1672 
L 1875 1672 
L 1875 1200 
L 259 1200 
L 259 1672 
z
" transform="scale(0.015625)"/>
       <path id="TimesNewRomanPSMT-73" d="M 2050 2947 
L 2050 1972 
L 1947 1972 
Q 1828 2431 1642 2597 
Q 1456 2763 1169 2763 
Q 950 2763 815 2647 
Q 681 2531 681 2391 
Q 681 2216 781 2091 
Q 878 1963 1175 1819 
L 1631 1597 
Q 2266 1288 2266 781 
Q 2266 391 1970 151 
Q 1675 -88 1309 -88 
Q 1047 -88 709 6 
Q 606 38 541 38 
Q 469 38 428 -44 
L 325 -44 
L 325 978 
L 428 978 
Q 516 541 762 319 
Q 1009 97 1316 97 
Q 1531 97 1667 223 
Q 1803 350 1803 528 
Q 1803 744 1651 891 
Q 1500 1038 1047 1263 
Q 594 1488 453 1669 
Q 313 1847 313 2119 
Q 313 2472 555 2709 
Q 797 2947 1181 2947 
Q 1350 2947 1591 2875 
Q 1750 2828 1803 2828 
Q 1853 2828 1881 2850 
Q 1909 2872 1947 2947 
L 2050 2947 
z
" transform="scale(0.015625)"/>
       <path id="TimesNewRomanPSMT-74" d="M 1031 3803 
L 1031 2863 
L 1700 2863 
L 1700 2644 
L 1031 2644 
L 1031 788 
Q 1031 509 1111 412 
Q 1191 316 1316 316 
Q 1419 316 1516 380 
Q 1613 444 1666 569 
L 1788 569 
Q 1678 263 1478 108 
Q 1278 -47 1066 -47 
Q 922 -47 784 33 
Q 647 113 581 261 
Q 516 409 516 719 
L 516 2644 
L 63 2644 
L 63 2747 
Q 234 2816 414 2980 
Q 594 3144 734 3369 
Q 806 3488 934 3803 
L 1031 3803 
z
" transform="scale(0.015625)"/>
      </defs>
      <use xlink:href="#TimesNewRomanPSMT-31"/>
      <use xlink:href="#TimesNewRomanPSMT-2d" x="50"/>
      <use xlink:href="#TimesNewRomanPSMT-73" x="83.300781"/>
      <use xlink:href="#TimesNewRomanPSMT-74" x="122.216797"/>
      <use xlink:href="#TimesNewRomanPSMT-20" x="150"/>
      <use xlink:href="#TimesNewRomanPSMT-31" x="175"/>
      <use xlink:href="#TimesNewRomanPSMT-31" x="221.25"/>
      <use xlink:href="#TimesNewRomanPSMT-34" x="271.25"/>
      <use xlink:href="#TimesNewRomanPSMT-36" x="321.25"/>
      <use xlink:href="#TimesNewRomanPSMT-2e" x="371.25"/>
      <use xlink:href="#TimesNewRomanPSMT-35" x="396.25"/>
      <use xlink:href="#TimesNewRomanPSMT-33" x="446.25"/>
     </g>
    </g>
    <g id="line2d_25">
     <path d="M 205.085179 966.901406 
L 235.085179 966.901406 
L 265.085179 966.901406 
" style="fill: none; stroke: #008000; stroke-width: 4; stroke-linecap: square"/>
    </g>
    <g id="text_12">
     <!-- 3-rd 1224.89 -->
     <g style="fill: #008000" transform="translate(289.085179 977.401406) scale(0.3 -0.3)">
      <defs>
       <path id="TimesNewRomanPSMT-72" d="M 1038 2947 
L 1038 2303 
Q 1397 2947 1775 2947 
Q 1947 2947 2059 2842 
Q 2172 2738 2172 2600 
Q 2172 2478 2090 2393 
Q 2009 2309 1897 2309 
Q 1788 2309 1652 2417 
Q 1516 2525 1450 2525 
Q 1394 2525 1328 2463 
Q 1188 2334 1038 2041 
L 1038 669 
Q 1038 431 1097 309 
Q 1138 225 1241 169 
Q 1344 113 1538 113 
L 1538 0 
L 72 0 
L 72 113 
Q 291 113 397 181 
Q 475 231 506 341 
Q 522 394 522 644 
L 522 1753 
Q 522 2253 501 2348 
Q 481 2444 426 2487 
Q 372 2531 291 2531 
Q 194 2531 72 2484 
L 41 2597 
L 906 2947 
L 1038 2947 
z
" transform="scale(0.015625)"/>
       <path id="TimesNewRomanPSMT-64" d="M 2222 322 
Q 2013 103 1813 7 
Q 1613 -88 1381 -88 
Q 913 -88 563 304 
Q 213 697 213 1313 
Q 213 1928 600 2439 
Q 988 2950 1597 2950 
Q 1975 2950 2222 2709 
L 2222 3238 
Q 2222 3728 2198 3840 
Q 2175 3953 2125 3993 
Q 2075 4034 2000 4034 
Q 1919 4034 1784 3984 
L 1744 4094 
L 2597 4444 
L 2738 4444 
L 2738 1134 
Q 2738 631 2761 520 
Q 2784 409 2836 365 
Q 2888 322 2956 322 
Q 3041 322 3181 375 
L 3216 266 
L 2366 -88 
L 2222 -88 
L 2222 322 
z
M 2222 541 
L 2222 2016 
Q 2203 2228 2109 2403 
Q 2016 2578 1861 2667 
Q 1706 2756 1559 2756 
Q 1284 2756 1069 2509 
Q 784 2184 784 1559 
Q 784 928 1059 592 
Q 1334 256 1672 256 
Q 1956 256 2222 541 
z
" transform="scale(0.015625)"/>
       <path id="TimesNewRomanPSMT-32" d="M 2934 816 
L 2638 0 
L 138 0 
L 138 116 
Q 1241 1122 1691 1759 
Q 2141 2397 2141 2925 
Q 2141 3328 1894 3587 
Q 1647 3847 1303 3847 
Q 991 3847 742 3664 
Q 494 3481 375 3128 
L 259 3128 
Q 338 3706 661 4015 
Q 984 4325 1469 4325 
Q 1984 4325 2329 3994 
Q 2675 3663 2675 3213 
Q 2675 2891 2525 2569 
Q 2294 2063 1775 1497 
Q 997 647 803 472 
L 1909 472 
Q 2247 472 2383 497 
Q 2519 522 2628 598 
Q 2738 675 2819 816 
L 2934 816 
z
" transform="scale(0.015625)"/>
       <path id="TimesNewRomanPSMT-38" d="M 1228 2134 
Q 725 2547 579 2797 
Q 434 3047 434 3316 
Q 434 3728 753 4026 
Q 1072 4325 1600 4325 
Q 2113 4325 2425 4047 
Q 2738 3769 2738 3413 
Q 2738 3175 2569 2928 
Q 2400 2681 1866 2347 
Q 2416 1922 2594 1678 
Q 2831 1359 2831 1006 
Q 2831 559 2490 242 
Q 2150 -75 1597 -75 
Q 994 -75 656 303 
Q 388 606 388 966 
Q 388 1247 577 1523 
Q 766 1800 1228 2134 
z
M 1719 2469 
Q 2094 2806 2194 3001 
Q 2294 3197 2294 3444 
Q 2294 3772 2109 3958 
Q 1925 4144 1606 4144 
Q 1288 4144 1088 3959 
Q 888 3775 888 3528 
Q 888 3366 970 3203 
Q 1053 3041 1206 2894 
L 1719 2469 
z
M 1375 2016 
Q 1116 1797 991 1539 
Q 866 1281 866 981 
Q 866 578 1086 336 
Q 1306 94 1647 94 
Q 1984 94 2187 284 
Q 2391 475 2391 747 
Q 2391 972 2272 1150 
Q 2050 1481 1375 2016 
z
" transform="scale(0.015625)"/>
       <path id="TimesNewRomanPSMT-39" d="M 338 -88 
L 338 28 
Q 744 34 1094 217 
Q 1444 400 1770 856 
Q 2097 1313 2225 1859 
Q 1734 1544 1338 1544 
Q 891 1544 572 1889 
Q 253 2234 253 2806 
Q 253 3363 572 3797 
Q 956 4325 1575 4325 
Q 2097 4325 2469 3894 
Q 2925 3359 2925 2575 
Q 2925 1869 2578 1258 
Q 2231 647 1613 244 
Q 1109 -88 516 -88 
L 338 -88 
z
M 2275 2091 
Q 2331 2497 2331 2741 
Q 2331 3044 2228 3395 
Q 2125 3747 1936 3934 
Q 1747 4122 1506 4122 
Q 1228 4122 1018 3872 
Q 809 3622 809 3128 
Q 809 2469 1088 2097 
Q 1291 1828 1588 1828 
Q 1731 1828 1928 1897 
Q 2125 1966 2275 2091 
z
" transform="scale(0.015625)"/>
      </defs>
      <use xlink:href="#TimesNewRomanPSMT-33"/>
      <use xlink:href="#TimesNewRomanPSMT-2d" x="50"/>
      <use xlink:href="#TimesNewRomanPSMT-72" x="83.300781"/>
      <use xlink:href="#TimesNewRomanPSMT-64" x="116.601562"/>
      <use xlink:href="#TimesNewRomanPSMT-20" x="166.601562"/>
      <use xlink:href="#TimesNewRomanPSMT-31" x="191.601562"/>
      <use xlink:href="#TimesNewRomanPSMT-32" x="241.601562"/>
      <use xlink:href="#TimesNewRomanPSMT-32" x="291.601562"/>
      <use xlink:href="#TimesNewRomanPSMT-34" x="341.601562"/>
      <use xlink:href="#TimesNewRomanPSMT-2e" x="391.601562"/>
      <use xlink:href="#TimesNewRomanPSMT-38" x="416.601562"/>
      <use xlink:href="#TimesNewRomanPSMT-39" x="466.601562"/>
     </g>
    </g>
    <g id="line2d_26">
     <path d="M 205.085179 1009.318594 
L 235.085179 1009.318594 
L 265.085179 1009.318594 
" style="fill: none; stroke: #0000ff; stroke-width: 4; stroke-linecap: square"/>
    </g>
    <g id="text_13">
     <!-- 5-th 660.54 -->
     <g style="fill: #0000ff" transform="translate(289.085179 1019.818594) scale(0.3 -0.3)">
      <defs>
       <path id="TimesNewRomanPSMT-68" d="M 1041 4444 
L 1041 2350 
Q 1388 2731 1591 2839 
Q 1794 2947 1997 2947 
Q 2241 2947 2416 2812 
Q 2591 2678 2675 2391 
Q 2734 2191 2734 1659 
L 2734 647 
Q 2734 375 2778 275 
Q 2809 200 2884 156 
Q 2959 113 3159 113 
L 3159 0 
L 1753 0 
L 1753 113 
L 1819 113 
Q 2019 113 2097 173 
Q 2175 234 2206 353 
Q 2216 403 2216 647 
L 2216 1659 
Q 2216 2128 2167 2275 
Q 2119 2422 2012 2495 
Q 1906 2569 1756 2569 
Q 1603 2569 1437 2487 
Q 1272 2406 1041 2159 
L 1041 647 
Q 1041 353 1073 281 
Q 1106 209 1195 161 
Q 1284 113 1503 113 
L 1503 0 
L 84 0 
L 84 113 
Q 275 113 384 172 
Q 447 203 484 290 
Q 522 378 522 647 
L 522 3238 
Q 522 3728 498 3840 
Q 475 3953 426 3993 
Q 378 4034 297 4034 
Q 231 4034 84 3984 
L 41 4094 
L 897 4444 
L 1041 4444 
z
" transform="scale(0.015625)"/>
      </defs>
      <use xlink:href="#TimesNewRomanPSMT-35"/>
      <use xlink:href="#TimesNewRomanPSMT-2d" x="50"/>
      <use xlink:href="#TimesNewRomanPSMT-74" x="83.300781"/>
      <use xlink:href="#TimesNewRomanPSMT-68" x="111.083984"/>
      <use xlink:href="#TimesNewRomanPSMT-20" x="161.083984"/>
      <use xlink:href="#TimesNewRomanPSMT-36" x="186.083984"/>
      <use xlink:href="#TimesNewRomanPSMT-36" x="236.083984"/>
      <use xlink:href="#TimesNewRomanPSMT-30" x="286.083984"/>
      <use xlink:href="#TimesNewRomanPSMT-2e" x="336.083984"/>
      <use xlink:href="#TimesNewRomanPSMT-35" x="361.083984"/>
      <use xlink:href="#TimesNewRomanPSMT-34" x="411.083984"/>
     </g>
    </g>
    <g id="line2d_27">
     <path d="M 504.063304 924.484219 
L 534.063304 924.484219 
L 564.063304 924.484219 
" style="fill: none; stroke: #a020f0; stroke-width: 4; stroke-linecap: square"/>
    </g>
    <g id="text_14">
     <!-- 7-th 1007.93 -->
     <g style="fill: #a020f0" transform="translate(588.063304 934.984219) scale(0.3 -0.3)">
      <defs>
       <path id="TimesNewRomanPSMT-37" d="M 644 4238 
L 2916 4238 
L 2916 4119 
L 1503 -88 
L 1153 -88 
L 2419 3728 
L 1253 3728 
Q 900 3728 750 3644 
Q 488 3500 328 3200 
L 238 3234 
L 644 4238 
z
" transform="scale(0.015625)"/>
      </defs>
      <use xlink:href="#TimesNewRomanPSMT-37"/>
      <use xlink:href="#TimesNewRomanPSMT-2d" x="50"/>
      <use xlink:href="#TimesNewRomanPSMT-74" x="83.300781"/>
      <use xlink:href="#TimesNewRomanPSMT-68" x="111.083984"/>
      <use xlink:href="#TimesNewRomanPSMT-20" x="161.083984"/>
      <use xlink:href="#TimesNewRomanPSMT-31" x="186.083984"/>
      <use xlink:href="#TimesNewRomanPSMT-30" x="236.083984"/>
      <use xlink:href="#TimesNewRomanPSMT-30" x="286.083984"/>
      <use xlink:href="#TimesNewRomanPSMT-37" x="336.083984"/>
      <use xlink:href="#TimesNewRomanPSMT-2e" x="386.083984"/>
      <use xlink:href="#TimesNewRomanPSMT-39" x="411.083984"/>
      <use xlink:href="#TimesNewRomanPSMT-33" x="461.083984"/>
     </g>
    </g>
    <g id="line2d_28">
     <path d="M 504.063304 966.901406 
L 534.063304 966.901406 
L 564.063304 966.901406 
" style="fill: none; stroke: #a63600; stroke-width: 4; stroke-linecap: square"/>
    </g>
    <g id="text_15">
     <!-- 9-th 635.21 -->
     <g style="fill: #a63600" transform="translate(588.063304 977.401406) scale(0.3 -0.3)">
      <use xlink:href="#TimesNewRomanPSMT-39"/>
      <use xlink:href="#TimesNewRomanPSMT-2d" x="50"/>
      <use xlink:href="#TimesNewRomanPSMT-74" x="83.300781"/>
      <use xlink:href="#TimesNewRomanPSMT-68" x="111.083984"/>
      <use xlink:href="#TimesNewRomanPSMT-20" x="161.083984"/>
      <use xlink:href="#TimesNewRomanPSMT-36" x="186.083984"/>
      <use xlink:href="#TimesNewRomanPSMT-33" x="236.083984"/>
      <use xlink:href="#TimesNewRomanPSMT-35" x="286.083984"/>
      <use xlink:href="#TimesNewRomanPSMT-2e" x="336.083984"/>
      <use xlink:href="#TimesNewRomanPSMT-32" x="361.083984"/>
      <use xlink:href="#TimesNewRomanPSMT-31" x="411.083984"/>
     </g>
    </g>
   </g>
  </g>
  <g id="axes_2">
   <g id="patch_8">
    <path d="M 971.46625 747.9 
L 1711.425671 747.9 
L 1711.425671 7.2 
L 971.46625 7.2 
z
" style="fill: #ffffff"/>
   </g>
   <g id="matplotlib.axis_3">
    <g id="xtick_5">
     <g id="line2d_29">
      <path d="M 1084.240814 747.9 
L 1084.240814 7.2 
" clip-path="url(#pea9a2893ef)" style="fill: none; stroke: #000000; stroke-width: 0.7; stroke-linecap: square"/>
     </g>
     <g id="line2d_30">
      <g>
       <use xlink:href="#m5aa43a57f6" x="1084.240814" y="747.9" style="stroke: #000000; stroke-width: 2"/>
      </g>
     </g>
     <g id="text_16">
      <!-- 250 -->
      <g transform="translate(1054.240814 790.675) scale(0.4 -0.4)">
       <use xlink:href="#TimesNewRomanPSMT-32"/>
       <use xlink:href="#TimesNewRomanPSMT-35" x="50"/>
       <use xlink:href="#TimesNewRomanPSMT-30" x="100"/>
      </g>
     </g>
    </g>
    <g id="xtick_6">
     <g id="line2d_31">
      <path d="M 1282.090927 747.9 
L 1282.090927 7.2 
" clip-path="url(#pea9a2893ef)" style="fill: none; stroke: #000000; stroke-width: 0.7; stroke-linecap: square"/>
     </g>
     <g id="line2d_32">
      <g>
       <use xlink:href="#m5aa43a57f6" x="1282.090927" y="747.9" style="stroke: #000000; stroke-width: 2"/>
      </g>
     </g>
     <g id="text_17">
      <!-- 300 -->
      <g transform="translate(1252.090927 790.675) scale(0.4 -0.4)">
       <use xlink:href="#TimesNewRomanPSMT-33"/>
       <use xlink:href="#TimesNewRomanPSMT-30" x="50"/>
       <use xlink:href="#TimesNewRomanPSMT-30" x="100"/>
      </g>
     </g>
    </g>
    <g id="xtick_7">
     <g id="line2d_33">
      <path d="M 1479.94104 747.9 
L 1479.94104 7.2 
" clip-path="url(#pea9a2893ef)" style="fill: none; stroke: #000000; stroke-width: 0.7; stroke-linecap: square"/>
     </g>
     <g id="line2d_34">
      <g>
       <use xlink:href="#m5aa43a57f6" x="1479.94104" y="747.9" style="stroke: #000000; stroke-width: 2"/>
      </g>
     </g>
     <g id="text_18">
      <!-- 350 -->
      <g transform="translate(1449.94104 790.675) scale(0.4 -0.4)">
       <use xlink:href="#TimesNewRomanPSMT-33"/>
       <use xlink:href="#TimesNewRomanPSMT-35" x="50"/>
       <use xlink:href="#TimesNewRomanPSMT-30" x="100"/>
      </g>
     </g>
    </g>
    <g id="xtick_8">
     <g id="line2d_35">
      <path d="M 1677.791152 747.9 
L 1677.791152 7.2 
" clip-path="url(#pea9a2893ef)" style="fill: none; stroke: #000000; stroke-width: 0.7; stroke-linecap: square"/>
     </g>
     <g id="line2d_36">
      <g>
       <use xlink:href="#m5aa43a57f6" x="1677.791152" y="747.9" style="stroke: #000000; stroke-width: 2"/>
      </g>
     </g>
     <g id="text_19">
      <!-- 400 -->
      <g transform="translate(1647.791152 790.675) scale(0.4 -0.4)">
       <use xlink:href="#TimesNewRomanPSMT-34"/>
       <use xlink:href="#TimesNewRomanPSMT-30" x="50"/>
       <use xlink:href="#TimesNewRomanPSMT-30" x="100"/>
      </g>
     </g>
    </g>
    <g id="text_20">
     <!-- длина волны  -->
     <g transform="translate(1222.159398 843.395) scale(0.42 -0.42)">
      <use xlink:href="#TimesNewRomanPSMT-434"/>
      <use xlink:href="#TimesNewRomanPSMT-43b" x="50.878906"/>
      <use xlink:href="#TimesNewRomanPSMT-438" x="100.78125"/>
      <use xlink:href="#TimesNewRomanPSMT-43d" x="154.296875"/>
      <use xlink:href="#TimesNewRomanPSMT-430" x="207.8125"/>
      <use xlink:href="#TimesNewRomanPSMT-20" x="252.197266"/>
      <use xlink:href="#TimesNewRomanPSMT-432" x="277.197266"/>
      <use xlink:href="#TimesNewRomanPSMT-43e" x="323.789062"/>
      <use xlink:href="#TimesNewRomanPSMT-43b" x="372.414062"/>
      <use xlink:href="#TimesNewRomanPSMT-43d" x="422.316406"/>
      <use xlink:href="#TimesNewRomanPSMT-44b" x="475.832031"/>
      <use xlink:href="#TimesNewRomanPSMT-20" x="543.019531"/>
     </g>
     <!-- возбуждения, нм -->
     <g transform="translate(1191.079398 887.375563) scale(0.42 -0.42)">
      <defs>
       <path id="TimesNewRomanPSMT-437" d="M 263 1966 
L 263 2863 
L 394 2863 
Q 450 2813 519 2813 
Q 572 2813 750 2863 
Q 1047 2947 1234 2947 
Q 1647 2947 1923 2756 
Q 2200 2566 2200 2250 
Q 2200 1766 1466 1547 
Q 2322 1369 2322 744 
Q 2322 416 2047 164 
Q 1772 -88 1247 -88 
Q 903 -88 642 35 
Q 381 159 75 453 
L 156 534 
Q 669 138 1128 138 
Q 1391 138 1559 316 
Q 1728 494 1728 778 
Q 1728 1400 925 1438 
L 925 1619 
Q 1303 1619 1473 1820 
Q 1644 2022 1644 2253 
Q 1644 2456 1498 2609 
Q 1353 2763 1113 2763 
Q 556 2763 375 1966 
L 263 1966 
z
" transform="scale(0.015625)"/>
       <path id="TimesNewRomanPSMT-431" d="M 469 2044 
Q 828 2947 1681 2947 
Q 2278 2947 2658 2500 
Q 3038 2053 3038 1478 
Q 3038 884 2653 398 
Q 2269 -88 1613 -88 
Q 944 -88 594 467 
Q 244 1022 244 1819 
Q 244 2438 425 2973 
Q 606 3509 806 3775 
Q 1006 4041 1268 4162 
Q 1531 4284 2197 4291 
Q 2675 4297 2775 4319 
Q 2875 4341 2966 4444 
L 3088 4444 
Q 2984 4138 2837 4006 
Q 2691 3875 2522 3829 
Q 2353 3784 1919 3772 
Q 1450 3759 1270 3701 
Q 1091 3644 897 3420 
Q 703 3197 595 2834 
Q 488 2472 469 2044 
z
M 1575 2734 
Q 1263 2734 1063 2475 
Q 863 2216 863 1659 
Q 863 906 1131 518 
Q 1400 131 1753 131 
Q 2078 131 2264 401 
Q 2450 672 2450 1266 
Q 2450 1897 2206 2315 
Q 1963 2734 1575 2734 
z
" transform="scale(0.015625)"/>
       <path id="TimesNewRomanPSMT-443" d="M 38 2863 
L 1372 2863 
L 1372 2747 
L 1306 2747 
Q 1166 2747 1095 2686 
Q 1025 2625 1025 2534 
Q 1025 2413 1128 2197 
L 1825 753 
L 2466 2334 
Q 2519 2463 2519 2588 
Q 2519 2644 2497 2672 
Q 2472 2706 2419 2726 
Q 2366 2747 2231 2747 
L 2231 2863 
L 3163 2863 
L 3163 2747 
Q 3047 2734 2984 2696 
Q 2922 2659 2847 2556 
Q 2819 2513 2741 2316 
L 1575 -541 
Q 1406 -956 1132 -1168 
Q 859 -1381 606 -1381 
Q 422 -1381 303 -1275 
Q 184 -1169 184 -1031 
Q 184 -900 270 -820 
Q 356 -741 506 -741 
Q 609 -741 788 -809 
Q 913 -856 944 -856 
Q 1038 -856 1148 -759 
Q 1259 -663 1372 -384 
L 1575 113 
L 547 2272 
Q 500 2369 397 2513 
Q 319 2622 269 2659 
Q 197 2709 38 2747 
L 38 2863 
z
" transform="scale(0.015625)"/>
       <path id="TimesNewRomanPSMT-436" d="M 1506 0 
L 1506 116 
Q 1797 144 1875 270 
Q 1953 397 1953 788 
L 1953 1438 
Q 1747 1438 1680 1391 
Q 1613 1344 1453 1038 
L 916 0 
L 72 0 
L 72 116 
Q 291 131 403 239 
Q 516 347 706 731 
Q 997 1316 1131 1439 
Q 1266 1563 1422 1575 
Q 1231 1656 1063 2088 
Q 981 2291 934 2355 
Q 888 2419 806 2419 
Q 744 2419 647 2381 
Q 506 2325 428 2325 
Q 303 2325 231 2409 
Q 159 2494 159 2613 
Q 159 2750 268 2823 
Q 378 2897 525 2897 
Q 781 2897 936 2745 
Q 1091 2594 1231 2203 
Q 1366 1831 1534 1718 
Q 1703 1606 1953 1606 
L 1953 2075 
Q 1953 2478 1870 2597 
Q 1788 2716 1506 2744 
L 1506 2863 
L 2919 2863 
L 2919 2744 
Q 2634 2713 2553 2594 
Q 2472 2475 2472 2075 
L 2472 1606 
Q 2719 1606 2887 1718 
Q 3056 1831 3191 2203 
Q 3359 2684 3542 2790 
Q 3725 2897 3891 2897 
Q 4075 2897 4170 2812 
Q 4266 2728 4266 2613 
Q 4266 2494 4194 2409 
Q 4122 2325 3997 2325 
Q 3919 2325 3778 2381 
Q 3681 2419 3628 2419 
Q 3538 2419 3491 2355 
Q 3444 2291 3363 2088 
Q 3194 1656 3003 1575 
Q 3166 1563 3300 1431 
Q 3434 1300 3713 741 
Q 3909 347 4021 239 
Q 4134 131 4353 116 
L 4353 0 
L 3509 0 
L 2972 1038 
Q 2813 1344 2745 1391 
Q 2678 1438 2472 1438 
L 2472 788 
Q 2472 341 2564 245 
Q 2656 150 2919 116 
L 2919 0 
L 1506 0 
z
" transform="scale(0.015625)"/>
       <path id="TimesNewRomanPSMT-44f" d="M 2800 2863 
L 2800 2744 
Q 2606 2744 2514 2691 
Q 2422 2638 2394 2556 
Q 2366 2475 2366 2191 
L 2366 672 
Q 2366 400 2391 314 
Q 2416 228 2511 172 
Q 2606 116 2800 116 
L 2800 0 
L 1416 0 
L 1416 116 
Q 1675 116 1762 211 
Q 1850 306 1850 672 
L 1850 1294 
L 1722 1291 
Q 1694 1291 1622 1294 
L 709 0 
L -3 0 
L -3 116 
Q 153 116 214 158 
Q 275 200 441 434 
L 1109 1378 
Q 391 1628 391 2144 
Q 391 2434 648 2648 
Q 906 2863 1528 2863 
L 2800 2863 
z
M 1850 2625 
Q 1728 2659 1619 2659 
Q 1303 2659 1147 2503 
Q 991 2347 991 2131 
Q 991 1856 1212 1675 
Q 1434 1494 1772 1494 
Q 1806 1494 1850 1500 
L 1850 2625 
z
" transform="scale(0.015625)"/>
      </defs>
      <use xlink:href="#TimesNewRomanPSMT-432"/>
      <use xlink:href="#TimesNewRomanPSMT-43e" x="46.591797"/>
      <use xlink:href="#TimesNewRomanPSMT-437" x="96.591797"/>
      <use xlink:href="#TimesNewRomanPSMT-431" x="136.09375"/>
      <use xlink:href="#TimesNewRomanPSMT-443" x="183.222656"/>
      <use xlink:href="#TimesNewRomanPSMT-436" x="231.847656"/>
      <use xlink:href="#TimesNewRomanPSMT-434" x="300.939453"/>
      <use xlink:href="#TimesNewRomanPSMT-435" x="351.818359"/>
      <use xlink:href="#TimesNewRomanPSMT-43d" x="396.203125"/>
      <use xlink:href="#TimesNewRomanPSMT-438" x="449.71875"/>
      <use xlink:href="#TimesNewRomanPSMT-44f" x="503.234375"/>
      <use xlink:href="#TimesNewRomanPSMT-2c" x="549.230469"/>
      <use xlink:href="#TimesNewRomanPSMT-20" x="574.230469"/>
      <use xlink:href="#TimesNewRomanPSMT-43d" x="599.230469"/>
      <use xlink:href="#TimesNewRomanPSMT-43c" x="652.746094"/>
     </g>
    </g>
   </g>
   <g id="matplotlib.axis_4">
    <g id="ytick_6">
     <g id="line2d_37">
      <path d="M 971.46625 741.625779 
L 1711.425671 741.625779 
" clip-path="url(#pea9a2893ef)" style="fill: none; stroke: #000000; stroke-width: 0.7; stroke-linecap: square"/>
     </g>
     <g id="line2d_38">
      <g>
       <use xlink:href="#m04286b101e" x="971.46625" y="741.625779" style="stroke: #000000; stroke-width: 2"/>
      </g>
     </g>
     <g id="text_21">
      <!-- −0.4 -->
      <g transform="translate(895.41 755.513279) scale(0.4 -0.4)">
       <use xlink:href="#TimesNewRomanPSMT-2212"/>
       <use xlink:href="#TimesNewRomanPSMT-30" x="56.396484"/>
       <use xlink:href="#TimesNewRomanPSMT-2e" x="106.396484"/>
       <use xlink:href="#TimesNewRomanPSMT-34" x="131.396484"/>
      </g>
     </g>
    </g>
    <g id="ytick_7">
     <g id="line2d_39">
      <path d="M 971.46625 649.609191 
L 1711.425671 649.609191 
" clip-path="url(#pea9a2893ef)" style="fill: none; stroke: #000000; stroke-width: 0.7; stroke-linecap: square"/>
     </g>
     <g id="line2d_40">
      <g>
       <use xlink:href="#m04286b101e" x="971.46625" y="649.609191" style="stroke: #000000; stroke-width: 2"/>
      </g>
     </g>
     <g id="text_22">
      <!-- −0.3 -->
      <g transform="translate(895.41 663.496691) scale(0.4 -0.4)">
       <use xlink:href="#TimesNewRomanPSMT-2212"/>
       <use xlink:href="#TimesNewRomanPSMT-30" x="56.396484"/>
       <use xlink:href="#TimesNewRomanPSMT-2e" x="106.396484"/>
       <use xlink:href="#TimesNewRomanPSMT-33" x="131.396484"/>
      </g>
     </g>
    </g>
    <g id="ytick_8">
     <g id="line2d_41">
      <path d="M 971.46625 557.592603 
L 1711.425671 557.592603 
" clip-path="url(#pea9a2893ef)" style="fill: none; stroke: #000000; stroke-width: 0.7; stroke-linecap: square"/>
     </g>
     <g id="line2d_42">
      <g>
       <use xlink:href="#m04286b101e" x="971.46625" y="557.592603" style="stroke: #000000; stroke-width: 2"/>
      </g>
     </g>
     <g id="text_23">
      <!-- −0.2 -->
      <g transform="translate(895.41 571.480103) scale(0.4 -0.4)">
       <use xlink:href="#TimesNewRomanPSMT-2212"/>
       <use xlink:href="#TimesNewRomanPSMT-30" x="56.396484"/>
       <use xlink:href="#TimesNewRomanPSMT-2e" x="106.396484"/>
       <use xlink:href="#TimesNewRomanPSMT-32" x="131.396484"/>
      </g>
     </g>
    </g>
    <g id="ytick_9">
     <g id="line2d_43">
      <path d="M 971.46625 465.576015 
L 1711.425671 465.576015 
" clip-path="url(#pea9a2893ef)" style="fill: none; stroke: #000000; stroke-width: 0.7; stroke-linecap: square"/>
     </g>
     <g id="line2d_44">
      <g>
       <use xlink:href="#m04286b101e" x="971.46625" y="465.576015" style="stroke: #000000; stroke-width: 2"/>
      </g>
     </g>
     <g id="text_24">
      <!-- −0.1 -->
      <g transform="translate(895.41 479.463515) scale(0.4 -0.4)">
       <use xlink:href="#TimesNewRomanPSMT-2212"/>
       <use xlink:href="#TimesNewRomanPSMT-30" x="56.396484"/>
       <use xlink:href="#TimesNewRomanPSMT-2e" x="106.396484"/>
       <use xlink:href="#TimesNewRomanPSMT-31" x="131.396484"/>
      </g>
     </g>
    </g>
    <g id="ytick_10">
     <g id="line2d_45">
      <path d="M 971.46625 373.559427 
L 1711.425671 373.559427 
" clip-path="url(#pea9a2893ef)" style="fill: none; stroke: #000000; stroke-width: 0.7; stroke-linecap: square"/>
     </g>
     <g id="line2d_46">
      <g>
       <use xlink:href="#m04286b101e" x="971.46625" y="373.559427" style="stroke: #000000; stroke-width: 2"/>
      </g>
     </g>
     <g id="text_25">
      <!-- 0.0 -->
      <g transform="translate(917.96625 387.446927) scale(0.4 -0.4)">
       <use xlink:href="#TimesNewRomanPSMT-30"/>
       <use xlink:href="#TimesNewRomanPSMT-2e" x="50"/>
       <use xlink:href="#TimesNewRomanPSMT-30" x="75"/>
      </g>
     </g>
    </g>
    <g id="ytick_11">
     <g id="line2d_47">
      <path d="M 971.46625 281.542838 
L 1711.425671 281.542838 
" clip-path="url(#pea9a2893ef)" style="fill: none; stroke: #000000; stroke-width: 0.7; stroke-linecap: square"/>
     </g>
     <g id="line2d_48">
      <g>
       <use xlink:href="#m04286b101e" x="971.46625" y="281.542838" style="stroke: #000000; stroke-width: 2"/>
      </g>
     </g>
     <g id="text_26">
      <!-- 0.1 -->
      <g transform="translate(917.96625 295.430338) scale(0.4 -0.4)">
       <use xlink:href="#TimesNewRomanPSMT-30"/>
       <use xlink:href="#TimesNewRomanPSMT-2e" x="50"/>
       <use xlink:href="#TimesNewRomanPSMT-31" x="75"/>
      </g>
     </g>
    </g>
    <g id="ytick_12">
     <g id="line2d_49">
      <path d="M 971.46625 189.52625 
L 1711.425671 189.52625 
" clip-path="url(#pea9a2893ef)" style="fill: none; stroke: #000000; stroke-width: 0.7; stroke-linecap: square"/>
     </g>
     <g id="line2d_50">
      <g>
       <use xlink:href="#m04286b101e" x="971.46625" y="189.52625" style="stroke: #000000; stroke-width: 2"/>
      </g>
     </g>
     <g id="text_27">
      <!-- 0.2 -->
      <g transform="translate(917.96625 203.41375) scale(0.4 -0.4)">
       <use xlink:href="#TimesNewRomanPSMT-30"/>
       <use xlink:href="#TimesNewRomanPSMT-2e" x="50"/>
       <use xlink:href="#TimesNewRomanPSMT-32" x="75"/>
      </g>
     </g>
    </g>
    <g id="ytick_13">
     <g id="line2d_51">
      <path d="M 971.46625 97.509662 
L 1711.425671 97.509662 
" clip-path="url(#pea9a2893ef)" style="fill: none; stroke: #000000; stroke-width: 0.7; stroke-linecap: square"/>
     </g>
     <g id="line2d_52">
      <g>
       <use xlink:href="#m04286b101e" x="971.46625" y="97.509662" style="stroke: #000000; stroke-width: 2"/>
      </g>
     </g>
     <g id="text_28">
      <!-- 0.3 -->
      <g transform="translate(917.96625 111.397162) scale(0.4 -0.4)">
       <use xlink:href="#TimesNewRomanPSMT-30"/>
       <use xlink:href="#TimesNewRomanPSMT-2e" x="50"/>
       <use xlink:href="#TimesNewRomanPSMT-33" x="75"/>
      </g>
     </g>
    </g>
   </g>
   <g id="line2d_53">
    <path d="M 1005.100769 663.030556 
L 1024.88578 668.942202 
L 1044.670792 669.507239 
L 1064.455803 664.47911 
L 1084.240814 653.939588 
L 1104.025826 638.315269 
L 1123.810837 618.355254 
L 1143.595848 595.071059 
L 1163.380859 569.64748 
L 1183.165871 543.339647 
L 1202.950882 517.375336 
L 1222.735893 492.881346 
L 1242.520904 470.84726 
L 1262.305916 452.128709 
L 1282.090927 437.476138 
L 1301.875938 427.557741 
L 1321.660949 422.934544 
L 1341.445961 423.952117 
L 1361.230972 430.545129 
L 1381.015983 442.004349 
L 1400.800995 456.809775 
L 1420.586006 472.653985 
L 1440.371017 486.737669 
L 1460.156028 496.314796 
L 1479.94104 499.339926 
L 1499.726051 494.991915 
L 1519.511062 483.870082 
L 1539.296073 467.781575 
L 1559.081085 449.203698 
L 1578.866096 430.627804 
L 1598.651107 414.013322 
L 1618.436119 400.50216 
L 1638.22113 390.418108 
L 1658.006141 383.469997 
L 1677.791152 379.03293 
" clip-path="url(#pea9a2893ef)" style="fill: none; stroke: #ff0000; stroke-width: 4; stroke-linecap: square"/>
   </g>
   <g id="line2d_54">
    <path d="M 1005.100769 216.375706 
L 1024.88578 193.128423 
L 1044.670792 173.758659 
L 1064.455803 159.693382 
L 1084.240814 151.956283 
L 1104.025826 151.042075 
L 1123.810837 156.862873 
L 1143.595848 168.776671 
L 1163.380859 185.693907 
L 1183.165871 206.246253 
L 1202.950882 228.994622 
L 1222.735893 252.651302 
L 1242.520904 276.291602 
L 1262.305916 299.528613 
L 1282.090927 322.616792 
L 1301.875938 346.437764 
L 1321.660949 372.315706 
L 1341.445961 401.628933 
L 1361.230972 435.244357 
L 1381.015983 472.898014 
L 1400.800995 512.739726 
L 1420.586006 551.28945 
L 1440.371017 583.962577 
L 1460.156028 606.113137 
L 1479.94104 614.298547 
L 1499.726051 607.317625 
L 1519.511062 586.617613 
L 1539.296073 555.906749 
L 1559.081085 520.132035 
L 1578.866096 484.222471 
L 1598.651107 452.041951 
L 1618.436119 425.844462 
L 1638.22113 406.280201 
L 1658.006141 392.795465 
L 1677.791152 384.182634 
" clip-path="url(#pea9a2893ef)" style="fill: none; stroke: #008000; stroke-width: 4; stroke-linecap: square"/>
   </g>
   <g id="line2d_55">
    <path d="M 1005.100769 316.056294 
L 1024.88578 314.556929 
L 1044.670792 313.580147 
L 1064.455803 313.170112 
L 1084.240814 313.361658 
L 1104.025826 314.180409 
L 1123.810837 315.642682 
L 1143.595848 317.756483 
L 1163.380859 320.527169 
L 1183.165871 323.974175 
L 1202.950882 328.167712 
L 1222.735893 333.294451 
L 1242.520904 339.755332 
L 1262.305916 348.282636 
L 1282.090927 360.035729 
L 1301.875938 376.601937 
L 1321.660949 399.809546 
L 1341.445961 431.281908 
L 1361.230972 471.747515 
L 1381.015983 520.262518 
L 1400.800995 573.643651 
L 1420.586006 626.458354 
L 1440.371017 671.79655 
L 1460.156028 702.756626 
L 1479.94104 714.231818 
L 1499.726051 704.367557 
L 1519.511062 675.121492 
L 1539.296073 631.697804 
L 1559.081085 581.084004 
L 1578.866096 530.258422 
L 1598.651107 484.698142 
L 1618.436119 447.60175 
L 1638.22113 419.895233 
L 1658.006141 400.797538 
L 1677.791152 388.59977 
" clip-path="url(#pea9a2893ef)" style="fill: none; stroke: #0000ff; stroke-width: 4; stroke-linecap: square"/>
   </g>
   <g id="line2d_56">
    <path d="M 1005.100769 250.599397 
L 1024.88578 183.747771 
L 1044.670792 125.586623 
L 1064.455803 80.526123 
L 1084.240814 51.762748 
L 1104.025826 40.868182 
L 1123.810837 47.614065 
L 1143.595848 70.063013 
L 1163.380859 104.903023 
L 1183.165871 147.954599 
L 1202.950882 194.749338 
L 1222.735893 241.072089 
L 1242.520904 283.37705 
L 1262.305916 319.026034 
L 1282.090927 346.345403 
L 1301.875938 364.544515 
L 1321.660949 373.569879 
L 1341.445961 373.973808 
L 1361.230972 366.848422 
L 1381.015983 353.821774 
L 1400.800995 337.054129 
L 1420.586006 319.140857 
L 1440.371017 302.850298 
L 1460.156028 290.701335 
L 1479.94104 284.483013 
L 1499.726051 284.882282 
L 1519.511062 291.372123 
L 1539.296073 302.41857 
L 1559.081085 315.937209 
L 1578.866096 329.834492 
L 1598.651107 342.453206 
L 1618.436119 352.804461 
L 1638.22113 360.568656 
L 1658.006141 365.931859 
L 1677.791152 369.359023 
" clip-path="url(#pea9a2893ef)" style="fill: none; stroke: #a020f0; stroke-width: 4; stroke-linecap: square"/>
   </g>
   <g id="line2d_57">
    <path d="M 1005.100769 633.449822 
L 1024.88578 660.935258 
L 1044.670792 680.995002 
L 1064.455803 691.904289 
L 1084.240814 692.647256 
L 1104.025826 683.074158 
L 1123.810837 663.940231 
L 1143.595848 636.815624 
L 1163.380859 603.881078 
L 1183.165871 567.645873 
L 1202.950882 530.637822 
L 1222.735893 495.116848 
L 1242.520904 462.85462 
L 1262.305916 435.006292 
L 1282.090927 412.081826 
L 1301.875938 394.008203 
L 1321.660949 380.262725 
L 1341.445961 370.051281 
L 1361.230972 362.501953 
L 1381.015983 356.841987 
L 1400.800995 352.526135 
L 1420.586006 349.290137 
L 1440.371017 347.11834 
L 1460.156028 346.138189 
L 1479.94104 346.478981 
L 1499.726051 348.145918 
L 1519.511062 350.954331 
L 1539.296073 354.543523 
L 1559.081085 358.456655 
L 1578.866096 362.248515 
L 1598.651107 365.577871 
L 1618.436119 368.255282 
L 1638.22113 370.240567 
L 1658.006141 371.604062 
L 1677.791152 372.474318 
" clip-path="url(#pea9a2893ef)" style="fill: none; stroke: #a63600; stroke-width: 4; stroke-linecap: square"/>
   </g>
   <g id="patch_9">
    <path d="M 971.46625 747.9 
L 971.46625 7.2 
" style="fill: none; stroke: #000000; stroke-width: 0.8; stroke-linejoin: miter; stroke-linecap: square"/>
   </g>
   <g id="patch_10">
    <path d="M 1711.425671 747.9 
L 1711.425671 7.2 
" style="fill: none; stroke: #000000; stroke-width: 0.8; stroke-linejoin: miter; stroke-linecap: square"/>
   </g>
   <g id="patch_11">
    <path d="M 971.46625 747.9 
L 1711.425671 747.9 
" style="fill: none; stroke: #000000; stroke-width: 0.8; stroke-linejoin: miter; stroke-linecap: square"/>
   </g>
   <g id="patch_12">
    <path d="M 971.46625 7.2 
L 1711.425671 7.2 
" style="fill: none; stroke: #000000; stroke-width: 0.8; stroke-linejoin: miter; stroke-linecap: square"/>
   </g>
   <g id="legend_2">
    <g id="patch_13">
     <path d="M 1082.295179 1038.235781 
L 1600.596742 1038.235781 
Q 1606.596742 1038.235781 1606.596742 1032.235781 
L 1606.596742 907.984219 
Q 1606.596742 901.984219 1600.596742 901.984219 
L 1082.295179 901.984219 
Q 1076.295179 901.984219 1076.295179 907.984219 
L 1076.295179 1032.235781 
Q 1076.295179 1038.235781 1082.295179 1038.235781 
z
" style="fill: #ffffff; stroke: #000000; stroke-linejoin: miter"/>
    </g>
    <g id="line2d_58">
     <path d="M 1088.295179 924.484219 
L 1118.295179 924.484219 
L 1148.295179 924.484219 
" style="fill: none; stroke: #ff0000; stroke-width: 4; stroke-linecap: square"/>
    </g>
    <g id="text_29">
     <!-- 1-st 991.16 -->
     <g style="fill: #ff0000" transform="translate(1172.295179 934.984219) scale(0.3 -0.3)">
      <use xlink:href="#TimesNewRomanPSMT-31"/>
      <use xlink:href="#TimesNewRomanPSMT-2d" x="50"/>
      <use xlink:href="#TimesNewRomanPSMT-73" x="83.300781"/>
      <use xlink:href="#TimesNewRomanPSMT-74" x="122.216797"/>
      <use xlink:href="#TimesNewRomanPSMT-20" x="150"/>
      <use xlink:href="#TimesNewRomanPSMT-39" x="175"/>
      <use xlink:href="#TimesNewRomanPSMT-39" x="225"/>
      <use xlink:href="#TimesNewRomanPSMT-31" x="275"/>
      <use xlink:href="#TimesNewRomanPSMT-2e" x="325"/>
      <use xlink:href="#TimesNewRomanPSMT-31" x="350"/>
      <use xlink:href="#TimesNewRomanPSMT-36" x="400"/>
     </g>
    </g>
    <g id="line2d_59">
     <path d="M 1088.295179 966.901406 
L 1118.295179 966.901406 
L 1148.295179 966.901406 
" style="fill: none; stroke: #008000; stroke-width: 4; stroke-linecap: square"/>
    </g>
    <g id="text_30">
     <!-- 3-rd 648.23 -->
     <g style="fill: #008000" transform="translate(1172.295179 977.401406) scale(0.3 -0.3)">
      <use xlink:href="#TimesNewRomanPSMT-33"/>
      <use xlink:href="#TimesNewRomanPSMT-2d" x="50"/>
      <use xlink:href="#TimesNewRomanPSMT-72" x="83.300781"/>
      <use xlink:href="#TimesNewRomanPSMT-64" x="116.601562"/>
      <use xlink:href="#TimesNewRomanPSMT-20" x="166.601562"/>
      <use xlink:href="#TimesNewRomanPSMT-36" x="191.601562"/>
      <use xlink:href="#TimesNewRomanPSMT-34" x="241.601562"/>
      <use xlink:href="#TimesNewRomanPSMT-38" x="291.601562"/>
      <use xlink:href="#TimesNewRomanPSMT-2e" x="341.601562"/>
      <use xlink:href="#TimesNewRomanPSMT-32" x="366.601562"/>
      <use xlink:href="#TimesNewRomanPSMT-33" x="416.601562"/>
     </g>
    </g>
    <g id="line2d_60">
     <path d="M 1088.295179 1009.318594 
L 1118.295179 1009.318594 
L 1148.295179 1009.318594 
" style="fill: none; stroke: #0000ff; stroke-width: 4; stroke-linecap: square"/>
    </g>
    <g id="text_31">
     <!-- 5-th 492.57 -->
     <g style="fill: #0000ff" transform="translate(1172.295179 1019.818594) scale(0.3 -0.3)">
      <use xlink:href="#TimesNewRomanPSMT-35"/>
      <use xlink:href="#TimesNewRomanPSMT-2d" x="50"/>
      <use xlink:href="#TimesNewRomanPSMT-74" x="83.300781"/>
      <use xlink:href="#TimesNewRomanPSMT-68" x="111.083984"/>
      <use xlink:href="#TimesNewRomanPSMT-20" x="161.083984"/>
      <use xlink:href="#TimesNewRomanPSMT-34" x="186.083984"/>
      <use xlink:href="#TimesNewRomanPSMT-39" x="236.083984"/>
      <use xlink:href="#TimesNewRomanPSMT-32" x="286.083984"/>
      <use xlink:href="#TimesNewRomanPSMT-2e" x="336.083984"/>
      <use xlink:href="#TimesNewRomanPSMT-35" x="361.083984"/>
      <use xlink:href="#TimesNewRomanPSMT-37" x="411.083984"/>
     </g>
    </g>
    <g id="line2d_61">
     <path d="M 1372.273304 924.484219 
L 1402.273304 924.484219 
L 1432.273304 924.484219 
" style="fill: none; stroke: #a020f0; stroke-width: 4; stroke-linecap: square"/>
    </g>
    <g id="text_32">
     <!-- 7-th 492.1 -->
     <g style="fill: #a020f0" transform="translate(1456.273304 934.984219) scale(0.3 -0.3)">
      <use xlink:href="#TimesNewRomanPSMT-37"/>
      <use xlink:href="#TimesNewRomanPSMT-2d" x="50"/>
      <use xlink:href="#TimesNewRomanPSMT-74" x="83.300781"/>
      <use xlink:href="#TimesNewRomanPSMT-68" x="111.083984"/>
      <use xlink:href="#TimesNewRomanPSMT-20" x="161.083984"/>
      <use xlink:href="#TimesNewRomanPSMT-34" x="186.083984"/>
      <use xlink:href="#TimesNewRomanPSMT-39" x="236.083984"/>
      <use xlink:href="#TimesNewRomanPSMT-32" x="286.083984"/>
      <use xlink:href="#TimesNewRomanPSMT-2e" x="336.083984"/>
      <use xlink:href="#TimesNewRomanPSMT-31" x="361.083984"/>
     </g>
    </g>
    <g id="line2d_62">
     <path d="M 1372.273304 966.901406 
L 1402.273304 966.901406 
L 1432.273304 966.901406 
" style="fill: none; stroke: #a63600; stroke-width: 4; stroke-linecap: square"/>
    </g>
    <g id="text_33">
     <!-- 9-th 899.82 -->
     <g style="fill: #a63600" transform="translate(1456.273304 977.401406) scale(0.3 -0.3)">
      <use xlink:href="#TimesNewRomanPSMT-39"/>
      <use xlink:href="#TimesNewRomanPSMT-2d" x="50"/>
      <use xlink:href="#TimesNewRomanPSMT-74" x="83.300781"/>
      <use xlink:href="#TimesNewRomanPSMT-68" x="111.083984"/>
      <use xlink:href="#TimesNewRomanPSMT-20" x="161.083984"/>
      <use xlink:href="#TimesNewRomanPSMT-38" x="186.083984"/>
      <use xlink:href="#TimesNewRomanPSMT-39" x="236.083984"/>
      <use xlink:href="#TimesNewRomanPSMT-39" x="286.083984"/>
      <use xlink:href="#TimesNewRomanPSMT-2e" x="336.083984"/>
      <use xlink:href="#TimesNewRomanPSMT-38" x="361.083984"/>
      <use xlink:href="#TimesNewRomanPSMT-32" x="411.083984"/>
     </g>
    </g>
   </g>
  </g>
 </g>
 <defs>
  <clipPath id="p5958442e6e">
   <rect x="103.25625" y="7.2" width="739.959421" height="740.7"/>
  </clipPath>
  <clipPath id="pea9a2893ef">
   <rect x="971.46625" y="7.2" width="739.959421" height="740.7"/>
  </clipPath>
 </defs>
</svg>
