<?xml version="1.0" encoding="utf-8" standalone="no"?>
<!DOCTYPE svg PUBLIC "-//W3C//DTD SVG 1.1//EN"
  "http://www.w3.org/Graphics/SVG/1.1/DTD/svg11.dtd">
<svg xmlns:xlink="http://www.w3.org/1999/xlink" width="1285.350836pt" height="675.307018pt" viewBox="0 0 1285.350836 675.307018" xmlns="http://www.w3.org/2000/svg" version="1.1">
 <metadata>
  <rdf:RDF xmlns:dc="http://purl.org/dc/elements/1.1/" xmlns:cc="http://creativecommons.org/ns#" xmlns:rdf="http://www.w3.org/1999/02/22-rdf-syntax-ns#">
   <cc:Work>
    <dc:type rdf:resource="http://purl.org/dc/dcmitype/StillImage"/>
    <dc:date>2024-04-25T02:15:58.793041</dc:date>
    <dc:format>image/svg+xml</dc:format>
    <dc:creator>
     <cc:Agent>
      <dc:title>Matplotlib v3.8.0, https://matplotlib.org/</dc:title>
     </cc:Agent>
    </dc:creator>
   </cc:Work>
  </rdf:RDF>
 </metadata>
 <defs>
  <style type="text/css">*{stroke-linejoin: round; stroke-linecap: butt}</style>
 </defs>
 <g id="figure_1">
  <g id="patch_1">
   <path d="M 0 675.307018 
L 1285.350836 675.307018 
L 1285.350836 0 
L 0 0 
z
" style="fill: #ffffff"/>
  </g>
  <g id="axes_1">
   <g id="patch_2">
    <path d="M 83.25625 563.549205 
L 621.650816 563.549205 
L 621.650816 13.938018 
L 83.25625 13.938018 
z
" style="fill: #ffffff"/>
   </g>
   <g id="matplotlib.axis_1">
    <g id="xtick_1">
     <g id="line2d_1">
      <path d="M 143.984257 563.549205 
L 143.984257 13.938018 
" clip-path="url(#p540a12d532)" style="fill: none; stroke: #000000; stroke-width: 0.7; stroke-linecap: square"/>
     </g>
     <g id="line2d_2">
      <defs>
       <path id="mcb68a97910" d="M 0 0 
L 0 -10 
" style="stroke: #000000; stroke-width: 2"/>
      </defs>
      <g>
       <use xlink:href="#mcb68a97910" x="143.984257" y="563.549205" style="stroke: #000000; stroke-width: 2"/>
      </g>
     </g>
     <g id="text_1">
      <!-- 250 -->
      <g transform="translate(113.984257 606.324205) scale(0.4 -0.4)">
       <defs>
        <path id="TimesNewRomanPSMT-32" d="M 2934 816 
L 2638 0 
L 138 0 
L 138 116 
Q 1241 1122 1691 1759 
Q 2141 2397 2141 2925 
Q 2141 3328 1894 3587 
Q 1647 3847 1303 3847 
Q 991 3847 742 3664 
Q 494 3481 375 3128 
L 259 3128 
Q 338 3706 661 4015 
Q 984 4325 1469 4325 
Q 1984 4325 2329 3994 
Q 2675 3663 2675 3213 
Q 2675 2891 2525 2569 
Q 2294 2063 1775 1497 
Q 997 647 803 472 
L 1909 472 
Q 2247 472 2383 497 
Q 2519 522 2628 598 
Q 2738 675 2819 816 
L 2934 816 
z
" transform="scale(0.015625)"/>
        <path id="TimesNewRomanPSMT-35" d="M 2778 4238 
L 2534 3706 
L 1259 3706 
L 981 3138 
Q 1809 3016 2294 2522 
Q 2709 2097 2709 1522 
Q 2709 1188 2573 903 
Q 2438 619 2231 419 
Q 2025 219 1772 97 
Q 1413 -75 1034 -75 
Q 653 -75 479 54 
Q 306 184 306 341 
Q 306 428 378 495 
Q 450 563 559 563 
Q 641 563 702 538 
Q 763 513 909 409 
Q 1144 247 1384 247 
Q 1750 247 2026 523 
Q 2303 800 2303 1197 
Q 2303 1581 2056 1914 
Q 1809 2247 1375 2428 
Q 1034 2569 447 2591 
L 1259 4238 
L 2778 4238 
z
" transform="scale(0.015625)"/>
        <path id="TimesNewRomanPSMT-30" d="M 231 2094 
Q 231 2819 450 3342 
Q 669 3866 1031 4122 
Q 1313 4325 1613 4325 
Q 2100 4325 2488 3828 
Q 2972 3213 2972 2159 
Q 2972 1422 2759 906 
Q 2547 391 2217 158 
Q 1888 -75 1581 -75 
Q 975 -75 572 641 
Q 231 1244 231 2094 
z
M 844 2016 
Q 844 1141 1059 588 
Q 1238 122 1591 122 
Q 1759 122 1940 273 
Q 2122 425 2216 781 
Q 2359 1319 2359 2297 
Q 2359 3022 2209 3506 
Q 2097 3866 1919 4016 
Q 1791 4119 1609 4119 
Q 1397 4119 1231 3928 
Q 1006 3669 925 3112 
Q 844 2556 844 2016 
z
" transform="scale(0.015625)"/>
       </defs>
       <use xlink:href="#TimesNewRomanPSMT-32"/>
       <use xlink:href="#TimesNewRomanPSMT-35" x="50"/>
       <use xlink:href="#TimesNewRomanPSMT-30" x="100"/>
      </g>
     </g>
    </g>
    <g id="xtick_2">
     <g id="line2d_3">
      <path d="M 234.623072 563.549205 
L 234.623072 13.938018 
" clip-path="url(#p540a12d532)" style="fill: none; stroke: #000000; stroke-width: 0.7; stroke-linecap: square"/>
     </g>
     <g id="line2d_4">
      <g>
       <use xlink:href="#mcb68a97910" x="234.623072" y="563.549205" style="stroke: #000000; stroke-width: 2"/>
      </g>
     </g>
     <g id="text_2">
      <!-- 300 -->
      <g transform="translate(204.623072 606.324205) scale(0.4 -0.4)">
       <defs>
        <path id="TimesNewRomanPSMT-33" d="M 325 3431 
Q 506 3859 782 4092 
Q 1059 4325 1472 4325 
Q 1981 4325 2253 3994 
Q 2459 3747 2459 3466 
Q 2459 3003 1878 2509 
Q 2269 2356 2469 2072 
Q 2669 1788 2669 1403 
Q 2669 853 2319 450 
Q 1863 -75 997 -75 
Q 569 -75 414 31 
Q 259 138 259 259 
Q 259 350 332 419 
Q 406 488 509 488 
Q 588 488 669 463 
Q 722 447 909 348 
Q 1097 250 1169 231 
Q 1284 197 1416 197 
Q 1734 197 1970 444 
Q 2206 691 2206 1028 
Q 2206 1275 2097 1509 
Q 2016 1684 1919 1775 
Q 1784 1900 1550 2001 
Q 1316 2103 1072 2103 
L 972 2103 
L 972 2197 
Q 1219 2228 1467 2375 
Q 1716 2522 1828 2728 
Q 1941 2934 1941 3181 
Q 1941 3503 1739 3701 
Q 1538 3900 1238 3900 
Q 753 3900 428 3381 
L 325 3431 
z
" transform="scale(0.015625)"/>
       </defs>
       <use xlink:href="#TimesNewRomanPSMT-33"/>
       <use xlink:href="#TimesNewRomanPSMT-30" x="50"/>
       <use xlink:href="#TimesNewRomanPSMT-30" x="100"/>
      </g>
     </g>
    </g>
    <g id="xtick_3">
     <g id="line2d_5">
      <path d="M 325.261888 563.549205 
L 325.261888 13.938018 
" clip-path="url(#p540a12d532)" style="fill: none; stroke: #000000; stroke-width: 0.7; stroke-linecap: square"/>
     </g>
     <g id="line2d_6">
      <g>
       <use xlink:href="#mcb68a97910" x="325.261888" y="563.549205" style="stroke: #000000; stroke-width: 2"/>
      </g>
     </g>
     <g id="text_3">
      <!-- 350 -->
      <g transform="translate(295.261888 606.324205) scale(0.4 -0.4)">
       <use xlink:href="#TimesNewRomanPSMT-33"/>
       <use xlink:href="#TimesNewRomanPSMT-35" x="50"/>
       <use xlink:href="#TimesNewRomanPSMT-30" x="100"/>
      </g>
     </g>
    </g>
    <g id="xtick_4">
     <g id="line2d_7">
      <path d="M 415.900704 563.549205 
L 415.900704 13.938018 
" clip-path="url(#p540a12d532)" style="fill: none; stroke: #000000; stroke-width: 0.7; stroke-linecap: square"/>
     </g>
     <g id="line2d_8">
      <g>
       <use xlink:href="#mcb68a97910" x="415.900704" y="563.549205" style="stroke: #000000; stroke-width: 2"/>
      </g>
     </g>
     <g id="text_4">
      <!-- 400 -->
      <g transform="translate(385.900704 606.324205) scale(0.4 -0.4)">
       <defs>
        <path id="TimesNewRomanPSMT-34" d="M 2978 1563 
L 2978 1119 
L 2409 1119 
L 2409 0 
L 1894 0 
L 1894 1119 
L 100 1119 
L 100 1519 
L 2066 4325 
L 2409 4325 
L 2409 1563 
L 2978 1563 
z
M 1894 1563 
L 1894 3666 
L 406 1563 
L 1894 1563 
z
" transform="scale(0.015625)"/>
       </defs>
       <use xlink:href="#TimesNewRomanPSMT-34"/>
       <use xlink:href="#TimesNewRomanPSMT-30" x="50"/>
       <use xlink:href="#TimesNewRomanPSMT-30" x="100"/>
      </g>
     </g>
    </g>
    <g id="xtick_5">
     <g id="line2d_9">
      <path d="M 506.53952 563.549205 
L 506.53952 13.938018 
" clip-path="url(#p540a12d532)" style="fill: none; stroke: #000000; stroke-width: 0.7; stroke-linecap: square"/>
     </g>
     <g id="line2d_10">
      <g>
       <use xlink:href="#mcb68a97910" x="506.53952" y="563.549205" style="stroke: #000000; stroke-width: 2"/>
      </g>
     </g>
     <g id="text_5">
      <!-- 450 -->
      <g transform="translate(476.53952 606.324205) scale(0.4 -0.4)">
       <use xlink:href="#TimesNewRomanPSMT-34"/>
       <use xlink:href="#TimesNewRomanPSMT-35" x="50"/>
       <use xlink:href="#TimesNewRomanPSMT-30" x="100"/>
      </g>
     </g>
    </g>
    <g id="xtick_6">
     <g id="line2d_11">
      <path d="M 597.178336 563.549205 
L 597.178336 13.938018 
" clip-path="url(#p540a12d532)" style="fill: none; stroke: #000000; stroke-width: 0.7; stroke-linecap: square"/>
     </g>
     <g id="line2d_12">
      <g>
       <use xlink:href="#mcb68a97910" x="597.178336" y="563.549205" style="stroke: #000000; stroke-width: 2"/>
      </g>
     </g>
     <g id="text_6">
      <!-- 500 -->
      <g transform="translate(567.178336 606.324205) scale(0.4 -0.4)">
       <use xlink:href="#TimesNewRomanPSMT-35"/>
       <use xlink:href="#TimesNewRomanPSMT-30" x="50"/>
       <use xlink:href="#TimesNewRomanPSMT-30" x="100"/>
      </g>
     </g>
    </g>
    <g id="text_7">
     <!-- длина волны регистрации, нм -->
     <g transform="translate(86.166971 659.044205) scale(0.42 -0.42)">
      <defs>
       <path id="TimesNewRomanPSMT-434" d="M 591 2863 
L 3116 2863 
L 3116 2744 
Q 2903 2744 2833 2701 
Q 2763 2659 2722 2596 
Q 2681 2534 2681 2191 
L 2681 775 
Q 2681 328 2757 226 
Q 2834 125 3116 116 
L 3116 -794 
L 2997 -794 
Q 2984 -538 2870 -347 
Q 2756 -156 2553 -78 
Q 2350 0 1953 0 
L 1216 0 
Q 872 0 678 -61 
Q 484 -122 354 -315 
Q 225 -509 197 -794 
L 81 -794 
L 81 116 
Q 338 125 547 319 
Q 756 513 915 1078 
Q 1075 1644 1075 2191 
Q 1075 2728 591 2744 
L 591 2863 
z
M 1281 2659 
L 1281 2488 
Q 1281 953 725 203 
L 1788 203 
Q 2075 203 2119 251 
Q 2163 300 2163 609 
L 2163 2659 
L 1281 2659 
z
" transform="scale(0.015625)"/>
       <path id="TimesNewRomanPSMT-43b" d="M 494 2863 
L 3053 2863 
L 3053 2744 
Q 2841 2744 2770 2701 
Q 2700 2659 2659 2596 
Q 2619 2534 2619 2191 
L 2619 672 
Q 2619 341 2653 277 
Q 2688 213 2761 164 
Q 2834 116 3053 116 
L 3053 0 
L 1572 0 
L 1572 116 
Q 1813 116 1905 141 
Q 1997 166 2050 261 
Q 2103 356 2103 672 
L 2103 2659 
L 1150 2659 
L 1150 1453 
Q 1150 769 1089 492 
Q 1028 216 848 83 
Q 669 -50 438 -50 
Q 38 -50 38 281 
Q 38 394 102 466 
Q 166 538 269 538 
Q 378 538 472 447 
Q 594 328 656 328 
Q 797 328 861 564 
Q 925 800 925 1391 
L 925 2022 
Q 925 2509 854 2615 
Q 784 2722 494 2744 
L 494 2863 
z
" transform="scale(0.015625)"/>
       <path id="TimesNewRomanPSMT-438" d="M 1094 881 
L 2331 2313 
Q 2325 2553 2240 2647 
Q 2156 2741 1950 2744 
L 1950 2863 
L 3281 2863 
L 3281 2744 
Q 3072 2744 3000 2701 
Q 2928 2659 2887 2596 
Q 2847 2534 2847 2191 
L 2847 672 
Q 2847 341 2881 277 
Q 2916 213 2989 164 
Q 3063 116 3281 116 
L 3281 0 
L 1897 0 
L 1897 116 
Q 2156 116 2243 211 
Q 2331 306 2331 672 
L 2331 2019 
L 1094 584 
Q 1100 319 1169 219 
Q 1238 119 1466 116 
L 1466 0 
L 144 0 
L 144 116 
Q 422 116 500 217 
Q 578 319 578 672 
L 578 2191 
Q 578 2525 543 2586 
Q 509 2647 437 2695 
Q 366 2744 144 2744 
L 144 2863 
L 1528 2863 
L 1528 2744 
Q 1319 2744 1247 2701 
Q 1175 2659 1134 2596 
Q 1094 2534 1094 2191 
L 1094 881 
z
" transform="scale(0.015625)"/>
       <path id="TimesNewRomanPSMT-43d" d="M 1094 1584 
L 2331 1584 
L 2331 2191 
Q 2331 2463 2309 2545 
Q 2288 2628 2202 2686 
Q 2116 2744 1897 2744 
L 1897 2863 
L 3281 2863 
L 3281 2744 
Q 3088 2744 2998 2700 
Q 2909 2656 2878 2573 
Q 2847 2491 2847 2191 
L 2847 672 
Q 2847 400 2870 312 
Q 2894 225 2984 170 
Q 3075 116 3281 116 
L 3281 0 
L 1897 0 
L 1897 116 
Q 2156 116 2243 211 
Q 2331 306 2331 672 
L 2331 1381 
L 1094 1381 
L 1094 672 
Q 1094 400 1117 312 
Q 1141 225 1231 170 
Q 1322 116 1528 116 
L 1528 0 
L 144 0 
L 144 116 
Q 422 116 500 217 
Q 578 319 578 672 
L 578 2191 
Q 578 2463 554 2550 
Q 531 2638 440 2691 
Q 350 2744 144 2744 
L 144 2863 
L 1528 2863 
L 1528 2744 
Q 1334 2744 1245 2700 
Q 1156 2656 1125 2573 
Q 1094 2491 1094 2191 
L 1094 1584 
z
" transform="scale(0.015625)"/>
       <path id="TimesNewRomanPSMT-430" d="M 1822 413 
Q 1381 72 1269 19 
Q 1100 -59 909 -59 
Q 613 -59 420 144 
Q 228 347 228 678 
Q 228 888 322 1041 
Q 450 1253 767 1440 
Q 1084 1628 1822 1897 
L 1822 2009 
Q 1822 2438 1686 2597 
Q 1550 2756 1291 2756 
Q 1094 2756 978 2650 
Q 859 2544 859 2406 
L 866 2225 
Q 866 2081 792 2003 
Q 719 1925 600 1925 
Q 484 1925 411 2006 
Q 338 2088 338 2228 
Q 338 2497 613 2722 
Q 888 2947 1384 2947 
Q 1766 2947 2009 2819 
Q 2194 2722 2281 2516 
Q 2338 2381 2338 1966 
L 2338 994 
Q 2338 584 2353 492 
Q 2369 400 2405 369 
Q 2441 338 2488 338 
Q 2538 338 2575 359 
Q 2641 400 2828 588 
L 2828 413 
Q 2478 -56 2159 -56 
Q 2006 -56 1915 50 
Q 1825 156 1822 413 
z
M 1822 616 
L 1822 1706 
Q 1350 1519 1213 1441 
Q 966 1303 859 1153 
Q 753 1003 753 825 
Q 753 600 887 451 
Q 1022 303 1197 303 
Q 1434 303 1822 616 
z
" transform="scale(0.015625)"/>
       <path id="TimesNewRomanPSMT-20" transform="scale(0.015625)"/>
       <path id="TimesNewRomanPSMT-432" d="M 2016 1513 
Q 2800 1350 2800 778 
Q 2800 388 2473 194 
Q 2147 0 1563 0 
L 150 0 
L 150 116 
Q 428 116 501 220 
Q 575 325 575 672 
L 575 2191 
Q 575 2528 542 2587 
Q 509 2647 439 2695 
Q 369 2744 150 2744 
L 150 2863 
L 1469 2863 
Q 1850 2863 2086 2803 
Q 2322 2744 2473 2569 
Q 2625 2394 2625 2144 
Q 2625 1656 2016 1513 
z
M 1094 1584 
Q 1231 1581 1259 1581 
Q 1688 1581 1878 1745 
Q 2069 1909 2069 2144 
Q 2069 2416 1875 2537 
Q 1681 2659 1256 2659 
L 1094 2659 
L 1094 1584 
z
M 1094 253 
Q 1250 203 1466 203 
Q 1838 203 2019 365 
Q 2200 528 2200 784 
Q 2200 1072 1965 1225 
Q 1731 1378 1316 1378 
Q 1213 1378 1094 1372 
L 1094 253 
z
" transform="scale(0.015625)"/>
       <path id="TimesNewRomanPSMT-43e" d="M 1600 2947 
Q 2250 2947 2644 2453 
Q 2978 2031 2978 1484 
Q 2978 1100 2793 706 
Q 2609 313 2286 112 
Q 1963 -88 1566 -88 
Q 919 -88 538 428 
Q 216 863 216 1403 
Q 216 1797 411 2186 
Q 606 2575 925 2761 
Q 1244 2947 1600 2947 
z
M 1503 2744 
Q 1338 2744 1170 2645 
Q 1003 2547 900 2300 
Q 797 2053 797 1666 
Q 797 1041 1045 587 
Q 1294 134 1700 134 
Q 2003 134 2200 384 
Q 2397 634 2397 1244 
Q 2397 2006 2069 2444 
Q 1847 2744 1503 2744 
z
" transform="scale(0.015625)"/>
       <path id="TimesNewRomanPSMT-44b" d="M 2716 2744 
L 2716 2863 
L 4156 2863 
L 4156 2744 
Q 3966 2744 3878 2703 
Q 3791 2663 3758 2578 
Q 3725 2494 3725 2191 
L 3725 672 
Q 3725 378 3753 292 
Q 3781 206 3873 161 
Q 3966 116 4156 116 
L 4156 0 
L 2716 0 
L 2716 116 
Q 2959 125 3032 148 
Q 3106 172 3156 269 
Q 3206 366 3206 672 
L 3206 2191 
Q 3206 2494 3172 2581 
Q 3138 2669 3052 2705 
Q 2966 2741 2716 2744 
z
M 1091 1588 
L 1447 1594 
Q 2722 1594 2722 806 
Q 2722 441 2411 220 
Q 2100 0 1516 0 
L 141 0 
L 141 116 
Q 419 116 497 217 
Q 575 319 575 672 
L 575 2191 
Q 575 2525 540 2586 
Q 506 2647 434 2695 
Q 363 2744 141 2744 
L 141 2863 
L 1638 2863 
L 1638 2744 
Q 1328 2744 1256 2708 
Q 1184 2672 1137 2614 
Q 1091 2556 1091 2191 
L 1091 1588 
z
M 1091 247 
Q 1256 203 1422 203 
Q 1734 203 1929 368 
Q 2125 534 2125 788 
Q 2125 1388 1291 1388 
Q 1219 1388 1091 1384 
L 1091 247 
z
" transform="scale(0.015625)"/>
       <path id="TimesNewRomanPSMT-440" d="M -6 2578 
L 875 2934 
L 994 2934 
L 994 2266 
Q 1216 2644 1439 2795 
Q 1663 2947 1909 2947 
Q 2341 2947 2628 2609 
Q 2981 2197 2981 1534 
Q 2981 794 2556 309 
Q 2206 -88 1675 -88 
Q 1444 -88 1275 -22 
Q 1150 25 994 166 
L 994 -706 
Q 994 -1000 1030 -1079 
Q 1066 -1159 1155 -1206 
Q 1244 -1253 1478 -1253 
L 1478 -1369 
L -22 -1369 
L -22 -1253 
L 56 -1253 
Q 228 -1256 350 -1188 
Q 409 -1153 442 -1076 
Q 475 -1000 475 -688 
L 475 2019 
Q 475 2297 450 2372 
Q 425 2447 370 2484 
Q 316 2522 222 2522 
Q 147 2522 31 2478 
L -6 2578 
z
M 994 2081 
L 994 1013 
Q 994 666 1022 556 
Q 1066 375 1236 237 
Q 1406 100 1666 100 
Q 1978 100 2172 344 
Q 2425 663 2425 1241 
Q 2425 1897 2138 2250 
Q 1938 2494 1663 2494 
Q 1513 2494 1366 2419 
Q 1253 2363 994 2081 
z
" transform="scale(0.015625)"/>
       <path id="TimesNewRomanPSMT-435" d="M 681 1784 
Q 678 1147 991 784 
Q 1303 422 1725 422 
Q 2006 422 2214 576 
Q 2422 731 2563 1106 
L 2659 1044 
Q 2594 616 2278 264 
Q 1963 -88 1488 -88 
Q 972 -88 605 314 
Q 238 716 238 1394 
Q 238 2128 614 2539 
Q 991 2950 1559 2950 
Q 2041 2950 2350 2633 
Q 2659 2316 2659 1784 
L 681 1784 
z
M 681 1966 
L 2006 1966 
Q 1991 2241 1941 2353 
Q 1863 2528 1708 2628 
Q 1553 2728 1384 2728 
Q 1125 2728 920 2526 
Q 716 2325 681 1966 
z
" transform="scale(0.015625)"/>
       <path id="TimesNewRomanPSMT-433" d="M 2469 2863 
L 2584 2081 
L 2447 2081 
Q 2328 2469 2208 2564 
Q 2088 2659 1700 2659 
L 1094 2659 
L 1094 672 
Q 1094 341 1128 277 
Q 1163 213 1236 164 
Q 1309 116 1528 116 
L 1528 0 
L 97 0 
L 97 116 
Q 403 122 490 211 
Q 578 300 578 672 
L 578 2191 
Q 578 2494 543 2580 
Q 509 2666 423 2703 
Q 338 2741 97 2744 
L 97 2863 
L 2469 2863 
z
" transform="scale(0.015625)"/>
       <path id="TimesNewRomanPSMT-441" d="M 2631 1088 
Q 2516 522 2178 217 
Q 1841 -88 1431 -88 
Q 944 -88 581 321 
Q 219 731 219 1428 
Q 219 2103 620 2525 
Q 1022 2947 1584 2947 
Q 2006 2947 2278 2723 
Q 2550 2500 2550 2259 
Q 2550 2141 2473 2067 
Q 2397 1994 2259 1994 
Q 2075 1994 1981 2113 
Q 1928 2178 1911 2362 
Q 1894 2547 1784 2644 
Q 1675 2738 1481 2738 
Q 1169 2738 978 2506 
Q 725 2200 725 1697 
Q 725 1184 976 792 
Q 1228 400 1656 400 
Q 1963 400 2206 609 
Q 2378 753 2541 1131 
L 2631 1088 
z
" transform="scale(0.015625)"/>
       <path id="TimesNewRomanPSMT-442" d="M 156 2863 
L 2631 2863 
L 2756 2088 
L 2616 2088 
Q 2578 2322 2490 2450 
Q 2403 2578 2290 2618 
Q 2178 2659 1906 2659 
L 1656 2659 
L 1656 672 
Q 1656 353 1695 267 
Q 1734 181 1821 153 
Q 1909 125 2222 116 
L 2222 0 
L 666 0 
L 666 116 
Q 966 122 1052 212 
Q 1138 303 1138 672 
L 1138 2659 
L 881 2659 
Q 613 2659 516 2626 
Q 419 2594 330 2470 
Q 241 2347 178 2088 
L 38 2088 
L 156 2863 
z
" transform="scale(0.015625)"/>
       <path id="TimesNewRomanPSMT-446" d="M 3281 116 
L 3281 -794 
L 3166 -794 
Q 3156 -428 2926 -214 
Q 2697 0 2094 0 
L 144 0 
L 144 116 
Q 422 116 500 217 
Q 578 319 578 672 
L 578 2191 
Q 578 2525 543 2586 
Q 509 2647 437 2695 
Q 366 2744 144 2744 
L 144 2863 
L 1528 2863 
L 1528 2744 
Q 1319 2744 1247 2701 
Q 1175 2659 1134 2596 
Q 1094 2534 1094 2191 
L 1094 575 
Q 1094 303 1142 253 
Q 1191 203 1453 203 
L 1959 203 
Q 2250 203 2290 256 
Q 2331 309 2331 600 
L 2331 2191 
Q 2331 2488 2300 2573 
Q 2269 2659 2178 2701 
Q 2088 2744 1897 2744 
L 1897 2863 
L 3281 2863 
L 3281 2744 
Q 3072 2744 3000 2701 
Q 2928 2659 2887 2596 
Q 2847 2534 2847 2191 
L 2847 719 
Q 2847 316 2919 222 
Q 2991 128 3281 116 
z
" transform="scale(0.015625)"/>
       <path id="TimesNewRomanPSMT-2c" d="M 344 -1066 
L 344 -928 
Q 666 -822 842 -598 
Q 1019 -375 1019 -125 
Q 1019 -66 991 -25 
Q 969 3 947 3 
Q 913 3 797 -59 
Q 741 -88 678 -88 
Q 525 -88 434 3 
Q 344 94 344 253 
Q 344 406 461 515 
Q 578 625 747 625 
Q 953 625 1114 445 
Q 1275 266 1275 -31 
Q 1275 -353 1051 -629 
Q 828 -906 344 -1066 
z
" transform="scale(0.015625)"/>
       <path id="TimesNewRomanPSMT-43c" d="M 2050 747 
L 2944 2863 
L 3909 2863 
L 3909 2744 
Q 3697 2744 3626 2701 
Q 3556 2659 3515 2596 
Q 3475 2534 3475 2191 
L 3475 672 
Q 3475 375 3504 289 
Q 3534 203 3626 159 
Q 3719 116 3909 116 
L 3909 0 
L 2525 0 
L 2525 116 
Q 2781 116 2868 211 
Q 2956 306 2956 672 
L 2956 2394 
L 1944 0 
L 1834 0 
L 803 2394 
L 803 672 
Q 803 375 834 289 
Q 866 203 956 159 
Q 1047 116 1238 116 
L 1238 0 
L 144 0 
L 144 116 
Q 422 116 500 217 
Q 578 319 578 672 
L 578 2191 
Q 578 2525 543 2586 
Q 509 2647 437 2695 
Q 366 2744 144 2744 
L 144 2863 
L 1150 2863 
L 2050 747 
z
" transform="scale(0.015625)"/>
      </defs>
      <use xlink:href="#TimesNewRomanPSMT-434"/>
      <use xlink:href="#TimesNewRomanPSMT-43b" x="50.878906"/>
      <use xlink:href="#TimesNewRomanPSMT-438" x="100.78125"/>
      <use xlink:href="#TimesNewRomanPSMT-43d" x="154.296875"/>
      <use xlink:href="#TimesNewRomanPSMT-430" x="207.8125"/>
      <use xlink:href="#TimesNewRomanPSMT-20" x="252.197266"/>
      <use xlink:href="#TimesNewRomanPSMT-432" x="277.197266"/>
      <use xlink:href="#TimesNewRomanPSMT-43e" x="323.789062"/>
      <use xlink:href="#TimesNewRomanPSMT-43b" x="372.414062"/>
      <use xlink:href="#TimesNewRomanPSMT-43d" x="422.316406"/>
      <use xlink:href="#TimesNewRomanPSMT-44b" x="475.832031"/>
      <use xlink:href="#TimesNewRomanPSMT-20" x="543.019531"/>
      <use xlink:href="#TimesNewRomanPSMT-440" x="568.019531"/>
      <use xlink:href="#TimesNewRomanPSMT-435" x="618.019531"/>
      <use xlink:href="#TimesNewRomanPSMT-433" x="662.404297"/>
      <use xlink:href="#TimesNewRomanPSMT-438" x="703.419922"/>
      <use xlink:href="#TimesNewRomanPSMT-441" x="756.935547"/>
      <use xlink:href="#TimesNewRomanPSMT-442" x="801.320312"/>
      <use xlink:href="#TimesNewRomanPSMT-440" x="846.271484"/>
      <use xlink:href="#TimesNewRomanPSMT-430" x="896.271484"/>
      <use xlink:href="#TimesNewRomanPSMT-446" x="940.65625"/>
      <use xlink:href="#TimesNewRomanPSMT-438" x="994.171875"/>
      <use xlink:href="#TimesNewRomanPSMT-438" x="1047.6875"/>
      <use xlink:href="#TimesNewRomanPSMT-2c" x="1101.203125"/>
      <use xlink:href="#TimesNewRomanPSMT-20" x="1126.203125"/>
      <use xlink:href="#TimesNewRomanPSMT-43d" x="1151.203125"/>
      <use xlink:href="#TimesNewRomanPSMT-43c" x="1204.71875"/>
     </g>
    </g>
   </g>
   <g id="matplotlib.axis_2">
    <g id="ytick_1">
     <g id="line2d_13">
      <path d="M 83.25625 508.289205 
L 621.650816 508.289205 
" clip-path="url(#p540a12d532)" style="fill: none; stroke: #000000; stroke-width: 0.7; stroke-linecap: square"/>
     </g>
     <g id="line2d_14">
      <defs>
       <path id="me80c72db0b" d="M 0 0 
L 10 0 
" style="stroke: #000000; stroke-width: 2"/>
      </defs>
      <g>
       <use xlink:href="#me80c72db0b" x="83.25625" y="508.289205" style="stroke: #000000; stroke-width: 2"/>
      </g>
     </g>
     <g id="text_8">
      <!-- −0.1 -->
      <g transform="translate(7.2 522.176705) scale(0.4 -0.4)">
       <defs>
        <path id="TimesNewRomanPSMT-2212" d="M 3484 2000 
L 116 2000 
L 116 2256 
L 3484 2256 
L 3484 2000 
z
" transform="scale(0.015625)"/>
        <path id="TimesNewRomanPSMT-2e" d="M 800 606 
Q 947 606 1047 504 
Q 1147 403 1147 259 
Q 1147 116 1045 14 
Q 944 -88 800 -88 
Q 656 -88 554 14 
Q 453 116 453 259 
Q 453 406 554 506 
Q 656 606 800 606 
z
" transform="scale(0.015625)"/>
        <path id="TimesNewRomanPSMT-31" d="M 750 3822 
L 1781 4325 
L 1884 4325 
L 1884 747 
Q 1884 391 1914 303 
Q 1944 216 2037 169 
Q 2131 122 2419 116 
L 2419 0 
L 825 0 
L 825 116 
Q 1125 122 1212 167 
Q 1300 213 1334 289 
Q 1369 366 1369 747 
L 1369 3034 
Q 1369 3497 1338 3628 
Q 1316 3728 1258 3775 
Q 1200 3822 1119 3822 
Q 1003 3822 797 3725 
L 750 3822 
z
" transform="scale(0.015625)"/>
       </defs>
       <use xlink:href="#TimesNewRomanPSMT-2212"/>
       <use xlink:href="#TimesNewRomanPSMT-30" x="56.396484"/>
       <use xlink:href="#TimesNewRomanPSMT-2e" x="106.396484"/>
       <use xlink:href="#TimesNewRomanPSMT-31" x="131.396484"/>
      </g>
     </g>
    </g>
    <g id="ytick_2">
     <g id="line2d_15">
      <path d="M 83.25625 386.488779 
L 621.650816 386.488779 
" clip-path="url(#p540a12d532)" style="fill: none; stroke: #000000; stroke-width: 0.7; stroke-linecap: square"/>
     </g>
     <g id="line2d_16">
      <g>
       <use xlink:href="#me80c72db0b" x="83.25625" y="386.488779" style="stroke: #000000; stroke-width: 2"/>
      </g>
     </g>
     <g id="text_9">
      <!-- 0.0 -->
      <g transform="translate(29.75625 400.376279) scale(0.4 -0.4)">
       <use xlink:href="#TimesNewRomanPSMT-30"/>
       <use xlink:href="#TimesNewRomanPSMT-2e" x="50"/>
       <use xlink:href="#TimesNewRomanPSMT-30" x="75"/>
      </g>
     </g>
    </g>
    <g id="ytick_3">
     <g id="line2d_17">
      <path d="M 83.25625 264.688353 
L 621.650816 264.688353 
" clip-path="url(#p540a12d532)" style="fill: none; stroke: #000000; stroke-width: 0.7; stroke-linecap: square"/>
     </g>
     <g id="line2d_18">
      <g>
       <use xlink:href="#me80c72db0b" x="83.25625" y="264.688353" style="stroke: #000000; stroke-width: 2"/>
      </g>
     </g>
     <g id="text_10">
      <!-- 0.1 -->
      <g transform="translate(29.75625 278.575853) scale(0.4 -0.4)">
       <use xlink:href="#TimesNewRomanPSMT-30"/>
       <use xlink:href="#TimesNewRomanPSMT-2e" x="50"/>
       <use xlink:href="#TimesNewRomanPSMT-31" x="75"/>
      </g>
     </g>
    </g>
    <g id="ytick_4">
     <g id="line2d_19">
      <path d="M 83.25625 142.887926 
L 621.650816 142.887926 
" clip-path="url(#p540a12d532)" style="fill: none; stroke: #000000; stroke-width: 0.7; stroke-linecap: square"/>
     </g>
     <g id="line2d_20">
      <g>
       <use xlink:href="#me80c72db0b" x="83.25625" y="142.887926" style="stroke: #000000; stroke-width: 2"/>
      </g>
     </g>
     <g id="text_11">
      <!-- 0.2 -->
      <g transform="translate(29.75625 156.775426) scale(0.4 -0.4)">
       <use xlink:href="#TimesNewRomanPSMT-30"/>
       <use xlink:href="#TimesNewRomanPSMT-2e" x="50"/>
       <use xlink:href="#TimesNewRomanPSMT-32" x="75"/>
      </g>
     </g>
    </g>
    <g id="ytick_5">
     <g id="line2d_21">
      <path d="M 83.25625 21.0875 
L 621.650816 21.0875 
" clip-path="url(#p540a12d532)" style="fill: none; stroke: #000000; stroke-width: 0.7; stroke-linecap: square"/>
     </g>
     <g id="line2d_22">
      <g>
       <use xlink:href="#me80c72db0b" x="83.25625" y="21.0875" style="stroke: #000000; stroke-width: 2"/>
      </g>
     </g>
     <g id="text_12">
      <!-- 0.3 -->
      <g transform="translate(29.75625 34.975) scale(0.4 -0.4)">
       <use xlink:href="#TimesNewRomanPSMT-30"/>
       <use xlink:href="#TimesNewRomanPSMT-2e" x="50"/>
       <use xlink:href="#TimesNewRomanPSMT-33" x="75"/>
      </g>
     </g>
    </g>
   </g>
   <g id="line2d_23">
    <path d="M 107.72873 385.717001 
L 129.536427 385.261414 
L 136.606244 385.164752 
L 151.344124 384.877209 
L 158.413941 384.487311 
L 162.11202 384.090112 
L 165.791953 383.409109 
L 169.471887 382.451189 
L 172.86177 381.089881 
L 176.541704 379.136106 
L 180.239783 376.595785 
L 183.919717 372.901294 
L 187.59965 368.319652 
L 190.989533 362.838095 
L 194.669467 355.040381 
L 198.367546 343.125686 
L 202.04748 324.579846 
L 205.727414 296.378314 
L 209.117296 264.876943 
L 212.79723 225.017198 
L 216.495309 186.511669 
L 220.120862 151.358706 
L 223.746415 119.867163 
L 227.371967 93.272797 
L 230.99752 75.933174 
L 234.623072 62.686514 
L 238.303006 60.030192 
L 241.98294 64.088419 
L 249.052756 80.067494 
L 256.376388 106.553167 
L 260.001941 121.319813 
L 263.627494 137.110077 
L 274.558533 193.883769 
L 278.238466 215.152004 
L 281.628349 231.617611 
L 285.308283 250.216199 
L 289.006362 266.333895 
L 292.631915 279.977692 
L 296.257467 292.444623 
L 299.88302 303.43907 
L 303.508573 313.091642 
L 307.134125 322.174986 
L 310.759678 329.329774 
L 318.010783 342.253141 
L 325.261888 352.267139 
L 328.941822 356.198914 
L 332.621756 359.838416 
L 336.011639 363.018709 
L 339.691572 365.688551 
L 343.389651 368.19073 
L 347.015204 370.378886 
L 350.640757 372.339211 
L 354.266309 374.137549 
L 361.517415 376.689132 
L 365.142967 377.820966 
L 372.394073 379.714883 
L 383.27073 381.56629 
L 386.896283 382.009458 
L 408.758361 383.546101 
L 423.151809 384.058347 
L 430.402915 384.204774 
L 437.65402 384.44686 
L 444.905125 384.569043 
L 463.141651 384.770218 
L 517.52494 385.669587 
L 528.220309 385.690726 
L 539.223875 385.723742 
L 549.919244 385.740866 
L 560.922809 385.795377 
L 568.21015 385.79284 
L 597.178336 385.888797 
L 597.178336 385.888797 
" clip-path="url(#p540a12d532)" style="fill: none; stroke-dasharray: 14.8,6.4; stroke-dashoffset: 0; stroke: #008000; stroke-width: 4"/>
   </g>
   <g id="line2d_24">
    <path d="M 107.72873 375.385548 
L 140.286205 374.798194 
L 147.66419 374.591018 
L 154.734007 374.185884 
L 158.413941 373.81443 
L 162.11202 373.274195 
L 165.791953 372.313167 
L 169.471887 370.989162 
L 172.86177 369.133922 
L 176.541704 366.511022 
L 180.239783 363.093705 
L 183.919717 358.219819 
L 187.59965 352.235331 
L 190.989533 345.163468 
L 194.669467 335.43307 
L 198.367546 321.893059 
L 202.04748 301.752949 
L 205.727414 272.793897 
L 209.117296 240.181184 
L 212.79723 199.996688 
L 216.495309 160.94995 
L 220.120862 124.086252 
L 223.746415 91.196793 
L 227.371967 65.397534 
L 230.99752 47.733803 
L 234.623072 38.920345 
L 238.303006 42.217827 
L 241.98294 53.53607 
L 245.372823 69.753063 
L 249.052756 89.706163 
L 252.750836 115.40775 
L 256.376388 142.916493 
L 260.001941 172.660975 
L 263.627494 206.059975 
L 270.878599 276.036954 
L 278.238466 346.53254 
L 281.628349 376.285636 
L 285.308283 405.47137 
L 289.006362 432.540041 
L 292.631915 455.638553 
L 296.257467 475.306443 
L 299.88302 491.969206 
L 303.508573 505.525802 
L 307.134125 516.576956 
L 310.759678 524.751976 
L 314.38523 530.805427 
L 318.010783 535.148602 
L 321.636336 537.651476 
L 325.261888 538.566879 
L 328.941822 537.881472 
L 332.621756 535.771094 
L 336.011639 532.737069 
L 339.691572 528.377086 
L 343.389651 523.291542 
L 347.015204 517.489724 
L 350.640757 511.258181 
L 354.266309 504.667002 
L 376.019625 463.305715 
L 383.27073 451.190708 
L 386.896283 445.487595 
L 394.147388 435.060869 
L 397.772941 430.369054 
L 404.897139 422.023919 
L 408.758361 417.962041 
L 415.900704 411.132694 
L 419.526257 408.078062 
L 426.777362 402.530389 
L 434.028467 398.004415 
L 437.65402 395.895105 
L 444.905125 392.243844 
L 448.530678 390.80007 
L 452.15623 389.610804 
L 470.283994 384.795865 
L 473.83702 383.916761 
L 481.269414 382.426961 
L 488.411757 381.252943 
L 495.662862 380.328966 
L 506.53952 379.300396 
L 524.667283 378.059573 
L 539.223875 377.350387 
L 553.780466 376.868398 
L 568.21015 376.565969 
L 586.17477 376.317086 
L 597.178336 376.211564 
L 597.178336 376.211564 
" clip-path="url(#p540a12d532)" style="fill: none; stroke: #ff0000; stroke-width: 4; stroke-linecap: square"/>
   </g>
   <g id="patch_3">
    <path d="M 83.25625 563.549205 
L 83.25625 13.938018 
" style="fill: none; stroke: #000000; stroke-width: 0.8; stroke-linejoin: miter; stroke-linecap: square"/>
   </g>
   <g id="patch_4">
    <path d="M 621.650816 563.549205 
L 621.650816 13.938018 
" style="fill: none; stroke: #000000; stroke-width: 0.8; stroke-linejoin: miter; stroke-linecap: square"/>
   </g>
   <g id="patch_5">
    <path d="M 83.25625 563.549205 
L 621.650816 563.549205 
" style="fill: none; stroke: #000000; stroke-width: 0.8; stroke-linejoin: miter; stroke-linecap: square"/>
   </g>
   <g id="patch_6">
    <path d="M 83.25625 13.938018 
L 621.650816 13.938018 
" style="fill: none; stroke: #000000; stroke-width: 0.8; stroke-linejoin: miter; stroke-linecap: square"/>
   </g>
   <g id="legend_1">
    <g id="patch_7">
     <path d="M 250.602379 122.772393 
L 600.650816 122.772393 
Q 606.650816 122.772393 606.650816 116.772393 
L 606.650816 34.938018 
Q 606.650816 28.938018 600.650816 28.938018 
L 250.602379 28.938018 
Q 244.602379 28.938018 244.602379 34.938018 
L 244.602379 116.772393 
Q 244.602379 122.772393 250.602379 122.772393 
z
" style="fill: #ffffff; opacity: 0.8; stroke: #cccccc; stroke-linejoin: miter"/>
    </g>
    <g id="line2d_25">
     <path d="M 256.602379 51.438018 
L 286.602379 51.438018 
L 316.602379 51.438018 
" style="fill: none; stroke-dasharray: 14.8,6.4; stroke-dashoffset: 0; stroke: #008000; stroke-width: 4"/>
    </g>
    <g id="text_13">
     <!-- теоретические -->
     <g transform="translate(340.602379 61.938018) scale(0.3 -0.3)">
      <defs>
       <path id="TimesNewRomanPSMT-447" d="M 2125 1578 
L 2125 2191 
Q 2125 2488 2095 2573 
Q 2066 2659 1973 2701 
Q 1881 2744 1694 2744 
L 1694 2863 
L 3078 2863 
L 3078 2744 
Q 2866 2744 2795 2701 
Q 2725 2659 2684 2596 
Q 2644 2534 2644 2191 
L 2644 672 
Q 2644 375 2673 289 
Q 2703 203 2795 159 
Q 2888 116 3078 116 
L 3078 0 
L 1625 0 
L 1625 116 
Q 1875 125 1951 148 
Q 2028 172 2076 269 
Q 2125 366 2125 672 
L 2125 1372 
Q 1666 1138 1156 1138 
Q 878 1138 725 1208 
Q 572 1278 531 1370 
Q 491 1463 491 1669 
L 491 2191 
Q 491 2469 466 2556 
Q 441 2644 353 2694 
Q 266 2744 94 2744 
L 94 2863 
L 1441 2863 
L 1441 2744 
Q 1231 2744 1159 2701 
Q 1088 2659 1047 2596 
Q 1006 2534 1006 2191 
L 1006 1838 
Q 1006 1631 1036 1559 
Q 1066 1488 1173 1439 
Q 1281 1391 1478 1391 
Q 1819 1391 2125 1578 
z
" transform="scale(0.015625)"/>
       <path id="TimesNewRomanPSMT-43a" d="M 3072 0 
L 2228 0 
Q 1834 572 1516 1172 
Q 1441 1309 1380 1376 
Q 1319 1444 1213 1444 
Q 1175 1444 1094 1438 
L 1094 672 
Q 1094 363 1130 277 
Q 1166 191 1259 153 
Q 1353 116 1575 116 
L 1575 0 
L 144 0 
L 144 116 
Q 422 116 500 217 
Q 578 319 578 672 
L 578 2191 
Q 578 2525 543 2586 
Q 509 2647 437 2695 
Q 366 2744 144 2744 
L 144 2863 
L 1575 2863 
L 1575 2744 
Q 1316 2744 1255 2706 
Q 1194 2669 1144 2614 
Q 1094 2559 1094 2191 
L 1094 1628 
Q 1166 1622 1191 1622 
Q 1381 1622 1548 1730 
Q 1716 1838 1847 2188 
Q 1969 2519 2048 2634 
Q 2128 2750 2270 2823 
Q 2413 2897 2569 2897 
Q 2738 2897 2838 2815 
Q 2938 2734 2938 2603 
Q 2938 2494 2866 2417 
Q 2794 2341 2666 2341 
Q 2597 2341 2494 2378 
Q 2363 2425 2294 2425 
Q 2150 2425 2056 2178 
Q 1950 1894 1900 1811 
Q 1850 1728 1709 1591 
Q 1806 1563 1920 1447 
Q 2034 1331 2344 788 
Q 2591 353 2714 237 
Q 2838 122 3072 116 
L 3072 0 
z
" transform="scale(0.015625)"/>
      </defs>
      <use xlink:href="#TimesNewRomanPSMT-442"/>
      <use xlink:href="#TimesNewRomanPSMT-435" x="43.701172"/>
      <use xlink:href="#TimesNewRomanPSMT-43e" x="88.085938"/>
      <use xlink:href="#TimesNewRomanPSMT-440" x="138.085938"/>
      <use xlink:href="#TimesNewRomanPSMT-435" x="188.085938"/>
      <use xlink:href="#TimesNewRomanPSMT-442" x="232.470703"/>
      <use xlink:href="#TimesNewRomanPSMT-438" x="276.171875"/>
      <use xlink:href="#TimesNewRomanPSMT-447" x="329.6875"/>
      <use xlink:href="#TimesNewRomanPSMT-435" x="379.980469"/>
      <use xlink:href="#TimesNewRomanPSMT-441" x="426.865234"/>
      <use xlink:href="#TimesNewRomanPSMT-43a" x="471.25"/>
      <use xlink:href="#TimesNewRomanPSMT-438" x="519.833984"/>
      <use xlink:href="#TimesNewRomanPSMT-435" x="573.349609"/>
     </g>
    </g>
    <g id="line2d_26">
     <path d="M 256.602379 93.855206 
L 286.602379 93.855206 
L 316.602379 93.855206 
" style="fill: none; stroke: #ff0000; stroke-width: 4; stroke-linecap: square"/>
    </g>
    <g id="text_14">
     <!-- экспериментальные -->
     <g transform="translate(340.602379 104.355206) scale(0.3 -0.3)">
      <defs>
       <path id="TimesNewRomanPSMT-44d" d="M 281 1972 
L 400 1972 
Q 438 2300 631 2522 
Q 825 2744 1119 2744 
Q 1434 2744 1646 2442 
Q 1859 2141 1919 1625 
L 991 1625 
L 991 1422 
L 1941 1422 
L 1941 1269 
Q 1941 647 1694 376 
Q 1447 106 1078 106 
Q 544 106 191 609 
L 84 547 
Q 519 -88 1141 -88 
Q 1753 -88 2140 370 
Q 2528 828 2528 1469 
Q 2528 2125 2131 2536 
Q 1734 2947 1241 2947 
Q 1047 2947 756 2856 
Q 581 2803 531 2803 
Q 466 2803 400 2863 
L 281 2863 
L 281 1972 
z
" transform="scale(0.015625)"/>
       <path id="TimesNewRomanPSMT-43f" d="M 2331 2659 
L 1094 2659 
L 1094 672 
Q 1094 341 1128 277 
Q 1163 213 1236 164 
Q 1309 116 1528 116 
L 1528 0 
L 144 0 
L 144 116 
Q 422 116 500 217 
Q 578 319 578 672 
L 578 2191 
Q 578 2525 543 2586 
Q 509 2647 437 2695 
Q 366 2744 144 2744 
L 144 2863 
L 3281 2863 
L 3281 2744 
Q 3072 2744 3000 2701 
Q 2928 2659 2887 2596 
Q 2847 2534 2847 2191 
L 2847 672 
Q 2847 341 2881 277 
Q 2916 213 2989 164 
Q 3063 116 3281 116 
L 3281 0 
L 1897 0 
L 1897 116 
Q 2156 116 2243 211 
Q 2331 306 2331 672 
L 2331 2659 
z
" transform="scale(0.015625)"/>
       <path id="TimesNewRomanPSMT-44c" d="M 1094 1588 
L 1450 1594 
Q 2725 1594 2725 806 
Q 2725 441 2414 220 
Q 2103 0 1519 0 
L 144 0 
L 144 116 
Q 422 116 500 217 
Q 578 319 578 672 
L 578 2191 
Q 578 2525 543 2586 
Q 509 2647 437 2695 
Q 366 2744 144 2744 
L 144 2863 
L 1641 2863 
L 1641 2744 
Q 1331 2744 1259 2708 
Q 1188 2672 1141 2614 
Q 1094 2556 1094 2191 
L 1094 1588 
z
M 1094 247 
Q 1259 203 1425 203 
Q 1738 203 1933 368 
Q 2128 534 2128 788 
Q 2128 1388 1294 1388 
Q 1222 1388 1094 1384 
L 1094 247 
z
" transform="scale(0.015625)"/>
      </defs>
      <use xlink:href="#TimesNewRomanPSMT-44d"/>
      <use xlink:href="#TimesNewRomanPSMT-43a" x="42.919922"/>
      <use xlink:href="#TimesNewRomanPSMT-441" x="89.003906"/>
      <use xlink:href="#TimesNewRomanPSMT-43f" x="133.388672"/>
      <use xlink:href="#TimesNewRomanPSMT-435" x="186.904297"/>
      <use xlink:href="#TimesNewRomanPSMT-440" x="231.289062"/>
      <use xlink:href="#TimesNewRomanPSMT-438" x="281.289062"/>
      <use xlink:href="#TimesNewRomanPSMT-43c" x="334.804688"/>
      <use xlink:href="#TimesNewRomanPSMT-435" x="398.085938"/>
      <use xlink:href="#TimesNewRomanPSMT-43d" x="442.470703"/>
      <use xlink:href="#TimesNewRomanPSMT-442" x="495.986328"/>
      <use xlink:href="#TimesNewRomanPSMT-430" x="540.9375"/>
      <use xlink:href="#TimesNewRomanPSMT-43b" x="586.197266"/>
      <use xlink:href="#TimesNewRomanPSMT-44c" x="636.099609"/>
      <use xlink:href="#TimesNewRomanPSMT-43d" x="681.705078"/>
      <use xlink:href="#TimesNewRomanPSMT-44b" x="735.220703"/>
      <use xlink:href="#TimesNewRomanPSMT-435" x="802.408203"/>
     </g>
    </g>
   </g>
  </g>
  <g id="axes_2">
   <g id="patch_8">
    <path d="M 734.22875 563.549205 
L 1272.623316 563.549205 
L 1272.623316 13.938018 
L 734.22875 13.938018 
z
" style="fill: #ffffff"/>
   </g>
   <g id="matplotlib.axis_3">
    <g id="xtick_7">
     <g id="line2d_27">
      <path d="M 813.08452 563.549205 
L 813.08452 13.938018 
" clip-path="url(#p75991f360d)" style="fill: none; stroke: #000000; stroke-width: 0.7; stroke-linecap: square"/>
     </g>
     <g id="line2d_28">
      <g>
       <use xlink:href="#mcb68a97910" x="813.08452" y="563.549205" style="stroke: #000000; stroke-width: 2"/>
      </g>
     </g>
     <g id="text_15">
      <!-- 240 -->
      <g transform="translate(783.08452 606.324205) scale(0.4 -0.4)">
       <use xlink:href="#TimesNewRomanPSMT-32"/>
       <use xlink:href="#TimesNewRomanPSMT-34" x="50"/>
       <use xlink:href="#TimesNewRomanPSMT-30" x="100"/>
      </g>
     </g>
    </g>
    <g id="xtick_8">
     <g id="line2d_29">
      <path d="M 921.851099 563.549205 
L 921.851099 13.938018 
" clip-path="url(#p75991f360d)" style="fill: none; stroke: #000000; stroke-width: 0.7; stroke-linecap: square"/>
     </g>
     <g id="line2d_30">
      <g>
       <use xlink:href="#mcb68a97910" x="921.851099" y="563.549205" style="stroke: #000000; stroke-width: 2"/>
      </g>
     </g>
     <g id="text_16">
      <!-- 260 -->
      <g transform="translate(891.851099 606.324205) scale(0.4 -0.4)">
       <defs>
        <path id="TimesNewRomanPSMT-36" d="M 2869 4325 
L 2869 4209 
Q 2456 4169 2195 4045 
Q 1934 3922 1679 3669 
Q 1425 3416 1258 3105 
Q 1091 2794 978 2366 
Q 1428 2675 1881 2675 
Q 2316 2675 2634 2325 
Q 2953 1975 2953 1425 
Q 2953 894 2631 456 
Q 2244 -75 1606 -75 
Q 1172 -75 869 213 
Q 275 772 275 1663 
Q 275 2231 503 2743 
Q 731 3256 1154 3653 
Q 1578 4050 1965 4187 
Q 2353 4325 2688 4325 
L 2869 4325 
z
M 925 2138 
Q 869 1716 869 1456 
Q 869 1156 980 804 
Q 1091 453 1309 247 
Q 1469 100 1697 100 
Q 1969 100 2183 356 
Q 2397 613 2397 1088 
Q 2397 1622 2184 2012 
Q 1972 2403 1581 2403 
Q 1463 2403 1327 2353 
Q 1191 2303 925 2138 
z
" transform="scale(0.015625)"/>
       </defs>
       <use xlink:href="#TimesNewRomanPSMT-32"/>
       <use xlink:href="#TimesNewRomanPSMT-36" x="50"/>
       <use xlink:href="#TimesNewRomanPSMT-30" x="100"/>
      </g>
     </g>
    </g>
    <g id="xtick_9">
     <g id="line2d_31">
      <path d="M 1030.617678 563.549205 
L 1030.617678 13.938018 
" clip-path="url(#p75991f360d)" style="fill: none; stroke: #000000; stroke-width: 0.7; stroke-linecap: square"/>
     </g>
     <g id="line2d_32">
      <g>
       <use xlink:href="#mcb68a97910" x="1030.617678" y="563.549205" style="stroke: #000000; stroke-width: 2"/>
      </g>
     </g>
     <g id="text_17">
      <!-- 280 -->
      <g transform="translate(1000.617678 606.324205) scale(0.4 -0.4)">
       <defs>
        <path id="TimesNewRomanPSMT-38" d="M 1228 2134 
Q 725 2547 579 2797 
Q 434 3047 434 3316 
Q 434 3728 753 4026 
Q 1072 4325 1600 4325 
Q 2113 4325 2425 4047 
Q 2738 3769 2738 3413 
Q 2738 3175 2569 2928 
Q 2400 2681 1866 2347 
Q 2416 1922 2594 1678 
Q 2831 1359 2831 1006 
Q 2831 559 2490 242 
Q 2150 -75 1597 -75 
Q 994 -75 656 303 
Q 388 606 388 966 
Q 388 1247 577 1523 
Q 766 1800 1228 2134 
z
M 1719 2469 
Q 2094 2806 2194 3001 
Q 2294 3197 2294 3444 
Q 2294 3772 2109 3958 
Q 1925 4144 1606 4144 
Q 1288 4144 1088 3959 
Q 888 3775 888 3528 
Q 888 3366 970 3203 
Q 1053 3041 1206 2894 
L 1719 2469 
z
M 1375 2016 
Q 1116 1797 991 1539 
Q 866 1281 866 981 
Q 866 578 1086 336 
Q 1306 94 1647 94 
Q 1984 94 2187 284 
Q 2391 475 2391 747 
Q 2391 972 2272 1150 
Q 2050 1481 1375 2016 
z
" transform="scale(0.015625)"/>
       </defs>
       <use xlink:href="#TimesNewRomanPSMT-32"/>
       <use xlink:href="#TimesNewRomanPSMT-38" x="50"/>
       <use xlink:href="#TimesNewRomanPSMT-30" x="100"/>
      </g>
     </g>
    </g>
    <g id="xtick_10">
     <g id="line2d_33">
      <path d="M 1139.384257 563.549205 
L 1139.384257 13.938018 
" clip-path="url(#p75991f360d)" style="fill: none; stroke: #000000; stroke-width: 0.7; stroke-linecap: square"/>
     </g>
     <g id="line2d_34">
      <g>
       <use xlink:href="#mcb68a97910" x="1139.384257" y="563.549205" style="stroke: #000000; stroke-width: 2"/>
      </g>
     </g>
     <g id="text_18">
      <!-- 300 -->
      <g transform="translate(1109.384257 606.324205) scale(0.4 -0.4)">
       <use xlink:href="#TimesNewRomanPSMT-33"/>
       <use xlink:href="#TimesNewRomanPSMT-30" x="50"/>
       <use xlink:href="#TimesNewRomanPSMT-30" x="100"/>
      </g>
     </g>
    </g>
    <g id="xtick_11">
     <g id="line2d_35">
      <path d="M 1248.150836 563.549205 
L 1248.150836 13.938018 
" clip-path="url(#p75991f360d)" style="fill: none; stroke: #000000; stroke-width: 0.7; stroke-linecap: square"/>
     </g>
     <g id="line2d_36">
      <g>
       <use xlink:href="#mcb68a97910" x="1248.150836" y="563.549205" style="stroke: #000000; stroke-width: 2"/>
      </g>
     </g>
     <g id="text_19">
      <!-- 320 -->
      <g transform="translate(1218.150836 606.324205) scale(0.4 -0.4)">
       <use xlink:href="#TimesNewRomanPSMT-33"/>
       <use xlink:href="#TimesNewRomanPSMT-32" x="50"/>
       <use xlink:href="#TimesNewRomanPSMT-30" x="100"/>
      </g>
     </g>
    </g>
    <g id="text_20">
     <!-- длина волны возбуждения, нм -->
     <g transform="translate(733.772908 659.044205) scale(0.42 -0.42)">
      <defs>
       <path id="TimesNewRomanPSMT-437" d="M 263 1966 
L 263 2863 
L 394 2863 
Q 450 2813 519 2813 
Q 572 2813 750 2863 
Q 1047 2947 1234 2947 
Q 1647 2947 1923 2756 
Q 2200 2566 2200 2250 
Q 2200 1766 1466 1547 
Q 2322 1369 2322 744 
Q 2322 416 2047 164 
Q 1772 -88 1247 -88 
Q 903 -88 642 35 
Q 381 159 75 453 
L 156 534 
Q 669 138 1128 138 
Q 1391 138 1559 316 
Q 1728 494 1728 778 
Q 1728 1400 925 1438 
L 925 1619 
Q 1303 1619 1473 1820 
Q 1644 2022 1644 2253 
Q 1644 2456 1498 2609 
Q 1353 2763 1113 2763 
Q 556 2763 375 1966 
L 263 1966 
z
" transform="scale(0.015625)"/>
       <path id="TimesNewRomanPSMT-431" d="M 469 2044 
Q 828 2947 1681 2947 
Q 2278 2947 2658 2500 
Q 3038 2053 3038 1478 
Q 3038 884 2653 398 
Q 2269 -88 1613 -88 
Q 944 -88 594 467 
Q 244 1022 244 1819 
Q 244 2438 425 2973 
Q 606 3509 806 3775 
Q 1006 4041 1268 4162 
Q 1531 4284 2197 4291 
Q 2675 4297 2775 4319 
Q 2875 4341 2966 4444 
L 3088 4444 
Q 2984 4138 2837 4006 
Q 2691 3875 2522 3829 
Q 2353 3784 1919 3772 
Q 1450 3759 1270 3701 
Q 1091 3644 897 3420 
Q 703 3197 595 2834 
Q 488 2472 469 2044 
z
M 1575 2734 
Q 1263 2734 1063 2475 
Q 863 2216 863 1659 
Q 863 906 1131 518 
Q 1400 131 1753 131 
Q 2078 131 2264 401 
Q 2450 672 2450 1266 
Q 2450 1897 2206 2315 
Q 1963 2734 1575 2734 
z
" transform="scale(0.015625)"/>
       <path id="TimesNewRomanPSMT-443" d="M 38 2863 
L 1372 2863 
L 1372 2747 
L 1306 2747 
Q 1166 2747 1095 2686 
Q 1025 2625 1025 2534 
Q 1025 2413 1128 2197 
L 1825 753 
L 2466 2334 
Q 2519 2463 2519 2588 
Q 2519 2644 2497 2672 
Q 2472 2706 2419 2726 
Q 2366 2747 2231 2747 
L 2231 2863 
L 3163 2863 
L 3163 2747 
Q 3047 2734 2984 2696 
Q 2922 2659 2847 2556 
Q 2819 2513 2741 2316 
L 1575 -541 
Q 1406 -956 1132 -1168 
Q 859 -1381 606 -1381 
Q 422 -1381 303 -1275 
Q 184 -1169 184 -1031 
Q 184 -900 270 -820 
Q 356 -741 506 -741 
Q 609 -741 788 -809 
Q 913 -856 944 -856 
Q 1038 -856 1148 -759 
Q 1259 -663 1372 -384 
L 1575 113 
L 547 2272 
Q 500 2369 397 2513 
Q 319 2622 269 2659 
Q 197 2709 38 2747 
L 38 2863 
z
" transform="scale(0.015625)"/>
       <path id="TimesNewRomanPSMT-436" d="M 1506 0 
L 1506 116 
Q 1797 144 1875 270 
Q 1953 397 1953 788 
L 1953 1438 
Q 1747 1438 1680 1391 
Q 1613 1344 1453 1038 
L 916 0 
L 72 0 
L 72 116 
Q 291 131 403 239 
Q 516 347 706 731 
Q 997 1316 1131 1439 
Q 1266 1563 1422 1575 
Q 1231 1656 1063 2088 
Q 981 2291 934 2355 
Q 888 2419 806 2419 
Q 744 2419 647 2381 
Q 506 2325 428 2325 
Q 303 2325 231 2409 
Q 159 2494 159 2613 
Q 159 2750 268 2823 
Q 378 2897 525 2897 
Q 781 2897 936 2745 
Q 1091 2594 1231 2203 
Q 1366 1831 1534 1718 
Q 1703 1606 1953 1606 
L 1953 2075 
Q 1953 2478 1870 2597 
Q 1788 2716 1506 2744 
L 1506 2863 
L 2919 2863 
L 2919 2744 
Q 2634 2713 2553 2594 
Q 2472 2475 2472 2075 
L 2472 1606 
Q 2719 1606 2887 1718 
Q 3056 1831 3191 2203 
Q 3359 2684 3542 2790 
Q 3725 2897 3891 2897 
Q 4075 2897 4170 2812 
Q 4266 2728 4266 2613 
Q 4266 2494 4194 2409 
Q 4122 2325 3997 2325 
Q 3919 2325 3778 2381 
Q 3681 2419 3628 2419 
Q 3538 2419 3491 2355 
Q 3444 2291 3363 2088 
Q 3194 1656 3003 1575 
Q 3166 1563 3300 1431 
Q 3434 1300 3713 741 
Q 3909 347 4021 239 
Q 4134 131 4353 116 
L 4353 0 
L 3509 0 
L 2972 1038 
Q 2813 1344 2745 1391 
Q 2678 1438 2472 1438 
L 2472 788 
Q 2472 341 2564 245 
Q 2656 150 2919 116 
L 2919 0 
L 1506 0 
z
" transform="scale(0.015625)"/>
       <path id="TimesNewRomanPSMT-44f" d="M 2800 2863 
L 2800 2744 
Q 2606 2744 2514 2691 
Q 2422 2638 2394 2556 
Q 2366 2475 2366 2191 
L 2366 672 
Q 2366 400 2391 314 
Q 2416 228 2511 172 
Q 2606 116 2800 116 
L 2800 0 
L 1416 0 
L 1416 116 
Q 1675 116 1762 211 
Q 1850 306 1850 672 
L 1850 1294 
L 1722 1291 
Q 1694 1291 1622 1294 
L 709 0 
L -3 0 
L -3 116 
Q 153 116 214 158 
Q 275 200 441 434 
L 1109 1378 
Q 391 1628 391 2144 
Q 391 2434 648 2648 
Q 906 2863 1528 2863 
L 2800 2863 
z
M 1850 2625 
Q 1728 2659 1619 2659 
Q 1303 2659 1147 2503 
Q 991 2347 991 2131 
Q 991 1856 1212 1675 
Q 1434 1494 1772 1494 
Q 1806 1494 1850 1500 
L 1850 2625 
z
" transform="scale(0.015625)"/>
      </defs>
      <use xlink:href="#TimesNewRomanPSMT-434"/>
      <use xlink:href="#TimesNewRomanPSMT-43b" x="50.878906"/>
      <use xlink:href="#TimesNewRomanPSMT-438" x="100.78125"/>
      <use xlink:href="#TimesNewRomanPSMT-43d" x="154.296875"/>
      <use xlink:href="#TimesNewRomanPSMT-430" x="207.8125"/>
      <use xlink:href="#TimesNewRomanPSMT-20" x="252.197266"/>
      <use xlink:href="#TimesNewRomanPSMT-432" x="277.197266"/>
      <use xlink:href="#TimesNewRomanPSMT-43e" x="323.789062"/>
      <use xlink:href="#TimesNewRomanPSMT-43b" x="372.414062"/>
      <use xlink:href="#TimesNewRomanPSMT-43d" x="422.316406"/>
      <use xlink:href="#TimesNewRomanPSMT-44b" x="475.832031"/>
      <use xlink:href="#TimesNewRomanPSMT-20" x="543.019531"/>
      <use xlink:href="#TimesNewRomanPSMT-432" x="568.019531"/>
      <use xlink:href="#TimesNewRomanPSMT-43e" x="614.611328"/>
      <use xlink:href="#TimesNewRomanPSMT-437" x="664.611328"/>
      <use xlink:href="#TimesNewRomanPSMT-431" x="704.113281"/>
      <use xlink:href="#TimesNewRomanPSMT-443" x="751.242188"/>
      <use xlink:href="#TimesNewRomanPSMT-436" x="799.867188"/>
      <use xlink:href="#TimesNewRomanPSMT-434" x="868.958984"/>
      <use xlink:href="#TimesNewRomanPSMT-435" x="919.837891"/>
      <use xlink:href="#TimesNewRomanPSMT-43d" x="964.222656"/>
      <use xlink:href="#TimesNewRomanPSMT-438" x="1017.738281"/>
      <use xlink:href="#TimesNewRomanPSMT-44f" x="1071.253906"/>
      <use xlink:href="#TimesNewRomanPSMT-2c" x="1117.25"/>
      <use xlink:href="#TimesNewRomanPSMT-20" x="1142.25"/>
      <use xlink:href="#TimesNewRomanPSMT-43d" x="1167.25"/>
      <use xlink:href="#TimesNewRomanPSMT-43c" x="1220.765625"/>
     </g>
    </g>
   </g>
   <g id="matplotlib.axis_4">
    <g id="ytick_6">
     <g id="line2d_37">
      <path d="M 734.22875 515.315923 
L 1272.623316 515.315923 
" clip-path="url(#p75991f360d)" style="fill: none; stroke: #000000; stroke-width: 0.7; stroke-linecap: square"/>
     </g>
     <g id="line2d_38">
      <g>
       <use xlink:href="#me80c72db0b" x="734.22875" y="515.315923" style="stroke: #000000; stroke-width: 2"/>
      </g>
     </g>
     <g id="text_21">
      <!-- 0.0 -->
      <g transform="translate(680.72875 529.203423) scale(0.4 -0.4)">
       <use xlink:href="#TimesNewRomanPSMT-30"/>
       <use xlink:href="#TimesNewRomanPSMT-2e" x="50"/>
       <use xlink:href="#TimesNewRomanPSMT-30" x="75"/>
      </g>
     </g>
    </g>
    <g id="ytick_7">
     <g id="line2d_39">
      <path d="M 734.22875 449.887053 
L 1272.623316 449.887053 
" clip-path="url(#p75991f360d)" style="fill: none; stroke: #000000; stroke-width: 0.7; stroke-linecap: square"/>
     </g>
     <g id="line2d_40">
      <g>
       <use xlink:href="#me80c72db0b" x="734.22875" y="449.887053" style="stroke: #000000; stroke-width: 2"/>
      </g>
     </g>
     <g id="text_22">
      <!-- 0.1 -->
      <g transform="translate(680.72875 463.774553) scale(0.4 -0.4)">
       <use xlink:href="#TimesNewRomanPSMT-30"/>
       <use xlink:href="#TimesNewRomanPSMT-2e" x="50"/>
       <use xlink:href="#TimesNewRomanPSMT-31" x="75"/>
      </g>
     </g>
    </g>
    <g id="ytick_8">
     <g id="line2d_41">
      <path d="M 734.22875 384.458183 
L 1272.623316 384.458183 
" clip-path="url(#p75991f360d)" style="fill: none; stroke: #000000; stroke-width: 0.7; stroke-linecap: square"/>
     </g>
     <g id="line2d_42">
      <g>
       <use xlink:href="#me80c72db0b" x="734.22875" y="384.458183" style="stroke: #000000; stroke-width: 2"/>
      </g>
     </g>
     <g id="text_23">
      <!-- 0.2 -->
      <g transform="translate(680.72875 398.345683) scale(0.4 -0.4)">
       <use xlink:href="#TimesNewRomanPSMT-30"/>
       <use xlink:href="#TimesNewRomanPSMT-2e" x="50"/>
       <use xlink:href="#TimesNewRomanPSMT-32" x="75"/>
      </g>
     </g>
    </g>
    <g id="ytick_9">
     <g id="line2d_43">
      <path d="M 734.22875 319.029312 
L 1272.623316 319.029312 
" clip-path="url(#p75991f360d)" style="fill: none; stroke: #000000; stroke-width: 0.7; stroke-linecap: square"/>
     </g>
     <g id="line2d_44">
      <g>
       <use xlink:href="#me80c72db0b" x="734.22875" y="319.029312" style="stroke: #000000; stroke-width: 2"/>
      </g>
     </g>
     <g id="text_24">
      <!-- 0.3 -->
      <g transform="translate(680.72875 332.916812) scale(0.4 -0.4)">
       <use xlink:href="#TimesNewRomanPSMT-30"/>
       <use xlink:href="#TimesNewRomanPSMT-2e" x="50"/>
       <use xlink:href="#TimesNewRomanPSMT-33" x="75"/>
      </g>
     </g>
    </g>
    <g id="ytick_10">
     <g id="line2d_45">
      <path d="M 734.22875 253.600442 
L 1272.623316 253.600442 
" clip-path="url(#p75991f360d)" style="fill: none; stroke: #000000; stroke-width: 0.7; stroke-linecap: square"/>
     </g>
     <g id="line2d_46">
      <g>
       <use xlink:href="#me80c72db0b" x="734.22875" y="253.600442" style="stroke: #000000; stroke-width: 2"/>
      </g>
     </g>
     <g id="text_25">
      <!-- 0.4 -->
      <g transform="translate(680.72875 267.487942) scale(0.4 -0.4)">
       <use xlink:href="#TimesNewRomanPSMT-30"/>
       <use xlink:href="#TimesNewRomanPSMT-2e" x="50"/>
       <use xlink:href="#TimesNewRomanPSMT-34" x="75"/>
      </g>
     </g>
    </g>
    <g id="ytick_11">
     <g id="line2d_47">
      <path d="M 734.22875 188.171572 
L 1272.623316 188.171572 
" clip-path="url(#p75991f360d)" style="fill: none; stroke: #000000; stroke-width: 0.7; stroke-linecap: square"/>
     </g>
     <g id="line2d_48">
      <g>
       <use xlink:href="#me80c72db0b" x="734.22875" y="188.171572" style="stroke: #000000; stroke-width: 2"/>
      </g>
     </g>
     <g id="text_26">
      <!-- 0.5 -->
      <g transform="translate(680.72875 202.059072) scale(0.4 -0.4)">
       <use xlink:href="#TimesNewRomanPSMT-30"/>
       <use xlink:href="#TimesNewRomanPSMT-2e" x="50"/>
       <use xlink:href="#TimesNewRomanPSMT-35" x="75"/>
      </g>
     </g>
    </g>
    <g id="ytick_12">
     <g id="line2d_49">
      <path d="M 734.22875 122.742702 
L 1272.623316 122.742702 
" clip-path="url(#p75991f360d)" style="fill: none; stroke: #000000; stroke-width: 0.7; stroke-linecap: square"/>
     </g>
     <g id="line2d_50">
      <g>
       <use xlink:href="#me80c72db0b" x="734.22875" y="122.742702" style="stroke: #000000; stroke-width: 2"/>
      </g>
     </g>
     <g id="text_27">
      <!-- 0.6 -->
      <g transform="translate(680.72875 136.630202) scale(0.4 -0.4)">
       <use xlink:href="#TimesNewRomanPSMT-30"/>
       <use xlink:href="#TimesNewRomanPSMT-2e" x="50"/>
       <use xlink:href="#TimesNewRomanPSMT-36" x="75"/>
      </g>
     </g>
    </g>
    <g id="ytick_13">
     <g id="line2d_51">
      <path d="M 734.22875 57.313832 
L 1272.623316 57.313832 
" clip-path="url(#p75991f360d)" style="fill: none; stroke: #000000; stroke-width: 0.7; stroke-linecap: square"/>
     </g>
     <g id="line2d_52">
      <g>
       <use xlink:href="#me80c72db0b" x="734.22875" y="57.313832" style="stroke: #000000; stroke-width: 2"/>
      </g>
     </g>
     <g id="text_28">
      <!-- 0.7 -->
      <g transform="translate(680.72875 71.201332) scale(0.4 -0.4)">
       <defs>
        <path id="TimesNewRomanPSMT-37" d="M 644 4238 
L 2916 4238 
L 2916 4119 
L 1503 -88 
L 1153 -88 
L 2419 3728 
L 1253 3728 
Q 900 3728 750 3644 
Q 488 3500 328 3200 
L 238 3234 
L 644 4238 
z
" transform="scale(0.015625)"/>
       </defs>
       <use xlink:href="#TimesNewRomanPSMT-30"/>
       <use xlink:href="#TimesNewRomanPSMT-2e" x="50"/>
       <use xlink:href="#TimesNewRomanPSMT-37" x="75"/>
      </g>
     </g>
    </g>
   </g>
   <g id="line2d_53">
    <path d="M 758.70123 38.920345 
L 785.892875 349.944218 
L 813.08452 483.590961 
L 840.276165 492.656561 
L 867.467809 481.028152 
L 894.659454 451.829687 
L 921.851099 405.011387 
L 949.042744 360.510716 
L 976.234388 323.390529 
L 1003.426033 314.232922 
L 1030.617678 337.769245 
L 1057.809323 384.343266 
L 1085.000967 449.240558 
L 1112.192612 490.889949 
L 1139.384257 510.218081 
L 1166.575902 515.099607 
L 1193.767546 515.1891 
L 1220.959191 514.990112 
L 1248.150836 514.855081 
" clip-path="url(#p75991f360d)" style="fill: none; stroke-dasharray: 14.8,6.4; stroke-dashoffset: 0; stroke: #008000; stroke-width: 4"/>
   </g>
   <g id="line2d_54">
    <path d="M 758.70123 116.524673 
L 785.892875 370.230802 
L 813.08452 485.963371 
L 840.276165 487.348699 
L 867.467809 465.826797 
L 894.659454 424.904571 
L 921.851099 367.553244 
L 949.042744 325.614355 
L 976.234388 299.724947 
L 1003.426033 296.92604 
L 1030.617678 321.755714 
L 1057.809323 360.66466 
L 1085.000967 437.995203 
L 1112.192612 498.876737 
L 1139.384257 525.06479 
L 1166.575902 535.072269 
L 1193.767546 537.253962 
L 1220.959191 537.842765 
L 1248.150836 538.566879 
" clip-path="url(#p75991f360d)" style="fill: none; stroke: #ff0000; stroke-width: 4; stroke-linecap: square"/>
   </g>
   <g id="patch_9">
    <path d="M 734.22875 563.549205 
L 734.22875 13.938018 
" style="fill: none; stroke: #000000; stroke-width: 0.8; stroke-linejoin: miter; stroke-linecap: square"/>
   </g>
   <g id="patch_10">
    <path d="M 1272.623316 563.549205 
L 1272.623316 13.938018 
" style="fill: none; stroke: #000000; stroke-width: 0.8; stroke-linejoin: miter; stroke-linecap: square"/>
   </g>
   <g id="patch_11">
    <path d="M 734.22875 563.549205 
L 1272.623316 563.549205 
" style="fill: none; stroke: #000000; stroke-width: 0.8; stroke-linejoin: miter; stroke-linecap: square"/>
   </g>
   <g id="patch_12">
    <path d="M 734.22875 13.938018 
L 1272.623316 13.938018 
" style="fill: none; stroke: #000000; stroke-width: 0.8; stroke-linejoin: miter; stroke-linecap: square"/>
   </g>
   <g id="legend_2">
    <g id="patch_13">
     <path d="M 901.574879 122.772393 
L 1251.623316 122.772393 
Q 1257.623316 122.772393 1257.623316 116.772393 
L 1257.623316 34.938018 
Q 1257.623316 28.938018 1251.623316 28.938018 
L 901.574879 28.938018 
Q 895.574879 28.938018 895.574879 34.938018 
L 895.574879 116.772393 
Q 895.574879 122.772393 901.574879 122.772393 
z
" style="fill: #ffffff; opacity: 0.8; stroke: #cccccc; stroke-linejoin: miter"/>
    </g>
    <g id="line2d_55">
     <path d="M 907.574879 51.438018 
L 937.574879 51.438018 
L 967.574879 51.438018 
" style="fill: none; stroke-dasharray: 14.8,6.4; stroke-dashoffset: 0; stroke: #008000; stroke-width: 4"/>
    </g>
    <g id="text_29">
     <!-- теоретические -->
     <g transform="translate(991.574879 61.938018) scale(0.3 -0.3)">
      <use xlink:href="#TimesNewRomanPSMT-442"/>
      <use xlink:href="#TimesNewRomanPSMT-435" x="43.701172"/>
      <use xlink:href="#TimesNewRomanPSMT-43e" x="88.085938"/>
      <use xlink:href="#TimesNewRomanPSMT-440" x="138.085938"/>
      <use xlink:href="#TimesNewRomanPSMT-435" x="188.085938"/>
      <use xlink:href="#TimesNewRomanPSMT-442" x="232.470703"/>
      <use xlink:href="#TimesNewRomanPSMT-438" x="276.171875"/>
      <use xlink:href="#TimesNewRomanPSMT-447" x="329.6875"/>
      <use xlink:href="#TimesNewRomanPSMT-435" x="379.980469"/>
      <use xlink:href="#TimesNewRomanPSMT-441" x="426.865234"/>
      <use xlink:href="#TimesNewRomanPSMT-43a" x="471.25"/>
      <use xlink:href="#TimesNewRomanPSMT-438" x="519.833984"/>
      <use xlink:href="#TimesNewRomanPSMT-435" x="573.349609"/>
     </g>
    </g>
    <g id="line2d_56">
     <path d="M 907.574879 93.855206 
L 937.574879 93.855206 
L 967.574879 93.855206 
" style="fill: none; stroke: #ff0000; stroke-width: 4; stroke-linecap: square"/>
    </g>
    <g id="text_30">
     <!-- экспериментальные -->
     <g transform="translate(991.574879 104.355206) scale(0.3 -0.3)">
      <use xlink:href="#TimesNewRomanPSMT-44d"/>
      <use xlink:href="#TimesNewRomanPSMT-43a" x="42.919922"/>
      <use xlink:href="#TimesNewRomanPSMT-441" x="89.003906"/>
      <use xlink:href="#TimesNewRomanPSMT-43f" x="133.388672"/>
      <use xlink:href="#TimesNewRomanPSMT-435" x="186.904297"/>
      <use xlink:href="#TimesNewRomanPSMT-440" x="231.289062"/>
      <use xlink:href="#TimesNewRomanPSMT-438" x="281.289062"/>
      <use xlink:href="#TimesNewRomanPSMT-43c" x="334.804688"/>
      <use xlink:href="#TimesNewRomanPSMT-435" x="398.085938"/>
      <use xlink:href="#TimesNewRomanPSMT-43d" x="442.470703"/>
      <use xlink:href="#TimesNewRomanPSMT-442" x="495.986328"/>
      <use xlink:href="#TimesNewRomanPSMT-430" x="540.9375"/>
      <use xlink:href="#TimesNewRomanPSMT-43b" x="586.197266"/>
      <use xlink:href="#TimesNewRomanPSMT-44c" x="636.099609"/>
      <use xlink:href="#TimesNewRomanPSMT-43d" x="681.705078"/>
      <use xlink:href="#TimesNewRomanPSMT-44b" x="735.220703"/>
      <use xlink:href="#TimesNewRomanPSMT-435" x="802.408203"/>
     </g>
    </g>
   </g>
  </g>
 </g>
 <defs>
  <clipPath id="p540a12d532">
   <rect x="83.25625" y="13.938018" width="538.394566" height="549.611187"/>
  </clipPath>
  <clipPath id="p75991f360d">
   <rect x="734.22875" y="13.938018" width="538.394566" height="549.611187"/>
  </clipPath>
 </defs>
</svg>
